%TF.GenerationSoftware,KiCad,Pcbnew,(6.0.7)*%
%TF.CreationDate,2022-09-23T16:11:02+09:00*%
%TF.ProjectId,selen-full_narrow,73656c65-6e2d-4667-956c-6c5f6e617272,rev?*%
%TF.SameCoordinates,Original*%
%TF.FileFunction,Legend,Bot*%
%TF.FilePolarity,Positive*%
%FSLAX46Y46*%
G04 Gerber Fmt 4.6, Leading zero omitted, Abs format (unit mm)*
G04 Created by KiCad (PCBNEW (6.0.7)) date 2022-09-23 16:11:02*
%MOMM*%
%LPD*%
G01*
G04 APERTURE LIST*
%ADD10C,0.150000*%
%ADD11C,0.100000*%
%ADD12C,0.101600*%
%ADD13C,0.076200*%
%ADD14C,0.120000*%
%ADD15C,0.200000*%
%ADD16C,0.010000*%
%ADD17C,0.127000*%
%ADD18C,0.066040*%
%ADD19C,0.254000*%
G04 APERTURE END LIST*
D10*
%TO.C,D9*%
X153900380Y-94711904D02*
X152900380Y-94711904D01*
X152900380Y-94950000D01*
X152948000Y-95092857D01*
X153043238Y-95188095D01*
X153138476Y-95235714D01*
X153328952Y-95283333D01*
X153471809Y-95283333D01*
X153662285Y-95235714D01*
X153757523Y-95188095D01*
X153852761Y-95092857D01*
X153900380Y-94950000D01*
X153900380Y-94711904D01*
X153900380Y-95759523D02*
X153900380Y-95950000D01*
X153852761Y-96045238D01*
X153805142Y-96092857D01*
X153662285Y-96188095D01*
X153471809Y-96235714D01*
X153090857Y-96235714D01*
X152995619Y-96188095D01*
X152948000Y-96140476D01*
X152900380Y-96045238D01*
X152900380Y-95854761D01*
X152948000Y-95759523D01*
X152995619Y-95711904D01*
X153090857Y-95664285D01*
X153328952Y-95664285D01*
X153424190Y-95711904D01*
X153471809Y-95759523D01*
X153519428Y-95854761D01*
X153519428Y-96045238D01*
X153471809Y-96140476D01*
X153424190Y-96188095D01*
X153328952Y-96235714D01*
%TO.C,D4*%
X153900380Y-78533904D02*
X152900380Y-78533904D01*
X152900380Y-78772000D01*
X152948000Y-78914857D01*
X153043238Y-79010095D01*
X153138476Y-79057714D01*
X153328952Y-79105333D01*
X153471809Y-79105333D01*
X153662285Y-79057714D01*
X153757523Y-79010095D01*
X153852761Y-78914857D01*
X153900380Y-78772000D01*
X153900380Y-78533904D01*
X153233714Y-79962476D02*
X153900380Y-79962476D01*
X152852761Y-79724380D02*
X153567047Y-79486285D01*
X153567047Y-80105333D01*
%TO.C,D12*%
X143902380Y-110785714D02*
X142902380Y-110785714D01*
X142902380Y-111023809D01*
X142950000Y-111166666D01*
X143045238Y-111261904D01*
X143140476Y-111309523D01*
X143330952Y-111357142D01*
X143473809Y-111357142D01*
X143664285Y-111309523D01*
X143759523Y-111261904D01*
X143854761Y-111166666D01*
X143902380Y-111023809D01*
X143902380Y-110785714D01*
X143902380Y-112309523D02*
X143902380Y-111738095D01*
X143902380Y-112023809D02*
X142902380Y-112023809D01*
X143045238Y-111928571D01*
X143140476Y-111833333D01*
X143188095Y-111738095D01*
X142997619Y-112690476D02*
X142950000Y-112738095D01*
X142902380Y-112833333D01*
X142902380Y-113071428D01*
X142950000Y-113166666D01*
X142997619Y-113214285D01*
X143092857Y-113261904D01*
X143188095Y-113261904D01*
X143330952Y-113214285D01*
X143902380Y-112642857D01*
X143902380Y-113261904D01*
%TO.C,D17*%
X194018860Y-125674378D02*
X193709843Y-126625434D01*
X193936285Y-126699010D01*
X194086865Y-126697867D01*
X194206872Y-126636720D01*
X194281591Y-126560858D01*
X194385739Y-126394420D01*
X194429885Y-126258555D01*
X194443457Y-126062686D01*
X194427598Y-125957394D01*
X194366452Y-125837387D01*
X194245302Y-125747953D01*
X194018860Y-125674378D01*
X195468089Y-126145261D02*
X194924628Y-125968680D01*
X195196358Y-126056970D02*
X194887341Y-127008027D01*
X194840910Y-126842731D01*
X194779763Y-126722724D01*
X194703901Y-126648006D01*
X195476090Y-127199323D02*
X196110128Y-127405334D01*
X196011549Y-126321842D01*
%TO.C,D15*%
X169802380Y-115135714D02*
X168802380Y-115135714D01*
X168802380Y-115373809D01*
X168850000Y-115516666D01*
X168945238Y-115611904D01*
X169040476Y-115659523D01*
X169230952Y-115707142D01*
X169373809Y-115707142D01*
X169564285Y-115659523D01*
X169659523Y-115611904D01*
X169754761Y-115516666D01*
X169802380Y-115373809D01*
X169802380Y-115135714D01*
X169802380Y-116659523D02*
X169802380Y-116088095D01*
X169802380Y-116373809D02*
X168802380Y-116373809D01*
X168945238Y-116278571D01*
X169040476Y-116183333D01*
X169088095Y-116088095D01*
X168802380Y-117564285D02*
X168802380Y-117088095D01*
X169278571Y-117040476D01*
X169230952Y-117088095D01*
X169183333Y-117183333D01*
X169183333Y-117421428D01*
X169230952Y-117516666D01*
X169278571Y-117564285D01*
X169373809Y-117611904D01*
X169611904Y-117611904D01*
X169707142Y-117564285D01*
X169754761Y-117516666D01*
X169802380Y-117421428D01*
X169802380Y-117183333D01*
X169754761Y-117088095D01*
X169707142Y-117040476D01*
%TO.C,D8*%
X139052380Y-92061904D02*
X138052380Y-92061904D01*
X138052380Y-92300000D01*
X138100000Y-92442857D01*
X138195238Y-92538095D01*
X138290476Y-92585714D01*
X138480952Y-92633333D01*
X138623809Y-92633333D01*
X138814285Y-92585714D01*
X138909523Y-92538095D01*
X139004761Y-92442857D01*
X139052380Y-92300000D01*
X139052380Y-92061904D01*
X138480952Y-93204761D02*
X138433333Y-93109523D01*
X138385714Y-93061904D01*
X138290476Y-93014285D01*
X138242857Y-93014285D01*
X138147619Y-93061904D01*
X138100000Y-93109523D01*
X138052380Y-93204761D01*
X138052380Y-93395238D01*
X138100000Y-93490476D01*
X138147619Y-93538095D01*
X138242857Y-93585714D01*
X138290476Y-93585714D01*
X138385714Y-93538095D01*
X138433333Y-93490476D01*
X138480952Y-93395238D01*
X138480952Y-93204761D01*
X138528571Y-93109523D01*
X138576190Y-93061904D01*
X138671428Y-93014285D01*
X138861904Y-93014285D01*
X138957142Y-93061904D01*
X139004761Y-93109523D01*
X139052380Y-93204761D01*
X139052380Y-93395238D01*
X139004761Y-93490476D01*
X138957142Y-93538095D01*
X138861904Y-93585714D01*
X138671428Y-93585714D01*
X138576190Y-93538095D01*
X138528571Y-93490476D01*
X138480952Y-93395238D01*
%TO.C,D11*%
X128314285Y-119052380D02*
X128314285Y-118052380D01*
X128076190Y-118052380D01*
X127933333Y-118100000D01*
X127838095Y-118195238D01*
X127790476Y-118290476D01*
X127742857Y-118480952D01*
X127742857Y-118623809D01*
X127790476Y-118814285D01*
X127838095Y-118909523D01*
X127933333Y-119004761D01*
X128076190Y-119052380D01*
X128314285Y-119052380D01*
X126790476Y-119052380D02*
X127361904Y-119052380D01*
X127076190Y-119052380D02*
X127076190Y-118052380D01*
X127171428Y-118195238D01*
X127266666Y-118290476D01*
X127361904Y-118338095D01*
X125838095Y-119052380D02*
X126409523Y-119052380D01*
X126123809Y-119052380D02*
X126123809Y-118052380D01*
X126219047Y-118195238D01*
X126314285Y-118290476D01*
X126409523Y-118338095D01*
%TO.C,D3*%
X140652380Y-75961904D02*
X139652380Y-75961904D01*
X139652380Y-76200000D01*
X139700000Y-76342857D01*
X139795238Y-76438095D01*
X139890476Y-76485714D01*
X140080952Y-76533333D01*
X140223809Y-76533333D01*
X140414285Y-76485714D01*
X140509523Y-76438095D01*
X140604761Y-76342857D01*
X140652380Y-76200000D01*
X140652380Y-75961904D01*
X139652380Y-76866666D02*
X139652380Y-77485714D01*
X140033333Y-77152380D01*
X140033333Y-77295238D01*
X140080952Y-77390476D01*
X140128571Y-77438095D01*
X140223809Y-77485714D01*
X140461904Y-77485714D01*
X140557142Y-77438095D01*
X140604761Y-77390476D01*
X140652380Y-77295238D01*
X140652380Y-77009523D01*
X140604761Y-76914285D01*
X140557142Y-76866666D01*
%TO.C,D5*%
X178938095Y-89952380D02*
X178938095Y-88952380D01*
X178700000Y-88952380D01*
X178557142Y-89000000D01*
X178461904Y-89095238D01*
X178414285Y-89190476D01*
X178366666Y-89380952D01*
X178366666Y-89523809D01*
X178414285Y-89714285D01*
X178461904Y-89809523D01*
X178557142Y-89904761D01*
X178700000Y-89952380D01*
X178938095Y-89952380D01*
X177461904Y-88952380D02*
X177938095Y-88952380D01*
X177985714Y-89428571D01*
X177938095Y-89380952D01*
X177842857Y-89333333D01*
X177604761Y-89333333D01*
X177509523Y-89380952D01*
X177461904Y-89428571D01*
X177414285Y-89523809D01*
X177414285Y-89761904D01*
X177461904Y-89857142D01*
X177509523Y-89904761D01*
X177604761Y-89952380D01*
X177842857Y-89952380D01*
X177938095Y-89904761D01*
X177985714Y-89857142D01*
%TO.C,D1*%
X120952380Y-92511904D02*
X119952380Y-92511904D01*
X119952380Y-92750000D01*
X120000000Y-92892857D01*
X120095238Y-92988095D01*
X120190476Y-93035714D01*
X120380952Y-93083333D01*
X120523809Y-93083333D01*
X120714285Y-93035714D01*
X120809523Y-92988095D01*
X120904761Y-92892857D01*
X120952380Y-92750000D01*
X120952380Y-92511904D01*
X120952380Y-94035714D02*
X120952380Y-93464285D01*
X120952380Y-93750000D02*
X119952380Y-93750000D01*
X120095238Y-93654761D01*
X120190476Y-93559523D01*
X120238095Y-93464285D01*
D11*
%TO.C,REF\u002A\u002A*%
X189181714Y-89778500D02*
X189181714Y-90159452D01*
X188848380Y-89921357D02*
X189705523Y-89921357D01*
X189800761Y-89968976D01*
X189848380Y-90064214D01*
X189848380Y-90159452D01*
X189800761Y-90873738D02*
X189848380Y-90778500D01*
X189848380Y-90588023D01*
X189800761Y-90492785D01*
X189705523Y-90445166D01*
X189324571Y-90445166D01*
X189229333Y-90492785D01*
X189181714Y-90588023D01*
X189181714Y-90778500D01*
X189229333Y-90873738D01*
X189324571Y-90921357D01*
X189419809Y-90921357D01*
X189515047Y-90445166D01*
X189181714Y-91349928D02*
X189848380Y-91349928D01*
X189276952Y-91349928D02*
X189229333Y-91397547D01*
X189181714Y-91492785D01*
X189181714Y-91635642D01*
X189229333Y-91730880D01*
X189324571Y-91778500D01*
X189848380Y-91778500D01*
X189181714Y-92111833D02*
X189181714Y-92492785D01*
X188848380Y-92254690D02*
X189705523Y-92254690D01*
X189800761Y-92302309D01*
X189848380Y-92397547D01*
X189848380Y-92492785D01*
X189848380Y-92826119D02*
X189181714Y-92826119D01*
X188848380Y-92826119D02*
X188896000Y-92778500D01*
X188943619Y-92826119D01*
X188896000Y-92873738D01*
X188848380Y-92826119D01*
X188943619Y-92826119D01*
X189181714Y-93302309D02*
X189848380Y-93302309D01*
X189276952Y-93302309D02*
X189229333Y-93349928D01*
X189181714Y-93445166D01*
X189181714Y-93588023D01*
X189229333Y-93683261D01*
X189324571Y-93730880D01*
X189848380Y-93730880D01*
X189181714Y-94635642D02*
X189991238Y-94635642D01*
X190086476Y-94588023D01*
X190134095Y-94540404D01*
X190181714Y-94445166D01*
X190181714Y-94302309D01*
X190134095Y-94207071D01*
X189800761Y-94635642D02*
X189848380Y-94540404D01*
X189848380Y-94349928D01*
X189800761Y-94254690D01*
X189753142Y-94207071D01*
X189657904Y-94159452D01*
X189372190Y-94159452D01*
X189276952Y-94207071D01*
X189229333Y-94254690D01*
X189181714Y-94349928D01*
X189181714Y-94540404D01*
X189229333Y-94635642D01*
X189245214Y-103732500D02*
X190245214Y-103732500D01*
X189292833Y-103732500D02*
X189245214Y-103827738D01*
X189245214Y-104018214D01*
X189292833Y-104113452D01*
X189340452Y-104161071D01*
X189435690Y-104208690D01*
X189721404Y-104208690D01*
X189816642Y-104161071D01*
X189864261Y-104113452D01*
X189911880Y-104018214D01*
X189911880Y-103827738D01*
X189864261Y-103732500D01*
X189245214Y-105065833D02*
X189911880Y-105065833D01*
X189245214Y-104637261D02*
X189769023Y-104637261D01*
X189864261Y-104684880D01*
X189911880Y-104780119D01*
X189911880Y-104922976D01*
X189864261Y-105018214D01*
X189816642Y-105065833D01*
X189864261Y-105970595D02*
X189911880Y-105875357D01*
X189911880Y-105684880D01*
X189864261Y-105589642D01*
X189816642Y-105542023D01*
X189721404Y-105494404D01*
X189435690Y-105494404D01*
X189340452Y-105542023D01*
X189292833Y-105589642D01*
X189245214Y-105684880D01*
X189245214Y-105875357D01*
X189292833Y-105970595D01*
X189911880Y-106399166D02*
X188911880Y-106399166D01*
X189530928Y-106494404D02*
X189911880Y-106780119D01*
X189245214Y-106780119D02*
X189626166Y-106399166D01*
D10*
%TO.C,D16*%
X189429189Y-124041536D02*
X189120172Y-124992592D01*
X189346614Y-125066168D01*
X189497194Y-125065025D01*
X189617201Y-125003878D01*
X189691920Y-124928016D01*
X189796068Y-124761578D01*
X189840214Y-124625713D01*
X189853786Y-124429844D01*
X189837927Y-124324552D01*
X189776781Y-124204545D01*
X189655631Y-124115111D01*
X189429189Y-124041536D01*
X190878418Y-124512419D02*
X190334957Y-124335838D01*
X190606687Y-124424128D02*
X190297670Y-125375185D01*
X190251239Y-125209889D01*
X190190092Y-125089882D01*
X190114230Y-125015164D01*
X191384592Y-125728347D02*
X191203438Y-125669487D01*
X191127577Y-125594768D01*
X191097003Y-125534765D01*
X191050572Y-125369469D01*
X191064144Y-125173600D01*
X191181864Y-124811293D01*
X191256583Y-124735431D01*
X191316586Y-124704858D01*
X191421878Y-124689000D01*
X191603032Y-124747860D01*
X191678894Y-124822579D01*
X191709467Y-124882582D01*
X191725325Y-124987874D01*
X191651750Y-125214316D01*
X191577031Y-125290178D01*
X191517028Y-125320751D01*
X191411736Y-125336610D01*
X191230582Y-125277749D01*
X191154720Y-125203031D01*
X191124147Y-125143027D01*
X191108289Y-125037735D01*
%TO.C,D13*%
X141852380Y-110985714D02*
X140852380Y-110985714D01*
X140852380Y-111223809D01*
X140900000Y-111366666D01*
X140995238Y-111461904D01*
X141090476Y-111509523D01*
X141280952Y-111557142D01*
X141423809Y-111557142D01*
X141614285Y-111509523D01*
X141709523Y-111461904D01*
X141804761Y-111366666D01*
X141852380Y-111223809D01*
X141852380Y-110985714D01*
X141852380Y-112509523D02*
X141852380Y-111938095D01*
X141852380Y-112223809D02*
X140852380Y-112223809D01*
X140995238Y-112128571D01*
X141090476Y-112033333D01*
X141138095Y-111938095D01*
X140852380Y-112842857D02*
X140852380Y-113461904D01*
X141233333Y-113128571D01*
X141233333Y-113271428D01*
X141280952Y-113366666D01*
X141328571Y-113414285D01*
X141423809Y-113461904D01*
X141661904Y-113461904D01*
X141757142Y-113414285D01*
X141804761Y-113366666D01*
X141852380Y-113271428D01*
X141852380Y-112985714D01*
X141804761Y-112890476D01*
X141757142Y-112842857D01*
%TO.C,D10*%
X179664285Y-105952380D02*
X179664285Y-104952380D01*
X179426190Y-104952380D01*
X179283333Y-105000000D01*
X179188095Y-105095238D01*
X179140476Y-105190476D01*
X179092857Y-105380952D01*
X179092857Y-105523809D01*
X179140476Y-105714285D01*
X179188095Y-105809523D01*
X179283333Y-105904761D01*
X179426190Y-105952380D01*
X179664285Y-105952380D01*
X178140476Y-105952380D02*
X178711904Y-105952380D01*
X178426190Y-105952380D02*
X178426190Y-104952380D01*
X178521428Y-105095238D01*
X178616666Y-105190476D01*
X178711904Y-105238095D01*
X177521428Y-104952380D02*
X177426190Y-104952380D01*
X177330952Y-105000000D01*
X177283333Y-105047619D01*
X177235714Y-105142857D01*
X177188095Y-105333333D01*
X177188095Y-105571428D01*
X177235714Y-105761904D01*
X177283333Y-105857142D01*
X177330952Y-105904761D01*
X177426190Y-105952380D01*
X177521428Y-105952380D01*
X177616666Y-105904761D01*
X177664285Y-105857142D01*
X177711904Y-105761904D01*
X177759523Y-105571428D01*
X177759523Y-105333333D01*
X177711904Y-105142857D01*
X177664285Y-105047619D01*
X177616666Y-105000000D01*
X177521428Y-104952380D01*
%TO.C,D14*%
X153900380Y-110985714D02*
X152900380Y-110985714D01*
X152900380Y-111223809D01*
X152948000Y-111366666D01*
X153043238Y-111461904D01*
X153138476Y-111509523D01*
X153328952Y-111557142D01*
X153471809Y-111557142D01*
X153662285Y-111509523D01*
X153757523Y-111461904D01*
X153852761Y-111366666D01*
X153900380Y-111223809D01*
X153900380Y-110985714D01*
X153900380Y-112509523D02*
X153900380Y-111938095D01*
X153900380Y-112223809D02*
X152900380Y-112223809D01*
X153043238Y-112128571D01*
X153138476Y-112033333D01*
X153186095Y-111938095D01*
X153233714Y-113366666D02*
X153900380Y-113366666D01*
X152852761Y-113128571D02*
X153567047Y-112890476D01*
X153567047Y-113509523D01*
%TO.C,J1*%
X205022880Y-119287595D02*
X205022880Y-119859023D01*
X206022880Y-119573309D02*
X205022880Y-119573309D01*
X206022880Y-120763785D02*
X205546690Y-120430452D01*
X206022880Y-120192357D02*
X205022880Y-120192357D01*
X205022880Y-120573309D01*
X205070500Y-120668547D01*
X205118119Y-120716166D01*
X205213357Y-120763785D01*
X205356214Y-120763785D01*
X205451452Y-120716166D01*
X205499071Y-120668547D01*
X205546690Y-120573309D01*
X205546690Y-120192357D01*
X206022880Y-121763785D02*
X205546690Y-121430452D01*
X206022880Y-121192357D02*
X205022880Y-121192357D01*
X205022880Y-121573309D01*
X205070500Y-121668547D01*
X205118119Y-121716166D01*
X205213357Y-121763785D01*
X205356214Y-121763785D01*
X205451452Y-121716166D01*
X205499071Y-121668547D01*
X205546690Y-121573309D01*
X205546690Y-121192357D01*
X205975261Y-122144738D02*
X206022880Y-122287595D01*
X206022880Y-122525690D01*
X205975261Y-122620928D01*
X205927642Y-122668547D01*
X205832404Y-122716166D01*
X205737166Y-122716166D01*
X205641928Y-122668547D01*
X205594309Y-122620928D01*
X205546690Y-122525690D01*
X205499071Y-122335214D01*
X205451452Y-122239976D01*
X205403833Y-122192357D01*
X205308595Y-122144738D01*
X205213357Y-122144738D01*
X205118119Y-122192357D01*
X205070500Y-122239976D01*
X205022880Y-122335214D01*
X205022880Y-122573309D01*
X205070500Y-122716166D01*
%TO.C,D2*%
X137277380Y-75911904D02*
X136277380Y-75911904D01*
X136277380Y-76150000D01*
X136325000Y-76292857D01*
X136420238Y-76388095D01*
X136515476Y-76435714D01*
X136705952Y-76483333D01*
X136848809Y-76483333D01*
X137039285Y-76435714D01*
X137134523Y-76388095D01*
X137229761Y-76292857D01*
X137277380Y-76150000D01*
X137277380Y-75911904D01*
X136372619Y-76864285D02*
X136325000Y-76911904D01*
X136277380Y-77007142D01*
X136277380Y-77245238D01*
X136325000Y-77340476D01*
X136372619Y-77388095D01*
X136467857Y-77435714D01*
X136563095Y-77435714D01*
X136705952Y-77388095D01*
X137277380Y-76816666D01*
X137277380Y-77435714D01*
%TO.C,D7*%
X141052380Y-91861904D02*
X140052380Y-91861904D01*
X140052380Y-92100000D01*
X140100000Y-92242857D01*
X140195238Y-92338095D01*
X140290476Y-92385714D01*
X140480952Y-92433333D01*
X140623809Y-92433333D01*
X140814285Y-92385714D01*
X140909523Y-92338095D01*
X141004761Y-92242857D01*
X141052380Y-92100000D01*
X141052380Y-91861904D01*
X140052380Y-92766666D02*
X140052380Y-93433333D01*
X141052380Y-93004761D01*
D12*
%TO.C,U1*%
X201181017Y-93581782D02*
X201181017Y-94301449D01*
X201138684Y-94386116D01*
X201096350Y-94428449D01*
X201011684Y-94470782D01*
X200842350Y-94470782D01*
X200757684Y-94428449D01*
X200715350Y-94386116D01*
X200673017Y-94301449D01*
X200673017Y-93581782D01*
X199784017Y-94470782D02*
X200292017Y-94470782D01*
X200038017Y-94470782D02*
X200038017Y-93581782D01*
X200122684Y-93708782D01*
X200207350Y-93793449D01*
X200292017Y-93835782D01*
D13*
X204025212Y-104720287D02*
X203618812Y-105329887D01*
X203618812Y-104720287D02*
X204025212Y-105329887D01*
X203386584Y-105329887D02*
X203386584Y-104720287D01*
X203125326Y-105155716D02*
X202835041Y-105155716D01*
X203183384Y-105329887D02*
X202980184Y-104720287D01*
X202776984Y-105329887D01*
X202457669Y-104720287D02*
X202341555Y-104720287D01*
X202283498Y-104749316D01*
X202225441Y-104807373D01*
X202196412Y-104923487D01*
X202196412Y-105126687D01*
X202225441Y-105242801D01*
X202283498Y-105300858D01*
X202341555Y-105329887D01*
X202457669Y-105329887D01*
X202515726Y-105300858D01*
X202573784Y-105242801D01*
X202602812Y-105126687D01*
X202602812Y-104923487D01*
X202573784Y-104807373D01*
X202515726Y-104749316D01*
X202457669Y-104720287D01*
X201935155Y-105097658D02*
X201470698Y-105097658D01*
X200832069Y-105329887D02*
X201035269Y-105039601D01*
X201180412Y-105329887D02*
X201180412Y-104720287D01*
X200948184Y-104720287D01*
X200890126Y-104749316D01*
X200861098Y-104778344D01*
X200832069Y-104836401D01*
X200832069Y-104923487D01*
X200861098Y-104981544D01*
X200890126Y-105010573D01*
X200948184Y-105039601D01*
X201180412Y-105039601D01*
X200570812Y-105329887D02*
X200570812Y-104720287D01*
X200338584Y-104720287D01*
X200280526Y-104749316D01*
X200251498Y-104778344D01*
X200222469Y-104836401D01*
X200222469Y-104923487D01*
X200251498Y-104981544D01*
X200280526Y-105010573D01*
X200338584Y-105039601D01*
X200570812Y-105039601D01*
X199990241Y-104778344D02*
X199961212Y-104749316D01*
X199903155Y-104720287D01*
X199758012Y-104720287D01*
X199699955Y-104749316D01*
X199670926Y-104778344D01*
X199641898Y-104836401D01*
X199641898Y-104894458D01*
X199670926Y-104981544D01*
X200019269Y-105329887D01*
X199641898Y-105329887D01*
X199264526Y-104720287D02*
X199206469Y-104720287D01*
X199148412Y-104749316D01*
X199119384Y-104778344D01*
X199090355Y-104836401D01*
X199061326Y-104952516D01*
X199061326Y-105097658D01*
X199090355Y-105213773D01*
X199119384Y-105271830D01*
X199148412Y-105300858D01*
X199206469Y-105329887D01*
X199264526Y-105329887D01*
X199322584Y-105300858D01*
X199351612Y-105271830D01*
X199380641Y-105213773D01*
X199409669Y-105097658D01*
X199409669Y-104952516D01*
X199380641Y-104836401D01*
X199351612Y-104778344D01*
X199322584Y-104749316D01*
X199264526Y-104720287D01*
X198538812Y-104923487D02*
X198538812Y-105329887D01*
X198683955Y-104691258D02*
X198829098Y-105126687D01*
X198451726Y-105126687D01*
X198103384Y-104720287D02*
X198045326Y-104720287D01*
X197987269Y-104749316D01*
X197958241Y-104778344D01*
X197929212Y-104836401D01*
X197900184Y-104952516D01*
X197900184Y-105097658D01*
X197929212Y-105213773D01*
X197958241Y-105271830D01*
X197987269Y-105300858D01*
X198045326Y-105329887D01*
X198103384Y-105329887D01*
X198161441Y-105300858D01*
X198190469Y-105271830D01*
X198219498Y-105213773D01*
X198248526Y-105097658D01*
X198248526Y-104952516D01*
X198219498Y-104836401D01*
X198190469Y-104778344D01*
X198161441Y-104749316D01*
X198103384Y-104720287D01*
D10*
%TO.C,D6*%
X123252380Y-108711904D02*
X122252380Y-108711904D01*
X122252380Y-108950000D01*
X122300000Y-109092857D01*
X122395238Y-109188095D01*
X122490476Y-109235714D01*
X122680952Y-109283333D01*
X122823809Y-109283333D01*
X123014285Y-109235714D01*
X123109523Y-109188095D01*
X123204761Y-109092857D01*
X123252380Y-108950000D01*
X123252380Y-108711904D01*
X122252380Y-110140476D02*
X122252380Y-109950000D01*
X122300000Y-109854761D01*
X122347619Y-109807142D01*
X122490476Y-109711904D01*
X122680952Y-109664285D01*
X123061904Y-109664285D01*
X123157142Y-109711904D01*
X123204761Y-109759523D01*
X123252380Y-109854761D01*
X123252380Y-110045238D01*
X123204761Y-110140476D01*
X123157142Y-110188095D01*
X123061904Y-110235714D01*
X122823809Y-110235714D01*
X122728571Y-110188095D01*
X122680952Y-110140476D01*
X122633333Y-110045238D01*
X122633333Y-109854761D01*
X122680952Y-109759523D01*
X122728571Y-109711904D01*
X122823809Y-109664285D01*
D14*
%TO.C,D9*%
X156448000Y-97650000D02*
X156448000Y-93600000D01*
X154448000Y-97650000D02*
X154448000Y-93600000D01*
X154448000Y-97650000D02*
X156448000Y-97650000D01*
%TO.C,D4*%
X154448000Y-81472000D02*
X154448000Y-77422000D01*
X156448000Y-81472000D02*
X156448000Y-77422000D01*
X154448000Y-81472000D02*
X156448000Y-81472000D01*
%TO.C,D12*%
X140500000Y-114400000D02*
X140500000Y-110350000D01*
X140500000Y-114400000D02*
X142500000Y-114400000D01*
X142500000Y-114400000D02*
X142500000Y-110350000D01*
%TO.C,D17*%
X192632579Y-126751072D02*
X192014545Y-128653185D01*
X192632579Y-126751072D02*
X196484358Y-128002591D01*
X192014545Y-128653185D02*
X195866324Y-129904704D01*
D10*
%TO.C,SW1*%
X106778000Y-90071500D02*
X111828000Y-90025500D01*
X115078000Y-81196500D02*
X118853000Y-81196500D01*
X109303000Y-83646500D02*
X111853000Y-83646500D01*
X109303000Y-78996500D02*
X113853000Y-78996500D01*
X113858000Y-79721500D02*
X113858000Y-79021500D01*
X114153000Y-85846500D02*
X118853000Y-85846500D01*
X106778000Y-90117500D02*
X106778000Y-94025500D01*
X117678000Y-88117500D02*
X114068000Y-88117500D01*
X117678000Y-92071500D02*
X117678000Y-88126500D01*
X109278000Y-83621500D02*
X109278000Y-79021500D01*
X118853000Y-85821500D02*
X118878000Y-81221500D01*
X106778000Y-94025500D02*
X115403000Y-94025500D01*
X111803000Y-90021500D02*
G75*
G03*
X114063000Y-88141500I190000J2070000D01*
G01*
X113858000Y-79771500D02*
G75*
G03*
X115078000Y-81191500I1320000J-100000D01*
G01*
X114148000Y-85821500D02*
G75*
G03*
X111778000Y-83651500I-2270000J-100000D01*
G01*
X115403000Y-94025500D02*
G75*
G03*
X117667000Y-92141500I190000J2074000D01*
G01*
%TO.C,SW13*%
X154441000Y-107243750D02*
X154441000Y-103298750D01*
X143541000Y-105289750D02*
X143541000Y-109197750D01*
X146041000Y-98793750D02*
X146041000Y-94193750D01*
X154441000Y-103289750D02*
X150831000Y-103289750D01*
X146066000Y-94168750D02*
X150616000Y-94168750D01*
X143541000Y-105243750D02*
X148591000Y-105197750D01*
X155616000Y-100993750D02*
X155641000Y-96393750D01*
X146066000Y-98818750D02*
X148616000Y-98818750D01*
X143541000Y-109197750D02*
X152166000Y-109197750D01*
X151841000Y-96368750D02*
X155616000Y-96368750D01*
X150621000Y-94893750D02*
X150621000Y-94193750D01*
X150916000Y-101018750D02*
X155616000Y-101018750D01*
X148566000Y-105193750D02*
G75*
G03*
X150826000Y-103313750I190000J2070000D01*
G01*
X150621000Y-94943750D02*
G75*
G03*
X151841000Y-96363750I1320000J-100000D01*
G01*
X150911000Y-100993750D02*
G75*
G03*
X148541000Y-98823750I-2270000J-100000D01*
G01*
X152166000Y-109197750D02*
G75*
G03*
X154430000Y-107313750I190000J2074000D01*
G01*
D14*
%TO.C,D15*%
X172350000Y-118550000D02*
X172350000Y-114500000D01*
X170350000Y-118550000D02*
X170350000Y-114500000D01*
X170350000Y-118550000D02*
X172350000Y-118550000D01*
%TO.C,D8*%
X141600000Y-95000000D02*
X141600000Y-90950000D01*
X139600000Y-95000000D02*
X141600000Y-95000000D01*
X139600000Y-95000000D02*
X139600000Y-90950000D01*
D10*
%TO.C,SW7*%
X136059750Y-93481000D02*
X132449750Y-93481000D01*
X127684750Y-84360000D02*
X132234750Y-84360000D01*
X137234750Y-91185000D02*
X137259750Y-86585000D01*
X127684750Y-89010000D02*
X130234750Y-89010000D01*
X136059750Y-97435000D02*
X136059750Y-93490000D01*
X132534750Y-91210000D02*
X137234750Y-91210000D01*
X125159750Y-99389000D02*
X133784750Y-99389000D01*
X133459750Y-86560000D02*
X137234750Y-86560000D01*
X127659750Y-88985000D02*
X127659750Y-84385000D01*
X125159750Y-95481000D02*
X125159750Y-99389000D01*
X132239750Y-85085000D02*
X132239750Y-84385000D01*
X125159750Y-95435000D02*
X130209750Y-95389000D01*
X130184750Y-95385000D02*
G75*
G03*
X132444750Y-93505000I190000J2070000D01*
G01*
X132239750Y-85135000D02*
G75*
G03*
X133459750Y-86555000I1320000J-100000D01*
G01*
X132529750Y-91185000D02*
G75*
G03*
X130159750Y-89015000I-2270000J-100000D01*
G01*
X133784750Y-99389000D02*
G75*
G03*
X136048750Y-97505000I190000J2074000D01*
G01*
D14*
%TO.C,D11*%
X130500000Y-117700000D02*
X126450000Y-117700000D01*
X130500000Y-117700000D02*
X130500000Y-115700000D01*
X130500000Y-115700000D02*
X126450000Y-115700000D01*
D10*
%TO.C,SW6*%
X111659750Y-99621500D02*
X111659750Y-95021500D01*
X120059750Y-108071500D02*
X120059750Y-104126500D01*
X111684750Y-99646500D02*
X114234750Y-99646500D01*
X116534750Y-101846500D02*
X121234750Y-101846500D01*
X111684750Y-94996500D02*
X116234750Y-94996500D01*
X116239750Y-95721500D02*
X116239750Y-95021500D01*
X121234750Y-101821500D02*
X121259750Y-97221500D01*
X109159750Y-106117500D02*
X109159750Y-110025500D01*
X109159750Y-106071500D02*
X114209750Y-106025500D01*
X109159750Y-110025500D02*
X117784750Y-110025500D01*
X117459750Y-97196500D02*
X121234750Y-97196500D01*
X120059750Y-104117500D02*
X116449750Y-104117500D01*
X117784750Y-110025500D02*
G75*
G03*
X120048750Y-108141500I190000J2074000D01*
G01*
X116239750Y-95771500D02*
G75*
G03*
X117459750Y-97191500I1320000J-100000D01*
G01*
X114184750Y-106021500D02*
G75*
G03*
X116444750Y-104141500I190000J2070000D01*
G01*
X116529750Y-101821500D02*
G75*
G03*
X114159750Y-99651500I-2270000J-100000D01*
G01*
%TO.C,SW11*%
X123616000Y-117821250D02*
X123641000Y-113221250D01*
X122441000Y-120117250D02*
X118831000Y-120117250D01*
X118916000Y-117846250D02*
X123616000Y-117846250D01*
X114066000Y-110996250D02*
X118616000Y-110996250D01*
X111541000Y-126025250D02*
X120166000Y-126025250D01*
X114041000Y-115621250D02*
X114041000Y-111021250D01*
X111541000Y-122071250D02*
X116591000Y-122025250D01*
X119841000Y-113196250D02*
X123616000Y-113196250D01*
X122441000Y-124071250D02*
X122441000Y-120126250D01*
X114066000Y-115646250D02*
X116616000Y-115646250D01*
X118621000Y-111721250D02*
X118621000Y-111021250D01*
X111541000Y-122117250D02*
X111541000Y-126025250D01*
X118911000Y-117821250D02*
G75*
G03*
X116541000Y-115651250I-2270000J-100000D01*
G01*
X120166000Y-126025250D02*
G75*
G03*
X122430000Y-124141250I190000J2074000D01*
G01*
X116566000Y-122021250D02*
G75*
G03*
X118826000Y-120141250I190000J2070000D01*
G01*
X118621000Y-111771250D02*
G75*
G03*
X119841000Y-113191250I1320000J-100000D01*
G01*
%TO.C,SW8*%
X146066000Y-78168750D02*
X150616000Y-78168750D01*
X150916000Y-85018750D02*
X155616000Y-85018750D01*
X143541000Y-89243750D02*
X148591000Y-89197750D01*
X143541000Y-89289750D02*
X143541000Y-93197750D01*
X151841000Y-80368750D02*
X155616000Y-80368750D01*
X154441000Y-91243750D02*
X154441000Y-87298750D01*
X150621000Y-78893750D02*
X150621000Y-78193750D01*
X155616000Y-84993750D02*
X155641000Y-80393750D01*
X143541000Y-93197750D02*
X152166000Y-93197750D01*
X146041000Y-82793750D02*
X146041000Y-78193750D01*
X154441000Y-87289750D02*
X150831000Y-87289750D01*
X146066000Y-82818750D02*
X148616000Y-82818750D01*
X152166000Y-93197750D02*
G75*
G03*
X154430000Y-91313750I190000J2074000D01*
G01*
X150621000Y-78943750D02*
G75*
G03*
X151841000Y-80363750I1320000J-100000D01*
G01*
X150911000Y-84993750D02*
G75*
G03*
X148541000Y-82823750I-2270000J-100000D01*
G01*
X148566000Y-89193750D02*
G75*
G03*
X150826000Y-87313750I190000J2070000D01*
G01*
%TO.C,SW10*%
X175540000Y-102563750D02*
X184165000Y-102563750D01*
X178040000Y-92159750D02*
X178040000Y-87559750D01*
X178065000Y-87534750D02*
X182615000Y-87534750D01*
X186440000Y-96655750D02*
X182830000Y-96655750D01*
X182620000Y-88259750D02*
X182620000Y-87559750D01*
X175540000Y-98655750D02*
X175540000Y-102563750D01*
X182915000Y-94384750D02*
X187615000Y-94384750D01*
X187615000Y-94359750D02*
X187640000Y-89759750D01*
X178065000Y-92184750D02*
X180615000Y-92184750D01*
X186440000Y-100609750D02*
X186440000Y-96664750D01*
X183840000Y-89734750D02*
X187615000Y-89734750D01*
X175540000Y-98609750D02*
X180590000Y-98563750D01*
X180565000Y-98559750D02*
G75*
G03*
X182825000Y-96679750I190000J2070000D01*
G01*
X184165000Y-102563750D02*
G75*
G03*
X186429000Y-100679750I190000J2074000D01*
G01*
X182910000Y-94359750D02*
G75*
G03*
X180540000Y-92189750I-2270000J-100000D01*
G01*
X182620000Y-88309750D02*
G75*
G03*
X183840000Y-89729750I1320000J-100000D01*
G01*
%TO.C,SW15*%
X182620000Y-104260000D02*
X182620000Y-103560000D01*
X178065000Y-108185000D02*
X180615000Y-108185000D01*
X178040000Y-108160000D02*
X178040000Y-103560000D01*
X175540000Y-114656000D02*
X175540000Y-118564000D01*
X183840000Y-105735000D02*
X187615000Y-105735000D01*
X186440000Y-112656000D02*
X182830000Y-112656000D01*
X182915000Y-110385000D02*
X187615000Y-110385000D01*
X175540000Y-118564000D02*
X184165000Y-118564000D01*
X187615000Y-110360000D02*
X187640000Y-105760000D01*
X178065000Y-103535000D02*
X182615000Y-103535000D01*
X175540000Y-114610000D02*
X180590000Y-114564000D01*
X186440000Y-116610000D02*
X186440000Y-112665000D01*
X182910000Y-110360000D02*
G75*
G03*
X180540000Y-108190000I-2270000J-100000D01*
G01*
X184165000Y-118564000D02*
G75*
G03*
X186429000Y-116680000I190000J2074000D01*
G01*
X180565000Y-114560000D02*
G75*
G03*
X182825000Y-112680000I190000J2070000D01*
G01*
X182620000Y-104310000D02*
G75*
G03*
X183840000Y-105730000I1320000J-100000D01*
G01*
%TO.C,SW3*%
X146041000Y-66793750D02*
X146041000Y-62193750D01*
X151841000Y-64368750D02*
X155616000Y-64368750D01*
X154441000Y-75243750D02*
X154441000Y-71298750D01*
X146066000Y-62168750D02*
X150616000Y-62168750D01*
X146066000Y-66818750D02*
X148616000Y-66818750D01*
X150621000Y-62893750D02*
X150621000Y-62193750D01*
X143541000Y-73243750D02*
X148591000Y-73197750D01*
X143541000Y-73289750D02*
X143541000Y-77197750D01*
X143541000Y-77197750D02*
X152166000Y-77197750D01*
X154441000Y-71289750D02*
X150831000Y-71289750D01*
X155616000Y-68993750D02*
X155641000Y-64393750D01*
X150916000Y-69018750D02*
X155616000Y-69018750D01*
X148566000Y-73193750D02*
G75*
G03*
X150826000Y-71313750I190000J2070000D01*
G01*
X152166000Y-77197750D02*
G75*
G03*
X154430000Y-75313750I190000J2074000D01*
G01*
X150621000Y-62943750D02*
G75*
G03*
X151841000Y-64363750I1320000J-100000D01*
G01*
X150911000Y-68993750D02*
G75*
G03*
X148541000Y-66823750I-2270000J-100000D01*
G01*
%TO.C,SW16*%
X186312926Y-134625297D02*
X182722702Y-134247949D01*
X174855083Y-139361572D02*
X183432835Y-140263130D01*
X175268389Y-135429233D02*
X180295533Y-135911354D01*
X187721487Y-132464696D02*
X188227181Y-127892508D01*
X175263580Y-135474981D02*
X174855083Y-139361572D01*
X183044621Y-131998275D02*
X187718873Y-132489559D01*
X183391473Y-125875993D02*
X183464643Y-125179827D01*
X184450611Y-127470437D02*
X188204931Y-127865032D01*
X178937209Y-124678837D02*
X183462284Y-125154442D01*
X185899621Y-138557637D02*
X186311985Y-134634248D01*
X178428902Y-129275888D02*
X178909733Y-124701087D01*
X178451152Y-129303364D02*
X180987183Y-129569912D01*
X183432835Y-140263130D02*
G75*
G03*
X185881364Y-138626104I405751J2042778D01*
G01*
X183042261Y-131972889D02*
G75*
G03*
X180912071Y-129567045I-2268017J137827D01*
G01*
X180271088Y-135904762D02*
G75*
G03*
X182715221Y-134271295I405333J2038800D01*
G01*
X183386247Y-125925719D02*
G75*
G03*
X184451133Y-127465465I1302316J-237430D01*
G01*
D14*
%TO.C,D3*%
X139000000Y-79100000D02*
X141000000Y-79100000D01*
X139000000Y-79100000D02*
X139000000Y-75050000D01*
X141000000Y-79100000D02*
X141000000Y-75050000D01*
%TO.C,D5*%
X180400000Y-86500000D02*
X176350000Y-86500000D01*
X180400000Y-88500000D02*
X176350000Y-88500000D01*
X180400000Y-88500000D02*
X180400000Y-86500000D01*
%TO.C,D1*%
X119500000Y-95600000D02*
X119500000Y-91550000D01*
X119500000Y-95600000D02*
X121500000Y-95600000D01*
X121500000Y-95600000D02*
X121500000Y-91550000D01*
D10*
%TO.C,SW2*%
X129858500Y-69085000D02*
X129858500Y-68385000D01*
X125303500Y-68360000D02*
X129853500Y-68360000D01*
X122778500Y-79435000D02*
X127828500Y-79389000D01*
X133678500Y-81435000D02*
X133678500Y-77490000D01*
X131078500Y-70560000D02*
X134853500Y-70560000D01*
X122778500Y-83389000D02*
X131403500Y-83389000D01*
X125303500Y-73010000D02*
X127853500Y-73010000D01*
X130153500Y-75210000D02*
X134853500Y-75210000D01*
X122778500Y-79481000D02*
X122778500Y-83389000D01*
X133678500Y-77481000D02*
X130068500Y-77481000D01*
X134853500Y-75185000D02*
X134878500Y-70585000D01*
X125278500Y-72985000D02*
X125278500Y-68385000D01*
X129858500Y-69135000D02*
G75*
G03*
X131078500Y-70555000I1320000J-100000D01*
G01*
X130148500Y-75185000D02*
G75*
G03*
X127778500Y-73015000I-2270000J-100000D01*
G01*
X127803500Y-79385000D02*
G75*
G03*
X130063500Y-77505000I190000J2070000D01*
G01*
X131403500Y-83389000D02*
G75*
G03*
X133667500Y-81505000I190000J2074000D01*
G01*
D15*
%TO.C,REF\u002A\u002A*%
X169329999Y-102057500D02*
G75*
G03*
X170363865Y-106208046I20320001J2857500D01*
G01*
X188521615Y-109935864D02*
G75*
G03*
X189650000Y-109995000I1128379J10735785D01*
G01*
X196658049Y-79913867D02*
G75*
G03*
X192507500Y-78880000I-7008049J-19286133D01*
G01*
X189650000Y-109995001D02*
G75*
G03*
X190778385Y-109935864I0J10794901D01*
G01*
X170363865Y-92191956D02*
G75*
G03*
X169330000Y-96342500I19286255J-7008074D01*
G01*
X182641955Y-118486135D02*
G75*
G03*
X186792500Y-119520000I7008045J19286135D01*
G01*
X189650000Y-88405000D02*
G75*
G03*
X188521615Y-88464136I-6J-10794921D01*
G01*
X190778385Y-88464137D02*
G75*
G03*
X189650000Y-88405000I-1128385J-10735763D01*
G01*
X186792500Y-78879999D02*
G75*
G03*
X182641954Y-79913865I2857500J-20320001D01*
G01*
X192507500Y-119520000D02*
G75*
G03*
X196658045Y-118486135I-2857506J20320019D01*
G01*
G36*
X189527717Y-113630364D02*
G01*
X189525104Y-113658759D01*
X189516235Y-113705209D01*
X189478682Y-113832369D01*
X189423516Y-113958232D01*
X189353824Y-114076414D01*
X189272693Y-114180534D01*
X189264299Y-114189700D01*
X189155987Y-114290026D01*
X189033567Y-114374023D01*
X188900394Y-114440002D01*
X188759826Y-114486277D01*
X188615218Y-114511158D01*
X188514972Y-114515641D01*
X188366551Y-114504242D01*
X188223132Y-114471989D01*
X188086896Y-114419966D01*
X187960021Y-114349252D01*
X187844688Y-114260930D01*
X187743075Y-114156081D01*
X187657363Y-114035788D01*
X187600108Y-113928869D01*
X187546963Y-113789633D01*
X187515607Y-113645069D01*
X187509103Y-113548705D01*
X188004342Y-113548705D01*
X188004624Y-113553995D01*
X188008942Y-113609298D01*
X188016299Y-113651590D01*
X188028944Y-113690198D01*
X188049125Y-113734444D01*
X188070613Y-113772771D01*
X188112098Y-113831565D01*
X188160155Y-113887021D01*
X188209478Y-113933215D01*
X188254764Y-113964219D01*
X188270931Y-113971995D01*
X188311836Y-113989355D01*
X188354833Y-114005441D01*
X188427660Y-114024729D01*
X188531361Y-114033250D01*
X188632902Y-114020456D01*
X188729688Y-113987324D01*
X188819120Y-113934831D01*
X188898601Y-113863954D01*
X188965535Y-113775671D01*
X188994189Y-113721526D01*
X189024621Y-113627507D01*
X189035193Y-113529958D01*
X189026887Y-113432010D01*
X189000685Y-113336797D01*
X188957572Y-113247450D01*
X188898529Y-113167104D01*
X188824539Y-113098890D01*
X188736587Y-113045941D01*
X188722584Y-113039655D01*
X188624238Y-113009030D01*
X188522886Y-112998848D01*
X188421982Y-113008168D01*
X188324983Y-113036046D01*
X188235347Y-113081542D01*
X188156530Y-113143712D01*
X188091988Y-113221616D01*
X188074218Y-113250145D01*
X188030566Y-113343568D01*
X188007710Y-113441460D01*
X188004342Y-113548705D01*
X187509103Y-113548705D01*
X187505316Y-113492591D01*
X187508877Y-113402921D01*
X187531558Y-113252642D01*
X187574310Y-113110673D01*
X187636120Y-112978688D01*
X187715978Y-112858363D01*
X187812872Y-112751374D01*
X187925792Y-112659394D01*
X188053725Y-112584101D01*
X188123576Y-112551462D01*
X188198714Y-112522245D01*
X188270366Y-112502753D01*
X188346849Y-112490816D01*
X188436484Y-112484264D01*
X188454296Y-112483596D01*
X188593497Y-112490034D01*
X188723880Y-112517710D01*
X188846096Y-112566814D01*
X188960793Y-112637536D01*
X188984927Y-112654738D01*
X189009773Y-112671081D01*
X189022204Y-112677395D01*
X189023112Y-112673365D01*
X189024561Y-112649558D01*
X189025888Y-112606435D01*
X189027057Y-112546360D01*
X189028033Y-112471698D01*
X189028783Y-112384812D01*
X189029272Y-112288067D01*
X189029464Y-112183827D01*
X189029612Y-111690259D01*
X189537316Y-112200285D01*
X189537229Y-112891999D01*
X189537226Y-112903735D01*
X189536965Y-113054209D01*
X189536301Y-113191481D01*
X189535257Y-113314137D01*
X189533854Y-113420766D01*
X189532115Y-113509955D01*
X189531531Y-113529958D01*
X189530062Y-113580292D01*
X189527717Y-113630364D01*
G37*
D16*
X189527717Y-113630364D02*
X189525104Y-113658759D01*
X189516235Y-113705209D01*
X189478682Y-113832369D01*
X189423516Y-113958232D01*
X189353824Y-114076414D01*
X189272693Y-114180534D01*
X189264299Y-114189700D01*
X189155987Y-114290026D01*
X189033567Y-114374023D01*
X188900394Y-114440002D01*
X188759826Y-114486277D01*
X188615218Y-114511158D01*
X188514972Y-114515641D01*
X188366551Y-114504242D01*
X188223132Y-114471989D01*
X188086896Y-114419966D01*
X187960021Y-114349252D01*
X187844688Y-114260930D01*
X187743075Y-114156081D01*
X187657363Y-114035788D01*
X187600108Y-113928869D01*
X187546963Y-113789633D01*
X187515607Y-113645069D01*
X187509103Y-113548705D01*
X188004342Y-113548705D01*
X188004624Y-113553995D01*
X188008942Y-113609298D01*
X188016299Y-113651590D01*
X188028944Y-113690198D01*
X188049125Y-113734444D01*
X188070613Y-113772771D01*
X188112098Y-113831565D01*
X188160155Y-113887021D01*
X188209478Y-113933215D01*
X188254764Y-113964219D01*
X188270931Y-113971995D01*
X188311836Y-113989355D01*
X188354833Y-114005441D01*
X188427660Y-114024729D01*
X188531361Y-114033250D01*
X188632902Y-114020456D01*
X188729688Y-113987324D01*
X188819120Y-113934831D01*
X188898601Y-113863954D01*
X188965535Y-113775671D01*
X188994189Y-113721526D01*
X189024621Y-113627507D01*
X189035193Y-113529958D01*
X189026887Y-113432010D01*
X189000685Y-113336797D01*
X188957572Y-113247450D01*
X188898529Y-113167104D01*
X188824539Y-113098890D01*
X188736587Y-113045941D01*
X188722584Y-113039655D01*
X188624238Y-113009030D01*
X188522886Y-112998848D01*
X188421982Y-113008168D01*
X188324983Y-113036046D01*
X188235347Y-113081542D01*
X188156530Y-113143712D01*
X188091988Y-113221616D01*
X188074218Y-113250145D01*
X188030566Y-113343568D01*
X188007710Y-113441460D01*
X188004342Y-113548705D01*
X187509103Y-113548705D01*
X187505316Y-113492591D01*
X187508877Y-113402921D01*
X187531558Y-113252642D01*
X187574310Y-113110673D01*
X187636120Y-112978688D01*
X187715978Y-112858363D01*
X187812872Y-112751374D01*
X187925792Y-112659394D01*
X188053725Y-112584101D01*
X188123576Y-112551462D01*
X188198714Y-112522245D01*
X188270366Y-112502753D01*
X188346849Y-112490816D01*
X188436484Y-112484264D01*
X188454296Y-112483596D01*
X188593497Y-112490034D01*
X188723880Y-112517710D01*
X188846096Y-112566814D01*
X188960793Y-112637536D01*
X188984927Y-112654738D01*
X189009773Y-112671081D01*
X189022204Y-112677395D01*
X189023112Y-112673365D01*
X189024561Y-112649558D01*
X189025888Y-112606435D01*
X189027057Y-112546360D01*
X189028033Y-112471698D01*
X189028783Y-112384812D01*
X189029272Y-112288067D01*
X189029464Y-112183827D01*
X189029612Y-111690259D01*
X189537316Y-112200285D01*
X189537229Y-112891999D01*
X189537226Y-112903735D01*
X189536965Y-113054209D01*
X189536301Y-113191481D01*
X189535257Y-113314137D01*
X189533854Y-113420766D01*
X189532115Y-113509955D01*
X189531531Y-113529958D01*
X189530062Y-113580292D01*
X189527717Y-113630364D01*
G36*
X190437184Y-113716669D02*
G01*
X190449413Y-113726717D01*
X190474895Y-113750337D01*
X190511042Y-113785050D01*
X190555266Y-113828375D01*
X190604979Y-113877830D01*
X190766014Y-114039174D01*
X190732132Y-114076989D01*
X190728955Y-114080481D01*
X190707087Y-114103690D01*
X190672741Y-114139436D01*
X190628925Y-114184616D01*
X190578642Y-114236129D01*
X190524900Y-114290872D01*
X190351550Y-114466941D01*
X189731536Y-114466941D01*
X189759837Y-114433306D01*
X189762130Y-114430615D01*
X189782798Y-114407386D01*
X189815556Y-114371546D01*
X189858416Y-114325201D01*
X189909388Y-114270458D01*
X189966484Y-114209423D01*
X190027714Y-114144204D01*
X190091089Y-114076906D01*
X190154622Y-114009636D01*
X190216321Y-113944501D01*
X190274200Y-113883607D01*
X190326267Y-113829061D01*
X190370536Y-113782969D01*
X190405015Y-113747438D01*
X190427718Y-113724575D01*
X190436653Y-113716486D01*
X190437184Y-113716669D01*
G37*
X190437184Y-113716669D02*
X190449413Y-113726717D01*
X190474895Y-113750337D01*
X190511042Y-113785050D01*
X190555266Y-113828375D01*
X190604979Y-113877830D01*
X190766014Y-114039174D01*
X190732132Y-114076989D01*
X190728955Y-114080481D01*
X190707087Y-114103690D01*
X190672741Y-114139436D01*
X190628925Y-114184616D01*
X190578642Y-114236129D01*
X190524900Y-114290872D01*
X190351550Y-114466941D01*
X189731536Y-114466941D01*
X189759837Y-114433306D01*
X189762130Y-114430615D01*
X189782798Y-114407386D01*
X189815556Y-114371546D01*
X189858416Y-114325201D01*
X189909388Y-114270458D01*
X189966484Y-114209423D01*
X190027714Y-114144204D01*
X190091089Y-114076906D01*
X190154622Y-114009636D01*
X190216321Y-113944501D01*
X190274200Y-113883607D01*
X190326267Y-113829061D01*
X190370536Y-113782969D01*
X190405015Y-113747438D01*
X190427718Y-113724575D01*
X190436653Y-113716486D01*
X190437184Y-113716669D01*
G36*
X191730952Y-114426356D02*
G01*
X191640108Y-114334080D01*
X191626327Y-114320084D01*
X191594466Y-114287731D01*
X191548519Y-114241077D01*
X191489703Y-114181359D01*
X191419236Y-114109814D01*
X191338337Y-114027677D01*
X191248222Y-113936184D01*
X191150110Y-113836573D01*
X191045218Y-113730080D01*
X190934764Y-113617940D01*
X190819965Y-113501391D01*
X190702040Y-113381668D01*
X189854816Y-112521531D01*
X190143184Y-112518438D01*
X190431552Y-112515344D01*
X191234498Y-113318044D01*
X191234498Y-111684486D01*
X191730952Y-111684486D01*
X191730952Y-114426356D01*
G37*
X191730952Y-114426356D02*
X191640108Y-114334080D01*
X191626327Y-114320084D01*
X191594466Y-114287731D01*
X191548519Y-114241077D01*
X191489703Y-114181359D01*
X191419236Y-114109814D01*
X191338337Y-114027677D01*
X191248222Y-113936184D01*
X191150110Y-113836573D01*
X191045218Y-113730080D01*
X190934764Y-113617940D01*
X190819965Y-113501391D01*
X190702040Y-113381668D01*
X189854816Y-112521531D01*
X190143184Y-112518438D01*
X190431552Y-112515344D01*
X191234498Y-113318044D01*
X191234498Y-111684486D01*
X191730952Y-111684486D01*
X191730952Y-114426356D01*
D10*
%TO.C,SW9*%
X170440500Y-96006250D02*
X170440500Y-92061250D01*
X159540500Y-94006250D02*
X164590500Y-93960250D01*
X162065500Y-87581250D02*
X164615500Y-87581250D01*
X170440500Y-92052250D02*
X166830500Y-92052250D01*
X162040500Y-87556250D02*
X162040500Y-82956250D01*
X159540500Y-94052250D02*
X159540500Y-97960250D01*
X171615500Y-89756250D02*
X171640500Y-85156250D01*
X162065500Y-82931250D02*
X166615500Y-82931250D01*
X167840500Y-85131250D02*
X171615500Y-85131250D01*
X166915500Y-89781250D02*
X171615500Y-89781250D01*
X159540500Y-97960250D02*
X168165500Y-97960250D01*
X166620500Y-83656250D02*
X166620500Y-82956250D01*
X168165500Y-97960250D02*
G75*
G03*
X170429500Y-96076250I190000J2074000D01*
G01*
X166910500Y-89756250D02*
G75*
G03*
X164540500Y-87586250I-2270000J-100000D01*
G01*
X164565500Y-93956250D02*
G75*
G03*
X166825500Y-92076250I190000J2070000D01*
G01*
X166620500Y-83706250D02*
G75*
G03*
X167840500Y-85126250I1320000J-100000D01*
G01*
%TO.C,SW5*%
X183840000Y-73734750D02*
X187615000Y-73734750D01*
X187615000Y-78359750D02*
X187640000Y-73759750D01*
X186440000Y-80655750D02*
X182830000Y-80655750D01*
X178040000Y-76159750D02*
X178040000Y-71559750D01*
X186440000Y-84609750D02*
X186440000Y-80664750D01*
X182620000Y-72259750D02*
X182620000Y-71559750D01*
X178065000Y-71534750D02*
X182615000Y-71534750D01*
X175540000Y-82609750D02*
X180590000Y-82563750D01*
X175540000Y-86563750D02*
X184165000Y-86563750D01*
X175540000Y-82655750D02*
X175540000Y-86563750D01*
X182915000Y-78384750D02*
X187615000Y-78384750D01*
X178065000Y-76184750D02*
X180615000Y-76184750D01*
X182620000Y-72309750D02*
G75*
G03*
X183840000Y-73729750I1320000J-100000D01*
G01*
X180565000Y-82559750D02*
G75*
G03*
X182825000Y-80679750I190000J2070000D01*
G01*
X184165000Y-86563750D02*
G75*
G03*
X186429000Y-84679750I190000J2074000D01*
G01*
X182910000Y-78359750D02*
G75*
G03*
X180540000Y-76189750I-2270000J-100000D01*
G01*
D14*
%TO.C,D16*%
X191541519Y-128442697D02*
X187689740Y-127191178D01*
X192159553Y-126540584D02*
X188307774Y-125289065D01*
X191541519Y-128442697D02*
X192159553Y-126540584D01*
%TO.C,D13*%
X142400000Y-114400000D02*
X142400000Y-110350000D01*
X144400000Y-114400000D02*
X144400000Y-110350000D01*
X142400000Y-114400000D02*
X144400000Y-114400000D01*
%TO.C,D10*%
X180650000Y-104500000D02*
X180650000Y-102500000D01*
X180650000Y-104500000D02*
X176600000Y-104500000D01*
X180650000Y-102500000D02*
X176600000Y-102500000D01*
D10*
%TO.C,SW17*%
X198665985Y-134009459D02*
X201091179Y-134797453D01*
X198649934Y-133977957D02*
X200071412Y-129603097D01*
X193057280Y-143100207D02*
X201260143Y-145765479D01*
X194279133Y-139339729D02*
X199096183Y-140856517D01*
X205249469Y-140849650D02*
X201816154Y-139734099D01*
X204027615Y-144610128D02*
X205246687Y-140858210D01*
X200102914Y-129587046D02*
X204430221Y-130993074D01*
X204915428Y-133463944D02*
X208505667Y-134630483D01*
X204210939Y-131684135D02*
X204427251Y-131018395D01*
X207076463Y-139029120D02*
X208521718Y-134661985D01*
X202598772Y-137600516D02*
X207068738Y-139052896D01*
X194264919Y-139383478D02*
X193057280Y-143100207D01*
X204195488Y-131731688D02*
G75*
G03*
X204916973Y-133459189I1224493J-503008D01*
G01*
X199073643Y-140844987D02*
G75*
G03*
X201803983Y-139755379I820366J1909974D01*
G01*
X201260143Y-145765479D02*
G75*
G03*
X203995523Y-144673303I821602J1913778D01*
G01*
X202601742Y-137575195D02*
G75*
G03*
X201018305Y-134779032I-2189800J606363D01*
G01*
%TO.C,SW12*%
X130041000Y-104985000D02*
X130041000Y-100385000D01*
X138441000Y-113435000D02*
X138441000Y-109490000D01*
X127541000Y-115389000D02*
X136166000Y-115389000D01*
X127541000Y-111481000D02*
X127541000Y-115389000D01*
X139616000Y-107185000D02*
X139641000Y-102585000D01*
X127541000Y-111435000D02*
X132591000Y-111389000D01*
X134916000Y-107210000D02*
X139616000Y-107210000D01*
X138441000Y-109481000D02*
X134831000Y-109481000D01*
X134621000Y-101085000D02*
X134621000Y-100385000D01*
X135841000Y-102560000D02*
X139616000Y-102560000D01*
X130066000Y-100360000D02*
X134616000Y-100360000D01*
X130066000Y-105010000D02*
X132616000Y-105010000D01*
X134911000Y-107185000D02*
G75*
G03*
X132541000Y-105015000I-2270000J-100000D01*
G01*
X132566000Y-111385000D02*
G75*
G03*
X134826000Y-109505000I190000J2070000D01*
G01*
X134621000Y-101135000D02*
G75*
G03*
X135841000Y-102555000I1320000J-100000D01*
G01*
X136166000Y-115389000D02*
G75*
G03*
X138430000Y-113505000I190000J2074000D01*
G01*
D14*
%TO.C,D14*%
X154448000Y-114400000D02*
X156448000Y-114400000D01*
X154448000Y-114400000D02*
X154448000Y-110350000D01*
X156448000Y-114400000D02*
X156448000Y-110350000D01*
D10*
%TO.C,J1*%
X199984000Y-117125000D02*
X211984000Y-117125000D01*
X199984000Y-123125000D02*
X199984000Y-117125000D01*
X211984000Y-123125000D02*
X199984000Y-123125000D01*
X211984000Y-117125000D02*
X211984000Y-123125000D01*
D14*
%TO.C,D2*%
X137700000Y-79100000D02*
X137700000Y-75050000D01*
X135700000Y-79100000D02*
X135700000Y-75050000D01*
X135700000Y-79100000D02*
X137700000Y-79100000D01*
D10*
%TO.C,SW14*%
X162040500Y-103556250D02*
X162040500Y-98956250D01*
X166915500Y-105781250D02*
X171615500Y-105781250D01*
X162065500Y-98931250D02*
X166615500Y-98931250D01*
X171615500Y-105756250D02*
X171640500Y-101156250D01*
X170440500Y-108052250D02*
X166830500Y-108052250D01*
X167840500Y-101131250D02*
X171615500Y-101131250D01*
X159540500Y-110052250D02*
X159540500Y-113960250D01*
X170440500Y-112006250D02*
X170440500Y-108061250D01*
X159540500Y-110006250D02*
X164590500Y-109960250D01*
X162065500Y-103581250D02*
X164615500Y-103581250D01*
X159540500Y-113960250D02*
X168165500Y-113960250D01*
X166620500Y-99656250D02*
X166620500Y-98956250D01*
X168165500Y-113960250D02*
G75*
G03*
X170429500Y-112076250I190000J2074000D01*
G01*
X166620500Y-99706250D02*
G75*
G03*
X167840500Y-101126250I1320000J-100000D01*
G01*
X164565500Y-109956250D02*
G75*
G03*
X166825500Y-108076250I190000J2070000D01*
G01*
X166910500Y-105756250D02*
G75*
G03*
X164540500Y-103586250I-2270000J-100000D01*
G01*
D14*
%TO.C,D7*%
X139700000Y-95000000D02*
X139700000Y-90950000D01*
X137700000Y-95000000D02*
X139700000Y-95000000D01*
X137700000Y-95000000D02*
X137700000Y-90950000D01*
D10*
%TO.C,SW4*%
X166915500Y-73781250D02*
X171615500Y-73781250D01*
X159540500Y-78052250D02*
X159540500Y-81960250D01*
X166620500Y-67656250D02*
X166620500Y-66956250D01*
X162040500Y-71556250D02*
X162040500Y-66956250D01*
X159540500Y-81960250D02*
X168165500Y-81960250D01*
X167840500Y-69131250D02*
X171615500Y-69131250D01*
X171615500Y-73756250D02*
X171640500Y-69156250D01*
X170440500Y-76052250D02*
X166830500Y-76052250D01*
X162065500Y-66931250D02*
X166615500Y-66931250D01*
X170440500Y-80006250D02*
X170440500Y-76061250D01*
X159540500Y-78006250D02*
X164590500Y-77960250D01*
X162065500Y-71581250D02*
X164615500Y-71581250D01*
X168165500Y-81960250D02*
G75*
G03*
X170429500Y-80076250I190000J2074000D01*
G01*
X164565500Y-77956250D02*
G75*
G03*
X166825500Y-76076250I190000J2070000D01*
G01*
X166620500Y-67706250D02*
G75*
G03*
X167840500Y-69126250I1320000J-100000D01*
G01*
X166910500Y-73756250D02*
G75*
G03*
X164540500Y-71586250I-2270000J-100000D01*
G01*
D17*
%TO.C,U1*%
X209838184Y-115849116D02*
X192040404Y-115849116D01*
X205443984Y-100779296D02*
X205443984Y-93425996D01*
X209838184Y-95521496D02*
X209838184Y-115849116D01*
D18*
X203488184Y-115214116D02*
X197773184Y-115214116D01*
X206155184Y-97434116D02*
X204377184Y-97434116D01*
X203488184Y-98069116D02*
X198408184Y-98069116D01*
X197519184Y-97434116D02*
X195741184Y-97434116D01*
X195741184Y-101500656D02*
X195741184Y-98831116D01*
X203488184Y-95529116D02*
X198408184Y-95529116D01*
X203488184Y-98069116D02*
X203488184Y-95529116D01*
D17*
X209167624Y-94850936D02*
X209838184Y-95521496D01*
D18*
X197773184Y-115214116D02*
X197773184Y-112674116D01*
X206155184Y-94767116D02*
X204377184Y-94767116D01*
X203488184Y-115214116D02*
X203488184Y-112674116D01*
X203488184Y-112674116D02*
X197773184Y-112674116D01*
X197519184Y-98831116D02*
X195741184Y-98831116D01*
X204377184Y-97434116D02*
X204377184Y-94767116D01*
X195741184Y-97434116D02*
X195741184Y-94767116D01*
X206155184Y-97434116D02*
X206155184Y-94767116D01*
D17*
X196444764Y-100779296D02*
X205443984Y-100779296D01*
D18*
X197519184Y-94767116D02*
X195741184Y-94767116D01*
X206155184Y-101500656D02*
X204377184Y-101500656D01*
X206155184Y-98831116D02*
X204377184Y-98831116D01*
D17*
X205438904Y-93425996D02*
X196444764Y-93425996D01*
D18*
X198408184Y-98069116D02*
X198408184Y-95529116D01*
X197519184Y-101500656D02*
X195741184Y-101500656D01*
X197519184Y-97434116D02*
X197519184Y-94767116D01*
X197519184Y-101500656D02*
X197519184Y-98831116D01*
X204377184Y-101500656D02*
X204377184Y-98831116D01*
D17*
X192040404Y-115849116D02*
X192040404Y-94850936D01*
X196444764Y-93425996D02*
X196444764Y-100779296D01*
X192040404Y-94850936D02*
X209167624Y-94850936D01*
D18*
X206155184Y-101500656D02*
X206155184Y-98831116D01*
D19*
X210465184Y-95849116D02*
G75*
G03*
X210465184Y-95849116I-127000J0D01*
G01*
D14*
%TO.C,D6*%
X121800000Y-111800000D02*
X121800000Y-107750000D01*
X121800000Y-111800000D02*
X123800000Y-111800000D01*
X123800000Y-111800000D02*
X123800000Y-107750000D01*
%TD*%
M02*
