M48
; DRILL file {KiCad (6.0.7)} date 2022年09月23日 16時11分08秒
; FORMAT={-:-/ absolute / inch / decimal}
; #@! TF.CreationDate,2022-09-23T16:11:08+09:00
; #@! TF.GenerationSoftware,Kicad,Pcbnew,(6.0.7)
; #@! TF.FileFunction,Plated,1,2,PTH
FMAT,2
INCH
; #@! TA.AperFunction,Plated,PTH,ComponentDrill
T1C0.0118
; #@! TA.AperFunction,Plated,PTH,ViaDrill
T2C0.0157
; #@! TA.AperFunction,Plated,PTH,ComponentDrill
T3C0.0157
; #@! TA.AperFunction,Plated,PTH,ComponentDrill
T4C0.0394
; #@! TA.AperFunction,Plated,PTH,ComponentDrill
T5C0.0866
%
G90
G05
T1
X4.7205Y-3.5827
X4.7677Y-3.752
X4.811Y-4.2205
X4.8583Y-4.3898
X4.9567Y-4.6181
X5.126Y-4.5709
X5.3583Y-2.9331
X5.4055Y-3.1024
X5.437Y-3.5591
X5.4843Y-3.7283
X5.4882Y-2.9331
X5.5118Y-3.5591
X5.5354Y-3.1024
X5.5472Y-4.3228
X5.5591Y-3.7283
X5.5945Y-4.4921
X5.622Y-4.3228
X5.6693Y-4.4921
X6.0964Y-3.0265
X6.0964Y-3.6634
X6.0964Y-4.3228
X6.1436Y-3.1957
X6.1436Y-3.8327
X6.1436Y-4.4921
X6.7224Y-4.4862
X6.7697Y-4.6555
X6.9213Y-3.4685
X6.9311Y-4.0984
X7.0906Y-3.4213
X7.1004Y-4.0512
X7.3736Y-4.9859
X7.5492Y-4.9932
X7.5757Y-5.0538
X7.66Y-3.8263
X7.66Y-3.8755
X7.66Y-3.9247
X7.66Y-3.9739
X7.66Y-4.0231
X7.66Y-4.0723
X7.66Y-4.1216
X7.66Y-4.1708
X7.66Y-4.22
X7.66Y-4.2692
X7.66Y-4.3282
X7.66Y-4.3775
X7.66Y-4.4267
X7.66Y-4.4759
X7.7513Y-5.0611
X8.1521Y-3.8263
X8.1521Y-3.8755
X8.1521Y-3.9247
X8.1521Y-3.9739
X8.1521Y-4.0231
X8.1521Y-4.0723
X8.1521Y-4.1216
X8.1521Y-4.1708
X8.1521Y-4.22
X8.1521Y-4.2692
X8.1521Y-4.3282
X8.1521Y-4.3775
X8.1521Y-4.4267
X8.1521Y-4.4759
T2
X4.1181Y-3.4685
X4.2047Y-4.0945
X4.3051Y-4.7283
X4.4488Y-3.2755
X4.5315Y-3.9055
X4.62Y-3.73
X4.6339Y-4.5353
X4.6645Y-3.4716
X4.752Y-3.0512
X4.7583Y-4.116
X4.8425Y-3.6811
X4.852Y-4.7339
X4.937Y-4.311
X5.0748Y-2.8583
X5.1535Y-3.4961
X5.1929Y-4.5315
X5.25Y-4.122
X5.2953Y-2.9331
X5.2953Y-3.0512
X5.3898Y-3.5551
X5.3898Y-3.6811
X5.45Y-3.02
X5.4819Y-4.3126
X5.51Y-3.45
X5.5118Y-2.8169
X5.5695Y-4.0656
X5.73Y-3.29
X5.8819Y-2.6142
X5.8839Y-3.2429
X5.8937Y-4.1417
X5.8957Y-3.874
X5.91Y-4.37
X5.92Y-3.95
X5.9528Y-3.3307
X6.1201Y-3.565
X6.124Y-2.935
X6.124Y-4.1949
X6.1748Y-3.5079
X6.1755Y-2.8779
X6.185Y-3.75
X6.187Y-3.1181
X6.1988Y-4.2559
X6.5256Y-3.4304
X6.5295Y-4.061
X6.5315Y-2.8004
X6.5906Y-2.9055
X6.752Y-3.122
X6.7539Y-3.748
X6.7539Y-4.3819
X6.8047Y-3.7008
X6.8054Y-3.0591
X6.8169Y-3.2992
X6.8169Y-3.935
X6.82Y-5.24
X6.8209Y-4.4291
X6.9921Y-3.6929
X7.126Y-4.7441
X7.1457Y-4.2421
X7.1568Y-5.0913
X7.1614Y-2.9665
X7.1614Y-3.5965
X7.3469Y-4.157
X7.36Y-5.44
X7.3671Y-4.7428
X7.3717Y-3.1827
X7.372Y-4.311
X7.372Y-4.439
X7.3839Y-3.937
X7.437Y-4.0906
X7.4724Y-3.3819
X7.5917Y-5.3843
X7.78Y-4.85
X7.8819Y-4.5551
X7.9768Y-4.5551
X7.981Y-5.2953
X8.0079Y-4.5
X8.0276Y-3.8583
X8.108Y-5.5566
X8.172Y-5.4528
T3
X7.8096Y-3.9641
X7.8096Y-4.0428
X7.8096Y-4.1216
X7.8096Y-4.2003
X7.8096Y-4.279
X7.8096Y-4.3578
X7.8096Y-4.4365
X7.998Y-3.9641
X7.998Y-4.0428
X7.998Y-4.1216
X7.998Y-4.2003
X7.998Y-4.279
X7.998Y-4.3578
X7.998Y-4.4365
T5
X5.3819Y-3.2362
X5.4724Y-4.01
X6.7165Y-3.9055
X7.4665Y-3.1555
X7.4665Y-4.6555
T4
G00X7.8911Y-4.7156
M15
G01X7.8714Y-4.7156
M16
G05
G00X7.8911Y-4.812
M15
G01X7.8714Y-4.812
M16
G05
G00X7.9502Y-4.6467
M15
G01X7.9305Y-4.6467
M16
G05
G00X7.9502Y-4.8809
M15
G01X7.9305Y-4.8809
M16
G05
G00X8.1076Y-4.6467
M15
G01X8.088Y-4.6467
M16
G05
G00X8.1076Y-4.8809
M15
G01X8.088Y-4.8809
M16
G05
G00X8.2257Y-4.6467
M15
G01X8.2061Y-4.6467
M16
G05
G00X8.2257Y-4.8809
M15
G01X8.2061Y-4.8809
M16
G05
T0
M30
