%TF.GenerationSoftware,KiCad,Pcbnew,(6.0.7)*%
%TF.CreationDate,2022-09-23T16:11:02+09:00*%
%TF.ProjectId,selen-full_narrow,73656c65-6e2d-4667-956c-6c5f6e617272,rev?*%
%TF.SameCoordinates,Original*%
%TF.FileFunction,Soldermask,Top*%
%TF.FilePolarity,Negative*%
%FSLAX46Y46*%
G04 Gerber Fmt 4.6, Leading zero omitted, Abs format (unit mm)*
G04 Created by KiCad (PCBNEW (6.0.7)) date 2022-09-23 16:11:02*
%MOMM*%
%LPD*%
G01*
G04 APERTURE LIST*
G04 Aperture macros list*
%AMRoundRect*
0 Rectangle with rounded corners*
0 $1 Rounding radius*
0 $2 $3 $4 $5 $6 $7 $8 $9 X,Y pos of 4 corners*
0 Add a 4 corners polygon primitive as box body*
4,1,4,$2,$3,$4,$5,$6,$7,$8,$9,$2,$3,0*
0 Add four circle primitives for the rounded corners*
1,1,$1+$1,$2,$3*
1,1,$1+$1,$4,$5*
1,1,$1+$1,$6,$7*
1,1,$1+$1,$8,$9*
0 Add four rect primitives between the rounded corners*
20,1,$1+$1,$2,$3,$4,$5,0*
20,1,$1+$1,$4,$5,$6,$7,0*
20,1,$1+$1,$6,$7,$8,$9,0*
20,1,$1+$1,$8,$9,$2,$3,0*%
%AMRotRect*
0 Rectangle, with rotation*
0 The origin of the aperture is its center*
0 $1 length*
0 $2 width*
0 $3 Rotation angle, in degrees counterclockwise*
0 Add horizontal line*
21,1,$1,$2,0,0,$3*%
%AMFreePoly0*
4,1,6,0.600000,0.200000,0.000000,-0.400000,-0.600000,0.200000,-0.600000,0.400000,0.600000,0.400000,0.600000,0.200000,0.600000,0.200000,$1*%
%AMFreePoly1*
4,1,6,0.600000,-0.250000,-0.600000,-0.250000,-0.600000,1.000000,0.000000,0.400000,0.600000,1.000000,0.600000,-0.250000,0.600000,-0.250000,$1*%
G04 Aperture macros list end*
%ADD10C,0.150000*%
%ADD11R,1.400000X1.200000*%
%ADD12C,0.500000*%
%ADD13RotRect,1.200000X1.400000X342.000000*%
%ADD14C,3.000000*%
%ADD15C,1.700000*%
%ADD16C,1.900000*%
%ADD17C,4.000000*%
%ADD18R,2.000000X2.000000*%
%ADD19R,1.800000X2.000000*%
%ADD20R,1.200000X1.400000*%
%ADD21C,3.800000*%
%ADD22RotRect,2.000000X2.000000X354.000000*%
%ADD23RotRect,1.800000X2.000000X354.000000*%
%ADD24C,3.400000*%
%ADD25RotRect,1.200000X1.400000X162.000000*%
%ADD26RotRect,2.000000X2.000000X342.000000*%
%ADD27RotRect,1.800000X2.000000X342.000000*%
%ADD28C,1.200000*%
%ADD29O,2.500000X1.700000*%
%ADD30RoundRect,0.499745X-0.874395X-0.499745X0.874395X-0.499745X0.874395X0.499745X-0.874395X0.499745X0*%
%ADD31FreePoly0,270.000000*%
%ADD32FreePoly0,90.000000*%
%ADD33FreePoly1,270.000000*%
%ADD34FreePoly1,90.000000*%
%ADD35C,1.143000*%
%ADD36C,3.200000*%
G04 APERTURE END LIST*
D10*
X108150000Y-76797380D02*
X108150000Y-75797380D01*
X108530952Y-75797380D01*
X108626190Y-75845000D01*
X108673809Y-75892619D01*
X108721428Y-75987857D01*
X108721428Y-76130714D01*
X108673809Y-76225952D01*
X108626190Y-76273571D01*
X108530952Y-76321190D01*
X108150000Y-76321190D01*
X109721428Y-76702142D02*
X109673809Y-76749761D01*
X109530952Y-76797380D01*
X109435714Y-76797380D01*
X109292857Y-76749761D01*
X109197619Y-76654523D01*
X109150000Y-76559285D01*
X109102380Y-76368809D01*
X109102380Y-76225952D01*
X109150000Y-76035476D01*
X109197619Y-75940238D01*
X109292857Y-75845000D01*
X109435714Y-75797380D01*
X109530952Y-75797380D01*
X109673809Y-75845000D01*
X109721428Y-75892619D01*
X110483333Y-76273571D02*
X110626190Y-76321190D01*
X110673809Y-76368809D01*
X110721428Y-76464047D01*
X110721428Y-76606904D01*
X110673809Y-76702142D01*
X110626190Y-76749761D01*
X110530952Y-76797380D01*
X110150000Y-76797380D01*
X110150000Y-75797380D01*
X110483333Y-75797380D01*
X110578571Y-75845000D01*
X110626190Y-75892619D01*
X110673809Y-75987857D01*
X110673809Y-76083095D01*
X110626190Y-76178333D01*
X110578571Y-76225952D01*
X110483333Y-76273571D01*
X110150000Y-76273571D01*
X111911904Y-76797380D02*
X111911904Y-75797380D01*
X112150000Y-75797380D01*
X112292857Y-75845000D01*
X112388095Y-75940238D01*
X112435714Y-76035476D01*
X112483333Y-76225952D01*
X112483333Y-76368809D01*
X112435714Y-76559285D01*
X112388095Y-76654523D01*
X112292857Y-76749761D01*
X112150000Y-76797380D01*
X111911904Y-76797380D01*
X113292857Y-76749761D02*
X113197619Y-76797380D01*
X113007142Y-76797380D01*
X112911904Y-76749761D01*
X112864285Y-76654523D01*
X112864285Y-76273571D01*
X112911904Y-76178333D01*
X113007142Y-76130714D01*
X113197619Y-76130714D01*
X113292857Y-76178333D01*
X113340476Y-76273571D01*
X113340476Y-76368809D01*
X112864285Y-76464047D01*
X113721428Y-76749761D02*
X113816666Y-76797380D01*
X114007142Y-76797380D01*
X114102380Y-76749761D01*
X114150000Y-76654523D01*
X114150000Y-76606904D01*
X114102380Y-76511666D01*
X114007142Y-76464047D01*
X113864285Y-76464047D01*
X113769047Y-76416428D01*
X113721428Y-76321190D01*
X113721428Y-76273571D01*
X113769047Y-76178333D01*
X113864285Y-76130714D01*
X114007142Y-76130714D01*
X114102380Y-76178333D01*
X114578571Y-76797380D02*
X114578571Y-76130714D01*
X114578571Y-75797380D02*
X114530952Y-75845000D01*
X114578571Y-75892619D01*
X114626190Y-75845000D01*
X114578571Y-75797380D01*
X114578571Y-75892619D01*
X115483333Y-76130714D02*
X115483333Y-76940238D01*
X115435714Y-77035476D01*
X115388095Y-77083095D01*
X115292857Y-77130714D01*
X115150000Y-77130714D01*
X115054761Y-77083095D01*
X115483333Y-76749761D02*
X115388095Y-76797380D01*
X115197619Y-76797380D01*
X115102380Y-76749761D01*
X115054761Y-76702142D01*
X115007142Y-76606904D01*
X115007142Y-76321190D01*
X115054761Y-76225952D01*
X115102380Y-76178333D01*
X115197619Y-76130714D01*
X115388095Y-76130714D01*
X115483333Y-76178333D01*
X115959523Y-76130714D02*
X115959523Y-76797380D01*
X115959523Y-76225952D02*
X116007142Y-76178333D01*
X116102380Y-76130714D01*
X116245238Y-76130714D01*
X116340476Y-76178333D01*
X116388095Y-76273571D01*
X116388095Y-76797380D01*
X117245238Y-76749761D02*
X117150000Y-76797380D01*
X116959523Y-76797380D01*
X116864285Y-76749761D01*
X116816666Y-76654523D01*
X116816666Y-76273571D01*
X116864285Y-76178333D01*
X116959523Y-76130714D01*
X117150000Y-76130714D01*
X117245238Y-76178333D01*
X117292857Y-76273571D01*
X117292857Y-76368809D01*
X116816666Y-76464047D01*
X118150000Y-76797380D02*
X118150000Y-75797380D01*
X118150000Y-76749761D02*
X118054761Y-76797380D01*
X117864285Y-76797380D01*
X117769047Y-76749761D01*
X117721428Y-76702142D01*
X117673809Y-76606904D01*
X117673809Y-76321190D01*
X117721428Y-76225952D01*
X117769047Y-76178333D01*
X117864285Y-76130714D01*
X118054761Y-76130714D01*
X118150000Y-76178333D01*
X108626190Y-78407380D02*
X108626190Y-77407380D01*
X108626190Y-77788333D02*
X108721428Y-77740714D01*
X108911904Y-77740714D01*
X109007142Y-77788333D01*
X109054761Y-77835952D01*
X109102380Y-77931190D01*
X109102380Y-78216904D01*
X109054761Y-78312142D01*
X109007142Y-78359761D01*
X108911904Y-78407380D01*
X108721428Y-78407380D01*
X108626190Y-78359761D01*
X109435714Y-77740714D02*
X109673809Y-78407380D01*
X109911904Y-77740714D02*
X109673809Y-78407380D01*
X109578571Y-78645476D01*
X109530952Y-78693095D01*
X109435714Y-78740714D01*
X111673809Y-77931190D02*
X111626190Y-77883571D01*
X111530952Y-77835952D01*
X111435714Y-77835952D01*
X111340476Y-77883571D01*
X111292857Y-77931190D01*
X111245238Y-78026428D01*
X111245238Y-78121666D01*
X111292857Y-78216904D01*
X111340476Y-78264523D01*
X111435714Y-78312142D01*
X111530952Y-78312142D01*
X111626190Y-78264523D01*
X111673809Y-78216904D01*
X111673809Y-77835952D02*
X111673809Y-78216904D01*
X111721428Y-78264523D01*
X111769047Y-78264523D01*
X111864285Y-78216904D01*
X111911904Y-78121666D01*
X111911904Y-77883571D01*
X111816666Y-77740714D01*
X111673809Y-77645476D01*
X111483333Y-77597857D01*
X111292857Y-77645476D01*
X111150000Y-77740714D01*
X111054761Y-77883571D01*
X111007142Y-78074047D01*
X111054761Y-78264523D01*
X111150000Y-78407380D01*
X111292857Y-78502619D01*
X111483333Y-78550238D01*
X111673809Y-78502619D01*
X111816666Y-78407380D01*
X112340476Y-77740714D02*
X112340476Y-78407380D01*
X112340476Y-77835952D02*
X112388095Y-77788333D01*
X112483333Y-77740714D01*
X112626190Y-77740714D01*
X112721428Y-77788333D01*
X112769047Y-77883571D01*
X112769047Y-78407380D01*
X113673809Y-78407380D02*
X113673809Y-77883571D01*
X113626190Y-77788333D01*
X113530952Y-77740714D01*
X113340476Y-77740714D01*
X113245238Y-77788333D01*
X113673809Y-78359761D02*
X113578571Y-78407380D01*
X113340476Y-78407380D01*
X113245238Y-78359761D01*
X113197619Y-78264523D01*
X113197619Y-78169285D01*
X113245238Y-78074047D01*
X113340476Y-78026428D01*
X113578571Y-78026428D01*
X113673809Y-77978809D01*
X114150000Y-78407380D02*
X114150000Y-77740714D01*
X114150000Y-77931190D02*
X114197619Y-77835952D01*
X114245238Y-77788333D01*
X114340476Y-77740714D01*
X114435714Y-77740714D01*
X114769047Y-78407380D02*
X114769047Y-77740714D01*
X114769047Y-77407380D02*
X114721428Y-77455000D01*
X114769047Y-77502619D01*
X114816666Y-77455000D01*
X114769047Y-77407380D01*
X114769047Y-77502619D01*
X115245238Y-77740714D02*
X115245238Y-78407380D01*
X115245238Y-77835952D02*
X115292857Y-77788333D01*
X115388095Y-77740714D01*
X115530952Y-77740714D01*
X115626190Y-77788333D01*
X115673809Y-77883571D01*
X115673809Y-78407380D01*
X116578571Y-78407380D02*
X116578571Y-77883571D01*
X116530952Y-77788333D01*
X116435714Y-77740714D01*
X116245238Y-77740714D01*
X116150000Y-77788333D01*
X116578571Y-78359761D02*
X116483333Y-78407380D01*
X116245238Y-78407380D01*
X116150000Y-78359761D01*
X116102380Y-78264523D01*
X116102380Y-78169285D01*
X116150000Y-78074047D01*
X116245238Y-78026428D01*
X116483333Y-78026428D01*
X116578571Y-77978809D01*
X117054761Y-78407380D02*
X117054761Y-77740714D01*
X117054761Y-77931190D02*
X117102380Y-77835952D01*
X117150000Y-77788333D01*
X117245238Y-77740714D01*
X117340476Y-77740714D01*
X117673809Y-78407380D02*
X117673809Y-77740714D01*
X117673809Y-77407380D02*
X117626190Y-77455000D01*
X117673809Y-77502619D01*
X117721428Y-77455000D01*
X117673809Y-77407380D01*
X117673809Y-77502619D01*
X114197738Y-71944761D02*
X114340595Y-71992380D01*
X114578690Y-71992380D01*
X114673928Y-71944761D01*
X114721547Y-71897142D01*
X114769166Y-71801904D01*
X114769166Y-71706666D01*
X114721547Y-71611428D01*
X114673928Y-71563809D01*
X114578690Y-71516190D01*
X114388214Y-71468571D01*
X114292976Y-71420952D01*
X114245357Y-71373333D01*
X114197738Y-71278095D01*
X114197738Y-71182857D01*
X114245357Y-71087619D01*
X114292976Y-71040000D01*
X114388214Y-70992380D01*
X114626309Y-70992380D01*
X114769166Y-71040000D01*
X115578690Y-71944761D02*
X115483452Y-71992380D01*
X115292976Y-71992380D01*
X115197738Y-71944761D01*
X115150119Y-71849523D01*
X115150119Y-71468571D01*
X115197738Y-71373333D01*
X115292976Y-71325714D01*
X115483452Y-71325714D01*
X115578690Y-71373333D01*
X115626309Y-71468571D01*
X115626309Y-71563809D01*
X115150119Y-71659047D01*
X116197738Y-71992380D02*
X116102500Y-71944761D01*
X116054880Y-71849523D01*
X116054880Y-70992380D01*
X116959642Y-71944761D02*
X116864404Y-71992380D01*
X116673928Y-71992380D01*
X116578690Y-71944761D01*
X116531071Y-71849523D01*
X116531071Y-71468571D01*
X116578690Y-71373333D01*
X116673928Y-71325714D01*
X116864404Y-71325714D01*
X116959642Y-71373333D01*
X117007261Y-71468571D01*
X117007261Y-71563809D01*
X116531071Y-71659047D01*
X117435833Y-71325714D02*
X117435833Y-71992380D01*
X117435833Y-71420952D02*
X117483452Y-71373333D01*
X117578690Y-71325714D01*
X117721547Y-71325714D01*
X117816785Y-71373333D01*
X117864404Y-71468571D01*
X117864404Y-71992380D01*
X113197738Y-72935714D02*
X113435833Y-73602380D01*
X113673928Y-72935714D01*
X114054880Y-73507142D02*
X114102500Y-73554761D01*
X114054880Y-73602380D01*
X114007261Y-73554761D01*
X114054880Y-73507142D01*
X114054880Y-73602380D01*
X114721547Y-72602380D02*
X114816785Y-72602380D01*
X114912023Y-72650000D01*
X114959642Y-72697619D01*
X115007261Y-72792857D01*
X115054880Y-72983333D01*
X115054880Y-73221428D01*
X115007261Y-73411904D01*
X114959642Y-73507142D01*
X114912023Y-73554761D01*
X114816785Y-73602380D01*
X114721547Y-73602380D01*
X114626309Y-73554761D01*
X114578690Y-73507142D01*
X114531071Y-73411904D01*
X114483452Y-73221428D01*
X114483452Y-72983333D01*
X114531071Y-72792857D01*
X114578690Y-72697619D01*
X114626309Y-72650000D01*
X114721547Y-72602380D01*
X115483452Y-73507142D02*
X115531071Y-73554761D01*
X115483452Y-73602380D01*
X115435833Y-73554761D01*
X115483452Y-73507142D01*
X115483452Y-73602380D01*
X115912023Y-72697619D02*
X115959642Y-72650000D01*
X116054880Y-72602380D01*
X116292976Y-72602380D01*
X116388214Y-72650000D01*
X116435833Y-72697619D01*
X116483452Y-72792857D01*
X116483452Y-72888095D01*
X116435833Y-73030952D01*
X115864404Y-73602380D01*
X116483452Y-73602380D01*
X116912023Y-73507142D02*
X116959642Y-73554761D01*
X116912023Y-73602380D01*
X116864404Y-73554761D01*
X116912023Y-73507142D01*
X116912023Y-73602380D01*
X117912023Y-73602380D02*
X117340595Y-73602380D01*
X117626309Y-73602380D02*
X117626309Y-72602380D01*
X117531071Y-72745238D01*
X117435833Y-72840476D01*
X117340595Y-72888095D01*
X113340595Y-74545714D02*
X113340595Y-75212380D01*
X113340595Y-74640952D02*
X113388214Y-74593333D01*
X113483452Y-74545714D01*
X113626309Y-74545714D01*
X113721547Y-74593333D01*
X113769166Y-74688571D01*
X113769166Y-75212380D01*
X114673928Y-75212380D02*
X114673928Y-74688571D01*
X114626309Y-74593333D01*
X114531071Y-74545714D01*
X114340595Y-74545714D01*
X114245357Y-74593333D01*
X114673928Y-75164761D02*
X114578690Y-75212380D01*
X114340595Y-75212380D01*
X114245357Y-75164761D01*
X114197738Y-75069523D01*
X114197738Y-74974285D01*
X114245357Y-74879047D01*
X114340595Y-74831428D01*
X114578690Y-74831428D01*
X114673928Y-74783809D01*
X115150119Y-75212380D02*
X115150119Y-74545714D01*
X115150119Y-74736190D02*
X115197738Y-74640952D01*
X115245357Y-74593333D01*
X115340595Y-74545714D01*
X115435833Y-74545714D01*
X115769166Y-75212380D02*
X115769166Y-74545714D01*
X115769166Y-74736190D02*
X115816785Y-74640952D01*
X115864404Y-74593333D01*
X115959642Y-74545714D01*
X116054880Y-74545714D01*
X116531071Y-75212380D02*
X116435833Y-75164761D01*
X116388214Y-75117142D01*
X116340595Y-75021904D01*
X116340595Y-74736190D01*
X116388214Y-74640952D01*
X116435833Y-74593333D01*
X116531071Y-74545714D01*
X116673928Y-74545714D01*
X116769166Y-74593333D01*
X116816785Y-74640952D01*
X116864404Y-74736190D01*
X116864404Y-75021904D01*
X116816785Y-75117142D01*
X116769166Y-75164761D01*
X116673928Y-75212380D01*
X116531071Y-75212380D01*
X117197738Y-74545714D02*
X117388214Y-75212380D01*
X117578690Y-74736190D01*
X117769166Y-75212380D01*
X117959642Y-74545714D01*
X152576190Y-57002380D02*
X152004761Y-57002380D01*
X152290476Y-57002380D02*
X152290476Y-56002380D01*
X152195238Y-56145238D01*
X152100000Y-56240476D01*
X152004761Y-56288095D01*
X153195238Y-56002380D02*
X153290476Y-56002380D01*
X153385714Y-56050000D01*
X153433333Y-56097619D01*
X153480952Y-56192857D01*
X153528571Y-56383333D01*
X153528571Y-56621428D01*
X153480952Y-56811904D01*
X153433333Y-56907142D01*
X153385714Y-56954761D01*
X153290476Y-57002380D01*
X153195238Y-57002380D01*
X153100000Y-56954761D01*
X153052380Y-56907142D01*
X153004761Y-56811904D01*
X152957142Y-56621428D01*
X152957142Y-56383333D01*
X153004761Y-56192857D01*
X153052380Y-56097619D01*
X153100000Y-56050000D01*
X153195238Y-56002380D01*
X154004761Y-57002380D02*
X154195238Y-57002380D01*
X154290476Y-56954761D01*
X154338095Y-56907142D01*
X154433333Y-56764285D01*
X154480952Y-56573809D01*
X154480952Y-56192857D01*
X154433333Y-56097619D01*
X154385714Y-56050000D01*
X154290476Y-56002380D01*
X154100000Y-56002380D01*
X154004761Y-56050000D01*
X153957142Y-56097619D01*
X153909523Y-56192857D01*
X153909523Y-56430952D01*
X153957142Y-56526190D01*
X154004761Y-56573809D01*
X154100000Y-56621428D01*
X154290476Y-56621428D01*
X154385714Y-56573809D01*
X154433333Y-56526190D01*
X154480952Y-56430952D01*
X154909523Y-56907142D02*
X154957142Y-56954761D01*
X154909523Y-57002380D01*
X154861904Y-56954761D01*
X154909523Y-56907142D01*
X154909523Y-57002380D01*
X155528571Y-56430952D02*
X155433333Y-56383333D01*
X155385714Y-56335714D01*
X155338095Y-56240476D01*
X155338095Y-56192857D01*
X155385714Y-56097619D01*
X155433333Y-56050000D01*
X155528571Y-56002380D01*
X155719047Y-56002380D01*
X155814285Y-56050000D01*
X155861904Y-56097619D01*
X155909523Y-56192857D01*
X155909523Y-56240476D01*
X155861904Y-56335714D01*
X155814285Y-56383333D01*
X155719047Y-56430952D01*
X155528571Y-56430952D01*
X155433333Y-56478571D01*
X155385714Y-56526190D01*
X155338095Y-56621428D01*
X155338095Y-56811904D01*
X155385714Y-56907142D01*
X155433333Y-56954761D01*
X155528571Y-57002380D01*
X155719047Y-57002380D01*
X155814285Y-56954761D01*
X155861904Y-56907142D01*
X155909523Y-56811904D01*
X155909523Y-56621428D01*
X155861904Y-56526190D01*
X155814285Y-56478571D01*
X155719047Y-56430952D01*
X156528571Y-56002380D02*
X156623809Y-56002380D01*
X156719047Y-56050000D01*
X156766666Y-56097619D01*
X156814285Y-56192857D01*
X156861904Y-56383333D01*
X156861904Y-56621428D01*
X156814285Y-56811904D01*
X156766666Y-56907142D01*
X156719047Y-56954761D01*
X156623809Y-57002380D01*
X156528571Y-57002380D01*
X156433333Y-56954761D01*
X156385714Y-56907142D01*
X156338095Y-56811904D01*
X156290476Y-56621428D01*
X156290476Y-56383333D01*
X156338095Y-56192857D01*
X156385714Y-56097619D01*
X156433333Y-56050000D01*
X156528571Y-56002380D01*
X157480952Y-56002380D02*
X157576190Y-56002380D01*
X157671428Y-56050000D01*
X157719047Y-56097619D01*
X157766666Y-56192857D01*
X157814285Y-56383333D01*
X157814285Y-56621428D01*
X157766666Y-56811904D01*
X157719047Y-56907142D01*
X157671428Y-56954761D01*
X157576190Y-57002380D01*
X157480952Y-57002380D01*
X157385714Y-56954761D01*
X157338095Y-56907142D01*
X157290476Y-56811904D01*
X157242857Y-56621428D01*
X157242857Y-56383333D01*
X157290476Y-56192857D01*
X157338095Y-56097619D01*
X157385714Y-56050000D01*
X157480952Y-56002380D01*
X158433333Y-56002380D02*
X158528571Y-56002380D01*
X158623809Y-56050000D01*
X158671428Y-56097619D01*
X158719047Y-56192857D01*
X158766666Y-56383333D01*
X158766666Y-56621428D01*
X158719047Y-56811904D01*
X158671428Y-56907142D01*
X158623809Y-56954761D01*
X158528571Y-57002380D01*
X158433333Y-57002380D01*
X158338095Y-56954761D01*
X158290476Y-56907142D01*
X158242857Y-56811904D01*
X158195238Y-56621428D01*
X158195238Y-56383333D01*
X158242857Y-56192857D01*
X158290476Y-56097619D01*
X158338095Y-56050000D01*
X158433333Y-56002380D01*
X159957142Y-57002380D02*
X159957142Y-56335714D01*
X159957142Y-56430952D02*
X160004761Y-56383333D01*
X160100000Y-56335714D01*
X160242857Y-56335714D01*
X160338095Y-56383333D01*
X160385714Y-56478571D01*
X160385714Y-57002380D01*
X160385714Y-56478571D02*
X160433333Y-56383333D01*
X160528571Y-56335714D01*
X160671428Y-56335714D01*
X160766666Y-56383333D01*
X160814285Y-56478571D01*
X160814285Y-57002380D01*
X161290476Y-57002380D02*
X161290476Y-56335714D01*
X161290476Y-56430952D02*
X161338095Y-56383333D01*
X161433333Y-56335714D01*
X161576190Y-56335714D01*
X161671428Y-56383333D01*
X161719047Y-56478571D01*
X161719047Y-57002380D01*
X161719047Y-56478571D02*
X161766666Y-56383333D01*
X161861904Y-56335714D01*
X162004761Y-56335714D01*
X162100000Y-56383333D01*
X162147619Y-56478571D01*
X162147619Y-57002380D01*
X212000000Y-61000000D02*
X212000000Y-57113580D01*
X102200000Y-61000000D02*
X102200000Y-57113580D01*
X212000000Y-57700000D02*
X102200000Y-57700000D01*
X212000000Y-57700000D02*
X102200000Y-57700000D01*
X212000000Y-57700000D02*
X210873496Y-57113579D01*
X212000000Y-57700000D02*
X210873496Y-58286421D01*
X102200000Y-57700000D02*
X103326504Y-58286421D01*
X102200000Y-57700000D02*
X103326504Y-57113579D01*
D11*
%TO.C,D9*%
X155448000Y-96950000D03*
D12*
X156048000Y-97350000D03*
X154848000Y-93050000D03*
D11*
X155448000Y-93450000D03*
%TD*%
%TO.C,D4*%
X155448000Y-80772000D03*
D12*
X156048000Y-81172000D03*
X154848000Y-76872000D03*
D11*
X155448000Y-77272000D03*
%TD*%
D12*
%TO.C,D12*%
X142100000Y-114100000D03*
D11*
X141500000Y-113700000D03*
X141500000Y-110200000D03*
D12*
X140900000Y-109800000D03*
%TD*%
%TO.C,D17*%
X192423469Y-128365467D03*
D13*
X192989302Y-127918440D03*
X196318000Y-129000000D03*
D12*
X196883833Y-128552972D03*
%TD*%
D14*
%TO.C,SW1*%
X109038000Y-92301500D03*
D15*
X116658000Y-87221500D03*
X106498000Y-87221500D03*
D14*
X107768000Y-89761500D03*
X106578000Y-83521500D03*
D16*
X117078000Y-87221500D03*
X106078000Y-87221500D03*
D14*
X115388000Y-89761500D03*
X111578000Y-81321500D03*
X114118000Y-92301500D03*
X116578000Y-83521500D03*
D17*
X111578000Y-87221500D03*
D18*
X103478000Y-83521500D03*
X117178000Y-92301500D03*
D19*
X114378000Y-81321500D03*
D18*
X104678000Y-89761500D03*
%TD*%
D14*
%TO.C,SW13*%
X145801000Y-107473750D03*
X148341000Y-96493750D03*
D17*
X148341000Y-102393750D03*
D14*
X153341000Y-98693750D03*
X143341000Y-98693750D03*
X152151000Y-104933750D03*
D16*
X142841000Y-102393750D03*
D15*
X143261000Y-102393750D03*
D14*
X144531000Y-104933750D03*
X150881000Y-107473750D03*
D15*
X153421000Y-102393750D03*
D16*
X153841000Y-102393750D03*
D18*
X153941000Y-107473750D03*
X140241000Y-98693750D03*
D19*
X151141000Y-96493750D03*
D18*
X141441000Y-104933750D03*
%TD*%
D12*
%TO.C,D15*%
X171950000Y-118250000D03*
D11*
X171350000Y-117850000D03*
D12*
X170750000Y-113950000D03*
D11*
X171350000Y-114350000D03*
%TD*%
D12*
%TO.C,D8*%
X141200000Y-94700000D03*
D11*
X140600000Y-94300000D03*
X140600000Y-90800000D03*
D12*
X140000000Y-90400000D03*
%TD*%
D14*
%TO.C,SW7*%
X134959750Y-88885000D03*
X127419750Y-97665000D03*
D16*
X135459750Y-92585000D03*
D15*
X124879750Y-92585000D03*
D14*
X129959750Y-86685000D03*
X124959750Y-88885000D03*
X126149750Y-95125000D03*
X132499750Y-97665000D03*
D17*
X129959750Y-92585000D03*
D16*
X124459750Y-92585000D03*
D14*
X133769750Y-95125000D03*
D15*
X135039750Y-92585000D03*
D18*
X121859750Y-88885000D03*
X135559750Y-97665000D03*
X123059750Y-95125000D03*
D19*
X132759750Y-86685000D03*
%TD*%
D12*
%TO.C,D11*%
X130200000Y-116100000D03*
D20*
X129800000Y-116700000D03*
D12*
X125900000Y-117300000D03*
D20*
X126300000Y-116700000D03*
%TD*%
D21*
%TO.C,REF\u002A\u002A*%
X136700000Y-82200000D03*
%TD*%
D14*
%TO.C,SW6*%
X118959750Y-99521500D03*
D16*
X108459750Y-103221500D03*
D15*
X119039750Y-103221500D03*
D14*
X108959750Y-99521500D03*
X110149750Y-105761500D03*
D17*
X113959750Y-103221500D03*
D14*
X111419750Y-108301500D03*
X117769750Y-105761500D03*
D16*
X119459750Y-103221500D03*
D14*
X116499750Y-108301500D03*
X113959750Y-97321500D03*
D15*
X108879750Y-103221500D03*
D18*
X119559750Y-108301500D03*
X105859750Y-99521500D03*
D19*
X116759750Y-97321500D03*
D18*
X107059750Y-105761500D03*
%TD*%
D17*
%TO.C,SW11*%
X116341000Y-119221250D03*
D15*
X121421000Y-119221250D03*
D14*
X118881000Y-124301250D03*
D16*
X110841000Y-119221250D03*
D14*
X120151000Y-121761250D03*
X111341000Y-115521250D03*
D15*
X111261000Y-119221250D03*
D16*
X121841000Y-119221250D03*
D14*
X112531000Y-121761250D03*
X116341000Y-113321250D03*
X121341000Y-115521250D03*
X113801000Y-124301250D03*
D18*
X108241000Y-115521250D03*
X121941000Y-124301250D03*
X109441000Y-121761250D03*
D19*
X119141000Y-113321250D03*
%TD*%
D16*
%TO.C,SW8*%
X142841000Y-86393750D03*
D14*
X153341000Y-82693750D03*
X150881000Y-91473750D03*
D17*
X148341000Y-86393750D03*
D14*
X148341000Y-80493750D03*
X152151000Y-88933750D03*
X143341000Y-82693750D03*
X144531000Y-88933750D03*
D15*
X143261000Y-86393750D03*
X153421000Y-86393750D03*
D14*
X145801000Y-91473750D03*
D16*
X153841000Y-86393750D03*
D18*
X140241000Y-82693750D03*
X153941000Y-91473750D03*
D19*
X151141000Y-80493750D03*
D18*
X141441000Y-88933750D03*
%TD*%
D16*
%TO.C,SW10*%
X174840000Y-95759750D03*
D14*
X184150000Y-98299750D03*
D15*
X185420000Y-95759750D03*
D17*
X180340000Y-95759750D03*
D16*
X185840000Y-95759750D03*
D14*
X175340000Y-92059750D03*
X180340000Y-89859750D03*
X176530000Y-98299750D03*
D15*
X175260000Y-95759750D03*
D14*
X185340000Y-92059750D03*
X177800000Y-100839750D03*
X182880000Y-100839750D03*
D18*
X172240000Y-92059750D03*
X185940000Y-100839750D03*
D19*
X183140000Y-89859750D03*
D18*
X173440000Y-98299750D03*
%TD*%
D15*
%TO.C,SW15*%
X185420000Y-111760000D03*
X175260000Y-111760000D03*
D14*
X185340000Y-108060000D03*
D16*
X185840000Y-111760000D03*
X174840000Y-111760000D03*
D14*
X180340000Y-105860000D03*
X176530000Y-114300000D03*
X177800000Y-116840000D03*
X175340000Y-108060000D03*
D17*
X180340000Y-111760000D03*
D14*
X184150000Y-114300000D03*
X182880000Y-116840000D03*
D18*
X172240000Y-108060000D03*
X185940000Y-116840000D03*
D19*
X183140000Y-105860000D03*
D18*
X173440000Y-114300000D03*
%TD*%
D15*
%TO.C,SW3*%
X143261000Y-70393750D03*
D14*
X153341000Y-66693750D03*
D16*
X142841000Y-70393750D03*
X153841000Y-70393750D03*
D15*
X153421000Y-70393750D03*
D14*
X148341000Y-64493750D03*
X145801000Y-75473750D03*
X144531000Y-72933750D03*
X150881000Y-75473750D03*
D17*
X148341000Y-70393750D03*
D14*
X152151000Y-72933750D03*
X143341000Y-66693750D03*
D18*
X140241000Y-66693750D03*
X153941000Y-75473750D03*
D19*
X151141000Y-64493750D03*
D18*
X141441000Y-72933750D03*
%TD*%
D15*
%TO.C,SW16*%
X175287829Y-132565577D03*
D14*
X176285369Y-135224414D03*
D16*
X174870130Y-132521675D03*
D17*
X180340000Y-133096582D03*
D14*
X180956718Y-127228903D03*
X183863626Y-136020921D03*
X185699365Y-129939493D03*
X177282910Y-137883251D03*
D15*
X185392171Y-133627587D03*
D16*
X185809870Y-133671489D03*
D14*
X182335081Y-138414256D03*
X175754146Y-128894209D03*
D22*
X172671128Y-128570170D03*
X185378318Y-138734113D03*
D23*
X183741379Y-127521583D03*
D22*
X173212297Y-134901421D03*
%TD*%
D11*
%TO.C,D3*%
X140000000Y-78400000D03*
D12*
X140600000Y-78800000D03*
D11*
X140000000Y-74900000D03*
D12*
X139400000Y-74500000D03*
%TD*%
%TO.C,D5*%
X180100000Y-86900000D03*
D20*
X179700000Y-87500000D03*
D12*
X175800000Y-88100000D03*
D20*
X176200000Y-87500000D03*
%TD*%
D11*
%TO.C,D1*%
X120500000Y-94900000D03*
D12*
X121100000Y-95300000D03*
X119900000Y-91000000D03*
D11*
X120500000Y-91400000D03*
%TD*%
D14*
%TO.C,SW2*%
X131388500Y-79125000D03*
X123768500Y-79125000D03*
X122578500Y-72885000D03*
D15*
X122498500Y-76585000D03*
D14*
X127578500Y-70685000D03*
D17*
X127578500Y-76585000D03*
D14*
X130118500Y-81665000D03*
X132578500Y-72885000D03*
D16*
X122078500Y-76585000D03*
D15*
X132658500Y-76585000D03*
D16*
X133078500Y-76585000D03*
D14*
X125038500Y-81665000D03*
D18*
X119478500Y-72885000D03*
X133178500Y-81665000D03*
D19*
X130378500Y-70685000D03*
D18*
X120678500Y-79125000D03*
%TD*%
D24*
%TO.C,REF\u002A\u002A*%
X170600000Y-99200000D03*
X189650000Y-118250000D03*
X189650000Y-80150000D03*
%TD*%
D15*
%TO.C,SW9*%
X169420500Y-91156250D03*
D17*
X164340500Y-91156250D03*
D14*
X168150500Y-93696250D03*
X166880500Y-96236250D03*
X161800500Y-96236250D03*
X164340500Y-85256250D03*
D16*
X158840500Y-91156250D03*
D14*
X160530500Y-93696250D03*
D15*
X159260500Y-91156250D03*
D14*
X159340500Y-87456250D03*
D16*
X169840500Y-91156250D03*
D14*
X169340500Y-87456250D03*
D18*
X169940500Y-96236250D03*
X156240500Y-87456250D03*
D19*
X167140500Y-85256250D03*
D18*
X157440500Y-93696250D03*
%TD*%
D14*
%TO.C,SW5*%
X182880000Y-84839750D03*
X184150000Y-82299750D03*
X175340000Y-76059750D03*
X177800000Y-84839750D03*
D15*
X175260000Y-79759750D03*
D16*
X185840000Y-79759750D03*
D17*
X180340000Y-79759750D03*
D16*
X174840000Y-79759750D03*
D14*
X176530000Y-82299750D03*
X185340000Y-76059750D03*
D15*
X185420000Y-79759750D03*
D14*
X180340000Y-73859750D03*
D18*
X185940000Y-84839750D03*
X172240000Y-76059750D03*
D19*
X183140000Y-73859750D03*
D18*
X173440000Y-82299750D03*
%TD*%
D25*
%TO.C,D16*%
X191184796Y-127275329D03*
D12*
X191750629Y-126828302D03*
D25*
X187856098Y-126193769D03*
D12*
X187290265Y-126640797D03*
%TD*%
D11*
%TO.C,D13*%
X143400000Y-113700000D03*
D12*
X144000000Y-114100000D03*
X142800000Y-109800000D03*
D11*
X143400000Y-110200000D03*
%TD*%
D20*
%TO.C,D10*%
X179950000Y-103500000D03*
D12*
X180350000Y-102900000D03*
D20*
X176450000Y-103500000D03*
D12*
X176050000Y-104100000D03*
%TD*%
D14*
%TO.C,SW17*%
X201548103Y-132501267D03*
X195316475Y-139350829D03*
D15*
X204556270Y-139682306D03*
D14*
X195739413Y-142158964D03*
X196112983Y-133048506D03*
X200570780Y-143728770D03*
D16*
X204955714Y-139812093D03*
D17*
X199724903Y-138112500D03*
D16*
X194494092Y-136412907D03*
D14*
X202563525Y-141705538D03*
D15*
X194893536Y-136542694D03*
D14*
X205623548Y-136138676D03*
D26*
X193164708Y-132090553D03*
X203481013Y-144674362D03*
D27*
X204211062Y-133366514D03*
D26*
X192377710Y-138395966D03*
%TD*%
D14*
%TO.C,SW12*%
X129801000Y-113665000D03*
D15*
X137421000Y-108585000D03*
D17*
X132341000Y-108585000D03*
D15*
X127261000Y-108585000D03*
D14*
X134881000Y-113665000D03*
X128531000Y-111125000D03*
D16*
X126841000Y-108585000D03*
D14*
X127341000Y-104885000D03*
X137341000Y-104885000D03*
X132341000Y-102685000D03*
D16*
X137841000Y-108585000D03*
D14*
X136151000Y-111125000D03*
D18*
X137941000Y-113665000D03*
X124241000Y-104885000D03*
X125441000Y-111125000D03*
D19*
X135141000Y-102685000D03*
%TD*%
D12*
%TO.C,D14*%
X156048000Y-114100000D03*
D11*
X155448000Y-113700000D03*
D12*
X154848000Y-109800000D03*
D11*
X155448000Y-110200000D03*
%TD*%
D28*
%TO.C,J1*%
X203484000Y-120125000D03*
X210484000Y-120125000D03*
X210484000Y-121875000D03*
X203484000Y-121875000D03*
D29*
X200184000Y-122225000D03*
X200184000Y-119775000D03*
X208684000Y-118025000D03*
X208684000Y-123975000D03*
X205684000Y-123975000D03*
X205684000Y-118025000D03*
X201684000Y-118025000D03*
X201684000Y-123975000D03*
%TD*%
D11*
%TO.C,D2*%
X136700000Y-78400000D03*
D12*
X137300000Y-78800000D03*
X136100000Y-74500000D03*
D11*
X136700000Y-74900000D03*
%TD*%
D21*
%TO.C,REF\u002A\u002A*%
X139000000Y-101854000D03*
%TD*%
D14*
%TO.C,SW14*%
X160530500Y-109696250D03*
D16*
X158840500Y-107156250D03*
D17*
X164340500Y-107156250D03*
D15*
X159260500Y-107156250D03*
D14*
X164340500Y-101256250D03*
X159340500Y-103456250D03*
X169340500Y-103456250D03*
D16*
X169840500Y-107156250D03*
D15*
X169420500Y-107156250D03*
D14*
X168150500Y-109696250D03*
X161800500Y-112236250D03*
X166880500Y-112236250D03*
D18*
X156240500Y-103456250D03*
X169940500Y-112236250D03*
X157440500Y-109696250D03*
D19*
X167140500Y-101256250D03*
%TD*%
D12*
%TO.C,D7*%
X139300000Y-94700000D03*
D11*
X138700000Y-94300000D03*
D12*
X138100000Y-90400000D03*
D11*
X138700000Y-90800000D03*
%TD*%
D16*
%TO.C,SW4*%
X169840500Y-75156250D03*
D14*
X168150500Y-77696250D03*
X164340500Y-69256250D03*
X159340500Y-71456250D03*
D15*
X169420500Y-75156250D03*
D17*
X164340500Y-75156250D03*
D15*
X159260500Y-75156250D03*
D14*
X169340500Y-71456250D03*
X160530500Y-77696250D03*
D16*
X158840500Y-75156250D03*
D14*
X161800500Y-80236250D03*
X166880500Y-80236250D03*
D18*
X169940500Y-80236250D03*
X156240500Y-71456250D03*
D19*
X167140500Y-69256250D03*
D18*
X157440500Y-77696250D03*
%TD*%
D30*
%TO.C,U1*%
X209588184Y-100271296D03*
X191921304Y-110431296D03*
D31*
X205588184Y-108687504D03*
D32*
X196088184Y-102687504D03*
D31*
X205588184Y-102687504D03*
D30*
X209588184Y-107891296D03*
X209588184Y-110431296D03*
X191921304Y-97731296D03*
D32*
X196088184Y-100687504D03*
X196088184Y-108687504D03*
D30*
X191921304Y-100271296D03*
D32*
X196088184Y-104687504D03*
D30*
X191921304Y-107891296D03*
X209588184Y-112971296D03*
D32*
X196063796Y-106687504D03*
D30*
X191921304Y-112971296D03*
D32*
X196088184Y-110687504D03*
X196063796Y-112687504D03*
D30*
X209588184Y-97731296D03*
D31*
X205563796Y-106687504D03*
D30*
X209588184Y-102811296D03*
X191921304Y-105351296D03*
X209588184Y-105351296D03*
D31*
X205563796Y-110687504D03*
X205588184Y-100687504D03*
X205588184Y-104687504D03*
X205563796Y-112687504D03*
D30*
X191921304Y-102811296D03*
D33*
X204588184Y-100687504D03*
X204588184Y-102687504D03*
X204588184Y-104687504D03*
X204563796Y-106687504D03*
X204588184Y-108687504D03*
X204563796Y-110687504D03*
X204563796Y-112687504D03*
D34*
X197063796Y-112687504D03*
X197088184Y-110687504D03*
X197088184Y-108687504D03*
X197063796Y-106687504D03*
X197088184Y-104687504D03*
X197088184Y-102687504D03*
X197088184Y-100687504D03*
D35*
X199536987Y-97044929D03*
X202076987Y-97044929D03*
%TD*%
D36*
%TO.C,REF\u002A\u002A*%
X189992000Y-135128000D03*
X189992000Y-135128000D03*
%TD*%
D11*
%TO.C,D6*%
X122800000Y-111100000D03*
D12*
X123400000Y-111500000D03*
D11*
X122800000Y-107600000D03*
D12*
X122200000Y-107200000D03*
%TD*%
M02*
