%TF.GenerationSoftware,KiCad,Pcbnew,(6.0.7)*%
%TF.CreationDate,2022-09-23T16:10:08+09:00*%
%TF.ProjectId,selen-full_narrow_plate,73656c65-6e2d-4667-956c-6c5f6e617272,rev?*%
%TF.SameCoordinates,Original*%
%TF.FileFunction,Copper,L2,Bot*%
%TF.FilePolarity,Positive*%
%FSLAX46Y46*%
G04 Gerber Fmt 4.6, Leading zero omitted, Abs format (unit mm)*
G04 Created by KiCad (PCBNEW (6.0.7)) date 2022-09-23 16:10:08*
%MOMM*%
%LPD*%
G01*
G04 APERTURE LIST*
G04 APERTURE END LIST*
%TA.AperFunction,NonConductor*%
G36*
X172906854Y-77666714D02*
G01*
X172953347Y-77720370D01*
X172964733Y-77772712D01*
X172964733Y-81748862D01*
X172944731Y-81816983D01*
X172891075Y-81863476D01*
X172838733Y-81874862D01*
X172583463Y-81874862D01*
X172563753Y-81873311D01*
X172551820Y-81871421D01*
X172542027Y-81869870D01*
X172510508Y-81874862D01*
X172416723Y-81889716D01*
X172303685Y-81947312D01*
X172213977Y-82037020D01*
X172156381Y-82150058D01*
X172154831Y-82159845D01*
X172154830Y-82159849D01*
X172148446Y-82200158D01*
X172136535Y-82275362D01*
X172138086Y-82285155D01*
X172139976Y-82297088D01*
X172141527Y-82316798D01*
X172141527Y-84616163D01*
X172121525Y-84684284D01*
X172067869Y-84730777D01*
X172015527Y-84742163D01*
X171862439Y-84742163D01*
X171794318Y-84722161D01*
X171747825Y-84668505D01*
X171736439Y-84616163D01*
X171736439Y-84212581D01*
X171737990Y-84192871D01*
X171739880Y-84180938D01*
X171741431Y-84171145D01*
X171733102Y-84118554D01*
X171721585Y-84045841D01*
X171663989Y-83932803D01*
X171574281Y-83843095D01*
X171461243Y-83785499D01*
X171451454Y-83783949D01*
X171451452Y-83783948D01*
X171345732Y-83767204D01*
X171335939Y-83765653D01*
X171326146Y-83767204D01*
X171314213Y-83769094D01*
X171294503Y-83770645D01*
X164351186Y-83770647D01*
X157407169Y-83770649D01*
X157387458Y-83769098D01*
X157387433Y-83769094D01*
X157365733Y-83765657D01*
X157334214Y-83770649D01*
X157240429Y-83785503D01*
X157127391Y-83843099D01*
X157037683Y-83932807D01*
X156980087Y-84045845D01*
X156960241Y-84171149D01*
X156961792Y-84180942D01*
X156963682Y-84192875D01*
X156965233Y-84212585D01*
X156965233Y-84616166D01*
X156945231Y-84684287D01*
X156891575Y-84730780D01*
X156839233Y-84742166D01*
X156583963Y-84742166D01*
X156564253Y-84740615D01*
X156552320Y-84738725D01*
X156542527Y-84737174D01*
X156532734Y-84738725D01*
X156427014Y-84755469D01*
X156427012Y-84755470D01*
X156417223Y-84757020D01*
X156304185Y-84814616D01*
X156214477Y-84904324D01*
X156156881Y-85017362D01*
X156155330Y-85027153D01*
X156155330Y-85027154D01*
X156142028Y-85111144D01*
X156142027Y-85111144D01*
X156142028Y-85111146D01*
X156137035Y-85142666D01*
X156138586Y-85152458D01*
X156138586Y-85152459D01*
X156140476Y-85164390D01*
X156142027Y-85184102D01*
X156142027Y-88382858D01*
X156122025Y-88450979D01*
X156068369Y-88497472D01*
X156016027Y-88508858D01*
X155862939Y-88508858D01*
X155794818Y-88488856D01*
X155748325Y-88435200D01*
X155736939Y-88382858D01*
X155736939Y-84406708D01*
X155756941Y-84338587D01*
X155810597Y-84292094D01*
X155862939Y-84280708D01*
X156097537Y-84280708D01*
X156117247Y-84282259D01*
X156138973Y-84285700D01*
X156148766Y-84284149D01*
X156254486Y-84267405D01*
X156254488Y-84267404D01*
X156264277Y-84265854D01*
X156377315Y-84208258D01*
X156467023Y-84118550D01*
X156524619Y-84005512D01*
X156539473Y-83911727D01*
X156544465Y-83880208D01*
X156541024Y-83858482D01*
X156539473Y-83838772D01*
X156539473Y-81698408D01*
X156559475Y-81630287D01*
X156613131Y-81583794D01*
X156665473Y-81572408D01*
X156839233Y-81572408D01*
X156907354Y-81592410D01*
X156953847Y-81646066D01*
X156965233Y-81698408D01*
X156965233Y-82099920D01*
X156963682Y-82119630D01*
X156960241Y-82141356D01*
X156965233Y-82172875D01*
X156980087Y-82266660D01*
X157037683Y-82379698D01*
X157127391Y-82469406D01*
X157240429Y-82527002D01*
X157250218Y-82528552D01*
X157250220Y-82528553D01*
X157355940Y-82545297D01*
X157365733Y-82546848D01*
X157387459Y-82543407D01*
X157407169Y-82541856D01*
X171294503Y-82541856D01*
X171314213Y-82543407D01*
X171335939Y-82546848D01*
X171345732Y-82545297D01*
X171451452Y-82528553D01*
X171451454Y-82528552D01*
X171461243Y-82527002D01*
X171574281Y-82469406D01*
X171663989Y-82379698D01*
X171721585Y-82266660D01*
X171725200Y-82243839D01*
X171736439Y-82172875D01*
X171739880Y-82151149D01*
X171741431Y-82141356D01*
X171737990Y-82119630D01*
X171736439Y-82099920D01*
X171736439Y-81698404D01*
X171756441Y-81630283D01*
X171810097Y-81583790D01*
X171862439Y-81572404D01*
X172097037Y-81572404D01*
X172116747Y-81573955D01*
X172138473Y-81577396D01*
X172148266Y-81575845D01*
X172253986Y-81559101D01*
X172253988Y-81559100D01*
X172263777Y-81557550D01*
X172376815Y-81499954D01*
X172466523Y-81410246D01*
X172524119Y-81297208D01*
X172538973Y-81203423D01*
X172543965Y-81171904D01*
X172540524Y-81150178D01*
X172538973Y-81130468D01*
X172538973Y-77772712D01*
X172558975Y-77704591D01*
X172612631Y-77658098D01*
X172664973Y-77646712D01*
X172838733Y-77646712D01*
X172906854Y-77666714D01*
G37*
%TD.AperFunction*%
%TA.AperFunction,NonConductor*%
G36*
X172906854Y-93666714D02*
G01*
X172953347Y-93720370D01*
X172964733Y-93772712D01*
X172964733Y-97748862D01*
X172944731Y-97816983D01*
X172891075Y-97863476D01*
X172838733Y-97874862D01*
X172583463Y-97874862D01*
X172563753Y-97873311D01*
X172551820Y-97871421D01*
X172542027Y-97869870D01*
X172510508Y-97874862D01*
X172416723Y-97889716D01*
X172303685Y-97947312D01*
X172213977Y-98037020D01*
X172156381Y-98150058D01*
X172154831Y-98159845D01*
X172154830Y-98159849D01*
X172148446Y-98200158D01*
X172136535Y-98275362D01*
X172138086Y-98285155D01*
X172139976Y-98297088D01*
X172141527Y-98316798D01*
X172141527Y-100616163D01*
X172121525Y-100684284D01*
X172067869Y-100730777D01*
X172015527Y-100742163D01*
X171862439Y-100742163D01*
X171794318Y-100722161D01*
X171747825Y-100668505D01*
X171736439Y-100616163D01*
X171736439Y-100212581D01*
X171737990Y-100192871D01*
X171739880Y-100180938D01*
X171741431Y-100171145D01*
X171733102Y-100118554D01*
X171721585Y-100045841D01*
X171663989Y-99932803D01*
X171574281Y-99843095D01*
X171461243Y-99785499D01*
X171451454Y-99783949D01*
X171451452Y-99783948D01*
X171345732Y-99767204D01*
X171335939Y-99765653D01*
X171326146Y-99767204D01*
X171314213Y-99769094D01*
X171294503Y-99770645D01*
X164351186Y-99770647D01*
X157407169Y-99770649D01*
X157387458Y-99769098D01*
X157387433Y-99769094D01*
X157365733Y-99765657D01*
X157334214Y-99770649D01*
X157240429Y-99785503D01*
X157127391Y-99843099D01*
X157037683Y-99932807D01*
X156980087Y-100045845D01*
X156960241Y-100171149D01*
X156961792Y-100180942D01*
X156963682Y-100192875D01*
X156965233Y-100212585D01*
X156965233Y-100616166D01*
X156945231Y-100684287D01*
X156891575Y-100730780D01*
X156839233Y-100742166D01*
X156583963Y-100742166D01*
X156564253Y-100740615D01*
X156552320Y-100738725D01*
X156542527Y-100737174D01*
X156532734Y-100738725D01*
X156427014Y-100755469D01*
X156427012Y-100755470D01*
X156417223Y-100757020D01*
X156304185Y-100814616D01*
X156214477Y-100904324D01*
X156156881Y-101017362D01*
X156155330Y-101027153D01*
X156155330Y-101027154D01*
X156142028Y-101111144D01*
X156142027Y-101111144D01*
X156142028Y-101111146D01*
X156137035Y-101142666D01*
X156138586Y-101152458D01*
X156138586Y-101152459D01*
X156140476Y-101164390D01*
X156142027Y-101184102D01*
X156142027Y-104382858D01*
X156122025Y-104450979D01*
X156068369Y-104497472D01*
X156016027Y-104508858D01*
X155862939Y-104508858D01*
X155794818Y-104488856D01*
X155748325Y-104435200D01*
X155736939Y-104382858D01*
X155736939Y-100406708D01*
X155756941Y-100338587D01*
X155810597Y-100292094D01*
X155862939Y-100280708D01*
X156097537Y-100280708D01*
X156117247Y-100282259D01*
X156138973Y-100285700D01*
X156148766Y-100284149D01*
X156254486Y-100267405D01*
X156254488Y-100267404D01*
X156264277Y-100265854D01*
X156377315Y-100208258D01*
X156467023Y-100118550D01*
X156524619Y-100005512D01*
X156539473Y-99911727D01*
X156544465Y-99880208D01*
X156541024Y-99858482D01*
X156539473Y-99838772D01*
X156539473Y-97698408D01*
X156559475Y-97630287D01*
X156613131Y-97583794D01*
X156665473Y-97572408D01*
X156839233Y-97572408D01*
X156907354Y-97592410D01*
X156953847Y-97646066D01*
X156965233Y-97698408D01*
X156965233Y-98099920D01*
X156963682Y-98119630D01*
X156960241Y-98141356D01*
X156965233Y-98172875D01*
X156980087Y-98266660D01*
X157037683Y-98379698D01*
X157127391Y-98469406D01*
X157240429Y-98527002D01*
X157250218Y-98528552D01*
X157250220Y-98528553D01*
X157355940Y-98545297D01*
X157365733Y-98546848D01*
X157387459Y-98543407D01*
X157407169Y-98541856D01*
X171294503Y-98541856D01*
X171314213Y-98543407D01*
X171335939Y-98546848D01*
X171345732Y-98545297D01*
X171451452Y-98528553D01*
X171451454Y-98528552D01*
X171461243Y-98527002D01*
X171574281Y-98469406D01*
X171663989Y-98379698D01*
X171721585Y-98266660D01*
X171725200Y-98243839D01*
X171736439Y-98172875D01*
X171739880Y-98151149D01*
X171741431Y-98141356D01*
X171737990Y-98119630D01*
X171736439Y-98099920D01*
X171736439Y-97698404D01*
X171756441Y-97630283D01*
X171810097Y-97583790D01*
X171862439Y-97572404D01*
X172097037Y-97572404D01*
X172116747Y-97573955D01*
X172138473Y-97577396D01*
X172148266Y-97575845D01*
X172253986Y-97559101D01*
X172253988Y-97559100D01*
X172263777Y-97557550D01*
X172376815Y-97499954D01*
X172466523Y-97410246D01*
X172524119Y-97297208D01*
X172538973Y-97203423D01*
X172543965Y-97171904D01*
X172540524Y-97150178D01*
X172538973Y-97130468D01*
X172538973Y-93772712D01*
X172558975Y-93704591D01*
X172612631Y-93658098D01*
X172664973Y-93646712D01*
X172838733Y-93646712D01*
X172906854Y-93666714D01*
G37*
%TD.AperFunction*%
%TA.AperFunction,NonConductor*%
G36*
X158761095Y-61805296D02*
G01*
X193507933Y-71676556D01*
X193567995Y-71714413D01*
X193598055Y-71778731D01*
X193599500Y-71797760D01*
X193599500Y-93430291D01*
X193597948Y-93450004D01*
X193594508Y-93471721D01*
X193596059Y-93481515D01*
X193596059Y-93481516D01*
X193599495Y-93503213D01*
X193599635Y-93504094D01*
X193599645Y-93504160D01*
X193609313Y-93565204D01*
X193614352Y-93597025D01*
X193614354Y-93597028D01*
X193614354Y-93597031D01*
X193635053Y-93637654D01*
X193671946Y-93710064D01*
X193671949Y-93710067D01*
X193671950Y-93710069D01*
X193716799Y-93754918D01*
X193761653Y-93799773D01*
X193761655Y-93799774D01*
X193761658Y-93799777D01*
X193827072Y-93833107D01*
X193874690Y-93857371D01*
X193874693Y-93857371D01*
X193874696Y-93857373D01*
X193888153Y-93859504D01*
X193888155Y-93859505D01*
X193922297Y-93864912D01*
X193922300Y-93864913D01*
X193968443Y-93872222D01*
X193968475Y-93872227D01*
X193968481Y-93872227D01*
X194000000Y-93877219D01*
X194021722Y-93873779D01*
X194041429Y-93872228D01*
X195473503Y-93872249D01*
X195541622Y-93892252D01*
X195588114Y-93945908D01*
X195599500Y-93998249D01*
X195599500Y-95578578D01*
X195579498Y-95646699D01*
X195525842Y-95693192D01*
X195453790Y-95703027D01*
X195431520Y-95699500D01*
X195409794Y-95696059D01*
X195409793Y-95696059D01*
X195400000Y-95694508D01*
X195390207Y-95696059D01*
X195378274Y-95697949D01*
X195358564Y-95699500D01*
X194441436Y-95699500D01*
X194421726Y-95697949D01*
X194409793Y-95696059D01*
X194400000Y-95694508D01*
X194368481Y-95699500D01*
X194274696Y-95714354D01*
X194161658Y-95771950D01*
X194071950Y-95861658D01*
X194014354Y-95974696D01*
X194012804Y-95984485D01*
X194012803Y-95984487D01*
X193999915Y-96065863D01*
X193994508Y-96100000D01*
X193996059Y-96109793D01*
X193997949Y-96121726D01*
X193999500Y-96141436D01*
X193999500Y-101058564D01*
X193997949Y-101078274D01*
X193994508Y-101100000D01*
X193999500Y-101131519D01*
X194014354Y-101225304D01*
X194071950Y-101338342D01*
X194161658Y-101428050D01*
X194274696Y-101485646D01*
X194284485Y-101487196D01*
X194284487Y-101487197D01*
X194390207Y-101503941D01*
X194400000Y-101505492D01*
X194421726Y-101502051D01*
X194441436Y-101500500D01*
X195358564Y-101500500D01*
X195378274Y-101502051D01*
X195400000Y-101505492D01*
X195409793Y-101503941D01*
X195515513Y-101487197D01*
X195515515Y-101487196D01*
X195525304Y-101485646D01*
X195638342Y-101428050D01*
X195639493Y-101430309D01*
X195692802Y-101411286D01*
X195760675Y-101427067D01*
X195761658Y-101428050D01*
X195874696Y-101485646D01*
X195884485Y-101487196D01*
X195884487Y-101487197D01*
X195990207Y-101503941D01*
X196000000Y-101505492D01*
X196021726Y-101502051D01*
X196041436Y-101500500D01*
X205458564Y-101500500D01*
X205478274Y-101502051D01*
X205500000Y-101505492D01*
X205625304Y-101485646D01*
X205626382Y-101485097D01*
X205692516Y-101483207D01*
X205749581Y-101515973D01*
X205761658Y-101528050D01*
X205874696Y-101585646D01*
X205884485Y-101587196D01*
X205884487Y-101587197D01*
X205964662Y-101599895D01*
X205964687Y-101599899D01*
X206000000Y-101605492D01*
X206021726Y-101602051D01*
X206041436Y-101600500D01*
X206958564Y-101600500D01*
X206978274Y-101602051D01*
X207000000Y-101605492D01*
X207035314Y-101599899D01*
X207125304Y-101585646D01*
X207238342Y-101528050D01*
X207328050Y-101438342D01*
X207385646Y-101325304D01*
X207394113Y-101271849D01*
X207403941Y-101209793D01*
X207405492Y-101200000D01*
X207402051Y-101178274D01*
X207400500Y-101158564D01*
X207400500Y-96241436D01*
X207402051Y-96221726D01*
X207403941Y-96209793D01*
X207405492Y-96200000D01*
X207399731Y-96163624D01*
X207387197Y-96084487D01*
X207387196Y-96084485D01*
X207385646Y-96074696D01*
X207328050Y-95961658D01*
X207238342Y-95871950D01*
X207125304Y-95814354D01*
X207115515Y-95812804D01*
X207115513Y-95812803D01*
X207031519Y-95799500D01*
X207009793Y-95796059D01*
X207000000Y-95794508D01*
X206990207Y-95796059D01*
X206978274Y-95797949D01*
X206958564Y-95799500D01*
X206041436Y-95799500D01*
X206021722Y-95797948D01*
X206006786Y-95795582D01*
X205942634Y-95765168D01*
X205905108Y-95704899D01*
X205900500Y-95671134D01*
X205900500Y-93998410D01*
X205920502Y-93930289D01*
X205974158Y-93883796D01*
X206026502Y-93872410D01*
X208749329Y-93872450D01*
X211473502Y-93872491D01*
X211541622Y-93892494D01*
X211588114Y-93946150D01*
X211599500Y-93998491D01*
X211599500Y-116273500D01*
X211579498Y-116341621D01*
X211525842Y-116388114D01*
X211473500Y-116399500D01*
X198541436Y-116399500D01*
X198521726Y-116397949D01*
X198509793Y-116396059D01*
X198500000Y-116394508D01*
X198468481Y-116399500D01*
X198374696Y-116414354D01*
X198261658Y-116471950D01*
X198171950Y-116561658D01*
X198114354Y-116674696D01*
X198112804Y-116684485D01*
X198112803Y-116684487D01*
X198110676Y-116697919D01*
X198094508Y-116800000D01*
X198096059Y-116809793D01*
X198097949Y-116821726D01*
X198099500Y-116841436D01*
X198099500Y-125158564D01*
X198097949Y-125178274D01*
X198094508Y-125200000D01*
X198099500Y-125231519D01*
X198114354Y-125325304D01*
X198171950Y-125438342D01*
X198261658Y-125528050D01*
X198374696Y-125585646D01*
X198384485Y-125587196D01*
X198384487Y-125587197D01*
X198490207Y-125603941D01*
X198500000Y-125605492D01*
X198521726Y-125602051D01*
X198541436Y-125600500D01*
X211473500Y-125600500D01*
X211541621Y-125620502D01*
X211588114Y-125674158D01*
X211599500Y-125726500D01*
X211599500Y-129915398D01*
X211593157Y-129954872D01*
X211014517Y-131708874D01*
X205383758Y-148777111D01*
X205372487Y-148811275D01*
X205332150Y-148869700D01*
X205266630Y-148897043D01*
X205222585Y-148894117D01*
X204887552Y-148811275D01*
X202735951Y-148279260D01*
X182875293Y-143368418D01*
X182872956Y-143367763D01*
X182870325Y-143366704D01*
X182843904Y-143360639D01*
X182841868Y-143360154D01*
X182815537Y-143353643D01*
X182812704Y-143353400D01*
X182810346Y-143352935D01*
X174393468Y-141420829D01*
X190044477Y-141420829D01*
X190064323Y-141546133D01*
X190121919Y-141659172D01*
X190211627Y-141748879D01*
X190220461Y-141753380D01*
X190312972Y-141800517D01*
X190324665Y-141806475D01*
X190346402Y-141809918D01*
X190365611Y-141814530D01*
X190608393Y-141893414D01*
X190666999Y-141933487D01*
X190694636Y-141998884D01*
X190689290Y-142052183D01*
X190565216Y-142434041D01*
X190557650Y-142452307D01*
X190552165Y-142463072D01*
X190552164Y-142463076D01*
X190547663Y-142471909D01*
X190542671Y-142503428D01*
X190527817Y-142597213D01*
X190529368Y-142607006D01*
X190538316Y-142663499D01*
X190547663Y-142722517D01*
X190605259Y-142835555D01*
X190694967Y-142925263D01*
X190808005Y-142982859D01*
X190817796Y-142984410D01*
X190817797Y-142984410D01*
X190829732Y-142986300D01*
X190848958Y-142990916D01*
X204056595Y-147282338D01*
X204074860Y-147289904D01*
X204094460Y-147299890D01*
X204125979Y-147304882D01*
X204219764Y-147319736D01*
X204313550Y-147304882D01*
X204345068Y-147299890D01*
X204373503Y-147285402D01*
X204449275Y-147246794D01*
X204449274Y-147246794D01*
X204458107Y-147242294D01*
X204547815Y-147152586D01*
X204605410Y-147039548D01*
X204608852Y-147017819D01*
X204613467Y-146998598D01*
X204737542Y-146616732D01*
X204777615Y-146558126D01*
X204843012Y-146530489D01*
X204896309Y-146535835D01*
X205119426Y-146608330D01*
X205137691Y-146615896D01*
X205148456Y-146621381D01*
X205148460Y-146621382D01*
X205157293Y-146625883D01*
X205188812Y-146630875D01*
X205282597Y-146645729D01*
X205376383Y-146630875D01*
X205407901Y-146625883D01*
X205520939Y-146568287D01*
X205560628Y-146528598D01*
X205610647Y-146478580D01*
X205668243Y-146365541D01*
X205671684Y-146343814D01*
X205676300Y-146324588D01*
X206732264Y-143074665D01*
X206739830Y-143056399D01*
X206745314Y-143045637D01*
X206745315Y-143045634D01*
X206749816Y-143036800D01*
X206769662Y-142911496D01*
X206754733Y-142817237D01*
X206749816Y-142786192D01*
X206692220Y-142673154D01*
X206682565Y-142663499D01*
X206602513Y-142583446D01*
X206517908Y-142540338D01*
X206489474Y-142525850D01*
X206479683Y-142524299D01*
X206479682Y-142524299D01*
X206467747Y-142522409D01*
X206448524Y-142517794D01*
X206225406Y-142445298D01*
X206166801Y-142405224D01*
X206139164Y-142339827D01*
X206144510Y-142286529D01*
X206259221Y-141933487D01*
X206908343Y-139935696D01*
X207373209Y-138504986D01*
X207413282Y-138446380D01*
X207478679Y-138418743D01*
X207531978Y-138424089D01*
X207755091Y-138496583D01*
X207773357Y-138504149D01*
X207784122Y-138509634D01*
X207784126Y-138509635D01*
X207792959Y-138514136D01*
X207802752Y-138515687D01*
X207824478Y-138519128D01*
X207902258Y-138531447D01*
X207918263Y-138533982D01*
X208012049Y-138519128D01*
X208043567Y-138514136D01*
X208054729Y-138508449D01*
X208072001Y-138499648D01*
X208156605Y-138456540D01*
X208193008Y-138420137D01*
X208246313Y-138366833D01*
X208303909Y-138253794D01*
X208307350Y-138232067D01*
X208311966Y-138212841D01*
X209367930Y-134962921D01*
X209375496Y-134944655D01*
X209380981Y-134933889D01*
X209380981Y-134933888D01*
X209385483Y-134925053D01*
X209387764Y-134910656D01*
X209403778Y-134809542D01*
X209405329Y-134799749D01*
X209390357Y-134705218D01*
X209387034Y-134684236D01*
X209387033Y-134684234D01*
X209385483Y-134674445D01*
X209327887Y-134561406D01*
X209238180Y-134471699D01*
X209125141Y-134414103D01*
X209115350Y-134412552D01*
X209103412Y-134410661D01*
X209084191Y-134406046D01*
X208861074Y-134333551D01*
X208802468Y-134293478D01*
X208774831Y-134228081D01*
X208780177Y-134174782D01*
X208904890Y-133790956D01*
X208912456Y-133772690D01*
X208917941Y-133761924D01*
X208917941Y-133761923D01*
X208922443Y-133753088D01*
X208931142Y-133698168D01*
X208940738Y-133637577D01*
X208942289Y-133627784D01*
X208922443Y-133502480D01*
X208887747Y-133434385D01*
X208864847Y-133389441D01*
X208775140Y-133299734D01*
X208662101Y-133242138D01*
X208640368Y-133238696D01*
X208621146Y-133234081D01*
X200638043Y-130640216D01*
X195413508Y-128942663D01*
X195395242Y-128935097D01*
X195384479Y-128929613D01*
X195384475Y-128929612D01*
X195375644Y-128925112D01*
X195344129Y-128920120D01*
X195344125Y-128920119D01*
X195344107Y-128920116D01*
X195344096Y-128920114D01*
X195260133Y-128906816D01*
X195250340Y-128905265D01*
X195240547Y-128906816D01*
X195134827Y-128923560D01*
X195134825Y-128923561D01*
X195125036Y-128925111D01*
X195011998Y-128982707D01*
X194922290Y-129072415D01*
X194864694Y-129185453D01*
X194861251Y-129207190D01*
X194856639Y-129226399D01*
X194768964Y-129496235D01*
X194731924Y-129610232D01*
X194691850Y-129668838D01*
X194626454Y-129696475D01*
X194573156Y-129691129D01*
X194330379Y-129612246D01*
X194312113Y-129604680D01*
X194301347Y-129599194D01*
X194301344Y-129599193D01*
X194292514Y-129594694D01*
X194167210Y-129574847D01*
X194043061Y-129594511D01*
X194041906Y-129594694D01*
X193928867Y-129652290D01*
X193921854Y-129659304D01*
X193921853Y-129659304D01*
X193884016Y-129697142D01*
X193864166Y-129716992D01*
X193839160Y-129741997D01*
X193818592Y-129782364D01*
X193781564Y-129855036D01*
X193780013Y-129864827D01*
X193780013Y-129864828D01*
X193778123Y-129876763D01*
X193773507Y-129895989D01*
X192717542Y-133145912D01*
X192709976Y-133164178D01*
X192699990Y-133183777D01*
X192694998Y-133215296D01*
X192680144Y-133309081D01*
X192681695Y-133318874D01*
X192692872Y-133389441D01*
X192699990Y-133434385D01*
X192734686Y-133502480D01*
X192757586Y-133547423D01*
X192847293Y-133637131D01*
X192919510Y-133673927D01*
X192960332Y-133694727D01*
X192970125Y-133696278D01*
X192982059Y-133698168D01*
X193001282Y-133702783D01*
X193156104Y-133753088D01*
X193244060Y-133781667D01*
X193302665Y-133821741D01*
X193330302Y-133887138D01*
X193324956Y-133940436D01*
X192897096Y-135257254D01*
X192096258Y-137721980D01*
X192056185Y-137780586D01*
X191990788Y-137808223D01*
X191937490Y-137802877D01*
X191839530Y-137771048D01*
X191694717Y-137723995D01*
X191676451Y-137716429D01*
X191665685Y-137710944D01*
X191665684Y-137710944D01*
X191656847Y-137706441D01*
X191531543Y-137686594D01*
X191406239Y-137706441D01*
X191397406Y-137710942D01*
X191397405Y-137710942D01*
X191377803Y-137720930D01*
X191293201Y-137764037D01*
X191203493Y-137853744D01*
X191173848Y-137911926D01*
X191145897Y-137966783D01*
X191144346Y-137976576D01*
X191142456Y-137988510D01*
X191137840Y-138007736D01*
X190081876Y-141257657D01*
X190074310Y-141275923D01*
X190069903Y-141284574D01*
X190064323Y-141295525D01*
X190044477Y-141420829D01*
X174393468Y-141420829D01*
X165922921Y-139476403D01*
X163920315Y-139016702D01*
X163920286Y-139016694D01*
X163920255Y-139016682D01*
X163886323Y-139008900D01*
X163886323Y-139008899D01*
X163886303Y-139008895D01*
X163858885Y-139002601D01*
X163858854Y-139002599D01*
X163858848Y-139002598D01*
X160634606Y-138263093D01*
X171550554Y-138263093D01*
X171552105Y-138272885D01*
X171556162Y-138298499D01*
X171557540Y-138311617D01*
X171559415Y-138347399D01*
X171562969Y-138356657D01*
X171563728Y-138360229D01*
X171567721Y-138375133D01*
X171568849Y-138378605D01*
X171570400Y-138388397D01*
X171586674Y-138420336D01*
X171592028Y-138432361D01*
X171604879Y-138465839D01*
X171611118Y-138473544D01*
X171612931Y-138476684D01*
X171621359Y-138489661D01*
X171623494Y-138492599D01*
X171627996Y-138501435D01*
X171653334Y-138526773D01*
X171662159Y-138536573D01*
X171684719Y-138564432D01*
X171693037Y-138569834D01*
X171695736Y-138572264D01*
X171707734Y-138581980D01*
X171710686Y-138584125D01*
X171717704Y-138591143D01*
X171726543Y-138595647D01*
X171726545Y-138595648D01*
X171749637Y-138607414D01*
X171761058Y-138614008D01*
X171791117Y-138633529D01*
X171800700Y-138636096D01*
X171804025Y-138637577D01*
X171818442Y-138643111D01*
X171821906Y-138644236D01*
X171830742Y-138648739D01*
X171856096Y-138652755D01*
X171866138Y-138654345D01*
X171879038Y-138657087D01*
X171904083Y-138663798D01*
X171904086Y-138663798D01*
X171913661Y-138666364D01*
X171935626Y-138665213D01*
X171955387Y-138665730D01*
X172209263Y-138692413D01*
X172274918Y-138719426D01*
X172315548Y-138777648D01*
X172321401Y-138830894D01*
X172279431Y-139230212D01*
X172275829Y-139249647D01*
X172270136Y-139270894D01*
X172270655Y-139280797D01*
X172270274Y-139284422D01*
X172269466Y-139299849D01*
X172269466Y-139303487D01*
X172267915Y-139313279D01*
X172269466Y-139323071D01*
X172273522Y-139348680D01*
X172274900Y-139361791D01*
X172276776Y-139397586D01*
X172280331Y-139406846D01*
X172281088Y-139410408D01*
X172285083Y-139425320D01*
X172286210Y-139428788D01*
X172287761Y-139438583D01*
X172292263Y-139447418D01*
X172292263Y-139447419D01*
X172304031Y-139470515D01*
X172309394Y-139482560D01*
X172322241Y-139516025D01*
X172328480Y-139523730D01*
X172330298Y-139526878D01*
X172338715Y-139539838D01*
X172340852Y-139542779D01*
X172345357Y-139551621D01*
X172370696Y-139576960D01*
X172379521Y-139586760D01*
X172402080Y-139614618D01*
X172410398Y-139620020D01*
X172413097Y-139622450D01*
X172425095Y-139632166D01*
X172428047Y-139634311D01*
X172435065Y-139641329D01*
X172443904Y-139645833D01*
X172443906Y-139645834D01*
X172466998Y-139657600D01*
X172478419Y-139664194D01*
X172508478Y-139683715D01*
X172518057Y-139686282D01*
X172521363Y-139687754D01*
X172535815Y-139693302D01*
X172539270Y-139694424D01*
X172548103Y-139698925D01*
X172557894Y-139700476D01*
X172557895Y-139700476D01*
X172583498Y-139704531D01*
X172596395Y-139707272D01*
X172605649Y-139709752D01*
X172621443Y-139713984D01*
X172621445Y-139713984D01*
X172631021Y-139716550D01*
X172652988Y-139715399D01*
X172672750Y-139715916D01*
X186484019Y-141167539D01*
X186503455Y-141171142D01*
X186508210Y-141172416D01*
X186524698Y-141176834D01*
X186534602Y-141176315D01*
X186538919Y-141176089D01*
X186556564Y-141175164D01*
X186556569Y-141175164D01*
X186574270Y-141174236D01*
X186580865Y-141174063D01*
X186598602Y-141174063D01*
X186603488Y-141173289D01*
X186605501Y-141173131D01*
X186615600Y-141172070D01*
X186628805Y-141171378D01*
X186651390Y-141170194D01*
X186660650Y-141166639D01*
X186664212Y-141165882D01*
X186679124Y-141161887D01*
X186682592Y-141160760D01*
X186692387Y-141159209D01*
X186724320Y-141142939D01*
X186736365Y-141137575D01*
X186760574Y-141128282D01*
X186760575Y-141128281D01*
X186769829Y-141124729D01*
X186777534Y-141118490D01*
X186780682Y-141116672D01*
X186793642Y-141108255D01*
X186796583Y-141106118D01*
X186805425Y-141101613D01*
X186830764Y-141076274D01*
X186840565Y-141067448D01*
X186860715Y-141051131D01*
X186868422Y-141044890D01*
X186873824Y-141036572D01*
X186876254Y-141033873D01*
X186885977Y-141021867D01*
X186888119Y-141018919D01*
X186895133Y-141011905D01*
X186911405Y-140979969D01*
X186917995Y-140968555D01*
X186932119Y-140946806D01*
X186937519Y-140938491D01*
X186940085Y-140928914D01*
X186941563Y-140925595D01*
X186947103Y-140911164D01*
X186948229Y-140907700D01*
X186952729Y-140898867D01*
X186958336Y-140863466D01*
X186961076Y-140850576D01*
X186962092Y-140846783D01*
X186962094Y-140846771D01*
X186967787Y-140825526D01*
X186967787Y-140825523D01*
X186970353Y-140815948D01*
X186969834Y-140806042D01*
X186970215Y-140802412D01*
X186971023Y-140787004D01*
X186971023Y-140783359D01*
X186972575Y-140773563D01*
X186971207Y-140764925D01*
X186971714Y-140755248D01*
X187011689Y-140374903D01*
X187038702Y-140309246D01*
X187096924Y-140268616D01*
X187150170Y-140262763D01*
X187383487Y-140287286D01*
X187402924Y-140290889D01*
X187414588Y-140294014D01*
X187414592Y-140294014D01*
X187424171Y-140296581D01*
X187434075Y-140296062D01*
X187438392Y-140295836D01*
X187456037Y-140294911D01*
X187456042Y-140294911D01*
X187473743Y-140293983D01*
X187480338Y-140293810D01*
X187498075Y-140293810D01*
X187502961Y-140293036D01*
X187504974Y-140292878D01*
X187515073Y-140291817D01*
X187528278Y-140291125D01*
X187550863Y-140289941D01*
X187560123Y-140286386D01*
X187563685Y-140285629D01*
X187578597Y-140281634D01*
X187582065Y-140280507D01*
X187591860Y-140278956D01*
X187623793Y-140262686D01*
X187635838Y-140257322D01*
X187660047Y-140248029D01*
X187660048Y-140248028D01*
X187669302Y-140244476D01*
X187677007Y-140238237D01*
X187680155Y-140236419D01*
X187693115Y-140228002D01*
X187696056Y-140225865D01*
X187704898Y-140221360D01*
X187730237Y-140196021D01*
X187740038Y-140187195D01*
X187760188Y-140170878D01*
X187767895Y-140164637D01*
X187773297Y-140156319D01*
X187775727Y-140153620D01*
X187785443Y-140141622D01*
X187787588Y-140138670D01*
X187794606Y-140131652D01*
X187810877Y-140099719D01*
X187817471Y-140088298D01*
X187831589Y-140066558D01*
X187836992Y-140058239D01*
X187839559Y-140048656D01*
X187841040Y-140045331D01*
X187846574Y-140030914D01*
X187847699Y-140027451D01*
X187852202Y-140018614D01*
X187857809Y-139983213D01*
X187860549Y-139970323D01*
X187861565Y-139966530D01*
X187861566Y-139966530D01*
X187861567Y-139966519D01*
X187867260Y-139945274D01*
X187867260Y-139945271D01*
X187869826Y-139935696D01*
X187869307Y-139925792D01*
X187869688Y-139922164D01*
X187870496Y-139906750D01*
X187870496Y-139903106D01*
X187872048Y-139893310D01*
X187870680Y-139884672D01*
X187871187Y-139874994D01*
X188226386Y-136495498D01*
X188229987Y-136476067D01*
X188235680Y-136454822D01*
X188235161Y-136444916D01*
X188235543Y-136441279D01*
X188236350Y-136425879D01*
X188236350Y-136422234D01*
X188237902Y-136412437D01*
X188232294Y-136377028D01*
X188230917Y-136363921D01*
X188229560Y-136338033D01*
X188229041Y-136328130D01*
X188225486Y-136318870D01*
X188224729Y-136315308D01*
X188220734Y-136300396D01*
X188219607Y-136296928D01*
X188218056Y-136287133D01*
X188201786Y-136255200D01*
X188196422Y-136243155D01*
X188187129Y-136218946D01*
X188187128Y-136218945D01*
X188183576Y-136209691D01*
X188177337Y-136201986D01*
X188175519Y-136198838D01*
X188167102Y-136185878D01*
X188164965Y-136182937D01*
X188160460Y-136174095D01*
X188135125Y-136148760D01*
X188126299Y-136138959D01*
X188109975Y-136118800D01*
X188109974Y-136118799D01*
X188103737Y-136111097D01*
X188095423Y-136105698D01*
X188092732Y-136103275D01*
X188080730Y-136093555D01*
X188077768Y-136091403D01*
X188070752Y-136084387D01*
X188038812Y-136068113D01*
X188027411Y-136061530D01*
X187997339Y-136042001D01*
X187987754Y-136039433D01*
X187984423Y-136037950D01*
X187970014Y-136032419D01*
X187966550Y-136031294D01*
X187957714Y-136026791D01*
X187932360Y-136022775D01*
X187922318Y-136021185D01*
X187909418Y-136018443D01*
X187884373Y-136011732D01*
X187884370Y-136011732D01*
X187874795Y-136009166D01*
X187852828Y-136010317D01*
X187833066Y-136009800D01*
X187766240Y-136002776D01*
X187599752Y-135985278D01*
X187534096Y-135958265D01*
X187493466Y-135900043D01*
X187487613Y-135846797D01*
X187742197Y-133424594D01*
X187903234Y-131892429D01*
X187930247Y-131826774D01*
X187988469Y-131786144D01*
X188041715Y-131780291D01*
X188275031Y-131804814D01*
X188294468Y-131808417D01*
X188306132Y-131811542D01*
X188306136Y-131811542D01*
X188315715Y-131814109D01*
X188325619Y-131813590D01*
X188329936Y-131813364D01*
X188347581Y-131812439D01*
X188347586Y-131812439D01*
X188365287Y-131811511D01*
X188371882Y-131811338D01*
X188389619Y-131811338D01*
X188394505Y-131810564D01*
X188396518Y-131810406D01*
X188406617Y-131809345D01*
X188419822Y-131808653D01*
X188442407Y-131807469D01*
X188451667Y-131803914D01*
X188455229Y-131803157D01*
X188470141Y-131799162D01*
X188473609Y-131798035D01*
X188483404Y-131796484D01*
X188515337Y-131780214D01*
X188527382Y-131774850D01*
X188551591Y-131765557D01*
X188551592Y-131765556D01*
X188560846Y-131762004D01*
X188568551Y-131755765D01*
X188571699Y-131753947D01*
X188584659Y-131745530D01*
X188587600Y-131743393D01*
X188596442Y-131738888D01*
X188621781Y-131713549D01*
X188631582Y-131704723D01*
X188651732Y-131688406D01*
X188659439Y-131682165D01*
X188664841Y-131673847D01*
X188667271Y-131671148D01*
X188676987Y-131659150D01*
X188679132Y-131656198D01*
X188686150Y-131649180D01*
X188702421Y-131617247D01*
X188709015Y-131605826D01*
X188723133Y-131584086D01*
X188728536Y-131575767D01*
X188731103Y-131566184D01*
X188732584Y-131562859D01*
X188738118Y-131548442D01*
X188739243Y-131544979D01*
X188743746Y-131536142D01*
X188749353Y-131500741D01*
X188752093Y-131487851D01*
X188753109Y-131484058D01*
X188753110Y-131484058D01*
X188753111Y-131484047D01*
X188758804Y-131462802D01*
X188758804Y-131462799D01*
X188761370Y-131453224D01*
X188760851Y-131443320D01*
X188761232Y-131439692D01*
X188762040Y-131424278D01*
X188762040Y-131420634D01*
X188763592Y-131410838D01*
X188762224Y-131402200D01*
X188762731Y-131392522D01*
X189117930Y-128013027D01*
X189121531Y-127993596D01*
X189127224Y-127972351D01*
X189126705Y-127962445D01*
X189127087Y-127958808D01*
X189127894Y-127943408D01*
X189127894Y-127939763D01*
X189129446Y-127929966D01*
X189123838Y-127894557D01*
X189122461Y-127881450D01*
X189121104Y-127855562D01*
X189120585Y-127845659D01*
X189117030Y-127836399D01*
X189116273Y-127832837D01*
X189112278Y-127817925D01*
X189111151Y-127814457D01*
X189109600Y-127804662D01*
X189093330Y-127772729D01*
X189087966Y-127760684D01*
X189078673Y-127736475D01*
X189078672Y-127736474D01*
X189075120Y-127727220D01*
X189068881Y-127719515D01*
X189067063Y-127716367D01*
X189058646Y-127703407D01*
X189056509Y-127700466D01*
X189052004Y-127691624D01*
X189026669Y-127666289D01*
X189017843Y-127656488D01*
X189001519Y-127636329D01*
X189001518Y-127636328D01*
X188995281Y-127628626D01*
X188986967Y-127623227D01*
X188984276Y-127620804D01*
X188972274Y-127611084D01*
X188969312Y-127608932D01*
X188962296Y-127601916D01*
X188930356Y-127585642D01*
X188918955Y-127579059D01*
X188888883Y-127559530D01*
X188879298Y-127556962D01*
X188875967Y-127555479D01*
X188861558Y-127549948D01*
X188858094Y-127548823D01*
X188849258Y-127544320D01*
X188823904Y-127540304D01*
X188813862Y-127538714D01*
X188800962Y-127535972D01*
X188775917Y-127529261D01*
X188775914Y-127529261D01*
X188766339Y-127526695D01*
X188744372Y-127527846D01*
X188724610Y-127527329D01*
X188657784Y-127520305D01*
X188491296Y-127502807D01*
X188425640Y-127475794D01*
X188385010Y-127417572D01*
X188379157Y-127364326D01*
X188421344Y-126962952D01*
X188424947Y-126943515D01*
X188428072Y-126931851D01*
X188428072Y-126931847D01*
X188430639Y-126922268D01*
X188430120Y-126912366D01*
X188430501Y-126908740D01*
X188431309Y-126893313D01*
X188431309Y-126889675D01*
X188432860Y-126879883D01*
X188427252Y-126844477D01*
X188425874Y-126831358D01*
X188424518Y-126805485D01*
X188423999Y-126795576D01*
X188420443Y-126786313D01*
X188419684Y-126782742D01*
X188415692Y-126767842D01*
X188414565Y-126764374D01*
X188413014Y-126754579D01*
X188397197Y-126723535D01*
X188396740Y-126722639D01*
X188391377Y-126710593D01*
X188385299Y-126694760D01*
X188385296Y-126694753D01*
X188383529Y-126690148D01*
X188378535Y-126677138D01*
X188372295Y-126669432D01*
X188370477Y-126666283D01*
X188362060Y-126653322D01*
X188359921Y-126650378D01*
X188355418Y-126641541D01*
X188330079Y-126616202D01*
X188321254Y-126606401D01*
X188304939Y-126586254D01*
X188304937Y-126586252D01*
X188298695Y-126578544D01*
X188290377Y-126573142D01*
X188287678Y-126570712D01*
X188275680Y-126560996D01*
X188272728Y-126558851D01*
X188265710Y-126551833D01*
X188256871Y-126547329D01*
X188256869Y-126547328D01*
X188233777Y-126535562D01*
X188222356Y-126528968D01*
X188212435Y-126522525D01*
X188192297Y-126509447D01*
X188182714Y-126506880D01*
X188179389Y-126505399D01*
X188164972Y-126499865D01*
X188161509Y-126498740D01*
X188152672Y-126494237D01*
X188123997Y-126489695D01*
X188117271Y-126488630D01*
X188104381Y-126485890D01*
X188100588Y-126484874D01*
X188100588Y-126484873D01*
X188100575Y-126484871D01*
X188079336Y-126479180D01*
X188079333Y-126479180D01*
X188069754Y-126476613D01*
X188047792Y-126477764D01*
X188028030Y-126477247D01*
X184155649Y-126070244D01*
X174216760Y-125025626D01*
X174197323Y-125022023D01*
X174185659Y-125018898D01*
X174185655Y-125018898D01*
X174176076Y-125016331D01*
X174144209Y-125018001D01*
X174144205Y-125018001D01*
X174100702Y-125020281D01*
X174049384Y-125022971D01*
X174040126Y-125026525D01*
X174040125Y-125026525D01*
X173940203Y-125064882D01*
X173930945Y-125068436D01*
X173832352Y-125148275D01*
X173763255Y-125254674D01*
X173760689Y-125264251D01*
X173734441Y-125362212D01*
X173730420Y-125377217D01*
X173730939Y-125387121D01*
X173731571Y-125399181D01*
X173731054Y-125418945D01*
X173690389Y-125805856D01*
X173688869Y-125820317D01*
X173661856Y-125885974D01*
X173603634Y-125926604D01*
X173550388Y-125932457D01*
X173296513Y-125905773D01*
X173277076Y-125902170D01*
X173265412Y-125899045D01*
X173265410Y-125899045D01*
X173255830Y-125896478D01*
X173245925Y-125896997D01*
X173206252Y-125899076D01*
X173199658Y-125899249D01*
X173181925Y-125899249D01*
X173177041Y-125900023D01*
X173174980Y-125900185D01*
X173164927Y-125901242D01*
X173129138Y-125903117D01*
X173119878Y-125906672D01*
X173116314Y-125907429D01*
X173101390Y-125911428D01*
X173097930Y-125912552D01*
X173088140Y-125914103D01*
X173063606Y-125926604D01*
X173056211Y-125930372D01*
X173044161Y-125935737D01*
X173019956Y-125945028D01*
X173019955Y-125945029D01*
X173010698Y-125948582D01*
X173002993Y-125954821D01*
X172999853Y-125956634D01*
X172986876Y-125965062D01*
X172983938Y-125967197D01*
X172975102Y-125971699D01*
X172949767Y-125997034D01*
X172939966Y-126005860D01*
X172912104Y-126028422D01*
X172906705Y-126036736D01*
X172904282Y-126039427D01*
X172894556Y-126051437D01*
X172892409Y-126054392D01*
X172885394Y-126061407D01*
X172869127Y-126093333D01*
X172862534Y-126104753D01*
X172848409Y-126126503D01*
X172848407Y-126126506D01*
X172843008Y-126134821D01*
X172840442Y-126144398D01*
X172838961Y-126147724D01*
X172833425Y-126162147D01*
X172832300Y-126165609D01*
X172827798Y-126174445D01*
X172826247Y-126184239D01*
X172822192Y-126209844D01*
X172819451Y-126222737D01*
X172810173Y-126257364D01*
X172810692Y-126267271D01*
X172810311Y-126270898D01*
X172809503Y-126286319D01*
X172809503Y-126289957D01*
X172807952Y-126299749D01*
X172809320Y-126308387D01*
X172808813Y-126318068D01*
X172453657Y-129697144D01*
X172453614Y-129697550D01*
X172450010Y-129716992D01*
X172446884Y-129728656D01*
X172446884Y-129728660D01*
X172444318Y-129738235D01*
X172444837Y-129748140D01*
X172444457Y-129751759D01*
X172443648Y-129767191D01*
X172443648Y-129770829D01*
X172442097Y-129780621D01*
X172443648Y-129790413D01*
X172447705Y-129816027D01*
X172449083Y-129829145D01*
X172450958Y-129864927D01*
X172454512Y-129874185D01*
X172455271Y-129877757D01*
X172459264Y-129892661D01*
X172460392Y-129896133D01*
X172461943Y-129905925D01*
X172478217Y-129937864D01*
X172483571Y-129949889D01*
X172496422Y-129983367D01*
X172502661Y-129991072D01*
X172504474Y-129994212D01*
X172512902Y-130007189D01*
X172515037Y-130010127D01*
X172519539Y-130018963D01*
X172544876Y-130044300D01*
X172553701Y-130054100D01*
X172569917Y-130074125D01*
X172576262Y-130081960D01*
X172584580Y-130087362D01*
X172587279Y-130089792D01*
X172599277Y-130099508D01*
X172602229Y-130101653D01*
X172609247Y-130108671D01*
X172618086Y-130113175D01*
X172618088Y-130113176D01*
X172641180Y-130124942D01*
X172652601Y-130131536D01*
X172682660Y-130151057D01*
X172692239Y-130153624D01*
X172695545Y-130155096D01*
X172709997Y-130160644D01*
X172713452Y-130161766D01*
X172722285Y-130166267D01*
X172732076Y-130167818D01*
X172732077Y-130167818D01*
X172757680Y-130171873D01*
X172770577Y-130174614D01*
X172779831Y-130177094D01*
X172795625Y-130181326D01*
X172795627Y-130181326D01*
X172805203Y-130183892D01*
X172827168Y-130182741D01*
X172846931Y-130183258D01*
X173100807Y-130209941D01*
X173166463Y-130236954D01*
X173207093Y-130295176D01*
X173212946Y-130348422D01*
X173059071Y-131812439D01*
X172798303Y-134293478D01*
X172797324Y-134302790D01*
X172770311Y-134368446D01*
X172712089Y-134409076D01*
X172658843Y-134414929D01*
X172404969Y-134388245D01*
X172385532Y-134384642D01*
X172373868Y-134381517D01*
X172373864Y-134381517D01*
X172364285Y-134378950D01*
X172354380Y-134379469D01*
X172314707Y-134381548D01*
X172308113Y-134381721D01*
X172290381Y-134381721D01*
X172285497Y-134382495D01*
X172283436Y-134382657D01*
X172273383Y-134383714D01*
X172237593Y-134385589D01*
X172228332Y-134389144D01*
X172224767Y-134389902D01*
X172209870Y-134393894D01*
X172206394Y-134395023D01*
X172196596Y-134396575D01*
X172164664Y-134412845D01*
X172152625Y-134418205D01*
X172128411Y-134427500D01*
X172128409Y-134427501D01*
X172119154Y-134431054D01*
X172111448Y-134437294D01*
X172108310Y-134439106D01*
X172095332Y-134447534D01*
X172092394Y-134449669D01*
X172083558Y-134454171D01*
X172058220Y-134479509D01*
X172048420Y-134488334D01*
X172020561Y-134510894D01*
X172015159Y-134519212D01*
X172012729Y-134521911D01*
X172003013Y-134533909D01*
X172000868Y-134536861D01*
X171993850Y-134543879D01*
X171989346Y-134552718D01*
X171989345Y-134552720D01*
X171977579Y-134575812D01*
X171970985Y-134587233D01*
X171951464Y-134617292D01*
X171948897Y-134626875D01*
X171947416Y-134630200D01*
X171941880Y-134644622D01*
X171940756Y-134648083D01*
X171936254Y-134656917D01*
X171934703Y-134666710D01*
X171930648Y-134692315D01*
X171927905Y-134705218D01*
X171918629Y-134739835D01*
X171919148Y-134749741D01*
X171918767Y-134753367D01*
X171917959Y-134768791D01*
X171917959Y-134772429D01*
X171916408Y-134782221D01*
X171917776Y-134790859D01*
X171917269Y-134800540D01*
X171569347Y-138110800D01*
X171562071Y-138180022D01*
X171558467Y-138199464D01*
X171555341Y-138211128D01*
X171555341Y-138211132D01*
X171552775Y-138220707D01*
X171553294Y-138230612D01*
X171552914Y-138234231D01*
X171552105Y-138249663D01*
X171552105Y-138253301D01*
X171550554Y-138263093D01*
X160634606Y-138263093D01*
X153815099Y-136698986D01*
X142119203Y-134016441D01*
X142117966Y-134016112D01*
X142116323Y-134015471D01*
X142111956Y-134014516D01*
X142111951Y-134014515D01*
X142088100Y-134009300D01*
X142086848Y-134009020D01*
X142058812Y-134002590D01*
X142057048Y-134002469D01*
X142055808Y-134002242D01*
X109371637Y-126857393D01*
X109309362Y-126823306D01*
X109275400Y-126760959D01*
X109280537Y-126690148D01*
X109323142Y-126633356D01*
X109378832Y-126609853D01*
X109387953Y-126608408D01*
X109407669Y-126606856D01*
X123295003Y-126606856D01*
X123314713Y-126608407D01*
X123336439Y-126611848D01*
X123404370Y-126601089D01*
X123461743Y-126592002D01*
X123574781Y-126534406D01*
X123664489Y-126444698D01*
X123722085Y-126331660D01*
X123725465Y-126310324D01*
X123740380Y-126216149D01*
X123741931Y-126206356D01*
X123738490Y-126184630D01*
X123736939Y-126164920D01*
X123736939Y-125763404D01*
X123756941Y-125695283D01*
X123810597Y-125648790D01*
X123862939Y-125637404D01*
X124097537Y-125637404D01*
X124117247Y-125638955D01*
X124138973Y-125642396D01*
X124148766Y-125640845D01*
X124254486Y-125624101D01*
X124254488Y-125624100D01*
X124264277Y-125622550D01*
X124377315Y-125564954D01*
X124467023Y-125475246D01*
X124524619Y-125362208D01*
X124539473Y-125268423D01*
X124544465Y-125236904D01*
X124541024Y-125215178D01*
X124539473Y-125195468D01*
X124539473Y-121778294D01*
X124541024Y-121758584D01*
X124542914Y-121746651D01*
X124544465Y-121736858D01*
X124539473Y-121705339D01*
X124526170Y-121621345D01*
X124526169Y-121621343D01*
X124524619Y-121611554D01*
X124467023Y-121498516D01*
X124377315Y-121408808D01*
X124264277Y-121351212D01*
X124254488Y-121349662D01*
X124254486Y-121349661D01*
X124170492Y-121336358D01*
X124148766Y-121332917D01*
X124138973Y-121331366D01*
X124129180Y-121332917D01*
X124117247Y-121334807D01*
X124097537Y-121336358D01*
X123862939Y-121336358D01*
X123794818Y-121316356D01*
X123748325Y-121262700D01*
X123736939Y-121210358D01*
X123736939Y-117234208D01*
X123756941Y-117166087D01*
X123810597Y-117119594D01*
X123862939Y-117108208D01*
X124097537Y-117108208D01*
X124117247Y-117109759D01*
X124138973Y-117113200D01*
X124148766Y-117111649D01*
X124254486Y-117094905D01*
X124254488Y-117094904D01*
X124264277Y-117093354D01*
X124377315Y-117035758D01*
X124467023Y-116946050D01*
X124524619Y-116833012D01*
X124539473Y-116739227D01*
X124544465Y-116707708D01*
X124541024Y-116685982D01*
X124539473Y-116666272D01*
X124539473Y-115127158D01*
X124559475Y-115059037D01*
X124613131Y-115012544D01*
X124665473Y-115001158D01*
X124839733Y-115001158D01*
X124907854Y-115021160D01*
X124954347Y-115074816D01*
X124965733Y-115127158D01*
X124965733Y-115528670D01*
X124964182Y-115548380D01*
X124960741Y-115570106D01*
X124965733Y-115601625D01*
X124980587Y-115695410D01*
X125038183Y-115808448D01*
X125127891Y-115898156D01*
X125240929Y-115955752D01*
X125250718Y-115957302D01*
X125250720Y-115957303D01*
X125356440Y-115974047D01*
X125366233Y-115975598D01*
X125387959Y-115972157D01*
X125407669Y-115970606D01*
X139295003Y-115970606D01*
X139314713Y-115972157D01*
X139336439Y-115975598D01*
X139346232Y-115974047D01*
X139451952Y-115957303D01*
X139451954Y-115957302D01*
X139461743Y-115955752D01*
X139574781Y-115898156D01*
X139664489Y-115808448D01*
X139722085Y-115695410D01*
X139736939Y-115601625D01*
X139741931Y-115570106D01*
X139738490Y-115548380D01*
X139736939Y-115528670D01*
X139736939Y-115127154D01*
X139756941Y-115059033D01*
X139810597Y-115012540D01*
X139862939Y-115001154D01*
X140097537Y-115001154D01*
X140117247Y-115002705D01*
X140138973Y-115006146D01*
X140148766Y-115004595D01*
X140254486Y-114987851D01*
X140254488Y-114987850D01*
X140264277Y-114986300D01*
X140377315Y-114928704D01*
X140467023Y-114838996D01*
X140524619Y-114725958D01*
X140532515Y-114676108D01*
X140539473Y-114632173D01*
X140542914Y-114610447D01*
X140544465Y-114600654D01*
X140541024Y-114578928D01*
X140539473Y-114559218D01*
X140539473Y-111142044D01*
X140541024Y-111122334D01*
X140542914Y-111110401D01*
X140544465Y-111100608D01*
X140539473Y-111069089D01*
X140526170Y-110985095D01*
X140526169Y-110985093D01*
X140524619Y-110975304D01*
X140467023Y-110862266D01*
X140377315Y-110772558D01*
X140264277Y-110714962D01*
X140254488Y-110713412D01*
X140254486Y-110713411D01*
X140170492Y-110700108D01*
X140148766Y-110696667D01*
X140138973Y-110695116D01*
X140129180Y-110696667D01*
X140117247Y-110698557D01*
X140097537Y-110700108D01*
X139862939Y-110700108D01*
X139794818Y-110680106D01*
X139748325Y-110626450D01*
X139736939Y-110574108D01*
X139736939Y-106597958D01*
X139756941Y-106529837D01*
X139810597Y-106483344D01*
X139862939Y-106471958D01*
X140016527Y-106471958D01*
X140084648Y-106491960D01*
X140131141Y-106545616D01*
X140142527Y-106597958D01*
X140142527Y-108367972D01*
X140140976Y-108387682D01*
X140137535Y-108409408D01*
X140142527Y-108440927D01*
X140157381Y-108534712D01*
X140214977Y-108647750D01*
X140304685Y-108737458D01*
X140417723Y-108795054D01*
X140427512Y-108796604D01*
X140427514Y-108796605D01*
X140533234Y-108813349D01*
X140543027Y-108814900D01*
X140564753Y-108811459D01*
X140584463Y-108809908D01*
X140839733Y-108809908D01*
X140907854Y-108829910D01*
X140954347Y-108883566D01*
X140965733Y-108935908D01*
X140965733Y-109337420D01*
X140964182Y-109357130D01*
X140960741Y-109378856D01*
X140965733Y-109410375D01*
X140980587Y-109504160D01*
X141038183Y-109617198D01*
X141127891Y-109706906D01*
X141240929Y-109764502D01*
X141250718Y-109766052D01*
X141250720Y-109766053D01*
X141356440Y-109782797D01*
X141366233Y-109784348D01*
X141387959Y-109780907D01*
X141407669Y-109779356D01*
X155295003Y-109779356D01*
X155314713Y-109780907D01*
X155336439Y-109784348D01*
X155346232Y-109782797D01*
X155451952Y-109766053D01*
X155451954Y-109766052D01*
X155461743Y-109764502D01*
X155574781Y-109706906D01*
X155664489Y-109617198D01*
X155722085Y-109504160D01*
X155725152Y-109484800D01*
X155736939Y-109410375D01*
X155740380Y-109388649D01*
X155741931Y-109378856D01*
X155738490Y-109357130D01*
X155736939Y-109337420D01*
X155736939Y-108935904D01*
X155756941Y-108867783D01*
X155810597Y-108821290D01*
X155862939Y-108809904D01*
X156097537Y-108809904D01*
X156117247Y-108811455D01*
X156138973Y-108814896D01*
X156148766Y-108813345D01*
X156254486Y-108796601D01*
X156254488Y-108796600D01*
X156264277Y-108795050D01*
X156377315Y-108737454D01*
X156467023Y-108647746D01*
X156524619Y-108534708D01*
X156539473Y-108440923D01*
X156544465Y-108409404D01*
X156541024Y-108387678D01*
X156539473Y-108367968D01*
X156539473Y-105169212D01*
X156559475Y-105101091D01*
X156613131Y-105054598D01*
X156665473Y-105043212D01*
X156839233Y-105043212D01*
X156907354Y-105063214D01*
X156953847Y-105116870D01*
X156965233Y-105169212D01*
X156965233Y-109145362D01*
X156945231Y-109213483D01*
X156891575Y-109259976D01*
X156839233Y-109271362D01*
X156583963Y-109271362D01*
X156564253Y-109269811D01*
X156552320Y-109267921D01*
X156542527Y-109266370D01*
X156511008Y-109271362D01*
X156417223Y-109286216D01*
X156304185Y-109343812D01*
X156214477Y-109433520D01*
X156156881Y-109546558D01*
X156155331Y-109556347D01*
X156155330Y-109556349D01*
X156144805Y-109622804D01*
X156137035Y-109671862D01*
X156138586Y-109681655D01*
X156140476Y-109693588D01*
X156142027Y-109713298D01*
X156142027Y-113130472D01*
X156140476Y-113150182D01*
X156137035Y-113171908D01*
X156142027Y-113203427D01*
X156156881Y-113297212D01*
X156214477Y-113410250D01*
X156304185Y-113499958D01*
X156417223Y-113557554D01*
X156427012Y-113559104D01*
X156427014Y-113559105D01*
X156532734Y-113575849D01*
X156542527Y-113577400D01*
X156564253Y-113573959D01*
X156583963Y-113572408D01*
X156839233Y-113572408D01*
X156907354Y-113592410D01*
X156953847Y-113646066D01*
X156965233Y-113698408D01*
X156965233Y-114099920D01*
X156963682Y-114119630D01*
X156960241Y-114141356D01*
X156965233Y-114172875D01*
X156980087Y-114266660D01*
X157037683Y-114379698D01*
X157127391Y-114469406D01*
X157240429Y-114527002D01*
X157250218Y-114528552D01*
X157250220Y-114528553D01*
X157355940Y-114545297D01*
X157365733Y-114546848D01*
X157387459Y-114543407D01*
X157407169Y-114541856D01*
X171294503Y-114541856D01*
X171314213Y-114543407D01*
X171335939Y-114546848D01*
X171345732Y-114545297D01*
X171451452Y-114528553D01*
X171451454Y-114528552D01*
X171461243Y-114527002D01*
X171574281Y-114469406D01*
X171663989Y-114379698D01*
X171721585Y-114266660D01*
X171732119Y-114200154D01*
X171736439Y-114172875D01*
X171739880Y-114151149D01*
X171741431Y-114141356D01*
X171737990Y-114119630D01*
X171736439Y-114099920D01*
X171736439Y-113698404D01*
X171756441Y-113630283D01*
X171810097Y-113583790D01*
X171862439Y-113572404D01*
X172097037Y-113572404D01*
X172116747Y-113573955D01*
X172138473Y-113577396D01*
X172148266Y-113575845D01*
X172253986Y-113559101D01*
X172253988Y-113559100D01*
X172263777Y-113557550D01*
X172376815Y-113499954D01*
X172466523Y-113410246D01*
X172524119Y-113297208D01*
X172538973Y-113203423D01*
X172543965Y-113171904D01*
X172540524Y-113150178D01*
X172538973Y-113130468D01*
X172538973Y-109772962D01*
X172558975Y-109704841D01*
X172612631Y-109658348D01*
X172664973Y-109646962D01*
X172838733Y-109646962D01*
X172906854Y-109666964D01*
X172953347Y-109720620D01*
X172964733Y-109772962D01*
X172964733Y-113749112D01*
X172944731Y-113817233D01*
X172891075Y-113863726D01*
X172838733Y-113875112D01*
X172583463Y-113875112D01*
X172563753Y-113873561D01*
X172551820Y-113871671D01*
X172542027Y-113870120D01*
X172510508Y-113875112D01*
X172416723Y-113889966D01*
X172303685Y-113947562D01*
X172213977Y-114037270D01*
X172156381Y-114150308D01*
X172154831Y-114160095D01*
X172154830Y-114160099D01*
X172146133Y-114215012D01*
X172136535Y-114275612D01*
X172138086Y-114285405D01*
X172139976Y-114297338D01*
X172141527Y-114317048D01*
X172141527Y-117734222D01*
X172139976Y-117753932D01*
X172136535Y-117775658D01*
X172141527Y-117807177D01*
X172156381Y-117900962D01*
X172213977Y-118014000D01*
X172303685Y-118103708D01*
X172416723Y-118161304D01*
X172426512Y-118162854D01*
X172426514Y-118162855D01*
X172532234Y-118179599D01*
X172542027Y-118181150D01*
X172563753Y-118177709D01*
X172583463Y-118176158D01*
X172838733Y-118176158D01*
X172906854Y-118196160D01*
X172953347Y-118249816D01*
X172964733Y-118302158D01*
X172964733Y-118703670D01*
X172963182Y-118723380D01*
X172959741Y-118745106D01*
X172964733Y-118776625D01*
X172979587Y-118870410D01*
X173037183Y-118983448D01*
X173126891Y-119073156D01*
X173239929Y-119130752D01*
X173249718Y-119132302D01*
X173249720Y-119132303D01*
X173355440Y-119149047D01*
X173365233Y-119150598D01*
X173386959Y-119147157D01*
X173406669Y-119145606D01*
X187294003Y-119145606D01*
X187313713Y-119147157D01*
X187335439Y-119150598D01*
X187345232Y-119149047D01*
X187450952Y-119132303D01*
X187450954Y-119132302D01*
X187460743Y-119130752D01*
X187573781Y-119073156D01*
X187663489Y-118983448D01*
X187721085Y-118870410D01*
X187735939Y-118776625D01*
X187740931Y-118745106D01*
X187737490Y-118723380D01*
X187735939Y-118703670D01*
X187735939Y-118302154D01*
X187755941Y-118234033D01*
X187809597Y-118187540D01*
X187861939Y-118176154D01*
X188096537Y-118176154D01*
X188116247Y-118177705D01*
X188137973Y-118181146D01*
X188147766Y-118179595D01*
X188253486Y-118162851D01*
X188253488Y-118162850D01*
X188263277Y-118161300D01*
X188376315Y-118103704D01*
X188466023Y-118013996D01*
X188523619Y-117900958D01*
X188538473Y-117807173D01*
X188543465Y-117775654D01*
X188540024Y-117753928D01*
X188538473Y-117734218D01*
X188538473Y-115000000D01*
X194794508Y-115000000D01*
X194799500Y-115031519D01*
X194814354Y-115125304D01*
X194871950Y-115238342D01*
X194961658Y-115328050D01*
X195074696Y-115385646D01*
X195084485Y-115387196D01*
X195084487Y-115387197D01*
X195190207Y-115403941D01*
X195200000Y-115405492D01*
X195221726Y-115402051D01*
X195241436Y-115400500D01*
X206558564Y-115400500D01*
X206578274Y-115402051D01*
X206600000Y-115405492D01*
X206609793Y-115403941D01*
X206715513Y-115387197D01*
X206715515Y-115387196D01*
X206725304Y-115385646D01*
X206838342Y-115328050D01*
X206928050Y-115238342D01*
X206985646Y-115125304D01*
X206993643Y-115074816D01*
X207000500Y-115031519D01*
X207003941Y-115009793D01*
X207005492Y-115000000D01*
X207002051Y-114978274D01*
X207000500Y-114958564D01*
X207000500Y-113041436D01*
X207002051Y-113021726D01*
X207003941Y-113009793D01*
X207005492Y-113000000D01*
X207003941Y-112990207D01*
X206987197Y-112884487D01*
X206987196Y-112884485D01*
X206985646Y-112874696D01*
X206928050Y-112761658D01*
X206838342Y-112671950D01*
X206725304Y-112614354D01*
X206715515Y-112612804D01*
X206715513Y-112612803D01*
X206631519Y-112599500D01*
X206609793Y-112596059D01*
X206600000Y-112594508D01*
X206590207Y-112596059D01*
X206578274Y-112597949D01*
X206558564Y-112599500D01*
X195241436Y-112599500D01*
X195221726Y-112597949D01*
X195209793Y-112596059D01*
X195200000Y-112594508D01*
X195168481Y-112599500D01*
X195074696Y-112614354D01*
X194961658Y-112671950D01*
X194871950Y-112761658D01*
X194814354Y-112874696D01*
X194812804Y-112884485D01*
X194812803Y-112884487D01*
X194796059Y-112990207D01*
X194794508Y-113000000D01*
X194796059Y-113009793D01*
X194797949Y-113021726D01*
X194799500Y-113041436D01*
X194799500Y-114958564D01*
X194797949Y-114978274D01*
X194794508Y-115000000D01*
X188538473Y-115000000D01*
X188538473Y-114317044D01*
X188540024Y-114297334D01*
X188541914Y-114285401D01*
X188543465Y-114275608D01*
X188531515Y-114200158D01*
X188525170Y-114160095D01*
X188525169Y-114160093D01*
X188523619Y-114150304D01*
X188466023Y-114037266D01*
X188376315Y-113947558D01*
X188263277Y-113889962D01*
X188253488Y-113888412D01*
X188253486Y-113888411D01*
X188169492Y-113875108D01*
X188147766Y-113871667D01*
X188137973Y-113870116D01*
X188128180Y-113871667D01*
X188116247Y-113873557D01*
X188096537Y-113875108D01*
X187861939Y-113875108D01*
X187793818Y-113855106D01*
X187747325Y-113801450D01*
X187735939Y-113749108D01*
X187735939Y-109772958D01*
X187755941Y-109704837D01*
X187809597Y-109658344D01*
X187861939Y-109646958D01*
X188096537Y-109646958D01*
X188116247Y-109648509D01*
X188137973Y-109651950D01*
X188156347Y-109649040D01*
X188196692Y-109642650D01*
X188228210Y-109637658D01*
X188263277Y-109632104D01*
X188376315Y-109574508D01*
X188466023Y-109484800D01*
X188523619Y-109371762D01*
X188525937Y-109357130D01*
X188541914Y-109256251D01*
X188543465Y-109246458D01*
X188540024Y-109224732D01*
X188538473Y-109205022D01*
X188538473Y-105787849D01*
X188540024Y-105768139D01*
X188541914Y-105756206D01*
X188543465Y-105746413D01*
X188533868Y-105685816D01*
X188523619Y-105621109D01*
X188466023Y-105508071D01*
X188376315Y-105418363D01*
X188263277Y-105360767D01*
X188253488Y-105359217D01*
X188253486Y-105359216D01*
X188147766Y-105342472D01*
X188137973Y-105340921D01*
X188128180Y-105342472D01*
X188116247Y-105344362D01*
X188096537Y-105345913D01*
X187861939Y-105345913D01*
X187793818Y-105325911D01*
X187747325Y-105272255D01*
X187735939Y-105219913D01*
X187735939Y-104816331D01*
X187737490Y-104796621D01*
X187739380Y-104784688D01*
X187740931Y-104774895D01*
X187724987Y-104674227D01*
X187722636Y-104659382D01*
X187722635Y-104659380D01*
X187721085Y-104649591D01*
X187663489Y-104536553D01*
X187573781Y-104446845D01*
X187460743Y-104389249D01*
X187450954Y-104387699D01*
X187450952Y-104387698D01*
X187366958Y-104374395D01*
X187345232Y-104370954D01*
X187335439Y-104369403D01*
X187325646Y-104370954D01*
X187313713Y-104372844D01*
X187294003Y-104374395D01*
X180350686Y-104374397D01*
X173406669Y-104374399D01*
X173386958Y-104372848D01*
X173386933Y-104372844D01*
X173365233Y-104369407D01*
X173333714Y-104374399D01*
X173239929Y-104389253D01*
X173126891Y-104446849D01*
X173037183Y-104536557D01*
X172979587Y-104649595D01*
X172978037Y-104659382D01*
X172978036Y-104659386D01*
X172961293Y-104765102D01*
X172959741Y-104774899D01*
X172961292Y-104784692D01*
X172963182Y-104796625D01*
X172964733Y-104816335D01*
X172964733Y-105219916D01*
X172944731Y-105288037D01*
X172891075Y-105334530D01*
X172838733Y-105345916D01*
X172583463Y-105345916D01*
X172563753Y-105344365D01*
X172551820Y-105342475D01*
X172542027Y-105340924D01*
X172510508Y-105345916D01*
X172416742Y-105360767D01*
X172416723Y-105360770D01*
X172303685Y-105418366D01*
X172213977Y-105508074D01*
X172170771Y-105592870D01*
X172161122Y-105611808D01*
X172156381Y-105621112D01*
X172154831Y-105630901D01*
X172154830Y-105630904D01*
X172141528Y-105714894D01*
X172141527Y-105714894D01*
X172141528Y-105714896D01*
X172136535Y-105746416D01*
X172138086Y-105756206D01*
X172138086Y-105756209D01*
X172139976Y-105768140D01*
X172141527Y-105787852D01*
X172141527Y-109145358D01*
X172121525Y-109213479D01*
X172067869Y-109259972D01*
X172015527Y-109271358D01*
X171862439Y-109271358D01*
X171794318Y-109251356D01*
X171747825Y-109197700D01*
X171736439Y-109145358D01*
X171736439Y-105169208D01*
X171756441Y-105101087D01*
X171810097Y-105054594D01*
X171862439Y-105043208D01*
X172097037Y-105043208D01*
X172116747Y-105044759D01*
X172138473Y-105048200D01*
X172223950Y-105034662D01*
X172263777Y-105028354D01*
X172376815Y-104970758D01*
X172466523Y-104881050D01*
X172524119Y-104768012D01*
X172541324Y-104659386D01*
X172542414Y-104652501D01*
X172543965Y-104642708D01*
X172540524Y-104620982D01*
X172538973Y-104601272D01*
X172538973Y-102301908D01*
X172558975Y-102233787D01*
X172612631Y-102187294D01*
X172664973Y-102175908D01*
X172838733Y-102175908D01*
X172906854Y-102195910D01*
X172953347Y-102249566D01*
X172964733Y-102301908D01*
X172964733Y-102703420D01*
X172963182Y-102723130D01*
X172959741Y-102744856D01*
X172964733Y-102776375D01*
X172979587Y-102870160D01*
X173037183Y-102983198D01*
X173126891Y-103072906D01*
X173239929Y-103130502D01*
X173249718Y-103132052D01*
X173249720Y-103132053D01*
X173355440Y-103148797D01*
X173365233Y-103150348D01*
X173386959Y-103146907D01*
X173406669Y-103145356D01*
X187294003Y-103145356D01*
X187313713Y-103146907D01*
X187335439Y-103150348D01*
X187345232Y-103148797D01*
X187450952Y-103132053D01*
X187450954Y-103132052D01*
X187460743Y-103130502D01*
X187573781Y-103072906D01*
X187663489Y-102983198D01*
X187721085Y-102870160D01*
X187735939Y-102776375D01*
X187740931Y-102744856D01*
X187737490Y-102723130D01*
X187735939Y-102703420D01*
X187735939Y-102301904D01*
X187755941Y-102233783D01*
X187809597Y-102187290D01*
X187861939Y-102175904D01*
X188096537Y-102175904D01*
X188116247Y-102177455D01*
X188137973Y-102180896D01*
X188169467Y-102175908D01*
X188232504Y-102165924D01*
X188253484Y-102162601D01*
X188263277Y-102161050D01*
X188376315Y-102103454D01*
X188466023Y-102013746D01*
X188523619Y-101900708D01*
X188543465Y-101775404D01*
X188540024Y-101753678D01*
X188538473Y-101733968D01*
X188538473Y-98316794D01*
X188540024Y-98297084D01*
X188541914Y-98285151D01*
X188543465Y-98275358D01*
X188530764Y-98195166D01*
X188525170Y-98159845D01*
X188525169Y-98159843D01*
X188523619Y-98150054D01*
X188466023Y-98037016D01*
X188376315Y-97947308D01*
X188263277Y-97889712D01*
X188253488Y-97888162D01*
X188253486Y-97888161D01*
X188169492Y-97874858D01*
X188147766Y-97871417D01*
X188137973Y-97869866D01*
X188128180Y-97871417D01*
X188116247Y-97873307D01*
X188096537Y-97874858D01*
X187861939Y-97874858D01*
X187793818Y-97854856D01*
X187747325Y-97801200D01*
X187735939Y-97748858D01*
X187735939Y-93772708D01*
X187755941Y-93704587D01*
X187809597Y-93658094D01*
X187861939Y-93646708D01*
X188096537Y-93646708D01*
X188116247Y-93648259D01*
X188137973Y-93651700D01*
X188195139Y-93642646D01*
X188263277Y-93631854D01*
X188278003Y-93624351D01*
X188292041Y-93617198D01*
X188376315Y-93574258D01*
X188466023Y-93484550D01*
X188523619Y-93371512D01*
X188526604Y-93352669D01*
X188541914Y-93256001D01*
X188543465Y-93246208D01*
X188540024Y-93224482D01*
X188538473Y-93204772D01*
X188538473Y-89787599D01*
X188540024Y-89767889D01*
X188541914Y-89755956D01*
X188543465Y-89746163D01*
X188538473Y-89714644D01*
X188525170Y-89630650D01*
X188525169Y-89630648D01*
X188523619Y-89620859D01*
X188466023Y-89507821D01*
X188376315Y-89418113D01*
X188263277Y-89360517D01*
X188253488Y-89358967D01*
X188253486Y-89358966D01*
X188169492Y-89345663D01*
X188147766Y-89342222D01*
X188137973Y-89340671D01*
X188128180Y-89342222D01*
X188116247Y-89344112D01*
X188096537Y-89345663D01*
X187861939Y-89345663D01*
X187793818Y-89325661D01*
X187747325Y-89272005D01*
X187735939Y-89219663D01*
X187735939Y-88816081D01*
X187737490Y-88796371D01*
X187739380Y-88784438D01*
X187740931Y-88774645D01*
X187723408Y-88664009D01*
X187722636Y-88659132D01*
X187722635Y-88659130D01*
X187721085Y-88649341D01*
X187663489Y-88536303D01*
X187573781Y-88446595D01*
X187460743Y-88388999D01*
X187450954Y-88387449D01*
X187450952Y-88387448D01*
X187366958Y-88374145D01*
X187345232Y-88370704D01*
X187335439Y-88369153D01*
X187325646Y-88370704D01*
X187313713Y-88372594D01*
X187294003Y-88374145D01*
X180350686Y-88374147D01*
X173406669Y-88374149D01*
X173386958Y-88372598D01*
X173386933Y-88372594D01*
X173365233Y-88369157D01*
X173333714Y-88374149D01*
X173239929Y-88389003D01*
X173126891Y-88446599D01*
X173037183Y-88536307D01*
X172979587Y-88649345D01*
X172959741Y-88774649D01*
X172961292Y-88784442D01*
X172963182Y-88796375D01*
X172964733Y-88816085D01*
X172964733Y-89219666D01*
X172944731Y-89287787D01*
X172891075Y-89334280D01*
X172838733Y-89345666D01*
X172583463Y-89345666D01*
X172563753Y-89344115D01*
X172551820Y-89342225D01*
X172542027Y-89340674D01*
X172510508Y-89345666D01*
X172473888Y-89351466D01*
X172416723Y-89360520D01*
X172303685Y-89418116D01*
X172213977Y-89507824D01*
X172156381Y-89620862D01*
X172154831Y-89630650D01*
X172154830Y-89630654D01*
X172141528Y-89714644D01*
X172141527Y-89714644D01*
X172141528Y-89714646D01*
X172136535Y-89746166D01*
X172138086Y-89755956D01*
X172138086Y-89755959D01*
X172139976Y-89767890D01*
X172141527Y-89787602D01*
X172141527Y-93145358D01*
X172121525Y-93213479D01*
X172067869Y-93259972D01*
X172015527Y-93271358D01*
X171862439Y-93271358D01*
X171794318Y-93251356D01*
X171747825Y-93197700D01*
X171736439Y-93145358D01*
X171736439Y-89169208D01*
X171756441Y-89101087D01*
X171810097Y-89054594D01*
X171862439Y-89043208D01*
X172097037Y-89043208D01*
X172116747Y-89044759D01*
X172138473Y-89048200D01*
X172223950Y-89034662D01*
X172263777Y-89028354D01*
X172376815Y-88970758D01*
X172466523Y-88881050D01*
X172524119Y-88768012D01*
X172543965Y-88642708D01*
X172540524Y-88620982D01*
X172538973Y-88601272D01*
X172538973Y-86301908D01*
X172558975Y-86233787D01*
X172612631Y-86187294D01*
X172664973Y-86175908D01*
X172838733Y-86175908D01*
X172906854Y-86195910D01*
X172953347Y-86249566D01*
X172964733Y-86301908D01*
X172964733Y-86703420D01*
X172963182Y-86723130D01*
X172959741Y-86744856D01*
X172964733Y-86776375D01*
X172979587Y-86870160D01*
X173037183Y-86983198D01*
X173126891Y-87072906D01*
X173239929Y-87130502D01*
X173249718Y-87132052D01*
X173249720Y-87132053D01*
X173355440Y-87148797D01*
X173365233Y-87150348D01*
X173386959Y-87146907D01*
X173406669Y-87145356D01*
X187294003Y-87145356D01*
X187313713Y-87146907D01*
X187335439Y-87150348D01*
X187345232Y-87148797D01*
X187450952Y-87132053D01*
X187450954Y-87132052D01*
X187460743Y-87130502D01*
X187573781Y-87072906D01*
X187663489Y-86983198D01*
X187721085Y-86870160D01*
X187735939Y-86776375D01*
X187740931Y-86744856D01*
X187737490Y-86723130D01*
X187735939Y-86703420D01*
X187735939Y-86301904D01*
X187755941Y-86233783D01*
X187809597Y-86187290D01*
X187861939Y-86175904D01*
X188096537Y-86175904D01*
X188116247Y-86177455D01*
X188137973Y-86180896D01*
X188169467Y-86175908D01*
X188232504Y-86165924D01*
X188253484Y-86162601D01*
X188263277Y-86161050D01*
X188376315Y-86103454D01*
X188466023Y-86013746D01*
X188523619Y-85900708D01*
X188543465Y-85775404D01*
X188540024Y-85753678D01*
X188538473Y-85733968D01*
X188538473Y-82316794D01*
X188540024Y-82297084D01*
X188541914Y-82285151D01*
X188543465Y-82275358D01*
X188530764Y-82195166D01*
X188525170Y-82159845D01*
X188525169Y-82159843D01*
X188523619Y-82150054D01*
X188466023Y-82037016D01*
X188376315Y-81947308D01*
X188263277Y-81889712D01*
X188253488Y-81888162D01*
X188253486Y-81888161D01*
X188169492Y-81874858D01*
X188147766Y-81871417D01*
X188137973Y-81869866D01*
X188128180Y-81871417D01*
X188116247Y-81873307D01*
X188096537Y-81874858D01*
X187861939Y-81874858D01*
X187793818Y-81854856D01*
X187747325Y-81801200D01*
X187735939Y-81748858D01*
X187735939Y-77772708D01*
X187755941Y-77704587D01*
X187809597Y-77658094D01*
X187861939Y-77646708D01*
X188096537Y-77646708D01*
X188116247Y-77648259D01*
X188137973Y-77651700D01*
X188209705Y-77640339D01*
X188263277Y-77631854D01*
X188376315Y-77574258D01*
X188466023Y-77484550D01*
X188523619Y-77371512D01*
X188537129Y-77286216D01*
X188541914Y-77256001D01*
X188543465Y-77246208D01*
X188540024Y-77224482D01*
X188538473Y-77204772D01*
X188538473Y-73787599D01*
X188540024Y-73767889D01*
X188541914Y-73755956D01*
X188543465Y-73746163D01*
X188533907Y-73685816D01*
X188525170Y-73630650D01*
X188525169Y-73630648D01*
X188523619Y-73620859D01*
X188466023Y-73507821D01*
X188376315Y-73418113D01*
X188263277Y-73360517D01*
X188253488Y-73358967D01*
X188253486Y-73358966D01*
X188169492Y-73345663D01*
X188147766Y-73342222D01*
X188137973Y-73340671D01*
X188128180Y-73342222D01*
X188116247Y-73344112D01*
X188096537Y-73345663D01*
X187861939Y-73345663D01*
X187793818Y-73325661D01*
X187747325Y-73272005D01*
X187735939Y-73219663D01*
X187735939Y-72816081D01*
X187737490Y-72796371D01*
X187739380Y-72784438D01*
X187740931Y-72774645D01*
X187723408Y-72664009D01*
X187722636Y-72659132D01*
X187722635Y-72659130D01*
X187721085Y-72649341D01*
X187663489Y-72536303D01*
X187573781Y-72446595D01*
X187460743Y-72388999D01*
X187450954Y-72387449D01*
X187450952Y-72387448D01*
X187366958Y-72374145D01*
X187345232Y-72370704D01*
X187335439Y-72369153D01*
X187325646Y-72370704D01*
X187313713Y-72372594D01*
X187294003Y-72374145D01*
X180350686Y-72374147D01*
X173406669Y-72374149D01*
X173386958Y-72372598D01*
X173386933Y-72372594D01*
X173365233Y-72369157D01*
X173333714Y-72374149D01*
X173239929Y-72389003D01*
X173126891Y-72446599D01*
X173037183Y-72536307D01*
X172979587Y-72649345D01*
X172959741Y-72774649D01*
X172961292Y-72784442D01*
X172963182Y-72796375D01*
X172964733Y-72816085D01*
X172964733Y-73219666D01*
X172944731Y-73287787D01*
X172891075Y-73334280D01*
X172838733Y-73345666D01*
X172583463Y-73345666D01*
X172563753Y-73344115D01*
X172551820Y-73342225D01*
X172542027Y-73340674D01*
X172532234Y-73342225D01*
X172426514Y-73358969D01*
X172426512Y-73358970D01*
X172416723Y-73360520D01*
X172303685Y-73418116D01*
X172213977Y-73507824D01*
X172156381Y-73620862D01*
X172154831Y-73630650D01*
X172154830Y-73630654D01*
X172141528Y-73714644D01*
X172141527Y-73714644D01*
X172141528Y-73714646D01*
X172136535Y-73746166D01*
X172138086Y-73755956D01*
X172138086Y-73755959D01*
X172139976Y-73767890D01*
X172141527Y-73787602D01*
X172141527Y-77145358D01*
X172121525Y-77213479D01*
X172067869Y-77259972D01*
X172015527Y-77271358D01*
X171862439Y-77271358D01*
X171794318Y-77251356D01*
X171747825Y-77197700D01*
X171736439Y-77145358D01*
X171736439Y-73169208D01*
X171756441Y-73101087D01*
X171810097Y-73054594D01*
X171862439Y-73043208D01*
X172097037Y-73043208D01*
X172116747Y-73044759D01*
X172138473Y-73048200D01*
X172223950Y-73034662D01*
X172263777Y-73028354D01*
X172376815Y-72970758D01*
X172466523Y-72881050D01*
X172524119Y-72768012D01*
X172543965Y-72642708D01*
X172540524Y-72620982D01*
X172538973Y-72601272D01*
X172538973Y-69184099D01*
X172540524Y-69164389D01*
X172542414Y-69152456D01*
X172543965Y-69142663D01*
X172538973Y-69111144D01*
X172525670Y-69027150D01*
X172525669Y-69027148D01*
X172524119Y-69017359D01*
X172466523Y-68904321D01*
X172376815Y-68814613D01*
X172263777Y-68757017D01*
X172253988Y-68755467D01*
X172253986Y-68755466D01*
X172169992Y-68742163D01*
X172148266Y-68738722D01*
X172138473Y-68737171D01*
X172128680Y-68738722D01*
X172116747Y-68740612D01*
X172097037Y-68742163D01*
X171862439Y-68742163D01*
X171794318Y-68722161D01*
X171747825Y-68668505D01*
X171736439Y-68616163D01*
X171736439Y-68212581D01*
X171737990Y-68192871D01*
X171739880Y-68180938D01*
X171741431Y-68171145D01*
X171733102Y-68118554D01*
X171721585Y-68045841D01*
X171663989Y-67932803D01*
X171574281Y-67843095D01*
X171461243Y-67785499D01*
X171451454Y-67783949D01*
X171451452Y-67783948D01*
X171345732Y-67767204D01*
X171335939Y-67765653D01*
X171326146Y-67767204D01*
X171314213Y-67769094D01*
X171294503Y-67770645D01*
X164351186Y-67770647D01*
X157407169Y-67770649D01*
X157387458Y-67769098D01*
X157387433Y-67769094D01*
X157365733Y-67765657D01*
X157334214Y-67770649D01*
X157240429Y-67785503D01*
X157127391Y-67843099D01*
X157037683Y-67932807D01*
X156980087Y-68045845D01*
X156960241Y-68171149D01*
X156961792Y-68180942D01*
X156963682Y-68192875D01*
X156965233Y-68212585D01*
X156965233Y-68616166D01*
X156945231Y-68684287D01*
X156891575Y-68730780D01*
X156839233Y-68742166D01*
X156583963Y-68742166D01*
X156564253Y-68740615D01*
X156552320Y-68738725D01*
X156542527Y-68737174D01*
X156532734Y-68738725D01*
X156427014Y-68755469D01*
X156427012Y-68755470D01*
X156417223Y-68757020D01*
X156304185Y-68814616D01*
X156214477Y-68904324D01*
X156156881Y-69017362D01*
X156155331Y-69027150D01*
X156155330Y-69027154D01*
X156142028Y-69111144D01*
X156142027Y-69111144D01*
X156142028Y-69111146D01*
X156137035Y-69142666D01*
X156138586Y-69152456D01*
X156138586Y-69152459D01*
X156140476Y-69164390D01*
X156142027Y-69184102D01*
X156142027Y-72382858D01*
X156122025Y-72450979D01*
X156068369Y-72497472D01*
X156016027Y-72508858D01*
X155862939Y-72508858D01*
X155794818Y-72488856D01*
X155748325Y-72435200D01*
X155736939Y-72382858D01*
X155736939Y-68406708D01*
X155756941Y-68338587D01*
X155810597Y-68292094D01*
X155862939Y-68280708D01*
X156097537Y-68280708D01*
X156117247Y-68282259D01*
X156138973Y-68285700D01*
X156148766Y-68284149D01*
X156254486Y-68267405D01*
X156254488Y-68267404D01*
X156264277Y-68265854D01*
X156377315Y-68208258D01*
X156467023Y-68118550D01*
X156524619Y-68005512D01*
X156539473Y-67911727D01*
X156544465Y-67880208D01*
X156541024Y-67858482D01*
X156539473Y-67838772D01*
X156539473Y-64421599D01*
X156541024Y-64401889D01*
X156542914Y-64389956D01*
X156544465Y-64380163D01*
X156539473Y-64348644D01*
X156526170Y-64264650D01*
X156526169Y-64264648D01*
X156524619Y-64254859D01*
X156467023Y-64141821D01*
X156377315Y-64052113D01*
X156264277Y-63994517D01*
X156254488Y-63992967D01*
X156254486Y-63992966D01*
X156170492Y-63979663D01*
X156148766Y-63976222D01*
X156138973Y-63974671D01*
X156129180Y-63976222D01*
X156117247Y-63978112D01*
X156097537Y-63979663D01*
X155862939Y-63979663D01*
X155794818Y-63959661D01*
X155748325Y-63906005D01*
X155736939Y-63853663D01*
X155736939Y-63450081D01*
X155738490Y-63430371D01*
X155740380Y-63418438D01*
X155741931Y-63408645D01*
X155740380Y-63398852D01*
X155723636Y-63293132D01*
X155723635Y-63293130D01*
X155722085Y-63283341D01*
X155664489Y-63170303D01*
X155574781Y-63080595D01*
X155461743Y-63022999D01*
X155451954Y-63021449D01*
X155451952Y-63021448D01*
X155367958Y-63008145D01*
X155346232Y-63004704D01*
X155336439Y-63003153D01*
X155326646Y-63004704D01*
X155314713Y-63006594D01*
X155295003Y-63008145D01*
X148351686Y-63008147D01*
X141407669Y-63008149D01*
X141387958Y-63006598D01*
X141387933Y-63006594D01*
X141366233Y-63003157D01*
X141334714Y-63008149D01*
X141240929Y-63023003D01*
X141127891Y-63080599D01*
X141038183Y-63170307D01*
X140980587Y-63283345D01*
X140960741Y-63408649D01*
X140962292Y-63418442D01*
X140964182Y-63430375D01*
X140965733Y-63450085D01*
X140965733Y-63853666D01*
X140945731Y-63921787D01*
X140892075Y-63968280D01*
X140839733Y-63979666D01*
X140584463Y-63979666D01*
X140564753Y-63978115D01*
X140552820Y-63976225D01*
X140543027Y-63974674D01*
X140533234Y-63976225D01*
X140427514Y-63992969D01*
X140427512Y-63992970D01*
X140417723Y-63994520D01*
X140304685Y-64052116D01*
X140214977Y-64141824D01*
X140157381Y-64254862D01*
X140155831Y-64264650D01*
X140155830Y-64264654D01*
X140142528Y-64348644D01*
X140142527Y-64348644D01*
X140142528Y-64348646D01*
X140137535Y-64380166D01*
X140139086Y-64389956D01*
X140139086Y-64389959D01*
X140140976Y-64401890D01*
X140142527Y-64421602D01*
X140142527Y-67838776D01*
X140140976Y-67858486D01*
X140137535Y-67880212D01*
X140142527Y-67911731D01*
X140157381Y-68005516D01*
X140214977Y-68118554D01*
X140304685Y-68208262D01*
X140417723Y-68265858D01*
X140427512Y-68267408D01*
X140427514Y-68267409D01*
X140533234Y-68284153D01*
X140543027Y-68285704D01*
X140564753Y-68282263D01*
X140584463Y-68280712D01*
X140839733Y-68280712D01*
X140907854Y-68300714D01*
X140954347Y-68354370D01*
X140965733Y-68406712D01*
X140965733Y-72382862D01*
X140945731Y-72450983D01*
X140892075Y-72497476D01*
X140839733Y-72508862D01*
X140584463Y-72508862D01*
X140564753Y-72507311D01*
X140552820Y-72505421D01*
X140543027Y-72503870D01*
X140511508Y-72508862D01*
X140417723Y-72523716D01*
X140408890Y-72528217D01*
X140408889Y-72528217D01*
X140393020Y-72536303D01*
X140304685Y-72581312D01*
X140214977Y-72671020D01*
X140157381Y-72784058D01*
X140137535Y-72909362D01*
X140139086Y-72919155D01*
X140140976Y-72931088D01*
X140142527Y-72950798D01*
X140142527Y-76367972D01*
X140140976Y-76387682D01*
X140137535Y-76409408D01*
X140142527Y-76440927D01*
X140157381Y-76534712D01*
X140214977Y-76647750D01*
X140304685Y-76737458D01*
X140417723Y-76795054D01*
X140427512Y-76796604D01*
X140427514Y-76796605D01*
X140533234Y-76813349D01*
X140543027Y-76814900D01*
X140564753Y-76811459D01*
X140584463Y-76809908D01*
X140839733Y-76809908D01*
X140907854Y-76829910D01*
X140954347Y-76883566D01*
X140965733Y-76935908D01*
X140965733Y-77337420D01*
X140964182Y-77357130D01*
X140960741Y-77378856D01*
X140965733Y-77410375D01*
X140980587Y-77504160D01*
X141038183Y-77617198D01*
X141127891Y-77706906D01*
X141240929Y-77764502D01*
X141250718Y-77766052D01*
X141250720Y-77766053D01*
X141356440Y-77782797D01*
X141366233Y-77784348D01*
X141387959Y-77780907D01*
X141407669Y-77779356D01*
X155295003Y-77779356D01*
X155314713Y-77780907D01*
X155336439Y-77784348D01*
X155346232Y-77782797D01*
X155451952Y-77766053D01*
X155451954Y-77766052D01*
X155461743Y-77764502D01*
X155574781Y-77706906D01*
X155664489Y-77617198D01*
X155722085Y-77504160D01*
X155724081Y-77491561D01*
X155736939Y-77410375D01*
X155740380Y-77388649D01*
X155741931Y-77378856D01*
X155738490Y-77357130D01*
X155736939Y-77337420D01*
X155736939Y-76935904D01*
X155756941Y-76867783D01*
X155810597Y-76821290D01*
X155862939Y-76809904D01*
X156097537Y-76809904D01*
X156117247Y-76811455D01*
X156138973Y-76814896D01*
X156148766Y-76813345D01*
X156254486Y-76796601D01*
X156254488Y-76796600D01*
X156264277Y-76795050D01*
X156377315Y-76737454D01*
X156467023Y-76647746D01*
X156524619Y-76534708D01*
X156539473Y-76440923D01*
X156544465Y-76409404D01*
X156541024Y-76387678D01*
X156539473Y-76367968D01*
X156539473Y-73169212D01*
X156559475Y-73101091D01*
X156613131Y-73054598D01*
X156665473Y-73043212D01*
X156839233Y-73043212D01*
X156907354Y-73063214D01*
X156953847Y-73116870D01*
X156965233Y-73169212D01*
X156965233Y-77145362D01*
X156945231Y-77213483D01*
X156891575Y-77259976D01*
X156839233Y-77271362D01*
X156583963Y-77271362D01*
X156564253Y-77269811D01*
X156552320Y-77267921D01*
X156542527Y-77266370D01*
X156511008Y-77271362D01*
X156417223Y-77286216D01*
X156304185Y-77343812D01*
X156214477Y-77433520D01*
X156156881Y-77546558D01*
X156155331Y-77556347D01*
X156155330Y-77556349D01*
X156143126Y-77633405D01*
X156137035Y-77671862D01*
X156138586Y-77681655D01*
X156140476Y-77693588D01*
X156142027Y-77713298D01*
X156142027Y-79853663D01*
X156122025Y-79921784D01*
X156068369Y-79968277D01*
X156016027Y-79979663D01*
X155862939Y-79979663D01*
X155794818Y-79959661D01*
X155748325Y-79906005D01*
X155736939Y-79853663D01*
X155736939Y-79450081D01*
X155738490Y-79430371D01*
X155740380Y-79418438D01*
X155741931Y-79408645D01*
X155730893Y-79338950D01*
X155723636Y-79293132D01*
X155723635Y-79293130D01*
X155722085Y-79283341D01*
X155664489Y-79170303D01*
X155574781Y-79080595D01*
X155461743Y-79022999D01*
X155451954Y-79021449D01*
X155451952Y-79021448D01*
X155367958Y-79008145D01*
X155346232Y-79004704D01*
X155336439Y-79003153D01*
X155326646Y-79004704D01*
X155314713Y-79006594D01*
X155295003Y-79008145D01*
X148351686Y-79008147D01*
X141407669Y-79008149D01*
X141387958Y-79006598D01*
X141387933Y-79006594D01*
X141366233Y-79003157D01*
X141334714Y-79008149D01*
X141240929Y-79023003D01*
X141127891Y-79080599D01*
X141038183Y-79170307D01*
X140980587Y-79283345D01*
X140960741Y-79408649D01*
X140962292Y-79418442D01*
X140964182Y-79430375D01*
X140965733Y-79450085D01*
X140965733Y-79853666D01*
X140945731Y-79921787D01*
X140892075Y-79968280D01*
X140839733Y-79979666D01*
X140584463Y-79979666D01*
X140564753Y-79978115D01*
X140552820Y-79976225D01*
X140543027Y-79974674D01*
X140533234Y-79976225D01*
X140427514Y-79992969D01*
X140427512Y-79992970D01*
X140417723Y-79994520D01*
X140304685Y-80052116D01*
X140214977Y-80141824D01*
X140157381Y-80254862D01*
X140155830Y-80264653D01*
X140155830Y-80264654D01*
X140142528Y-80348644D01*
X140142527Y-80348644D01*
X140142528Y-80348646D01*
X140137535Y-80380166D01*
X140139086Y-80389958D01*
X140139086Y-80389959D01*
X140140976Y-80401890D01*
X140142527Y-80421602D01*
X140142527Y-83838776D01*
X140140976Y-83858486D01*
X140137535Y-83880212D01*
X140142527Y-83911731D01*
X140157381Y-84005516D01*
X140214977Y-84118554D01*
X140304685Y-84208262D01*
X140417723Y-84265858D01*
X140427512Y-84267408D01*
X140427514Y-84267409D01*
X140533234Y-84284153D01*
X140543027Y-84285704D01*
X140564753Y-84282263D01*
X140584463Y-84280712D01*
X140839733Y-84280712D01*
X140907854Y-84300714D01*
X140954347Y-84354370D01*
X140965733Y-84406712D01*
X140965733Y-88382862D01*
X140945731Y-88450983D01*
X140892075Y-88497476D01*
X140839733Y-88508862D01*
X140584463Y-88508862D01*
X140564753Y-88507311D01*
X140552820Y-88505421D01*
X140543027Y-88503870D01*
X140511508Y-88508862D01*
X140417723Y-88523716D01*
X140408890Y-88528217D01*
X140408889Y-88528217D01*
X140393020Y-88536303D01*
X140304685Y-88581312D01*
X140214977Y-88671020D01*
X140157381Y-88784058D01*
X140137535Y-88909362D01*
X140139086Y-88919155D01*
X140140976Y-88931088D01*
X140142527Y-88950798D01*
X140142527Y-92367972D01*
X140140976Y-92387682D01*
X140137535Y-92409408D01*
X140142527Y-92440927D01*
X140157381Y-92534712D01*
X140214977Y-92647750D01*
X140304685Y-92737458D01*
X140417723Y-92795054D01*
X140427512Y-92796604D01*
X140427514Y-92796605D01*
X140533234Y-92813349D01*
X140543027Y-92814900D01*
X140564753Y-92811459D01*
X140584463Y-92809908D01*
X140839733Y-92809908D01*
X140907854Y-92829910D01*
X140954347Y-92883566D01*
X140965733Y-92935908D01*
X140965733Y-93337420D01*
X140964182Y-93357130D01*
X140960741Y-93378856D01*
X140965733Y-93410375D01*
X140980587Y-93504160D01*
X141038183Y-93617198D01*
X141127891Y-93706906D01*
X141240929Y-93764502D01*
X141250718Y-93766052D01*
X141250720Y-93766053D01*
X141356440Y-93782797D01*
X141366233Y-93784348D01*
X141387959Y-93780907D01*
X141407669Y-93779356D01*
X155295003Y-93779356D01*
X155314713Y-93780907D01*
X155336439Y-93784348D01*
X155346232Y-93782797D01*
X155451952Y-93766053D01*
X155451954Y-93766052D01*
X155461743Y-93764502D01*
X155574781Y-93706906D01*
X155664489Y-93617198D01*
X155722085Y-93504160D01*
X155724081Y-93491561D01*
X155736939Y-93410375D01*
X155740380Y-93388649D01*
X155741931Y-93378856D01*
X155738490Y-93357130D01*
X155736939Y-93337420D01*
X155736939Y-92935904D01*
X155756941Y-92867783D01*
X155810597Y-92821290D01*
X155862939Y-92809904D01*
X156097537Y-92809904D01*
X156117247Y-92811455D01*
X156138973Y-92814896D01*
X156148766Y-92813345D01*
X156254486Y-92796601D01*
X156254488Y-92796600D01*
X156264277Y-92795050D01*
X156377315Y-92737454D01*
X156467023Y-92647746D01*
X156524619Y-92534708D01*
X156539473Y-92440923D01*
X156544465Y-92409404D01*
X156541024Y-92387678D01*
X156539473Y-92367968D01*
X156539473Y-89169212D01*
X156559475Y-89101091D01*
X156613131Y-89054598D01*
X156665473Y-89043212D01*
X156839233Y-89043212D01*
X156907354Y-89063214D01*
X156953847Y-89116870D01*
X156965233Y-89169212D01*
X156965233Y-93145362D01*
X156945231Y-93213483D01*
X156891575Y-93259976D01*
X156839233Y-93271362D01*
X156583963Y-93271362D01*
X156564253Y-93269811D01*
X156552320Y-93267921D01*
X156542527Y-93266370D01*
X156511008Y-93271362D01*
X156417223Y-93286216D01*
X156304185Y-93343812D01*
X156214477Y-93433520D01*
X156156881Y-93546558D01*
X156155331Y-93556347D01*
X156155330Y-93556349D01*
X156143371Y-93631858D01*
X156137035Y-93671862D01*
X156138586Y-93681655D01*
X156140476Y-93693588D01*
X156142027Y-93713298D01*
X156142027Y-95853663D01*
X156122025Y-95921784D01*
X156068369Y-95968277D01*
X156016027Y-95979663D01*
X155862939Y-95979663D01*
X155794818Y-95959661D01*
X155748325Y-95906005D01*
X155736939Y-95853663D01*
X155736939Y-95450081D01*
X155738490Y-95430371D01*
X155740380Y-95418438D01*
X155741931Y-95408645D01*
X155730893Y-95338950D01*
X155723636Y-95293132D01*
X155723635Y-95293130D01*
X155722085Y-95283341D01*
X155664489Y-95170303D01*
X155574781Y-95080595D01*
X155461743Y-95022999D01*
X155451954Y-95021449D01*
X155451952Y-95021448D01*
X155367958Y-95008145D01*
X155346232Y-95004704D01*
X155336439Y-95003153D01*
X155326646Y-95004704D01*
X155314713Y-95006594D01*
X155295003Y-95008145D01*
X148351686Y-95008147D01*
X141407669Y-95008149D01*
X141387958Y-95006598D01*
X141387933Y-95006594D01*
X141366233Y-95003157D01*
X141334714Y-95008149D01*
X141240929Y-95023003D01*
X141127891Y-95080599D01*
X141038183Y-95170307D01*
X140980587Y-95283345D01*
X140960741Y-95408649D01*
X140962292Y-95418442D01*
X140964182Y-95430375D01*
X140965733Y-95450085D01*
X140965733Y-95853666D01*
X140945731Y-95921787D01*
X140892075Y-95968280D01*
X140839733Y-95979666D01*
X140584463Y-95979666D01*
X140564753Y-95978115D01*
X140552820Y-95976225D01*
X140543027Y-95974674D01*
X140533234Y-95976225D01*
X140427514Y-95992969D01*
X140427512Y-95992970D01*
X140417723Y-95994520D01*
X140304685Y-96052116D01*
X140214977Y-96141824D01*
X140157381Y-96254862D01*
X140155830Y-96264653D01*
X140155830Y-96264654D01*
X140142528Y-96348644D01*
X140142527Y-96348644D01*
X140142528Y-96348646D01*
X140137535Y-96380166D01*
X140139086Y-96389958D01*
X140139086Y-96389959D01*
X140140976Y-96401890D01*
X140142527Y-96421602D01*
X140142527Y-99838776D01*
X140140976Y-99858486D01*
X140137535Y-99880212D01*
X140142527Y-99911731D01*
X140157381Y-100005516D01*
X140214977Y-100118554D01*
X140304685Y-100208262D01*
X140417723Y-100265858D01*
X140427512Y-100267408D01*
X140427514Y-100267409D01*
X140533234Y-100284153D01*
X140543027Y-100285704D01*
X140564753Y-100282263D01*
X140584463Y-100280712D01*
X140839733Y-100280712D01*
X140907854Y-100300714D01*
X140954347Y-100354370D01*
X140965733Y-100406712D01*
X140965733Y-104382862D01*
X140945731Y-104450983D01*
X140892075Y-104497476D01*
X140839733Y-104508862D01*
X140665473Y-104508862D01*
X140597352Y-104488860D01*
X140550859Y-104435204D01*
X140539473Y-104382862D01*
X140539473Y-102612849D01*
X140541024Y-102593139D01*
X140542914Y-102581206D01*
X140544465Y-102571413D01*
X140539473Y-102539894D01*
X140526170Y-102455900D01*
X140526169Y-102455898D01*
X140524619Y-102446109D01*
X140467023Y-102333071D01*
X140377315Y-102243363D01*
X140264277Y-102185767D01*
X140254488Y-102184217D01*
X140254486Y-102184216D01*
X140170492Y-102170913D01*
X140148766Y-102167472D01*
X140138973Y-102165921D01*
X140129180Y-102167472D01*
X140117247Y-102169362D01*
X140097537Y-102170913D01*
X139862939Y-102170913D01*
X139794818Y-102150911D01*
X139748325Y-102097255D01*
X139736939Y-102044913D01*
X139736939Y-101641331D01*
X139738490Y-101621621D01*
X139740380Y-101609688D01*
X139741931Y-101599895D01*
X139730594Y-101528312D01*
X139722085Y-101474591D01*
X139664489Y-101361553D01*
X139574781Y-101271845D01*
X139461743Y-101214249D01*
X139451954Y-101212699D01*
X139451952Y-101212698D01*
X139367958Y-101199395D01*
X139346232Y-101195954D01*
X139336439Y-101194403D01*
X139326646Y-101195954D01*
X139314713Y-101197844D01*
X139295003Y-101199395D01*
X132351686Y-101199397D01*
X125407669Y-101199399D01*
X125387958Y-101197848D01*
X125387933Y-101197844D01*
X125366233Y-101194407D01*
X125356440Y-101195958D01*
X125334714Y-101199399D01*
X125250573Y-101212725D01*
X125250570Y-101212726D01*
X125240954Y-101214249D01*
X125240929Y-101214253D01*
X125127891Y-101271849D01*
X125038183Y-101361557D01*
X124980587Y-101474595D01*
X124979036Y-101484388D01*
X124970694Y-101537062D01*
X124969727Y-101543166D01*
X124960741Y-101599899D01*
X124962292Y-101609692D01*
X124964182Y-101621625D01*
X124965733Y-101641335D01*
X124965733Y-102044916D01*
X124945731Y-102113037D01*
X124892075Y-102159530D01*
X124839733Y-102170916D01*
X124584463Y-102170916D01*
X124564753Y-102169365D01*
X124552820Y-102167475D01*
X124543027Y-102165924D01*
X124511508Y-102170916D01*
X124448471Y-102180900D01*
X124417723Y-102185770D01*
X124304685Y-102243366D01*
X124214977Y-102333074D01*
X124157381Y-102446112D01*
X124155831Y-102455900D01*
X124155830Y-102455904D01*
X124142528Y-102539894D01*
X124142527Y-102539894D01*
X124142528Y-102539896D01*
X124137535Y-102571416D01*
X124139086Y-102581206D01*
X124139086Y-102581209D01*
X124140976Y-102593140D01*
X124142527Y-102612852D01*
X124142527Y-106030026D01*
X124140976Y-106049736D01*
X124137535Y-106071462D01*
X124142527Y-106102981D01*
X124157381Y-106196766D01*
X124214977Y-106309804D01*
X124304685Y-106399512D01*
X124417723Y-106457108D01*
X124427512Y-106458658D01*
X124427514Y-106458659D01*
X124533234Y-106475403D01*
X124543027Y-106476954D01*
X124564753Y-106473513D01*
X124584463Y-106471962D01*
X124839733Y-106471962D01*
X124907854Y-106491964D01*
X124954347Y-106545620D01*
X124965733Y-106597962D01*
X124965733Y-110574112D01*
X124945731Y-110642233D01*
X124892075Y-110688726D01*
X124839733Y-110700112D01*
X124584463Y-110700112D01*
X124564753Y-110698561D01*
X124552820Y-110696671D01*
X124543027Y-110695120D01*
X124511508Y-110700112D01*
X124417723Y-110714966D01*
X124304685Y-110772562D01*
X124214977Y-110862270D01*
X124157381Y-110975308D01*
X124137535Y-111100612D01*
X124139086Y-111110405D01*
X124140976Y-111122338D01*
X124142527Y-111142048D01*
X124142527Y-112681163D01*
X124122525Y-112749284D01*
X124068869Y-112795777D01*
X124016527Y-112807163D01*
X123862939Y-112807163D01*
X123794818Y-112787161D01*
X123748325Y-112733505D01*
X123736939Y-112681163D01*
X123736939Y-112277581D01*
X123738490Y-112257871D01*
X123740380Y-112245938D01*
X123741931Y-112236145D01*
X123740380Y-112226352D01*
X123723636Y-112120632D01*
X123723635Y-112120630D01*
X123722085Y-112110841D01*
X123664489Y-111997803D01*
X123574781Y-111908095D01*
X123461743Y-111850499D01*
X123451954Y-111848949D01*
X123451952Y-111848948D01*
X123367958Y-111835645D01*
X123346232Y-111832204D01*
X123336439Y-111830653D01*
X123326646Y-111832204D01*
X123314713Y-111834094D01*
X123295003Y-111835645D01*
X116351686Y-111835647D01*
X109407669Y-111835649D01*
X109387958Y-111834098D01*
X109387933Y-111834094D01*
X109366233Y-111830657D01*
X109334714Y-111835649D01*
X109240929Y-111850503D01*
X109127891Y-111908099D01*
X109038183Y-111997807D01*
X108980587Y-112110845D01*
X108960741Y-112236149D01*
X108962292Y-112245942D01*
X108964182Y-112257875D01*
X108965733Y-112277585D01*
X108965733Y-112681166D01*
X108945731Y-112749287D01*
X108892075Y-112795780D01*
X108839733Y-112807166D01*
X108584463Y-112807166D01*
X108564753Y-112805615D01*
X108552820Y-112803725D01*
X108543027Y-112802174D01*
X108533234Y-112803725D01*
X108427514Y-112820469D01*
X108427512Y-112820470D01*
X108417723Y-112822020D01*
X108304685Y-112879616D01*
X108214977Y-112969324D01*
X108157381Y-113082362D01*
X108155830Y-113092153D01*
X108155830Y-113092154D01*
X108142528Y-113176144D01*
X108142527Y-113176144D01*
X108142528Y-113176146D01*
X108137535Y-113207666D01*
X108139086Y-113217458D01*
X108139086Y-113217459D01*
X108140976Y-113229390D01*
X108142527Y-113249102D01*
X108142527Y-116666276D01*
X108140976Y-116685986D01*
X108137535Y-116707712D01*
X108142527Y-116739231D01*
X108157381Y-116833016D01*
X108214977Y-116946054D01*
X108304685Y-117035762D01*
X108417723Y-117093358D01*
X108427512Y-117094908D01*
X108427514Y-117094909D01*
X108533234Y-117111653D01*
X108543027Y-117113204D01*
X108564753Y-117109763D01*
X108584463Y-117108212D01*
X108839733Y-117108212D01*
X108907854Y-117128214D01*
X108954347Y-117181870D01*
X108965733Y-117234212D01*
X108965733Y-121210362D01*
X108945731Y-121278483D01*
X108892075Y-121324976D01*
X108839733Y-121336362D01*
X108584463Y-121336362D01*
X108564753Y-121334811D01*
X108552820Y-121332921D01*
X108543027Y-121331370D01*
X108511508Y-121336362D01*
X108417723Y-121351216D01*
X108304685Y-121408812D01*
X108214977Y-121498520D01*
X108157381Y-121611558D01*
X108137535Y-121736862D01*
X108139086Y-121746655D01*
X108140976Y-121758588D01*
X108142527Y-121778298D01*
X108142527Y-125195472D01*
X108140976Y-125215182D01*
X108137535Y-125236908D01*
X108142527Y-125268427D01*
X108157381Y-125362212D01*
X108214977Y-125475250D01*
X108304685Y-125564958D01*
X108417723Y-125622554D01*
X108427512Y-125624104D01*
X108427514Y-125624105D01*
X108533234Y-125640849D01*
X108543027Y-125642400D01*
X108564753Y-125638959D01*
X108584463Y-125637408D01*
X108839733Y-125637408D01*
X108907854Y-125657410D01*
X108954347Y-125711066D01*
X108965733Y-125763408D01*
X108965733Y-126164920D01*
X108964182Y-126184630D01*
X108960741Y-126206356D01*
X108962292Y-126216149D01*
X108977208Y-126310324D01*
X108980587Y-126331660D01*
X109038183Y-126444698D01*
X109127891Y-126534406D01*
X109180077Y-126560996D01*
X109182738Y-126562352D01*
X109234353Y-126611100D01*
X109251419Y-126680015D01*
X109228518Y-126747217D01*
X109172921Y-126791369D01*
X109098626Y-126797712D01*
X107995718Y-126556613D01*
X107933441Y-126522525D01*
X107898689Y-126456220D01*
X104744961Y-109237158D01*
X105756285Y-109237158D01*
X105757836Y-109246951D01*
X105774580Y-109352667D01*
X105776131Y-109362462D01*
X105833727Y-109475500D01*
X105923435Y-109565208D01*
X106008135Y-109608365D01*
X106025471Y-109617198D01*
X106036473Y-109622804D01*
X106046266Y-109624355D01*
X106095217Y-109632108D01*
X106130259Y-109637658D01*
X106161777Y-109642650D01*
X106183503Y-109639209D01*
X106203213Y-109637658D01*
X106458483Y-109637658D01*
X106526604Y-109657660D01*
X106573097Y-109711316D01*
X106584483Y-109763658D01*
X106584483Y-110165170D01*
X106582932Y-110184880D01*
X106579491Y-110206606D01*
X106584483Y-110238125D01*
X106599337Y-110331910D01*
X106656933Y-110444948D01*
X106746641Y-110534656D01*
X106859679Y-110592252D01*
X106869468Y-110593802D01*
X106869470Y-110593803D01*
X106975190Y-110610547D01*
X106984983Y-110612098D01*
X107006709Y-110608657D01*
X107026419Y-110607106D01*
X120913753Y-110607106D01*
X120933463Y-110608657D01*
X120955189Y-110612098D01*
X120964982Y-110610547D01*
X121070702Y-110593803D01*
X121070704Y-110593802D01*
X121080493Y-110592252D01*
X121193531Y-110534656D01*
X121283239Y-110444948D01*
X121340835Y-110331910D01*
X121355689Y-110238125D01*
X121360681Y-110206606D01*
X121357240Y-110184880D01*
X121355689Y-110165170D01*
X121355689Y-109763654D01*
X121375691Y-109695533D01*
X121429347Y-109649040D01*
X121481689Y-109637654D01*
X121716287Y-109637654D01*
X121735997Y-109639205D01*
X121757723Y-109642646D01*
X121824284Y-109632104D01*
X121883027Y-109622800D01*
X121894022Y-109617198D01*
X121911357Y-109608365D01*
X121996065Y-109565204D01*
X122085773Y-109475496D01*
X122143369Y-109362458D01*
X122155445Y-109286216D01*
X122161664Y-109246947D01*
X122163215Y-109237154D01*
X122159774Y-109215428D01*
X122158223Y-109195718D01*
X122158223Y-105778544D01*
X122159774Y-105758834D01*
X122161664Y-105746901D01*
X122163215Y-105737108D01*
X122151948Y-105665970D01*
X122144920Y-105621595D01*
X122144919Y-105621593D01*
X122143369Y-105611804D01*
X122085773Y-105498766D01*
X121996065Y-105409058D01*
X121883027Y-105351462D01*
X121873238Y-105349912D01*
X121873236Y-105349911D01*
X121789242Y-105336608D01*
X121767516Y-105333167D01*
X121757723Y-105331616D01*
X121747930Y-105333167D01*
X121735997Y-105335057D01*
X121716287Y-105336608D01*
X121481689Y-105336608D01*
X121413568Y-105316606D01*
X121367075Y-105262950D01*
X121355689Y-105210608D01*
X121355689Y-101234458D01*
X121375691Y-101166337D01*
X121429347Y-101119844D01*
X121481689Y-101108458D01*
X121716287Y-101108458D01*
X121735997Y-101110009D01*
X121757723Y-101113450D01*
X121767516Y-101111899D01*
X121873236Y-101095155D01*
X121873238Y-101095154D01*
X121883027Y-101093604D01*
X121996065Y-101036008D01*
X122085773Y-100946300D01*
X122143369Y-100833262D01*
X122148717Y-100799500D01*
X122158223Y-100739477D01*
X122161664Y-100717751D01*
X122163215Y-100707958D01*
X122159774Y-100686232D01*
X122158223Y-100666522D01*
X122158223Y-99127158D01*
X122178225Y-99059037D01*
X122231881Y-99012544D01*
X122284223Y-99001158D01*
X122458483Y-99001158D01*
X122526604Y-99021160D01*
X122573097Y-99074816D01*
X122584483Y-99127158D01*
X122584483Y-99528670D01*
X122582932Y-99548380D01*
X122579491Y-99570106D01*
X122584483Y-99601625D01*
X122599337Y-99695410D01*
X122656933Y-99808448D01*
X122746641Y-99898156D01*
X122859679Y-99955752D01*
X122869468Y-99957302D01*
X122869470Y-99957303D01*
X122975190Y-99974047D01*
X122984983Y-99975598D01*
X123006709Y-99972157D01*
X123026419Y-99970606D01*
X136913753Y-99970606D01*
X136933463Y-99972157D01*
X136955189Y-99975598D01*
X136964982Y-99974047D01*
X137070702Y-99957303D01*
X137070704Y-99957302D01*
X137080493Y-99955752D01*
X137193531Y-99898156D01*
X137283239Y-99808448D01*
X137340835Y-99695410D01*
X137349316Y-99641866D01*
X137355689Y-99601625D01*
X137359130Y-99579899D01*
X137360681Y-99570106D01*
X137357240Y-99548380D01*
X137355689Y-99528670D01*
X137355689Y-99127154D01*
X137375691Y-99059033D01*
X137429347Y-99012540D01*
X137481689Y-99001154D01*
X137716287Y-99001154D01*
X137735997Y-99002705D01*
X137757723Y-99006146D01*
X137767516Y-99004595D01*
X137873236Y-98987851D01*
X137873238Y-98987850D01*
X137883027Y-98986300D01*
X137996065Y-98928704D01*
X138085773Y-98838996D01*
X138143369Y-98725958D01*
X138150514Y-98680850D01*
X138158223Y-98632173D01*
X138161664Y-98610447D01*
X138163215Y-98600654D01*
X138159774Y-98578928D01*
X138158223Y-98559218D01*
X138158223Y-95142044D01*
X138159774Y-95122334D01*
X138161664Y-95110401D01*
X138163215Y-95100608D01*
X138150678Y-95021452D01*
X138144920Y-94985095D01*
X138144919Y-94985093D01*
X138143369Y-94975304D01*
X138085773Y-94862266D01*
X137996065Y-94772558D01*
X137883027Y-94714962D01*
X137873238Y-94713412D01*
X137873236Y-94713411D01*
X137789242Y-94700108D01*
X137767516Y-94696667D01*
X137757723Y-94695116D01*
X137747930Y-94696667D01*
X137735997Y-94698557D01*
X137716287Y-94700108D01*
X137481689Y-94700108D01*
X137413568Y-94680106D01*
X137367075Y-94626450D01*
X137355689Y-94574108D01*
X137355689Y-90597958D01*
X137375691Y-90529837D01*
X137429347Y-90483344D01*
X137481689Y-90471958D01*
X137716287Y-90471958D01*
X137735997Y-90473509D01*
X137757723Y-90476950D01*
X137767516Y-90475399D01*
X137873236Y-90458655D01*
X137873238Y-90458654D01*
X137883027Y-90457104D01*
X137996065Y-90399508D01*
X138085773Y-90309800D01*
X138143369Y-90196762D01*
X138151304Y-90146666D01*
X138158223Y-90102977D01*
X138161664Y-90081251D01*
X138163215Y-90071458D01*
X138159774Y-90049732D01*
X138158223Y-90030022D01*
X138158223Y-86612849D01*
X138159774Y-86593139D01*
X138161664Y-86581206D01*
X138163215Y-86571413D01*
X138158223Y-86539894D01*
X138144920Y-86455900D01*
X138144919Y-86455898D01*
X138143369Y-86446109D01*
X138085773Y-86333071D01*
X137996065Y-86243363D01*
X137883027Y-86185767D01*
X137873238Y-86184217D01*
X137873236Y-86184216D01*
X137789242Y-86170913D01*
X137767516Y-86167472D01*
X137757723Y-86165921D01*
X137747930Y-86167472D01*
X137735997Y-86169362D01*
X137716287Y-86170913D01*
X137481689Y-86170913D01*
X137413568Y-86150911D01*
X137367075Y-86097255D01*
X137355689Y-86044913D01*
X137355689Y-85641331D01*
X137357240Y-85621621D01*
X137359130Y-85609688D01*
X137360681Y-85599895D01*
X137349344Y-85528312D01*
X137340835Y-85474591D01*
X137283239Y-85361553D01*
X137193531Y-85271845D01*
X137080493Y-85214249D01*
X137070704Y-85212699D01*
X137070702Y-85212698D01*
X136964982Y-85195954D01*
X136955189Y-85194403D01*
X136945396Y-85195954D01*
X136933463Y-85197844D01*
X136913753Y-85199395D01*
X129970436Y-85199397D01*
X123026419Y-85199399D01*
X123006708Y-85197848D01*
X123006683Y-85197844D01*
X122984983Y-85194407D01*
X122975190Y-85195958D01*
X122869470Y-85212702D01*
X122869468Y-85212703D01*
X122859679Y-85214253D01*
X122746641Y-85271849D01*
X122656933Y-85361557D01*
X122599337Y-85474595D01*
X122597786Y-85484388D01*
X122589444Y-85537062D01*
X122588477Y-85543166D01*
X122579491Y-85599899D01*
X122581042Y-85609692D01*
X122582932Y-85621625D01*
X122584483Y-85641335D01*
X122584483Y-86044916D01*
X122564481Y-86113037D01*
X122510825Y-86159530D01*
X122458483Y-86170916D01*
X122203213Y-86170916D01*
X122183503Y-86169365D01*
X122171570Y-86167475D01*
X122161777Y-86165924D01*
X122130258Y-86170916D01*
X122067221Y-86180900D01*
X122036473Y-86185770D01*
X121923435Y-86243366D01*
X121833727Y-86333074D01*
X121776131Y-86446112D01*
X121774581Y-86455900D01*
X121774580Y-86455904D01*
X121761278Y-86539894D01*
X121761277Y-86539894D01*
X121761278Y-86539896D01*
X121756285Y-86571416D01*
X121757836Y-86581206D01*
X121757836Y-86581209D01*
X121759726Y-86593140D01*
X121761277Y-86612852D01*
X121761277Y-90030026D01*
X121759726Y-90049736D01*
X121756285Y-90071462D01*
X121761277Y-90102981D01*
X121776131Y-90196766D01*
X121833727Y-90309804D01*
X121923435Y-90399512D01*
X122036473Y-90457108D01*
X122046262Y-90458658D01*
X122046264Y-90458659D01*
X122151984Y-90475403D01*
X122161777Y-90476954D01*
X122183503Y-90473513D01*
X122203213Y-90471962D01*
X122458483Y-90471962D01*
X122526604Y-90491964D01*
X122573097Y-90545620D01*
X122584483Y-90597962D01*
X122584483Y-94574112D01*
X122564481Y-94642233D01*
X122510825Y-94688726D01*
X122458483Y-94700112D01*
X122203213Y-94700112D01*
X122183503Y-94698561D01*
X122171570Y-94696671D01*
X122161777Y-94695120D01*
X122130258Y-94700112D01*
X122036473Y-94714966D01*
X121923435Y-94772562D01*
X121833727Y-94862270D01*
X121776131Y-94975308D01*
X121774581Y-94985095D01*
X121774580Y-94985099D01*
X121768577Y-95023003D01*
X121756285Y-95100612D01*
X121757836Y-95110405D01*
X121759726Y-95122338D01*
X121761277Y-95142048D01*
X121761277Y-96681413D01*
X121741275Y-96749534D01*
X121687619Y-96796027D01*
X121635277Y-96807413D01*
X121481689Y-96807413D01*
X121413568Y-96787411D01*
X121367075Y-96733755D01*
X121355689Y-96681413D01*
X121355689Y-96277831D01*
X121357240Y-96258121D01*
X121359130Y-96246188D01*
X121360681Y-96236395D01*
X121353366Y-96190207D01*
X121342386Y-96120882D01*
X121342385Y-96120880D01*
X121340835Y-96111091D01*
X121283239Y-95998053D01*
X121193531Y-95908345D01*
X121080493Y-95850749D01*
X121070704Y-95849199D01*
X121070702Y-95849198D01*
X120986708Y-95835895D01*
X120964982Y-95832454D01*
X120955189Y-95830903D01*
X120945396Y-95832454D01*
X120933463Y-95834344D01*
X120913753Y-95835895D01*
X113970436Y-95835897D01*
X107026419Y-95835899D01*
X107006708Y-95834348D01*
X107006683Y-95834344D01*
X106984983Y-95830907D01*
X106953464Y-95835899D01*
X106859679Y-95850753D01*
X106746641Y-95908349D01*
X106656933Y-95998057D01*
X106599337Y-96111095D01*
X106597787Y-96120882D01*
X106597786Y-96120886D01*
X106591017Y-96163624D01*
X106579491Y-96236399D01*
X106581042Y-96246192D01*
X106582932Y-96258125D01*
X106584483Y-96277835D01*
X106584483Y-96681416D01*
X106564481Y-96749537D01*
X106510825Y-96796030D01*
X106458483Y-96807416D01*
X106203213Y-96807416D01*
X106183503Y-96805865D01*
X106171570Y-96803975D01*
X106161777Y-96802424D01*
X106151984Y-96803975D01*
X106046264Y-96820719D01*
X106046262Y-96820720D01*
X106036473Y-96822270D01*
X105923435Y-96879866D01*
X105833727Y-96969574D01*
X105776131Y-97082612D01*
X105774580Y-97092403D01*
X105774580Y-97092404D01*
X105761278Y-97176394D01*
X105761277Y-97176394D01*
X105761278Y-97176396D01*
X105756285Y-97207916D01*
X105757836Y-97217708D01*
X105757836Y-97217709D01*
X105759726Y-97229640D01*
X105761277Y-97249352D01*
X105761277Y-100666526D01*
X105759726Y-100686236D01*
X105756285Y-100707962D01*
X105761277Y-100739481D01*
X105776131Y-100833266D01*
X105833727Y-100946304D01*
X105923435Y-101036012D01*
X106036473Y-101093608D01*
X106046262Y-101095158D01*
X106046264Y-101095159D01*
X106151984Y-101111903D01*
X106161777Y-101113454D01*
X106183503Y-101110013D01*
X106203213Y-101108462D01*
X106458483Y-101108462D01*
X106526604Y-101128464D01*
X106573097Y-101182120D01*
X106584483Y-101234462D01*
X106584483Y-105210612D01*
X106564481Y-105278733D01*
X106510825Y-105325226D01*
X106458483Y-105336612D01*
X106203213Y-105336612D01*
X106183503Y-105335061D01*
X106171570Y-105333171D01*
X106161777Y-105331620D01*
X106151984Y-105333171D01*
X106140076Y-105335057D01*
X106130258Y-105336612D01*
X106036473Y-105351466D01*
X106027640Y-105355967D01*
X106027639Y-105355967D01*
X106021263Y-105359216D01*
X105923435Y-105409062D01*
X105833727Y-105498770D01*
X105776131Y-105611808D01*
X105774581Y-105621595D01*
X105774580Y-105621599D01*
X105766762Y-105670962D01*
X105756285Y-105737112D01*
X105757836Y-105746905D01*
X105759726Y-105758838D01*
X105761277Y-105778548D01*
X105761277Y-109195722D01*
X105759726Y-109215432D01*
X105756285Y-109237158D01*
X104744961Y-109237158D01*
X102352562Y-96174882D01*
X102350500Y-96152182D01*
X102350500Y-93237158D01*
X103374535Y-93237158D01*
X103379527Y-93268677D01*
X103394381Y-93362462D01*
X103451977Y-93475500D01*
X103541685Y-93565208D01*
X103654723Y-93622804D01*
X103664512Y-93624354D01*
X103664514Y-93624355D01*
X103770234Y-93641099D01*
X103780027Y-93642650D01*
X103801753Y-93639209D01*
X103821463Y-93637658D01*
X104076733Y-93637658D01*
X104144854Y-93657660D01*
X104191347Y-93711316D01*
X104202733Y-93763658D01*
X104202733Y-94165170D01*
X104201182Y-94184880D01*
X104197741Y-94206606D01*
X104202733Y-94238125D01*
X104217587Y-94331910D01*
X104275183Y-94444948D01*
X104364891Y-94534656D01*
X104477929Y-94592252D01*
X104487718Y-94593802D01*
X104487720Y-94593803D01*
X104593440Y-94610547D01*
X104603233Y-94612098D01*
X104624959Y-94608657D01*
X104644669Y-94607106D01*
X118532003Y-94607106D01*
X118551713Y-94608657D01*
X118573439Y-94612098D01*
X118583232Y-94610547D01*
X118688952Y-94593803D01*
X118688954Y-94593802D01*
X118698743Y-94592252D01*
X118811781Y-94534656D01*
X118901489Y-94444948D01*
X118959085Y-94331910D01*
X118973939Y-94238125D01*
X118978931Y-94206606D01*
X118975490Y-94184880D01*
X118973939Y-94165170D01*
X118973939Y-93763654D01*
X118993941Y-93695533D01*
X119047597Y-93649040D01*
X119099939Y-93637654D01*
X119334537Y-93637654D01*
X119354247Y-93639205D01*
X119375973Y-93642646D01*
X119407505Y-93637652D01*
X119444087Y-93631858D01*
X119491484Y-93624351D01*
X119501277Y-93622800D01*
X119512272Y-93617198D01*
X119561758Y-93591983D01*
X119614315Y-93565204D01*
X119704023Y-93475496D01*
X119761619Y-93362458D01*
X119764115Y-93346702D01*
X119779914Y-93246947D01*
X119781465Y-93237154D01*
X119778024Y-93215428D01*
X119776473Y-93195718D01*
X119776473Y-89778544D01*
X119778024Y-89758834D01*
X119779914Y-89746901D01*
X119781465Y-89737108D01*
X119770198Y-89665970D01*
X119763170Y-89621595D01*
X119763169Y-89621593D01*
X119761619Y-89611804D01*
X119704023Y-89498766D01*
X119614315Y-89409058D01*
X119501277Y-89351462D01*
X119491488Y-89349912D01*
X119491486Y-89349911D01*
X119407492Y-89336608D01*
X119385766Y-89333167D01*
X119375973Y-89331616D01*
X119366180Y-89333167D01*
X119354247Y-89335057D01*
X119334537Y-89336608D01*
X119099939Y-89336608D01*
X119031818Y-89316606D01*
X118985325Y-89262950D01*
X118973939Y-89210608D01*
X118973939Y-85234458D01*
X118993941Y-85166337D01*
X119047597Y-85119844D01*
X119099939Y-85108458D01*
X119334537Y-85108458D01*
X119354247Y-85110009D01*
X119375973Y-85113450D01*
X119385766Y-85111899D01*
X119491486Y-85095155D01*
X119491488Y-85095154D01*
X119501277Y-85093604D01*
X119614315Y-85036008D01*
X119704023Y-84946300D01*
X119761619Y-84833262D01*
X119773695Y-84757020D01*
X119776473Y-84739477D01*
X119779914Y-84717751D01*
X119781465Y-84707958D01*
X119778024Y-84686232D01*
X119776473Y-84666522D01*
X119776473Y-83127158D01*
X119796475Y-83059037D01*
X119850131Y-83012544D01*
X119902473Y-83001158D01*
X120077233Y-83001158D01*
X120145354Y-83021160D01*
X120191847Y-83074816D01*
X120203233Y-83127158D01*
X120203233Y-83528670D01*
X120201682Y-83548380D01*
X120198241Y-83570106D01*
X120203233Y-83601625D01*
X120218087Y-83695410D01*
X120275683Y-83808448D01*
X120365391Y-83898156D01*
X120478429Y-83955752D01*
X120488218Y-83957302D01*
X120488220Y-83957303D01*
X120593940Y-83974047D01*
X120603733Y-83975598D01*
X120625459Y-83972157D01*
X120645169Y-83970606D01*
X134532503Y-83970606D01*
X134552213Y-83972157D01*
X134573939Y-83975598D01*
X134583732Y-83974047D01*
X134689452Y-83957303D01*
X134689454Y-83957302D01*
X134699243Y-83955752D01*
X134812281Y-83898156D01*
X134901989Y-83808448D01*
X134959585Y-83695410D01*
X134968066Y-83641866D01*
X134974439Y-83601625D01*
X134977880Y-83579899D01*
X134979431Y-83570106D01*
X134975990Y-83548380D01*
X134974439Y-83528670D01*
X134974439Y-83127154D01*
X134994441Y-83059033D01*
X135048097Y-83012540D01*
X135100439Y-83001154D01*
X135335037Y-83001154D01*
X135354747Y-83002705D01*
X135376473Y-83006146D01*
X135386266Y-83004595D01*
X135491986Y-82987851D01*
X135491988Y-82987850D01*
X135501777Y-82986300D01*
X135614815Y-82928704D01*
X135704523Y-82838996D01*
X135762119Y-82725958D01*
X135769264Y-82680850D01*
X135776973Y-82632173D01*
X135780414Y-82610447D01*
X135781965Y-82600654D01*
X135778524Y-82578928D01*
X135776973Y-82559218D01*
X135776973Y-79142044D01*
X135778524Y-79122334D01*
X135780414Y-79110401D01*
X135781965Y-79100608D01*
X135769428Y-79021452D01*
X135763670Y-78985095D01*
X135763669Y-78985093D01*
X135762119Y-78975304D01*
X135704523Y-78862266D01*
X135614815Y-78772558D01*
X135501777Y-78714962D01*
X135491988Y-78713412D01*
X135491986Y-78713411D01*
X135407992Y-78700108D01*
X135386266Y-78696667D01*
X135376473Y-78695116D01*
X135366680Y-78696667D01*
X135354747Y-78698557D01*
X135335037Y-78700108D01*
X135100439Y-78700108D01*
X135032318Y-78680106D01*
X134985825Y-78626450D01*
X134974439Y-78574108D01*
X134974439Y-74597958D01*
X134994441Y-74529837D01*
X135048097Y-74483344D01*
X135100439Y-74471958D01*
X135335037Y-74471958D01*
X135354747Y-74473509D01*
X135376473Y-74476950D01*
X135386266Y-74475399D01*
X135491986Y-74458655D01*
X135491988Y-74458654D01*
X135501777Y-74457104D01*
X135614815Y-74399508D01*
X135704523Y-74309800D01*
X135762119Y-74196762D01*
X135770054Y-74146666D01*
X135776973Y-74102977D01*
X135780414Y-74081251D01*
X135781965Y-74071458D01*
X135778524Y-74049732D01*
X135776973Y-74030022D01*
X135776973Y-70612849D01*
X135778524Y-70593139D01*
X135780414Y-70581206D01*
X135781965Y-70571413D01*
X135776973Y-70539894D01*
X135763670Y-70455900D01*
X135763669Y-70455898D01*
X135762119Y-70446109D01*
X135704523Y-70333071D01*
X135614815Y-70243363D01*
X135501777Y-70185767D01*
X135491988Y-70184217D01*
X135491986Y-70184216D01*
X135407992Y-70170913D01*
X135386266Y-70167472D01*
X135376473Y-70165921D01*
X135366680Y-70167472D01*
X135354747Y-70169362D01*
X135335037Y-70170913D01*
X135100439Y-70170913D01*
X135032318Y-70150911D01*
X134985825Y-70097255D01*
X134974439Y-70044913D01*
X134974439Y-69641331D01*
X134975990Y-69621621D01*
X134977880Y-69609688D01*
X134979431Y-69599895D01*
X134968094Y-69528312D01*
X134959585Y-69474591D01*
X134901989Y-69361553D01*
X134812281Y-69271845D01*
X134699243Y-69214249D01*
X134689454Y-69212699D01*
X134689452Y-69212698D01*
X134583732Y-69195954D01*
X134573939Y-69194403D01*
X134564146Y-69195954D01*
X134552213Y-69197844D01*
X134532503Y-69199395D01*
X127589186Y-69199397D01*
X120645169Y-69199399D01*
X120625458Y-69197848D01*
X120625433Y-69197844D01*
X120603733Y-69194407D01*
X120593940Y-69195958D01*
X120488220Y-69212702D01*
X120488218Y-69212703D01*
X120478429Y-69214253D01*
X120365391Y-69271849D01*
X120275683Y-69361557D01*
X120218087Y-69474595D01*
X120216536Y-69484388D01*
X120209580Y-69528312D01*
X120207227Y-69543166D01*
X120198241Y-69599899D01*
X120199792Y-69609692D01*
X120201682Y-69621625D01*
X120203233Y-69641335D01*
X120203233Y-70044916D01*
X120183231Y-70113037D01*
X120129575Y-70159530D01*
X120077233Y-70170916D01*
X119821963Y-70170916D01*
X119802253Y-70169365D01*
X119790320Y-70167475D01*
X119780527Y-70165924D01*
X119770734Y-70167475D01*
X119665014Y-70184219D01*
X119665012Y-70184220D01*
X119655223Y-70185770D01*
X119542185Y-70243366D01*
X119452477Y-70333074D01*
X119394881Y-70446112D01*
X119393331Y-70455900D01*
X119393330Y-70455904D01*
X119380028Y-70539894D01*
X119380027Y-70539894D01*
X119380028Y-70539896D01*
X119375035Y-70571416D01*
X119376586Y-70581206D01*
X119376586Y-70581209D01*
X119378476Y-70593140D01*
X119380027Y-70612852D01*
X119380027Y-74030026D01*
X119378476Y-74049736D01*
X119375035Y-74071462D01*
X119380027Y-74102981D01*
X119394881Y-74196766D01*
X119452477Y-74309804D01*
X119542185Y-74399512D01*
X119655223Y-74457108D01*
X119665012Y-74458658D01*
X119665014Y-74458659D01*
X119770734Y-74475403D01*
X119780527Y-74476954D01*
X119802253Y-74473513D01*
X119821963Y-74471962D01*
X120077233Y-74471962D01*
X120145354Y-74491964D01*
X120191847Y-74545620D01*
X120203233Y-74597962D01*
X120203233Y-78574112D01*
X120183231Y-78642233D01*
X120129575Y-78688726D01*
X120077233Y-78700112D01*
X119821963Y-78700112D01*
X119802253Y-78698561D01*
X119790320Y-78696671D01*
X119780527Y-78695120D01*
X119749008Y-78700112D01*
X119655223Y-78714966D01*
X119542185Y-78772562D01*
X119452477Y-78862270D01*
X119394881Y-78975308D01*
X119393331Y-78985095D01*
X119393330Y-78985099D01*
X119387327Y-79023003D01*
X119375035Y-79100612D01*
X119376586Y-79110405D01*
X119378476Y-79122338D01*
X119380027Y-79142048D01*
X119380027Y-80681413D01*
X119360025Y-80749534D01*
X119306369Y-80796027D01*
X119254027Y-80807413D01*
X119099939Y-80807413D01*
X119031818Y-80787411D01*
X118985325Y-80733755D01*
X118973939Y-80681413D01*
X118973939Y-80277831D01*
X118975490Y-80258121D01*
X118977380Y-80246188D01*
X118978931Y-80236395D01*
X118962842Y-80134813D01*
X118960636Y-80120882D01*
X118960635Y-80120880D01*
X118959085Y-80111091D01*
X118901489Y-79998053D01*
X118811781Y-79908345D01*
X118698743Y-79850749D01*
X118688954Y-79849199D01*
X118688952Y-79849198D01*
X118604958Y-79835895D01*
X118583232Y-79832454D01*
X118573439Y-79830903D01*
X118563646Y-79832454D01*
X118551713Y-79834344D01*
X118532003Y-79835895D01*
X111588686Y-79835897D01*
X104644669Y-79835899D01*
X104624958Y-79834348D01*
X104624933Y-79834344D01*
X104603233Y-79830907D01*
X104571714Y-79835899D01*
X104477929Y-79850753D01*
X104364891Y-79908349D01*
X104275183Y-79998057D01*
X104217587Y-80111095D01*
X104197741Y-80236399D01*
X104199292Y-80246192D01*
X104201182Y-80258125D01*
X104202733Y-80277835D01*
X104202733Y-80681416D01*
X104182731Y-80749537D01*
X104129075Y-80796030D01*
X104076733Y-80807416D01*
X103821463Y-80807416D01*
X103801753Y-80805865D01*
X103789820Y-80803975D01*
X103780027Y-80802424D01*
X103770234Y-80803975D01*
X103664514Y-80820719D01*
X103664512Y-80820720D01*
X103654723Y-80822270D01*
X103541685Y-80879866D01*
X103451977Y-80969574D01*
X103394381Y-81082612D01*
X103392830Y-81092403D01*
X103392830Y-81092404D01*
X103379528Y-81176394D01*
X103379527Y-81176394D01*
X103379528Y-81176396D01*
X103374535Y-81207916D01*
X103376086Y-81217708D01*
X103376086Y-81217709D01*
X103377976Y-81229640D01*
X103379527Y-81249352D01*
X103379527Y-84666526D01*
X103377976Y-84686236D01*
X103374535Y-84707962D01*
X103379527Y-84739481D01*
X103394381Y-84833266D01*
X103451977Y-84946304D01*
X103541685Y-85036012D01*
X103654723Y-85093608D01*
X103664512Y-85095158D01*
X103664514Y-85095159D01*
X103770234Y-85111903D01*
X103780027Y-85113454D01*
X103801753Y-85110013D01*
X103821463Y-85108462D01*
X104076733Y-85108462D01*
X104144854Y-85128464D01*
X104191347Y-85182120D01*
X104202733Y-85234462D01*
X104202733Y-89210612D01*
X104182731Y-89278733D01*
X104129075Y-89325226D01*
X104076733Y-89336612D01*
X103821463Y-89336612D01*
X103801753Y-89335061D01*
X103789820Y-89333171D01*
X103780027Y-89331620D01*
X103748508Y-89336612D01*
X103654723Y-89351466D01*
X103645890Y-89355967D01*
X103645889Y-89355967D01*
X103628126Y-89365018D01*
X103541685Y-89409062D01*
X103451977Y-89498770D01*
X103394381Y-89611808D01*
X103392831Y-89621595D01*
X103392830Y-89621599D01*
X103378093Y-89714647D01*
X103374535Y-89737112D01*
X103376086Y-89746905D01*
X103377976Y-89758838D01*
X103379527Y-89778548D01*
X103379527Y-93195722D01*
X103377976Y-93215432D01*
X103374535Y-93237158D01*
X102350500Y-93237158D01*
X102350500Y-78686048D01*
X102370502Y-78617927D01*
X102407932Y-78580339D01*
X118754407Y-67977220D01*
X118786982Y-67962179D01*
X131254074Y-64246026D01*
X139440805Y-61805750D01*
X139476798Y-61800500D01*
X158726662Y-61800500D01*
X158761095Y-61805296D01*
G37*
%TD.AperFunction*%
M02*
