%TF.GenerationSoftware,KiCad,Pcbnew,(6.0.7)*%
%TF.CreationDate,2022-09-23T16:10:08+09:00*%
%TF.ProjectId,selen-full_narrow_plate,73656c65-6e2d-4667-956c-6c5f6e617272,rev?*%
%TF.SameCoordinates,Original*%
%TF.FileFunction,Legend,Top*%
%TF.FilePolarity,Positive*%
%FSLAX46Y46*%
G04 Gerber Fmt 4.6, Leading zero omitted, Abs format (unit mm)*
G04 Created by KiCad (PCBNEW (6.0.7)) date 2022-09-23 16:10:08*
%MOMM*%
%LPD*%
G01*
G04 APERTURE LIST*
%ADD10C,0.150000*%
G04 APERTURE END LIST*
D10*
X203692976Y-115928571D02*
X203835833Y-115976190D01*
X203883452Y-116023809D01*
X203931071Y-116119047D01*
X203931071Y-116261904D01*
X203883452Y-116357142D01*
X203835833Y-116404761D01*
X203740595Y-116452380D01*
X203359642Y-116452380D01*
X203359642Y-115452380D01*
X203692976Y-115452380D01*
X203788214Y-115500000D01*
X203835833Y-115547619D01*
X203883452Y-115642857D01*
X203883452Y-115738095D01*
X203835833Y-115833333D01*
X203788214Y-115880952D01*
X203692976Y-115928571D01*
X203359642Y-115928571D01*
X204502500Y-116452380D02*
X204407261Y-116404761D01*
X204359642Y-116357142D01*
X204312023Y-116261904D01*
X204312023Y-115976190D01*
X204359642Y-115880952D01*
X204407261Y-115833333D01*
X204502500Y-115785714D01*
X204645357Y-115785714D01*
X204740595Y-115833333D01*
X204788214Y-115880952D01*
X204835833Y-115976190D01*
X204835833Y-116261904D01*
X204788214Y-116357142D01*
X204740595Y-116404761D01*
X204645357Y-116452380D01*
X204502500Y-116452380D01*
X205407261Y-116452380D02*
X205312023Y-116404761D01*
X205264404Y-116357142D01*
X205216785Y-116261904D01*
X205216785Y-115976190D01*
X205264404Y-115880952D01*
X205312023Y-115833333D01*
X205407261Y-115785714D01*
X205550119Y-115785714D01*
X205645357Y-115833333D01*
X205692976Y-115880952D01*
X205740595Y-115976190D01*
X205740595Y-116261904D01*
X205692976Y-116357142D01*
X205645357Y-116404761D01*
X205550119Y-116452380D01*
X205407261Y-116452380D01*
X206026309Y-115785714D02*
X206407261Y-115785714D01*
X206169166Y-115452380D02*
X206169166Y-116309523D01*
X206216785Y-116404761D01*
X206312023Y-116452380D01*
X206407261Y-116452380D01*
X195907023Y-116452380D02*
X195573690Y-115976190D01*
X195335595Y-116452380D02*
X195335595Y-115452380D01*
X195716547Y-115452380D01*
X195811785Y-115500000D01*
X195859404Y-115547619D01*
X195907023Y-115642857D01*
X195907023Y-115785714D01*
X195859404Y-115880952D01*
X195811785Y-115928571D01*
X195716547Y-115976190D01*
X195335595Y-115976190D01*
X196716547Y-116404761D02*
X196621309Y-116452380D01*
X196430833Y-116452380D01*
X196335595Y-116404761D01*
X196287976Y-116309523D01*
X196287976Y-115928571D01*
X196335595Y-115833333D01*
X196430833Y-115785714D01*
X196621309Y-115785714D01*
X196716547Y-115833333D01*
X196764166Y-115928571D01*
X196764166Y-116023809D01*
X196287976Y-116119047D01*
X197145119Y-116404761D02*
X197240357Y-116452380D01*
X197430833Y-116452380D01*
X197526071Y-116404761D01*
X197573690Y-116309523D01*
X197573690Y-116261904D01*
X197526071Y-116166666D01*
X197430833Y-116119047D01*
X197287976Y-116119047D01*
X197192738Y-116071428D01*
X197145119Y-115976190D01*
X197145119Y-115928571D01*
X197192738Y-115833333D01*
X197287976Y-115785714D01*
X197430833Y-115785714D01*
X197526071Y-115833333D01*
X198383214Y-116404761D02*
X198287976Y-116452380D01*
X198097500Y-116452380D01*
X198002261Y-116404761D01*
X197954642Y-116309523D01*
X197954642Y-115928571D01*
X198002261Y-115833333D01*
X198097500Y-115785714D01*
X198287976Y-115785714D01*
X198383214Y-115833333D01*
X198430833Y-115928571D01*
X198430833Y-116023809D01*
X197954642Y-116119047D01*
X198716547Y-115785714D02*
X199097500Y-115785714D01*
X198859404Y-115452380D02*
X198859404Y-116309523D01*
X198907023Y-116404761D01*
X199002261Y-116452380D01*
X199097500Y-116452380D01*
M02*
