%TF.GenerationSoftware,KiCad,Pcbnew,(6.0.8)*%
%TF.CreationDate,2022-10-28T13:13:37+09:00*%
%TF.ProjectId,selen-full_narrow_plate,73656c65-6e2d-4667-956c-6c5f6e617272,rev?*%
%TF.SameCoordinates,Original*%
%TF.FileFunction,Legend,Bot*%
%TF.FilePolarity,Positive*%
%FSLAX46Y46*%
G04 Gerber Fmt 4.6, Leading zero omitted, Abs format (unit mm)*
G04 Created by KiCad (PCBNEW (6.0.8)) date 2022-10-28 13:13:37*
%MOMM*%
%LPD*%
G01*
G04 APERTURE LIST*
%ADD10C,0.150000*%
G04 APERTURE END LIST*
D10*
X205692976Y-116752380D02*
X206026309Y-116276190D01*
X206264404Y-116752380D02*
X206264404Y-115752380D01*
X205883452Y-115752380D01*
X205788214Y-115800000D01*
X205740595Y-115847619D01*
X205692976Y-115942857D01*
X205692976Y-116085714D01*
X205740595Y-116180952D01*
X205788214Y-116228571D01*
X205883452Y-116276190D01*
X206264404Y-116276190D01*
X204883452Y-116704761D02*
X204978690Y-116752380D01*
X205169166Y-116752380D01*
X205264404Y-116704761D01*
X205312023Y-116609523D01*
X205312023Y-116228571D01*
X205264404Y-116133333D01*
X205169166Y-116085714D01*
X204978690Y-116085714D01*
X204883452Y-116133333D01*
X204835833Y-116228571D01*
X204835833Y-116323809D01*
X205312023Y-116419047D01*
X204454880Y-116704761D02*
X204359642Y-116752380D01*
X204169166Y-116752380D01*
X204073928Y-116704761D01*
X204026309Y-116609523D01*
X204026309Y-116561904D01*
X204073928Y-116466666D01*
X204169166Y-116419047D01*
X204312023Y-116419047D01*
X204407261Y-116371428D01*
X204454880Y-116276190D01*
X204454880Y-116228571D01*
X204407261Y-116133333D01*
X204312023Y-116085714D01*
X204169166Y-116085714D01*
X204073928Y-116133333D01*
X203216785Y-116704761D02*
X203312023Y-116752380D01*
X203502500Y-116752380D01*
X203597738Y-116704761D01*
X203645357Y-116609523D01*
X203645357Y-116228571D01*
X203597738Y-116133333D01*
X203502500Y-116085714D01*
X203312023Y-116085714D01*
X203216785Y-116133333D01*
X203169166Y-116228571D01*
X203169166Y-116323809D01*
X203645357Y-116419047D01*
X202883452Y-116085714D02*
X202502500Y-116085714D01*
X202740595Y-115752380D02*
X202740595Y-116609523D01*
X202692976Y-116704761D01*
X202597738Y-116752380D01*
X202502500Y-116752380D01*
X197907023Y-116228571D02*
X197764166Y-116276190D01*
X197716547Y-116323809D01*
X197668928Y-116419047D01*
X197668928Y-116561904D01*
X197716547Y-116657142D01*
X197764166Y-116704761D01*
X197859404Y-116752380D01*
X198240357Y-116752380D01*
X198240357Y-115752380D01*
X197907023Y-115752380D01*
X197811785Y-115800000D01*
X197764166Y-115847619D01*
X197716547Y-115942857D01*
X197716547Y-116038095D01*
X197764166Y-116133333D01*
X197811785Y-116180952D01*
X197907023Y-116228571D01*
X198240357Y-116228571D01*
X197097500Y-116752380D02*
X197192738Y-116704761D01*
X197240357Y-116657142D01*
X197287976Y-116561904D01*
X197287976Y-116276190D01*
X197240357Y-116180952D01*
X197192738Y-116133333D01*
X197097500Y-116085714D01*
X196954642Y-116085714D01*
X196859404Y-116133333D01*
X196811785Y-116180952D01*
X196764166Y-116276190D01*
X196764166Y-116561904D01*
X196811785Y-116657142D01*
X196859404Y-116704761D01*
X196954642Y-116752380D01*
X197097500Y-116752380D01*
X196192738Y-116752380D02*
X196287976Y-116704761D01*
X196335595Y-116657142D01*
X196383214Y-116561904D01*
X196383214Y-116276190D01*
X196335595Y-116180952D01*
X196287976Y-116133333D01*
X196192738Y-116085714D01*
X196049880Y-116085714D01*
X195954642Y-116133333D01*
X195907023Y-116180952D01*
X195859404Y-116276190D01*
X195859404Y-116561904D01*
X195907023Y-116657142D01*
X195954642Y-116704761D01*
X196049880Y-116752380D01*
X196192738Y-116752380D01*
X195573690Y-116085714D02*
X195192738Y-116085714D01*
X195430833Y-115752380D02*
X195430833Y-116609523D01*
X195383214Y-116704761D01*
X195287976Y-116752380D01*
X195192738Y-116752380D01*
M02*
