%TF.GenerationSoftware,KiCad,Pcbnew,(6.0.8)*%
%TF.CreationDate,2022-10-28T13:13:37+09:00*%
%TF.ProjectId,selen-full_narrow_plate,73656c65-6e2d-4667-956c-6c5f6e617272,rev?*%
%TF.SameCoordinates,Original*%
%TF.FileFunction,Profile,NP*%
%FSLAX46Y46*%
G04 Gerber Fmt 4.6, Leading zero omitted, Abs format (unit mm)*
G04 Created by KiCad (PCBNEW (6.0.8)) date 2022-10-28 13:13:37*
%MOMM*%
%LPD*%
G01*
G04 APERTURE LIST*
%TA.AperFunction,Profile*%
%ADD10C,0.100000*%
%TD*%
%TA.AperFunction,Profile*%
%ADD11C,0.131185*%
%TD*%
G04 APERTURE END LIST*
D10*
X194700000Y-97900000D02*
G75*
G03*
X194700000Y-97900000I-500000J0D01*
G01*
X203900000Y-114900000D02*
G75*
G03*
X203900000Y-114900000I-500000J0D01*
G01*
D11*
X171259908Y-100186737D02*
X171259908Y-114025551D01*
D10*
X196100000Y-114900000D02*
G75*
G03*
X196100000Y-114900000I-500000J0D01*
G01*
D11*
X157421093Y-100186737D02*
X171259908Y-100186737D01*
X155260408Y-77263051D02*
X141421593Y-77263051D01*
X171259908Y-68186737D02*
X171259908Y-82025551D01*
D10*
X206800000Y-99850000D02*
G75*
G03*
X206800000Y-99850000I-500000J0D01*
G01*
D11*
X118497408Y-94090801D02*
X118497408Y-94090801D01*
X120879158Y-96251987D02*
X120879158Y-110090801D01*
X155260408Y-93263051D02*
X155260408Y-93263051D01*
X134497908Y-83454301D02*
X134497908Y-83454301D01*
D10*
X206800000Y-97250000D02*
G75*
G03*
X206800000Y-97250000I-500000J0D01*
G01*
D11*
X191005942Y-142555033D02*
X195282370Y-129393539D01*
X157421093Y-98025551D02*
X157421093Y-98025551D01*
X173420593Y-72790237D02*
X187259408Y-72790237D01*
X157421093Y-68186737D02*
X171259908Y-68186737D01*
D10*
X205200000Y-114900000D02*
G75*
G03*
X205200000Y-114900000I-500000J0D01*
G01*
X195700000Y-95950000D02*
G75*
G03*
X195700000Y-95950000I-500000J0D01*
G01*
D11*
X125421593Y-115454301D02*
X125421593Y-101615487D01*
X155260408Y-109263051D02*
X141421593Y-109263051D01*
X171259908Y-82025551D02*
X157421093Y-82025551D01*
X104658593Y-80251987D02*
X118497408Y-80251987D01*
X139260408Y-101615487D02*
X139260408Y-101615487D01*
X120879158Y-110090801D02*
X120879158Y-110090801D01*
X155260408Y-109263051D02*
X155260408Y-109263051D01*
D10*
X200000000Y-114900000D02*
G75*
G03*
X200000000Y-114900000I-500000J0D01*
G01*
D11*
X187259408Y-72790237D02*
X187259408Y-72790237D01*
D10*
X200000000Y-112900000D02*
G75*
G03*
X200000000Y-112900000I-500000J0D01*
G01*
X130000000Y-117800000D02*
X130000000Y-129800000D01*
D11*
X125421593Y-115454301D02*
X125421593Y-115454301D01*
X118497408Y-80251987D02*
X118497408Y-94090801D01*
X141421593Y-77263051D02*
X141421593Y-63424237D01*
X173420593Y-102629051D02*
X173420593Y-102629051D01*
D10*
X198050000Y-113900000D02*
G75*
G03*
X198050000Y-113900000I-500000J0D01*
G01*
D11*
X187259408Y-88790237D02*
X187259408Y-102629051D01*
D10*
X195700000Y-97250000D02*
G75*
G03*
X195700000Y-97250000I-500000J0D01*
G01*
D11*
X123040343Y-99454301D02*
X123040343Y-99454301D01*
X157421093Y-82025551D02*
X157421093Y-68186737D01*
D10*
X198700000Y-114900000D02*
G75*
G03*
X198700000Y-114900000I-500000J0D01*
G01*
D11*
X136879158Y-99454301D02*
X123040343Y-99454301D01*
X171259908Y-114025551D02*
X171259908Y-114025551D01*
D10*
X194700000Y-100500000D02*
G75*
G03*
X194700000Y-100500000I-500000J0D01*
G01*
D11*
X134497908Y-83454301D02*
X120659093Y-83454301D01*
D10*
X170000000Y-129800000D02*
X170000000Y-117800000D01*
X207150000Y-113900000D02*
G75*
G03*
X207150000Y-113900000I-500000J0D01*
G01*
X206800000Y-101150000D02*
G75*
G03*
X206800000Y-101150000I-500000J0D01*
G01*
D11*
X187259408Y-86629051D02*
X173420593Y-86629051D01*
X173420593Y-118629301D02*
X173420593Y-104790487D01*
D10*
X207800000Y-99200000D02*
G75*
G03*
X207800000Y-99200000I-500000J0D01*
G01*
D11*
X120659093Y-69615487D02*
X134497908Y-69615487D01*
D10*
X205200000Y-112900000D02*
G75*
G03*
X205200000Y-112900000I-500000J0D01*
G01*
D11*
X187259408Y-118629301D02*
X173420593Y-118629301D01*
D10*
X194700000Y-96600000D02*
G75*
G03*
X194700000Y-96600000I-500000J0D01*
G01*
D11*
X187259408Y-104790487D02*
X187259408Y-118629301D01*
X157421093Y-114025551D02*
X157421093Y-100186737D01*
D10*
X196100000Y-112900000D02*
G75*
G03*
X196100000Y-112900000I-500000J0D01*
G01*
D11*
X123260408Y-126090551D02*
X109421593Y-126090551D01*
X123260408Y-112251737D02*
X123260408Y-126090551D01*
D10*
X195450000Y-113900000D02*
G75*
G03*
X195450000Y-113900000I-500000J0D01*
G01*
D11*
X173420593Y-86629051D02*
X173420593Y-72790237D01*
X204167437Y-146831462D02*
X204167437Y-146831462D01*
X187259408Y-118629301D02*
X187259408Y-118629301D01*
X141421593Y-109263051D02*
X141421593Y-109263051D01*
D10*
X199350000Y-113900000D02*
G75*
G03*
X199350000Y-113900000I-500000J0D01*
G01*
D11*
X118497408Y-80251987D02*
X118497408Y-80251987D01*
X109421593Y-112251737D02*
X123260408Y-112251737D01*
D10*
X201300000Y-112900000D02*
G75*
G03*
X201300000Y-112900000I-500000J0D01*
G01*
X196750000Y-113900000D02*
G75*
G03*
X196750000Y-113900000I-500000J0D01*
G01*
D11*
X141421593Y-77263051D02*
X141421593Y-77263051D01*
X141421593Y-79424237D02*
X155260408Y-79424237D01*
X118497408Y-94090801D02*
X104658593Y-94090801D01*
X157421093Y-82025551D02*
X157421093Y-82025551D01*
X109421593Y-126090551D02*
X109421593Y-112251737D01*
X172735223Y-139254809D02*
X172735223Y-139254809D01*
X171259908Y-98025551D02*
X157421093Y-98025551D01*
X171259908Y-82025551D02*
X171259908Y-82025551D01*
D10*
X197400000Y-114900000D02*
G75*
G03*
X197400000Y-114900000I-500000J0D01*
G01*
D11*
X104658593Y-94090801D02*
X104658593Y-94090801D01*
D10*
X200650000Y-113900000D02*
G75*
G03*
X200650000Y-113900000I-500000J0D01*
G01*
D11*
X107040343Y-96251987D02*
X120879158Y-96251987D01*
X187259408Y-102629051D02*
X173420593Y-102629051D01*
D10*
X198700000Y-112900000D02*
G75*
G03*
X198700000Y-112900000I-500000J0D01*
G01*
D11*
X187259408Y-86629051D02*
X187259408Y-86629051D01*
D10*
X194700000Y-99200000D02*
G75*
G03*
X194700000Y-99200000I-500000J0D01*
G01*
X197400000Y-112900000D02*
G75*
G03*
X197400000Y-112900000I-500000J0D01*
G01*
D11*
X139260408Y-115454301D02*
X139260408Y-115454301D01*
X120879158Y-110090801D02*
X107040343Y-110090801D01*
X157421093Y-114025551D02*
X157421093Y-114025551D01*
D10*
X195700000Y-101150000D02*
G75*
G03*
X195700000Y-101150000I-500000J0D01*
G01*
D11*
X171259908Y-68186737D02*
X171259908Y-68186737D01*
X171259908Y-100186737D02*
X171259908Y-100186737D01*
X173420593Y-86629051D02*
X173420593Y-86629051D01*
X155260408Y-79424237D02*
X155260408Y-93263051D01*
D10*
X202600000Y-114900000D02*
G75*
G03*
X202600000Y-114900000I-500000J0D01*
G01*
D11*
X208443865Y-133669968D02*
X204167437Y-146831462D01*
X141421593Y-63424237D02*
X155260408Y-63424237D01*
X104658593Y-94090801D02*
X104658593Y-80251987D01*
X187259408Y-104790487D02*
X187259408Y-104790487D01*
D10*
X207800000Y-100500000D02*
G75*
G03*
X207800000Y-100500000I-500000J0D01*
G01*
D11*
X123260408Y-112251737D02*
X123260408Y-112251737D01*
X187944778Y-126938355D02*
X186498228Y-140701359D01*
X123040343Y-99454301D02*
X123040343Y-85615487D01*
D10*
X203900000Y-112900000D02*
G75*
G03*
X203900000Y-112900000I-500000J0D01*
G01*
D11*
X186498228Y-140701359D02*
X172735223Y-139254809D01*
X120659093Y-83454301D02*
X120659093Y-69615487D01*
X173420593Y-118629301D02*
X173420593Y-118629301D01*
X204167437Y-146831462D02*
X191005942Y-142555033D01*
X171259908Y-98025551D02*
X171259908Y-98025551D01*
D10*
X170000000Y-117800000D02*
X130000000Y-117800000D01*
X202600000Y-112900000D02*
G75*
G03*
X202600000Y-112900000I-500000J0D01*
G01*
D11*
X109421593Y-126090551D02*
X109421593Y-126090551D01*
D10*
X195700000Y-99850000D02*
G75*
G03*
X195700000Y-99850000I-500000J0D01*
G01*
D11*
X120879158Y-96251987D02*
X120879158Y-96251987D01*
X174181773Y-125491805D02*
X187944778Y-126938355D01*
D10*
X130000000Y-129800000D02*
X170000000Y-129800000D01*
X204550000Y-113900000D02*
G75*
G03*
X204550000Y-113900000I-500000J0D01*
G01*
D11*
X141421593Y-109263051D02*
X141421593Y-95424237D01*
X107040343Y-110090801D02*
X107040343Y-96251987D01*
X173420593Y-102629051D02*
X173420593Y-88790237D01*
D10*
X195700000Y-98550000D02*
G75*
G03*
X195700000Y-98550000I-500000J0D01*
G01*
D11*
X141421593Y-93263051D02*
X141421593Y-79424237D01*
X208443865Y-133669968D02*
X208443865Y-133669968D01*
X155260408Y-77263051D02*
X155260408Y-77263051D01*
X155260408Y-95424237D02*
X155260408Y-95424237D01*
X171259908Y-84186737D02*
X171259908Y-84186737D01*
D10*
X201950000Y-113900000D02*
G75*
G03*
X201950000Y-113900000I-500000J0D01*
G01*
D11*
X155260408Y-79424237D02*
X155260408Y-79424237D01*
D10*
X203250000Y-113900000D02*
G75*
G03*
X203250000Y-113900000I-500000J0D01*
G01*
X205850000Y-113900000D02*
G75*
G03*
X205850000Y-113900000I-500000J0D01*
G01*
D11*
X187259408Y-72790237D02*
X187259408Y-86629051D01*
X171259908Y-114025551D02*
X157421093Y-114025551D01*
X155260408Y-93263051D02*
X141421593Y-93263051D01*
X157421093Y-98025551D02*
X157421093Y-84186737D01*
X141421593Y-93263051D02*
X141421593Y-93263051D01*
X139260408Y-101615487D02*
X139260408Y-115454301D01*
D10*
X207800000Y-97900000D02*
G75*
G03*
X207800000Y-97900000I-500000J0D01*
G01*
D11*
X134497908Y-69615487D02*
X134497908Y-69615487D01*
D10*
X206500000Y-112900000D02*
G75*
G03*
X206500000Y-112900000I-500000J0D01*
G01*
D11*
X136879158Y-85615487D02*
X136879158Y-85615487D01*
X171259908Y-84186737D02*
X171259908Y-98025551D01*
X141421593Y-95424237D02*
X155260408Y-95424237D01*
X173420593Y-104790487D02*
X187259408Y-104790487D01*
X155260408Y-95424237D02*
X155260408Y-109263051D01*
X139260408Y-115454301D02*
X125421593Y-115454301D01*
X172735223Y-139254809D02*
X174181773Y-125491805D01*
X191005942Y-142555033D02*
X191005942Y-142555033D01*
X134497908Y-69615487D02*
X134497908Y-83454301D01*
X155260408Y-63424237D02*
X155260408Y-77263051D01*
X187259408Y-102629051D02*
X187259408Y-102629051D01*
D10*
X206800000Y-98550000D02*
G75*
G03*
X206800000Y-98550000I-500000J0D01*
G01*
D11*
X157421093Y-84186737D02*
X171259908Y-84186737D01*
D10*
X206500000Y-114900000D02*
G75*
G03*
X206500000Y-114900000I-500000J0D01*
G01*
X206800000Y-95950000D02*
G75*
G03*
X206800000Y-95950000I-500000J0D01*
G01*
D11*
X123260408Y-126090551D02*
X123260408Y-126090551D01*
X120659093Y-83454301D02*
X120659093Y-83454301D01*
X125421593Y-101615487D02*
X139260408Y-101615487D01*
X187944778Y-126938355D02*
X187944778Y-126938355D01*
X155260408Y-63424237D02*
X155260408Y-63424237D01*
D10*
X201300000Y-114900000D02*
G75*
G03*
X201300000Y-114900000I-500000J0D01*
G01*
X194000000Y-71400000D02*
X194000000Y-93471727D01*
X196000000Y-93471757D01*
X196000000Y-101100000D01*
X205500000Y-101100000D01*
X205500000Y-93471901D01*
X212000000Y-93472000D01*
X212000000Y-124000000D01*
X201200000Y-120400000D01*
X198600000Y-128200000D01*
X211200000Y-132600000D01*
X205600000Y-149400000D01*
X182750000Y-143750000D01*
X163800000Y-139400000D01*
X142000000Y-134400000D01*
X107567869Y-126873043D01*
X101950000Y-96200000D01*
X101950000Y-78400000D01*
X118600000Y-67600000D01*
X139400000Y-61400000D01*
X158800000Y-61400000D01*
X194000000Y-71400000D01*
D11*
X107040343Y-110090801D02*
X107040343Y-110090801D01*
X187259408Y-88790237D02*
X187259408Y-88790237D01*
X136879158Y-85615487D02*
X136879158Y-99454301D01*
X186498228Y-140701359D02*
X186498228Y-140701359D01*
X136879158Y-99454301D02*
X136879158Y-99454301D01*
X123040343Y-85615487D02*
X136879158Y-85615487D01*
X195282370Y-129393539D02*
X208443865Y-133669968D01*
X173420593Y-88790237D02*
X187259408Y-88790237D01*
D10*
X207800000Y-96600000D02*
G75*
G03*
X207800000Y-96600000I-500000J0D01*
G01*
X103666666Y-149600000D02*
G75*
G03*
X103666666Y-149600000I-1666666J0D01*
G01*
X99500000Y-149600000D02*
X104500000Y-149600000D01*
X102000000Y-147100000D02*
X102000000Y-152100000D01*
M02*
