%TF.GenerationSoftware,KiCad,Pcbnew,(6.0.8)*%
%TF.CreationDate,2022-10-28T13:13:37+09:00*%
%TF.ProjectId,selen-full_narrow_plate,73656c65-6e2d-4667-956c-6c5f6e617272,rev?*%
%TF.SameCoordinates,Original*%
%TF.FileFunction,Legend,Top*%
%TF.FilePolarity,Positive*%
%FSLAX46Y46*%
G04 Gerber Fmt 4.6, Leading zero omitted, Abs format (unit mm)*
G04 Created by KiCad (PCBNEW (6.0.8)) date 2022-10-28 13:13:37*
%MOMM*%
%LPD*%
G01*
G04 APERTURE LIST*
%ADD10C,0.150000*%
G04 APERTURE END LIST*
D10*
X195907023Y-116752380D02*
X195573690Y-116276190D01*
X195335595Y-116752380D02*
X195335595Y-115752380D01*
X195716547Y-115752380D01*
X195811785Y-115800000D01*
X195859404Y-115847619D01*
X195907023Y-115942857D01*
X195907023Y-116085714D01*
X195859404Y-116180952D01*
X195811785Y-116228571D01*
X195716547Y-116276190D01*
X195335595Y-116276190D01*
X196716547Y-116704761D02*
X196621309Y-116752380D01*
X196430833Y-116752380D01*
X196335595Y-116704761D01*
X196287976Y-116609523D01*
X196287976Y-116228571D01*
X196335595Y-116133333D01*
X196430833Y-116085714D01*
X196621309Y-116085714D01*
X196716547Y-116133333D01*
X196764166Y-116228571D01*
X196764166Y-116323809D01*
X196287976Y-116419047D01*
X197145119Y-116704761D02*
X197240357Y-116752380D01*
X197430833Y-116752380D01*
X197526071Y-116704761D01*
X197573690Y-116609523D01*
X197573690Y-116561904D01*
X197526071Y-116466666D01*
X197430833Y-116419047D01*
X197287976Y-116419047D01*
X197192738Y-116371428D01*
X197145119Y-116276190D01*
X197145119Y-116228571D01*
X197192738Y-116133333D01*
X197287976Y-116085714D01*
X197430833Y-116085714D01*
X197526071Y-116133333D01*
X198383214Y-116704761D02*
X198287976Y-116752380D01*
X198097500Y-116752380D01*
X198002261Y-116704761D01*
X197954642Y-116609523D01*
X197954642Y-116228571D01*
X198002261Y-116133333D01*
X198097500Y-116085714D01*
X198287976Y-116085714D01*
X198383214Y-116133333D01*
X198430833Y-116228571D01*
X198430833Y-116323809D01*
X197954642Y-116419047D01*
X198716547Y-116085714D02*
X199097500Y-116085714D01*
X198859404Y-115752380D02*
X198859404Y-116609523D01*
X198907023Y-116704761D01*
X199002261Y-116752380D01*
X199097500Y-116752380D01*
X203692976Y-116228571D02*
X203835833Y-116276190D01*
X203883452Y-116323809D01*
X203931071Y-116419047D01*
X203931071Y-116561904D01*
X203883452Y-116657142D01*
X203835833Y-116704761D01*
X203740595Y-116752380D01*
X203359642Y-116752380D01*
X203359642Y-115752380D01*
X203692976Y-115752380D01*
X203788214Y-115800000D01*
X203835833Y-115847619D01*
X203883452Y-115942857D01*
X203883452Y-116038095D01*
X203835833Y-116133333D01*
X203788214Y-116180952D01*
X203692976Y-116228571D01*
X203359642Y-116228571D01*
X204502500Y-116752380D02*
X204407261Y-116704761D01*
X204359642Y-116657142D01*
X204312023Y-116561904D01*
X204312023Y-116276190D01*
X204359642Y-116180952D01*
X204407261Y-116133333D01*
X204502500Y-116085714D01*
X204645357Y-116085714D01*
X204740595Y-116133333D01*
X204788214Y-116180952D01*
X204835833Y-116276190D01*
X204835833Y-116561904D01*
X204788214Y-116657142D01*
X204740595Y-116704761D01*
X204645357Y-116752380D01*
X204502500Y-116752380D01*
X205407261Y-116752380D02*
X205312023Y-116704761D01*
X205264404Y-116657142D01*
X205216785Y-116561904D01*
X205216785Y-116276190D01*
X205264404Y-116180952D01*
X205312023Y-116133333D01*
X205407261Y-116085714D01*
X205550119Y-116085714D01*
X205645357Y-116133333D01*
X205692976Y-116180952D01*
X205740595Y-116276190D01*
X205740595Y-116561904D01*
X205692976Y-116657142D01*
X205645357Y-116704761D01*
X205550119Y-116752380D01*
X205407261Y-116752380D01*
X206026309Y-116085714D02*
X206407261Y-116085714D01*
X206169166Y-115752380D02*
X206169166Y-116609523D01*
X206216785Y-116704761D01*
X206312023Y-116752380D01*
X206407261Y-116752380D01*
M02*
