%TF.GenerationSoftware,KiCad,Pcbnew,(6.0.8)*%
%TF.CreationDate,2022-10-28T13:13:37+09:00*%
%TF.ProjectId,selen-full_narrow_plate,73656c65-6e2d-4667-956c-6c5f6e617272,rev?*%
%TF.SameCoordinates,Original*%
%TF.FileFunction,Soldermask,Top*%
%TF.FilePolarity,Negative*%
%FSLAX46Y46*%
G04 Gerber Fmt 4.6, Leading zero omitted, Abs format (unit mm)*
G04 Created by KiCad (PCBNEW (6.0.8)) date 2022-10-28 13:13:37*
%MOMM*%
%LPD*%
G01*
G04 APERTURE LIST*
%ADD10C,0.150000*%
G04 APERTURE END LIST*
D10*
X139457142Y-117052380D02*
X139457142Y-116052380D01*
X139838095Y-116052380D01*
X139933333Y-116100000D01*
X139980952Y-116147619D01*
X140028571Y-116242857D01*
X140028571Y-116385714D01*
X139980952Y-116480952D01*
X139933333Y-116528571D01*
X139838095Y-116576190D01*
X139457142Y-116576190D01*
X141028571Y-116957142D02*
X140980952Y-117004761D01*
X140838095Y-117052380D01*
X140742857Y-117052380D01*
X140600000Y-117004761D01*
X140504761Y-116909523D01*
X140457142Y-116814285D01*
X140409523Y-116623809D01*
X140409523Y-116480952D01*
X140457142Y-116290476D01*
X140504761Y-116195238D01*
X140600000Y-116100000D01*
X140742857Y-116052380D01*
X140838095Y-116052380D01*
X140980952Y-116100000D01*
X141028571Y-116147619D01*
X141790476Y-116528571D02*
X141933333Y-116576190D01*
X141980952Y-116623809D01*
X142028571Y-116719047D01*
X142028571Y-116861904D01*
X141980952Y-116957142D01*
X141933333Y-117004761D01*
X141838095Y-117052380D01*
X141457142Y-117052380D01*
X141457142Y-116052380D01*
X141790476Y-116052380D01*
X141885714Y-116100000D01*
X141933333Y-116147619D01*
X141980952Y-116242857D01*
X141980952Y-116338095D01*
X141933333Y-116433333D01*
X141885714Y-116480952D01*
X141790476Y-116528571D01*
X141457142Y-116528571D01*
X143219047Y-117052380D02*
X143219047Y-116052380D01*
X143457142Y-116052380D01*
X143600000Y-116100000D01*
X143695238Y-116195238D01*
X143742857Y-116290476D01*
X143790476Y-116480952D01*
X143790476Y-116623809D01*
X143742857Y-116814285D01*
X143695238Y-116909523D01*
X143600000Y-117004761D01*
X143457142Y-117052380D01*
X143219047Y-117052380D01*
X144600000Y-117004761D02*
X144504761Y-117052380D01*
X144314285Y-117052380D01*
X144219047Y-117004761D01*
X144171428Y-116909523D01*
X144171428Y-116528571D01*
X144219047Y-116433333D01*
X144314285Y-116385714D01*
X144504761Y-116385714D01*
X144600000Y-116433333D01*
X144647619Y-116528571D01*
X144647619Y-116623809D01*
X144171428Y-116719047D01*
X145028571Y-117004761D02*
X145123809Y-117052380D01*
X145314285Y-117052380D01*
X145409523Y-117004761D01*
X145457142Y-116909523D01*
X145457142Y-116861904D01*
X145409523Y-116766666D01*
X145314285Y-116719047D01*
X145171428Y-116719047D01*
X145076190Y-116671428D01*
X145028571Y-116576190D01*
X145028571Y-116528571D01*
X145076190Y-116433333D01*
X145171428Y-116385714D01*
X145314285Y-116385714D01*
X145409523Y-116433333D01*
X145885714Y-117052380D02*
X145885714Y-116385714D01*
X145885714Y-116052380D02*
X145838095Y-116100000D01*
X145885714Y-116147619D01*
X145933333Y-116100000D01*
X145885714Y-116052380D01*
X145885714Y-116147619D01*
X146790476Y-116385714D02*
X146790476Y-117195238D01*
X146742857Y-117290476D01*
X146695238Y-117338095D01*
X146600000Y-117385714D01*
X146457142Y-117385714D01*
X146361904Y-117338095D01*
X146790476Y-117004761D02*
X146695238Y-117052380D01*
X146504761Y-117052380D01*
X146409523Y-117004761D01*
X146361904Y-116957142D01*
X146314285Y-116861904D01*
X146314285Y-116576190D01*
X146361904Y-116480952D01*
X146409523Y-116433333D01*
X146504761Y-116385714D01*
X146695238Y-116385714D01*
X146790476Y-116433333D01*
X147266666Y-116385714D02*
X147266666Y-117052380D01*
X147266666Y-116480952D02*
X147314285Y-116433333D01*
X147409523Y-116385714D01*
X147552380Y-116385714D01*
X147647619Y-116433333D01*
X147695238Y-116528571D01*
X147695238Y-117052380D01*
X148552380Y-117004761D02*
X148457142Y-117052380D01*
X148266666Y-117052380D01*
X148171428Y-117004761D01*
X148123809Y-116909523D01*
X148123809Y-116528571D01*
X148171428Y-116433333D01*
X148266666Y-116385714D01*
X148457142Y-116385714D01*
X148552380Y-116433333D01*
X148600000Y-116528571D01*
X148600000Y-116623809D01*
X148123809Y-116719047D01*
X149457142Y-117052380D02*
X149457142Y-116052380D01*
X149457142Y-117004761D02*
X149361904Y-117052380D01*
X149171428Y-117052380D01*
X149076190Y-117004761D01*
X149028571Y-116957142D01*
X148980952Y-116861904D01*
X148980952Y-116576190D01*
X149028571Y-116480952D01*
X149076190Y-116433333D01*
X149171428Y-116385714D01*
X149361904Y-116385714D01*
X149457142Y-116433333D01*
X150695238Y-117052380D02*
X150695238Y-116052380D01*
X150695238Y-116433333D02*
X150790476Y-116385714D01*
X150980952Y-116385714D01*
X151076190Y-116433333D01*
X151123809Y-116480952D01*
X151171428Y-116576190D01*
X151171428Y-116861904D01*
X151123809Y-116957142D01*
X151076190Y-117004761D01*
X150980952Y-117052380D01*
X150790476Y-117052380D01*
X150695238Y-117004761D01*
X151504761Y-116385714D02*
X151742857Y-117052380D01*
X151980952Y-116385714D02*
X151742857Y-117052380D01*
X151647619Y-117290476D01*
X151600000Y-117338095D01*
X151504761Y-117385714D01*
X153742857Y-116576190D02*
X153695238Y-116528571D01*
X153600000Y-116480952D01*
X153504761Y-116480952D01*
X153409523Y-116528571D01*
X153361904Y-116576190D01*
X153314285Y-116671428D01*
X153314285Y-116766666D01*
X153361904Y-116861904D01*
X153409523Y-116909523D01*
X153504761Y-116957142D01*
X153600000Y-116957142D01*
X153695238Y-116909523D01*
X153742857Y-116861904D01*
X153742857Y-116480952D02*
X153742857Y-116861904D01*
X153790476Y-116909523D01*
X153838095Y-116909523D01*
X153933333Y-116861904D01*
X153980952Y-116766666D01*
X153980952Y-116528571D01*
X153885714Y-116385714D01*
X153742857Y-116290476D01*
X153552380Y-116242857D01*
X153361904Y-116290476D01*
X153219047Y-116385714D01*
X153123809Y-116528571D01*
X153076190Y-116719047D01*
X153123809Y-116909523D01*
X153219047Y-117052380D01*
X153361904Y-117147619D01*
X153552380Y-117195238D01*
X153742857Y-117147619D01*
X153885714Y-117052380D01*
X154409523Y-116385714D02*
X154409523Y-117052380D01*
X154409523Y-116480952D02*
X154457142Y-116433333D01*
X154552380Y-116385714D01*
X154695238Y-116385714D01*
X154790476Y-116433333D01*
X154838095Y-116528571D01*
X154838095Y-117052380D01*
X155742857Y-117052380D02*
X155742857Y-116528571D01*
X155695238Y-116433333D01*
X155600000Y-116385714D01*
X155409523Y-116385714D01*
X155314285Y-116433333D01*
X155742857Y-117004761D02*
X155647619Y-117052380D01*
X155409523Y-117052380D01*
X155314285Y-117004761D01*
X155266666Y-116909523D01*
X155266666Y-116814285D01*
X155314285Y-116719047D01*
X155409523Y-116671428D01*
X155647619Y-116671428D01*
X155742857Y-116623809D01*
X156219047Y-117052380D02*
X156219047Y-116385714D01*
X156219047Y-116576190D02*
X156266666Y-116480952D01*
X156314285Y-116433333D01*
X156409523Y-116385714D01*
X156504761Y-116385714D01*
X156838095Y-117052380D02*
X156838095Y-116385714D01*
X156838095Y-116052380D02*
X156790476Y-116100000D01*
X156838095Y-116147619D01*
X156885714Y-116100000D01*
X156838095Y-116052380D01*
X156838095Y-116147619D01*
X157314285Y-116385714D02*
X157314285Y-117052380D01*
X157314285Y-116480952D02*
X157361904Y-116433333D01*
X157457142Y-116385714D01*
X157600000Y-116385714D01*
X157695238Y-116433333D01*
X157742857Y-116528571D01*
X157742857Y-117052380D01*
X158647619Y-117052380D02*
X158647619Y-116528571D01*
X158600000Y-116433333D01*
X158504761Y-116385714D01*
X158314285Y-116385714D01*
X158219047Y-116433333D01*
X158647619Y-117004761D02*
X158552380Y-117052380D01*
X158314285Y-117052380D01*
X158219047Y-117004761D01*
X158171428Y-116909523D01*
X158171428Y-116814285D01*
X158219047Y-116719047D01*
X158314285Y-116671428D01*
X158552380Y-116671428D01*
X158647619Y-116623809D01*
X159123809Y-117052380D02*
X159123809Y-116385714D01*
X159123809Y-116576190D02*
X159171428Y-116480952D01*
X159219047Y-116433333D01*
X159314285Y-116385714D01*
X159409523Y-116385714D01*
X159742857Y-117052380D02*
X159742857Y-116385714D01*
X159742857Y-116052380D02*
X159695238Y-116100000D01*
X159742857Y-116147619D01*
X159790476Y-116100000D01*
X159742857Y-116052380D01*
X159742857Y-116147619D01*
X140790476Y-115204761D02*
X140933333Y-115252380D01*
X141171428Y-115252380D01*
X141266666Y-115204761D01*
X141314285Y-115157142D01*
X141361904Y-115061904D01*
X141361904Y-114966666D01*
X141314285Y-114871428D01*
X141266666Y-114823809D01*
X141171428Y-114776190D01*
X140980952Y-114728571D01*
X140885714Y-114680952D01*
X140838095Y-114633333D01*
X140790476Y-114538095D01*
X140790476Y-114442857D01*
X140838095Y-114347619D01*
X140885714Y-114300000D01*
X140980952Y-114252380D01*
X141219047Y-114252380D01*
X141361904Y-114300000D01*
X142171428Y-115204761D02*
X142076190Y-115252380D01*
X141885714Y-115252380D01*
X141790476Y-115204761D01*
X141742857Y-115109523D01*
X141742857Y-114728571D01*
X141790476Y-114633333D01*
X141885714Y-114585714D01*
X142076190Y-114585714D01*
X142171428Y-114633333D01*
X142219047Y-114728571D01*
X142219047Y-114823809D01*
X141742857Y-114919047D01*
X142790476Y-115252380D02*
X142695238Y-115204761D01*
X142647619Y-115109523D01*
X142647619Y-114252380D01*
X143552380Y-115204761D02*
X143457142Y-115252380D01*
X143266666Y-115252380D01*
X143171428Y-115204761D01*
X143123809Y-115109523D01*
X143123809Y-114728571D01*
X143171428Y-114633333D01*
X143266666Y-114585714D01*
X143457142Y-114585714D01*
X143552380Y-114633333D01*
X143600000Y-114728571D01*
X143600000Y-114823809D01*
X143123809Y-114919047D01*
X144028571Y-114585714D02*
X144028571Y-115252380D01*
X144028571Y-114680952D02*
X144076190Y-114633333D01*
X144171428Y-114585714D01*
X144314285Y-114585714D01*
X144409523Y-114633333D01*
X144457142Y-114728571D01*
X144457142Y-115252380D01*
X145695238Y-115252380D02*
X145695238Y-114585714D01*
X145695238Y-114776190D02*
X145742857Y-114680952D01*
X145790476Y-114633333D01*
X145885714Y-114585714D01*
X145980952Y-114585714D01*
X146266666Y-114347619D02*
X146314285Y-114300000D01*
X146409523Y-114252380D01*
X146647619Y-114252380D01*
X146742857Y-114300000D01*
X146790476Y-114347619D01*
X146838095Y-114442857D01*
X146838095Y-114538095D01*
X146790476Y-114680952D01*
X146219047Y-115252380D01*
X146838095Y-115252380D01*
X147933333Y-114585714D02*
X148171428Y-115252380D01*
X148409523Y-114585714D01*
X148790476Y-115157142D02*
X148838095Y-115204761D01*
X148790476Y-115252380D01*
X148742857Y-115204761D01*
X148790476Y-115157142D01*
X148790476Y-115252380D01*
X149457142Y-114252380D02*
X149552380Y-114252380D01*
X149647619Y-114300000D01*
X149695238Y-114347619D01*
X149742857Y-114442857D01*
X149790476Y-114633333D01*
X149790476Y-114871428D01*
X149742857Y-115061904D01*
X149695238Y-115157142D01*
X149647619Y-115204761D01*
X149552380Y-115252380D01*
X149457142Y-115252380D01*
X149361904Y-115204761D01*
X149314285Y-115157142D01*
X149266666Y-115061904D01*
X149219047Y-114871428D01*
X149219047Y-114633333D01*
X149266666Y-114442857D01*
X149314285Y-114347619D01*
X149361904Y-114300000D01*
X149457142Y-114252380D01*
X150219047Y-115157142D02*
X150266666Y-115204761D01*
X150219047Y-115252380D01*
X150171428Y-115204761D01*
X150219047Y-115157142D01*
X150219047Y-115252380D01*
X150600000Y-114252380D02*
X151219047Y-114252380D01*
X150885714Y-114633333D01*
X151028571Y-114633333D01*
X151123809Y-114680952D01*
X151171428Y-114728571D01*
X151219047Y-114823809D01*
X151219047Y-115061904D01*
X151171428Y-115157142D01*
X151123809Y-115204761D01*
X151028571Y-115252380D01*
X150742857Y-115252380D01*
X150647619Y-115204761D01*
X150600000Y-115157142D01*
X151647619Y-115157142D02*
X151695238Y-115204761D01*
X151647619Y-115252380D01*
X151600000Y-115204761D01*
X151647619Y-115157142D01*
X151647619Y-115252380D01*
X152314285Y-114252380D02*
X152409523Y-114252380D01*
X152504761Y-114300000D01*
X152552380Y-114347619D01*
X152600000Y-114442857D01*
X152647619Y-114633333D01*
X152647619Y-114871428D01*
X152600000Y-115061904D01*
X152552380Y-115157142D01*
X152504761Y-115204761D01*
X152409523Y-115252380D01*
X152314285Y-115252380D01*
X152219047Y-115204761D01*
X152171428Y-115157142D01*
X152123809Y-115061904D01*
X152076190Y-114871428D01*
X152076190Y-114633333D01*
X152123809Y-114442857D01*
X152171428Y-114347619D01*
X152219047Y-114300000D01*
X152314285Y-114252380D01*
X153838095Y-114585714D02*
X153838095Y-115252380D01*
X153838095Y-114680952D02*
X153885714Y-114633333D01*
X153980952Y-114585714D01*
X154123809Y-114585714D01*
X154219047Y-114633333D01*
X154266666Y-114728571D01*
X154266666Y-115252380D01*
X155171428Y-115252380D02*
X155171428Y-114728571D01*
X155123809Y-114633333D01*
X155028571Y-114585714D01*
X154838095Y-114585714D01*
X154742857Y-114633333D01*
X155171428Y-115204761D02*
X155076190Y-115252380D01*
X154838095Y-115252380D01*
X154742857Y-115204761D01*
X154695238Y-115109523D01*
X154695238Y-115014285D01*
X154742857Y-114919047D01*
X154838095Y-114871428D01*
X155076190Y-114871428D01*
X155171428Y-114823809D01*
X155647619Y-115252380D02*
X155647619Y-114585714D01*
X155647619Y-114776190D02*
X155695238Y-114680952D01*
X155742857Y-114633333D01*
X155838095Y-114585714D01*
X155933333Y-114585714D01*
X156266666Y-115252380D02*
X156266666Y-114585714D01*
X156266666Y-114776190D02*
X156314285Y-114680952D01*
X156361904Y-114633333D01*
X156457142Y-114585714D01*
X156552380Y-114585714D01*
X157028571Y-115252380D02*
X156933333Y-115204761D01*
X156885714Y-115157142D01*
X156838095Y-115061904D01*
X156838095Y-114776190D01*
X156885714Y-114680952D01*
X156933333Y-114633333D01*
X157028571Y-114585714D01*
X157171428Y-114585714D01*
X157266666Y-114633333D01*
X157314285Y-114680952D01*
X157361904Y-114776190D01*
X157361904Y-115061904D01*
X157314285Y-115157142D01*
X157266666Y-115204761D01*
X157171428Y-115252380D01*
X157028571Y-115252380D01*
X157695238Y-114585714D02*
X157885714Y-115252380D01*
X158076190Y-114776190D01*
X158266666Y-115252380D01*
X158457142Y-114585714D01*
X152576190Y-57002380D02*
X152004761Y-57002380D01*
X152290476Y-57002380D02*
X152290476Y-56002380D01*
X152195238Y-56145238D01*
X152100000Y-56240476D01*
X152004761Y-56288095D01*
X153195238Y-56002380D02*
X153290476Y-56002380D01*
X153385714Y-56050000D01*
X153433333Y-56097619D01*
X153480952Y-56192857D01*
X153528571Y-56383333D01*
X153528571Y-56621428D01*
X153480952Y-56811904D01*
X153433333Y-56907142D01*
X153385714Y-56954761D01*
X153290476Y-57002380D01*
X153195238Y-57002380D01*
X153100000Y-56954761D01*
X153052380Y-56907142D01*
X153004761Y-56811904D01*
X152957142Y-56621428D01*
X152957142Y-56383333D01*
X153004761Y-56192857D01*
X153052380Y-56097619D01*
X153100000Y-56050000D01*
X153195238Y-56002380D01*
X154004761Y-57002380D02*
X154195238Y-57002380D01*
X154290476Y-56954761D01*
X154338095Y-56907142D01*
X154433333Y-56764285D01*
X154480952Y-56573809D01*
X154480952Y-56192857D01*
X154433333Y-56097619D01*
X154385714Y-56050000D01*
X154290476Y-56002380D01*
X154100000Y-56002380D01*
X154004761Y-56050000D01*
X153957142Y-56097619D01*
X153909523Y-56192857D01*
X153909523Y-56430952D01*
X153957142Y-56526190D01*
X154004761Y-56573809D01*
X154100000Y-56621428D01*
X154290476Y-56621428D01*
X154385714Y-56573809D01*
X154433333Y-56526190D01*
X154480952Y-56430952D01*
X154909523Y-56907142D02*
X154957142Y-56954761D01*
X154909523Y-57002380D01*
X154861904Y-56954761D01*
X154909523Y-56907142D01*
X154909523Y-57002380D01*
X155528571Y-56430952D02*
X155433333Y-56383333D01*
X155385714Y-56335714D01*
X155338095Y-56240476D01*
X155338095Y-56192857D01*
X155385714Y-56097619D01*
X155433333Y-56050000D01*
X155528571Y-56002380D01*
X155719047Y-56002380D01*
X155814285Y-56050000D01*
X155861904Y-56097619D01*
X155909523Y-56192857D01*
X155909523Y-56240476D01*
X155861904Y-56335714D01*
X155814285Y-56383333D01*
X155719047Y-56430952D01*
X155528571Y-56430952D01*
X155433333Y-56478571D01*
X155385714Y-56526190D01*
X155338095Y-56621428D01*
X155338095Y-56811904D01*
X155385714Y-56907142D01*
X155433333Y-56954761D01*
X155528571Y-57002380D01*
X155719047Y-57002380D01*
X155814285Y-56954761D01*
X155861904Y-56907142D01*
X155909523Y-56811904D01*
X155909523Y-56621428D01*
X155861904Y-56526190D01*
X155814285Y-56478571D01*
X155719047Y-56430952D01*
X156528571Y-56002380D02*
X156623809Y-56002380D01*
X156719047Y-56050000D01*
X156766666Y-56097619D01*
X156814285Y-56192857D01*
X156861904Y-56383333D01*
X156861904Y-56621428D01*
X156814285Y-56811904D01*
X156766666Y-56907142D01*
X156719047Y-56954761D01*
X156623809Y-57002380D01*
X156528571Y-57002380D01*
X156433333Y-56954761D01*
X156385714Y-56907142D01*
X156338095Y-56811904D01*
X156290476Y-56621428D01*
X156290476Y-56383333D01*
X156338095Y-56192857D01*
X156385714Y-56097619D01*
X156433333Y-56050000D01*
X156528571Y-56002380D01*
X157480952Y-56002380D02*
X157576190Y-56002380D01*
X157671428Y-56050000D01*
X157719047Y-56097619D01*
X157766666Y-56192857D01*
X157814285Y-56383333D01*
X157814285Y-56621428D01*
X157766666Y-56811904D01*
X157719047Y-56907142D01*
X157671428Y-56954761D01*
X157576190Y-57002380D01*
X157480952Y-57002380D01*
X157385714Y-56954761D01*
X157338095Y-56907142D01*
X157290476Y-56811904D01*
X157242857Y-56621428D01*
X157242857Y-56383333D01*
X157290476Y-56192857D01*
X157338095Y-56097619D01*
X157385714Y-56050000D01*
X157480952Y-56002380D01*
X158433333Y-56002380D02*
X158528571Y-56002380D01*
X158623809Y-56050000D01*
X158671428Y-56097619D01*
X158719047Y-56192857D01*
X158766666Y-56383333D01*
X158766666Y-56621428D01*
X158719047Y-56811904D01*
X158671428Y-56907142D01*
X158623809Y-56954761D01*
X158528571Y-57002380D01*
X158433333Y-57002380D01*
X158338095Y-56954761D01*
X158290476Y-56907142D01*
X158242857Y-56811904D01*
X158195238Y-56621428D01*
X158195238Y-56383333D01*
X158242857Y-56192857D01*
X158290476Y-56097619D01*
X158338095Y-56050000D01*
X158433333Y-56002380D01*
X159957142Y-57002380D02*
X159957142Y-56335714D01*
X159957142Y-56430952D02*
X160004761Y-56383333D01*
X160100000Y-56335714D01*
X160242857Y-56335714D01*
X160338095Y-56383333D01*
X160385714Y-56478571D01*
X160385714Y-57002380D01*
X160385714Y-56478571D02*
X160433333Y-56383333D01*
X160528571Y-56335714D01*
X160671428Y-56335714D01*
X160766666Y-56383333D01*
X160814285Y-56478571D01*
X160814285Y-57002380D01*
X161290476Y-57002380D02*
X161290476Y-56335714D01*
X161290476Y-56430952D02*
X161338095Y-56383333D01*
X161433333Y-56335714D01*
X161576190Y-56335714D01*
X161671428Y-56383333D01*
X161719047Y-56478571D01*
X161719047Y-57002380D01*
X161719047Y-56478571D02*
X161766666Y-56383333D01*
X161861904Y-56335714D01*
X162004761Y-56335714D01*
X162100000Y-56383333D01*
X162147619Y-56478571D01*
X162147619Y-57002380D01*
X212000000Y-61000000D02*
X212000000Y-57113580D01*
X102200000Y-61000000D02*
X102200000Y-57113580D01*
X212000000Y-57700000D02*
X102200000Y-57700000D01*
X212000000Y-57700000D02*
X102200000Y-57700000D01*
X212000000Y-57700000D02*
X210873496Y-57113579D01*
X212000000Y-57700000D02*
X210873496Y-58286421D01*
X102200000Y-57700000D02*
X103326504Y-58286421D01*
X102200000Y-57700000D02*
X103326504Y-57113579D01*
M02*
