%TF.GenerationSoftware,KiCad,Pcbnew,(6.0.8)*%
%TF.CreationDate,2022-10-28T13:13:37+09:00*%
%TF.ProjectId,selen-full_narrow_plate,73656c65-6e2d-4667-956c-6c5f6e617272,rev?*%
%TF.SameCoordinates,Original*%
%TF.FileFunction,Copper,L2,Bot*%
%TF.FilePolarity,Positive*%
%FSLAX46Y46*%
G04 Gerber Fmt 4.6, Leading zero omitted, Abs format (unit mm)*
G04 Created by KiCad (PCBNEW (6.0.8)) date 2022-10-28 13:13:37*
%MOMM*%
%LPD*%
G01*
G04 APERTURE LIST*
G04 APERTURE END LIST*
%TA.AperFunction,NonConductor*%
G36*
X158761095Y-61805296D02*
G01*
X193507933Y-71676556D01*
X193567995Y-71714413D01*
X193598055Y-71778731D01*
X193599500Y-71797760D01*
X193599500Y-93430291D01*
X193597948Y-93450004D01*
X193594508Y-93471721D01*
X193599500Y-93503243D01*
X193599500Y-93503246D01*
X193604389Y-93534112D01*
X193614352Y-93597025D01*
X193614354Y-93597028D01*
X193614354Y-93597031D01*
X193638614Y-93644644D01*
X193671946Y-93710064D01*
X193671949Y-93710067D01*
X193671950Y-93710069D01*
X193716799Y-93754918D01*
X193761653Y-93799773D01*
X193761655Y-93799774D01*
X193761658Y-93799777D01*
X193827072Y-93833107D01*
X193874690Y-93857371D01*
X193874693Y-93857371D01*
X193874696Y-93857373D01*
X193888153Y-93859504D01*
X193888155Y-93859505D01*
X193922297Y-93864912D01*
X193922300Y-93864913D01*
X193968443Y-93872222D01*
X193968475Y-93872227D01*
X193968481Y-93872227D01*
X194000000Y-93877219D01*
X194021722Y-93873779D01*
X194041429Y-93872228D01*
X195473503Y-93872249D01*
X195541622Y-93892252D01*
X195588114Y-93945908D01*
X195599500Y-93998249D01*
X195599500Y-94958701D01*
X195579498Y-95026822D01*
X195525842Y-95073315D01*
X195455568Y-95083419D01*
X195447303Y-95081948D01*
X195301103Y-95050872D01*
X195301099Y-95050872D01*
X195294646Y-95049500D01*
X195105354Y-95049500D01*
X195098901Y-95050872D01*
X195098897Y-95050872D01*
X195018212Y-95068022D01*
X194920197Y-95088856D01*
X194747270Y-95165849D01*
X194594129Y-95277112D01*
X194589716Y-95282014D01*
X194589714Y-95282015D01*
X194574481Y-95298933D01*
X194467467Y-95417784D01*
X194372821Y-95581716D01*
X194362839Y-95612436D01*
X194322768Y-95671041D01*
X194257372Y-95698678D01*
X194243007Y-95699500D01*
X194105354Y-95699500D01*
X194098901Y-95700872D01*
X194098897Y-95700872D01*
X194018212Y-95718022D01*
X193920197Y-95738856D01*
X193747270Y-95815849D01*
X193741929Y-95819729D01*
X193741928Y-95819730D01*
X193705089Y-95846495D01*
X193594129Y-95927112D01*
X193467467Y-96067784D01*
X193464164Y-96073505D01*
X193388362Y-96204799D01*
X193372821Y-96231716D01*
X193314326Y-96411744D01*
X193294540Y-96600000D01*
X193314326Y-96788256D01*
X193372821Y-96968284D01*
X193467467Y-97132216D01*
X193471885Y-97137123D01*
X193471886Y-97137124D01*
X193497607Y-97165690D01*
X193528325Y-97229697D01*
X193519560Y-97300151D01*
X193497607Y-97334310D01*
X193467467Y-97367784D01*
X193372821Y-97531716D01*
X193314326Y-97711744D01*
X193294540Y-97900000D01*
X193295230Y-97906565D01*
X193307736Y-98025551D01*
X193314326Y-98088256D01*
X193372821Y-98268284D01*
X193467467Y-98432216D01*
X193471885Y-98437123D01*
X193471886Y-98437124D01*
X193497607Y-98465690D01*
X193528325Y-98529697D01*
X193519560Y-98600151D01*
X193497607Y-98634310D01*
X193467467Y-98667784D01*
X193372821Y-98831716D01*
X193314326Y-99011744D01*
X193294540Y-99200000D01*
X193314326Y-99388256D01*
X193372821Y-99568284D01*
X193467467Y-99732216D01*
X193471885Y-99737123D01*
X193471886Y-99737124D01*
X193497607Y-99765690D01*
X193528325Y-99829697D01*
X193519560Y-99900151D01*
X193497607Y-99934310D01*
X193476972Y-99957228D01*
X193467467Y-99967784D01*
X193372821Y-100131716D01*
X193314326Y-100311744D01*
X193294540Y-100500000D01*
X193314326Y-100688256D01*
X193372821Y-100868284D01*
X193467467Y-101032216D01*
X193594129Y-101172888D01*
X193599468Y-101176767D01*
X193678714Y-101234342D01*
X193747270Y-101284151D01*
X193920197Y-101361144D01*
X194018212Y-101381978D01*
X194098897Y-101399128D01*
X194098901Y-101399128D01*
X194105354Y-101400500D01*
X194243007Y-101400500D01*
X194311128Y-101420502D01*
X194357621Y-101474158D01*
X194362836Y-101487553D01*
X194372821Y-101518284D01*
X194467467Y-101682216D01*
X194594129Y-101822888D01*
X194747270Y-101934151D01*
X194920197Y-102011144D01*
X195018212Y-102031978D01*
X195098897Y-102049128D01*
X195098901Y-102049128D01*
X195105354Y-102050500D01*
X195294646Y-102050500D01*
X195301099Y-102049128D01*
X195301103Y-102049128D01*
X195381788Y-102031978D01*
X195479803Y-102011144D01*
X195652730Y-101934151D01*
X195805871Y-101822888D01*
X195932533Y-101682216D01*
X195947136Y-101656923D01*
X196001074Y-101563500D01*
X196052457Y-101514507D01*
X196110193Y-101500500D01*
X205389807Y-101500500D01*
X205457928Y-101520502D01*
X205498926Y-101563500D01*
X205552864Y-101656923D01*
X205567467Y-101682216D01*
X205694129Y-101822888D01*
X205847270Y-101934151D01*
X206020197Y-102011144D01*
X206118212Y-102031978D01*
X206198897Y-102049128D01*
X206198901Y-102049128D01*
X206205354Y-102050500D01*
X206394646Y-102050500D01*
X206401099Y-102049128D01*
X206401103Y-102049128D01*
X206481788Y-102031978D01*
X206579803Y-102011144D01*
X206752730Y-101934151D01*
X206905871Y-101822888D01*
X207032533Y-101682216D01*
X207127179Y-101518284D01*
X207137161Y-101487564D01*
X207177232Y-101428959D01*
X207242628Y-101401322D01*
X207256993Y-101400500D01*
X207394646Y-101400500D01*
X207401099Y-101399128D01*
X207401103Y-101399128D01*
X207481788Y-101381978D01*
X207579803Y-101361144D01*
X207752730Y-101284151D01*
X207821287Y-101234342D01*
X207900532Y-101176767D01*
X207905871Y-101172888D01*
X208032533Y-101032216D01*
X208127179Y-100868284D01*
X208185674Y-100688256D01*
X208205460Y-100500000D01*
X208185674Y-100311744D01*
X208127179Y-100131716D01*
X208032533Y-99967784D01*
X208023029Y-99957228D01*
X208002393Y-99934310D01*
X207971675Y-99870303D01*
X207980440Y-99799849D01*
X208002393Y-99765690D01*
X208028114Y-99737124D01*
X208028115Y-99737123D01*
X208032533Y-99732216D01*
X208127179Y-99568284D01*
X208185674Y-99388256D01*
X208205460Y-99200000D01*
X208185674Y-99011744D01*
X208127179Y-98831716D01*
X208032533Y-98667784D01*
X208002393Y-98634310D01*
X207971675Y-98570303D01*
X207980440Y-98499849D01*
X208002393Y-98465690D01*
X208028114Y-98437124D01*
X208028115Y-98437123D01*
X208032533Y-98432216D01*
X208127179Y-98268284D01*
X208185674Y-98088256D01*
X208192265Y-98025551D01*
X208204770Y-97906565D01*
X208205460Y-97900000D01*
X208185674Y-97711744D01*
X208127179Y-97531716D01*
X208032533Y-97367784D01*
X208002393Y-97334310D01*
X207971675Y-97270303D01*
X207980440Y-97199849D01*
X208002393Y-97165690D01*
X208028114Y-97137124D01*
X208028115Y-97137123D01*
X208032533Y-97132216D01*
X208127179Y-96968284D01*
X208185674Y-96788256D01*
X208205460Y-96600000D01*
X208185674Y-96411744D01*
X208127179Y-96231716D01*
X208111639Y-96204799D01*
X208035836Y-96073505D01*
X208032533Y-96067784D01*
X207905871Y-95927112D01*
X207794911Y-95846495D01*
X207758072Y-95819730D01*
X207758071Y-95819729D01*
X207752730Y-95815849D01*
X207579803Y-95738856D01*
X207481788Y-95718022D01*
X207401103Y-95700872D01*
X207401099Y-95700872D01*
X207394646Y-95699500D01*
X207256993Y-95699500D01*
X207188872Y-95679498D01*
X207142379Y-95625842D01*
X207137164Y-95612447D01*
X207127179Y-95581716D01*
X207032533Y-95417784D01*
X206925519Y-95298933D01*
X206910286Y-95282015D01*
X206910284Y-95282014D01*
X206905871Y-95277112D01*
X206752730Y-95165849D01*
X206579803Y-95088856D01*
X206481788Y-95068022D01*
X206401103Y-95050872D01*
X206401099Y-95050872D01*
X206394646Y-95049500D01*
X206205354Y-95049500D01*
X206198901Y-95050872D01*
X206198897Y-95050872D01*
X206052697Y-95081948D01*
X205981906Y-95076546D01*
X205925273Y-95033729D01*
X205900780Y-94967091D01*
X205900500Y-94958701D01*
X205900500Y-93998410D01*
X205920502Y-93930289D01*
X205974158Y-93883796D01*
X206026502Y-93872410D01*
X208749329Y-93872450D01*
X211473502Y-93872491D01*
X211541622Y-93892494D01*
X211588114Y-93946150D01*
X211599500Y-93998491D01*
X211599500Y-123269520D01*
X211579498Y-123337641D01*
X211525842Y-123384134D01*
X211455568Y-123394238D01*
X211433655Y-123389054D01*
X201365960Y-120033155D01*
X201347753Y-120025451D01*
X201337031Y-120019885D01*
X201337027Y-120019884D01*
X201328228Y-120015316D01*
X201318445Y-120013690D01*
X201318444Y-120013690D01*
X201295447Y-120009869D01*
X201203078Y-119994519D01*
X201131093Y-120005361D01*
X201087431Y-120011937D01*
X201087429Y-120011938D01*
X201077627Y-120013414D01*
X200964155Y-120070150D01*
X200873769Y-120159174D01*
X200815317Y-120271772D01*
X200813692Y-120281552D01*
X200811711Y-120293470D01*
X200806951Y-120312655D01*
X199821329Y-123269520D01*
X198234347Y-128030466D01*
X198225806Y-128050258D01*
X198221871Y-128057581D01*
X198221870Y-128057584D01*
X198217178Y-128066316D01*
X198215414Y-128076073D01*
X198211258Y-128099054D01*
X198210851Y-128100952D01*
X198210085Y-128103252D01*
X198209275Y-128108125D01*
X198209274Y-128108130D01*
X198205524Y-128130700D01*
X198205219Y-128132454D01*
X198194604Y-128191158D01*
X198194997Y-128194046D01*
X198194519Y-128196922D01*
X198195839Y-128205685D01*
X198203414Y-128255977D01*
X198203668Y-128257752D01*
X198211713Y-128316864D01*
X198212980Y-128319490D01*
X198213414Y-128322373D01*
X198217378Y-128330301D01*
X198217379Y-128330304D01*
X198240137Y-128375819D01*
X198240926Y-128377427D01*
X198266831Y-128431132D01*
X198268846Y-128433237D01*
X198270150Y-128435845D01*
X198276367Y-128442157D01*
X198276369Y-128442160D01*
X198312033Y-128478370D01*
X198313281Y-128479655D01*
X198348434Y-128516376D01*
X198348438Y-128516379D01*
X198354561Y-128522775D01*
X198357129Y-128524155D01*
X198359174Y-128526231D01*
X198367028Y-128530308D01*
X198412130Y-128553721D01*
X198413717Y-128554559D01*
X198433845Y-128565375D01*
X198433852Y-128565378D01*
X198438205Y-128567717D01*
X198440494Y-128568517D01*
X198442239Y-128569352D01*
X198471772Y-128584683D01*
X198489751Y-128587671D01*
X198510633Y-128593010D01*
X210577916Y-132806982D01*
X210635633Y-132848323D01*
X210661837Y-132914307D01*
X210655909Y-132965780D01*
X208022407Y-140866288D01*
X205373833Y-148812010D01*
X205333316Y-148870310D01*
X205267711Y-148897449D01*
X205224055Y-148894481D01*
X197347856Y-146946974D01*
X182875293Y-143368418D01*
X182872956Y-143367763D01*
X182870325Y-143366704D01*
X182843904Y-143360639D01*
X182841868Y-143360154D01*
X182815537Y-143353643D01*
X182812704Y-143353400D01*
X182810346Y-143352935D01*
X179334427Y-142555033D01*
X190600450Y-142555033D01*
X190620296Y-142680337D01*
X190677892Y-142793375D01*
X190767600Y-142883083D01*
X190880638Y-142940679D01*
X190890429Y-142942230D01*
X190890430Y-142942230D01*
X190902365Y-142944120D01*
X190921591Y-142948736D01*
X204004265Y-147199555D01*
X204022531Y-147207121D01*
X204033296Y-147212606D01*
X204033300Y-147212607D01*
X204042133Y-147217108D01*
X204073652Y-147222100D01*
X204167437Y-147236954D01*
X204261223Y-147222100D01*
X204292741Y-147217108D01*
X204312342Y-147207121D01*
X204396943Y-147164015D01*
X204396945Y-147164014D01*
X204405780Y-147159512D01*
X204495487Y-147069804D01*
X204553083Y-146956766D01*
X204556524Y-146935039D01*
X204561140Y-146915813D01*
X208811958Y-133833140D01*
X208819524Y-133814874D01*
X208825009Y-133804108D01*
X208825009Y-133804107D01*
X208829511Y-133795272D01*
X208849357Y-133669968D01*
X208829511Y-133544664D01*
X208815023Y-133516230D01*
X208771915Y-133431625D01*
X208682207Y-133341917D01*
X208569169Y-133284322D01*
X208547441Y-133280880D01*
X208528219Y-133276265D01*
X195445539Y-129025445D01*
X195427273Y-129017879D01*
X195416507Y-129012393D01*
X195416504Y-129012392D01*
X195407674Y-129007893D01*
X195282370Y-128988046D01*
X195157066Y-129007893D01*
X195044028Y-129065489D01*
X194954320Y-129155196D01*
X194917524Y-129227413D01*
X194896724Y-129268235D01*
X194895173Y-129278028D01*
X194893283Y-129289962D01*
X194888667Y-129309188D01*
X190637849Y-142391861D01*
X190630283Y-142410127D01*
X190624798Y-142420892D01*
X190624797Y-142420896D01*
X190620296Y-142429729D01*
X190615304Y-142461248D01*
X190600450Y-142555033D01*
X179334427Y-142555033D01*
X165324854Y-139339116D01*
X164957586Y-139254809D01*
X172329731Y-139254809D01*
X172331282Y-139264601D01*
X172335338Y-139290210D01*
X172336716Y-139303321D01*
X172338592Y-139339116D01*
X172342147Y-139348376D01*
X172342904Y-139351938D01*
X172346899Y-139366850D01*
X172348026Y-139370318D01*
X172349577Y-139380113D01*
X172354079Y-139388948D01*
X172354079Y-139388949D01*
X172365847Y-139412045D01*
X172371210Y-139424090D01*
X172384057Y-139457555D01*
X172390296Y-139465260D01*
X172392114Y-139468408D01*
X172400531Y-139481368D01*
X172402668Y-139484309D01*
X172407173Y-139493151D01*
X172432512Y-139518490D01*
X172441337Y-139528290D01*
X172463896Y-139556148D01*
X172472214Y-139561550D01*
X172474913Y-139563980D01*
X172486911Y-139573696D01*
X172489863Y-139575841D01*
X172496881Y-139582859D01*
X172505720Y-139587363D01*
X172505722Y-139587364D01*
X172528814Y-139599130D01*
X172540235Y-139605724D01*
X172570294Y-139625245D01*
X172579877Y-139627812D01*
X172583202Y-139629293D01*
X172597619Y-139634827D01*
X172601083Y-139635952D01*
X172609919Y-139640455D01*
X172635273Y-139644471D01*
X172645315Y-139646061D01*
X172658215Y-139648803D01*
X172683260Y-139655514D01*
X172683263Y-139655514D01*
X172692838Y-139658080D01*
X172714803Y-139656929D01*
X172734566Y-139657446D01*
X176350021Y-140037446D01*
X186415159Y-141095335D01*
X186434596Y-141098938D01*
X186446260Y-141102063D01*
X186446264Y-141102063D01*
X186455843Y-141104630D01*
X186465747Y-141104111D01*
X186470064Y-141103885D01*
X186487709Y-141102960D01*
X186487714Y-141102960D01*
X186505415Y-141102032D01*
X186512010Y-141101859D01*
X186529747Y-141101859D01*
X186534633Y-141101085D01*
X186536646Y-141100927D01*
X186546745Y-141099866D01*
X186559950Y-141099174D01*
X186582535Y-141097990D01*
X186591795Y-141094435D01*
X186595357Y-141093678D01*
X186610269Y-141089683D01*
X186613737Y-141088556D01*
X186623532Y-141087005D01*
X186655465Y-141070735D01*
X186667510Y-141065371D01*
X186691719Y-141056078D01*
X186691720Y-141056077D01*
X186700974Y-141052525D01*
X186708679Y-141046286D01*
X186711827Y-141044468D01*
X186724787Y-141036051D01*
X186727728Y-141033914D01*
X186736570Y-141029409D01*
X186761909Y-141004070D01*
X186771710Y-140995244D01*
X186791860Y-140978927D01*
X186799567Y-140972686D01*
X186804969Y-140964368D01*
X186807399Y-140961669D01*
X186817115Y-140949671D01*
X186819260Y-140946719D01*
X186826278Y-140939701D01*
X186842549Y-140907768D01*
X186849143Y-140896347D01*
X186863261Y-140874607D01*
X186868664Y-140866288D01*
X186871231Y-140856705D01*
X186872712Y-140853380D01*
X186878246Y-140838963D01*
X186879371Y-140835500D01*
X186883874Y-140826663D01*
X186889481Y-140791262D01*
X186892221Y-140778372D01*
X186893237Y-140774579D01*
X186893239Y-140774567D01*
X186898932Y-140753322D01*
X186898932Y-140753319D01*
X186901498Y-140743744D01*
X186900979Y-140733838D01*
X186901360Y-140730208D01*
X186902168Y-140714800D01*
X186902168Y-140711155D01*
X186903720Y-140701359D01*
X186902352Y-140692721D01*
X186902859Y-140683043D01*
X188338755Y-127021415D01*
X188342358Y-127001977D01*
X188345481Y-126990320D01*
X188348048Y-126980740D01*
X188347529Y-126970833D01*
X188347910Y-126967203D01*
X188348718Y-126951797D01*
X188348718Y-126948152D01*
X188350270Y-126938355D01*
X188344662Y-126902946D01*
X188343285Y-126889839D01*
X188342255Y-126870193D01*
X188341409Y-126854049D01*
X188341409Y-126854048D01*
X188337258Y-126843236D01*
X188336411Y-126838664D01*
X188333102Y-126826314D01*
X188331975Y-126822846D01*
X188330424Y-126813051D01*
X188314154Y-126781118D01*
X188308790Y-126769073D01*
X188299498Y-126744867D01*
X188295944Y-126735609D01*
X188289703Y-126727902D01*
X188287874Y-126724735D01*
X188279473Y-126711799D01*
X188277330Y-126708850D01*
X188272828Y-126700013D01*
X188247488Y-126674673D01*
X188238662Y-126664872D01*
X188222346Y-126644723D01*
X188216105Y-126637016D01*
X188207787Y-126631614D01*
X188205088Y-126629184D01*
X188193074Y-126619454D01*
X188190130Y-126617315D01*
X188183120Y-126610305D01*
X188174286Y-126605804D01*
X188174285Y-126605803D01*
X188151184Y-126594032D01*
X188139778Y-126587448D01*
X188139396Y-126587200D01*
X188139397Y-126587199D01*
X188139379Y-126587189D01*
X188109706Y-126567919D01*
X188100129Y-126565353D01*
X188096810Y-126563875D01*
X188082379Y-126558335D01*
X188078915Y-126557209D01*
X188070082Y-126552709D01*
X188054892Y-126550303D01*
X188034681Y-126547102D01*
X188021791Y-126544362D01*
X188017998Y-126543346D01*
X188017986Y-126543343D01*
X187996745Y-126537652D01*
X187996742Y-126537652D01*
X187987163Y-126535085D01*
X187965202Y-126536236D01*
X187945440Y-126535719D01*
X179899448Y-125690051D01*
X174264834Y-125097829D01*
X174245403Y-125094228D01*
X174224158Y-125088535D01*
X174214253Y-125089054D01*
X174214252Y-125089054D01*
X174206299Y-125089471D01*
X174192296Y-125090205D01*
X174192290Y-125090204D01*
X174097466Y-125095174D01*
X174088208Y-125098728D01*
X174088207Y-125098728D01*
X173988285Y-125137085D01*
X173979027Y-125140639D01*
X173880434Y-125220478D01*
X173875032Y-125228796D01*
X173816737Y-125318560D01*
X173816736Y-125318563D01*
X173811337Y-125326876D01*
X173778502Y-125449420D01*
X173779021Y-125459324D01*
X173779653Y-125471384D01*
X173779136Y-125491148D01*
X173457202Y-128554141D01*
X172341247Y-139171740D01*
X172337644Y-139191177D01*
X172334519Y-139202841D01*
X172334519Y-139202845D01*
X172331952Y-139212424D01*
X172332471Y-139222326D01*
X172332090Y-139225952D01*
X172331282Y-139241379D01*
X172331282Y-139245017D01*
X172329731Y-139254809D01*
X164957586Y-139254809D01*
X163920315Y-139016702D01*
X163920286Y-139016694D01*
X163920255Y-139016682D01*
X163886323Y-139008900D01*
X163886323Y-139008899D01*
X163886303Y-139008895D01*
X163858885Y-139002601D01*
X163858854Y-139002599D01*
X163858848Y-139002598D01*
X145495539Y-134790830D01*
X142119203Y-134016441D01*
X142117966Y-134016112D01*
X142116323Y-134015471D01*
X142111956Y-134014516D01*
X142111951Y-134014515D01*
X142088100Y-134009300D01*
X142086848Y-134009020D01*
X142058812Y-134002590D01*
X142057048Y-134002469D01*
X142055808Y-134002242D01*
X123446232Y-129934138D01*
X122832617Y-129800000D01*
X129594508Y-129800000D01*
X129599500Y-129831519D01*
X129614354Y-129925304D01*
X129671950Y-130038342D01*
X129761658Y-130128050D01*
X129874696Y-130185646D01*
X129884485Y-130187196D01*
X129884487Y-130187197D01*
X129990207Y-130203941D01*
X130000000Y-130205492D01*
X130021726Y-130202051D01*
X130041436Y-130200500D01*
X169958564Y-130200500D01*
X169978274Y-130202051D01*
X170000000Y-130205492D01*
X170009793Y-130203941D01*
X170115513Y-130187197D01*
X170115515Y-130187196D01*
X170125304Y-130185646D01*
X170238342Y-130128050D01*
X170328050Y-130038342D01*
X170385646Y-129925304D01*
X170400500Y-129831519D01*
X170405492Y-129800000D01*
X170402051Y-129778274D01*
X170400500Y-129758564D01*
X170400500Y-118629301D01*
X173015101Y-118629301D01*
X173020093Y-118660820D01*
X173034947Y-118754605D01*
X173092543Y-118867643D01*
X173182251Y-118957351D01*
X173295289Y-119014947D01*
X173305078Y-119016497D01*
X173305080Y-119016498D01*
X173410800Y-119033242D01*
X173420593Y-119034793D01*
X173442319Y-119031352D01*
X173462029Y-119029801D01*
X187217972Y-119029801D01*
X187237682Y-119031352D01*
X187259408Y-119034793D01*
X187269201Y-119033242D01*
X187374921Y-119016498D01*
X187374923Y-119016497D01*
X187384712Y-119014947D01*
X187497750Y-118957351D01*
X187587458Y-118867643D01*
X187645054Y-118754605D01*
X187659908Y-118660820D01*
X187664900Y-118629301D01*
X187661459Y-118607575D01*
X187659908Y-118587865D01*
X187659908Y-113900000D01*
X194044540Y-113900000D01*
X194045230Y-113906565D01*
X194057736Y-114025551D01*
X194064326Y-114088256D01*
X194122821Y-114268284D01*
X194217467Y-114432216D01*
X194344129Y-114572888D01*
X194497270Y-114684151D01*
X194623768Y-114740472D01*
X194677860Y-114786449D01*
X194698509Y-114854377D01*
X194697825Y-114868742D01*
X194694540Y-114900000D01*
X194714326Y-115088256D01*
X194772821Y-115268284D01*
X194867467Y-115432216D01*
X194994129Y-115572888D01*
X195147270Y-115684151D01*
X195320197Y-115761144D01*
X195418212Y-115781978D01*
X195498897Y-115799128D01*
X195498901Y-115799128D01*
X195505354Y-115800500D01*
X195694646Y-115800500D01*
X195701099Y-115799128D01*
X195701103Y-115799128D01*
X195781788Y-115781978D01*
X195879803Y-115761144D01*
X196052730Y-115684151D01*
X196175938Y-115594635D01*
X196242807Y-115570776D01*
X196311959Y-115586857D01*
X196324061Y-115594635D01*
X196447270Y-115684151D01*
X196620197Y-115761144D01*
X196718212Y-115781978D01*
X196798897Y-115799128D01*
X196798901Y-115799128D01*
X196805354Y-115800500D01*
X196994646Y-115800500D01*
X197001099Y-115799128D01*
X197001103Y-115799128D01*
X197081788Y-115781978D01*
X197179803Y-115761144D01*
X197352730Y-115684151D01*
X197475938Y-115594635D01*
X197542807Y-115570776D01*
X197611959Y-115586857D01*
X197624061Y-115594635D01*
X197747270Y-115684151D01*
X197920197Y-115761144D01*
X198018212Y-115781978D01*
X198098897Y-115799128D01*
X198098901Y-115799128D01*
X198105354Y-115800500D01*
X198294646Y-115800500D01*
X198301099Y-115799128D01*
X198301103Y-115799128D01*
X198381788Y-115781978D01*
X198479803Y-115761144D01*
X198652730Y-115684151D01*
X198775938Y-115594635D01*
X198842807Y-115570776D01*
X198911959Y-115586857D01*
X198924061Y-115594635D01*
X199047270Y-115684151D01*
X199220197Y-115761144D01*
X199318212Y-115781978D01*
X199398897Y-115799128D01*
X199398901Y-115799128D01*
X199405354Y-115800500D01*
X199594646Y-115800500D01*
X199601099Y-115799128D01*
X199601103Y-115799128D01*
X199681788Y-115781978D01*
X199779803Y-115761144D01*
X199952730Y-115684151D01*
X200075938Y-115594635D01*
X200142807Y-115570776D01*
X200211959Y-115586857D01*
X200224061Y-115594635D01*
X200347270Y-115684151D01*
X200520197Y-115761144D01*
X200618212Y-115781978D01*
X200698897Y-115799128D01*
X200698901Y-115799128D01*
X200705354Y-115800500D01*
X200894646Y-115800500D01*
X200901099Y-115799128D01*
X200901103Y-115799128D01*
X200981788Y-115781978D01*
X201079803Y-115761144D01*
X201252730Y-115684151D01*
X201375938Y-115594635D01*
X201442807Y-115570776D01*
X201511959Y-115586857D01*
X201524061Y-115594635D01*
X201647270Y-115684151D01*
X201820197Y-115761144D01*
X201918212Y-115781978D01*
X201998897Y-115799128D01*
X201998901Y-115799128D01*
X202005354Y-115800500D01*
X202194646Y-115800500D01*
X202201099Y-115799128D01*
X202201103Y-115799128D01*
X202281788Y-115781978D01*
X202379803Y-115761144D01*
X202552730Y-115684151D01*
X202675938Y-115594635D01*
X202742807Y-115570776D01*
X202811959Y-115586857D01*
X202824061Y-115594635D01*
X202947270Y-115684151D01*
X203120197Y-115761144D01*
X203218212Y-115781978D01*
X203298897Y-115799128D01*
X203298901Y-115799128D01*
X203305354Y-115800500D01*
X203494646Y-115800500D01*
X203501099Y-115799128D01*
X203501103Y-115799128D01*
X203581788Y-115781978D01*
X203679803Y-115761144D01*
X203852730Y-115684151D01*
X203975938Y-115594635D01*
X204042807Y-115570776D01*
X204111959Y-115586857D01*
X204124061Y-115594635D01*
X204247270Y-115684151D01*
X204420197Y-115761144D01*
X204518212Y-115781978D01*
X204598897Y-115799128D01*
X204598901Y-115799128D01*
X204605354Y-115800500D01*
X204794646Y-115800500D01*
X204801099Y-115799128D01*
X204801103Y-115799128D01*
X204881788Y-115781978D01*
X204979803Y-115761144D01*
X205152730Y-115684151D01*
X205275938Y-115594635D01*
X205342807Y-115570776D01*
X205411959Y-115586857D01*
X205424061Y-115594635D01*
X205547270Y-115684151D01*
X205720197Y-115761144D01*
X205818212Y-115781978D01*
X205898897Y-115799128D01*
X205898901Y-115799128D01*
X205905354Y-115800500D01*
X206094646Y-115800500D01*
X206101099Y-115799128D01*
X206101103Y-115799128D01*
X206181788Y-115781978D01*
X206279803Y-115761144D01*
X206452730Y-115684151D01*
X206605871Y-115572888D01*
X206732533Y-115432216D01*
X206827179Y-115268284D01*
X206885674Y-115088256D01*
X206905460Y-114900000D01*
X206902175Y-114868746D01*
X206914947Y-114798908D01*
X206963449Y-114747062D01*
X206976215Y-114740480D01*
X207102730Y-114684151D01*
X207255871Y-114572888D01*
X207382533Y-114432216D01*
X207477179Y-114268284D01*
X207535674Y-114088256D01*
X207542265Y-114025551D01*
X207554770Y-113906565D01*
X207555460Y-113900000D01*
X207535674Y-113711744D01*
X207477179Y-113531716D01*
X207382533Y-113367784D01*
X207255871Y-113227112D01*
X207102730Y-113115849D01*
X206976232Y-113059528D01*
X206922140Y-113013551D01*
X206901491Y-112945623D01*
X206902175Y-112931253D01*
X206904770Y-112906564D01*
X206905460Y-112900000D01*
X206885674Y-112711744D01*
X206827179Y-112531716D01*
X206732533Y-112367784D01*
X206665353Y-112293173D01*
X206610286Y-112232015D01*
X206610284Y-112232014D01*
X206605871Y-112227112D01*
X206452730Y-112115849D01*
X206279803Y-112038856D01*
X206181788Y-112018022D01*
X206101103Y-112000872D01*
X206101099Y-112000872D01*
X206094646Y-111999500D01*
X205905354Y-111999500D01*
X205898901Y-112000872D01*
X205898897Y-112000872D01*
X205818212Y-112018022D01*
X205720197Y-112038856D01*
X205547270Y-112115849D01*
X205541929Y-112119729D01*
X205541928Y-112119730D01*
X205424061Y-112205365D01*
X205357193Y-112229224D01*
X205288041Y-112213143D01*
X205275939Y-112205365D01*
X205158072Y-112119730D01*
X205158071Y-112119729D01*
X205152730Y-112115849D01*
X204979803Y-112038856D01*
X204881788Y-112018022D01*
X204801103Y-112000872D01*
X204801099Y-112000872D01*
X204794646Y-111999500D01*
X204605354Y-111999500D01*
X204598901Y-112000872D01*
X204598897Y-112000872D01*
X204518212Y-112018022D01*
X204420197Y-112038856D01*
X204247270Y-112115849D01*
X204241929Y-112119729D01*
X204241928Y-112119730D01*
X204124061Y-112205365D01*
X204057193Y-112229224D01*
X203988041Y-112213143D01*
X203975939Y-112205365D01*
X203858072Y-112119730D01*
X203858071Y-112119729D01*
X203852730Y-112115849D01*
X203679803Y-112038856D01*
X203581788Y-112018022D01*
X203501103Y-112000872D01*
X203501099Y-112000872D01*
X203494646Y-111999500D01*
X203305354Y-111999500D01*
X203298901Y-112000872D01*
X203298897Y-112000872D01*
X203218212Y-112018022D01*
X203120197Y-112038856D01*
X202947270Y-112115849D01*
X202941929Y-112119729D01*
X202941928Y-112119730D01*
X202824061Y-112205365D01*
X202757193Y-112229224D01*
X202688041Y-112213143D01*
X202675939Y-112205365D01*
X202558072Y-112119730D01*
X202558071Y-112119729D01*
X202552730Y-112115849D01*
X202379803Y-112038856D01*
X202281788Y-112018022D01*
X202201103Y-112000872D01*
X202201099Y-112000872D01*
X202194646Y-111999500D01*
X202005354Y-111999500D01*
X201998901Y-112000872D01*
X201998897Y-112000872D01*
X201918212Y-112018022D01*
X201820197Y-112038856D01*
X201647270Y-112115849D01*
X201641929Y-112119729D01*
X201641928Y-112119730D01*
X201524061Y-112205365D01*
X201457193Y-112229224D01*
X201388041Y-112213143D01*
X201375939Y-112205365D01*
X201258072Y-112119730D01*
X201258071Y-112119729D01*
X201252730Y-112115849D01*
X201079803Y-112038856D01*
X200981788Y-112018022D01*
X200901103Y-112000872D01*
X200901099Y-112000872D01*
X200894646Y-111999500D01*
X200705354Y-111999500D01*
X200698901Y-112000872D01*
X200698897Y-112000872D01*
X200618212Y-112018022D01*
X200520197Y-112038856D01*
X200347270Y-112115849D01*
X200341929Y-112119729D01*
X200341928Y-112119730D01*
X200224061Y-112205365D01*
X200157193Y-112229224D01*
X200088041Y-112213143D01*
X200075939Y-112205365D01*
X199958072Y-112119730D01*
X199958071Y-112119729D01*
X199952730Y-112115849D01*
X199779803Y-112038856D01*
X199681788Y-112018022D01*
X199601103Y-112000872D01*
X199601099Y-112000872D01*
X199594646Y-111999500D01*
X199405354Y-111999500D01*
X199398901Y-112000872D01*
X199398897Y-112000872D01*
X199318212Y-112018022D01*
X199220197Y-112038856D01*
X199047270Y-112115849D01*
X199041929Y-112119729D01*
X199041928Y-112119730D01*
X198924061Y-112205365D01*
X198857193Y-112229224D01*
X198788041Y-112213143D01*
X198775939Y-112205365D01*
X198658072Y-112119730D01*
X198658071Y-112119729D01*
X198652730Y-112115849D01*
X198479803Y-112038856D01*
X198381788Y-112018022D01*
X198301103Y-112000872D01*
X198301099Y-112000872D01*
X198294646Y-111999500D01*
X198105354Y-111999500D01*
X198098901Y-112000872D01*
X198098897Y-112000872D01*
X198018212Y-112018022D01*
X197920197Y-112038856D01*
X197747270Y-112115849D01*
X197741929Y-112119729D01*
X197741928Y-112119730D01*
X197624061Y-112205365D01*
X197557193Y-112229224D01*
X197488041Y-112213143D01*
X197475939Y-112205365D01*
X197358072Y-112119730D01*
X197358071Y-112119729D01*
X197352730Y-112115849D01*
X197179803Y-112038856D01*
X197081788Y-112018022D01*
X197001103Y-112000872D01*
X197001099Y-112000872D01*
X196994646Y-111999500D01*
X196805354Y-111999500D01*
X196798901Y-112000872D01*
X196798897Y-112000872D01*
X196718212Y-112018022D01*
X196620197Y-112038856D01*
X196447270Y-112115849D01*
X196441929Y-112119729D01*
X196441928Y-112119730D01*
X196324061Y-112205365D01*
X196257193Y-112229224D01*
X196188041Y-112213143D01*
X196175939Y-112205365D01*
X196058072Y-112119730D01*
X196058071Y-112119729D01*
X196052730Y-112115849D01*
X195879803Y-112038856D01*
X195781788Y-112018022D01*
X195701103Y-112000872D01*
X195701099Y-112000872D01*
X195694646Y-111999500D01*
X195505354Y-111999500D01*
X195498901Y-112000872D01*
X195498897Y-112000872D01*
X195418212Y-112018022D01*
X195320197Y-112038856D01*
X195147270Y-112115849D01*
X194994129Y-112227112D01*
X194989716Y-112232014D01*
X194989714Y-112232015D01*
X194934647Y-112293173D01*
X194867467Y-112367784D01*
X194772821Y-112531716D01*
X194714326Y-112711744D01*
X194694540Y-112900000D01*
X194695230Y-112906564D01*
X194697825Y-112931253D01*
X194685053Y-113001092D01*
X194636551Y-113052938D01*
X194623785Y-113059520D01*
X194497270Y-113115849D01*
X194344129Y-113227112D01*
X194217467Y-113367784D01*
X194122821Y-113531716D01*
X194064326Y-113711744D01*
X194044540Y-113900000D01*
X187659908Y-113900000D01*
X187659908Y-104831923D01*
X187661459Y-104812213D01*
X187663349Y-104800280D01*
X187664900Y-104790487D01*
X187645054Y-104665183D01*
X187587458Y-104552145D01*
X187497750Y-104462437D01*
X187384712Y-104404841D01*
X187374923Y-104403291D01*
X187374921Y-104403290D01*
X187290927Y-104389987D01*
X187269201Y-104386546D01*
X187259408Y-104384995D01*
X187249615Y-104386546D01*
X187237682Y-104388436D01*
X187217972Y-104389987D01*
X173462029Y-104389987D01*
X173442319Y-104388436D01*
X173430386Y-104386546D01*
X173420593Y-104384995D01*
X173389074Y-104389987D01*
X173295289Y-104404841D01*
X173182251Y-104462437D01*
X173092543Y-104552145D01*
X173034947Y-104665183D01*
X173015101Y-104790487D01*
X173016652Y-104800280D01*
X173018542Y-104812213D01*
X173020093Y-104831923D01*
X173020093Y-118587865D01*
X173018542Y-118607575D01*
X173015101Y-118629301D01*
X170400500Y-118629301D01*
X170400500Y-117841436D01*
X170402051Y-117821726D01*
X170403941Y-117809793D01*
X170405492Y-117800000D01*
X170385646Y-117674696D01*
X170328050Y-117561658D01*
X170238342Y-117471950D01*
X170125304Y-117414354D01*
X170115515Y-117412804D01*
X170115513Y-117412803D01*
X170031519Y-117399500D01*
X170009793Y-117396059D01*
X170000000Y-117394508D01*
X169990207Y-117396059D01*
X169978274Y-117397949D01*
X169958564Y-117399500D01*
X130041436Y-117399500D01*
X130021726Y-117397949D01*
X130009793Y-117396059D01*
X130000000Y-117394508D01*
X129968481Y-117399500D01*
X129874696Y-117414354D01*
X129761658Y-117471950D01*
X129671950Y-117561658D01*
X129614354Y-117674696D01*
X129594508Y-117800000D01*
X129596059Y-117809793D01*
X129597949Y-117821726D01*
X129599500Y-117841436D01*
X129599500Y-129758564D01*
X129597949Y-129778274D01*
X129594508Y-129800000D01*
X122832617Y-129800000D01*
X107995718Y-126556613D01*
X107933441Y-126522525D01*
X107898689Y-126456220D01*
X107831716Y-126090551D01*
X109016101Y-126090551D01*
X109021093Y-126122070D01*
X109035947Y-126215855D01*
X109093543Y-126328893D01*
X109183251Y-126418601D01*
X109296289Y-126476197D01*
X109306078Y-126477747D01*
X109306080Y-126477748D01*
X109411800Y-126494492D01*
X109421593Y-126496043D01*
X109443319Y-126492602D01*
X109463029Y-126491051D01*
X123218972Y-126491051D01*
X123238682Y-126492602D01*
X123260408Y-126496043D01*
X123270201Y-126494492D01*
X123375921Y-126477748D01*
X123375923Y-126477747D01*
X123385712Y-126476197D01*
X123498750Y-126418601D01*
X123588458Y-126328893D01*
X123646054Y-126215855D01*
X123660908Y-126122070D01*
X123665900Y-126090551D01*
X123662459Y-126068825D01*
X123660908Y-126049115D01*
X123660908Y-115454301D01*
X125016101Y-115454301D01*
X125021093Y-115485820D01*
X125035947Y-115579605D01*
X125093543Y-115692643D01*
X125183251Y-115782351D01*
X125296289Y-115839947D01*
X125306078Y-115841497D01*
X125306080Y-115841498D01*
X125411800Y-115858242D01*
X125421593Y-115859793D01*
X125443319Y-115856352D01*
X125463029Y-115854801D01*
X139218972Y-115854801D01*
X139238682Y-115856352D01*
X139260408Y-115859793D01*
X139270201Y-115858242D01*
X139375921Y-115841498D01*
X139375923Y-115841497D01*
X139385712Y-115839947D01*
X139498750Y-115782351D01*
X139588458Y-115692643D01*
X139646054Y-115579605D01*
X139647895Y-115567985D01*
X139660908Y-115485820D01*
X139664349Y-115464094D01*
X139665900Y-115454301D01*
X139662459Y-115432575D01*
X139660908Y-115412865D01*
X139660908Y-114025551D01*
X157015601Y-114025551D01*
X157020593Y-114057070D01*
X157035447Y-114150855D01*
X157093043Y-114263893D01*
X157182751Y-114353601D01*
X157295789Y-114411197D01*
X157305578Y-114412747D01*
X157305580Y-114412748D01*
X157411300Y-114429492D01*
X157421093Y-114431043D01*
X157442819Y-114427602D01*
X157462529Y-114426051D01*
X171218472Y-114426051D01*
X171238182Y-114427602D01*
X171259908Y-114431043D01*
X171269701Y-114429492D01*
X171375421Y-114412748D01*
X171375423Y-114412747D01*
X171385212Y-114411197D01*
X171498250Y-114353601D01*
X171587958Y-114263893D01*
X171645554Y-114150855D01*
X171660408Y-114057070D01*
X171665400Y-114025551D01*
X171661959Y-114003825D01*
X171660408Y-113984115D01*
X171660408Y-102629051D01*
X173015101Y-102629051D01*
X173020093Y-102660570D01*
X173034947Y-102754355D01*
X173092543Y-102867393D01*
X173182251Y-102957101D01*
X173295289Y-103014697D01*
X173305078Y-103016247D01*
X173305080Y-103016248D01*
X173410800Y-103032992D01*
X173420593Y-103034543D01*
X173442319Y-103031102D01*
X173462029Y-103029551D01*
X187217972Y-103029551D01*
X187237682Y-103031102D01*
X187259408Y-103034543D01*
X187269201Y-103032992D01*
X187374921Y-103016248D01*
X187374923Y-103016247D01*
X187384712Y-103014697D01*
X187497750Y-102957101D01*
X187587458Y-102867393D01*
X187645054Y-102754355D01*
X187659908Y-102660570D01*
X187664900Y-102629051D01*
X187661459Y-102607325D01*
X187659908Y-102587615D01*
X187659908Y-88831673D01*
X187661459Y-88811963D01*
X187663349Y-88800030D01*
X187664900Y-88790237D01*
X187645054Y-88664933D01*
X187587458Y-88551895D01*
X187497750Y-88462187D01*
X187384712Y-88404591D01*
X187374923Y-88403041D01*
X187374921Y-88403040D01*
X187290927Y-88389737D01*
X187269201Y-88386296D01*
X187259408Y-88384745D01*
X187249615Y-88386296D01*
X187237682Y-88388186D01*
X187217972Y-88389737D01*
X173462029Y-88389737D01*
X173442319Y-88388186D01*
X173430386Y-88386296D01*
X173420593Y-88384745D01*
X173389074Y-88389737D01*
X173295289Y-88404591D01*
X173182251Y-88462187D01*
X173092543Y-88551895D01*
X173034947Y-88664933D01*
X173015101Y-88790237D01*
X173016652Y-88800030D01*
X173018542Y-88811963D01*
X173020093Y-88831673D01*
X173020093Y-102587615D01*
X173018542Y-102607325D01*
X173015101Y-102629051D01*
X171660408Y-102629051D01*
X171660408Y-100228173D01*
X171661959Y-100208463D01*
X171663849Y-100196530D01*
X171665400Y-100186737D01*
X171645554Y-100061433D01*
X171587958Y-99948395D01*
X171498250Y-99858687D01*
X171385212Y-99801091D01*
X171375423Y-99799541D01*
X171375421Y-99799540D01*
X171291427Y-99786237D01*
X171269701Y-99782796D01*
X171259908Y-99781245D01*
X171250115Y-99782796D01*
X171238182Y-99784686D01*
X171218472Y-99786237D01*
X157462529Y-99786237D01*
X157442819Y-99784686D01*
X157430886Y-99782796D01*
X157421093Y-99781245D01*
X157389574Y-99786237D01*
X157295789Y-99801091D01*
X157182751Y-99858687D01*
X157093043Y-99948395D01*
X157035447Y-100061433D01*
X157015601Y-100186737D01*
X157017152Y-100196530D01*
X157019042Y-100208463D01*
X157020593Y-100228173D01*
X157020593Y-113984115D01*
X157019042Y-114003825D01*
X157015601Y-114025551D01*
X139660908Y-114025551D01*
X139660908Y-109263051D01*
X141016101Y-109263051D01*
X141021093Y-109294570D01*
X141035947Y-109388355D01*
X141093543Y-109501393D01*
X141183251Y-109591101D01*
X141296289Y-109648697D01*
X141306078Y-109650247D01*
X141306080Y-109650248D01*
X141411800Y-109666992D01*
X141421593Y-109668543D01*
X141443319Y-109665102D01*
X141463029Y-109663551D01*
X155218972Y-109663551D01*
X155238682Y-109665102D01*
X155260408Y-109668543D01*
X155270201Y-109666992D01*
X155375921Y-109650248D01*
X155375923Y-109650247D01*
X155385712Y-109648697D01*
X155498750Y-109591101D01*
X155588458Y-109501393D01*
X155646054Y-109388355D01*
X155660908Y-109294570D01*
X155665900Y-109263051D01*
X155662459Y-109241325D01*
X155660908Y-109221615D01*
X155660908Y-98025551D01*
X157015601Y-98025551D01*
X157020593Y-98057070D01*
X157035447Y-98150855D01*
X157093043Y-98263893D01*
X157182751Y-98353601D01*
X157295789Y-98411197D01*
X157305578Y-98412747D01*
X157305580Y-98412748D01*
X157411300Y-98429492D01*
X157421093Y-98431043D01*
X157442819Y-98427602D01*
X157462529Y-98426051D01*
X171218472Y-98426051D01*
X171238182Y-98427602D01*
X171259908Y-98431043D01*
X171269701Y-98429492D01*
X171375421Y-98412748D01*
X171375423Y-98412747D01*
X171385212Y-98411197D01*
X171498250Y-98353601D01*
X171587958Y-98263893D01*
X171645554Y-98150855D01*
X171660408Y-98057070D01*
X171665400Y-98025551D01*
X171661959Y-98003825D01*
X171660408Y-97984115D01*
X171660408Y-86629051D01*
X173015101Y-86629051D01*
X173020093Y-86660570D01*
X173034947Y-86754355D01*
X173092543Y-86867393D01*
X173182251Y-86957101D01*
X173295289Y-87014697D01*
X173305078Y-87016247D01*
X173305080Y-87016248D01*
X173410800Y-87032992D01*
X173420593Y-87034543D01*
X173442319Y-87031102D01*
X173462029Y-87029551D01*
X187217972Y-87029551D01*
X187237682Y-87031102D01*
X187259408Y-87034543D01*
X187269201Y-87032992D01*
X187374921Y-87016248D01*
X187374923Y-87016247D01*
X187384712Y-87014697D01*
X187497750Y-86957101D01*
X187587458Y-86867393D01*
X187645054Y-86754355D01*
X187659908Y-86660570D01*
X187664900Y-86629051D01*
X187661459Y-86607325D01*
X187659908Y-86587615D01*
X187659908Y-72831673D01*
X187661459Y-72811963D01*
X187663349Y-72800030D01*
X187664900Y-72790237D01*
X187645054Y-72664933D01*
X187587458Y-72551895D01*
X187497750Y-72462187D01*
X187384712Y-72404591D01*
X187374923Y-72403041D01*
X187374921Y-72403040D01*
X187290927Y-72389737D01*
X187269201Y-72386296D01*
X187259408Y-72384745D01*
X187249615Y-72386296D01*
X187237682Y-72388186D01*
X187217972Y-72389737D01*
X173462029Y-72389737D01*
X173442319Y-72388186D01*
X173430386Y-72386296D01*
X173420593Y-72384745D01*
X173389074Y-72389737D01*
X173295289Y-72404591D01*
X173182251Y-72462187D01*
X173092543Y-72551895D01*
X173034947Y-72664933D01*
X173015101Y-72790237D01*
X173016652Y-72800030D01*
X173018542Y-72811963D01*
X173020093Y-72831673D01*
X173020093Y-86587615D01*
X173018542Y-86607325D01*
X173015101Y-86629051D01*
X171660408Y-86629051D01*
X171660408Y-84228173D01*
X171661959Y-84208463D01*
X171663849Y-84196530D01*
X171665400Y-84186737D01*
X171645554Y-84061433D01*
X171587958Y-83948395D01*
X171498250Y-83858687D01*
X171385212Y-83801091D01*
X171375423Y-83799541D01*
X171375421Y-83799540D01*
X171291427Y-83786237D01*
X171269701Y-83782796D01*
X171259908Y-83781245D01*
X171250115Y-83782796D01*
X171238182Y-83784686D01*
X171218472Y-83786237D01*
X157462529Y-83786237D01*
X157442819Y-83784686D01*
X157430886Y-83782796D01*
X157421093Y-83781245D01*
X157389574Y-83786237D01*
X157295789Y-83801091D01*
X157182751Y-83858687D01*
X157093043Y-83948395D01*
X157035447Y-84061433D01*
X157015601Y-84186737D01*
X157017152Y-84196530D01*
X157019042Y-84208463D01*
X157020593Y-84228173D01*
X157020593Y-97984115D01*
X157019042Y-98003825D01*
X157015601Y-98025551D01*
X155660908Y-98025551D01*
X155660908Y-95465673D01*
X155662459Y-95445963D01*
X155664349Y-95434030D01*
X155665900Y-95424237D01*
X155646054Y-95298933D01*
X155588458Y-95185895D01*
X155498750Y-95096187D01*
X155385712Y-95038591D01*
X155375923Y-95037041D01*
X155375921Y-95037040D01*
X155291927Y-95023737D01*
X155270201Y-95020296D01*
X155260408Y-95018745D01*
X155250615Y-95020296D01*
X155238682Y-95022186D01*
X155218972Y-95023737D01*
X141463029Y-95023737D01*
X141443319Y-95022186D01*
X141431386Y-95020296D01*
X141421593Y-95018745D01*
X141390074Y-95023737D01*
X141296289Y-95038591D01*
X141183251Y-95096187D01*
X141093543Y-95185895D01*
X141035947Y-95298933D01*
X141016101Y-95424237D01*
X141017652Y-95434030D01*
X141019542Y-95445963D01*
X141021093Y-95465673D01*
X141021093Y-109221615D01*
X141019542Y-109241325D01*
X141016101Y-109263051D01*
X139660908Y-109263051D01*
X139660908Y-101656923D01*
X139662459Y-101637213D01*
X139664349Y-101625280D01*
X139665900Y-101615487D01*
X139646054Y-101490183D01*
X139588458Y-101377145D01*
X139498750Y-101287437D01*
X139385712Y-101229841D01*
X139375923Y-101228291D01*
X139375921Y-101228290D01*
X139291927Y-101214987D01*
X139270201Y-101211546D01*
X139260408Y-101209995D01*
X139250615Y-101211546D01*
X139238682Y-101213436D01*
X139218972Y-101214987D01*
X125463029Y-101214987D01*
X125443319Y-101213436D01*
X125431386Y-101211546D01*
X125421593Y-101209995D01*
X125390074Y-101214987D01*
X125296289Y-101229841D01*
X125183251Y-101287437D01*
X125093543Y-101377145D01*
X125035947Y-101490183D01*
X125016101Y-101615487D01*
X125017652Y-101625280D01*
X125019542Y-101637213D01*
X125021093Y-101656923D01*
X125021093Y-115412865D01*
X125019542Y-115432575D01*
X125016101Y-115454301D01*
X123660908Y-115454301D01*
X123660908Y-112293173D01*
X123662459Y-112273463D01*
X123664349Y-112261530D01*
X123665900Y-112251737D01*
X123662000Y-112227112D01*
X123647605Y-112136224D01*
X123647604Y-112136222D01*
X123646054Y-112126433D01*
X123588458Y-112013395D01*
X123498750Y-111923687D01*
X123385712Y-111866091D01*
X123375923Y-111864541D01*
X123375921Y-111864540D01*
X123291927Y-111851237D01*
X123270201Y-111847796D01*
X123260408Y-111846245D01*
X123250615Y-111847796D01*
X123238682Y-111849686D01*
X123218972Y-111851237D01*
X109463029Y-111851237D01*
X109443319Y-111849686D01*
X109431386Y-111847796D01*
X109421593Y-111846245D01*
X109390074Y-111851237D01*
X109296289Y-111866091D01*
X109183251Y-111923687D01*
X109093543Y-112013395D01*
X109035947Y-112126433D01*
X109034397Y-112136222D01*
X109034396Y-112136224D01*
X109020001Y-112227112D01*
X109016101Y-112251737D01*
X109017652Y-112261530D01*
X109019542Y-112273463D01*
X109021093Y-112293173D01*
X109021093Y-126049115D01*
X109019542Y-126068825D01*
X109016101Y-126090551D01*
X107831716Y-126090551D01*
X104901308Y-110090801D01*
X106634851Y-110090801D01*
X106639843Y-110122320D01*
X106654697Y-110216105D01*
X106712293Y-110329143D01*
X106802001Y-110418851D01*
X106915039Y-110476447D01*
X106924828Y-110477997D01*
X106924830Y-110477998D01*
X107030550Y-110494742D01*
X107040343Y-110496293D01*
X107062069Y-110492852D01*
X107081779Y-110491301D01*
X120837722Y-110491301D01*
X120857432Y-110492852D01*
X120879158Y-110496293D01*
X120888951Y-110494742D01*
X120994671Y-110477998D01*
X120994673Y-110477997D01*
X121004462Y-110476447D01*
X121117500Y-110418851D01*
X121207208Y-110329143D01*
X121264804Y-110216105D01*
X121279658Y-110122320D01*
X121284650Y-110090801D01*
X121281209Y-110069075D01*
X121279658Y-110049365D01*
X121279658Y-99454301D01*
X122634851Y-99454301D01*
X122639843Y-99485820D01*
X122654697Y-99579605D01*
X122712293Y-99692643D01*
X122802001Y-99782351D01*
X122915039Y-99839947D01*
X122924828Y-99841497D01*
X122924830Y-99841498D01*
X123030550Y-99858242D01*
X123040343Y-99859793D01*
X123062069Y-99856352D01*
X123081779Y-99854801D01*
X136837722Y-99854801D01*
X136857432Y-99856352D01*
X136879158Y-99859793D01*
X136888951Y-99858242D01*
X136994671Y-99841498D01*
X136994673Y-99841497D01*
X137004462Y-99839947D01*
X137117500Y-99782351D01*
X137207208Y-99692643D01*
X137264804Y-99579605D01*
X137279658Y-99485820D01*
X137284650Y-99454301D01*
X137281209Y-99432575D01*
X137279658Y-99412865D01*
X137279658Y-93263051D01*
X141016101Y-93263051D01*
X141021093Y-93294570D01*
X141035947Y-93388355D01*
X141093543Y-93501393D01*
X141183251Y-93591101D01*
X141296289Y-93648697D01*
X141306078Y-93650247D01*
X141306080Y-93650248D01*
X141411800Y-93666992D01*
X141421593Y-93668543D01*
X141443319Y-93665102D01*
X141463029Y-93663551D01*
X155218972Y-93663551D01*
X155238682Y-93665102D01*
X155260408Y-93668543D01*
X155270201Y-93666992D01*
X155375921Y-93650248D01*
X155375923Y-93650247D01*
X155385712Y-93648697D01*
X155498750Y-93591101D01*
X155588458Y-93501393D01*
X155646054Y-93388355D01*
X155660908Y-93294570D01*
X155665900Y-93263051D01*
X155662459Y-93241325D01*
X155660908Y-93221615D01*
X155660908Y-82025551D01*
X157015601Y-82025551D01*
X157020593Y-82057070D01*
X157035447Y-82150855D01*
X157093043Y-82263893D01*
X157182751Y-82353601D01*
X157295789Y-82411197D01*
X157305578Y-82412747D01*
X157305580Y-82412748D01*
X157411300Y-82429492D01*
X157421093Y-82431043D01*
X157442819Y-82427602D01*
X157462529Y-82426051D01*
X171218472Y-82426051D01*
X171238182Y-82427602D01*
X171259908Y-82431043D01*
X171269701Y-82429492D01*
X171375421Y-82412748D01*
X171375423Y-82412747D01*
X171385212Y-82411197D01*
X171498250Y-82353601D01*
X171587958Y-82263893D01*
X171645554Y-82150855D01*
X171660408Y-82057070D01*
X171665400Y-82025551D01*
X171661959Y-82003825D01*
X171660408Y-81984115D01*
X171660408Y-68228173D01*
X171661959Y-68208463D01*
X171663849Y-68196530D01*
X171665400Y-68186737D01*
X171645554Y-68061433D01*
X171587958Y-67948395D01*
X171498250Y-67858687D01*
X171385212Y-67801091D01*
X171375423Y-67799541D01*
X171375421Y-67799540D01*
X171291427Y-67786237D01*
X171269701Y-67782796D01*
X171259908Y-67781245D01*
X171250115Y-67782796D01*
X171238182Y-67784686D01*
X171218472Y-67786237D01*
X157462529Y-67786237D01*
X157442819Y-67784686D01*
X157430886Y-67782796D01*
X157421093Y-67781245D01*
X157389574Y-67786237D01*
X157295789Y-67801091D01*
X157182751Y-67858687D01*
X157093043Y-67948395D01*
X157035447Y-68061433D01*
X157015601Y-68186737D01*
X157017152Y-68196530D01*
X157019042Y-68208463D01*
X157020593Y-68228173D01*
X157020593Y-81984115D01*
X157019042Y-82003825D01*
X157015601Y-82025551D01*
X155660908Y-82025551D01*
X155660908Y-79465673D01*
X155662459Y-79445963D01*
X155664349Y-79434030D01*
X155665900Y-79424237D01*
X155646054Y-79298933D01*
X155588458Y-79185895D01*
X155498750Y-79096187D01*
X155385712Y-79038591D01*
X155375923Y-79037041D01*
X155375921Y-79037040D01*
X155291927Y-79023737D01*
X155270201Y-79020296D01*
X155260408Y-79018745D01*
X155250615Y-79020296D01*
X155238682Y-79022186D01*
X155218972Y-79023737D01*
X141463029Y-79023737D01*
X141443319Y-79022186D01*
X141431386Y-79020296D01*
X141421593Y-79018745D01*
X141390074Y-79023737D01*
X141296289Y-79038591D01*
X141183251Y-79096187D01*
X141093543Y-79185895D01*
X141035947Y-79298933D01*
X141016101Y-79424237D01*
X141017652Y-79434030D01*
X141019542Y-79445963D01*
X141021093Y-79465673D01*
X141021093Y-93221615D01*
X141019542Y-93241325D01*
X141016101Y-93263051D01*
X137279658Y-93263051D01*
X137279658Y-85656923D01*
X137281209Y-85637213D01*
X137283099Y-85625280D01*
X137284650Y-85615487D01*
X137264804Y-85490183D01*
X137207208Y-85377145D01*
X137117500Y-85287437D01*
X137004462Y-85229841D01*
X136994673Y-85228291D01*
X136994671Y-85228290D01*
X136910677Y-85214987D01*
X136888951Y-85211546D01*
X136879158Y-85209995D01*
X136869365Y-85211546D01*
X136857432Y-85213436D01*
X136837722Y-85214987D01*
X123081779Y-85214987D01*
X123062069Y-85213436D01*
X123050136Y-85211546D01*
X123040343Y-85209995D01*
X123008824Y-85214987D01*
X122915039Y-85229841D01*
X122802001Y-85287437D01*
X122712293Y-85377145D01*
X122654697Y-85490183D01*
X122634851Y-85615487D01*
X122636402Y-85625280D01*
X122638292Y-85637213D01*
X122639843Y-85656923D01*
X122639843Y-99412865D01*
X122638292Y-99432575D01*
X122634851Y-99454301D01*
X121279658Y-99454301D01*
X121279658Y-96293423D01*
X121281209Y-96273713D01*
X121283099Y-96261780D01*
X121284650Y-96251987D01*
X121264804Y-96126683D01*
X121207208Y-96013645D01*
X121117500Y-95923937D01*
X121004462Y-95866341D01*
X120994673Y-95864791D01*
X120994671Y-95864790D01*
X120910677Y-95851487D01*
X120888951Y-95848046D01*
X120879158Y-95846495D01*
X120869365Y-95848046D01*
X120857432Y-95849936D01*
X120837722Y-95851487D01*
X107081779Y-95851487D01*
X107062069Y-95849936D01*
X107050136Y-95848046D01*
X107040343Y-95846495D01*
X107008824Y-95851487D01*
X106915039Y-95866341D01*
X106802001Y-95923937D01*
X106712293Y-96013645D01*
X106654697Y-96126683D01*
X106634851Y-96251987D01*
X106636402Y-96261780D01*
X106638292Y-96273713D01*
X106639843Y-96293423D01*
X106639843Y-110049365D01*
X106638292Y-110069075D01*
X106634851Y-110090801D01*
X104901308Y-110090801D01*
X102352562Y-96174882D01*
X102350500Y-96152182D01*
X102350500Y-94090801D01*
X104253101Y-94090801D01*
X104258093Y-94122320D01*
X104272947Y-94216105D01*
X104330543Y-94329143D01*
X104420251Y-94418851D01*
X104533289Y-94476447D01*
X104543078Y-94477997D01*
X104543080Y-94477998D01*
X104648800Y-94494742D01*
X104658593Y-94496293D01*
X104680319Y-94492852D01*
X104700029Y-94491301D01*
X118455972Y-94491301D01*
X118475682Y-94492852D01*
X118497408Y-94496293D01*
X118507201Y-94494742D01*
X118612921Y-94477998D01*
X118612923Y-94477997D01*
X118622712Y-94476447D01*
X118735750Y-94418851D01*
X118825458Y-94329143D01*
X118883054Y-94216105D01*
X118897908Y-94122320D01*
X118902900Y-94090801D01*
X118899459Y-94069075D01*
X118897908Y-94049365D01*
X118897908Y-83454301D01*
X120253601Y-83454301D01*
X120258593Y-83485820D01*
X120273447Y-83579605D01*
X120331043Y-83692643D01*
X120420751Y-83782351D01*
X120533789Y-83839947D01*
X120543578Y-83841497D01*
X120543580Y-83841498D01*
X120649300Y-83858242D01*
X120659093Y-83859793D01*
X120680819Y-83856352D01*
X120700529Y-83854801D01*
X134456472Y-83854801D01*
X134476182Y-83856352D01*
X134497908Y-83859793D01*
X134507701Y-83858242D01*
X134613421Y-83841498D01*
X134613423Y-83841497D01*
X134623212Y-83839947D01*
X134736250Y-83782351D01*
X134825958Y-83692643D01*
X134883554Y-83579605D01*
X134898408Y-83485820D01*
X134903400Y-83454301D01*
X134899959Y-83432575D01*
X134898408Y-83412865D01*
X134898408Y-77263051D01*
X141016101Y-77263051D01*
X141021093Y-77294570D01*
X141035947Y-77388355D01*
X141093543Y-77501393D01*
X141183251Y-77591101D01*
X141296289Y-77648697D01*
X141306078Y-77650247D01*
X141306080Y-77650248D01*
X141411800Y-77666992D01*
X141421593Y-77668543D01*
X141443319Y-77665102D01*
X141463029Y-77663551D01*
X155218972Y-77663551D01*
X155238682Y-77665102D01*
X155260408Y-77668543D01*
X155270201Y-77666992D01*
X155375921Y-77650248D01*
X155375923Y-77650247D01*
X155385712Y-77648697D01*
X155498750Y-77591101D01*
X155588458Y-77501393D01*
X155646054Y-77388355D01*
X155660908Y-77294570D01*
X155665900Y-77263051D01*
X155662459Y-77241325D01*
X155660908Y-77221615D01*
X155660908Y-63465673D01*
X155662459Y-63445963D01*
X155664349Y-63434030D01*
X155665900Y-63424237D01*
X155646054Y-63298933D01*
X155588458Y-63185895D01*
X155498750Y-63096187D01*
X155385712Y-63038591D01*
X155375923Y-63037041D01*
X155375921Y-63037040D01*
X155291927Y-63023737D01*
X155270201Y-63020296D01*
X155260408Y-63018745D01*
X155250615Y-63020296D01*
X155238682Y-63022186D01*
X155218972Y-63023737D01*
X141463029Y-63023737D01*
X141443319Y-63022186D01*
X141431386Y-63020296D01*
X141421593Y-63018745D01*
X141390074Y-63023737D01*
X141296289Y-63038591D01*
X141183251Y-63096187D01*
X141093543Y-63185895D01*
X141035947Y-63298933D01*
X141016101Y-63424237D01*
X141017652Y-63434030D01*
X141019542Y-63445963D01*
X141021093Y-63465673D01*
X141021093Y-77221615D01*
X141019542Y-77241325D01*
X141016101Y-77263051D01*
X134898408Y-77263051D01*
X134898408Y-69656923D01*
X134899959Y-69637213D01*
X134901849Y-69625280D01*
X134903400Y-69615487D01*
X134883554Y-69490183D01*
X134825958Y-69377145D01*
X134736250Y-69287437D01*
X134623212Y-69229841D01*
X134613423Y-69228291D01*
X134613421Y-69228290D01*
X134529427Y-69214987D01*
X134507701Y-69211546D01*
X134497908Y-69209995D01*
X134488115Y-69211546D01*
X134476182Y-69213436D01*
X134456472Y-69214987D01*
X120700529Y-69214987D01*
X120680819Y-69213436D01*
X120668886Y-69211546D01*
X120659093Y-69209995D01*
X120627574Y-69214987D01*
X120533789Y-69229841D01*
X120420751Y-69287437D01*
X120331043Y-69377145D01*
X120273447Y-69490183D01*
X120253601Y-69615487D01*
X120255152Y-69625280D01*
X120257042Y-69637213D01*
X120258593Y-69656923D01*
X120258593Y-83412865D01*
X120257042Y-83432575D01*
X120253601Y-83454301D01*
X118897908Y-83454301D01*
X118897908Y-80293423D01*
X118899459Y-80273713D01*
X118901349Y-80261780D01*
X118902900Y-80251987D01*
X118883054Y-80126683D01*
X118825458Y-80013645D01*
X118735750Y-79923937D01*
X118622712Y-79866341D01*
X118612923Y-79864791D01*
X118612921Y-79864790D01*
X118528927Y-79851487D01*
X118507201Y-79848046D01*
X118497408Y-79846495D01*
X118487615Y-79848046D01*
X118475682Y-79849936D01*
X118455972Y-79851487D01*
X104700029Y-79851487D01*
X104680319Y-79849936D01*
X104668386Y-79848046D01*
X104658593Y-79846495D01*
X104627074Y-79851487D01*
X104533289Y-79866341D01*
X104420251Y-79923937D01*
X104330543Y-80013645D01*
X104272947Y-80126683D01*
X104253101Y-80251987D01*
X104254652Y-80261780D01*
X104256542Y-80273713D01*
X104258093Y-80293423D01*
X104258093Y-94049365D01*
X104256542Y-94069075D01*
X104253101Y-94090801D01*
X102350500Y-94090801D01*
X102350500Y-78686048D01*
X102370502Y-78617927D01*
X102407932Y-78580339D01*
X118754407Y-67977220D01*
X118786982Y-67962179D01*
X134043897Y-63414444D01*
X139440805Y-61805750D01*
X139476798Y-61800500D01*
X158726662Y-61800500D01*
X158761095Y-61805296D01*
G37*
%TD.AperFunction*%
M02*
