%TF.GenerationSoftware,KiCad,Pcbnew,(6.0.8)*%
%TF.CreationDate,2022-10-28T13:13:37+09:00*%
%TF.ProjectId,selen-full_narrow_plate,73656c65-6e2d-4667-956c-6c5f6e617272,rev?*%
%TF.SameCoordinates,Original*%
%TF.FileFunction,Soldermask,Bot*%
%TF.FilePolarity,Negative*%
%FSLAX46Y46*%
G04 Gerber Fmt 4.6, Leading zero omitted, Abs format (unit mm)*
G04 Created by KiCad (PCBNEW (6.0.8)) date 2022-10-28 13:13:37*
%MOMM*%
%LPD*%
G01*
G04 APERTURE LIST*
%ADD10C,0.150000*%
G04 APERTURE END LIST*
D10*
X159742857Y-117152380D02*
X159742857Y-116152380D01*
X159361904Y-116152380D01*
X159266666Y-116200000D01*
X159219047Y-116247619D01*
X159171428Y-116342857D01*
X159171428Y-116485714D01*
X159219047Y-116580952D01*
X159266666Y-116628571D01*
X159361904Y-116676190D01*
X159742857Y-116676190D01*
X158171428Y-117057142D02*
X158219047Y-117104761D01*
X158361904Y-117152380D01*
X158457142Y-117152380D01*
X158600000Y-117104761D01*
X158695238Y-117009523D01*
X158742857Y-116914285D01*
X158790476Y-116723809D01*
X158790476Y-116580952D01*
X158742857Y-116390476D01*
X158695238Y-116295238D01*
X158600000Y-116200000D01*
X158457142Y-116152380D01*
X158361904Y-116152380D01*
X158219047Y-116200000D01*
X158171428Y-116247619D01*
X157409523Y-116628571D02*
X157266666Y-116676190D01*
X157219047Y-116723809D01*
X157171428Y-116819047D01*
X157171428Y-116961904D01*
X157219047Y-117057142D01*
X157266666Y-117104761D01*
X157361904Y-117152380D01*
X157742857Y-117152380D01*
X157742857Y-116152380D01*
X157409523Y-116152380D01*
X157314285Y-116200000D01*
X157266666Y-116247619D01*
X157219047Y-116342857D01*
X157219047Y-116438095D01*
X157266666Y-116533333D01*
X157314285Y-116580952D01*
X157409523Y-116628571D01*
X157742857Y-116628571D01*
X155980952Y-117152380D02*
X155980952Y-116152380D01*
X155742857Y-116152380D01*
X155600000Y-116200000D01*
X155504761Y-116295238D01*
X155457142Y-116390476D01*
X155409523Y-116580952D01*
X155409523Y-116723809D01*
X155457142Y-116914285D01*
X155504761Y-117009523D01*
X155600000Y-117104761D01*
X155742857Y-117152380D01*
X155980952Y-117152380D01*
X154600000Y-117104761D02*
X154695238Y-117152380D01*
X154885714Y-117152380D01*
X154980952Y-117104761D01*
X155028571Y-117009523D01*
X155028571Y-116628571D01*
X154980952Y-116533333D01*
X154885714Y-116485714D01*
X154695238Y-116485714D01*
X154600000Y-116533333D01*
X154552380Y-116628571D01*
X154552380Y-116723809D01*
X155028571Y-116819047D01*
X154171428Y-117104761D02*
X154076190Y-117152380D01*
X153885714Y-117152380D01*
X153790476Y-117104761D01*
X153742857Y-117009523D01*
X153742857Y-116961904D01*
X153790476Y-116866666D01*
X153885714Y-116819047D01*
X154028571Y-116819047D01*
X154123809Y-116771428D01*
X154171428Y-116676190D01*
X154171428Y-116628571D01*
X154123809Y-116533333D01*
X154028571Y-116485714D01*
X153885714Y-116485714D01*
X153790476Y-116533333D01*
X153314285Y-117152380D02*
X153314285Y-116485714D01*
X153314285Y-116152380D02*
X153361904Y-116200000D01*
X153314285Y-116247619D01*
X153266666Y-116200000D01*
X153314285Y-116152380D01*
X153314285Y-116247619D01*
X152409523Y-116485714D02*
X152409523Y-117295238D01*
X152457142Y-117390476D01*
X152504761Y-117438095D01*
X152600000Y-117485714D01*
X152742857Y-117485714D01*
X152838095Y-117438095D01*
X152409523Y-117104761D02*
X152504761Y-117152380D01*
X152695238Y-117152380D01*
X152790476Y-117104761D01*
X152838095Y-117057142D01*
X152885714Y-116961904D01*
X152885714Y-116676190D01*
X152838095Y-116580952D01*
X152790476Y-116533333D01*
X152695238Y-116485714D01*
X152504761Y-116485714D01*
X152409523Y-116533333D01*
X151933333Y-116485714D02*
X151933333Y-117152380D01*
X151933333Y-116580952D02*
X151885714Y-116533333D01*
X151790476Y-116485714D01*
X151647619Y-116485714D01*
X151552380Y-116533333D01*
X151504761Y-116628571D01*
X151504761Y-117152380D01*
X150647619Y-117104761D02*
X150742857Y-117152380D01*
X150933333Y-117152380D01*
X151028571Y-117104761D01*
X151076190Y-117009523D01*
X151076190Y-116628571D01*
X151028571Y-116533333D01*
X150933333Y-116485714D01*
X150742857Y-116485714D01*
X150647619Y-116533333D01*
X150600000Y-116628571D01*
X150600000Y-116723809D01*
X151076190Y-116819047D01*
X149742857Y-117152380D02*
X149742857Y-116152380D01*
X149742857Y-117104761D02*
X149838095Y-117152380D01*
X150028571Y-117152380D01*
X150123809Y-117104761D01*
X150171428Y-117057142D01*
X150219047Y-116961904D01*
X150219047Y-116676190D01*
X150171428Y-116580952D01*
X150123809Y-116533333D01*
X150028571Y-116485714D01*
X149838095Y-116485714D01*
X149742857Y-116533333D01*
X148504761Y-117152380D02*
X148504761Y-116152380D01*
X148504761Y-116533333D02*
X148409523Y-116485714D01*
X148219047Y-116485714D01*
X148123809Y-116533333D01*
X148076190Y-116580952D01*
X148028571Y-116676190D01*
X148028571Y-116961904D01*
X148076190Y-117057142D01*
X148123809Y-117104761D01*
X148219047Y-117152380D01*
X148409523Y-117152380D01*
X148504761Y-117104761D01*
X147695238Y-116485714D02*
X147457142Y-117152380D01*
X147219047Y-116485714D02*
X147457142Y-117152380D01*
X147552380Y-117390476D01*
X147600000Y-117438095D01*
X147695238Y-117485714D01*
X145457142Y-116676190D02*
X145504761Y-116628571D01*
X145600000Y-116580952D01*
X145695238Y-116580952D01*
X145790476Y-116628571D01*
X145838095Y-116676190D01*
X145885714Y-116771428D01*
X145885714Y-116866666D01*
X145838095Y-116961904D01*
X145790476Y-117009523D01*
X145695238Y-117057142D01*
X145600000Y-117057142D01*
X145504761Y-117009523D01*
X145457142Y-116961904D01*
X145457142Y-116580952D02*
X145457142Y-116961904D01*
X145409523Y-117009523D01*
X145361904Y-117009523D01*
X145266666Y-116961904D01*
X145219047Y-116866666D01*
X145219047Y-116628571D01*
X145314285Y-116485714D01*
X145457142Y-116390476D01*
X145647619Y-116342857D01*
X145838095Y-116390476D01*
X145980952Y-116485714D01*
X146076190Y-116628571D01*
X146123809Y-116819047D01*
X146076190Y-117009523D01*
X145980952Y-117152380D01*
X145838095Y-117247619D01*
X145647619Y-117295238D01*
X145457142Y-117247619D01*
X145314285Y-117152380D01*
X144790476Y-116485714D02*
X144790476Y-117152380D01*
X144790476Y-116580952D02*
X144742857Y-116533333D01*
X144647619Y-116485714D01*
X144504761Y-116485714D01*
X144409523Y-116533333D01*
X144361904Y-116628571D01*
X144361904Y-117152380D01*
X143457142Y-117152380D02*
X143457142Y-116628571D01*
X143504761Y-116533333D01*
X143600000Y-116485714D01*
X143790476Y-116485714D01*
X143885714Y-116533333D01*
X143457142Y-117104761D02*
X143552380Y-117152380D01*
X143790476Y-117152380D01*
X143885714Y-117104761D01*
X143933333Y-117009523D01*
X143933333Y-116914285D01*
X143885714Y-116819047D01*
X143790476Y-116771428D01*
X143552380Y-116771428D01*
X143457142Y-116723809D01*
X142980952Y-117152380D02*
X142980952Y-116485714D01*
X142980952Y-116676190D02*
X142933333Y-116580952D01*
X142885714Y-116533333D01*
X142790476Y-116485714D01*
X142695238Y-116485714D01*
X142361904Y-117152380D02*
X142361904Y-116485714D01*
X142361904Y-116152380D02*
X142409523Y-116200000D01*
X142361904Y-116247619D01*
X142314285Y-116200000D01*
X142361904Y-116152380D01*
X142361904Y-116247619D01*
X141885714Y-116485714D02*
X141885714Y-117152380D01*
X141885714Y-116580952D02*
X141838095Y-116533333D01*
X141742857Y-116485714D01*
X141600000Y-116485714D01*
X141504761Y-116533333D01*
X141457142Y-116628571D01*
X141457142Y-117152380D01*
X140552380Y-117152380D02*
X140552380Y-116628571D01*
X140600000Y-116533333D01*
X140695238Y-116485714D01*
X140885714Y-116485714D01*
X140980952Y-116533333D01*
X140552380Y-117104761D02*
X140647619Y-117152380D01*
X140885714Y-117152380D01*
X140980952Y-117104761D01*
X141028571Y-117009523D01*
X141028571Y-116914285D01*
X140980952Y-116819047D01*
X140885714Y-116771428D01*
X140647619Y-116771428D01*
X140552380Y-116723809D01*
X140076190Y-117152380D02*
X140076190Y-116485714D01*
X140076190Y-116676190D02*
X140028571Y-116580952D01*
X139980952Y-116533333D01*
X139885714Y-116485714D01*
X139790476Y-116485714D01*
X139457142Y-117152380D02*
X139457142Y-116485714D01*
X139457142Y-116152380D02*
X139504761Y-116200000D01*
X139457142Y-116247619D01*
X139409523Y-116200000D01*
X139457142Y-116152380D01*
X139457142Y-116247619D01*
X158409523Y-115304761D02*
X158266666Y-115352380D01*
X158028571Y-115352380D01*
X157933333Y-115304761D01*
X157885714Y-115257142D01*
X157838095Y-115161904D01*
X157838095Y-115066666D01*
X157885714Y-114971428D01*
X157933333Y-114923809D01*
X158028571Y-114876190D01*
X158219047Y-114828571D01*
X158314285Y-114780952D01*
X158361904Y-114733333D01*
X158409523Y-114638095D01*
X158409523Y-114542857D01*
X158361904Y-114447619D01*
X158314285Y-114400000D01*
X158219047Y-114352380D01*
X157980952Y-114352380D01*
X157838095Y-114400000D01*
X157028571Y-115304761D02*
X157123809Y-115352380D01*
X157314285Y-115352380D01*
X157409523Y-115304761D01*
X157457142Y-115209523D01*
X157457142Y-114828571D01*
X157409523Y-114733333D01*
X157314285Y-114685714D01*
X157123809Y-114685714D01*
X157028571Y-114733333D01*
X156980952Y-114828571D01*
X156980952Y-114923809D01*
X157457142Y-115019047D01*
X156409523Y-115352380D02*
X156504761Y-115304761D01*
X156552380Y-115209523D01*
X156552380Y-114352380D01*
X155647619Y-115304761D02*
X155742857Y-115352380D01*
X155933333Y-115352380D01*
X156028571Y-115304761D01*
X156076190Y-115209523D01*
X156076190Y-114828571D01*
X156028571Y-114733333D01*
X155933333Y-114685714D01*
X155742857Y-114685714D01*
X155647619Y-114733333D01*
X155600000Y-114828571D01*
X155600000Y-114923809D01*
X156076190Y-115019047D01*
X155171428Y-114685714D02*
X155171428Y-115352380D01*
X155171428Y-114780952D02*
X155123809Y-114733333D01*
X155028571Y-114685714D01*
X154885714Y-114685714D01*
X154790476Y-114733333D01*
X154742857Y-114828571D01*
X154742857Y-115352380D01*
X153504761Y-115352380D02*
X153504761Y-114685714D01*
X153504761Y-114876190D02*
X153457142Y-114780952D01*
X153409523Y-114733333D01*
X153314285Y-114685714D01*
X153219047Y-114685714D01*
X152933333Y-114447619D02*
X152885714Y-114400000D01*
X152790476Y-114352380D01*
X152552380Y-114352380D01*
X152457142Y-114400000D01*
X152409523Y-114447619D01*
X152361904Y-114542857D01*
X152361904Y-114638095D01*
X152409523Y-114780952D01*
X152980952Y-115352380D01*
X152361904Y-115352380D01*
X151266666Y-114685714D02*
X151028571Y-115352380D01*
X150790476Y-114685714D01*
X150409523Y-115257142D02*
X150361904Y-115304761D01*
X150409523Y-115352380D01*
X150457142Y-115304761D01*
X150409523Y-115257142D01*
X150409523Y-115352380D01*
X149742857Y-114352380D02*
X149647619Y-114352380D01*
X149552380Y-114400000D01*
X149504761Y-114447619D01*
X149457142Y-114542857D01*
X149409523Y-114733333D01*
X149409523Y-114971428D01*
X149457142Y-115161904D01*
X149504761Y-115257142D01*
X149552380Y-115304761D01*
X149647619Y-115352380D01*
X149742857Y-115352380D01*
X149838095Y-115304761D01*
X149885714Y-115257142D01*
X149933333Y-115161904D01*
X149980952Y-114971428D01*
X149980952Y-114733333D01*
X149933333Y-114542857D01*
X149885714Y-114447619D01*
X149838095Y-114400000D01*
X149742857Y-114352380D01*
X148980952Y-115257142D02*
X148933333Y-115304761D01*
X148980952Y-115352380D01*
X149028571Y-115304761D01*
X148980952Y-115257142D01*
X148980952Y-115352380D01*
X148600000Y-114352380D02*
X147980952Y-114352380D01*
X148314285Y-114733333D01*
X148171428Y-114733333D01*
X148076190Y-114780952D01*
X148028571Y-114828571D01*
X147980952Y-114923809D01*
X147980952Y-115161904D01*
X148028571Y-115257142D01*
X148076190Y-115304761D01*
X148171428Y-115352380D01*
X148457142Y-115352380D01*
X148552380Y-115304761D01*
X148600000Y-115257142D01*
X147552380Y-115257142D02*
X147504761Y-115304761D01*
X147552380Y-115352380D01*
X147600000Y-115304761D01*
X147552380Y-115257142D01*
X147552380Y-115352380D01*
X146885714Y-114352380D02*
X146790476Y-114352380D01*
X146695238Y-114400000D01*
X146647619Y-114447619D01*
X146600000Y-114542857D01*
X146552380Y-114733333D01*
X146552380Y-114971428D01*
X146600000Y-115161904D01*
X146647619Y-115257142D01*
X146695238Y-115304761D01*
X146790476Y-115352380D01*
X146885714Y-115352380D01*
X146980952Y-115304761D01*
X147028571Y-115257142D01*
X147076190Y-115161904D01*
X147123809Y-114971428D01*
X147123809Y-114733333D01*
X147076190Y-114542857D01*
X147028571Y-114447619D01*
X146980952Y-114400000D01*
X146885714Y-114352380D01*
X145361904Y-114685714D02*
X145361904Y-115352380D01*
X145361904Y-114780952D02*
X145314285Y-114733333D01*
X145219047Y-114685714D01*
X145076190Y-114685714D01*
X144980952Y-114733333D01*
X144933333Y-114828571D01*
X144933333Y-115352380D01*
X144028571Y-115352380D02*
X144028571Y-114828571D01*
X144076190Y-114733333D01*
X144171428Y-114685714D01*
X144361904Y-114685714D01*
X144457142Y-114733333D01*
X144028571Y-115304761D02*
X144123809Y-115352380D01*
X144361904Y-115352380D01*
X144457142Y-115304761D01*
X144504761Y-115209523D01*
X144504761Y-115114285D01*
X144457142Y-115019047D01*
X144361904Y-114971428D01*
X144123809Y-114971428D01*
X144028571Y-114923809D01*
X143552380Y-115352380D02*
X143552380Y-114685714D01*
X143552380Y-114876190D02*
X143504761Y-114780952D01*
X143457142Y-114733333D01*
X143361904Y-114685714D01*
X143266666Y-114685714D01*
X142933333Y-115352380D02*
X142933333Y-114685714D01*
X142933333Y-114876190D02*
X142885714Y-114780952D01*
X142838095Y-114733333D01*
X142742857Y-114685714D01*
X142647619Y-114685714D01*
X142171428Y-115352380D02*
X142266666Y-115304761D01*
X142314285Y-115257142D01*
X142361904Y-115161904D01*
X142361904Y-114876190D01*
X142314285Y-114780952D01*
X142266666Y-114733333D01*
X142171428Y-114685714D01*
X142028571Y-114685714D01*
X141933333Y-114733333D01*
X141885714Y-114780952D01*
X141838095Y-114876190D01*
X141838095Y-115161904D01*
X141885714Y-115257142D01*
X141933333Y-115304761D01*
X142028571Y-115352380D01*
X142171428Y-115352380D01*
X141504761Y-114685714D02*
X141314285Y-115352380D01*
X141123809Y-114876190D01*
X140933333Y-115352380D01*
X140742857Y-114685714D01*
M02*
