%TF.GenerationSoftware,KiCad,Pcbnew,(6.0.8)*%
%TF.CreationDate,2022-10-28T13:14:18+09:00*%
%TF.ProjectId,selen-full_narrow,73656c65-6e2d-4667-956c-6c5f6e617272,rev?*%
%TF.SameCoordinates,Original*%
%TF.FileFunction,Soldermask,Bot*%
%TF.FilePolarity,Negative*%
%FSLAX46Y46*%
G04 Gerber Fmt 4.6, Leading zero omitted, Abs format (unit mm)*
G04 Created by KiCad (PCBNEW (6.0.8)) date 2022-10-28 13:14:18*
%MOMM*%
%LPD*%
G01*
G04 APERTURE LIST*
G04 Aperture macros list*
%AMRoundRect*
0 Rectangle with rounded corners*
0 $1 Rounding radius*
0 $2 $3 $4 $5 $6 $7 $8 $9 X,Y pos of 4 corners*
0 Add a 4 corners polygon primitive as box body*
4,1,4,$2,$3,$4,$5,$6,$7,$8,$9,$2,$3,0*
0 Add four circle primitives for the rounded corners*
1,1,$1+$1,$2,$3*
1,1,$1+$1,$4,$5*
1,1,$1+$1,$6,$7*
1,1,$1+$1,$8,$9*
0 Add four rect primitives between the rounded corners*
20,1,$1+$1,$2,$3,$4,$5,0*
20,1,$1+$1,$4,$5,$6,$7,0*
20,1,$1+$1,$6,$7,$8,$9,0*
20,1,$1+$1,$8,$9,$2,$3,0*%
%AMHorizOval*
0 Thick line with rounded ends*
0 $1 width*
0 $2 $3 position (X,Y) of the first rounded end (center of the circle)*
0 $4 $5 position (X,Y) of the second rounded end (center of the circle)*
0 Add line between two ends*
20,1,$1,$2,$3,$4,$5,0*
0 Add two circle primitives to create the rounded ends*
1,1,$1,$2,$3*
1,1,$1,$4,$5*%
%AMRotRect*
0 Rectangle, with rotation*
0 The origin of the aperture is its center*
0 $1 length*
0 $2 width*
0 $3 Rotation angle, in degrees counterclockwise*
0 Add horizontal line*
21,1,$1,$2,0,0,$3*%
%AMFreePoly0*
4,1,6,0.600000,0.200000,0.000000,-0.400000,-0.600000,0.200000,-0.600000,0.400000,0.600000,0.400000,0.600000,0.200000,0.600000,0.200000,$1*%
%AMFreePoly1*
4,1,6,0.600000,-0.250000,-0.600000,-0.250000,-0.600000,1.000000,0.000000,0.400000,0.600000,1.000000,0.600000,-0.250000,0.600000,-0.250000,$1*%
G04 Aperture macros list end*
%ADD10C,0.150000*%
%ADD11R,1.400000X1.200000*%
%ADD12C,0.500000*%
%ADD13RotRect,1.200000X1.400000X342.000000*%
%ADD14C,3.000000*%
%ADD15C,1.700000*%
%ADD16C,1.900000*%
%ADD17C,4.000000*%
%ADD18R,2.000000X2.000000*%
%ADD19R,1.900000X2.000000*%
%ADD20FreePoly0,90.000000*%
%ADD21O,1.700000X1.700000*%
%ADD22FreePoly1,90.000000*%
%ADD23R,1.200000X1.400000*%
%ADD24C,3.800000*%
%ADD25RotRect,2.000000X2.000000X354.000000*%
%ADD26RotRect,1.900000X2.000000X354.000000*%
%ADD27C,3.400000*%
%ADD28RotRect,2.000000X2.000000X342.000000*%
%ADD29RotRect,1.900000X2.000000X342.000000*%
%ADD30C,1.200000*%
%ADD31HorizOval,1.700000X-0.380423X0.123607X0.380423X-0.123607X0*%
%ADD32RoundRect,0.499745X-0.874395X-0.499745X0.874395X-0.499745X0.874395X0.499745X-0.874395X0.499745X0*%
%ADD33FreePoly0,270.000000*%
%ADD34FreePoly1,270.000000*%
%ADD35C,1.143000*%
%ADD36C,3.200000*%
G04 APERTURE END LIST*
D10*
X165576308Y-118052380D02*
X165576308Y-117052380D01*
X165195356Y-117052380D01*
X165100118Y-117100000D01*
X165052499Y-117147619D01*
X165004880Y-117242857D01*
X165004880Y-117385714D01*
X165052499Y-117480952D01*
X165100118Y-117528571D01*
X165195356Y-117576190D01*
X165576308Y-117576190D01*
X164004880Y-117957142D02*
X164052499Y-118004761D01*
X164195356Y-118052380D01*
X164290594Y-118052380D01*
X164433451Y-118004761D01*
X164528689Y-117909523D01*
X164576308Y-117814285D01*
X164623927Y-117623809D01*
X164623927Y-117480952D01*
X164576308Y-117290476D01*
X164528689Y-117195238D01*
X164433451Y-117100000D01*
X164290594Y-117052380D01*
X164195356Y-117052380D01*
X164052499Y-117100000D01*
X164004880Y-117147619D01*
X163242975Y-117528571D02*
X163100118Y-117576190D01*
X163052499Y-117623809D01*
X163004880Y-117719047D01*
X163004880Y-117861904D01*
X163052499Y-117957142D01*
X163100118Y-118004761D01*
X163195356Y-118052380D01*
X163576308Y-118052380D01*
X163576308Y-117052380D01*
X163242975Y-117052380D01*
X163147737Y-117100000D01*
X163100118Y-117147619D01*
X163052499Y-117242857D01*
X163052499Y-117338095D01*
X163100118Y-117433333D01*
X163147737Y-117480952D01*
X163242975Y-117528571D01*
X163576308Y-117528571D01*
X161814404Y-118052380D02*
X161814404Y-117052380D01*
X161576308Y-117052380D01*
X161433451Y-117100000D01*
X161338213Y-117195238D01*
X161290594Y-117290476D01*
X161242975Y-117480952D01*
X161242975Y-117623809D01*
X161290594Y-117814285D01*
X161338213Y-117909523D01*
X161433451Y-118004761D01*
X161576308Y-118052380D01*
X161814404Y-118052380D01*
X160433451Y-118004761D02*
X160528689Y-118052380D01*
X160719165Y-118052380D01*
X160814404Y-118004761D01*
X160862023Y-117909523D01*
X160862023Y-117528571D01*
X160814404Y-117433333D01*
X160719165Y-117385714D01*
X160528689Y-117385714D01*
X160433451Y-117433333D01*
X160385832Y-117528571D01*
X160385832Y-117623809D01*
X160862023Y-117719047D01*
X160004880Y-118004761D02*
X159909642Y-118052380D01*
X159719165Y-118052380D01*
X159623927Y-118004761D01*
X159576308Y-117909523D01*
X159576308Y-117861904D01*
X159623927Y-117766666D01*
X159719165Y-117719047D01*
X159862023Y-117719047D01*
X159957261Y-117671428D01*
X160004880Y-117576190D01*
X160004880Y-117528571D01*
X159957261Y-117433333D01*
X159862023Y-117385714D01*
X159719165Y-117385714D01*
X159623927Y-117433333D01*
X159147737Y-118052380D02*
X159147737Y-117385714D01*
X159147737Y-117052380D02*
X159195356Y-117100000D01*
X159147737Y-117147619D01*
X159100118Y-117100000D01*
X159147737Y-117052380D01*
X159147737Y-117147619D01*
X158242975Y-117385714D02*
X158242975Y-118195238D01*
X158290594Y-118290476D01*
X158338213Y-118338095D01*
X158433451Y-118385714D01*
X158576308Y-118385714D01*
X158671546Y-118338095D01*
X158242975Y-118004761D02*
X158338213Y-118052380D01*
X158528689Y-118052380D01*
X158623927Y-118004761D01*
X158671546Y-117957142D01*
X158719165Y-117861904D01*
X158719165Y-117576190D01*
X158671546Y-117480952D01*
X158623927Y-117433333D01*
X158528689Y-117385714D01*
X158338213Y-117385714D01*
X158242975Y-117433333D01*
X157766784Y-117385714D02*
X157766784Y-118052380D01*
X157766784Y-117480952D02*
X157719165Y-117433333D01*
X157623927Y-117385714D01*
X157481070Y-117385714D01*
X157385832Y-117433333D01*
X157338213Y-117528571D01*
X157338213Y-118052380D01*
X156481070Y-118004761D02*
X156576308Y-118052380D01*
X156766784Y-118052380D01*
X156862023Y-118004761D01*
X156909642Y-117909523D01*
X156909642Y-117528571D01*
X156862023Y-117433333D01*
X156766784Y-117385714D01*
X156576308Y-117385714D01*
X156481070Y-117433333D01*
X156433451Y-117528571D01*
X156433451Y-117623809D01*
X156909642Y-117719047D01*
X155576308Y-118052380D02*
X155576308Y-117052380D01*
X155576308Y-118004761D02*
X155671546Y-118052380D01*
X155862023Y-118052380D01*
X155957261Y-118004761D01*
X156004880Y-117957142D01*
X156052499Y-117861904D01*
X156052499Y-117576190D01*
X156004880Y-117480952D01*
X155957261Y-117433333D01*
X155862023Y-117385714D01*
X155671546Y-117385714D01*
X155576308Y-117433333D01*
X154338213Y-118052380D02*
X154338213Y-117052380D01*
X154338213Y-117433333D02*
X154242975Y-117385714D01*
X154052499Y-117385714D01*
X153957261Y-117433333D01*
X153909642Y-117480952D01*
X153862023Y-117576190D01*
X153862023Y-117861904D01*
X153909642Y-117957142D01*
X153957261Y-118004761D01*
X154052499Y-118052380D01*
X154242975Y-118052380D01*
X154338213Y-118004761D01*
X153528689Y-117385714D02*
X153290594Y-118052380D01*
X153052499Y-117385714D02*
X153290594Y-118052380D01*
X153385832Y-118290476D01*
X153433451Y-118338095D01*
X153528689Y-118385714D01*
X151290594Y-117576190D02*
X151338213Y-117528571D01*
X151433451Y-117480952D01*
X151528689Y-117480952D01*
X151623927Y-117528571D01*
X151671546Y-117576190D01*
X151719165Y-117671428D01*
X151719165Y-117766666D01*
X151671546Y-117861904D01*
X151623927Y-117909523D01*
X151528689Y-117957142D01*
X151433451Y-117957142D01*
X151338213Y-117909523D01*
X151290594Y-117861904D01*
X151290594Y-117480952D02*
X151290594Y-117861904D01*
X151242975Y-117909523D01*
X151195356Y-117909523D01*
X151100118Y-117861904D01*
X151052499Y-117766666D01*
X151052499Y-117528571D01*
X151147737Y-117385714D01*
X151290594Y-117290476D01*
X151481070Y-117242857D01*
X151671546Y-117290476D01*
X151814404Y-117385714D01*
X151909642Y-117528571D01*
X151957261Y-117719047D01*
X151909642Y-117909523D01*
X151814404Y-118052380D01*
X151671546Y-118147619D01*
X151481070Y-118195238D01*
X151290594Y-118147619D01*
X151147737Y-118052380D01*
X150623927Y-117385714D02*
X150623927Y-118052380D01*
X150623927Y-117480952D02*
X150576308Y-117433333D01*
X150481070Y-117385714D01*
X150338213Y-117385714D01*
X150242975Y-117433333D01*
X150195356Y-117528571D01*
X150195356Y-118052380D01*
X149290594Y-118052380D02*
X149290594Y-117528571D01*
X149338213Y-117433333D01*
X149433451Y-117385714D01*
X149623927Y-117385714D01*
X149719165Y-117433333D01*
X149290594Y-118004761D02*
X149385832Y-118052380D01*
X149623927Y-118052380D01*
X149719165Y-118004761D01*
X149766784Y-117909523D01*
X149766784Y-117814285D01*
X149719165Y-117719047D01*
X149623927Y-117671428D01*
X149385832Y-117671428D01*
X149290594Y-117623809D01*
X148814404Y-118052380D02*
X148814404Y-117385714D01*
X148814404Y-117576190D02*
X148766784Y-117480952D01*
X148719165Y-117433333D01*
X148623927Y-117385714D01*
X148528689Y-117385714D01*
X148195356Y-118052380D02*
X148195356Y-117385714D01*
X148195356Y-117052380D02*
X148242975Y-117100000D01*
X148195356Y-117147619D01*
X148147737Y-117100000D01*
X148195356Y-117052380D01*
X148195356Y-117147619D01*
X147719165Y-117385714D02*
X147719165Y-118052380D01*
X147719165Y-117480952D02*
X147671546Y-117433333D01*
X147576308Y-117385714D01*
X147433451Y-117385714D01*
X147338213Y-117433333D01*
X147290594Y-117528571D01*
X147290594Y-118052380D01*
X146385832Y-118052380D02*
X146385832Y-117528571D01*
X146433451Y-117433333D01*
X146528689Y-117385714D01*
X146719165Y-117385714D01*
X146814404Y-117433333D01*
X146385832Y-118004761D02*
X146481070Y-118052380D01*
X146719165Y-118052380D01*
X146814404Y-118004761D01*
X146862023Y-117909523D01*
X146862023Y-117814285D01*
X146814404Y-117719047D01*
X146719165Y-117671428D01*
X146481070Y-117671428D01*
X146385832Y-117623809D01*
X145909642Y-118052380D02*
X145909642Y-117385714D01*
X145909642Y-117576190D02*
X145862023Y-117480952D01*
X145814404Y-117433333D01*
X145719165Y-117385714D01*
X145623927Y-117385714D01*
X145290594Y-118052380D02*
X145290594Y-117385714D01*
X145290594Y-117052380D02*
X145338213Y-117100000D01*
X145290594Y-117147619D01*
X145242975Y-117100000D01*
X145290594Y-117052380D01*
X145290594Y-117147619D01*
X165623927Y-116004761D02*
X165481070Y-116052380D01*
X165242975Y-116052380D01*
X165147737Y-116004761D01*
X165100118Y-115957142D01*
X165052499Y-115861904D01*
X165052499Y-115766666D01*
X165100118Y-115671428D01*
X165147737Y-115623809D01*
X165242975Y-115576190D01*
X165433451Y-115528571D01*
X165528689Y-115480952D01*
X165576308Y-115433333D01*
X165623927Y-115338095D01*
X165623927Y-115242857D01*
X165576308Y-115147619D01*
X165528689Y-115100000D01*
X165433451Y-115052380D01*
X165195356Y-115052380D01*
X165052499Y-115100000D01*
X164242975Y-116004761D02*
X164338213Y-116052380D01*
X164528689Y-116052380D01*
X164623927Y-116004761D01*
X164671546Y-115909523D01*
X164671546Y-115528571D01*
X164623927Y-115433333D01*
X164528689Y-115385714D01*
X164338213Y-115385714D01*
X164242975Y-115433333D01*
X164195356Y-115528571D01*
X164195356Y-115623809D01*
X164671546Y-115719047D01*
X163623927Y-116052380D02*
X163719165Y-116004761D01*
X163766784Y-115909523D01*
X163766784Y-115052380D01*
X162862023Y-116004761D02*
X162957261Y-116052380D01*
X163147737Y-116052380D01*
X163242975Y-116004761D01*
X163290594Y-115909523D01*
X163290594Y-115528571D01*
X163242975Y-115433333D01*
X163147737Y-115385714D01*
X162957261Y-115385714D01*
X162862023Y-115433333D01*
X162814404Y-115528571D01*
X162814404Y-115623809D01*
X163290594Y-115719047D01*
X162385832Y-115385714D02*
X162385832Y-116052380D01*
X162385832Y-115480952D02*
X162338213Y-115433333D01*
X162242975Y-115385714D01*
X162100118Y-115385714D01*
X162004880Y-115433333D01*
X161957261Y-115528571D01*
X161957261Y-116052380D01*
X160719165Y-116052380D02*
X160719165Y-115385714D01*
X160719165Y-115576190D02*
X160671546Y-115480952D01*
X160623927Y-115433333D01*
X160528689Y-115385714D01*
X160433451Y-115385714D01*
X160147737Y-115147619D02*
X160100118Y-115100000D01*
X160004880Y-115052380D01*
X159766784Y-115052380D01*
X159671546Y-115100000D01*
X159623927Y-115147619D01*
X159576308Y-115242857D01*
X159576308Y-115338095D01*
X159623927Y-115480952D01*
X160195356Y-116052380D01*
X159576308Y-116052380D01*
X158481070Y-115385714D02*
X158242975Y-116052380D01*
X158004880Y-115385714D01*
X157623927Y-115957142D02*
X157576308Y-116004761D01*
X157623927Y-116052380D01*
X157671546Y-116004761D01*
X157623927Y-115957142D01*
X157623927Y-116052380D01*
X156957261Y-115052380D02*
X156862023Y-115052380D01*
X156766784Y-115100000D01*
X156719165Y-115147619D01*
X156671546Y-115242857D01*
X156623927Y-115433333D01*
X156623927Y-115671428D01*
X156671546Y-115861904D01*
X156719165Y-115957142D01*
X156766784Y-116004761D01*
X156862023Y-116052380D01*
X156957261Y-116052380D01*
X157052499Y-116004761D01*
X157100118Y-115957142D01*
X157147737Y-115861904D01*
X157195356Y-115671428D01*
X157195356Y-115433333D01*
X157147737Y-115242857D01*
X157100118Y-115147619D01*
X157052499Y-115100000D01*
X156957261Y-115052380D01*
X156195356Y-115957142D02*
X156147737Y-116004761D01*
X156195356Y-116052380D01*
X156242975Y-116004761D01*
X156195356Y-115957142D01*
X156195356Y-116052380D01*
X155814404Y-115052380D02*
X155195356Y-115052380D01*
X155528689Y-115433333D01*
X155385832Y-115433333D01*
X155290594Y-115480952D01*
X155242975Y-115528571D01*
X155195356Y-115623809D01*
X155195356Y-115861904D01*
X155242975Y-115957142D01*
X155290594Y-116004761D01*
X155385832Y-116052380D01*
X155671546Y-116052380D01*
X155766784Y-116004761D01*
X155814404Y-115957142D01*
X154766784Y-115957142D02*
X154719165Y-116004761D01*
X154766784Y-116052380D01*
X154814404Y-116004761D01*
X154766784Y-115957142D01*
X154766784Y-116052380D01*
X154100118Y-115052380D02*
X154004880Y-115052380D01*
X153909642Y-115100000D01*
X153862023Y-115147619D01*
X153814404Y-115242857D01*
X153766784Y-115433333D01*
X153766784Y-115671428D01*
X153814404Y-115861904D01*
X153862023Y-115957142D01*
X153909642Y-116004761D01*
X154004880Y-116052380D01*
X154100118Y-116052380D01*
X154195356Y-116004761D01*
X154242975Y-115957142D01*
X154290594Y-115861904D01*
X154338213Y-115671428D01*
X154338213Y-115433333D01*
X154290594Y-115242857D01*
X154242975Y-115147619D01*
X154195356Y-115100000D01*
X154100118Y-115052380D01*
X152576308Y-115385714D02*
X152576308Y-116052380D01*
X152576308Y-115480952D02*
X152528689Y-115433333D01*
X152433451Y-115385714D01*
X152290594Y-115385714D01*
X152195356Y-115433333D01*
X152147737Y-115528571D01*
X152147737Y-116052380D01*
X151242975Y-116052380D02*
X151242975Y-115528571D01*
X151290594Y-115433333D01*
X151385832Y-115385714D01*
X151576308Y-115385714D01*
X151671546Y-115433333D01*
X151242975Y-116004761D02*
X151338213Y-116052380D01*
X151576308Y-116052380D01*
X151671546Y-116004761D01*
X151719165Y-115909523D01*
X151719165Y-115814285D01*
X151671546Y-115719047D01*
X151576308Y-115671428D01*
X151338213Y-115671428D01*
X151242975Y-115623809D01*
X150766784Y-116052380D02*
X150766784Y-115385714D01*
X150766784Y-115576190D02*
X150719165Y-115480952D01*
X150671546Y-115433333D01*
X150576308Y-115385714D01*
X150481070Y-115385714D01*
X150147737Y-116052380D02*
X150147737Y-115385714D01*
X150147737Y-115576190D02*
X150100118Y-115480952D01*
X150052499Y-115433333D01*
X149957261Y-115385714D01*
X149862023Y-115385714D01*
X149385832Y-116052380D02*
X149481070Y-116004761D01*
X149528689Y-115957142D01*
X149576308Y-115861904D01*
X149576308Y-115576190D01*
X149528689Y-115480952D01*
X149481070Y-115433333D01*
X149385832Y-115385714D01*
X149242975Y-115385714D01*
X149147737Y-115433333D01*
X149100118Y-115480952D01*
X149052499Y-115576190D01*
X149052499Y-115861904D01*
X149100118Y-115957142D01*
X149147737Y-116004761D01*
X149242975Y-116052380D01*
X149385832Y-116052380D01*
X148719165Y-115385714D02*
X148528689Y-116052380D01*
X148338213Y-115576190D01*
X148147737Y-116052380D01*
X147957261Y-115385714D01*
D11*
%TO.C,D9*%
X155500000Y-93300000D03*
D12*
X155950000Y-92950000D03*
X155050000Y-97150000D03*
D11*
X155500000Y-96800000D03*
%TD*%
D12*
%TO.C,D4*%
X155898000Y-77022000D03*
D11*
X155448000Y-77372000D03*
D12*
X154998000Y-81222000D03*
D11*
X155448000Y-80872000D03*
%TD*%
D12*
%TO.C,D12*%
X141950000Y-109950000D03*
D11*
X141500000Y-110300000D03*
D12*
X141050000Y-114150000D03*
D11*
X141500000Y-113800000D03*
%TD*%
D12*
%TO.C,D17*%
X192795490Y-127382309D03*
D13*
X192989302Y-127918440D03*
X196318000Y-129000000D03*
D12*
X196511812Y-129536131D03*
%TD*%
D14*
%TO.C,SW1*%
X109038000Y-92301500D03*
D15*
X116658000Y-87221500D03*
X106498000Y-87221500D03*
D14*
X107768000Y-89761500D03*
X106578000Y-83521500D03*
D16*
X117078000Y-87221500D03*
X106078000Y-87221500D03*
D14*
X115388000Y-89761500D03*
X111578000Y-81321500D03*
X114118000Y-92301500D03*
X116578000Y-83521500D03*
D17*
X111578000Y-87221500D03*
D18*
X118478000Y-89761500D03*
X119678000Y-83521500D03*
D19*
X108778000Y-81321500D03*
D18*
X105978000Y-92301500D03*
%TD*%
D14*
%TO.C,SW13*%
X145801000Y-107473750D03*
X148341000Y-96493750D03*
D17*
X148341000Y-102393750D03*
D14*
X153341000Y-98693750D03*
X143341000Y-98693750D03*
X152151000Y-104933750D03*
D16*
X142841000Y-102393750D03*
D15*
X143261000Y-102393750D03*
D14*
X144531000Y-104933750D03*
X150881000Y-107473750D03*
D15*
X153421000Y-102393750D03*
D16*
X153841000Y-102393750D03*
D18*
X156441000Y-98693750D03*
X155241000Y-104933750D03*
X142741000Y-107473750D03*
D19*
X145541000Y-96493750D03*
%TD*%
D11*
%TO.C,D15*%
X171350000Y-117850000D03*
D12*
X170900000Y-118200000D03*
D11*
X171350000Y-114350000D03*
D12*
X171800000Y-114000000D03*
%TD*%
D11*
%TO.C,D8*%
X140600000Y-94300000D03*
D12*
X140150000Y-94650000D03*
X141050000Y-90450000D03*
D11*
X140600000Y-90800000D03*
%TD*%
D20*
%TO.C,J2*%
X170600000Y-123000000D03*
D21*
X168700000Y-125080000D03*
X168700000Y-122540000D03*
D20*
X170600000Y-124400000D03*
D21*
X168700000Y-120000000D03*
D20*
X170600000Y-121600000D03*
X170600000Y-125800000D03*
D21*
X168700000Y-127620000D03*
D22*
X171600000Y-121600000D03*
X171600000Y-123000000D03*
X171600000Y-124400000D03*
X171600000Y-125800000D03*
%TD*%
D14*
%TO.C,SW7*%
X134959750Y-88885000D03*
X127419750Y-97665000D03*
D16*
X135459750Y-92585000D03*
D15*
X124879750Y-92585000D03*
D14*
X129959750Y-86685000D03*
X124959750Y-88885000D03*
X126149750Y-95125000D03*
X132499750Y-97665000D03*
D17*
X129959750Y-92585000D03*
D16*
X124459750Y-92585000D03*
D14*
X133769750Y-95125000D03*
D15*
X135039750Y-92585000D03*
D18*
X138059750Y-88885000D03*
X136859750Y-95125000D03*
D19*
X127159750Y-86685000D03*
D18*
X124359750Y-97665000D03*
%TD*%
D12*
%TO.C,D11*%
X130450000Y-117150000D03*
D23*
X130100000Y-116700000D03*
D12*
X126250000Y-116250000D03*
D23*
X126600000Y-116700000D03*
%TD*%
D24*
%TO.C,REF\u002A\u002A*%
X136700000Y-82200000D03*
%TD*%
D14*
%TO.C,SW6*%
X118959750Y-99521500D03*
D16*
X108459750Y-103221500D03*
D15*
X119039750Y-103221500D03*
D14*
X108959750Y-99521500D03*
X110149750Y-105761500D03*
D17*
X113959750Y-103221500D03*
D14*
X111419750Y-108301500D03*
X117769750Y-105761500D03*
D16*
X119459750Y-103221500D03*
D14*
X116499750Y-108301500D03*
X113959750Y-97321500D03*
D15*
X108879750Y-103221500D03*
D18*
X120859750Y-105761500D03*
X122059750Y-99521500D03*
X108359750Y-108301500D03*
D19*
X111159750Y-97321500D03*
%TD*%
D17*
%TO.C,SW11*%
X116341000Y-119221250D03*
D15*
X121421000Y-119221250D03*
D14*
X118881000Y-124301250D03*
D16*
X110841000Y-119221250D03*
D14*
X120151000Y-121761250D03*
X111341000Y-115521250D03*
D15*
X111261000Y-119221250D03*
D16*
X121841000Y-119221250D03*
D14*
X112531000Y-121761250D03*
X116341000Y-113321250D03*
X121341000Y-115521250D03*
X113801000Y-124301250D03*
D18*
X124441000Y-115521250D03*
X123241000Y-121761250D03*
X110741000Y-124301250D03*
D19*
X113541000Y-113321250D03*
%TD*%
D16*
%TO.C,SW8*%
X142841000Y-86393750D03*
D14*
X153341000Y-82693750D03*
X150881000Y-91473750D03*
D17*
X148341000Y-86393750D03*
D14*
X148341000Y-80493750D03*
X152151000Y-88933750D03*
X143341000Y-82693750D03*
X144531000Y-88933750D03*
D15*
X143261000Y-86393750D03*
X153421000Y-86393750D03*
D14*
X145801000Y-91473750D03*
D16*
X153841000Y-86393750D03*
D18*
X156441000Y-82693750D03*
X155241000Y-88933750D03*
D19*
X145541000Y-80493750D03*
D18*
X142741000Y-91473750D03*
%TD*%
D16*
%TO.C,SW10*%
X174840000Y-95759750D03*
D14*
X184150000Y-98299750D03*
D15*
X185420000Y-95759750D03*
D17*
X180340000Y-95759750D03*
D16*
X185840000Y-95759750D03*
D14*
X175340000Y-92059750D03*
X180340000Y-89859750D03*
X176530000Y-98299750D03*
D15*
X175260000Y-95759750D03*
D14*
X185340000Y-92059750D03*
X177800000Y-100839750D03*
X182880000Y-100839750D03*
D18*
X187240000Y-98299750D03*
X188440000Y-92059750D03*
D19*
X177540000Y-89859750D03*
D18*
X174740000Y-100839750D03*
%TD*%
D15*
%TO.C,SW15*%
X185420000Y-111760000D03*
X175260000Y-111760000D03*
D14*
X185340000Y-108060000D03*
D16*
X185840000Y-111760000D03*
X174840000Y-111760000D03*
D14*
X180340000Y-105860000D03*
X176530000Y-114300000D03*
X177800000Y-116840000D03*
X175340000Y-108060000D03*
D17*
X180340000Y-111760000D03*
D14*
X184150000Y-114300000D03*
X182880000Y-116840000D03*
D18*
X188440000Y-108060000D03*
X187240000Y-114300000D03*
D19*
X177540000Y-105860000D03*
D18*
X174740000Y-116840000D03*
%TD*%
D15*
%TO.C,SW3*%
X143261000Y-70393750D03*
D14*
X153341000Y-66693750D03*
D16*
X142841000Y-70393750D03*
X153841000Y-70393750D03*
D15*
X153421000Y-70393750D03*
D14*
X148341000Y-64493750D03*
X145801000Y-75473750D03*
X144531000Y-72933750D03*
X150881000Y-75473750D03*
D17*
X148341000Y-70393750D03*
D14*
X152151000Y-72933750D03*
X143341000Y-66693750D03*
D18*
X156441000Y-66693750D03*
X155241000Y-72933750D03*
X142741000Y-75473750D03*
D19*
X145541000Y-64493750D03*
%TD*%
D15*
%TO.C,SW16*%
X175287829Y-132565577D03*
D14*
X176285369Y-135224414D03*
D16*
X174870130Y-132521675D03*
D17*
X180340000Y-133096582D03*
D14*
X180956718Y-127228903D03*
X183863626Y-136020921D03*
X185699365Y-129939493D03*
X177282910Y-137883251D03*
D15*
X185392171Y-133627587D03*
D16*
X185809870Y-133671489D03*
D14*
X182335081Y-138414256D03*
X175754146Y-128894209D03*
D25*
X186936699Y-136343914D03*
X188782383Y-130263532D03*
D26*
X178172057Y-126936223D03*
D25*
X174239673Y-137563394D03*
%TD*%
D11*
%TO.C,D3*%
X140000000Y-78400000D03*
D12*
X139550000Y-78750000D03*
X140450000Y-74550000D03*
D11*
X140000000Y-74900000D03*
%TD*%
D23*
%TO.C,D5*%
X177800000Y-87700000D03*
D12*
X178150000Y-88150000D03*
X173950000Y-87250000D03*
D23*
X174300000Y-87700000D03*
%TD*%
D11*
%TO.C,D1*%
X120500000Y-94900000D03*
D12*
X120050000Y-95250000D03*
D11*
X120500000Y-91400000D03*
D12*
X120950000Y-91050000D03*
%TD*%
D14*
%TO.C,SW2*%
X131388500Y-79125000D03*
X123768500Y-79125000D03*
X122578500Y-72885000D03*
D15*
X122498500Y-76585000D03*
D14*
X127578500Y-70685000D03*
D17*
X127578500Y-76585000D03*
D14*
X130118500Y-81665000D03*
X132578500Y-72885000D03*
D16*
X122078500Y-76585000D03*
D15*
X132658500Y-76585000D03*
D16*
X133078500Y-76585000D03*
D14*
X125038500Y-81665000D03*
D18*
X135678500Y-72885000D03*
X134478500Y-79125000D03*
X121978500Y-81665000D03*
D19*
X124778500Y-70685000D03*
%TD*%
D27*
%TO.C,REF\u002A\u002A*%
X170600000Y-99200000D03*
X189650000Y-118250000D03*
X189650000Y-80150000D03*
%TD*%
D15*
%TO.C,SW9*%
X169420500Y-91156250D03*
D17*
X164340500Y-91156250D03*
D14*
X168150500Y-93696250D03*
X166880500Y-96236250D03*
X161800500Y-96236250D03*
X164340500Y-85256250D03*
D16*
X158840500Y-91156250D03*
D14*
X160530500Y-93696250D03*
D15*
X159260500Y-91156250D03*
D14*
X159340500Y-87456250D03*
D16*
X169840500Y-91156250D03*
D14*
X169340500Y-87456250D03*
D18*
X171240500Y-93696250D03*
X172440500Y-87456250D03*
X158740500Y-96236250D03*
D19*
X161540500Y-85256250D03*
%TD*%
D14*
%TO.C,SW5*%
X182880000Y-84839750D03*
X184150000Y-82299750D03*
X175340000Y-76059750D03*
X177800000Y-84839750D03*
D15*
X175260000Y-79759750D03*
D16*
X185840000Y-79759750D03*
D17*
X180340000Y-79759750D03*
D16*
X174840000Y-79759750D03*
D14*
X176530000Y-82299750D03*
X185340000Y-76059750D03*
D15*
X185420000Y-79759750D03*
D14*
X180340000Y-73859750D03*
D18*
X188440000Y-76059750D03*
X187240000Y-82299750D03*
X174740000Y-84839750D03*
D19*
X177540000Y-73859750D03*
%TD*%
D13*
%TO.C,D16*%
X187951204Y-126224671D03*
D12*
X187757392Y-125688540D03*
X191473714Y-127842362D03*
D13*
X191279902Y-127306231D03*
%TD*%
D11*
%TO.C,D13*%
X143400000Y-113700000D03*
D12*
X142950000Y-114050000D03*
X143850000Y-109850000D03*
D11*
X143400000Y-110200000D03*
%TD*%
D12*
%TO.C,D10*%
X178150000Y-103950000D03*
D23*
X177800000Y-103500000D03*
D12*
X173950000Y-103050000D03*
D23*
X174300000Y-103500000D03*
%TD*%
D14*
%TO.C,SW17*%
X201548103Y-132501267D03*
X195316475Y-139350829D03*
D15*
X204556270Y-139682306D03*
D14*
X195739413Y-142158964D03*
X196112983Y-133048506D03*
X200570780Y-143728770D03*
D16*
X204955714Y-139812093D03*
D17*
X199724903Y-138112500D03*
D16*
X194494092Y-136412907D03*
D14*
X202563525Y-141705538D03*
D15*
X194893536Y-136542694D03*
D14*
X205623548Y-136138676D03*
D28*
X208571824Y-137096629D03*
X205502290Y-142660401D03*
X192829180Y-141213372D03*
D29*
X198885145Y-131636019D03*
%TD*%
D14*
%TO.C,SW12*%
X129801000Y-113665000D03*
D15*
X137421000Y-108585000D03*
D17*
X132341000Y-108585000D03*
D15*
X127261000Y-108585000D03*
D14*
X134881000Y-113665000D03*
X128531000Y-111125000D03*
D16*
X126841000Y-108585000D03*
D14*
X127341000Y-104885000D03*
X137341000Y-104885000D03*
X132341000Y-102685000D03*
D16*
X137841000Y-108585000D03*
D14*
X136151000Y-111125000D03*
D18*
X139241000Y-111125000D03*
X140441000Y-104885000D03*
X126741000Y-113665000D03*
D19*
X129541000Y-102685000D03*
%TD*%
D11*
%TO.C,D14*%
X155448000Y-110300000D03*
D12*
X155898000Y-109950000D03*
D11*
X155448000Y-113800000D03*
D12*
X154998000Y-114150000D03*
%TD*%
D30*
%TO.C,J1*%
X203765907Y-124595283D03*
X210423303Y-126758402D03*
X209882523Y-128422751D03*
X203225128Y-126259632D03*
D31*
X199978485Y-125572745D03*
X200735577Y-123242657D03*
X209360337Y-124204952D03*
X207521686Y-129863739D03*
X204668516Y-128936688D03*
X206507167Y-123277901D03*
X202702941Y-122041833D03*
X200864290Y-127700620D03*
%TD*%
D12*
%TO.C,D2*%
X137150000Y-74650000D03*
D11*
X136700000Y-75000000D03*
X136700000Y-78500000D03*
D12*
X136250000Y-78850000D03*
%TD*%
D24*
%TO.C,REF\u002A\u002A*%
X139000000Y-101854000D03*
%TD*%
D14*
%TO.C,SW14*%
X160530500Y-109696250D03*
D16*
X158840500Y-107156250D03*
D17*
X164340500Y-107156250D03*
D15*
X159260500Y-107156250D03*
D14*
X164340500Y-101256250D03*
X159340500Y-103456250D03*
X169340500Y-103456250D03*
D16*
X169840500Y-107156250D03*
D15*
X169420500Y-107156250D03*
D14*
X168150500Y-109696250D03*
X161800500Y-112236250D03*
X166880500Y-112236250D03*
D18*
X171240500Y-109696250D03*
X172440500Y-103456250D03*
X158740500Y-112236250D03*
D19*
X161540500Y-101256250D03*
%TD*%
D12*
%TO.C,D7*%
X139250000Y-92650000D03*
D11*
X138800000Y-93000000D03*
D12*
X138350000Y-96850000D03*
D11*
X138800000Y-96500000D03*
%TD*%
D16*
%TO.C,SW4*%
X169840500Y-75156250D03*
D14*
X168150500Y-77696250D03*
X164340500Y-69256250D03*
X159340500Y-71456250D03*
D15*
X169420500Y-75156250D03*
D17*
X164340500Y-75156250D03*
D15*
X159260500Y-75156250D03*
D14*
X169340500Y-71456250D03*
X160530500Y-77696250D03*
D16*
X158840500Y-75156250D03*
D14*
X161800500Y-80236250D03*
X166880500Y-80236250D03*
D18*
X171240500Y-77696250D03*
X172440500Y-71456250D03*
X158740500Y-80236250D03*
D19*
X161540500Y-69256250D03*
%TD*%
D32*
%TO.C,U1*%
X192088184Y-107891296D03*
D33*
X205588184Y-100687504D03*
D32*
X209755064Y-102811296D03*
X209755064Y-110431296D03*
D20*
X196063796Y-106687504D03*
D32*
X209755064Y-100271296D03*
X209755064Y-105351296D03*
D33*
X205563796Y-106687504D03*
X205588184Y-110687504D03*
X205588184Y-102687504D03*
D20*
X196088184Y-104687504D03*
X196112572Y-110687504D03*
D32*
X192088184Y-110431296D03*
D33*
X205563796Y-112687504D03*
D32*
X192088184Y-105351296D03*
X192088184Y-102811296D03*
X192088184Y-112971296D03*
D20*
X196088184Y-108687504D03*
X196088184Y-100687504D03*
D32*
X209755064Y-107891296D03*
D20*
X196063796Y-112687504D03*
D32*
X192088184Y-100271296D03*
D20*
X196088184Y-102687504D03*
D32*
X192088184Y-97731296D03*
X209755064Y-97731296D03*
D33*
X205588184Y-104687504D03*
D32*
X209755064Y-112971296D03*
D33*
X205588184Y-108687504D03*
D22*
X197088184Y-100687504D03*
X197088184Y-102687504D03*
X197088184Y-104687504D03*
X197063796Y-106687504D03*
X197088184Y-108687504D03*
X197112572Y-110687504D03*
X197063796Y-112687504D03*
D34*
X204563796Y-112687504D03*
X204588184Y-110687504D03*
X204588184Y-108687504D03*
X204563796Y-106687504D03*
X204588184Y-104687504D03*
X204588184Y-102687504D03*
X204588184Y-100687504D03*
D35*
X202139381Y-97044929D03*
X199599381Y-97044929D03*
%TD*%
D36*
%TO.C,REF\u002A\u002A*%
X189992000Y-135128000D03*
X189992000Y-135128000D03*
%TD*%
D12*
%TO.C,D6*%
X122350000Y-111450000D03*
D11*
X122800000Y-111100000D03*
X122800000Y-107600000D03*
D12*
X123250000Y-107250000D03*
%TD*%
M02*
