M48
; DRILL file {KiCad (6.0.8)} date 2022年10月28日 13時14分21秒
; FORMAT={-:-/ absolute / inch / decimal}
; #@! TF.CreationDate,2022-10-28T13:14:21+09:00
; #@! TF.GenerationSoftware,Kicad,Pcbnew,(6.0.8)
; #@! TF.FileFunction,NonPlated,1,2,NPTH
FMAT,2
INCH
; #@! TA.AperFunction,NonPlated,NPTH,ComponentDrill
T1C0.0472
; #@! TA.AperFunction,NonPlated,NPTH,ComponentDrill
T2C0.0669
; #@! TA.AperFunction,NonPlated,NPTH,ComponentDrill
T3C0.0748
; #@! TA.AperFunction,NonPlated,NPTH,ComponentDrill
T4C0.1181
; #@! TA.AperFunction,NonPlated,NPTH,ComponentDrill
T5C0.1260
; #@! TA.AperFunction,NonPlated,NPTH,ComponentDrill
T6C0.1575
%
G90
G05
T1
X8.001Y-4.9709
X8.0223Y-4.9053
X8.2631Y-5.056
X8.2844Y-4.9905
T2
X4.1928Y-3.4339
X4.2866Y-4.0638
X4.3804Y-4.6937
X4.5928Y-3.4339
X4.6866Y-4.0638
X4.7804Y-4.6937
X4.8228Y-3.0152
X4.9165Y-3.6451
X5.0103Y-4.275
X5.2228Y-3.0152
X5.3165Y-3.6451
X5.4103Y-4.275
X5.6402Y-2.7714
X5.6402Y-3.4013
X5.6402Y-4.0312
X6.0402Y-2.7714
X6.0402Y-3.4013
X6.0402Y-4.0312
X6.2701Y-2.9589
X6.2701Y-3.5888
X6.2701Y-4.2188
X6.6701Y-2.9589
X6.6701Y-3.5888
X6.6701Y-4.2188
X6.9Y-3.1401
X6.9Y-3.7701
X6.9Y-4.4
X6.9011Y-5.2191
X7.2989Y-5.2609
X7.3Y-3.1401
X7.3Y-3.7701
X7.3Y-4.4
X7.673Y-5.3757
X8.0534Y-5.4993
T3
X4.1763Y-3.4339
X4.2701Y-4.0638
X4.3638Y-4.6937
X4.6094Y-3.4339
X4.7031Y-4.0638
X4.7969Y-4.6937
X4.8062Y-3.0152
X4.9Y-3.6451
X4.9937Y-4.275
X5.2393Y-3.0152
X5.3331Y-3.6451
X5.4268Y-4.275
X5.6237Y-2.7714
X5.6237Y-3.4013
X5.6237Y-4.0312
X6.0567Y-2.7714
X6.0567Y-3.4013
X6.0567Y-4.0312
X6.2536Y-2.9589
X6.2536Y-3.5888
X6.2536Y-4.2188
X6.6866Y-2.9589
X6.6866Y-3.5888
X6.6866Y-4.2188
X6.8835Y-3.1401
X6.8835Y-3.7701
X6.8835Y-4.4
X6.8847Y-5.2174
X7.3153Y-5.2627
X7.3165Y-3.1401
X7.3165Y-3.7701
X7.3165Y-4.4
X7.6572Y-5.3706
X8.0691Y-5.5044
T4
X4.196Y-3.2882
X4.2428Y-3.5339
X4.2898Y-3.9182
X4.2928Y-3.6339
X4.3366Y-4.1638
X4.3835Y-4.5481
X4.3866Y-4.2638
X4.3928Y-3.2016
X4.4304Y-4.7938
X4.4804Y-4.8937
X4.4866Y-3.8316
X4.4928Y-3.6339
X4.5428Y-3.5339
X4.5804Y-4.4615
X4.5866Y-4.2638
X4.5897Y-3.2882
X4.6366Y-4.1638
X4.6804Y-4.8937
X4.6835Y-3.9182
X4.7304Y-4.7938
X4.7772Y-4.5481
X4.8259Y-2.8695
X4.8728Y-3.1152
X4.9197Y-3.4994
X4.9228Y-3.2152
X4.9665Y-3.7451
X5.0134Y-4.1293
X5.0165Y-3.8451
X5.0228Y-2.7829
X5.0603Y-4.375
X5.1103Y-4.475
X5.1165Y-3.4128
X5.1228Y-3.2152
X5.1728Y-3.1152
X5.2103Y-4.0427
X5.2165Y-3.8451
X5.2196Y-2.8695
X5.2665Y-3.7451
X5.3103Y-4.475
X5.3134Y-3.4994
X5.3603Y-4.375
X5.4071Y-4.1293
X5.6433Y-2.6257
X5.6433Y-3.2557
X5.6433Y-3.8856
X5.6902Y-2.8714
X5.6902Y-3.5013
X5.6902Y-4.1312
X5.7402Y-2.9714
X5.7402Y-3.6013
X5.7402Y-4.2313
X5.8402Y-2.5391
X5.8402Y-3.169
X5.8402Y-3.799
X5.9402Y-2.9714
X5.9402Y-3.6013
X5.9402Y-4.2313
X5.9902Y-2.8714
X5.9902Y-3.5013
X5.9902Y-4.1312
X6.037Y-2.6257
X6.037Y-3.2557
X6.037Y-3.8856
X6.2732Y-2.8132
X6.2732Y-3.4432
X6.2732Y-4.0731
X6.3201Y-3.0589
X6.3201Y-3.6888
X6.3201Y-4.3187
X6.3701Y-3.1589
X6.3701Y-3.7888
X6.3701Y-4.4188
X6.4701Y-2.7266
X6.4701Y-3.3565
X6.4701Y-3.9865
X6.5701Y-3.1589
X6.5701Y-3.7888
X6.5701Y-4.4188
X6.6201Y-3.0589
X6.6201Y-3.6888
X6.6201Y-4.3187
X6.6669Y-2.8132
X6.6669Y-3.4432
X6.6669Y-4.0731
X6.9031Y-2.9945
X6.9031Y-3.6244
X6.9031Y-4.2543
X6.9195Y-5.0746
X6.9404Y-5.3238
X6.95Y-3.2401
X6.95Y-3.8701
X6.95Y-4.5
X6.9796Y-5.4285
X7.0Y-3.3401
X7.0Y-3.9701
X7.0Y-4.6
X7.1Y-2.9079
X7.1Y-3.5378
X7.1Y-4.1677
X7.1243Y-5.009
X7.1785Y-5.4494
X7.2Y-3.3401
X7.2Y-3.9701
X7.2Y-4.6
X7.2387Y-5.3552
X7.25Y-3.2401
X7.25Y-3.8701
X7.25Y-4.5
X7.2969Y-2.9945
X7.2969Y-3.6244
X7.2969Y-4.2543
X7.311Y-5.1157
X7.6896Y-5.4863
X7.7063Y-5.5968
X7.721Y-5.2381
X7.8965Y-5.6586
X7.935Y-5.2166
X7.9749Y-5.579
X8.0954Y-5.3598
T5
X7.48Y-5.32
X7.48Y-5.32
T6
X4.3928Y-3.4339
X4.4866Y-4.0638
X4.5804Y-4.6937
X5.0228Y-3.0152
X5.1165Y-3.6451
X5.2103Y-4.275
X5.8402Y-2.7714
X5.8402Y-3.4013
X5.8402Y-4.0312
X6.4701Y-2.9589
X6.4701Y-3.5888
X6.4701Y-4.2188
X7.1Y-3.1401
X7.1Y-3.7701
X7.1Y-4.4
X7.1Y-5.24
X7.8632Y-5.4375
T0
M30
