M48
; DRILL file {KiCad (6.0.8)} date 2022年10月28日 13時14分21秒
; FORMAT={-:-/ absolute / inch / decimal}
; #@! TF.CreationDate,2022-10-28T13:14:21+09:00
; #@! TF.GenerationSoftware,Kicad,Pcbnew,(6.0.8)
; #@! TF.FileFunction,Plated,1,2,PTH
FMAT,2
INCH
; #@! TA.AperFunction,Plated,PTH,ComponentDrill
T1C0.0118
; #@! TA.AperFunction,Plated,PTH,ViaDrill
T2C0.0157
; #@! TA.AperFunction,Plated,PTH,ComponentDrill
T3C0.0157
; #@! TA.AperFunction,Plated,PTH,ComponentDrill
T4C0.0394
; #@! TA.AperFunction,Plated,PTH,ComponentDrill
T5C0.0866
%
G90
G05
T1
X4.7264Y-3.75
X4.7618Y-3.5846
X4.8169Y-4.3878
X4.8524Y-4.2224
X4.9705Y-4.5768
X5.1358Y-4.6122
X5.3642Y-3.1043
X5.3996Y-2.939
X5.4469Y-3.813
X5.4823Y-3.6476
X5.4941Y-3.1004
X5.5177Y-3.7264
X5.5295Y-2.935
X5.5531Y-3.561
X5.5531Y-4.4941
X5.5886Y-4.3287
X5.628Y-4.4902
X5.6634Y-4.3248
X6.1023Y-3.1977
X6.1023Y-4.4941
X6.1043Y-3.8248
X6.1377Y-3.0324
X6.1377Y-4.3287
X6.1398Y-3.6594
X6.7283Y-4.6535
X6.7638Y-4.4882
X6.8484Y-3.435
X6.8484Y-4.0571
X7.0138Y-3.4705
X7.0138Y-4.0925
X7.392Y-4.9484
X7.5383Y-5.0332
X7.5904Y-5.0151
X7.66Y-3.8263
X7.66Y-3.8755
X7.66Y-3.9247
X7.66Y-3.9739
X7.66Y-4.0231
X7.66Y-4.0723
X7.66Y-4.1216
X7.66Y-4.1708
X7.66Y-4.22
X7.66Y-4.2692
X7.66Y-4.3282
X7.66Y-4.3775
X7.66Y-4.4267
X7.66Y-4.4759
X7.7367Y-5.0998
X8.1521Y-3.8263
X8.1521Y-3.8755
X8.1521Y-3.9247
X8.1521Y-3.9739
X8.1521Y-4.0231
X8.1521Y-4.0723
X8.1521Y-4.1216
X8.1521Y-4.1708
X8.1521Y-4.22
X8.1521Y-4.2692
X8.1521Y-4.3282
X8.1521Y-4.3775
X8.1521Y-4.4267
X8.1521Y-4.4759
T2
X4.1181Y-3.4685
X4.2047Y-4.0945
X4.3051Y-4.7283
X4.4488Y-3.2755
X4.5315Y-3.9055
X4.62Y-3.73
X4.6339Y-4.5353
X4.6645Y-3.4716
X4.752Y-3.0512
X4.7583Y-4.116
X4.8425Y-3.6811
X4.852Y-4.7339
X4.937Y-4.311
X5.0748Y-2.8583
X5.1535Y-3.4961
X5.1929Y-4.5315
X5.25Y-4.122
X5.2953Y-2.9331
X5.2953Y-3.0512
X5.3898Y-3.5551
X5.3898Y-3.6811
X5.45Y-3.02
X5.4819Y-4.3126
X5.51Y-3.45
X5.5118Y-2.8169
X5.5695Y-4.0656
X5.73Y-3.29
X5.8819Y-2.6142
X5.8839Y-3.2429
X5.8937Y-4.1417
X5.8957Y-3.874
X5.91Y-4.37
X5.92Y-3.95
X5.9528Y-3.3307
X6.1201Y-3.565
X6.124Y-2.935
X6.124Y-4.1949
X6.1748Y-3.5079
X6.1755Y-2.8779
X6.185Y-3.75
X6.187Y-3.1181
X6.1988Y-4.2559
X6.252Y-3.2835
X6.3071Y-3.9173
X6.4291Y-3.8898
X6.4579Y-3.2295
X6.5256Y-3.4304
X6.5295Y-4.061
X6.5315Y-2.8004
X6.5906Y-2.9055
X6.7323Y-3.3228
X6.752Y-3.122
X6.7539Y-3.748
X6.7539Y-4.3819
X6.7559Y-4.7402
X6.7953Y-4.9528
X6.8031Y-4.8504
X6.8047Y-3.7008
X6.8054Y-3.0591
X6.8169Y-3.2992
X6.8169Y-3.935
X6.82Y-5.24
X6.8209Y-4.4291
X6.8834Y-4.8804
X6.9528Y-4.9094
X6.9921Y-3.6929
X7.1457Y-4.2421
X7.1568Y-5.0913
X7.1614Y-2.9665
X7.1614Y-3.5965
X7.2126Y-3.0866
X7.3071Y-2.8031
X7.3469Y-4.157
X7.36Y-5.44
X7.3717Y-3.1827
X7.372Y-4.311
X7.372Y-4.439
X7.3839Y-3.937
X7.437Y-4.0906
X7.4724Y-3.3819
X7.5118Y-3.4488
X7.5917Y-5.3843
X7.5984Y-3.4488
X7.7229Y-4.7229
X7.7244Y-4.5285
X7.752Y-4.557
X7.7522Y-4.6936
X7.7835Y-4.623
X7.8819Y-4.5551
X7.966Y-4.5
X7.981Y-5.2953
X8.0276Y-3.8583
X8.0315Y-4.5551
X8.108Y-5.5566
X8.172Y-5.4528
X8.2441Y-4.6693
T3
X7.8096Y-3.9641
X7.8096Y-4.0428
X7.8096Y-4.1216
X7.8096Y-4.2003
X7.8096Y-4.279
X7.8096Y-4.3578
X7.8096Y-4.4365
X7.998Y-3.9641
X7.998Y-4.0428
X7.998Y-4.1216
X7.998Y-4.2003
X7.998Y-4.279
X7.998Y-4.3578
X7.998Y-4.4365
T4
X6.6417Y-4.7244
X6.6417Y-4.8244
X6.6417Y-4.9244
X6.6417Y-5.0244
T5
X5.3819Y-3.2362
X5.4724Y-4.01
X6.7165Y-3.9055
X7.4665Y-3.1555
X7.4665Y-4.6555
T4
G00X7.8825Y-4.9469
M15
G01X7.8638Y-4.9408
M16
G05
G00X7.9123Y-4.8551
M15
G01X7.8936Y-4.849
M16
G05
G00X7.9174Y-5.0306
M15
G01X7.8987Y-5.0245
M16
G05
G00X7.9898Y-4.8078
M15
G01X7.9711Y-4.8018
M16
G05
G00X8.0672Y-5.0793
M15
G01X8.0485Y-5.0732
M16
G05
G00X8.1396Y-4.8565
M15
G01X8.1208Y-4.8504
M16
G05
G00X8.1795Y-5.1158
M15
G01X8.1608Y-5.1097
M16
G05
G00X8.2519Y-4.893
M15
G01X8.2332Y-4.8869
M16
G05
T0
M30
