%TF.GenerationSoftware,KiCad,Pcbnew,(6.0.7)*%
%TF.CreationDate,2022-09-24T00:16:50+09:00*%
%TF.ProjectId,selen_plate,73656c65-6e5f-4706-9c61-74652e6b6963,rev?*%
%TF.SameCoordinates,Original*%
%TF.FileFunction,Profile,NP*%
%FSLAX46Y46*%
G04 Gerber Fmt 4.6, Leading zero omitted, Abs format (unit mm)*
G04 Created by KiCad (PCBNEW (6.0.7)) date 2022-09-24 00:16:50*
%MOMM*%
%LPD*%
G01*
G04 APERTURE LIST*
%TA.AperFunction,Profile*%
%ADD10C,0.100000*%
%TD*%
G04 APERTURE END LIST*
D10*
X136859343Y-75545777D02*
X136859343Y-76368983D01*
X164121043Y-114954223D02*
X167621088Y-114954223D01*
X145388543Y-90339189D02*
X145388543Y-90339189D01*
X178239494Y-125078482D02*
X178239494Y-125078482D01*
X191235806Y-142018163D02*
X192157809Y-142317740D01*
X149860102Y-57318983D02*
X148888585Y-57318983D01*
X167621088Y-114954223D02*
X167621088Y-114151689D01*
X136859343Y-56495777D02*
X136859343Y-57318983D01*
X203350301Y-146798235D02*
X203598298Y-146034980D01*
X99878139Y-93037733D02*
X99878139Y-93037733D01*
X186353588Y-81616723D02*
X186353588Y-80814189D01*
X94314347Y-87957939D02*
X94314347Y-87957939D01*
X97789895Y-112246483D02*
X97789895Y-112246483D01*
X140359393Y-91141723D02*
X140359393Y-91141723D01*
X145388539Y-57318983D02*
X140359389Y-57318983D01*
X182853543Y-81616723D02*
X182853543Y-81616723D01*
X116546889Y-62687027D02*
X116546889Y-62687027D01*
X148888588Y-109389189D02*
X148888588Y-109389189D01*
X98759347Y-126216689D02*
X98759347Y-127019223D01*
X167621085Y-80308277D02*
X167621085Y-80308277D01*
X155591843Y-99358277D02*
X155591843Y-99358277D01*
X164121043Y-76854223D02*
X164121043Y-76854223D01*
X140359393Y-110191723D02*
X140359393Y-110191723D01*
X136859347Y-110191723D02*
X140359393Y-110191723D01*
X196474837Y-129031283D02*
X195552837Y-128731707D01*
X185175636Y-140682398D02*
X186141832Y-140783950D01*
X93344895Y-87957939D02*
X94314347Y-87957939D01*
X186353588Y-118755439D02*
X186353588Y-118755439D01*
X128428852Y-82560233D02*
X127457335Y-82560233D01*
X168592606Y-76051689D02*
X168592606Y-76051689D01*
X187325106Y-80814189D02*
X187325106Y-80814189D01*
X173354895Y-80814189D02*
X174324347Y-80814189D01*
X159091893Y-114151689D02*
X164121043Y-114151689D01*
X159091893Y-76854223D02*
X159091893Y-76854223D01*
X155591843Y-62081483D02*
X154622395Y-62081483D01*
X159091893Y-114151689D02*
X159091893Y-114151689D01*
X167621085Y-81131483D02*
X167621085Y-81131483D01*
X208839293Y-133048739D02*
X207915326Y-132748523D01*
X97814389Y-73987733D02*
X97814389Y-73987733D01*
X164121039Y-62081483D02*
X159091889Y-62081483D01*
X95408645Y-93037733D02*
X95408645Y-107007939D01*
X117809347Y-116382973D02*
X121309393Y-116382973D01*
X148888585Y-94595777D02*
X148888585Y-94595777D01*
X164121039Y-99358277D02*
X164121039Y-100181483D01*
X96378097Y-107007939D02*
X96378097Y-107007939D01*
X127457338Y-96530439D02*
X127457338Y-96530439D01*
X148888585Y-57318983D02*
X148888585Y-56495777D01*
X159091893Y-95101689D02*
X159091893Y-95101689D01*
X126047606Y-77480439D02*
X126047606Y-77480439D01*
X182853543Y-99864189D02*
X182853543Y-99864189D01*
X148888585Y-95418983D02*
X148888585Y-94595777D01*
X99878139Y-92214527D02*
X99878139Y-92214527D01*
X182853539Y-66843983D02*
X177824389Y-66843983D01*
X102259393Y-126216689D02*
X107288543Y-126216689D01*
X106343585Y-73164527D02*
X106343585Y-73164527D01*
X182853543Y-100666723D02*
X182853543Y-100666723D01*
X177824393Y-81616723D02*
X177824393Y-80814189D01*
X168592602Y-100181483D02*
X167621085Y-100181483D01*
X116546889Y-63510233D02*
X116546889Y-63510233D01*
X172248152Y-139323665D02*
X173212293Y-139425000D01*
X178153445Y-125897179D02*
X178239494Y-125078482D01*
X94314343Y-73164527D02*
X94314343Y-73164527D01*
X108407338Y-107007939D02*
X108407338Y-107007939D01*
X136859347Y-71289189D02*
X136859347Y-71289189D01*
X148888585Y-57318983D02*
X148888585Y-57318983D01*
X149860106Y-71289189D02*
X149860102Y-57318983D01*
X174324347Y-119557973D02*
X174324347Y-119557973D01*
X186353585Y-103962027D02*
X182853539Y-103962027D01*
X203598298Y-146034980D02*
X203598298Y-146034980D01*
X104907289Y-93037733D02*
X104907289Y-93037733D01*
X121576039Y-62687027D02*
X121576039Y-62687027D01*
X185091749Y-141480536D02*
X185175636Y-140682398D01*
X155591847Y-76854223D02*
X155591847Y-76854223D01*
X186353585Y-104785233D02*
X186353585Y-103962027D01*
X186353585Y-85070777D02*
X182853539Y-85070777D01*
X108407335Y-93037733D02*
X108407335Y-93037733D01*
X155591847Y-114151689D02*
X155591847Y-114151689D01*
X195552837Y-128731707D02*
X195552837Y-128731707D01*
X97814393Y-88760473D02*
X97814393Y-88760473D01*
X104907289Y-92214527D02*
X104907289Y-93037733D01*
X194800000Y-114400000D02*
X194800000Y-112600000D01*
X102843539Y-73164527D02*
X102843539Y-73164527D01*
X176609278Y-140588992D02*
X176609278Y-140588992D01*
X112077395Y-63510233D02*
X112077395Y-77480439D01*
X97789895Y-112246483D02*
X97789895Y-126216689D01*
X186353588Y-80814189D02*
X186353588Y-80814189D01*
X176609278Y-140588992D02*
X176693165Y-139790855D01*
X186353588Y-119557973D02*
X186353588Y-119557973D01*
X113046843Y-63510233D02*
X112077395Y-63510233D01*
X145388539Y-94595777D02*
X145388539Y-95418983D01*
X181610877Y-141114682D02*
X181610877Y-141114682D01*
X173354895Y-99864189D02*
X174324347Y-99864189D01*
X204840969Y-130884034D02*
X204840969Y-130884034D01*
X167621085Y-81131483D02*
X167621085Y-80308277D01*
X145388539Y-57318983D02*
X145388539Y-57318983D01*
X125076085Y-62687027D02*
X125076085Y-62687027D01*
X174324343Y-66843983D02*
X174324343Y-66843983D01*
X99878143Y-107007939D02*
X99878143Y-107007939D01*
X136859343Y-76368983D02*
X135889895Y-76368983D01*
X167621085Y-99358277D02*
X167621085Y-99358277D01*
X135889895Y-109389189D02*
X135889895Y-109389189D01*
X136859347Y-91141723D02*
X140359393Y-91141723D01*
X177824393Y-99864189D02*
X182853543Y-99864189D01*
X204586584Y-131666950D02*
X199803578Y-130112857D01*
X110788585Y-111423277D02*
X107288539Y-111423277D01*
X154622395Y-95101689D02*
X154622395Y-95101689D01*
X93344895Y-73987733D02*
X93344895Y-73987733D01*
X140359393Y-72091723D02*
X140359393Y-71289189D01*
X168592606Y-95101689D02*
X168592602Y-81131483D01*
X118928139Y-82560233D02*
X118928139Y-81737027D01*
X164121039Y-61258277D02*
X164121039Y-61258277D01*
X168592602Y-81131483D02*
X167621085Y-81131483D01*
X164121039Y-100181483D02*
X159091889Y-100181483D01*
X159091889Y-61258277D02*
X159091889Y-61258277D01*
X102843543Y-87957939D02*
X102843543Y-88760473D01*
X148888588Y-71289189D02*
X148888588Y-71289189D01*
X140359389Y-56495777D02*
X136859343Y-56495777D01*
X177824393Y-100666723D02*
X177824393Y-99864189D01*
X140359389Y-56495777D02*
X140359389Y-56495777D01*
X107288543Y-127019223D02*
X110788588Y-127019223D01*
X145388543Y-90339189D02*
X145388543Y-91141723D01*
X154622395Y-62081483D02*
X154622395Y-76051689D01*
X182853543Y-118755439D02*
X182853543Y-118755439D01*
X102259393Y-127019223D02*
X102259393Y-127019223D01*
X164121043Y-114151689D02*
X164121043Y-114151689D01*
X97789895Y-126216689D02*
X98759347Y-126216689D01*
X200021560Y-145716662D02*
X200021560Y-145716662D01*
X140359393Y-71289189D02*
X140359393Y-71289189D01*
X186353585Y-85893983D02*
X186353585Y-85893983D01*
X148888588Y-91141723D02*
X148888588Y-91141723D01*
X177824389Y-85070777D02*
X177824389Y-85070777D01*
X164121039Y-61258277D02*
X164121039Y-62081483D01*
X155591843Y-99358277D02*
X155591843Y-100181483D01*
X174672573Y-125531324D02*
X174672573Y-125531324D01*
X167621088Y-114954223D02*
X167621088Y-114954223D01*
X186353588Y-100666723D02*
X186353588Y-99864189D01*
X140359393Y-109389189D02*
X145388543Y-109389189D01*
X129838585Y-101610233D02*
X129838585Y-101610233D01*
X140359389Y-94595777D02*
X136859343Y-94595777D01*
X186353585Y-66020777D02*
X182853539Y-66020777D01*
X149860102Y-95418983D02*
X148888585Y-95418983D01*
X155591847Y-114954223D02*
X155591847Y-114954223D01*
X140359393Y-109389189D02*
X140359393Y-109389189D01*
X145388543Y-71289189D02*
X145388543Y-72091723D01*
X154622395Y-76051689D02*
X154622395Y-76051689D01*
X177824389Y-66020777D02*
X174324343Y-66020777D01*
X178239494Y-125078482D02*
X174758622Y-124712628D01*
X145388539Y-94595777D02*
X145388539Y-94595777D01*
X130810102Y-101610233D02*
X129838585Y-101610233D01*
X167621085Y-62081483D02*
X167621085Y-62081483D01*
X167621088Y-95101689D02*
X168592606Y-95101689D01*
X186353585Y-85893983D02*
X186353585Y-85070777D01*
X97814393Y-87957939D02*
X97814393Y-87957939D01*
X167621088Y-95904223D02*
X167621088Y-95101689D01*
X196474837Y-129031283D02*
X196474837Y-129031283D01*
X107288539Y-111423277D02*
X107288539Y-112246483D01*
X109378852Y-93037733D02*
X108407335Y-93037733D01*
X174324343Y-103962027D02*
X174324343Y-103962027D01*
X94314343Y-73987733D02*
X94314343Y-73987733D01*
X164121043Y-76854223D02*
X167621088Y-76854223D01*
X106343588Y-88760473D02*
X106343588Y-87957939D01*
X207915326Y-132748523D02*
X208169710Y-131965608D01*
X145388539Y-56495777D02*
X145388539Y-57318983D01*
X186353588Y-99864189D02*
X187325106Y-99864189D01*
X115428097Y-97332973D02*
X118928143Y-97332973D01*
X102259389Y-111423277D02*
X98759343Y-111423277D01*
X182853543Y-119557973D02*
X186353588Y-119557973D01*
X126338539Y-101610233D02*
X121309389Y-101610233D01*
X148888588Y-72091723D02*
X148888588Y-71289189D01*
X154622395Y-81131483D02*
X154622395Y-81131483D01*
X99878143Y-107810473D02*
X99878143Y-107007939D01*
X93344895Y-87957939D02*
X93344895Y-87957939D01*
X135889895Y-109389189D02*
X136859347Y-109389189D01*
X98759343Y-112246483D02*
X98759343Y-112246483D01*
X182853539Y-85070777D02*
X182853539Y-85070777D01*
X129838585Y-101610233D02*
X129838585Y-100787027D01*
X117809343Y-100787027D02*
X117809343Y-100787027D01*
X174324347Y-80814189D02*
X174324347Y-80814189D01*
X118928143Y-96530439D02*
X123957293Y-96530439D01*
X200021560Y-145716662D02*
X203350301Y-146798235D01*
X104907293Y-107810473D02*
X104907293Y-107810473D01*
X107288539Y-112246483D02*
X102259389Y-112246483D01*
X129838585Y-100787027D02*
X129838585Y-100787027D01*
X110788585Y-112246483D02*
X110788585Y-112246483D01*
X187602113Y-126890273D02*
X186635918Y-126788722D01*
X183155045Y-126422868D02*
X178153445Y-125897179D01*
X121576043Y-78282973D02*
X125076088Y-78282973D01*
X181694765Y-140316544D02*
X181610877Y-141114682D01*
X112077395Y-77480439D02*
X112077395Y-77480439D01*
X145388539Y-75545777D02*
X145388539Y-76368983D01*
X177824393Y-119557973D02*
X177824393Y-118755439D01*
X159091889Y-80308277D02*
X159091889Y-80308277D01*
X108407335Y-92214527D02*
X108407335Y-92214527D01*
X168592606Y-114151689D02*
X168592602Y-100181483D01*
X182853543Y-80814189D02*
X182853543Y-81616723D01*
X173354895Y-104785233D02*
X173354895Y-104785233D01*
X182853539Y-103962027D02*
X182853539Y-103962027D01*
X167621085Y-100181483D02*
X167621085Y-100181483D01*
X206600000Y-114400000D02*
X194800000Y-114400000D01*
X121576039Y-63510233D02*
X116546889Y-63510233D01*
X130810106Y-115580439D02*
X130810102Y-101610233D01*
X126338543Y-115580439D02*
X126338543Y-115580439D01*
X107288543Y-126216689D02*
X107288543Y-126216689D01*
X136859347Y-90339189D02*
X136859347Y-91141723D01*
X206600000Y-112600000D02*
X206600000Y-114400000D01*
X177824393Y-100666723D02*
X177824393Y-100666723D01*
X95408645Y-93037733D02*
X95408645Y-93037733D01*
X182853539Y-85070777D02*
X182853539Y-85893983D01*
X118928143Y-97332973D02*
X118928143Y-96530439D01*
X186353585Y-85070777D02*
X186353585Y-85070777D01*
X182853539Y-103962027D02*
X182853539Y-104785233D01*
X121309393Y-116382973D02*
X121309393Y-116382973D01*
X155591843Y-80308277D02*
X155591843Y-81131483D01*
X194800000Y-101200000D02*
X195400000Y-101200000D01*
X164121043Y-95904223D02*
X164121043Y-95904223D01*
X182853543Y-100666723D02*
X186353588Y-100666723D01*
X116546893Y-78282973D02*
X116546893Y-78282973D01*
X177824389Y-104785233D02*
X177824389Y-104785233D01*
X135889895Y-90339189D02*
X135889895Y-90339189D01*
X123957293Y-96530439D02*
X123957293Y-97332973D01*
X194800000Y-112600000D02*
X206600000Y-112600000D01*
X145388539Y-95418983D02*
X145388539Y-95418983D01*
X140359393Y-72091723D02*
X140359393Y-72091723D01*
X186353585Y-66843983D02*
X186353585Y-66020777D01*
X113046847Y-77480439D02*
X113046847Y-77480439D01*
X155591843Y-61258277D02*
X155591843Y-62081483D01*
X94314347Y-88760473D02*
X94314347Y-88760473D01*
X194800000Y-95600000D02*
X194800000Y-101200000D01*
X129838588Y-115580439D02*
X130810106Y-115580439D01*
X195238554Y-144162569D02*
X195486551Y-143399314D01*
X167621085Y-62081483D02*
X167621085Y-61258277D01*
X104907293Y-107007939D02*
X104907293Y-107007939D01*
X191909813Y-143080995D02*
X191909813Y-143080995D01*
X186635918Y-126788722D02*
X186635918Y-126788722D01*
X181694765Y-140316544D02*
X181694765Y-140316544D01*
X167621088Y-114151689D02*
X167621088Y-114151689D01*
X135889895Y-71289189D02*
X135889895Y-71289189D01*
X125076088Y-78282973D02*
X125076088Y-78282973D01*
X159091893Y-76051689D02*
X159091893Y-76051689D01*
X115428093Y-82560233D02*
X115428093Y-82560233D01*
X102259389Y-112246483D02*
X102259389Y-111423277D01*
X177824389Y-66843983D02*
X177824389Y-66020777D01*
X174324343Y-66843983D02*
X173354895Y-66843983D01*
X108407335Y-93037733D02*
X108407335Y-92214527D01*
X159091889Y-99358277D02*
X159091889Y-99358277D01*
X140359393Y-90339189D02*
X140359393Y-90339189D01*
X102259393Y-127019223D02*
X102259393Y-126216689D01*
X96378097Y-107007939D02*
X96378097Y-107810473D01*
X109378856Y-107007939D02*
X109378852Y-93037733D01*
X95408645Y-107007939D02*
X96378097Y-107007939D01*
X102843539Y-73987733D02*
X102843539Y-73987733D01*
X129838588Y-116382973D02*
X129838588Y-116382973D01*
X121309389Y-100787027D02*
X117809343Y-100787027D01*
X195486551Y-143399314D02*
X195486551Y-143399314D01*
X178153445Y-125897179D02*
X178153445Y-125897179D01*
X177824393Y-81616723D02*
X177824393Y-81616723D01*
X136859347Y-71289189D02*
X136859347Y-72091723D01*
X155591843Y-80308277D02*
X155591843Y-80308277D01*
X108407335Y-92214527D02*
X104907289Y-92214527D01*
X154622395Y-62081483D02*
X154622395Y-62081483D01*
X125076085Y-62687027D02*
X121576039Y-62687027D01*
X130810106Y-115580439D02*
X130810106Y-115580439D01*
X182853539Y-66020777D02*
X182853539Y-66020777D01*
X140359389Y-95418983D02*
X140359389Y-94595777D01*
X117809343Y-101610233D02*
X117809343Y-101610233D01*
X107288543Y-127019223D02*
X107288543Y-127019223D01*
X167621088Y-95904223D02*
X167621088Y-95904223D01*
X108407338Y-107007939D02*
X109378856Y-107007939D01*
X168592606Y-76051689D02*
X168592602Y-62081483D01*
X173354895Y-104785233D02*
X173354895Y-118755439D01*
X145388543Y-91141723D02*
X145388543Y-91141723D01*
X167621088Y-76051689D02*
X167621088Y-76051689D01*
X145388543Y-72091723D02*
X148888588Y-72091723D01*
X182853539Y-104785233D02*
X177824389Y-104785233D01*
X123957293Y-97332973D02*
X127457338Y-97332973D01*
X149860106Y-109389189D02*
X149860106Y-109389189D01*
X174324343Y-66020777D02*
X174324343Y-66020777D01*
X135889895Y-76368983D02*
X135889895Y-90339189D01*
X186353585Y-66843983D02*
X186353585Y-66843983D01*
X136859343Y-57318983D02*
X136859343Y-57318983D01*
X126338539Y-101610233D02*
X126338539Y-101610233D01*
X208169710Y-131965608D02*
X208169710Y-131965608D01*
X148888585Y-94595777D02*
X145388539Y-94595777D01*
X159091893Y-95904223D02*
X159091893Y-95904223D01*
X159091889Y-100181483D02*
X159091889Y-100181483D01*
X117809347Y-115580439D02*
X117809347Y-115580439D01*
X164121043Y-95904223D02*
X167621088Y-95904223D01*
X148888585Y-75545777D02*
X148888585Y-75545777D01*
X111760106Y-126216689D02*
X111760102Y-112246483D01*
X127457338Y-97332973D02*
X127457338Y-97332973D01*
X174758622Y-124712628D02*
X174672573Y-125531324D01*
X140359389Y-75545777D02*
X140359389Y-75545777D01*
X148888588Y-90339189D02*
X148888588Y-90339189D01*
X173354895Y-85893983D02*
X173354895Y-99864189D01*
X159091893Y-95101689D02*
X164121043Y-95101689D01*
X136859343Y-94595777D02*
X136859343Y-94595777D01*
X174324347Y-100666723D02*
X177824393Y-100666723D01*
X183155045Y-126422868D02*
X183155045Y-126422868D01*
X121576039Y-62687027D02*
X121576039Y-63510233D01*
X126338543Y-116382973D02*
X126338543Y-116382973D01*
X154622395Y-95101689D02*
X155591847Y-95101689D01*
X181610877Y-141114682D02*
X185091749Y-141480536D01*
X191909813Y-143080995D02*
X195238554Y-144162569D01*
X200269557Y-144953406D02*
X200269557Y-144953406D01*
X154622395Y-81131483D02*
X154622395Y-95101689D01*
X159091889Y-100181483D02*
X159091889Y-99358277D01*
X186353588Y-118755439D02*
X187325106Y-118755439D01*
X126047606Y-77480439D02*
X126047602Y-63510233D01*
X196729221Y-128248368D02*
X196729221Y-128248368D01*
X187325102Y-66843983D02*
X186353585Y-66843983D01*
X167621088Y-95101689D02*
X167621088Y-95101689D01*
X145388543Y-109389189D02*
X145388543Y-109389189D01*
X155591847Y-95904223D02*
X155591847Y-95904223D01*
X154622395Y-76051689D02*
X155591847Y-76051689D01*
X199803578Y-130112857D02*
X200057963Y-129329941D01*
X204586584Y-131666950D02*
X204586584Y-131666950D01*
X110788588Y-127019223D02*
X110788588Y-126216689D01*
X174324343Y-66020777D02*
X174324343Y-66843983D01*
X177824389Y-103962027D02*
X174324343Y-103962027D01*
X195552837Y-128731707D02*
X191235806Y-142018163D01*
X173708436Y-125429989D02*
X173708436Y-125429989D01*
X174324343Y-103962027D02*
X174324343Y-104785233D01*
X136859347Y-90339189D02*
X136859347Y-90339189D01*
X174324347Y-80814189D02*
X174324347Y-81616723D01*
X140359389Y-76368983D02*
X140359389Y-75545777D01*
X182853539Y-66843983D02*
X182853539Y-66843983D01*
X107288539Y-112246483D02*
X107288539Y-112246483D01*
X127457335Y-81737027D02*
X123957289Y-81737027D01*
X177824393Y-118755439D02*
X182853543Y-118755439D01*
X173212293Y-139425000D02*
X173128405Y-140223138D01*
X206600000Y-95600000D02*
X206000000Y-95600000D01*
X182853543Y-80814189D02*
X182853543Y-80814189D01*
X106343588Y-87957939D02*
X106343588Y-87957939D01*
X126338539Y-100787027D02*
X126338539Y-100787027D01*
X115428093Y-81737027D02*
X115428093Y-81737027D01*
X176693165Y-139790855D02*
X176693165Y-139790855D01*
X123957289Y-82560233D02*
X123957289Y-82560233D01*
X145388539Y-76368983D02*
X140359389Y-76368983D01*
X96378097Y-107810473D02*
X96378097Y-107810473D01*
X125076085Y-63510233D02*
X125076085Y-62687027D01*
X159091889Y-99358277D02*
X155591843Y-99358277D01*
X135889895Y-71289189D02*
X136859347Y-71289189D01*
X102843539Y-73164527D02*
X102843539Y-73987733D01*
X145388539Y-76368983D02*
X145388539Y-76368983D01*
X121309393Y-115580439D02*
X121309393Y-115580439D01*
X186353585Y-66020777D02*
X186353585Y-66020777D01*
X140359393Y-91141723D02*
X140359393Y-90339189D01*
X173708436Y-125429989D02*
X172248152Y-139323665D01*
X174324347Y-81616723D02*
X174324347Y-81616723D01*
X177824389Y-104785233D02*
X177824389Y-103962027D01*
X155591847Y-76051689D02*
X155591847Y-76854223D01*
X191235806Y-142018163D02*
X191235806Y-142018163D01*
X106343588Y-87957939D02*
X107315106Y-87957939D01*
X173212293Y-139425000D02*
X173212293Y-139425000D01*
X121576039Y-63510233D02*
X121576039Y-63510233D01*
X148888588Y-91141723D02*
X148888588Y-90339189D01*
X177824389Y-66020777D02*
X177824389Y-66020777D01*
X116546893Y-77480439D02*
X116546893Y-77480439D01*
X183241094Y-125604171D02*
X183241094Y-125604171D01*
X118928143Y-97332973D02*
X118928143Y-97332973D01*
X192157809Y-142317740D02*
X192157809Y-142317740D01*
X129838588Y-116382973D02*
X129838588Y-115580439D01*
X177824393Y-80814189D02*
X182853543Y-80814189D01*
X148888588Y-110191723D02*
X148888588Y-110191723D01*
X148888585Y-76368983D02*
X148888585Y-75545777D01*
X145388543Y-71289189D02*
X145388543Y-71289189D01*
X129838585Y-100787027D02*
X126338539Y-100787027D01*
X118928139Y-81737027D02*
X115428093Y-81737027D01*
X187325102Y-85893983D02*
X186353585Y-85893983D01*
X173128405Y-140223138D02*
X173128405Y-140223138D01*
X135889895Y-76368983D02*
X135889895Y-76368983D01*
X148888585Y-76368983D02*
X148888585Y-76368983D01*
X164121039Y-80308277D02*
X164121039Y-80308277D01*
X148888585Y-56495777D02*
X148888585Y-56495777D01*
X125076088Y-77480439D02*
X126047606Y-77480439D01*
X167621085Y-61258277D02*
X167621085Y-61258277D01*
X108407338Y-107810473D02*
X108407338Y-107007939D01*
X136859343Y-75545777D02*
X136859343Y-75545777D01*
X168592606Y-95101689D02*
X168592606Y-95101689D01*
X140359389Y-94595777D02*
X140359389Y-94595777D01*
X112077395Y-77480439D02*
X113046847Y-77480439D01*
X182853539Y-66020777D02*
X182853539Y-66843983D01*
X206000000Y-95600000D02*
X206000000Y-101200000D01*
X195486551Y-143399314D02*
X200269557Y-144953406D01*
X167621085Y-80308277D02*
X164121039Y-80308277D01*
X145388539Y-75545777D02*
X145388539Y-75545777D01*
X186721966Y-125970026D02*
X183241094Y-125604171D01*
X204840969Y-130884034D02*
X204586584Y-131666950D01*
X140359393Y-71289189D02*
X145388543Y-71289189D01*
X173354895Y-99864189D02*
X173354895Y-99864189D01*
X98759347Y-127019223D02*
X102259393Y-127019223D01*
X207915326Y-132748523D02*
X207915326Y-132748523D01*
X155591847Y-76051689D02*
X155591847Y-76051689D01*
X164121043Y-95101689D02*
X164121043Y-95101689D01*
X177824389Y-103962027D02*
X177824389Y-103962027D01*
X159091893Y-95904223D02*
X159091893Y-95101689D01*
X149860106Y-90339189D02*
X149860106Y-90339189D01*
X140359393Y-90339189D02*
X145388543Y-90339189D01*
X126047602Y-63510233D02*
X125076085Y-63510233D01*
X177824393Y-80814189D02*
X177824393Y-80814189D01*
X102259389Y-112246483D02*
X102259389Y-112246483D01*
X174324343Y-85893983D02*
X173354895Y-85893983D01*
X135889895Y-95418983D02*
X135889895Y-109389189D01*
X136859347Y-72091723D02*
X140359393Y-72091723D01*
X136859347Y-110191723D02*
X136859347Y-110191723D01*
X173354895Y-118755439D02*
X174324347Y-118755439D01*
X121576043Y-77480439D02*
X121576043Y-77480439D01*
X121576043Y-78282973D02*
X121576043Y-78282973D01*
X177824389Y-85893983D02*
X177824389Y-85893983D01*
X174324347Y-81616723D02*
X177824393Y-81616723D01*
X102843543Y-88760473D02*
X106343588Y-88760473D01*
X121309393Y-115580439D02*
X126338543Y-115580439D01*
X185175636Y-140682398D02*
X185175636Y-140682398D01*
X98759347Y-126216689D02*
X98759347Y-126216689D01*
X199803578Y-130112857D02*
X199803578Y-130112857D01*
X149860106Y-71289189D02*
X149860106Y-71289189D01*
X93344895Y-73987733D02*
X93344895Y-87957939D01*
X98759343Y-111423277D02*
X98759343Y-112246483D01*
X127457338Y-97332973D02*
X127457338Y-96530439D01*
X167621085Y-61258277D02*
X164121039Y-61258277D01*
X126338539Y-100787027D02*
X126338539Y-101610233D01*
X200057963Y-129329941D02*
X196729221Y-128248368D01*
X123957289Y-82560233D02*
X118928139Y-82560233D01*
X117809343Y-101610233D02*
X116839895Y-101610233D01*
X94314343Y-73987733D02*
X93344895Y-73987733D01*
X117809347Y-116382973D02*
X117809347Y-116382973D01*
X97814393Y-88760473D02*
X97814393Y-87957939D01*
X136859343Y-95418983D02*
X135889895Y-95418983D01*
X155591843Y-62081483D02*
X155591843Y-62081483D01*
X187325106Y-118755439D02*
X187325106Y-118755439D01*
X104907293Y-107007939D02*
X104907293Y-107810473D01*
X195400000Y-101200000D02*
X195400000Y-95600000D01*
X186353585Y-104785233D02*
X186353585Y-104785233D01*
X145388543Y-72091723D02*
X145388543Y-72091723D01*
X116839895Y-115580439D02*
X117809347Y-115580439D01*
X206000000Y-101200000D02*
X206600000Y-101200000D01*
X148888588Y-109389189D02*
X149860106Y-109389189D01*
X121309389Y-101610233D02*
X121309389Y-101610233D01*
X116839895Y-101610233D02*
X116839895Y-115580439D01*
X182853539Y-85893983D02*
X177824389Y-85893983D01*
X154622395Y-100181483D02*
X154622395Y-100181483D01*
X98759347Y-127019223D02*
X98759347Y-127019223D01*
X140359393Y-110191723D02*
X140359393Y-109389189D01*
X115428097Y-96530439D02*
X115428097Y-97332973D01*
X104907289Y-92214527D02*
X104907289Y-92214527D01*
X145388543Y-110191723D02*
X145388543Y-110191723D01*
X186353588Y-100666723D02*
X186353588Y-100666723D01*
X102843543Y-88760473D02*
X102843543Y-88760473D01*
X116546893Y-77480439D02*
X121576043Y-77480439D01*
X168592606Y-114151689D02*
X168592606Y-114151689D01*
X195400000Y-95600000D02*
X194800000Y-95600000D01*
X187325106Y-118755439D02*
X187325102Y-104785233D01*
X176693165Y-139790855D02*
X181694765Y-140316544D01*
X118928143Y-96530439D02*
X118928143Y-96530439D01*
X110788585Y-112246483D02*
X110788585Y-111423277D01*
X177824393Y-119557973D02*
X177824393Y-119557973D01*
X136859343Y-95418983D02*
X136859343Y-95418983D01*
X107315106Y-87957939D02*
X107315102Y-73987733D01*
X200057963Y-129329941D02*
X200057963Y-129329941D01*
X116839895Y-115580439D02*
X116839895Y-115580439D01*
X148888588Y-71289189D02*
X149860106Y-71289189D01*
X145388543Y-109389189D02*
X145388543Y-110191723D01*
X107288543Y-126216689D02*
X107288543Y-127019223D01*
X164121043Y-95101689D02*
X164121043Y-95904223D01*
X204522266Y-146335195D02*
X204522266Y-146335195D01*
X136859343Y-57318983D02*
X135889895Y-57318983D01*
X136859343Y-56495777D02*
X136859343Y-56495777D01*
X115428093Y-81737027D02*
X115428093Y-82560233D01*
X145388543Y-91141723D02*
X148888588Y-91141723D01*
X106343585Y-73987733D02*
X106343585Y-73164527D01*
X123957289Y-81737027D02*
X123957289Y-82560233D01*
X185091749Y-141480536D02*
X185091749Y-141480536D01*
X200269557Y-144953406D02*
X200021560Y-145716662D01*
X96378097Y-107810473D02*
X99878143Y-107810473D01*
X94314347Y-87957939D02*
X94314347Y-88760473D01*
X121309389Y-100787027D02*
X121309389Y-100787027D01*
X177824393Y-118755439D02*
X177824393Y-118755439D01*
X98759343Y-111423277D02*
X98759343Y-111423277D01*
X168592602Y-62081483D02*
X167621085Y-62081483D01*
X174324347Y-100666723D02*
X174324347Y-100666723D01*
X167621088Y-76051689D02*
X168592606Y-76051689D01*
X206600000Y-101200000D02*
X206600000Y-95600000D01*
X148888588Y-90339189D02*
X149860106Y-90339189D01*
X186353588Y-119557973D02*
X186353588Y-118755439D01*
X115428097Y-97332973D02*
X115428097Y-97332973D01*
X187325106Y-99864189D02*
X187325102Y-85893983D01*
X117809347Y-115580439D02*
X117809347Y-116382973D01*
X155591847Y-95904223D02*
X159091893Y-95904223D01*
X136859343Y-76368983D02*
X136859343Y-76368983D01*
X136859347Y-109389189D02*
X136859347Y-110191723D01*
X113046843Y-62687027D02*
X113046843Y-63510233D01*
X140359389Y-75545777D02*
X136859343Y-75545777D01*
X174324347Y-99864189D02*
X174324347Y-99864189D01*
X116546889Y-63510233D02*
X116546889Y-62687027D01*
X118928139Y-81737027D02*
X118928139Y-81737027D01*
X110788588Y-126216689D02*
X111760106Y-126216689D01*
X128428856Y-96530439D02*
X128428852Y-82560233D01*
X154622395Y-100181483D02*
X154622395Y-114151689D01*
X113046847Y-78282973D02*
X116546893Y-78282973D01*
X140359389Y-57318983D02*
X140359389Y-57318983D01*
X186141832Y-140783950D02*
X186141832Y-140783950D01*
X123957293Y-96530439D02*
X123957293Y-96530439D01*
X148888588Y-110191723D02*
X148888588Y-109389189D01*
X136859347Y-72091723D02*
X136859347Y-72091723D01*
X135889895Y-90339189D02*
X136859347Y-90339189D01*
X114458645Y-96530439D02*
X114458645Y-96530439D01*
X177824389Y-85070777D02*
X174324343Y-85070777D01*
X102259393Y-126216689D02*
X102259393Y-126216689D01*
X118928139Y-82560233D02*
X118928139Y-82560233D01*
X203598298Y-146034980D02*
X204522266Y-146335195D01*
X111760106Y-126216689D02*
X111760106Y-126216689D01*
X97814389Y-73987733D02*
X97814389Y-73164527D01*
X112077395Y-63510233D02*
X112077395Y-63510233D01*
X174324347Y-118755439D02*
X174324347Y-118755439D01*
X99878139Y-93037733D02*
X99878139Y-92214527D01*
X127457338Y-96530439D02*
X128428856Y-96530439D01*
X155591847Y-76854223D02*
X159091893Y-76854223D01*
X173354895Y-66843983D02*
X173354895Y-80814189D01*
X140359389Y-57318983D02*
X140359389Y-56495777D01*
X164121043Y-114954223D02*
X164121043Y-114954223D01*
X159091889Y-80308277D02*
X155591843Y-80308277D01*
X94314343Y-73164527D02*
X94314343Y-73987733D01*
X164121039Y-81131483D02*
X159091889Y-81131483D01*
X183241094Y-125604171D02*
X183155045Y-126422868D01*
X96378093Y-92214527D02*
X96378093Y-93037733D01*
X111760102Y-112246483D02*
X110788585Y-112246483D01*
X204522266Y-146335195D02*
X208839293Y-133048739D01*
X107315106Y-87957939D02*
X107315106Y-87957939D01*
X159091889Y-61258277D02*
X155591843Y-61258277D01*
X114458645Y-96530439D02*
X115428097Y-96530439D01*
X187325106Y-99864189D02*
X187325106Y-99864189D01*
X127457335Y-82560233D02*
X127457335Y-81737027D01*
X203350301Y-146798235D02*
X203350301Y-146798235D01*
X155591843Y-100181483D02*
X155591843Y-100181483D01*
X114458645Y-82560233D02*
X114458645Y-96530439D01*
X186141832Y-140783950D02*
X187602113Y-126890273D01*
X102259389Y-111423277D02*
X102259389Y-111423277D01*
X159091889Y-62081483D02*
X159091889Y-61258277D01*
X159091889Y-62081483D02*
X159091889Y-62081483D01*
X186353588Y-81616723D02*
X186353588Y-81616723D01*
X155591847Y-95101689D02*
X155591847Y-95101689D01*
X129838588Y-115580439D02*
X129838588Y-115580439D01*
X115428093Y-82560233D02*
X114458645Y-82560233D01*
X187325106Y-80814189D02*
X187325102Y-66843983D01*
X174324347Y-118755439D02*
X174324347Y-119557973D01*
X108407338Y-107810473D02*
X108407338Y-107810473D01*
X173354895Y-85893983D02*
X173354895Y-85893983D01*
X126338543Y-115580439D02*
X126338543Y-116382973D01*
X159091893Y-76854223D02*
X159091893Y-76051689D01*
X140359389Y-95418983D02*
X140359389Y-95418983D01*
X136859343Y-94595777D02*
X136859343Y-95418983D01*
X182853543Y-81616723D02*
X186353588Y-81616723D01*
X127457335Y-82560233D02*
X127457335Y-82560233D01*
X94314347Y-88760473D02*
X97814393Y-88760473D01*
X136859347Y-109389189D02*
X136859347Y-109389189D01*
X167621085Y-100181483D02*
X167621085Y-99358277D01*
X173354895Y-80814189D02*
X173354895Y-80814189D01*
X97814389Y-73164527D02*
X94314343Y-73164527D01*
X186721966Y-125970026D02*
X186721966Y-125970026D01*
X126338543Y-116382973D02*
X129838588Y-116382973D01*
X177824389Y-66843983D02*
X177824389Y-66843983D01*
X174324343Y-104785233D02*
X174324343Y-104785233D01*
X164121039Y-62081483D02*
X164121039Y-62081483D01*
X128428856Y-96530439D02*
X128428856Y-96530439D01*
X164121039Y-100181483D02*
X164121039Y-100181483D01*
X149860106Y-109389189D02*
X149860102Y-95418983D01*
X121576043Y-77480439D02*
X121576043Y-78282973D01*
X164121039Y-99358277D02*
X164121039Y-99358277D01*
X110788588Y-127019223D02*
X110788588Y-127019223D01*
X155591847Y-114954223D02*
X159091893Y-114954223D01*
X155591847Y-114151689D02*
X155591847Y-114954223D01*
X182853543Y-119557973D02*
X182853543Y-119557973D01*
X140359389Y-76368983D02*
X140359389Y-76368983D01*
X96378093Y-93037733D02*
X95408645Y-93037733D01*
X96378093Y-92214527D02*
X96378093Y-92214527D01*
X182853539Y-104785233D02*
X182853539Y-104785233D01*
X159091893Y-114954223D02*
X159091893Y-114954223D01*
X174324343Y-85070777D02*
X174324343Y-85893983D01*
X106343585Y-73987733D02*
X106343585Y-73987733D01*
X107315102Y-73987733D02*
X106343585Y-73987733D01*
X102843539Y-73987733D02*
X97814389Y-73987733D01*
X195238554Y-144162569D02*
X195238554Y-144162569D01*
X148888588Y-72091723D02*
X148888588Y-72091723D01*
X167621088Y-76854223D02*
X167621088Y-76051689D01*
X164121043Y-114151689D02*
X164121043Y-114954223D01*
X110788588Y-126216689D02*
X110788588Y-126216689D01*
X107288539Y-111423277D02*
X107288539Y-111423277D01*
X174324347Y-99864189D02*
X174324347Y-100666723D01*
X208169710Y-131965608D02*
X204840969Y-130884034D01*
X173354895Y-118755439D02*
X173354895Y-118755439D01*
X113046843Y-62687027D02*
X113046843Y-62687027D01*
X172248152Y-139323665D02*
X172248152Y-139323665D01*
X155591843Y-81131483D02*
X155591843Y-81131483D01*
X99878143Y-107810473D02*
X99878143Y-107810473D01*
X135889895Y-95418983D02*
X135889895Y-95418983D01*
X109378856Y-107007939D02*
X109378856Y-107007939D01*
X95408645Y-107007939D02*
X95408645Y-107007939D01*
X115428097Y-96530439D02*
X115428097Y-96530439D01*
X125076085Y-63510233D02*
X125076085Y-63510233D01*
X106343588Y-88760473D02*
X106343588Y-88760473D01*
X164121039Y-80308277D02*
X164121039Y-81131483D01*
X173128405Y-140223138D02*
X176609278Y-140588992D01*
X106343585Y-73164527D02*
X102843539Y-73164527D01*
X196729221Y-128248368D02*
X196474837Y-129031283D01*
X99878143Y-107007939D02*
X104907293Y-107007939D01*
X186635918Y-126788722D02*
X186721966Y-125970026D01*
X192157809Y-142317740D02*
X191909813Y-143080995D01*
X159091889Y-81131483D02*
X159091889Y-81131483D01*
X117809343Y-100787027D02*
X117809343Y-101610233D01*
X164121043Y-76051689D02*
X164121043Y-76051689D01*
X148888585Y-56495777D02*
X145388539Y-56495777D01*
X187325102Y-104785233D02*
X186353585Y-104785233D01*
X155591843Y-100181483D02*
X154622395Y-100181483D01*
X182853543Y-118755439D02*
X182853543Y-119557973D01*
X136859347Y-91141723D02*
X136859347Y-91141723D01*
X167621085Y-99358277D02*
X164121039Y-99358277D01*
X135889895Y-57318983D02*
X135889895Y-71289189D01*
X114458645Y-82560233D02*
X114458645Y-82560233D01*
X99878139Y-92214527D02*
X96378093Y-92214527D01*
X148888585Y-75545777D02*
X145388539Y-75545777D01*
X167621088Y-114151689D02*
X168592606Y-114151689D01*
X174758622Y-124712628D02*
X174758622Y-124712628D01*
X104907289Y-93037733D02*
X99878139Y-93037733D01*
X192090000Y-64910801D02*
X192090000Y-92882801D01*
X196000000Y-92882801D01*
X196000000Y-101200000D01*
X205500000Y-101200000D01*
X205500000Y-92882801D01*
X212090000Y-92882801D01*
X212090000Y-116900000D01*
X199700000Y-116900000D01*
X199700000Y-125100000D01*
X212090000Y-125100000D01*
X212090000Y-130810000D01*
X205994000Y-148844000D01*
X188214000Y-143160801D01*
X162814000Y-140208000D01*
X120549104Y-128229704D01*
X95848000Y-127680801D01*
X90840000Y-89410801D01*
X90827500Y-70848301D01*
X110072000Y-60878801D01*
X133965000Y-54782801D01*
X151982000Y-54782801D01*
X192090000Y-64910801D01*
X155591847Y-95101689D02*
X155591847Y-95904223D01*
X155591843Y-81131483D02*
X154622395Y-81131483D01*
X177824393Y-99864189D02*
X177824393Y-99864189D01*
X97814389Y-73164527D02*
X97814389Y-73164527D01*
X97814393Y-87957939D02*
X102843543Y-87957939D01*
X174324343Y-85070777D02*
X174324343Y-85070777D01*
X104907293Y-107810473D02*
X108407338Y-107810473D01*
X116546893Y-78282973D02*
X116546893Y-77480439D01*
X174324347Y-119557973D02*
X177824393Y-119557973D01*
X149860102Y-76368983D02*
X148888585Y-76368983D01*
X174672573Y-125531324D02*
X173708436Y-125429989D01*
X113046847Y-78282973D02*
X113046847Y-78282973D01*
X155591843Y-61258277D02*
X155591843Y-61258277D01*
X173354895Y-66843983D02*
X173354895Y-66843983D01*
X164121043Y-76051689D02*
X164121043Y-76854223D01*
X159091893Y-76051689D02*
X164121043Y-76051689D01*
X145388539Y-56495777D02*
X145388539Y-56495777D01*
X145388543Y-110191723D02*
X148888588Y-110191723D01*
X123957293Y-97332973D02*
X123957293Y-97332973D01*
X167621088Y-76854223D02*
X167621088Y-76854223D01*
X125076088Y-78282973D02*
X125076088Y-77480439D01*
X159091889Y-81131483D02*
X159091889Y-80308277D01*
X186353585Y-103962027D02*
X186353585Y-103962027D01*
X116546889Y-62687027D02*
X113046843Y-62687027D01*
X174324343Y-104785233D02*
X173354895Y-104785233D01*
X186353588Y-99864189D02*
X186353588Y-99864189D01*
X182853539Y-85893983D02*
X182853539Y-85893983D01*
X148888585Y-95418983D02*
X148888585Y-95418983D01*
X116839895Y-101610233D02*
X116839895Y-101610233D01*
X125076088Y-77480439D02*
X125076088Y-77480439D01*
X149860106Y-90339189D02*
X149860102Y-76368983D01*
X96378093Y-93037733D02*
X96378093Y-93037733D01*
X121309393Y-116382973D02*
X121309393Y-115580439D01*
X182853543Y-99864189D02*
X182853543Y-100666723D01*
X154622395Y-114151689D02*
X154622395Y-114151689D01*
X127457335Y-81737027D02*
X127457335Y-81737027D01*
X113046847Y-77480439D02*
X113046847Y-78282973D01*
X186353588Y-80814189D02*
X187325106Y-80814189D01*
X121309389Y-101610233D02*
X121309389Y-100787027D01*
X174324343Y-85893983D02*
X174324343Y-85893983D01*
X113046843Y-63510233D02*
X113046843Y-63510233D01*
X135889895Y-57318983D02*
X135889895Y-57318983D01*
X159091893Y-114954223D02*
X159091893Y-114151689D01*
X164121039Y-81131483D02*
X164121039Y-81131483D01*
X97789895Y-126216689D02*
X97789895Y-126216689D01*
X102843543Y-87957939D02*
X102843543Y-87957939D01*
X177824389Y-85893983D02*
X177824389Y-85070777D01*
X98759343Y-112246483D02*
X97789895Y-112246483D01*
X110788585Y-111423277D02*
X110788585Y-111423277D01*
X154622395Y-114151689D02*
X155591847Y-114151689D01*
X123957289Y-81737027D02*
X123957289Y-81737027D01*
X145388539Y-95418983D02*
X140359389Y-95418983D01*
X92416666Y-150000000D02*
G75*
G03*
X92416666Y-150000000I-1666666J0D01*
G01*
X88250000Y-150000000D02*
X93250000Y-150000000D01*
X90750000Y-147500000D02*
X90750000Y-152500000D01*
M02*
