%TF.GenerationSoftware,KiCad,Pcbnew,(6.0.8)*%
%TF.CreationDate,2022-10-28T13:11:56+09:00*%
%TF.ProjectId,selen_plate,73656c65-6e5f-4706-9c61-74652e6b6963,rev?*%
%TF.SameCoordinates,Original*%
%TF.FileFunction,Soldermask,Top*%
%TF.FilePolarity,Negative*%
%FSLAX46Y46*%
G04 Gerber Fmt 4.6, Leading zero omitted, Abs format (unit mm)*
G04 Created by KiCad (PCBNEW (6.0.8)) date 2022-10-28 13:11:56*
%MOMM*%
%LPD*%
G01*
G04 APERTURE LIST*
%ADD10C,0.150000*%
%ADD11C,2.200000*%
G04 APERTURE END LIST*
D10*
X132216548Y-114252380D02*
X132216548Y-113252380D01*
X132597500Y-113252380D01*
X132692738Y-113300000D01*
X132740357Y-113347619D01*
X132787976Y-113442857D01*
X132787976Y-113585714D01*
X132740357Y-113680952D01*
X132692738Y-113728571D01*
X132597500Y-113776190D01*
X132216548Y-113776190D01*
X133787976Y-114157142D02*
X133740357Y-114204761D01*
X133597500Y-114252380D01*
X133502262Y-114252380D01*
X133359405Y-114204761D01*
X133264167Y-114109523D01*
X133216548Y-114014285D01*
X133168929Y-113823809D01*
X133168929Y-113680952D01*
X133216548Y-113490476D01*
X133264167Y-113395238D01*
X133359405Y-113300000D01*
X133502262Y-113252380D01*
X133597500Y-113252380D01*
X133740357Y-113300000D01*
X133787976Y-113347619D01*
X134549881Y-113728571D02*
X134692738Y-113776190D01*
X134740357Y-113823809D01*
X134787976Y-113919047D01*
X134787976Y-114061904D01*
X134740357Y-114157142D01*
X134692738Y-114204761D01*
X134597500Y-114252380D01*
X134216548Y-114252380D01*
X134216548Y-113252380D01*
X134549881Y-113252380D01*
X134645119Y-113300000D01*
X134692738Y-113347619D01*
X134740357Y-113442857D01*
X134740357Y-113538095D01*
X134692738Y-113633333D01*
X134645119Y-113680952D01*
X134549881Y-113728571D01*
X134216548Y-113728571D01*
X135978453Y-114252380D02*
X135978453Y-113252380D01*
X136216548Y-113252380D01*
X136359405Y-113300000D01*
X136454643Y-113395238D01*
X136502262Y-113490476D01*
X136549881Y-113680952D01*
X136549881Y-113823809D01*
X136502262Y-114014285D01*
X136454643Y-114109523D01*
X136359405Y-114204761D01*
X136216548Y-114252380D01*
X135978453Y-114252380D01*
X137359405Y-114204761D02*
X137264167Y-114252380D01*
X137073691Y-114252380D01*
X136978453Y-114204761D01*
X136930833Y-114109523D01*
X136930833Y-113728571D01*
X136978453Y-113633333D01*
X137073691Y-113585714D01*
X137264167Y-113585714D01*
X137359405Y-113633333D01*
X137407024Y-113728571D01*
X137407024Y-113823809D01*
X136930833Y-113919047D01*
X137787976Y-114204761D02*
X137883214Y-114252380D01*
X138073691Y-114252380D01*
X138168929Y-114204761D01*
X138216548Y-114109523D01*
X138216548Y-114061904D01*
X138168929Y-113966666D01*
X138073691Y-113919047D01*
X137930833Y-113919047D01*
X137835595Y-113871428D01*
X137787976Y-113776190D01*
X137787976Y-113728571D01*
X137835595Y-113633333D01*
X137930833Y-113585714D01*
X138073691Y-113585714D01*
X138168929Y-113633333D01*
X138645119Y-114252380D02*
X138645119Y-113585714D01*
X138645119Y-113252380D02*
X138597500Y-113300000D01*
X138645119Y-113347619D01*
X138692738Y-113300000D01*
X138645119Y-113252380D01*
X138645119Y-113347619D01*
X139549881Y-113585714D02*
X139549881Y-114395238D01*
X139502262Y-114490476D01*
X139454643Y-114538095D01*
X139359405Y-114585714D01*
X139216548Y-114585714D01*
X139121310Y-114538095D01*
X139549881Y-114204761D02*
X139454643Y-114252380D01*
X139264167Y-114252380D01*
X139168929Y-114204761D01*
X139121310Y-114157142D01*
X139073691Y-114061904D01*
X139073691Y-113776190D01*
X139121310Y-113680952D01*
X139168929Y-113633333D01*
X139264167Y-113585714D01*
X139454643Y-113585714D01*
X139549881Y-113633333D01*
X140026072Y-113585714D02*
X140026072Y-114252380D01*
X140026072Y-113680952D02*
X140073691Y-113633333D01*
X140168929Y-113585714D01*
X140311786Y-113585714D01*
X140407024Y-113633333D01*
X140454643Y-113728571D01*
X140454643Y-114252380D01*
X141311786Y-114204761D02*
X141216548Y-114252380D01*
X141026072Y-114252380D01*
X140930833Y-114204761D01*
X140883214Y-114109523D01*
X140883214Y-113728571D01*
X140930833Y-113633333D01*
X141026072Y-113585714D01*
X141216548Y-113585714D01*
X141311786Y-113633333D01*
X141359405Y-113728571D01*
X141359405Y-113823809D01*
X140883214Y-113919047D01*
X142216548Y-114252380D02*
X142216548Y-113252380D01*
X142216548Y-114204761D02*
X142121310Y-114252380D01*
X141930833Y-114252380D01*
X141835595Y-114204761D01*
X141787976Y-114157142D01*
X141740357Y-114061904D01*
X141740357Y-113776190D01*
X141787976Y-113680952D01*
X141835595Y-113633333D01*
X141930833Y-113585714D01*
X142121310Y-113585714D01*
X142216548Y-113633333D01*
X143454643Y-114252380D02*
X143454643Y-113252380D01*
X143454643Y-113633333D02*
X143549881Y-113585714D01*
X143740357Y-113585714D01*
X143835595Y-113633333D01*
X143883214Y-113680952D01*
X143930833Y-113776190D01*
X143930833Y-114061904D01*
X143883214Y-114157142D01*
X143835595Y-114204761D01*
X143740357Y-114252380D01*
X143549881Y-114252380D01*
X143454643Y-114204761D01*
X144264167Y-113585714D02*
X144502262Y-114252380D01*
X144740357Y-113585714D02*
X144502262Y-114252380D01*
X144407024Y-114490476D01*
X144359405Y-114538095D01*
X144264167Y-114585714D01*
X146502262Y-113776190D02*
X146454643Y-113728571D01*
X146359405Y-113680952D01*
X146264167Y-113680952D01*
X146168929Y-113728571D01*
X146121310Y-113776190D01*
X146073691Y-113871428D01*
X146073691Y-113966666D01*
X146121310Y-114061904D01*
X146168929Y-114109523D01*
X146264167Y-114157142D01*
X146359405Y-114157142D01*
X146454643Y-114109523D01*
X146502262Y-114061904D01*
X146502262Y-113680952D02*
X146502262Y-114061904D01*
X146549881Y-114109523D01*
X146597500Y-114109523D01*
X146692738Y-114061904D01*
X146740357Y-113966666D01*
X146740357Y-113728571D01*
X146645119Y-113585714D01*
X146502262Y-113490476D01*
X146311786Y-113442857D01*
X146121310Y-113490476D01*
X145978453Y-113585714D01*
X145883214Y-113728571D01*
X145835595Y-113919047D01*
X145883214Y-114109523D01*
X145978453Y-114252380D01*
X146121310Y-114347619D01*
X146311786Y-114395238D01*
X146502262Y-114347619D01*
X146645119Y-114252380D01*
X147168929Y-113585714D02*
X147168929Y-114252380D01*
X147168929Y-113680952D02*
X147216548Y-113633333D01*
X147311786Y-113585714D01*
X147454643Y-113585714D01*
X147549881Y-113633333D01*
X147597500Y-113728571D01*
X147597500Y-114252380D01*
X148502262Y-114252380D02*
X148502262Y-113728571D01*
X148454643Y-113633333D01*
X148359405Y-113585714D01*
X148168929Y-113585714D01*
X148073691Y-113633333D01*
X148502262Y-114204761D02*
X148407024Y-114252380D01*
X148168929Y-114252380D01*
X148073691Y-114204761D01*
X148026072Y-114109523D01*
X148026072Y-114014285D01*
X148073691Y-113919047D01*
X148168929Y-113871428D01*
X148407024Y-113871428D01*
X148502262Y-113823809D01*
X148978453Y-114252380D02*
X148978453Y-113585714D01*
X148978453Y-113776190D02*
X149026072Y-113680952D01*
X149073691Y-113633333D01*
X149168929Y-113585714D01*
X149264167Y-113585714D01*
X149597500Y-114252380D02*
X149597500Y-113585714D01*
X149597500Y-113252380D02*
X149549881Y-113300000D01*
X149597500Y-113347619D01*
X149645119Y-113300000D01*
X149597500Y-113252380D01*
X149597500Y-113347619D01*
X150073691Y-113585714D02*
X150073691Y-114252380D01*
X150073691Y-113680952D02*
X150121310Y-113633333D01*
X150216548Y-113585714D01*
X150359405Y-113585714D01*
X150454643Y-113633333D01*
X150502262Y-113728571D01*
X150502262Y-114252380D01*
X151407024Y-114252380D02*
X151407024Y-113728571D01*
X151359405Y-113633333D01*
X151264167Y-113585714D01*
X151073691Y-113585714D01*
X150978453Y-113633333D01*
X151407024Y-114204761D02*
X151311786Y-114252380D01*
X151073691Y-114252380D01*
X150978453Y-114204761D01*
X150930833Y-114109523D01*
X150930833Y-114014285D01*
X150978453Y-113919047D01*
X151073691Y-113871428D01*
X151311786Y-113871428D01*
X151407024Y-113823809D01*
X151883214Y-114252380D02*
X151883214Y-113585714D01*
X151883214Y-113776190D02*
X151930833Y-113680952D01*
X151978453Y-113633333D01*
X152073691Y-113585714D01*
X152168929Y-113585714D01*
X152502262Y-114252380D02*
X152502262Y-113585714D01*
X152502262Y-113252380D02*
X152454643Y-113300000D01*
X152502262Y-113347619D01*
X152549881Y-113300000D01*
X152502262Y-113252380D01*
X152502262Y-113347619D01*
X132787976Y-112704761D02*
X132930833Y-112752380D01*
X133168928Y-112752380D01*
X133264166Y-112704761D01*
X133311785Y-112657142D01*
X133359404Y-112561904D01*
X133359404Y-112466666D01*
X133311785Y-112371428D01*
X133264166Y-112323809D01*
X133168928Y-112276190D01*
X132978452Y-112228571D01*
X132883214Y-112180952D01*
X132835595Y-112133333D01*
X132787976Y-112038095D01*
X132787976Y-111942857D01*
X132835595Y-111847619D01*
X132883214Y-111800000D01*
X132978452Y-111752380D01*
X133216547Y-111752380D01*
X133359404Y-111800000D01*
X134168928Y-112704761D02*
X134073690Y-112752380D01*
X133883214Y-112752380D01*
X133787976Y-112704761D01*
X133740357Y-112609523D01*
X133740357Y-112228571D01*
X133787976Y-112133333D01*
X133883214Y-112085714D01*
X134073690Y-112085714D01*
X134168928Y-112133333D01*
X134216547Y-112228571D01*
X134216547Y-112323809D01*
X133740357Y-112419047D01*
X134787976Y-112752380D02*
X134692738Y-112704761D01*
X134645119Y-112609523D01*
X134645119Y-111752380D01*
X135549880Y-112704761D02*
X135454642Y-112752380D01*
X135264166Y-112752380D01*
X135168928Y-112704761D01*
X135121309Y-112609523D01*
X135121309Y-112228571D01*
X135168928Y-112133333D01*
X135264166Y-112085714D01*
X135454642Y-112085714D01*
X135549880Y-112133333D01*
X135597500Y-112228571D01*
X135597500Y-112323809D01*
X135121309Y-112419047D01*
X136026071Y-112085714D02*
X136026071Y-112752380D01*
X136026071Y-112180952D02*
X136073690Y-112133333D01*
X136168928Y-112085714D01*
X136311785Y-112085714D01*
X136407023Y-112133333D01*
X136454642Y-112228571D01*
X136454642Y-112752380D01*
X137692738Y-112752380D02*
X137692738Y-112085714D01*
X137692738Y-112276190D02*
X137740357Y-112180952D01*
X137787976Y-112133333D01*
X137883214Y-112085714D01*
X137978452Y-112085714D01*
X138264166Y-111847619D02*
X138311785Y-111800000D01*
X138407023Y-111752380D01*
X138645119Y-111752380D01*
X138740357Y-111800000D01*
X138787976Y-111847619D01*
X138835595Y-111942857D01*
X138835595Y-112038095D01*
X138787976Y-112180952D01*
X138216547Y-112752380D01*
X138835595Y-112752380D01*
X139930833Y-112085714D02*
X140168928Y-112752380D01*
X140407023Y-112085714D01*
X140787976Y-112657142D02*
X140835595Y-112704761D01*
X140787976Y-112752380D01*
X140740357Y-112704761D01*
X140787976Y-112657142D01*
X140787976Y-112752380D01*
X141454642Y-111752380D02*
X141549880Y-111752380D01*
X141645119Y-111800000D01*
X141692738Y-111847619D01*
X141740357Y-111942857D01*
X141787976Y-112133333D01*
X141787976Y-112371428D01*
X141740357Y-112561904D01*
X141692738Y-112657142D01*
X141645119Y-112704761D01*
X141549880Y-112752380D01*
X141454642Y-112752380D01*
X141359404Y-112704761D01*
X141311785Y-112657142D01*
X141264166Y-112561904D01*
X141216547Y-112371428D01*
X141216547Y-112133333D01*
X141264166Y-111942857D01*
X141311785Y-111847619D01*
X141359404Y-111800000D01*
X141454642Y-111752380D01*
X142216547Y-112657142D02*
X142264166Y-112704761D01*
X142216547Y-112752380D01*
X142168928Y-112704761D01*
X142216547Y-112657142D01*
X142216547Y-112752380D01*
X142597500Y-111752380D02*
X143216547Y-111752380D01*
X142883214Y-112133333D01*
X143026071Y-112133333D01*
X143121309Y-112180952D01*
X143168928Y-112228571D01*
X143216547Y-112323809D01*
X143216547Y-112561904D01*
X143168928Y-112657142D01*
X143121309Y-112704761D01*
X143026071Y-112752380D01*
X142740357Y-112752380D01*
X142645119Y-112704761D01*
X142597500Y-112657142D01*
X143645119Y-112657142D02*
X143692738Y-112704761D01*
X143645119Y-112752380D01*
X143597500Y-112704761D01*
X143645119Y-112657142D01*
X143645119Y-112752380D01*
X144311785Y-111752380D02*
X144407023Y-111752380D01*
X144502261Y-111800000D01*
X144549880Y-111847619D01*
X144597500Y-111942857D01*
X144645119Y-112133333D01*
X144645119Y-112371428D01*
X144597500Y-112561904D01*
X144549880Y-112657142D01*
X144502261Y-112704761D01*
X144407023Y-112752380D01*
X144311785Y-112752380D01*
X144216547Y-112704761D01*
X144168928Y-112657142D01*
X144121309Y-112561904D01*
X144073690Y-112371428D01*
X144073690Y-112133333D01*
X144121309Y-111942857D01*
X144168928Y-111847619D01*
X144216547Y-111800000D01*
X144311785Y-111752380D01*
X145787976Y-112704761D02*
X145883214Y-112752380D01*
X146073690Y-112752380D01*
X146168928Y-112704761D01*
X146216547Y-112609523D01*
X146216547Y-112561904D01*
X146168928Y-112466666D01*
X146073690Y-112419047D01*
X145930833Y-112419047D01*
X145835595Y-112371428D01*
X145787976Y-112276190D01*
X145787976Y-112228571D01*
X145835595Y-112133333D01*
X145930833Y-112085714D01*
X146073690Y-112085714D01*
X146168928Y-112133333D01*
X146502261Y-112085714D02*
X146883214Y-112085714D01*
X146645119Y-111752380D02*
X146645119Y-112609523D01*
X146692738Y-112704761D01*
X146787976Y-112752380D01*
X146883214Y-112752380D01*
X147645119Y-112752380D02*
X147645119Y-112228571D01*
X147597500Y-112133333D01*
X147502261Y-112085714D01*
X147311785Y-112085714D01*
X147216547Y-112133333D01*
X147645119Y-112704761D02*
X147549880Y-112752380D01*
X147311785Y-112752380D01*
X147216547Y-112704761D01*
X147168928Y-112609523D01*
X147168928Y-112514285D01*
X147216547Y-112419047D01*
X147311785Y-112371428D01*
X147549880Y-112371428D01*
X147645119Y-112323809D01*
X148121309Y-112085714D02*
X148121309Y-112752380D01*
X148121309Y-112180952D02*
X148168928Y-112133333D01*
X148264166Y-112085714D01*
X148407023Y-112085714D01*
X148502261Y-112133333D01*
X148549880Y-112228571D01*
X148549880Y-112752380D01*
X149454642Y-112752380D02*
X149454642Y-111752380D01*
X149454642Y-112704761D02*
X149359404Y-112752380D01*
X149168928Y-112752380D01*
X149073690Y-112704761D01*
X149026071Y-112657142D01*
X148978452Y-112561904D01*
X148978452Y-112276190D01*
X149026071Y-112180952D01*
X149073690Y-112133333D01*
X149168928Y-112085714D01*
X149359404Y-112085714D01*
X149454642Y-112133333D01*
X150359404Y-112752380D02*
X150359404Y-112228571D01*
X150311785Y-112133333D01*
X150216547Y-112085714D01*
X150026071Y-112085714D01*
X149930833Y-112133333D01*
X150359404Y-112704761D02*
X150264166Y-112752380D01*
X150026071Y-112752380D01*
X149930833Y-112704761D01*
X149883214Y-112609523D01*
X149883214Y-112514285D01*
X149930833Y-112419047D01*
X150026071Y-112371428D01*
X150264166Y-112371428D01*
X150359404Y-112323809D01*
X150835595Y-112752380D02*
X150835595Y-112085714D01*
X150835595Y-112276190D02*
X150883214Y-112180952D01*
X150930833Y-112133333D01*
X151026071Y-112085714D01*
X151121309Y-112085714D01*
X151883214Y-112752380D02*
X151883214Y-111752380D01*
X151883214Y-112704761D02*
X151787976Y-112752380D01*
X151597500Y-112752380D01*
X151502261Y-112704761D01*
X151454642Y-112657142D01*
X151407023Y-112561904D01*
X151407023Y-112276190D01*
X151454642Y-112180952D01*
X151502261Y-112133333D01*
X151597500Y-112085714D01*
X151787976Y-112085714D01*
X151883214Y-112133333D01*
D11*
%TO.C,REF\u002A\u002A*%
X189200000Y-117250000D03*
%TD*%
%TO.C,REF\u002A\u002A*%
X189200000Y-79150000D03*
%TD*%
%TO.C,REF\u002A\u002A*%
X112600000Y-108400000D03*
%TD*%
%TO.C,REF\u002A\u002A*%
X130810000Y-75692000D03*
%TD*%
%TO.C,REF\u002A\u002A*%
X110400000Y-89400000D03*
%TD*%
%TO.C,REF\u002A\u002A*%
X170150000Y-98200000D03*
%TD*%
%TO.C,REF\u002A\u002A*%
X189992000Y-135250000D03*
%TD*%
%TO.C,REF\u002A\u002A*%
X131800000Y-94800000D03*
%TD*%
M02*
