%TF.GenerationSoftware,KiCad,Pcbnew,(6.0.8)*%
%TF.CreationDate,2022-10-28T13:11:56+09:00*%
%TF.ProjectId,selen_plate,73656c65-6e5f-4706-9c61-74652e6b6963,rev?*%
%TF.SameCoordinates,Original*%
%TF.FileFunction,Legend,Top*%
%TF.FilePolarity,Positive*%
%FSLAX46Y46*%
G04 Gerber Fmt 4.6, Leading zero omitted, Abs format (unit mm)*
G04 Created by KiCad (PCBNEW (6.0.8)) date 2022-10-28 13:11:56*
%MOMM*%
%LPD*%
G01*
G04 APERTURE LIST*
%ADD10C,0.150000*%
G04 APERTURE END LIST*
D10*
X203594976Y-115498571D02*
X203737833Y-115546190D01*
X203785452Y-115593809D01*
X203833071Y-115689047D01*
X203833071Y-115831904D01*
X203785452Y-115927142D01*
X203737833Y-115974761D01*
X203642595Y-116022380D01*
X203261642Y-116022380D01*
X203261642Y-115022380D01*
X203594976Y-115022380D01*
X203690214Y-115070000D01*
X203737833Y-115117619D01*
X203785452Y-115212857D01*
X203785452Y-115308095D01*
X203737833Y-115403333D01*
X203690214Y-115450952D01*
X203594976Y-115498571D01*
X203261642Y-115498571D01*
X204404500Y-116022380D02*
X204309261Y-115974761D01*
X204261642Y-115927142D01*
X204214023Y-115831904D01*
X204214023Y-115546190D01*
X204261642Y-115450952D01*
X204309261Y-115403333D01*
X204404500Y-115355714D01*
X204547357Y-115355714D01*
X204642595Y-115403333D01*
X204690214Y-115450952D01*
X204737833Y-115546190D01*
X204737833Y-115831904D01*
X204690214Y-115927142D01*
X204642595Y-115974761D01*
X204547357Y-116022380D01*
X204404500Y-116022380D01*
X205309261Y-116022380D02*
X205214023Y-115974761D01*
X205166404Y-115927142D01*
X205118785Y-115831904D01*
X205118785Y-115546190D01*
X205166404Y-115450952D01*
X205214023Y-115403333D01*
X205309261Y-115355714D01*
X205452119Y-115355714D01*
X205547357Y-115403333D01*
X205594976Y-115450952D01*
X205642595Y-115546190D01*
X205642595Y-115831904D01*
X205594976Y-115927142D01*
X205547357Y-115974761D01*
X205452119Y-116022380D01*
X205309261Y-116022380D01*
X205928309Y-115355714D02*
X206309261Y-115355714D01*
X206071166Y-115022380D02*
X206071166Y-115879523D01*
X206118785Y-115974761D01*
X206214023Y-116022380D01*
X206309261Y-116022380D01*
X195725023Y-116022380D02*
X195391690Y-115546190D01*
X195153595Y-116022380D02*
X195153595Y-115022380D01*
X195534547Y-115022380D01*
X195629785Y-115070000D01*
X195677404Y-115117619D01*
X195725023Y-115212857D01*
X195725023Y-115355714D01*
X195677404Y-115450952D01*
X195629785Y-115498571D01*
X195534547Y-115546190D01*
X195153595Y-115546190D01*
X196534547Y-115974761D02*
X196439309Y-116022380D01*
X196248833Y-116022380D01*
X196153595Y-115974761D01*
X196105976Y-115879523D01*
X196105976Y-115498571D01*
X196153595Y-115403333D01*
X196248833Y-115355714D01*
X196439309Y-115355714D01*
X196534547Y-115403333D01*
X196582166Y-115498571D01*
X196582166Y-115593809D01*
X196105976Y-115689047D01*
X196963119Y-115974761D02*
X197058357Y-116022380D01*
X197248833Y-116022380D01*
X197344071Y-115974761D01*
X197391690Y-115879523D01*
X197391690Y-115831904D01*
X197344071Y-115736666D01*
X197248833Y-115689047D01*
X197105976Y-115689047D01*
X197010738Y-115641428D01*
X196963119Y-115546190D01*
X196963119Y-115498571D01*
X197010738Y-115403333D01*
X197105976Y-115355714D01*
X197248833Y-115355714D01*
X197344071Y-115403333D01*
X198201214Y-115974761D02*
X198105976Y-116022380D01*
X197915500Y-116022380D01*
X197820261Y-115974761D01*
X197772642Y-115879523D01*
X197772642Y-115498571D01*
X197820261Y-115403333D01*
X197915500Y-115355714D01*
X198105976Y-115355714D01*
X198201214Y-115403333D01*
X198248833Y-115498571D01*
X198248833Y-115593809D01*
X197772642Y-115689047D01*
X198534547Y-115355714D02*
X198915500Y-115355714D01*
X198677404Y-115022380D02*
X198677404Y-115879523D01*
X198725023Y-115974761D01*
X198820261Y-116022380D01*
X198915500Y-116022380D01*
M02*
