M48
; DRILL file {KiCad (6.0.7)} date 2022年09月04日 11時35分20秒
; FORMAT={-:-/ absolute / inch / decimal}
; #@! TF.CreationDate,2022-09-04T11:35:20+09:00
; #@! TF.GenerationSoftware,Kicad,Pcbnew,(6.0.7)
; #@! TF.FileFunction,NonPlated,1,2,NPTH
FMAT,2
INCH
; #@! TA.AperFunction,NonPlated,NPTH,ComponentDrill
T1C0.0472
; #@! TA.AperFunction,NonPlated,NPTH,ComponentDrill
T2C0.0669
; #@! TA.AperFunction,NonPlated,NPTH,ComponentDrill
T3C0.0748
; #@! TA.AperFunction,NonPlated,NPTH,ComponentDrill
T4C0.1181
; #@! TA.AperFunction,NonPlated,NPTH,ComponentDrill
T5C0.1260
; #@! TA.AperFunction,NonPlated,NPTH,ComponentDrill
T6C0.1575
%
G90
G05
T1
X8.0112Y-4.7293
X8.0112Y-4.7982
X8.2868Y-4.7293
X8.2868Y-4.7982
T2
X3.75Y-3.1875
X3.8312Y-3.9375
X3.925Y-4.6937
X4.15Y-3.1875
X4.2313Y-3.9375
X4.325Y-4.6937
X4.4875Y-2.775
X4.5812Y-3.525
X4.675Y-4.275
X4.8875Y-2.775
X4.9813Y-3.525
X5.075Y-4.275
X5.425Y-2.5312
X5.425Y-3.2812
X5.425Y-4.0312
X5.825Y-2.5312
X5.825Y-3.2812
X5.825Y-4.0312
X6.1625Y-2.7188
X6.1625Y-3.4688
X6.1625Y-4.2188
X6.5625Y-2.7188
X6.5625Y-3.4688
X6.5625Y-4.2188
X6.5956Y-5.2191
X6.9Y-2.9062
X6.9Y-3.6562
X6.9Y-4.4
X6.9934Y-5.2609
X7.3Y-2.9062
X7.3Y-3.6562
X7.3Y-4.4
X7.503Y-5.3757
X7.8834Y-5.4993
T3
X3.7335Y-3.1875
X3.8147Y-3.9375
X3.9085Y-4.6937
X4.1665Y-3.1875
X4.2478Y-3.9375
X4.3415Y-4.6937
X4.471Y-2.775
X4.5647Y-3.525
X4.6585Y-4.275
X4.904Y-2.775
X4.9978Y-3.525
X5.0915Y-4.275
X5.4085Y-2.5312
X5.4085Y-3.2812
X5.4085Y-4.0312
X5.8415Y-2.5312
X5.8415Y-3.2812
X5.8415Y-4.0312
X6.146Y-2.7188
X6.146Y-3.4688
X6.146Y-4.2188
X6.579Y-2.7188
X6.579Y-3.4688
X6.579Y-4.2188
X6.5792Y-5.2174
X6.8835Y-2.9062
X6.8835Y-3.6562
X6.8835Y-4.4
X7.0099Y-5.2627
X7.3165Y-2.9062
X7.3165Y-3.6562
X7.3165Y-4.4
X7.4872Y-5.3706
X7.8991Y-5.5044
T4
X3.7531Y-3.0418
X3.8Y-3.2875
X3.8344Y-3.7918
X3.85Y-3.3875
X3.8813Y-4.0375
X3.9281Y-4.5481
X3.9312Y-4.1375
X3.95Y-2.9552
X3.975Y-4.7938
X4.025Y-4.8937
X4.0312Y-3.7052
X4.05Y-3.3875
X4.1Y-3.2875
X4.125Y-4.4615
X4.1312Y-4.1375
X4.1469Y-3.0418
X4.1812Y-4.0375
X4.225Y-4.8937
X4.2281Y-3.7918
X4.275Y-4.7938
X4.3219Y-4.5481
X4.4906Y-2.6293
X4.5375Y-2.875
X4.5844Y-3.3793
X4.5875Y-2.975
X4.6312Y-3.625
X4.6781Y-4.1293
X4.6812Y-3.725
X4.6875Y-2.5427
X4.725Y-4.375
X4.775Y-4.475
X4.7812Y-3.2927
X4.7875Y-2.975
X4.8375Y-2.875
X4.875Y-4.0427
X4.8812Y-3.725
X4.8844Y-2.6293
X4.9312Y-3.625
X4.975Y-4.475
X4.9781Y-3.3793
X5.025Y-4.375
X5.0719Y-4.1293
X5.4281Y-2.3856
X5.4281Y-3.1356
X5.4281Y-3.8856
X5.475Y-2.6313
X5.475Y-3.3813
X5.475Y-4.1312
X5.525Y-2.7312
X5.525Y-3.4812
X5.525Y-4.2313
X5.625Y-2.299
X5.625Y-3.049
X5.625Y-3.799
X5.725Y-2.7312
X5.725Y-3.4812
X5.725Y-4.2313
X5.775Y-2.6313
X5.775Y-3.3813
X5.775Y-4.1312
X5.8219Y-2.3856
X5.8219Y-3.1356
X5.8219Y-3.8856
X6.1656Y-2.5731
X6.1656Y-3.3231
X6.1656Y-4.0731
X6.2125Y-2.8188
X6.2125Y-3.5688
X6.2125Y-4.3187
X6.2625Y-2.9187
X6.2625Y-3.6687
X6.2625Y-4.4188
X6.3625Y-2.4865
X6.3625Y-3.2365
X6.3625Y-3.9865
X6.4625Y-2.9187
X6.4625Y-3.6687
X6.4625Y-4.4188
X6.5125Y-2.8188
X6.5125Y-3.5688
X6.5125Y-4.3187
X6.5594Y-2.5731
X6.5594Y-3.3231
X6.5594Y-4.0731
X6.614Y-5.0746
X6.6349Y-5.3238
X6.6742Y-5.4285
X6.8188Y-5.009
X6.8731Y-5.4494
X6.9031Y-2.7606
X6.9031Y-3.5106
X6.9031Y-4.2543
X6.9333Y-5.3552
X6.95Y-3.0063
X6.95Y-3.7563
X6.95Y-4.5
X7.0Y-3.1062
X7.0Y-3.8562
X7.0Y-4.6
X7.0055Y-5.1157
X7.1Y-2.674
X7.1Y-3.424
X7.1Y-4.1677
X7.2Y-3.1062
X7.2Y-3.8562
X7.2Y-4.6
X7.25Y-3.0063
X7.25Y-3.7563
X7.25Y-4.5
X7.2969Y-2.7606
X7.2969Y-3.5106
X7.2969Y-4.2543
X7.5196Y-5.4863
X7.5363Y-5.5968
X7.551Y-5.2381
X7.7265Y-5.6586
X7.765Y-5.2166
X7.8049Y-5.579
X7.9254Y-5.3598
T5
X4.3012Y-3.5531
X4.3012Y-3.5531
X4.3898Y-4.311
X4.3898Y-4.311
X5.15Y-2.98
X5.15Y-2.98
X5.189Y-3.7323
X5.189Y-3.7323
X6.6043Y-3.8583
X6.6043Y-3.8583
X6.622Y-3.1024
X6.622Y-3.1024
X7.2441Y-5.3248
X7.2441Y-5.3248
X7.4803Y-4.7244
X7.4803Y-4.7244
T6
X3.95Y-3.1875
X4.0312Y-3.9375
X4.125Y-4.6937
X4.6875Y-2.775
X4.7812Y-3.525
X4.875Y-4.275
X5.625Y-2.5312
X5.625Y-3.2812
X5.625Y-4.0312
X6.3625Y-2.7188
X6.3625Y-3.4688
X6.3625Y-4.2188
X6.7945Y-5.24
X7.1Y-2.9062
X7.1Y-3.6562
X7.1Y-4.4
X7.6932Y-5.4375
T0
M30
