M48
; DRILL file {KiCad (6.0.7)} date 2022年09月04日 15時48分11秒
; FORMAT={-:-/ absolute / inch / decimal}
; #@! TF.CreationDate,2022-09-04T15:48:11+09:00
; #@! TF.GenerationSoftware,Kicad,Pcbnew,(6.0.7)
; #@! TF.FileFunction,Plated,1,2,PTH
FMAT,2
INCH
; #@! TA.AperFunction,Plated,PTH,ComponentDrill
T1C0.0118
; #@! TA.AperFunction,Plated,PTH,ViaDrill
T2C0.0157
; #@! TA.AperFunction,Plated,PTH,ComponentDrill
T3C0.0157
; #@! TA.AperFunction,Plated,PTH,ComponentDrill
T4C0.0394
%
G90
G05
T1
X4.3164Y-3.1234
X4.3636Y-3.2927
X4.3902Y-3.1234
X4.3964Y-3.8834
X4.4374Y-3.2927
X4.4436Y-4.0527
X4.4764Y-3.8834
X4.5236Y-4.0527
X4.5236Y-4.5565
X4.5709Y-4.7257
X4.6122Y-4.5565
X4.6594Y-4.7257
X5.2815Y-2.689
X5.2815Y-3.437
X5.2815Y-4.1949
X5.3287Y-2.8583
X5.3287Y-3.6063
X5.3287Y-4.3642
X6.0197Y-2.8858
X6.0197Y-3.6339
X6.0197Y-4.3819
X6.0669Y-3.0551
X6.0669Y-3.8031
X6.0669Y-4.5512
X6.7185Y-4.4606
X6.7657Y-4.6299
X6.8031Y-3.9134
X6.8189Y-3.1811
X6.8504Y-4.0827
X6.8661Y-3.3504
X7.0313Y-5.5627
X7.2069Y-5.5701
X7.2317Y-5.6278
X7.4073Y-5.6352
X7.66Y-3.8263
X7.66Y-3.8755
X7.66Y-3.9247
X7.66Y-3.9739
X7.66Y-4.0231
X7.66Y-4.0723
X7.66Y-4.1216
X7.66Y-4.1708
X7.66Y-4.22
X7.66Y-4.2692
X7.66Y-4.3282
X7.66Y-4.3775
X7.66Y-4.4267
X7.66Y-4.4759
X8.1521Y-3.8263
X8.1521Y-3.8755
X8.1521Y-3.9247
X8.1521Y-3.9739
X8.1521Y-4.0231
X8.1521Y-4.0723
X8.1521Y-4.1216
X8.1521Y-4.1708
X8.1521Y-4.22
X8.1521Y-4.2692
X8.1521Y-4.3282
X8.1521Y-4.3775
X8.1521Y-4.4267
X8.1521Y-4.4759
T2
X3.6713Y-3.2185
X3.7598Y-3.9764
X3.8484Y-4.7244
X3.9961Y-3.029
X4.0748Y-3.779
X4.1732Y-4.5374
X4.2224Y-3.1004
X4.2224Y-3.2283
X4.311Y-3.8475
X4.311Y-3.9764
X4.3996Y-4.6063
X4.3996Y-4.7343
X4.41Y-2.81
X4.5Y-3.56
X4.59Y-4.3
X4.73Y-2.62
X4.83Y-3.37
X4.92Y-4.13
X4.98Y-2.7
X4.98Y-2.8
X5.06Y-3.45
X5.06Y-3.56
X5.14Y-2.77
X5.15Y-4.2
X5.15Y-4.31
X5.3543Y-2.5689
X5.3543Y-3.3169
X5.3543Y-4.065
X5.6693Y-3.878
X5.6735Y-2.3799
X5.689Y-3.1228
X5.8957Y-2.4409
X5.8957Y-2.5689
X5.8957Y-3.189
X5.8957Y-3.3169
X5.8957Y-3.9469
X5.8957Y-4.0748
X6.0827Y-2.7461
X6.0827Y-3.5039
X6.0827Y-4.252
X6.4117Y-3.3174
X6.4173Y-2.5603
X6.4272Y-4.0603
X6.5254Y-5.2561
X6.6339Y-2.628
X6.6339Y-2.7559
X6.6339Y-3.376
X6.6339Y-3.5138
X6.6339Y-4.1339
X6.6339Y-4.252
X6.7717Y-4.1496
X6.8209Y-2.9429
X6.8209Y-3.6909
X6.8209Y-4.4291
X6.8307Y-5.0984
X7.0315Y-3.2283
X7.0866Y-5.1772
X7.0866Y-5.3051
X7.126Y-4.7441
X7.1457Y-2.7559
X7.1457Y-4.2421
X7.1654Y-3.5039
X7.2835Y-4.8031
X7.3469Y-4.157
X7.3707Y-3.4646
X7.372Y-2.815
X7.372Y-2.9429
X7.372Y-3.6909
X7.372Y-4.311
X7.372Y-4.439
X7.4217Y-5.3843
X7.43Y-2.64
X7.6548Y-4.9973
X7.811Y-5.2953
X7.8819Y-4.5551
X7.938Y-5.5566
X7.9768Y-4.5551
X8.002Y-5.4528
X8.0079Y-4.5
X8.0276Y-3.8583
X8.0413Y-4.9803
X8.2087Y-4.9803
T3
X7.8096Y-3.9641
X7.8096Y-4.0428
X7.8096Y-4.1216
X7.8096Y-4.2003
X7.8096Y-4.279
X7.8096Y-4.3578
X7.8096Y-4.4365
X7.998Y-3.9641
X7.998Y-4.0428
X7.998Y-4.1216
X7.998Y-4.2003
X7.998Y-4.279
X7.998Y-4.3578
X7.998Y-4.4365
T4
G00X7.8911Y-4.7156
M15
G01X7.8714Y-4.7156
M16
G05
G00X7.8911Y-4.812
M15
G01X7.8714Y-4.812
M16
G05
G00X7.9502Y-4.6467
M15
G01X7.9305Y-4.6467
M16
G05
G00X7.9502Y-4.8809
M15
G01X7.9305Y-4.8809
M16
G05
G00X8.1076Y-4.6467
M15
G01X8.088Y-4.6467
M16
G05
G00X8.1076Y-4.8809
M15
G01X8.088Y-4.8809
M16
G05
G00X8.2257Y-4.6467
M15
G01X8.2061Y-4.6467
M16
G05
G00X8.2257Y-4.8809
M15
G01X8.2061Y-4.8809
M16
G05
T0
M30
