%TF.GenerationSoftware,KiCad,Pcbnew,(6.0.7)*%
%TF.CreationDate,2022-09-04T15:48:05+09:00*%
%TF.ProjectId,selen-full,73656c65-6e2d-4667-956c-6c2e6b696361,rev?*%
%TF.SameCoordinates,Original*%
%TF.FileFunction,Legend,Bot*%
%TF.FilePolarity,Positive*%
%FSLAX46Y46*%
G04 Gerber Fmt 4.6, Leading zero omitted, Abs format (unit mm)*
G04 Created by KiCad (PCBNEW (6.0.7)) date 2022-09-04 15:48:05*
%MOMM*%
%LPD*%
G01*
G04 APERTURE LIST*
%ADD10C,0.150000*%
%ADD11C,0.101600*%
%ADD12C,0.076200*%
%ADD13C,0.120000*%
%ADD14C,0.127000*%
%ADD15C,0.066040*%
%ADD16C,0.254000*%
G04 APERTURE END LIST*
D10*
%TO.C,D9*%
X151952380Y-93961904D02*
X150952380Y-93961904D01*
X150952380Y-94200000D01*
X151000000Y-94342857D01*
X151095238Y-94438095D01*
X151190476Y-94485714D01*
X151380952Y-94533333D01*
X151523809Y-94533333D01*
X151714285Y-94485714D01*
X151809523Y-94438095D01*
X151904761Y-94342857D01*
X151952380Y-94200000D01*
X151952380Y-93961904D01*
X151952380Y-95009523D02*
X151952380Y-95200000D01*
X151904761Y-95295238D01*
X151857142Y-95342857D01*
X151714285Y-95438095D01*
X151523809Y-95485714D01*
X151142857Y-95485714D01*
X151047619Y-95438095D01*
X151000000Y-95390476D01*
X150952380Y-95295238D01*
X150952380Y-95104761D01*
X151000000Y-95009523D01*
X151047619Y-94961904D01*
X151142857Y-94914285D01*
X151380952Y-94914285D01*
X151476190Y-94961904D01*
X151523809Y-95009523D01*
X151571428Y-95104761D01*
X151571428Y-95295238D01*
X151523809Y-95390476D01*
X151476190Y-95438095D01*
X151380952Y-95485714D01*
%TO.C,D4*%
X151952380Y-74961904D02*
X150952380Y-74961904D01*
X150952380Y-75200000D01*
X151000000Y-75342857D01*
X151095238Y-75438095D01*
X151190476Y-75485714D01*
X151380952Y-75533333D01*
X151523809Y-75533333D01*
X151714285Y-75485714D01*
X151809523Y-75438095D01*
X151904761Y-75342857D01*
X151952380Y-75200000D01*
X151952380Y-74961904D01*
X151285714Y-76390476D02*
X151952380Y-76390476D01*
X150904761Y-76152380D02*
X151619047Y-75914285D01*
X151619047Y-76533333D01*
%TO.C,D12*%
X120152380Y-116719714D02*
X119152380Y-116719714D01*
X119152380Y-116957809D01*
X119200000Y-117100666D01*
X119295238Y-117195904D01*
X119390476Y-117243523D01*
X119580952Y-117291142D01*
X119723809Y-117291142D01*
X119914285Y-117243523D01*
X120009523Y-117195904D01*
X120104761Y-117100666D01*
X120152380Y-116957809D01*
X120152380Y-116719714D01*
X120152380Y-118243523D02*
X120152380Y-117672095D01*
X120152380Y-117957809D02*
X119152380Y-117957809D01*
X119295238Y-117862571D01*
X119390476Y-117767333D01*
X119438095Y-117672095D01*
X119247619Y-118624476D02*
X119200000Y-118672095D01*
X119152380Y-118767333D01*
X119152380Y-119005428D01*
X119200000Y-119100666D01*
X119247619Y-119148285D01*
X119342857Y-119195904D01*
X119438095Y-119195904D01*
X119580952Y-119148285D01*
X120152380Y-118576857D01*
X120152380Y-119195904D01*
%TO.C,D17*%
X185279558Y-140255938D02*
X184970541Y-141206994D01*
X185196983Y-141280570D01*
X185347563Y-141279427D01*
X185467570Y-141218280D01*
X185542289Y-141142418D01*
X185646437Y-140975980D01*
X185690583Y-140840115D01*
X185704155Y-140644246D01*
X185688296Y-140538954D01*
X185627150Y-140418947D01*
X185506000Y-140329513D01*
X185279558Y-140255938D01*
X186728787Y-140726821D02*
X186185326Y-140550240D01*
X186457056Y-140638530D02*
X186148039Y-141589587D01*
X186101608Y-141424291D01*
X186040461Y-141304284D01*
X185964599Y-141229566D01*
X186736788Y-141780883D02*
X187370826Y-141986894D01*
X187272247Y-140903402D01*
%TO.C,D15*%
X169702380Y-114485714D02*
X168702380Y-114485714D01*
X168702380Y-114723809D01*
X168750000Y-114866666D01*
X168845238Y-114961904D01*
X168940476Y-115009523D01*
X169130952Y-115057142D01*
X169273809Y-115057142D01*
X169464285Y-115009523D01*
X169559523Y-114961904D01*
X169654761Y-114866666D01*
X169702380Y-114723809D01*
X169702380Y-114485714D01*
X169702380Y-116009523D02*
X169702380Y-115438095D01*
X169702380Y-115723809D02*
X168702380Y-115723809D01*
X168845238Y-115628571D01*
X168940476Y-115533333D01*
X168988095Y-115438095D01*
X168702380Y-116914285D02*
X168702380Y-116438095D01*
X169178571Y-116390476D01*
X169130952Y-116438095D01*
X169083333Y-116533333D01*
X169083333Y-116771428D01*
X169130952Y-116866666D01*
X169178571Y-116914285D01*
X169273809Y-116961904D01*
X169511904Y-116961904D01*
X169607142Y-116914285D01*
X169654761Y-116866666D01*
X169702380Y-116771428D01*
X169702380Y-116533333D01*
X169654761Y-116438095D01*
X169607142Y-116390476D01*
%TO.C,D8*%
X133202380Y-88961904D02*
X132202380Y-88961904D01*
X132202380Y-89200000D01*
X132250000Y-89342857D01*
X132345238Y-89438095D01*
X132440476Y-89485714D01*
X132630952Y-89533333D01*
X132773809Y-89533333D01*
X132964285Y-89485714D01*
X133059523Y-89438095D01*
X133154761Y-89342857D01*
X133202380Y-89200000D01*
X133202380Y-88961904D01*
X132630952Y-90104761D02*
X132583333Y-90009523D01*
X132535714Y-89961904D01*
X132440476Y-89914285D01*
X132392857Y-89914285D01*
X132297619Y-89961904D01*
X132250000Y-90009523D01*
X132202380Y-90104761D01*
X132202380Y-90295238D01*
X132250000Y-90390476D01*
X132297619Y-90438095D01*
X132392857Y-90485714D01*
X132440476Y-90485714D01*
X132535714Y-90438095D01*
X132583333Y-90390476D01*
X132630952Y-90295238D01*
X132630952Y-90104761D01*
X132678571Y-90009523D01*
X132726190Y-89961904D01*
X132821428Y-89914285D01*
X133011904Y-89914285D01*
X133107142Y-89961904D01*
X133154761Y-90009523D01*
X133202380Y-90104761D01*
X133202380Y-90295238D01*
X133154761Y-90390476D01*
X133107142Y-90438095D01*
X133011904Y-90485714D01*
X132821428Y-90485714D01*
X132726190Y-90438095D01*
X132678571Y-90390476D01*
X132630952Y-90295238D01*
%TO.C,D11*%
X114052380Y-115719714D02*
X113052380Y-115719714D01*
X113052380Y-115957809D01*
X113100000Y-116100666D01*
X113195238Y-116195904D01*
X113290476Y-116243523D01*
X113480952Y-116291142D01*
X113623809Y-116291142D01*
X113814285Y-116243523D01*
X113909523Y-116195904D01*
X114004761Y-116100666D01*
X114052380Y-115957809D01*
X114052380Y-115719714D01*
X114052380Y-117243523D02*
X114052380Y-116672095D01*
X114052380Y-116957809D02*
X113052380Y-116957809D01*
X113195238Y-116862571D01*
X113290476Y-116767333D01*
X113338095Y-116672095D01*
X114052380Y-118195904D02*
X114052380Y-117624476D01*
X114052380Y-117910190D02*
X113052380Y-117910190D01*
X113195238Y-117814952D01*
X113290476Y-117719714D01*
X113338095Y-117624476D01*
%TO.C,D3*%
X133202380Y-69961904D02*
X132202380Y-69961904D01*
X132202380Y-70200000D01*
X132250000Y-70342857D01*
X132345238Y-70438095D01*
X132440476Y-70485714D01*
X132630952Y-70533333D01*
X132773809Y-70533333D01*
X132964285Y-70485714D01*
X133059523Y-70438095D01*
X133154761Y-70342857D01*
X133202380Y-70200000D01*
X133202380Y-69961904D01*
X132202380Y-70866666D02*
X132202380Y-71485714D01*
X132583333Y-71152380D01*
X132583333Y-71295238D01*
X132630952Y-71390476D01*
X132678571Y-71438095D01*
X132773809Y-71485714D01*
X133011904Y-71485714D01*
X133107142Y-71438095D01*
X133154761Y-71390476D01*
X133202380Y-71295238D01*
X133202380Y-71009523D01*
X133154761Y-70914285D01*
X133107142Y-70866666D01*
%TO.C,D5*%
X172252380Y-82461904D02*
X171252380Y-82461904D01*
X171252380Y-82700000D01*
X171300000Y-82842857D01*
X171395238Y-82938095D01*
X171490476Y-82985714D01*
X171680952Y-83033333D01*
X171823809Y-83033333D01*
X172014285Y-82985714D01*
X172109523Y-82938095D01*
X172204761Y-82842857D01*
X172252380Y-82700000D01*
X172252380Y-82461904D01*
X171252380Y-83938095D02*
X171252380Y-83461904D01*
X171728571Y-83414285D01*
X171680952Y-83461904D01*
X171633333Y-83557142D01*
X171633333Y-83795238D01*
X171680952Y-83890476D01*
X171728571Y-83938095D01*
X171823809Y-83985714D01*
X172061904Y-83985714D01*
X172157142Y-83938095D01*
X172204761Y-83890476D01*
X172252380Y-83795238D01*
X172252380Y-83557142D01*
X172204761Y-83461904D01*
X172157142Y-83414285D01*
%TO.C,D1*%
X110688380Y-80845904D02*
X109688380Y-80845904D01*
X109688380Y-81084000D01*
X109736000Y-81226857D01*
X109831238Y-81322095D01*
X109926476Y-81369714D01*
X110116952Y-81417333D01*
X110259809Y-81417333D01*
X110450285Y-81369714D01*
X110545523Y-81322095D01*
X110640761Y-81226857D01*
X110688380Y-81084000D01*
X110688380Y-80845904D01*
X110688380Y-82369714D02*
X110688380Y-81798285D01*
X110688380Y-82084000D02*
X109688380Y-82084000D01*
X109831238Y-81988761D01*
X109926476Y-81893523D01*
X109974095Y-81798285D01*
%TO.C,D16*%
X180734939Y-138694525D02*
X180425922Y-139645581D01*
X180652364Y-139719157D01*
X180802944Y-139718014D01*
X180922951Y-139656867D01*
X180997670Y-139581005D01*
X181101818Y-139414567D01*
X181145964Y-139278702D01*
X181159536Y-139082833D01*
X181143677Y-138977541D01*
X181082531Y-138857534D01*
X180961381Y-138768100D01*
X180734939Y-138694525D01*
X182184168Y-139165408D02*
X181640707Y-138988827D01*
X181912437Y-139077117D02*
X181603420Y-140028174D01*
X181556989Y-139862878D01*
X181495842Y-139742871D01*
X181419980Y-139668153D01*
X182690342Y-140381336D02*
X182509188Y-140322476D01*
X182433327Y-140247757D01*
X182402753Y-140187754D01*
X182356322Y-140022458D01*
X182369894Y-139826589D01*
X182487614Y-139464282D01*
X182562333Y-139388420D01*
X182622336Y-139357847D01*
X182727628Y-139341989D01*
X182908782Y-139400849D01*
X182984644Y-139475568D01*
X183015217Y-139535571D01*
X183031075Y-139640863D01*
X182957500Y-139867305D01*
X182882781Y-139943167D01*
X182822778Y-139973740D01*
X182717486Y-139989599D01*
X182536332Y-139930738D01*
X182460470Y-139856020D01*
X182429897Y-139796016D01*
X182414039Y-139690724D01*
%TO.C,D13*%
X133202380Y-107735714D02*
X132202380Y-107735714D01*
X132202380Y-107973809D01*
X132250000Y-108116666D01*
X132345238Y-108211904D01*
X132440476Y-108259523D01*
X132630952Y-108307142D01*
X132773809Y-108307142D01*
X132964285Y-108259523D01*
X133059523Y-108211904D01*
X133154761Y-108116666D01*
X133202380Y-107973809D01*
X133202380Y-107735714D01*
X133202380Y-109259523D02*
X133202380Y-108688095D01*
X133202380Y-108973809D02*
X132202380Y-108973809D01*
X132345238Y-108878571D01*
X132440476Y-108783333D01*
X132488095Y-108688095D01*
X132202380Y-109592857D02*
X132202380Y-110211904D01*
X132583333Y-109878571D01*
X132583333Y-110021428D01*
X132630952Y-110116666D01*
X132678571Y-110164285D01*
X132773809Y-110211904D01*
X133011904Y-110211904D01*
X133107142Y-110164285D01*
X133154761Y-110116666D01*
X133202380Y-110021428D01*
X133202380Y-109735714D01*
X133154761Y-109640476D01*
X133107142Y-109592857D01*
%TO.C,D10*%
X171852380Y-100585714D02*
X170852380Y-100585714D01*
X170852380Y-100823809D01*
X170900000Y-100966666D01*
X170995238Y-101061904D01*
X171090476Y-101109523D01*
X171280952Y-101157142D01*
X171423809Y-101157142D01*
X171614285Y-101109523D01*
X171709523Y-101061904D01*
X171804761Y-100966666D01*
X171852380Y-100823809D01*
X171852380Y-100585714D01*
X171852380Y-102109523D02*
X171852380Y-101538095D01*
X171852380Y-101823809D02*
X170852380Y-101823809D01*
X170995238Y-101728571D01*
X171090476Y-101633333D01*
X171138095Y-101538095D01*
X170852380Y-102728571D02*
X170852380Y-102823809D01*
X170900000Y-102919047D01*
X170947619Y-102966666D01*
X171042857Y-103014285D01*
X171233333Y-103061904D01*
X171471428Y-103061904D01*
X171661904Y-103014285D01*
X171757142Y-102966666D01*
X171804761Y-102919047D01*
X171852380Y-102823809D01*
X171852380Y-102728571D01*
X171804761Y-102633333D01*
X171757142Y-102585714D01*
X171661904Y-102538095D01*
X171471428Y-102490476D01*
X171233333Y-102490476D01*
X171042857Y-102538095D01*
X170947619Y-102585714D01*
X170900000Y-102633333D01*
X170852380Y-102728571D01*
%TO.C,D14*%
X151952380Y-112485714D02*
X150952380Y-112485714D01*
X150952380Y-112723809D01*
X151000000Y-112866666D01*
X151095238Y-112961904D01*
X151190476Y-113009523D01*
X151380952Y-113057142D01*
X151523809Y-113057142D01*
X151714285Y-113009523D01*
X151809523Y-112961904D01*
X151904761Y-112866666D01*
X151952380Y-112723809D01*
X151952380Y-112485714D01*
X151952380Y-114009523D02*
X151952380Y-113438095D01*
X151952380Y-113723809D02*
X150952380Y-113723809D01*
X151095238Y-113628571D01*
X151190476Y-113533333D01*
X151238095Y-113438095D01*
X151285714Y-114866666D02*
X151952380Y-114866666D01*
X150904761Y-114628571D02*
X151619047Y-114390476D01*
X151619047Y-115009523D01*
%TO.C,J1*%
X205022880Y-119287595D02*
X205022880Y-119859023D01*
X206022880Y-119573309D02*
X205022880Y-119573309D01*
X206022880Y-120763785D02*
X205546690Y-120430452D01*
X206022880Y-120192357D02*
X205022880Y-120192357D01*
X205022880Y-120573309D01*
X205070500Y-120668547D01*
X205118119Y-120716166D01*
X205213357Y-120763785D01*
X205356214Y-120763785D01*
X205451452Y-120716166D01*
X205499071Y-120668547D01*
X205546690Y-120573309D01*
X205546690Y-120192357D01*
X206022880Y-121763785D02*
X205546690Y-121430452D01*
X206022880Y-121192357D02*
X205022880Y-121192357D01*
X205022880Y-121573309D01*
X205070500Y-121668547D01*
X205118119Y-121716166D01*
X205213357Y-121763785D01*
X205356214Y-121763785D01*
X205451452Y-121716166D01*
X205499071Y-121668547D01*
X205546690Y-121573309D01*
X205546690Y-121192357D01*
X205975261Y-122144738D02*
X206022880Y-122287595D01*
X206022880Y-122525690D01*
X205975261Y-122620928D01*
X205927642Y-122668547D01*
X205832404Y-122716166D01*
X205737166Y-122716166D01*
X205641928Y-122668547D01*
X205594309Y-122620928D01*
X205546690Y-122525690D01*
X205499071Y-122335214D01*
X205451452Y-122239976D01*
X205403833Y-122192357D01*
X205308595Y-122144738D01*
X205213357Y-122144738D01*
X205118119Y-122192357D01*
X205070500Y-122239976D01*
X205022880Y-122335214D01*
X205022880Y-122573309D01*
X205070500Y-122716166D01*
%TO.C,D2*%
X112688380Y-80745904D02*
X111688380Y-80745904D01*
X111688380Y-80984000D01*
X111736000Y-81126857D01*
X111831238Y-81222095D01*
X111926476Y-81269714D01*
X112116952Y-81317333D01*
X112259809Y-81317333D01*
X112450285Y-81269714D01*
X112545523Y-81222095D01*
X112640761Y-81126857D01*
X112688380Y-80984000D01*
X112688380Y-80745904D01*
X111783619Y-81698285D02*
X111736000Y-81745904D01*
X111688380Y-81841142D01*
X111688380Y-82079238D01*
X111736000Y-82174476D01*
X111783619Y-82222095D01*
X111878857Y-82269714D01*
X111974095Y-82269714D01*
X112116952Y-82222095D01*
X112688380Y-81650666D01*
X112688380Y-82269714D01*
%TO.C,D7*%
X115027380Y-100149904D02*
X114027380Y-100149904D01*
X114027380Y-100388000D01*
X114075000Y-100530857D01*
X114170238Y-100626095D01*
X114265476Y-100673714D01*
X114455952Y-100721333D01*
X114598809Y-100721333D01*
X114789285Y-100673714D01*
X114884523Y-100626095D01*
X114979761Y-100530857D01*
X115027380Y-100388000D01*
X115027380Y-100149904D01*
X114027380Y-101054666D02*
X114027380Y-101721333D01*
X115027380Y-101292761D01*
D11*
%TO.C,U1*%
X201181017Y-93581782D02*
X201181017Y-94301449D01*
X201138684Y-94386116D01*
X201096350Y-94428449D01*
X201011684Y-94470782D01*
X200842350Y-94470782D01*
X200757684Y-94428449D01*
X200715350Y-94386116D01*
X200673017Y-94301449D01*
X200673017Y-93581782D01*
X199784017Y-94470782D02*
X200292017Y-94470782D01*
X200038017Y-94470782D02*
X200038017Y-93581782D01*
X200122684Y-93708782D01*
X200207350Y-93793449D01*
X200292017Y-93835782D01*
D12*
X204025212Y-104720287D02*
X203618812Y-105329887D01*
X203618812Y-104720287D02*
X204025212Y-105329887D01*
X203386584Y-105329887D02*
X203386584Y-104720287D01*
X203125326Y-105155716D02*
X202835041Y-105155716D01*
X203183384Y-105329887D02*
X202980184Y-104720287D01*
X202776984Y-105329887D01*
X202457669Y-104720287D02*
X202341555Y-104720287D01*
X202283498Y-104749316D01*
X202225441Y-104807373D01*
X202196412Y-104923487D01*
X202196412Y-105126687D01*
X202225441Y-105242801D01*
X202283498Y-105300858D01*
X202341555Y-105329887D01*
X202457669Y-105329887D01*
X202515726Y-105300858D01*
X202573784Y-105242801D01*
X202602812Y-105126687D01*
X202602812Y-104923487D01*
X202573784Y-104807373D01*
X202515726Y-104749316D01*
X202457669Y-104720287D01*
X201935155Y-105097658D02*
X201470698Y-105097658D01*
X200832069Y-105329887D02*
X201035269Y-105039601D01*
X201180412Y-105329887D02*
X201180412Y-104720287D01*
X200948184Y-104720287D01*
X200890126Y-104749316D01*
X200861098Y-104778344D01*
X200832069Y-104836401D01*
X200832069Y-104923487D01*
X200861098Y-104981544D01*
X200890126Y-105010573D01*
X200948184Y-105039601D01*
X201180412Y-105039601D01*
X200570812Y-105329887D02*
X200570812Y-104720287D01*
X200338584Y-104720287D01*
X200280526Y-104749316D01*
X200251498Y-104778344D01*
X200222469Y-104836401D01*
X200222469Y-104923487D01*
X200251498Y-104981544D01*
X200280526Y-105010573D01*
X200338584Y-105039601D01*
X200570812Y-105039601D01*
X199990241Y-104778344D02*
X199961212Y-104749316D01*
X199903155Y-104720287D01*
X199758012Y-104720287D01*
X199699955Y-104749316D01*
X199670926Y-104778344D01*
X199641898Y-104836401D01*
X199641898Y-104894458D01*
X199670926Y-104981544D01*
X200019269Y-105329887D01*
X199641898Y-105329887D01*
X199264526Y-104720287D02*
X199206469Y-104720287D01*
X199148412Y-104749316D01*
X199119384Y-104778344D01*
X199090355Y-104836401D01*
X199061326Y-104952516D01*
X199061326Y-105097658D01*
X199090355Y-105213773D01*
X199119384Y-105271830D01*
X199148412Y-105300858D01*
X199206469Y-105329887D01*
X199264526Y-105329887D01*
X199322584Y-105300858D01*
X199351612Y-105271830D01*
X199380641Y-105213773D01*
X199409669Y-105097658D01*
X199409669Y-104952516D01*
X199380641Y-104836401D01*
X199351612Y-104778344D01*
X199322584Y-104749316D01*
X199264526Y-104720287D01*
X198538812Y-104923487D02*
X198538812Y-105329887D01*
X198683955Y-104691258D02*
X198829098Y-105126687D01*
X198451726Y-105126687D01*
X198103384Y-104720287D02*
X198045326Y-104720287D01*
X197987269Y-104749316D01*
X197958241Y-104778344D01*
X197929212Y-104836401D01*
X197900184Y-104952516D01*
X197900184Y-105097658D01*
X197929212Y-105213773D01*
X197958241Y-105271830D01*
X197987269Y-105300858D01*
X198045326Y-105329887D01*
X198103384Y-105329887D01*
X198161441Y-105300858D01*
X198190469Y-105271830D01*
X198219498Y-105213773D01*
X198248526Y-105097658D01*
X198248526Y-104952516D01*
X198219498Y-104836401D01*
X198190469Y-104778344D01*
X198161441Y-104749316D01*
X198103384Y-104720287D01*
D10*
%TO.C,D6*%
X112720380Y-100149904D02*
X111720380Y-100149904D01*
X111720380Y-100388000D01*
X111768000Y-100530857D01*
X111863238Y-100626095D01*
X111958476Y-100673714D01*
X112148952Y-100721333D01*
X112291809Y-100721333D01*
X112482285Y-100673714D01*
X112577523Y-100626095D01*
X112672761Y-100530857D01*
X112720380Y-100388000D01*
X112720380Y-100149904D01*
X111720380Y-101578476D02*
X111720380Y-101388000D01*
X111768000Y-101292761D01*
X111815619Y-101245142D01*
X111958476Y-101149904D01*
X112148952Y-101102285D01*
X112529904Y-101102285D01*
X112625142Y-101149904D01*
X112672761Y-101197523D01*
X112720380Y-101292761D01*
X112720380Y-101483238D01*
X112672761Y-101578476D01*
X112625142Y-101626095D01*
X112529904Y-101673714D01*
X112291809Y-101673714D01*
X112196571Y-101626095D01*
X112148952Y-101578476D01*
X112101333Y-101483238D01*
X112101333Y-101292761D01*
X112148952Y-101197523D01*
X112196571Y-101149904D01*
X112291809Y-101102285D01*
D13*
%TO.C,D9*%
X154500000Y-96900000D02*
X154500000Y-92850000D01*
X152500000Y-96900000D02*
X152500000Y-92850000D01*
X152500000Y-96900000D02*
X154500000Y-96900000D01*
%TO.C,D4*%
X152500000Y-77900000D02*
X152500000Y-73850000D01*
X154500000Y-77900000D02*
X154500000Y-73850000D01*
X152500000Y-77900000D02*
X154500000Y-77900000D01*
%TO.C,D12*%
X116750000Y-120334000D02*
X116750000Y-116284000D01*
X116750000Y-120334000D02*
X118750000Y-120334000D01*
X118750000Y-120334000D02*
X118750000Y-116284000D01*
%TO.C,D17*%
X183893277Y-141332632D02*
X183275243Y-143234745D01*
X183893277Y-141332632D02*
X187745056Y-142584151D01*
X183275243Y-143234745D02*
X187127022Y-144486264D01*
D10*
%TO.C,SW1*%
X95530000Y-83812500D02*
X100580000Y-83766500D01*
X103830000Y-74937500D02*
X107605000Y-74937500D01*
X98055000Y-77387500D02*
X100605000Y-77387500D01*
X98055000Y-72737500D02*
X102605000Y-72737500D01*
X102610000Y-73462500D02*
X102610000Y-72762500D01*
X102905000Y-79587500D02*
X107605000Y-79587500D01*
X95530000Y-83858500D02*
X95530000Y-87766500D01*
X106430000Y-81858500D02*
X102820000Y-81858500D01*
X106430000Y-85812500D02*
X106430000Y-81867500D01*
X98030000Y-77362500D02*
X98030000Y-72762500D01*
X107605000Y-79562500D02*
X107630000Y-74962500D01*
X95530000Y-87766500D02*
X104155000Y-87766500D01*
X100555000Y-83762500D02*
G75*
G03*
X102815000Y-81882500I190000J2070000D01*
G01*
X102610000Y-73512500D02*
G75*
G03*
X103830000Y-74932500I1320000J-100000D01*
G01*
X102900000Y-79562500D02*
G75*
G03*
X100530000Y-77392500I-2270000J-100000D01*
G01*
X104155000Y-87766500D02*
G75*
G03*
X106419000Y-85882500I190000J2074000D01*
G01*
%TO.C,SW13*%
X148975000Y-107243750D02*
X148975000Y-103298750D01*
X138075000Y-105289750D02*
X138075000Y-109197750D01*
X140575000Y-98793750D02*
X140575000Y-94193750D01*
X148975000Y-103289750D02*
X145365000Y-103289750D01*
X140600000Y-94168750D02*
X145150000Y-94168750D01*
X138075000Y-105243750D02*
X143125000Y-105197750D01*
X150150000Y-100993750D02*
X150175000Y-96393750D01*
X140600000Y-98818750D02*
X143150000Y-98818750D01*
X138075000Y-109197750D02*
X146700000Y-109197750D01*
X146375000Y-96368750D02*
X150150000Y-96368750D01*
X145155000Y-94893750D02*
X145155000Y-94193750D01*
X145450000Y-101018750D02*
X150150000Y-101018750D01*
X143100000Y-105193750D02*
G75*
G03*
X145360000Y-103313750I190000J2070000D01*
G01*
X145155000Y-94943750D02*
G75*
G03*
X146375000Y-96363750I1320000J-100000D01*
G01*
X145445000Y-100993750D02*
G75*
G03*
X143075000Y-98823750I-2270000J-100000D01*
G01*
X146700000Y-109197750D02*
G75*
G03*
X148964000Y-107313750I190000J2074000D01*
G01*
D13*
%TO.C,D15*%
X172250000Y-117900000D02*
X172250000Y-113850000D01*
X170250000Y-117900000D02*
X170250000Y-113850000D01*
X170250000Y-117900000D02*
X172250000Y-117900000D01*
%TO.C,D8*%
X135750000Y-91900000D02*
X135750000Y-87850000D01*
X133750000Y-91900000D02*
X135750000Y-91900000D01*
X133750000Y-91900000D02*
X133750000Y-87850000D01*
D10*
%TO.C,SW7*%
X127543750Y-90431000D02*
X123933750Y-90431000D01*
X119168750Y-81310000D02*
X123718750Y-81310000D01*
X128718750Y-88135000D02*
X128743750Y-83535000D01*
X119168750Y-85960000D02*
X121718750Y-85960000D01*
X127543750Y-94385000D02*
X127543750Y-90440000D01*
X124018750Y-88160000D02*
X128718750Y-88160000D01*
X116643750Y-96339000D02*
X125268750Y-96339000D01*
X124943750Y-83510000D02*
X128718750Y-83510000D01*
X119143750Y-85935000D02*
X119143750Y-81335000D01*
X116643750Y-92431000D02*
X116643750Y-96339000D01*
X123723750Y-82035000D02*
X123723750Y-81335000D01*
X116643750Y-92385000D02*
X121693750Y-92339000D01*
X121668750Y-92335000D02*
G75*
G03*
X123928750Y-90455000I190000J2070000D01*
G01*
X123723750Y-82085000D02*
G75*
G03*
X124943750Y-83505000I1320000J-100000D01*
G01*
X124013750Y-88135000D02*
G75*
G03*
X121643750Y-85965000I-2270000J-100000D01*
G01*
X125268750Y-96339000D02*
G75*
G03*
X127532750Y-94455000I190000J2074000D01*
G01*
D13*
%TO.C,D11*%
X114500000Y-120334000D02*
X114500000Y-116284000D01*
X114500000Y-120334000D02*
X116500000Y-120334000D01*
X116500000Y-120334000D02*
X116500000Y-116284000D01*
D10*
%TO.C,SW6*%
X100093750Y-96412500D02*
X100093750Y-91812500D01*
X108493750Y-104862500D02*
X108493750Y-100917500D01*
X100118750Y-96437500D02*
X102668750Y-96437500D01*
X104968750Y-98637500D02*
X109668750Y-98637500D01*
X100118750Y-91787500D02*
X104668750Y-91787500D01*
X104673750Y-92512500D02*
X104673750Y-91812500D01*
X109668750Y-98612500D02*
X109693750Y-94012500D01*
X97593750Y-102908500D02*
X97593750Y-106816500D01*
X97593750Y-102862500D02*
X102643750Y-102816500D01*
X97593750Y-106816500D02*
X106218750Y-106816500D01*
X105893750Y-93987500D02*
X109668750Y-93987500D01*
X108493750Y-100908500D02*
X104883750Y-100908500D01*
X106218750Y-106816500D02*
G75*
G03*
X108482750Y-104932500I190000J2074000D01*
G01*
X104673750Y-92562500D02*
G75*
G03*
X105893750Y-93982500I1320000J-100000D01*
G01*
X102618750Y-102812500D02*
G75*
G03*
X104878750Y-100932500I190000J2070000D01*
G01*
X104963750Y-98612500D02*
G75*
G03*
X102593750Y-96442500I-2270000J-100000D01*
G01*
%TO.C,SW11*%
X112050000Y-117821250D02*
X112075000Y-113221250D01*
X110875000Y-120117250D02*
X107265000Y-120117250D01*
X107350000Y-117846250D02*
X112050000Y-117846250D01*
X102500000Y-110996250D02*
X107050000Y-110996250D01*
X99975000Y-126025250D02*
X108600000Y-126025250D01*
X102475000Y-115621250D02*
X102475000Y-111021250D01*
X99975000Y-122071250D02*
X105025000Y-122025250D01*
X108275000Y-113196250D02*
X112050000Y-113196250D01*
X110875000Y-124071250D02*
X110875000Y-120126250D01*
X102500000Y-115646250D02*
X105050000Y-115646250D01*
X107055000Y-111721250D02*
X107055000Y-111021250D01*
X99975000Y-122117250D02*
X99975000Y-126025250D01*
X107345000Y-117821250D02*
G75*
G03*
X104975000Y-115651250I-2270000J-100000D01*
G01*
X108600000Y-126025250D02*
G75*
G03*
X110864000Y-124141250I190000J2074000D01*
G01*
X105000000Y-122021250D02*
G75*
G03*
X107260000Y-120141250I190000J2070000D01*
G01*
X107055000Y-111771250D02*
G75*
G03*
X108275000Y-113191250I1320000J-100000D01*
G01*
%TO.C,SW8*%
X140600000Y-75118750D02*
X145150000Y-75118750D01*
X145450000Y-81968750D02*
X150150000Y-81968750D01*
X138075000Y-86193750D02*
X143125000Y-86147750D01*
X138075000Y-86239750D02*
X138075000Y-90147750D01*
X146375000Y-77318750D02*
X150150000Y-77318750D01*
X148975000Y-88193750D02*
X148975000Y-84248750D01*
X145155000Y-75843750D02*
X145155000Y-75143750D01*
X150150000Y-81943750D02*
X150175000Y-77343750D01*
X138075000Y-90147750D02*
X146700000Y-90147750D01*
X140575000Y-79743750D02*
X140575000Y-75143750D01*
X148975000Y-84239750D02*
X145365000Y-84239750D01*
X140600000Y-79768750D02*
X143150000Y-79768750D01*
X146700000Y-90147750D02*
G75*
G03*
X148964000Y-88263750I190000J2074000D01*
G01*
X145155000Y-75893750D02*
G75*
G03*
X146375000Y-77313750I1320000J-100000D01*
G01*
X145445000Y-81943750D02*
G75*
G03*
X143075000Y-79773750I-2270000J-100000D01*
G01*
X143100000Y-86143750D02*
G75*
G03*
X145360000Y-84263750I190000J2070000D01*
G01*
%TO.C,SW10*%
X175540000Y-99672750D02*
X184165000Y-99672750D01*
X178040000Y-89268750D02*
X178040000Y-84668750D01*
X178065000Y-84643750D02*
X182615000Y-84643750D01*
X186440000Y-93764750D02*
X182830000Y-93764750D01*
X182620000Y-85368750D02*
X182620000Y-84668750D01*
X175540000Y-95764750D02*
X175540000Y-99672750D01*
X182915000Y-91493750D02*
X187615000Y-91493750D01*
X187615000Y-91468750D02*
X187640000Y-86868750D01*
X178065000Y-89293750D02*
X180615000Y-89293750D01*
X186440000Y-97718750D02*
X186440000Y-93773750D01*
X183840000Y-86843750D02*
X187615000Y-86843750D01*
X175540000Y-95718750D02*
X180590000Y-95672750D01*
X180565000Y-95668750D02*
G75*
G03*
X182825000Y-93788750I190000J2070000D01*
G01*
X184165000Y-99672750D02*
G75*
G03*
X186429000Y-97788750I190000J2074000D01*
G01*
X182910000Y-91468750D02*
G75*
G03*
X180540000Y-89298750I-2270000J-100000D01*
G01*
X182620000Y-85418750D02*
G75*
G03*
X183840000Y-86838750I1320000J-100000D01*
G01*
%TO.C,SW15*%
X182620000Y-104260000D02*
X182620000Y-103560000D01*
X178065000Y-108185000D02*
X180615000Y-108185000D01*
X178040000Y-108160000D02*
X178040000Y-103560000D01*
X175540000Y-114656000D02*
X175540000Y-118564000D01*
X183840000Y-105735000D02*
X187615000Y-105735000D01*
X186440000Y-112656000D02*
X182830000Y-112656000D01*
X182915000Y-110385000D02*
X187615000Y-110385000D01*
X175540000Y-118564000D02*
X184165000Y-118564000D01*
X187615000Y-110360000D02*
X187640000Y-105760000D01*
X178065000Y-103535000D02*
X182615000Y-103535000D01*
X175540000Y-114610000D02*
X180590000Y-114564000D01*
X186440000Y-116610000D02*
X186440000Y-112665000D01*
X182910000Y-110360000D02*
G75*
G03*
X180540000Y-108190000I-2270000J-100000D01*
G01*
X184165000Y-118564000D02*
G75*
G03*
X186429000Y-116680000I190000J2074000D01*
G01*
X180565000Y-114560000D02*
G75*
G03*
X182825000Y-112680000I190000J2070000D01*
G01*
X182620000Y-104310000D02*
G75*
G03*
X183840000Y-105730000I1320000J-100000D01*
G01*
%TO.C,SW3*%
X140575000Y-60693750D02*
X140575000Y-56093750D01*
X146375000Y-58268750D02*
X150150000Y-58268750D01*
X148975000Y-69143750D02*
X148975000Y-65198750D01*
X140600000Y-56068750D02*
X145150000Y-56068750D01*
X140600000Y-60718750D02*
X143150000Y-60718750D01*
X145155000Y-56793750D02*
X145155000Y-56093750D01*
X138075000Y-67143750D02*
X143125000Y-67097750D01*
X138075000Y-67189750D02*
X138075000Y-71097750D01*
X138075000Y-71097750D02*
X146700000Y-71097750D01*
X148975000Y-65189750D02*
X145365000Y-65189750D01*
X150150000Y-62893750D02*
X150175000Y-58293750D01*
X145450000Y-62918750D02*
X150150000Y-62918750D01*
X143100000Y-67093750D02*
G75*
G03*
X145360000Y-65213750I190000J2070000D01*
G01*
X146700000Y-71097750D02*
G75*
G03*
X148964000Y-69213750I190000J2074000D01*
G01*
X145155000Y-56843750D02*
G75*
G03*
X146375000Y-58263750I1320000J-100000D01*
G01*
X145445000Y-62893750D02*
G75*
G03*
X143075000Y-60723750I-2270000J-100000D01*
G01*
%TO.C,SW16*%
X178554058Y-134625297D02*
X174963834Y-134247949D01*
X167096215Y-139361572D02*
X175673967Y-140263130D01*
X167509521Y-135429233D02*
X172536665Y-135911354D01*
X179962619Y-132464696D02*
X180468313Y-127892508D01*
X167504712Y-135474981D02*
X167096215Y-139361572D01*
X175285753Y-131998275D02*
X179960005Y-132489559D01*
X175632605Y-125875993D02*
X175705775Y-125179827D01*
X176691743Y-127470437D02*
X180446063Y-127865032D01*
X171178341Y-124678837D02*
X175703416Y-125154442D01*
X178140753Y-138557637D02*
X178553117Y-134634248D01*
X170670034Y-129275888D02*
X171150865Y-124701087D01*
X170692284Y-129303364D02*
X173228315Y-129569912D01*
X175673967Y-140263130D02*
G75*
G03*
X178122496Y-138626104I405751J2042778D01*
G01*
X175283393Y-131972889D02*
G75*
G03*
X173153203Y-129567045I-2268017J137827D01*
G01*
X172512220Y-135904762D02*
G75*
G03*
X174956353Y-134271295I405333J2038800D01*
G01*
X175627379Y-125925719D02*
G75*
G03*
X176692265Y-127465465I1302316J-237430D01*
G01*
D13*
%TO.C,D3*%
X133750000Y-72900000D02*
X135750000Y-72900000D01*
X133750000Y-72900000D02*
X133750000Y-68850000D01*
X135750000Y-72900000D02*
X135750000Y-68850000D01*
%TO.C,D5*%
X174800000Y-85400000D02*
X174800000Y-81350000D01*
X172800000Y-85400000D02*
X172800000Y-81350000D01*
X172800000Y-85400000D02*
X174800000Y-85400000D01*
%TO.C,D1*%
X109236000Y-83934000D02*
X109236000Y-79884000D01*
X109236000Y-83934000D02*
X111236000Y-83934000D01*
X111236000Y-83934000D02*
X111236000Y-79884000D01*
D10*
%TO.C,SW2*%
X121342500Y-62985000D02*
X121342500Y-62285000D01*
X116787500Y-62260000D02*
X121337500Y-62260000D01*
X114262500Y-73335000D02*
X119312500Y-73289000D01*
X125162500Y-75335000D02*
X125162500Y-71390000D01*
X122562500Y-64460000D02*
X126337500Y-64460000D01*
X114262500Y-77289000D02*
X122887500Y-77289000D01*
X116787500Y-66910000D02*
X119337500Y-66910000D01*
X121637500Y-69110000D02*
X126337500Y-69110000D01*
X114262500Y-73381000D02*
X114262500Y-77289000D01*
X125162500Y-71381000D02*
X121552500Y-71381000D01*
X126337500Y-69085000D02*
X126362500Y-64485000D01*
X116762500Y-66885000D02*
X116762500Y-62285000D01*
X121342500Y-63035000D02*
G75*
G03*
X122562500Y-64455000I1320000J-100000D01*
G01*
X121632500Y-69085000D02*
G75*
G03*
X119262500Y-66915000I-2270000J-100000D01*
G01*
X119287500Y-73285000D02*
G75*
G03*
X121547500Y-71405000I190000J2070000D01*
G01*
X122887500Y-77289000D02*
G75*
G03*
X125151500Y-75405000I190000J2074000D01*
G01*
%TO.C,SW9*%
X167707500Y-92956250D02*
X167707500Y-89011250D01*
X156807500Y-90956250D02*
X161857500Y-90910250D01*
X159332500Y-84531250D02*
X161882500Y-84531250D01*
X167707500Y-89002250D02*
X164097500Y-89002250D01*
X159307500Y-84506250D02*
X159307500Y-79906250D01*
X156807500Y-91002250D02*
X156807500Y-94910250D01*
X168882500Y-86706250D02*
X168907500Y-82106250D01*
X159332500Y-79881250D02*
X163882500Y-79881250D01*
X165107500Y-82081250D02*
X168882500Y-82081250D01*
X164182500Y-86731250D02*
X168882500Y-86731250D01*
X156807500Y-94910250D02*
X165432500Y-94910250D01*
X163887500Y-80606250D02*
X163887500Y-79906250D01*
X165432500Y-94910250D02*
G75*
G03*
X167696500Y-93026250I190000J2074000D01*
G01*
X164177500Y-86706250D02*
G75*
G03*
X161807500Y-84536250I-2270000J-100000D01*
G01*
X161832500Y-90906250D02*
G75*
G03*
X164092500Y-89026250I190000J2070000D01*
G01*
X163887500Y-80656250D02*
G75*
G03*
X165107500Y-82076250I1320000J-100000D01*
G01*
%TO.C,SW5*%
X183840000Y-67793750D02*
X187615000Y-67793750D01*
X187615000Y-72418750D02*
X187640000Y-67818750D01*
X186440000Y-74714750D02*
X182830000Y-74714750D01*
X178040000Y-70218750D02*
X178040000Y-65618750D01*
X186440000Y-78668750D02*
X186440000Y-74723750D01*
X182620000Y-66318750D02*
X182620000Y-65618750D01*
X178065000Y-65593750D02*
X182615000Y-65593750D01*
X175540000Y-76668750D02*
X180590000Y-76622750D01*
X175540000Y-80622750D02*
X184165000Y-80622750D01*
X175540000Y-76714750D02*
X175540000Y-80622750D01*
X182915000Y-72443750D02*
X187615000Y-72443750D01*
X178065000Y-70243750D02*
X180615000Y-70243750D01*
X182620000Y-66368750D02*
G75*
G03*
X183840000Y-67788750I1320000J-100000D01*
G01*
X180565000Y-76618750D02*
G75*
G03*
X182825000Y-74738750I190000J2070000D01*
G01*
X184165000Y-80622750D02*
G75*
G03*
X186429000Y-78738750I190000J2074000D01*
G01*
X182910000Y-72418750D02*
G75*
G03*
X180540000Y-70248750I-2270000J-100000D01*
G01*
D13*
%TO.C,D16*%
X182847269Y-143095686D02*
X178995490Y-141844167D01*
X183465303Y-141193573D02*
X179613524Y-139942054D01*
X182847269Y-143095686D02*
X183465303Y-141193573D01*
%TO.C,D13*%
X133750000Y-111150000D02*
X133750000Y-107100000D01*
X135750000Y-111150000D02*
X135750000Y-107100000D01*
X133750000Y-111150000D02*
X135750000Y-111150000D01*
%TO.C,D10*%
X174400000Y-104000000D02*
X174400000Y-99950000D01*
X172400000Y-104000000D02*
X172400000Y-99950000D01*
X172400000Y-104000000D02*
X174400000Y-104000000D01*
D10*
%TO.C,SW17*%
X194347985Y-134009459D02*
X196773179Y-134797453D01*
X194331934Y-133977957D02*
X195753412Y-129603097D01*
X188739280Y-143100207D02*
X196942143Y-145765479D01*
X189961133Y-139339729D02*
X194778183Y-140856517D01*
X200931469Y-140849650D02*
X197498154Y-139734099D01*
X199709615Y-144610128D02*
X200928687Y-140858210D01*
X195784914Y-129587046D02*
X200112221Y-130993074D01*
X200597428Y-133463944D02*
X204187667Y-134630483D01*
X199892939Y-131684135D02*
X200109251Y-131018395D01*
X202758463Y-139029120D02*
X204203718Y-134661985D01*
X198280772Y-137600516D02*
X202750738Y-139052896D01*
X189946919Y-139383478D02*
X188739280Y-143100207D01*
X199877488Y-131731688D02*
G75*
G03*
X200598973Y-133459189I1224493J-503008D01*
G01*
X194755643Y-140844987D02*
G75*
G03*
X197485983Y-139755379I820366J1909974D01*
G01*
X196942143Y-145765479D02*
G75*
G03*
X199677523Y-144673303I821602J1913778D01*
G01*
X198283742Y-137575195D02*
G75*
G03*
X196700305Y-134779032I-2189800J606363D01*
G01*
%TO.C,SW12*%
X121525000Y-104985000D02*
X121525000Y-100385000D01*
X129925000Y-113435000D02*
X129925000Y-109490000D01*
X119025000Y-115389000D02*
X127650000Y-115389000D01*
X119025000Y-111481000D02*
X119025000Y-115389000D01*
X131100000Y-107185000D02*
X131125000Y-102585000D01*
X119025000Y-111435000D02*
X124075000Y-111389000D01*
X126400000Y-107210000D02*
X131100000Y-107210000D01*
X129925000Y-109481000D02*
X126315000Y-109481000D01*
X126105000Y-101085000D02*
X126105000Y-100385000D01*
X127325000Y-102560000D02*
X131100000Y-102560000D01*
X121550000Y-100360000D02*
X126100000Y-100360000D01*
X121550000Y-105010000D02*
X124100000Y-105010000D01*
X126395000Y-107185000D02*
G75*
G03*
X124025000Y-105015000I-2270000J-100000D01*
G01*
X124050000Y-111385000D02*
G75*
G03*
X126310000Y-109505000I190000J2070000D01*
G01*
X126105000Y-101135000D02*
G75*
G03*
X127325000Y-102555000I1320000J-100000D01*
G01*
X127650000Y-115389000D02*
G75*
G03*
X129914000Y-113505000I190000J2074000D01*
G01*
D13*
%TO.C,D14*%
X152500000Y-115900000D02*
X154500000Y-115900000D01*
X152500000Y-115900000D02*
X152500000Y-111850000D01*
X154500000Y-115900000D02*
X154500000Y-111850000D01*
D10*
%TO.C,J1*%
X199984000Y-117125000D02*
X211984000Y-117125000D01*
X199984000Y-123125000D02*
X199984000Y-117125000D01*
X211984000Y-123125000D02*
X199984000Y-123125000D01*
X211984000Y-117125000D02*
X211984000Y-123125000D01*
D13*
%TO.C,D2*%
X113111000Y-83934000D02*
X113111000Y-79884000D01*
X111111000Y-83934000D02*
X111111000Y-79884000D01*
X111111000Y-83934000D02*
X113111000Y-83934000D01*
D10*
%TO.C,SW14*%
X159307500Y-103556250D02*
X159307500Y-98956250D01*
X164182500Y-105781250D02*
X168882500Y-105781250D01*
X159332500Y-98931250D02*
X163882500Y-98931250D01*
X168882500Y-105756250D02*
X168907500Y-101156250D01*
X167707500Y-108052250D02*
X164097500Y-108052250D01*
X165107500Y-101131250D02*
X168882500Y-101131250D01*
X156807500Y-110052250D02*
X156807500Y-113960250D01*
X167707500Y-112006250D02*
X167707500Y-108061250D01*
X156807500Y-110006250D02*
X161857500Y-109960250D01*
X159332500Y-103581250D02*
X161882500Y-103581250D01*
X156807500Y-113960250D02*
X165432500Y-113960250D01*
X163887500Y-99656250D02*
X163887500Y-98956250D01*
X165432500Y-113960250D02*
G75*
G03*
X167696500Y-112076250I190000J2074000D01*
G01*
X163887500Y-99706250D02*
G75*
G03*
X165107500Y-101126250I1320000J-100000D01*
G01*
X161832500Y-109956250D02*
G75*
G03*
X164092500Y-108076250I190000J2070000D01*
G01*
X164177500Y-105756250D02*
G75*
G03*
X161807500Y-103586250I-2270000J-100000D01*
G01*
D13*
%TO.C,D7*%
X115300000Y-103238000D02*
X115300000Y-99188000D01*
X113300000Y-103238000D02*
X115300000Y-103238000D01*
X113300000Y-103238000D02*
X113300000Y-99188000D01*
D10*
%TO.C,SW4*%
X164182500Y-67681250D02*
X168882500Y-67681250D01*
X156807500Y-71952250D02*
X156807500Y-75860250D01*
X163887500Y-61556250D02*
X163887500Y-60856250D01*
X159307500Y-65456250D02*
X159307500Y-60856250D01*
X156807500Y-75860250D02*
X165432500Y-75860250D01*
X165107500Y-63031250D02*
X168882500Y-63031250D01*
X168882500Y-67656250D02*
X168907500Y-63056250D01*
X167707500Y-69952250D02*
X164097500Y-69952250D01*
X159332500Y-60831250D02*
X163882500Y-60831250D01*
X167707500Y-73906250D02*
X167707500Y-69961250D01*
X156807500Y-71906250D02*
X161857500Y-71860250D01*
X159332500Y-65481250D02*
X161882500Y-65481250D01*
X165432500Y-75860250D02*
G75*
G03*
X167696500Y-73976250I190000J2074000D01*
G01*
X161832500Y-71856250D02*
G75*
G03*
X164092500Y-69976250I190000J2070000D01*
G01*
X163887500Y-61606250D02*
G75*
G03*
X165107500Y-63026250I1320000J-100000D01*
G01*
X164177500Y-67656250D02*
G75*
G03*
X161807500Y-65486250I-2270000J-100000D01*
G01*
D14*
%TO.C,U1*%
X209838184Y-115849116D02*
X192040404Y-115849116D01*
X205443984Y-100779296D02*
X205443984Y-93425996D01*
X209838184Y-95521496D02*
X209838184Y-115849116D01*
D15*
X203488184Y-115214116D02*
X197773184Y-115214116D01*
X206155184Y-97434116D02*
X204377184Y-97434116D01*
X203488184Y-98069116D02*
X198408184Y-98069116D01*
X197519184Y-97434116D02*
X195741184Y-97434116D01*
X195741184Y-101500656D02*
X195741184Y-98831116D01*
X203488184Y-95529116D02*
X198408184Y-95529116D01*
X203488184Y-98069116D02*
X203488184Y-95529116D01*
D14*
X209167624Y-94850936D02*
X209838184Y-95521496D01*
D15*
X197773184Y-115214116D02*
X197773184Y-112674116D01*
X206155184Y-94767116D02*
X204377184Y-94767116D01*
X203488184Y-115214116D02*
X203488184Y-112674116D01*
X203488184Y-112674116D02*
X197773184Y-112674116D01*
X197519184Y-98831116D02*
X195741184Y-98831116D01*
X204377184Y-97434116D02*
X204377184Y-94767116D01*
X195741184Y-97434116D02*
X195741184Y-94767116D01*
X206155184Y-97434116D02*
X206155184Y-94767116D01*
D14*
X196444764Y-100779296D02*
X205443984Y-100779296D01*
D15*
X197519184Y-94767116D02*
X195741184Y-94767116D01*
X206155184Y-101500656D02*
X204377184Y-101500656D01*
X206155184Y-98831116D02*
X204377184Y-98831116D01*
D14*
X205438904Y-93425996D02*
X196444764Y-93425996D01*
D15*
X198408184Y-98069116D02*
X198408184Y-95529116D01*
X197519184Y-101500656D02*
X195741184Y-101500656D01*
X197519184Y-97434116D02*
X197519184Y-94767116D01*
X197519184Y-101500656D02*
X197519184Y-98831116D01*
X204377184Y-101500656D02*
X204377184Y-98831116D01*
D14*
X192040404Y-115849116D02*
X192040404Y-94850936D01*
X196444764Y-93425996D02*
X196444764Y-100779296D01*
X192040404Y-94850936D02*
X209167624Y-94850936D01*
D15*
X206155184Y-101500656D02*
X206155184Y-98831116D01*
D16*
X210465184Y-95849116D02*
G75*
G03*
X210465184Y-95849116I-127000J0D01*
G01*
D13*
%TO.C,D6*%
X111268000Y-103238000D02*
X111268000Y-99188000D01*
X111268000Y-103238000D02*
X113268000Y-103238000D01*
X113268000Y-103238000D02*
X113268000Y-99188000D01*
%TD*%
M02*
