%TF.GenerationSoftware,KiCad,Pcbnew,(6.0.7)*%
%TF.CreationDate,2022-09-04T11:35:24+09:00*%
%TF.ProjectId,selen-full,73656c65-6e2d-4667-956c-6c2e6b696361,rev?*%
%TF.SameCoordinates,Original*%
%TF.FileFunction,Soldermask,Top*%
%TF.FilePolarity,Negative*%
%FSLAX46Y46*%
G04 Gerber Fmt 4.6, Leading zero omitted, Abs format (unit mm)*
G04 Created by KiCad (PCBNEW (6.0.7)) date 2022-09-04 11:35:24*
%MOMM*%
%LPD*%
G01*
G04 APERTURE LIST*
G04 Aperture macros list*
%AMRoundRect*
0 Rectangle with rounded corners*
0 $1 Rounding radius*
0 $2 $3 $4 $5 $6 $7 $8 $9 X,Y pos of 4 corners*
0 Add a 4 corners polygon primitive as box body*
4,1,4,$2,$3,$4,$5,$6,$7,$8,$9,$2,$3,0*
0 Add four circle primitives for the rounded corners*
1,1,$1+$1,$2,$3*
1,1,$1+$1,$4,$5*
1,1,$1+$1,$6,$7*
1,1,$1+$1,$8,$9*
0 Add four rect primitives between the rounded corners*
20,1,$1+$1,$2,$3,$4,$5,0*
20,1,$1+$1,$4,$5,$6,$7,0*
20,1,$1+$1,$6,$7,$8,$9,0*
20,1,$1+$1,$8,$9,$2,$3,0*%
%AMRotRect*
0 Rectangle, with rotation*
0 The origin of the aperture is its center*
0 $1 length*
0 $2 width*
0 $3 Rotation angle, in degrees counterclockwise*
0 Add horizontal line*
21,1,$1,$2,0,0,$3*%
%AMFreePoly0*
4,1,6,0.600000,0.200000,0.000000,-0.400000,-0.600000,0.200000,-0.600000,0.400000,0.600000,0.400000,0.600000,0.200000,0.600000,0.200000,$1*%
%AMFreePoly1*
4,1,6,0.600000,-0.250000,-0.600000,-0.250000,-0.600000,1.000000,0.000000,0.400000,0.600000,1.000000,0.600000,-0.250000,0.600000,-0.250000,$1*%
G04 Aperture macros list end*
%ADD10C,0.150000*%
%ADD11R,1.400000X1.200000*%
%ADD12C,0.500000*%
%ADD13RotRect,1.200000X1.400000X342.000000*%
%ADD14C,3.200000*%
%ADD15C,3.000000*%
%ADD16C,1.700000*%
%ADD17C,1.900000*%
%ADD18C,4.000000*%
%ADD19R,2.000000X2.000000*%
%ADD20R,1.800000X2.000000*%
%ADD21RotRect,2.000000X2.000000X354.000000*%
%ADD22RotRect,1.800000X2.000000X354.000000*%
%ADD23RotRect,1.200000X1.400000X162.000000*%
%ADD24RotRect,2.000000X2.000000X342.000000*%
%ADD25RotRect,1.800000X2.000000X342.000000*%
%ADD26C,1.200000*%
%ADD27O,2.500000X1.700000*%
%ADD28RoundRect,0.499745X-0.874395X-0.499745X0.874395X-0.499745X0.874395X0.499745X-0.874395X0.499745X0*%
%ADD29FreePoly0,270.000000*%
%ADD30FreePoly0,90.000000*%
%ADD31FreePoly1,270.000000*%
%ADD32FreePoly1,90.000000*%
%ADD33C,1.143000*%
G04 APERTURE END LIST*
D10*
X97800000Y-70447380D02*
X97800000Y-69447380D01*
X98180952Y-69447380D01*
X98276190Y-69495000D01*
X98323809Y-69542619D01*
X98371428Y-69637857D01*
X98371428Y-69780714D01*
X98323809Y-69875952D01*
X98276190Y-69923571D01*
X98180952Y-69971190D01*
X97800000Y-69971190D01*
X99371428Y-70352142D02*
X99323809Y-70399761D01*
X99180952Y-70447380D01*
X99085714Y-70447380D01*
X98942857Y-70399761D01*
X98847619Y-70304523D01*
X98800000Y-70209285D01*
X98752380Y-70018809D01*
X98752380Y-69875952D01*
X98800000Y-69685476D01*
X98847619Y-69590238D01*
X98942857Y-69495000D01*
X99085714Y-69447380D01*
X99180952Y-69447380D01*
X99323809Y-69495000D01*
X99371428Y-69542619D01*
X100133333Y-69923571D02*
X100276190Y-69971190D01*
X100323809Y-70018809D01*
X100371428Y-70114047D01*
X100371428Y-70256904D01*
X100323809Y-70352142D01*
X100276190Y-70399761D01*
X100180952Y-70447380D01*
X99800000Y-70447380D01*
X99800000Y-69447380D01*
X100133333Y-69447380D01*
X100228571Y-69495000D01*
X100276190Y-69542619D01*
X100323809Y-69637857D01*
X100323809Y-69733095D01*
X100276190Y-69828333D01*
X100228571Y-69875952D01*
X100133333Y-69923571D01*
X99800000Y-69923571D01*
X101561904Y-70447380D02*
X101561904Y-69447380D01*
X101800000Y-69447380D01*
X101942857Y-69495000D01*
X102038095Y-69590238D01*
X102085714Y-69685476D01*
X102133333Y-69875952D01*
X102133333Y-70018809D01*
X102085714Y-70209285D01*
X102038095Y-70304523D01*
X101942857Y-70399761D01*
X101800000Y-70447380D01*
X101561904Y-70447380D01*
X102942857Y-70399761D02*
X102847619Y-70447380D01*
X102657142Y-70447380D01*
X102561904Y-70399761D01*
X102514285Y-70304523D01*
X102514285Y-69923571D01*
X102561904Y-69828333D01*
X102657142Y-69780714D01*
X102847619Y-69780714D01*
X102942857Y-69828333D01*
X102990476Y-69923571D01*
X102990476Y-70018809D01*
X102514285Y-70114047D01*
X103371428Y-70399761D02*
X103466666Y-70447380D01*
X103657142Y-70447380D01*
X103752380Y-70399761D01*
X103800000Y-70304523D01*
X103800000Y-70256904D01*
X103752380Y-70161666D01*
X103657142Y-70114047D01*
X103514285Y-70114047D01*
X103419047Y-70066428D01*
X103371428Y-69971190D01*
X103371428Y-69923571D01*
X103419047Y-69828333D01*
X103514285Y-69780714D01*
X103657142Y-69780714D01*
X103752380Y-69828333D01*
X104228571Y-70447380D02*
X104228571Y-69780714D01*
X104228571Y-69447380D02*
X104180952Y-69495000D01*
X104228571Y-69542619D01*
X104276190Y-69495000D01*
X104228571Y-69447380D01*
X104228571Y-69542619D01*
X105133333Y-69780714D02*
X105133333Y-70590238D01*
X105085714Y-70685476D01*
X105038095Y-70733095D01*
X104942857Y-70780714D01*
X104800000Y-70780714D01*
X104704761Y-70733095D01*
X105133333Y-70399761D02*
X105038095Y-70447380D01*
X104847619Y-70447380D01*
X104752380Y-70399761D01*
X104704761Y-70352142D01*
X104657142Y-70256904D01*
X104657142Y-69971190D01*
X104704761Y-69875952D01*
X104752380Y-69828333D01*
X104847619Y-69780714D01*
X105038095Y-69780714D01*
X105133333Y-69828333D01*
X105609523Y-69780714D02*
X105609523Y-70447380D01*
X105609523Y-69875952D02*
X105657142Y-69828333D01*
X105752380Y-69780714D01*
X105895238Y-69780714D01*
X105990476Y-69828333D01*
X106038095Y-69923571D01*
X106038095Y-70447380D01*
X106895238Y-70399761D02*
X106800000Y-70447380D01*
X106609523Y-70447380D01*
X106514285Y-70399761D01*
X106466666Y-70304523D01*
X106466666Y-69923571D01*
X106514285Y-69828333D01*
X106609523Y-69780714D01*
X106800000Y-69780714D01*
X106895238Y-69828333D01*
X106942857Y-69923571D01*
X106942857Y-70018809D01*
X106466666Y-70114047D01*
X107800000Y-70447380D02*
X107800000Y-69447380D01*
X107800000Y-70399761D02*
X107704761Y-70447380D01*
X107514285Y-70447380D01*
X107419047Y-70399761D01*
X107371428Y-70352142D01*
X107323809Y-70256904D01*
X107323809Y-69971190D01*
X107371428Y-69875952D01*
X107419047Y-69828333D01*
X107514285Y-69780714D01*
X107704761Y-69780714D01*
X107800000Y-69828333D01*
X98276190Y-72057380D02*
X98276190Y-71057380D01*
X98276190Y-71438333D02*
X98371428Y-71390714D01*
X98561904Y-71390714D01*
X98657142Y-71438333D01*
X98704761Y-71485952D01*
X98752380Y-71581190D01*
X98752380Y-71866904D01*
X98704761Y-71962142D01*
X98657142Y-72009761D01*
X98561904Y-72057380D01*
X98371428Y-72057380D01*
X98276190Y-72009761D01*
X99085714Y-71390714D02*
X99323809Y-72057380D01*
X99561904Y-71390714D02*
X99323809Y-72057380D01*
X99228571Y-72295476D01*
X99180952Y-72343095D01*
X99085714Y-72390714D01*
X101323809Y-71581190D02*
X101276190Y-71533571D01*
X101180952Y-71485952D01*
X101085714Y-71485952D01*
X100990476Y-71533571D01*
X100942857Y-71581190D01*
X100895238Y-71676428D01*
X100895238Y-71771666D01*
X100942857Y-71866904D01*
X100990476Y-71914523D01*
X101085714Y-71962142D01*
X101180952Y-71962142D01*
X101276190Y-71914523D01*
X101323809Y-71866904D01*
X101323809Y-71485952D02*
X101323809Y-71866904D01*
X101371428Y-71914523D01*
X101419047Y-71914523D01*
X101514285Y-71866904D01*
X101561904Y-71771666D01*
X101561904Y-71533571D01*
X101466666Y-71390714D01*
X101323809Y-71295476D01*
X101133333Y-71247857D01*
X100942857Y-71295476D01*
X100800000Y-71390714D01*
X100704761Y-71533571D01*
X100657142Y-71724047D01*
X100704761Y-71914523D01*
X100800000Y-72057380D01*
X100942857Y-72152619D01*
X101133333Y-72200238D01*
X101323809Y-72152619D01*
X101466666Y-72057380D01*
X101990476Y-71390714D02*
X101990476Y-72057380D01*
X101990476Y-71485952D02*
X102038095Y-71438333D01*
X102133333Y-71390714D01*
X102276190Y-71390714D01*
X102371428Y-71438333D01*
X102419047Y-71533571D01*
X102419047Y-72057380D01*
X103323809Y-72057380D02*
X103323809Y-71533571D01*
X103276190Y-71438333D01*
X103180952Y-71390714D01*
X102990476Y-71390714D01*
X102895238Y-71438333D01*
X103323809Y-72009761D02*
X103228571Y-72057380D01*
X102990476Y-72057380D01*
X102895238Y-72009761D01*
X102847619Y-71914523D01*
X102847619Y-71819285D01*
X102895238Y-71724047D01*
X102990476Y-71676428D01*
X103228571Y-71676428D01*
X103323809Y-71628809D01*
X103800000Y-72057380D02*
X103800000Y-71390714D01*
X103800000Y-71581190D02*
X103847619Y-71485952D01*
X103895238Y-71438333D01*
X103990476Y-71390714D01*
X104085714Y-71390714D01*
X104419047Y-72057380D02*
X104419047Y-71390714D01*
X104419047Y-71057380D02*
X104371428Y-71105000D01*
X104419047Y-71152619D01*
X104466666Y-71105000D01*
X104419047Y-71057380D01*
X104419047Y-71152619D01*
X104895238Y-71390714D02*
X104895238Y-72057380D01*
X104895238Y-71485952D02*
X104942857Y-71438333D01*
X105038095Y-71390714D01*
X105180952Y-71390714D01*
X105276190Y-71438333D01*
X105323809Y-71533571D01*
X105323809Y-72057380D01*
X106228571Y-72057380D02*
X106228571Y-71533571D01*
X106180952Y-71438333D01*
X106085714Y-71390714D01*
X105895238Y-71390714D01*
X105800000Y-71438333D01*
X106228571Y-72009761D02*
X106133333Y-72057380D01*
X105895238Y-72057380D01*
X105800000Y-72009761D01*
X105752380Y-71914523D01*
X105752380Y-71819285D01*
X105800000Y-71724047D01*
X105895238Y-71676428D01*
X106133333Y-71676428D01*
X106228571Y-71628809D01*
X106704761Y-72057380D02*
X106704761Y-71390714D01*
X106704761Y-71581190D02*
X106752380Y-71485952D01*
X106800000Y-71438333D01*
X106895238Y-71390714D01*
X106990476Y-71390714D01*
X107323809Y-72057380D02*
X107323809Y-71390714D01*
X107323809Y-71057380D02*
X107276190Y-71105000D01*
X107323809Y-71152619D01*
X107371428Y-71105000D01*
X107323809Y-71057380D01*
X107323809Y-71152619D01*
X98238095Y-69004761D02*
X98380952Y-69052380D01*
X98619047Y-69052380D01*
X98714285Y-69004761D01*
X98761904Y-68957142D01*
X98809523Y-68861904D01*
X98809523Y-68766666D01*
X98761904Y-68671428D01*
X98714285Y-68623809D01*
X98619047Y-68576190D01*
X98428571Y-68528571D01*
X98333333Y-68480952D01*
X98285714Y-68433333D01*
X98238095Y-68338095D01*
X98238095Y-68242857D01*
X98285714Y-68147619D01*
X98333333Y-68100000D01*
X98428571Y-68052380D01*
X98666666Y-68052380D01*
X98809523Y-68100000D01*
X99619047Y-69004761D02*
X99523809Y-69052380D01*
X99333333Y-69052380D01*
X99238095Y-69004761D01*
X99190476Y-68909523D01*
X99190476Y-68528571D01*
X99238095Y-68433333D01*
X99333333Y-68385714D01*
X99523809Y-68385714D01*
X99619047Y-68433333D01*
X99666666Y-68528571D01*
X99666666Y-68623809D01*
X99190476Y-68719047D01*
X100238095Y-69052380D02*
X100142857Y-69004761D01*
X100095238Y-68909523D01*
X100095238Y-68052380D01*
X101000000Y-69004761D02*
X100904761Y-69052380D01*
X100714285Y-69052380D01*
X100619047Y-69004761D01*
X100571428Y-68909523D01*
X100571428Y-68528571D01*
X100619047Y-68433333D01*
X100714285Y-68385714D01*
X100904761Y-68385714D01*
X101000000Y-68433333D01*
X101047619Y-68528571D01*
X101047619Y-68623809D01*
X100571428Y-68719047D01*
X101476190Y-68385714D02*
X101476190Y-69052380D01*
X101476190Y-68480952D02*
X101523809Y-68433333D01*
X101619047Y-68385714D01*
X101761904Y-68385714D01*
X101857142Y-68433333D01*
X101904761Y-68528571D01*
X101904761Y-69052380D01*
X103047619Y-68385714D02*
X103285714Y-69052380D01*
X103523809Y-68385714D01*
X103904761Y-68957142D02*
X103952380Y-69004761D01*
X103904761Y-69052380D01*
X103857142Y-69004761D01*
X103904761Y-68957142D01*
X103904761Y-69052380D01*
X104571428Y-68052380D02*
X104666666Y-68052380D01*
X104761904Y-68100000D01*
X104809523Y-68147619D01*
X104857142Y-68242857D01*
X104904761Y-68433333D01*
X104904761Y-68671428D01*
X104857142Y-68861904D01*
X104809523Y-68957142D01*
X104761904Y-69004761D01*
X104666666Y-69052380D01*
X104571428Y-69052380D01*
X104476190Y-69004761D01*
X104428571Y-68957142D01*
X104380952Y-68861904D01*
X104333333Y-68671428D01*
X104333333Y-68433333D01*
X104380952Y-68242857D01*
X104428571Y-68147619D01*
X104476190Y-68100000D01*
X104571428Y-68052380D01*
X105333333Y-68957142D02*
X105380952Y-69004761D01*
X105333333Y-69052380D01*
X105285714Y-69004761D01*
X105333333Y-68957142D01*
X105333333Y-69052380D01*
X105761904Y-68147619D02*
X105809523Y-68100000D01*
X105904761Y-68052380D01*
X106142857Y-68052380D01*
X106238095Y-68100000D01*
X106285714Y-68147619D01*
X106333333Y-68242857D01*
X106333333Y-68338095D01*
X106285714Y-68480952D01*
X105714285Y-69052380D01*
X106333333Y-69052380D01*
X106761904Y-68957142D02*
X106809523Y-69004761D01*
X106761904Y-69052380D01*
X106714285Y-69004761D01*
X106761904Y-68957142D01*
X106761904Y-69052380D01*
X107428571Y-68052380D02*
X107523809Y-68052380D01*
X107619047Y-68100000D01*
X107666666Y-68147619D01*
X107714285Y-68242857D01*
X107761904Y-68433333D01*
X107761904Y-68671428D01*
X107714285Y-68861904D01*
X107666666Y-68957142D01*
X107619047Y-69004761D01*
X107523809Y-69052380D01*
X107428571Y-69052380D01*
X107333333Y-69004761D01*
X107285714Y-68957142D01*
X107238095Y-68861904D01*
X107190476Y-68671428D01*
X107190476Y-68433333D01*
X107238095Y-68242857D01*
X107285714Y-68147619D01*
X107333333Y-68100000D01*
X107428571Y-68052380D01*
X146776190Y-51102380D02*
X146204761Y-51102380D01*
X146490476Y-51102380D02*
X146490476Y-50102380D01*
X146395238Y-50245238D01*
X146300000Y-50340476D01*
X146204761Y-50388095D01*
X147157142Y-50197619D02*
X147204761Y-50150000D01*
X147300000Y-50102380D01*
X147538095Y-50102380D01*
X147633333Y-50150000D01*
X147680952Y-50197619D01*
X147728571Y-50292857D01*
X147728571Y-50388095D01*
X147680952Y-50530952D01*
X147109523Y-51102380D01*
X147728571Y-51102380D01*
X148680952Y-51102380D02*
X148109523Y-51102380D01*
X148395238Y-51102380D02*
X148395238Y-50102380D01*
X148300000Y-50245238D01*
X148204761Y-50340476D01*
X148109523Y-50388095D01*
X149109523Y-51007142D02*
X149157142Y-51054761D01*
X149109523Y-51102380D01*
X149061904Y-51054761D01*
X149109523Y-51007142D01*
X149109523Y-51102380D01*
X150014285Y-50435714D02*
X150014285Y-51102380D01*
X149776190Y-50054761D02*
X149538095Y-50769047D01*
X150157142Y-50769047D01*
X150728571Y-50102380D02*
X150823809Y-50102380D01*
X150919047Y-50150000D01*
X150966666Y-50197619D01*
X151014285Y-50292857D01*
X151061904Y-50483333D01*
X151061904Y-50721428D01*
X151014285Y-50911904D01*
X150966666Y-51007142D01*
X150919047Y-51054761D01*
X150823809Y-51102380D01*
X150728571Y-51102380D01*
X150633333Y-51054761D01*
X150585714Y-51007142D01*
X150538095Y-50911904D01*
X150490476Y-50721428D01*
X150490476Y-50483333D01*
X150538095Y-50292857D01*
X150585714Y-50197619D01*
X150633333Y-50150000D01*
X150728571Y-50102380D01*
X151680952Y-50102380D02*
X151776190Y-50102380D01*
X151871428Y-50150000D01*
X151919047Y-50197619D01*
X151966666Y-50292857D01*
X152014285Y-50483333D01*
X152014285Y-50721428D01*
X151966666Y-50911904D01*
X151919047Y-51007142D01*
X151871428Y-51054761D01*
X151776190Y-51102380D01*
X151680952Y-51102380D01*
X151585714Y-51054761D01*
X151538095Y-51007142D01*
X151490476Y-50911904D01*
X151442857Y-50721428D01*
X151442857Y-50483333D01*
X151490476Y-50292857D01*
X151538095Y-50197619D01*
X151585714Y-50150000D01*
X151680952Y-50102380D01*
X152633333Y-50102380D02*
X152728571Y-50102380D01*
X152823809Y-50150000D01*
X152871428Y-50197619D01*
X152919047Y-50292857D01*
X152966666Y-50483333D01*
X152966666Y-50721428D01*
X152919047Y-50911904D01*
X152871428Y-51007142D01*
X152823809Y-51054761D01*
X152728571Y-51102380D01*
X152633333Y-51102380D01*
X152538095Y-51054761D01*
X152490476Y-51007142D01*
X152442857Y-50911904D01*
X152395238Y-50721428D01*
X152395238Y-50483333D01*
X152442857Y-50292857D01*
X152490476Y-50197619D01*
X152538095Y-50150000D01*
X152633333Y-50102380D01*
X154157142Y-51102380D02*
X154157142Y-50435714D01*
X154157142Y-50530952D02*
X154204761Y-50483333D01*
X154300000Y-50435714D01*
X154442857Y-50435714D01*
X154538095Y-50483333D01*
X154585714Y-50578571D01*
X154585714Y-51102380D01*
X154585714Y-50578571D02*
X154633333Y-50483333D01*
X154728571Y-50435714D01*
X154871428Y-50435714D01*
X154966666Y-50483333D01*
X155014285Y-50578571D01*
X155014285Y-51102380D01*
X155490476Y-51102380D02*
X155490476Y-50435714D01*
X155490476Y-50530952D02*
X155538095Y-50483333D01*
X155633333Y-50435714D01*
X155776190Y-50435714D01*
X155871428Y-50483333D01*
X155919047Y-50578571D01*
X155919047Y-51102380D01*
X155919047Y-50578571D02*
X155966666Y-50483333D01*
X156061904Y-50435714D01*
X156204761Y-50435714D01*
X156300000Y-50483333D01*
X156347619Y-50578571D01*
X156347619Y-51102380D01*
X212000000Y-54700000D02*
X212000000Y-51213580D01*
X90600000Y-54700000D02*
X90600000Y-51213580D01*
X212000000Y-51800000D02*
X90600000Y-51800000D01*
X212000000Y-51800000D02*
X90600000Y-51800000D01*
X212000000Y-51800000D02*
X210873496Y-51213579D01*
X212000000Y-51800000D02*
X210873496Y-52386421D01*
X90600000Y-51800000D02*
X91726504Y-52386421D01*
X90600000Y-51800000D02*
X91726504Y-51213579D01*
D11*
%TO.C,D9*%
X153500000Y-96200000D03*
D12*
X154100000Y-96600000D03*
X152900000Y-92300000D03*
D11*
X153500000Y-92700000D03*
%TD*%
%TO.C,D4*%
X153500000Y-77200000D03*
D12*
X154100000Y-77600000D03*
X152900000Y-73300000D03*
D11*
X153500000Y-73700000D03*
%TD*%
D12*
%TO.C,D12*%
X118350000Y-120034000D03*
D11*
X117750000Y-119634000D03*
X117750000Y-116134000D03*
D12*
X117150000Y-115734000D03*
%TD*%
%TO.C,D17*%
X183684167Y-142947027D03*
D13*
X184250000Y-142500000D03*
X187578698Y-143581560D03*
D12*
X188144531Y-143134532D03*
%TD*%
D14*
%TO.C,REF\u002A\u002A*%
X190000000Y-120000000D03*
X190000000Y-120000000D03*
%TD*%
D15*
%TO.C,SW1*%
X97790000Y-86042500D03*
D16*
X105410000Y-80962500D03*
X95250000Y-80962500D03*
D15*
X96520000Y-83502500D03*
X95330000Y-77262500D03*
D17*
X105830000Y-80962500D03*
X94830000Y-80962500D03*
D15*
X104140000Y-83502500D03*
X100330000Y-75062500D03*
X102870000Y-86042500D03*
X105330000Y-77262500D03*
D18*
X100330000Y-80962500D03*
D19*
X92230000Y-77262500D03*
X105930000Y-86042500D03*
D20*
X103130000Y-75062500D03*
D19*
X93430000Y-83502500D03*
%TD*%
D15*
%TO.C,SW13*%
X140335000Y-107473750D03*
X142875000Y-96493750D03*
D18*
X142875000Y-102393750D03*
D15*
X147875000Y-98693750D03*
X137875000Y-98693750D03*
X146685000Y-104933750D03*
D17*
X137375000Y-102393750D03*
D16*
X137795000Y-102393750D03*
D15*
X139065000Y-104933750D03*
X145415000Y-107473750D03*
D16*
X147955000Y-102393750D03*
D17*
X148375000Y-102393750D03*
D19*
X148475000Y-107473750D03*
X134775000Y-98693750D03*
D20*
X145675000Y-96493750D03*
D19*
X135975000Y-104933750D03*
%TD*%
D12*
%TO.C,D15*%
X171850000Y-117600000D03*
D11*
X171250000Y-117200000D03*
D12*
X170650000Y-113300000D03*
D11*
X171250000Y-113700000D03*
%TD*%
D14*
%TO.C,REF\u002A\u002A*%
X168200000Y-78800000D03*
X168200000Y-78800000D03*
%TD*%
D12*
%TO.C,D8*%
X134150000Y-87300000D03*
D11*
X134750000Y-87700000D03*
X134750000Y-91200000D03*
D12*
X135350000Y-91600000D03*
%TD*%
D14*
%TO.C,REF\u002A\u002A*%
X111500000Y-109500000D03*
X111500000Y-109500000D03*
%TD*%
D15*
%TO.C,SW7*%
X126443750Y-85835000D03*
X118903750Y-94615000D03*
D17*
X126943750Y-89535000D03*
D16*
X116363750Y-89535000D03*
D15*
X121443750Y-83635000D03*
X116443750Y-85835000D03*
X117633750Y-92075000D03*
X123983750Y-94615000D03*
D18*
X121443750Y-89535000D03*
D17*
X115943750Y-89535000D03*
D15*
X125253750Y-92075000D03*
D16*
X126523750Y-89535000D03*
D19*
X113343750Y-85835000D03*
X127043750Y-94615000D03*
X114543750Y-92075000D03*
D20*
X124243750Y-83635000D03*
%TD*%
D12*
%TO.C,D11*%
X116100000Y-120034000D03*
D11*
X115500000Y-119634000D03*
D12*
X114900000Y-115734000D03*
D11*
X115500000Y-116134000D03*
%TD*%
D14*
%TO.C,REF\u002A\u002A*%
X130810000Y-75692000D03*
X130810000Y-75692000D03*
%TD*%
D15*
%TO.C,SW6*%
X107393750Y-96312500D03*
D17*
X96893750Y-100012500D03*
D16*
X107473750Y-100012500D03*
D15*
X97393750Y-96312500D03*
X98583750Y-102552500D03*
D18*
X102393750Y-100012500D03*
D15*
X99853750Y-105092500D03*
X106203750Y-102552500D03*
D17*
X107893750Y-100012500D03*
D15*
X104933750Y-105092500D03*
X102393750Y-94112500D03*
D16*
X97313750Y-100012500D03*
D19*
X107993750Y-105092500D03*
X94293750Y-96312500D03*
D20*
X105193750Y-94112500D03*
D19*
X95493750Y-102552500D03*
%TD*%
D14*
%TO.C,REF\u002A\u002A*%
X109250000Y-90250000D03*
X109250000Y-90250000D03*
%TD*%
D18*
%TO.C,SW11*%
X104775000Y-119221250D03*
D16*
X109855000Y-119221250D03*
D15*
X107315000Y-124301250D03*
D17*
X99275000Y-119221250D03*
D15*
X108585000Y-121761250D03*
X99775000Y-115521250D03*
D16*
X99695000Y-119221250D03*
D17*
X110275000Y-119221250D03*
D15*
X100965000Y-121761250D03*
X104775000Y-113321250D03*
X109775000Y-115521250D03*
X102235000Y-124301250D03*
D19*
X96675000Y-115521250D03*
X110375000Y-124301250D03*
X97875000Y-121761250D03*
D20*
X107575000Y-113321250D03*
%TD*%
D17*
%TO.C,SW8*%
X137375000Y-83343750D03*
D15*
X147875000Y-79643750D03*
X145415000Y-88423750D03*
D18*
X142875000Y-83343750D03*
D15*
X142875000Y-77443750D03*
X146685000Y-85883750D03*
X137875000Y-79643750D03*
X139065000Y-85883750D03*
D16*
X137795000Y-83343750D03*
X147955000Y-83343750D03*
D15*
X140335000Y-88423750D03*
D17*
X148375000Y-83343750D03*
D19*
X134775000Y-79643750D03*
X148475000Y-88423750D03*
D20*
X145675000Y-77443750D03*
D19*
X135975000Y-85883750D03*
%TD*%
D17*
%TO.C,SW10*%
X174840000Y-92868750D03*
D15*
X184150000Y-95408750D03*
D16*
X185420000Y-92868750D03*
D18*
X180340000Y-92868750D03*
D17*
X185840000Y-92868750D03*
D15*
X175340000Y-89168750D03*
X180340000Y-86968750D03*
X176530000Y-95408750D03*
D16*
X175260000Y-92868750D03*
D15*
X185340000Y-89168750D03*
X177800000Y-97948750D03*
X182880000Y-97948750D03*
D19*
X172240000Y-89168750D03*
X185940000Y-97948750D03*
D20*
X183140000Y-86968750D03*
D19*
X173440000Y-95408750D03*
%TD*%
D16*
%TO.C,SW15*%
X185420000Y-111760000D03*
X175260000Y-111760000D03*
D15*
X185340000Y-108060000D03*
D17*
X185840000Y-111760000D03*
X174840000Y-111760000D03*
D15*
X180340000Y-105860000D03*
X176530000Y-114300000D03*
X177800000Y-116840000D03*
X175340000Y-108060000D03*
D18*
X180340000Y-111760000D03*
D15*
X184150000Y-114300000D03*
X182880000Y-116840000D03*
D19*
X172240000Y-108060000D03*
X185940000Y-116840000D03*
D20*
X183140000Y-105860000D03*
D19*
X173440000Y-114300000D03*
%TD*%
D16*
%TO.C,SW3*%
X137795000Y-64293750D03*
D15*
X147875000Y-60593750D03*
D17*
X137375000Y-64293750D03*
X148375000Y-64293750D03*
D16*
X147955000Y-64293750D03*
D15*
X142875000Y-58393750D03*
X140335000Y-69373750D03*
X139065000Y-66833750D03*
X145415000Y-69373750D03*
D18*
X142875000Y-64293750D03*
D15*
X146685000Y-66833750D03*
X137875000Y-60593750D03*
D19*
X134775000Y-60593750D03*
X148475000Y-69373750D03*
D20*
X145675000Y-58393750D03*
D19*
X135975000Y-66833750D03*
%TD*%
D16*
%TO.C,SW16*%
X167528961Y-132565577D03*
D15*
X168526501Y-135224414D03*
D17*
X167111262Y-132521675D03*
D18*
X172581132Y-133096582D03*
D15*
X173197850Y-127228903D03*
X176104758Y-136020921D03*
X177940497Y-129939493D03*
X169524042Y-137883251D03*
D16*
X177633303Y-133627587D03*
D17*
X178051002Y-133671489D03*
D15*
X174576213Y-138414256D03*
X167995278Y-128894209D03*
D21*
X164912260Y-128570170D03*
X177619450Y-138734113D03*
D22*
X175982511Y-127521583D03*
D21*
X165453429Y-134901421D03*
%TD*%
D11*
%TO.C,D3*%
X134750000Y-72200000D03*
D12*
X135350000Y-72600000D03*
D11*
X134750000Y-68700000D03*
D12*
X134150000Y-68300000D03*
%TD*%
%TO.C,D5*%
X173100000Y-82900000D03*
D11*
X172500000Y-82500000D03*
D12*
X171900000Y-78600000D03*
D11*
X172500000Y-79000000D03*
%TD*%
%TO.C,D1*%
X110236000Y-83234000D03*
D12*
X110836000Y-83634000D03*
X109636000Y-79334000D03*
D11*
X110236000Y-79734000D03*
%TD*%
D15*
%TO.C,SW2*%
X122872500Y-73025000D03*
X115252500Y-73025000D03*
X114062500Y-66785000D03*
D16*
X113982500Y-70485000D03*
D15*
X119062500Y-64585000D03*
D18*
X119062500Y-70485000D03*
D15*
X121602500Y-75565000D03*
X124062500Y-66785000D03*
D17*
X113562500Y-70485000D03*
D16*
X124142500Y-70485000D03*
D17*
X124562500Y-70485000D03*
D15*
X116522500Y-75565000D03*
D19*
X110962500Y-66785000D03*
X124662500Y-75565000D03*
D20*
X121862500Y-64585000D03*
D19*
X112162500Y-73025000D03*
%TD*%
D16*
%TO.C,SW9*%
X166687500Y-88106250D03*
D18*
X161607500Y-88106250D03*
D15*
X165417500Y-90646250D03*
X164147500Y-93186250D03*
X159067500Y-93186250D03*
X161607500Y-82206250D03*
D17*
X156107500Y-88106250D03*
D15*
X157797500Y-90646250D03*
D16*
X156527500Y-88106250D03*
D15*
X156607500Y-84406250D03*
D17*
X167107500Y-88106250D03*
D15*
X166607500Y-84406250D03*
D19*
X167207500Y-93186250D03*
X153507500Y-84406250D03*
D20*
X164407500Y-82206250D03*
D19*
X154707500Y-90646250D03*
%TD*%
D15*
%TO.C,SW5*%
X182880000Y-78898750D03*
X184150000Y-76358750D03*
X175340000Y-70118750D03*
X177800000Y-78898750D03*
D16*
X175260000Y-73818750D03*
D17*
X185840000Y-73818750D03*
D18*
X180340000Y-73818750D03*
D17*
X174840000Y-73818750D03*
D15*
X176530000Y-76358750D03*
X185340000Y-70118750D03*
D16*
X185420000Y-73818750D03*
D15*
X180340000Y-67918750D03*
D19*
X185940000Y-78898750D03*
X172240000Y-70118750D03*
D20*
X183140000Y-67918750D03*
D19*
X173440000Y-76358750D03*
%TD*%
D23*
%TO.C,D16*%
X182490546Y-141928318D03*
D12*
X183056379Y-141481291D03*
D23*
X179161848Y-140846758D03*
D12*
X178596015Y-141293786D03*
%TD*%
D14*
%TO.C,REF\u002A\u002A*%
X167750000Y-98000000D03*
X167750000Y-98000000D03*
%TD*%
D11*
%TO.C,D13*%
X134750000Y-110450000D03*
D12*
X135350000Y-110850000D03*
X134150000Y-106550000D03*
D11*
X134750000Y-106950000D03*
%TD*%
%TO.C,D10*%
X172250000Y-100700000D03*
D12*
X172850000Y-101100000D03*
D11*
X172250000Y-97200000D03*
D12*
X171650000Y-96800000D03*
%TD*%
D15*
%TO.C,SW17*%
X197230103Y-132501267D03*
X190998475Y-139350829D03*
D16*
X200238270Y-139682306D03*
D15*
X191421413Y-142158964D03*
X191794983Y-133048506D03*
X196252780Y-143728770D03*
D17*
X200637714Y-139812093D03*
D18*
X195406903Y-138112500D03*
D17*
X190176092Y-136412907D03*
D15*
X198245525Y-141705538D03*
D16*
X190575536Y-136542694D03*
D15*
X201305548Y-136138676D03*
D24*
X188846708Y-132090553D03*
X199163013Y-144674362D03*
D25*
X199893062Y-133366514D03*
D24*
X188059710Y-138395966D03*
%TD*%
D15*
%TO.C,SW12*%
X121285000Y-113665000D03*
D16*
X128905000Y-108585000D03*
D18*
X123825000Y-108585000D03*
D16*
X118745000Y-108585000D03*
D15*
X126365000Y-113665000D03*
X120015000Y-111125000D03*
D17*
X118325000Y-108585000D03*
D15*
X118825000Y-104885000D03*
X128825000Y-104885000D03*
X123825000Y-102685000D03*
D17*
X129325000Y-108585000D03*
D15*
X127635000Y-111125000D03*
D19*
X129425000Y-113665000D03*
X115725000Y-104885000D03*
X116925000Y-111125000D03*
D20*
X126625000Y-102685000D03*
%TD*%
D12*
%TO.C,D14*%
X154100000Y-115600000D03*
D11*
X153500000Y-115200000D03*
D12*
X152900000Y-111300000D03*
D11*
X153500000Y-111700000D03*
%TD*%
D26*
%TO.C,J1*%
X203484000Y-120125000D03*
X210484000Y-120125000D03*
X210484000Y-121875000D03*
X203484000Y-121875000D03*
D27*
X200184000Y-122225000D03*
X200184000Y-119775000D03*
X208684000Y-118025000D03*
X208684000Y-123975000D03*
X205684000Y-123975000D03*
X205684000Y-118025000D03*
X201684000Y-118025000D03*
X201684000Y-123975000D03*
%TD*%
D11*
%TO.C,D2*%
X112111000Y-83234000D03*
D12*
X112711000Y-83634000D03*
X111511000Y-79334000D03*
D11*
X112111000Y-79734000D03*
%TD*%
D15*
%TO.C,SW14*%
X157797500Y-109696250D03*
D17*
X156107500Y-107156250D03*
D18*
X161607500Y-107156250D03*
D16*
X156527500Y-107156250D03*
D15*
X161607500Y-101256250D03*
X156607500Y-103456250D03*
X166607500Y-103456250D03*
D17*
X167107500Y-107156250D03*
D16*
X166687500Y-107156250D03*
D15*
X165417500Y-109696250D03*
X159067500Y-112236250D03*
X164147500Y-112236250D03*
D19*
X153507500Y-103456250D03*
X167207500Y-112236250D03*
X154707500Y-109696250D03*
D20*
X164407500Y-101256250D03*
%TD*%
D12*
%TO.C,D7*%
X114900000Y-102938000D03*
D11*
X114300000Y-102538000D03*
D12*
X113700000Y-98638000D03*
D11*
X114300000Y-99038000D03*
%TD*%
D17*
%TO.C,SW4*%
X167107500Y-69056250D03*
D15*
X165417500Y-71596250D03*
X161607500Y-63156250D03*
X156607500Y-65356250D03*
D16*
X166687500Y-69056250D03*
D18*
X161607500Y-69056250D03*
D16*
X156527500Y-69056250D03*
D15*
X166607500Y-65356250D03*
X157797500Y-71596250D03*
D17*
X156107500Y-69056250D03*
D15*
X159067500Y-74136250D03*
X164147500Y-74136250D03*
D19*
X167207500Y-74136250D03*
X153507500Y-65356250D03*
D20*
X164407500Y-63156250D03*
D19*
X154707500Y-71596250D03*
%TD*%
D28*
%TO.C,U1*%
X209588184Y-100271296D03*
X191921304Y-110431296D03*
D29*
X205588184Y-108687504D03*
D30*
X196088184Y-102687504D03*
D29*
X205588184Y-102687504D03*
D28*
X209588184Y-107891296D03*
X209588184Y-110431296D03*
X191921304Y-97731296D03*
D30*
X196088184Y-100687504D03*
X196088184Y-108687504D03*
D28*
X191921304Y-100271296D03*
D30*
X196088184Y-104687504D03*
D28*
X191921304Y-107891296D03*
X209588184Y-112971296D03*
D30*
X196063796Y-106687504D03*
D28*
X191921304Y-112971296D03*
D30*
X196088184Y-110687504D03*
X196063796Y-112687504D03*
D28*
X209588184Y-97731296D03*
D29*
X205563796Y-106687504D03*
D28*
X209588184Y-102811296D03*
X191921304Y-105351296D03*
X209588184Y-105351296D03*
D29*
X205563796Y-110687504D03*
X205588184Y-100687504D03*
X205588184Y-104687504D03*
X205563796Y-112687504D03*
D28*
X191921304Y-102811296D03*
D31*
X204588184Y-100687504D03*
X204588184Y-102687504D03*
X204588184Y-104687504D03*
X204563796Y-106687504D03*
X204588184Y-108687504D03*
X204563796Y-110687504D03*
X204563796Y-112687504D03*
D32*
X197063796Y-112687504D03*
X197088184Y-110687504D03*
X197088184Y-108687504D03*
X197063796Y-106687504D03*
X197088184Y-104687504D03*
X197088184Y-102687504D03*
X197088184Y-100687504D03*
D33*
X199536987Y-97044929D03*
X202076987Y-97044929D03*
%TD*%
D14*
%TO.C,REF\u002A\u002A*%
X184000000Y-135250000D03*
X184000000Y-135250000D03*
%TD*%
%TO.C,REF\u002A\u002A*%
X131800000Y-94800000D03*
X131800000Y-94800000D03*
%TD*%
D11*
%TO.C,D6*%
X112268000Y-102538000D03*
D12*
X112868000Y-102938000D03*
D11*
X112268000Y-99038000D03*
D12*
X111668000Y-98638000D03*
%TD*%
M02*
