%TF.GenerationSoftware,KiCad,Pcbnew,(6.0.7)*%
%TF.CreationDate,2022-09-23T16:10:08+09:00*%
%TF.ProjectId,selen-full_narrow_plate,73656c65-6e2d-4667-956c-6c5f6e617272,rev?*%
%TF.SameCoordinates,Original*%
%TF.FileFunction,Soldermask,Top*%
%TF.FilePolarity,Negative*%
%FSLAX46Y46*%
G04 Gerber Fmt 4.6, Leading zero omitted, Abs format (unit mm)*
G04 Created by KiCad (PCBNEW (6.0.7)) date 2022-09-23 16:10:08*
%MOMM*%
%LPD*%
G01*
G04 APERTURE LIST*
%ADD10C,0.150000*%
G04 APERTURE END LIST*
D10*
X108150000Y-76797380D02*
X108150000Y-75797380D01*
X108530952Y-75797380D01*
X108626190Y-75845000D01*
X108673809Y-75892619D01*
X108721428Y-75987857D01*
X108721428Y-76130714D01*
X108673809Y-76225952D01*
X108626190Y-76273571D01*
X108530952Y-76321190D01*
X108150000Y-76321190D01*
X109721428Y-76702142D02*
X109673809Y-76749761D01*
X109530952Y-76797380D01*
X109435714Y-76797380D01*
X109292857Y-76749761D01*
X109197619Y-76654523D01*
X109150000Y-76559285D01*
X109102380Y-76368809D01*
X109102380Y-76225952D01*
X109150000Y-76035476D01*
X109197619Y-75940238D01*
X109292857Y-75845000D01*
X109435714Y-75797380D01*
X109530952Y-75797380D01*
X109673809Y-75845000D01*
X109721428Y-75892619D01*
X110483333Y-76273571D02*
X110626190Y-76321190D01*
X110673809Y-76368809D01*
X110721428Y-76464047D01*
X110721428Y-76606904D01*
X110673809Y-76702142D01*
X110626190Y-76749761D01*
X110530952Y-76797380D01*
X110150000Y-76797380D01*
X110150000Y-75797380D01*
X110483333Y-75797380D01*
X110578571Y-75845000D01*
X110626190Y-75892619D01*
X110673809Y-75987857D01*
X110673809Y-76083095D01*
X110626190Y-76178333D01*
X110578571Y-76225952D01*
X110483333Y-76273571D01*
X110150000Y-76273571D01*
X111911904Y-76797380D02*
X111911904Y-75797380D01*
X112150000Y-75797380D01*
X112292857Y-75845000D01*
X112388095Y-75940238D01*
X112435714Y-76035476D01*
X112483333Y-76225952D01*
X112483333Y-76368809D01*
X112435714Y-76559285D01*
X112388095Y-76654523D01*
X112292857Y-76749761D01*
X112150000Y-76797380D01*
X111911904Y-76797380D01*
X113292857Y-76749761D02*
X113197619Y-76797380D01*
X113007142Y-76797380D01*
X112911904Y-76749761D01*
X112864285Y-76654523D01*
X112864285Y-76273571D01*
X112911904Y-76178333D01*
X113007142Y-76130714D01*
X113197619Y-76130714D01*
X113292857Y-76178333D01*
X113340476Y-76273571D01*
X113340476Y-76368809D01*
X112864285Y-76464047D01*
X113721428Y-76749761D02*
X113816666Y-76797380D01*
X114007142Y-76797380D01*
X114102380Y-76749761D01*
X114150000Y-76654523D01*
X114150000Y-76606904D01*
X114102380Y-76511666D01*
X114007142Y-76464047D01*
X113864285Y-76464047D01*
X113769047Y-76416428D01*
X113721428Y-76321190D01*
X113721428Y-76273571D01*
X113769047Y-76178333D01*
X113864285Y-76130714D01*
X114007142Y-76130714D01*
X114102380Y-76178333D01*
X114578571Y-76797380D02*
X114578571Y-76130714D01*
X114578571Y-75797380D02*
X114530952Y-75845000D01*
X114578571Y-75892619D01*
X114626190Y-75845000D01*
X114578571Y-75797380D01*
X114578571Y-75892619D01*
X115483333Y-76130714D02*
X115483333Y-76940238D01*
X115435714Y-77035476D01*
X115388095Y-77083095D01*
X115292857Y-77130714D01*
X115150000Y-77130714D01*
X115054761Y-77083095D01*
X115483333Y-76749761D02*
X115388095Y-76797380D01*
X115197619Y-76797380D01*
X115102380Y-76749761D01*
X115054761Y-76702142D01*
X115007142Y-76606904D01*
X115007142Y-76321190D01*
X115054761Y-76225952D01*
X115102380Y-76178333D01*
X115197619Y-76130714D01*
X115388095Y-76130714D01*
X115483333Y-76178333D01*
X115959523Y-76130714D02*
X115959523Y-76797380D01*
X115959523Y-76225952D02*
X116007142Y-76178333D01*
X116102380Y-76130714D01*
X116245238Y-76130714D01*
X116340476Y-76178333D01*
X116388095Y-76273571D01*
X116388095Y-76797380D01*
X117245238Y-76749761D02*
X117150000Y-76797380D01*
X116959523Y-76797380D01*
X116864285Y-76749761D01*
X116816666Y-76654523D01*
X116816666Y-76273571D01*
X116864285Y-76178333D01*
X116959523Y-76130714D01*
X117150000Y-76130714D01*
X117245238Y-76178333D01*
X117292857Y-76273571D01*
X117292857Y-76368809D01*
X116816666Y-76464047D01*
X118150000Y-76797380D02*
X118150000Y-75797380D01*
X118150000Y-76749761D02*
X118054761Y-76797380D01*
X117864285Y-76797380D01*
X117769047Y-76749761D01*
X117721428Y-76702142D01*
X117673809Y-76606904D01*
X117673809Y-76321190D01*
X117721428Y-76225952D01*
X117769047Y-76178333D01*
X117864285Y-76130714D01*
X118054761Y-76130714D01*
X118150000Y-76178333D01*
X108626190Y-78407380D02*
X108626190Y-77407380D01*
X108626190Y-77788333D02*
X108721428Y-77740714D01*
X108911904Y-77740714D01*
X109007142Y-77788333D01*
X109054761Y-77835952D01*
X109102380Y-77931190D01*
X109102380Y-78216904D01*
X109054761Y-78312142D01*
X109007142Y-78359761D01*
X108911904Y-78407380D01*
X108721428Y-78407380D01*
X108626190Y-78359761D01*
X109435714Y-77740714D02*
X109673809Y-78407380D01*
X109911904Y-77740714D02*
X109673809Y-78407380D01*
X109578571Y-78645476D01*
X109530952Y-78693095D01*
X109435714Y-78740714D01*
X111673809Y-77931190D02*
X111626190Y-77883571D01*
X111530952Y-77835952D01*
X111435714Y-77835952D01*
X111340476Y-77883571D01*
X111292857Y-77931190D01*
X111245238Y-78026428D01*
X111245238Y-78121666D01*
X111292857Y-78216904D01*
X111340476Y-78264523D01*
X111435714Y-78312142D01*
X111530952Y-78312142D01*
X111626190Y-78264523D01*
X111673809Y-78216904D01*
X111673809Y-77835952D02*
X111673809Y-78216904D01*
X111721428Y-78264523D01*
X111769047Y-78264523D01*
X111864285Y-78216904D01*
X111911904Y-78121666D01*
X111911904Y-77883571D01*
X111816666Y-77740714D01*
X111673809Y-77645476D01*
X111483333Y-77597857D01*
X111292857Y-77645476D01*
X111150000Y-77740714D01*
X111054761Y-77883571D01*
X111007142Y-78074047D01*
X111054761Y-78264523D01*
X111150000Y-78407380D01*
X111292857Y-78502619D01*
X111483333Y-78550238D01*
X111673809Y-78502619D01*
X111816666Y-78407380D01*
X112340476Y-77740714D02*
X112340476Y-78407380D01*
X112340476Y-77835952D02*
X112388095Y-77788333D01*
X112483333Y-77740714D01*
X112626190Y-77740714D01*
X112721428Y-77788333D01*
X112769047Y-77883571D01*
X112769047Y-78407380D01*
X113673809Y-78407380D02*
X113673809Y-77883571D01*
X113626190Y-77788333D01*
X113530952Y-77740714D01*
X113340476Y-77740714D01*
X113245238Y-77788333D01*
X113673809Y-78359761D02*
X113578571Y-78407380D01*
X113340476Y-78407380D01*
X113245238Y-78359761D01*
X113197619Y-78264523D01*
X113197619Y-78169285D01*
X113245238Y-78074047D01*
X113340476Y-78026428D01*
X113578571Y-78026428D01*
X113673809Y-77978809D01*
X114150000Y-78407380D02*
X114150000Y-77740714D01*
X114150000Y-77931190D02*
X114197619Y-77835952D01*
X114245238Y-77788333D01*
X114340476Y-77740714D01*
X114435714Y-77740714D01*
X114769047Y-78407380D02*
X114769047Y-77740714D01*
X114769047Y-77407380D02*
X114721428Y-77455000D01*
X114769047Y-77502619D01*
X114816666Y-77455000D01*
X114769047Y-77407380D01*
X114769047Y-77502619D01*
X115245238Y-77740714D02*
X115245238Y-78407380D01*
X115245238Y-77835952D02*
X115292857Y-77788333D01*
X115388095Y-77740714D01*
X115530952Y-77740714D01*
X115626190Y-77788333D01*
X115673809Y-77883571D01*
X115673809Y-78407380D01*
X116578571Y-78407380D02*
X116578571Y-77883571D01*
X116530952Y-77788333D01*
X116435714Y-77740714D01*
X116245238Y-77740714D01*
X116150000Y-77788333D01*
X116578571Y-78359761D02*
X116483333Y-78407380D01*
X116245238Y-78407380D01*
X116150000Y-78359761D01*
X116102380Y-78264523D01*
X116102380Y-78169285D01*
X116150000Y-78074047D01*
X116245238Y-78026428D01*
X116483333Y-78026428D01*
X116578571Y-77978809D01*
X117054761Y-78407380D02*
X117054761Y-77740714D01*
X117054761Y-77931190D02*
X117102380Y-77835952D01*
X117150000Y-77788333D01*
X117245238Y-77740714D01*
X117340476Y-77740714D01*
X117673809Y-78407380D02*
X117673809Y-77740714D01*
X117673809Y-77407380D02*
X117626190Y-77455000D01*
X117673809Y-77502619D01*
X117721428Y-77455000D01*
X117673809Y-77407380D01*
X117673809Y-77502619D01*
X114197738Y-71944761D02*
X114340595Y-71992380D01*
X114578690Y-71992380D01*
X114673928Y-71944761D01*
X114721547Y-71897142D01*
X114769166Y-71801904D01*
X114769166Y-71706666D01*
X114721547Y-71611428D01*
X114673928Y-71563809D01*
X114578690Y-71516190D01*
X114388214Y-71468571D01*
X114292976Y-71420952D01*
X114245357Y-71373333D01*
X114197738Y-71278095D01*
X114197738Y-71182857D01*
X114245357Y-71087619D01*
X114292976Y-71040000D01*
X114388214Y-70992380D01*
X114626309Y-70992380D01*
X114769166Y-71040000D01*
X115578690Y-71944761D02*
X115483452Y-71992380D01*
X115292976Y-71992380D01*
X115197738Y-71944761D01*
X115150119Y-71849523D01*
X115150119Y-71468571D01*
X115197738Y-71373333D01*
X115292976Y-71325714D01*
X115483452Y-71325714D01*
X115578690Y-71373333D01*
X115626309Y-71468571D01*
X115626309Y-71563809D01*
X115150119Y-71659047D01*
X116197738Y-71992380D02*
X116102500Y-71944761D01*
X116054880Y-71849523D01*
X116054880Y-70992380D01*
X116959642Y-71944761D02*
X116864404Y-71992380D01*
X116673928Y-71992380D01*
X116578690Y-71944761D01*
X116531071Y-71849523D01*
X116531071Y-71468571D01*
X116578690Y-71373333D01*
X116673928Y-71325714D01*
X116864404Y-71325714D01*
X116959642Y-71373333D01*
X117007261Y-71468571D01*
X117007261Y-71563809D01*
X116531071Y-71659047D01*
X117435833Y-71325714D02*
X117435833Y-71992380D01*
X117435833Y-71420952D02*
X117483452Y-71373333D01*
X117578690Y-71325714D01*
X117721547Y-71325714D01*
X117816785Y-71373333D01*
X117864404Y-71468571D01*
X117864404Y-71992380D01*
X113197738Y-72935714D02*
X113435833Y-73602380D01*
X113673928Y-72935714D01*
X114054880Y-73507142D02*
X114102500Y-73554761D01*
X114054880Y-73602380D01*
X114007261Y-73554761D01*
X114054880Y-73507142D01*
X114054880Y-73602380D01*
X114721547Y-72602380D02*
X114816785Y-72602380D01*
X114912023Y-72650000D01*
X114959642Y-72697619D01*
X115007261Y-72792857D01*
X115054880Y-72983333D01*
X115054880Y-73221428D01*
X115007261Y-73411904D01*
X114959642Y-73507142D01*
X114912023Y-73554761D01*
X114816785Y-73602380D01*
X114721547Y-73602380D01*
X114626309Y-73554761D01*
X114578690Y-73507142D01*
X114531071Y-73411904D01*
X114483452Y-73221428D01*
X114483452Y-72983333D01*
X114531071Y-72792857D01*
X114578690Y-72697619D01*
X114626309Y-72650000D01*
X114721547Y-72602380D01*
X115483452Y-73507142D02*
X115531071Y-73554761D01*
X115483452Y-73602380D01*
X115435833Y-73554761D01*
X115483452Y-73507142D01*
X115483452Y-73602380D01*
X115912023Y-72697619D02*
X115959642Y-72650000D01*
X116054880Y-72602380D01*
X116292976Y-72602380D01*
X116388214Y-72650000D01*
X116435833Y-72697619D01*
X116483452Y-72792857D01*
X116483452Y-72888095D01*
X116435833Y-73030952D01*
X115864404Y-73602380D01*
X116483452Y-73602380D01*
X116912023Y-73507142D02*
X116959642Y-73554761D01*
X116912023Y-73602380D01*
X116864404Y-73554761D01*
X116912023Y-73507142D01*
X116912023Y-73602380D01*
X117912023Y-73602380D02*
X117340595Y-73602380D01*
X117626309Y-73602380D02*
X117626309Y-72602380D01*
X117531071Y-72745238D01*
X117435833Y-72840476D01*
X117340595Y-72888095D01*
X113340595Y-74545714D02*
X113340595Y-75212380D01*
X113340595Y-74640952D02*
X113388214Y-74593333D01*
X113483452Y-74545714D01*
X113626309Y-74545714D01*
X113721547Y-74593333D01*
X113769166Y-74688571D01*
X113769166Y-75212380D01*
X114673928Y-75212380D02*
X114673928Y-74688571D01*
X114626309Y-74593333D01*
X114531071Y-74545714D01*
X114340595Y-74545714D01*
X114245357Y-74593333D01*
X114673928Y-75164761D02*
X114578690Y-75212380D01*
X114340595Y-75212380D01*
X114245357Y-75164761D01*
X114197738Y-75069523D01*
X114197738Y-74974285D01*
X114245357Y-74879047D01*
X114340595Y-74831428D01*
X114578690Y-74831428D01*
X114673928Y-74783809D01*
X115150119Y-75212380D02*
X115150119Y-74545714D01*
X115150119Y-74736190D02*
X115197738Y-74640952D01*
X115245357Y-74593333D01*
X115340595Y-74545714D01*
X115435833Y-74545714D01*
X115769166Y-75212380D02*
X115769166Y-74545714D01*
X115769166Y-74736190D02*
X115816785Y-74640952D01*
X115864404Y-74593333D01*
X115959642Y-74545714D01*
X116054880Y-74545714D01*
X116531071Y-75212380D02*
X116435833Y-75164761D01*
X116388214Y-75117142D01*
X116340595Y-75021904D01*
X116340595Y-74736190D01*
X116388214Y-74640952D01*
X116435833Y-74593333D01*
X116531071Y-74545714D01*
X116673928Y-74545714D01*
X116769166Y-74593333D01*
X116816785Y-74640952D01*
X116864404Y-74736190D01*
X116864404Y-75021904D01*
X116816785Y-75117142D01*
X116769166Y-75164761D01*
X116673928Y-75212380D01*
X116531071Y-75212380D01*
X117197738Y-74545714D02*
X117388214Y-75212380D01*
X117578690Y-74736190D01*
X117769166Y-75212380D01*
X117959642Y-74545714D01*
X152576190Y-57002380D02*
X152004761Y-57002380D01*
X152290476Y-57002380D02*
X152290476Y-56002380D01*
X152195238Y-56145238D01*
X152100000Y-56240476D01*
X152004761Y-56288095D01*
X153195238Y-56002380D02*
X153290476Y-56002380D01*
X153385714Y-56050000D01*
X153433333Y-56097619D01*
X153480952Y-56192857D01*
X153528571Y-56383333D01*
X153528571Y-56621428D01*
X153480952Y-56811904D01*
X153433333Y-56907142D01*
X153385714Y-56954761D01*
X153290476Y-57002380D01*
X153195238Y-57002380D01*
X153100000Y-56954761D01*
X153052380Y-56907142D01*
X153004761Y-56811904D01*
X152957142Y-56621428D01*
X152957142Y-56383333D01*
X153004761Y-56192857D01*
X153052380Y-56097619D01*
X153100000Y-56050000D01*
X153195238Y-56002380D01*
X154004761Y-57002380D02*
X154195238Y-57002380D01*
X154290476Y-56954761D01*
X154338095Y-56907142D01*
X154433333Y-56764285D01*
X154480952Y-56573809D01*
X154480952Y-56192857D01*
X154433333Y-56097619D01*
X154385714Y-56050000D01*
X154290476Y-56002380D01*
X154100000Y-56002380D01*
X154004761Y-56050000D01*
X153957142Y-56097619D01*
X153909523Y-56192857D01*
X153909523Y-56430952D01*
X153957142Y-56526190D01*
X154004761Y-56573809D01*
X154100000Y-56621428D01*
X154290476Y-56621428D01*
X154385714Y-56573809D01*
X154433333Y-56526190D01*
X154480952Y-56430952D01*
X154909523Y-56907142D02*
X154957142Y-56954761D01*
X154909523Y-57002380D01*
X154861904Y-56954761D01*
X154909523Y-56907142D01*
X154909523Y-57002380D01*
X155528571Y-56430952D02*
X155433333Y-56383333D01*
X155385714Y-56335714D01*
X155338095Y-56240476D01*
X155338095Y-56192857D01*
X155385714Y-56097619D01*
X155433333Y-56050000D01*
X155528571Y-56002380D01*
X155719047Y-56002380D01*
X155814285Y-56050000D01*
X155861904Y-56097619D01*
X155909523Y-56192857D01*
X155909523Y-56240476D01*
X155861904Y-56335714D01*
X155814285Y-56383333D01*
X155719047Y-56430952D01*
X155528571Y-56430952D01*
X155433333Y-56478571D01*
X155385714Y-56526190D01*
X155338095Y-56621428D01*
X155338095Y-56811904D01*
X155385714Y-56907142D01*
X155433333Y-56954761D01*
X155528571Y-57002380D01*
X155719047Y-57002380D01*
X155814285Y-56954761D01*
X155861904Y-56907142D01*
X155909523Y-56811904D01*
X155909523Y-56621428D01*
X155861904Y-56526190D01*
X155814285Y-56478571D01*
X155719047Y-56430952D01*
X156528571Y-56002380D02*
X156623809Y-56002380D01*
X156719047Y-56050000D01*
X156766666Y-56097619D01*
X156814285Y-56192857D01*
X156861904Y-56383333D01*
X156861904Y-56621428D01*
X156814285Y-56811904D01*
X156766666Y-56907142D01*
X156719047Y-56954761D01*
X156623809Y-57002380D01*
X156528571Y-57002380D01*
X156433333Y-56954761D01*
X156385714Y-56907142D01*
X156338095Y-56811904D01*
X156290476Y-56621428D01*
X156290476Y-56383333D01*
X156338095Y-56192857D01*
X156385714Y-56097619D01*
X156433333Y-56050000D01*
X156528571Y-56002380D01*
X157480952Y-56002380D02*
X157576190Y-56002380D01*
X157671428Y-56050000D01*
X157719047Y-56097619D01*
X157766666Y-56192857D01*
X157814285Y-56383333D01*
X157814285Y-56621428D01*
X157766666Y-56811904D01*
X157719047Y-56907142D01*
X157671428Y-56954761D01*
X157576190Y-57002380D01*
X157480952Y-57002380D01*
X157385714Y-56954761D01*
X157338095Y-56907142D01*
X157290476Y-56811904D01*
X157242857Y-56621428D01*
X157242857Y-56383333D01*
X157290476Y-56192857D01*
X157338095Y-56097619D01*
X157385714Y-56050000D01*
X157480952Y-56002380D01*
X158433333Y-56002380D02*
X158528571Y-56002380D01*
X158623809Y-56050000D01*
X158671428Y-56097619D01*
X158719047Y-56192857D01*
X158766666Y-56383333D01*
X158766666Y-56621428D01*
X158719047Y-56811904D01*
X158671428Y-56907142D01*
X158623809Y-56954761D01*
X158528571Y-57002380D01*
X158433333Y-57002380D01*
X158338095Y-56954761D01*
X158290476Y-56907142D01*
X158242857Y-56811904D01*
X158195238Y-56621428D01*
X158195238Y-56383333D01*
X158242857Y-56192857D01*
X158290476Y-56097619D01*
X158338095Y-56050000D01*
X158433333Y-56002380D01*
X159957142Y-57002380D02*
X159957142Y-56335714D01*
X159957142Y-56430952D02*
X160004761Y-56383333D01*
X160100000Y-56335714D01*
X160242857Y-56335714D01*
X160338095Y-56383333D01*
X160385714Y-56478571D01*
X160385714Y-57002380D01*
X160385714Y-56478571D02*
X160433333Y-56383333D01*
X160528571Y-56335714D01*
X160671428Y-56335714D01*
X160766666Y-56383333D01*
X160814285Y-56478571D01*
X160814285Y-57002380D01*
X161290476Y-57002380D02*
X161290476Y-56335714D01*
X161290476Y-56430952D02*
X161338095Y-56383333D01*
X161433333Y-56335714D01*
X161576190Y-56335714D01*
X161671428Y-56383333D01*
X161719047Y-56478571D01*
X161719047Y-57002380D01*
X161719047Y-56478571D02*
X161766666Y-56383333D01*
X161861904Y-56335714D01*
X162004761Y-56335714D01*
X162100000Y-56383333D01*
X162147619Y-56478571D01*
X162147619Y-57002380D01*
X212000000Y-61000000D02*
X212000000Y-57113580D01*
X102200000Y-61000000D02*
X102200000Y-57113580D01*
X212000000Y-57700000D02*
X102200000Y-57700000D01*
X212000000Y-57700000D02*
X102200000Y-57700000D01*
X212000000Y-57700000D02*
X210873496Y-57113579D01*
X212000000Y-57700000D02*
X210873496Y-58286421D01*
X102200000Y-57700000D02*
X103326504Y-58286421D01*
X102200000Y-57700000D02*
X103326504Y-57113579D01*
M02*
