%TF.GenerationSoftware,KiCad,Pcbnew,(6.0.7)*%
%TF.CreationDate,2022-09-23T16:10:09+09:00*%
%TF.ProjectId,selen-full_narrow_plate,73656c65-6e2d-4667-956c-6c5f6e617272,rev?*%
%TF.SameCoordinates,Original*%
%TF.FileFunction,Profile,NP*%
%FSLAX46Y46*%
G04 Gerber Fmt 4.6, Leading zero omitted, Abs format (unit mm)*
G04 Created by KiCad (PCBNEW (6.0.7)) date 2022-09-23 16:10:09*
%MOMM*%
%LPD*%
G01*
G04 APERTURE LIST*
%TA.AperFunction,Profile*%
%ADD10C,0.100000*%
%TD*%
G04 APERTURE END LIST*
D10*
X206600000Y-113000000D02*
X195200000Y-113000000D01*
X206600000Y-115000000D02*
X206600000Y-113000000D01*
X195200000Y-115000000D02*
X206600000Y-115000000D01*
X195200000Y-113000000D02*
X195200000Y-115000000D01*
X194400000Y-96100000D02*
X195400000Y-96100000D01*
X195400000Y-101100000D02*
X194400000Y-101100000D01*
X194400000Y-101100000D02*
X194400000Y-96100000D01*
X195400000Y-96100000D02*
X195400000Y-101100000D01*
X207000000Y-101200000D02*
X206000000Y-101200000D01*
X207000000Y-96200000D02*
X207000000Y-101200000D01*
X206000000Y-96200000D02*
X207000000Y-96200000D01*
X206000000Y-101200000D02*
X206000000Y-96200000D01*
X208236581Y-134551752D02*
X208536797Y-133627784D01*
X208999837Y-134799749D02*
X208236581Y-134551752D01*
X208999837Y-134799749D02*
X208999837Y-134799749D01*
X207918263Y-138128490D02*
X207918263Y-138128490D01*
X206364170Y-142911496D02*
X206364170Y-142911496D01*
X207155008Y-137880493D02*
X207155008Y-137880493D01*
X208536797Y-133627784D02*
X195250340Y-129310757D01*
X191531543Y-138092087D02*
X191531543Y-138092087D01*
X190933309Y-142597213D02*
X190933309Y-142597213D01*
X191232885Y-141675213D02*
X190933309Y-142597213D01*
X208236581Y-134551752D02*
X208236581Y-134551752D01*
X191531543Y-138092087D02*
X190449969Y-141420829D01*
X195250340Y-129310757D02*
X194950125Y-130234724D01*
X192314459Y-138346472D02*
X192314459Y-138346472D01*
X207155008Y-137880493D02*
X207918263Y-138128490D01*
X194950125Y-130234724D02*
X194950125Y-130234724D01*
X190449969Y-141420829D02*
X190449969Y-141420829D01*
X206364170Y-142911496D02*
X205600915Y-142663499D01*
X193085636Y-133309081D02*
X193868551Y-133563466D01*
X193868551Y-133563466D02*
X193868551Y-133563466D01*
X190933309Y-142597213D02*
X204219764Y-146914244D01*
X194950125Y-130234724D02*
X194167210Y-129980340D01*
X205600915Y-142663499D02*
X207155008Y-137880493D01*
X205282597Y-146240237D02*
X205282597Y-146240237D01*
X204219764Y-146914244D02*
X204519342Y-145992240D01*
X193085636Y-133309081D02*
X193085636Y-133309081D01*
X204219764Y-146914244D02*
X204219764Y-146914244D01*
X204519342Y-145992240D02*
X204519342Y-145992240D01*
X192314459Y-138346472D02*
X191531543Y-138092087D01*
X193868551Y-133563466D02*
X192314459Y-138346472D01*
X205282597Y-146240237D02*
X206364170Y-142911496D01*
X204519342Y-145992240D02*
X205282597Y-146240237D01*
X208536797Y-133627784D02*
X208536797Y-133627784D01*
X207918263Y-138128490D02*
X208999837Y-134799749D01*
X194167210Y-129980340D02*
X194167210Y-129980340D01*
X194167210Y-129980340D02*
X193085636Y-133309081D01*
X190449969Y-141420829D02*
X191232885Y-141675213D01*
X191232885Y-141675213D02*
X191232885Y-141675213D01*
X205600915Y-142663499D02*
X205600915Y-142663499D01*
X187925816Y-127846079D02*
X188027368Y-126879883D01*
X188723954Y-127929966D02*
X187925816Y-127846079D01*
X188723954Y-127929966D02*
X188723954Y-127929966D01*
X188358100Y-131410838D02*
X188358100Y-131410838D01*
X187832410Y-136412437D02*
X187832410Y-136412437D01*
X187559962Y-131326950D02*
X187559962Y-131326950D01*
X188027368Y-126879883D02*
X174133691Y-125419602D01*
X172321900Y-134782221D02*
X172321900Y-134782221D01*
X172673407Y-139313279D02*
X172673407Y-139313279D01*
X172774742Y-138349142D02*
X172673407Y-139313279D01*
X187925816Y-127846079D02*
X187925816Y-127846079D01*
X172321900Y-134782221D02*
X171956046Y-138263093D01*
X174133691Y-125419602D02*
X174032140Y-126385797D01*
X173140596Y-134868270D02*
X173140596Y-134868270D01*
X187559962Y-131326950D02*
X188358100Y-131410838D01*
X174032140Y-126385797D02*
X174032140Y-126385797D01*
X171956046Y-138263093D02*
X171956046Y-138263093D01*
X187832410Y-136412437D02*
X187034273Y-136328550D01*
X172847589Y-129780621D02*
X173666286Y-129866670D01*
X173666286Y-129866670D02*
X173666286Y-129866670D01*
X172673407Y-139313279D02*
X186567083Y-140773563D01*
X174032140Y-126385797D02*
X173213444Y-126299749D01*
X187034273Y-136328550D02*
X187559962Y-131326950D01*
X187466556Y-139893310D02*
X187466556Y-139893310D01*
X186567083Y-140773563D02*
X186668418Y-139809422D01*
X172847589Y-129780621D02*
X172847589Y-129780621D01*
X186567083Y-140773563D02*
X186567083Y-140773563D01*
X186668418Y-139809422D02*
X186668418Y-139809422D01*
X173140596Y-134868270D02*
X172321900Y-134782221D01*
X173666286Y-129866670D02*
X173140596Y-134868270D01*
X187466556Y-139893310D02*
X187832410Y-136412437D01*
X186668418Y-139809422D02*
X187466556Y-139893310D01*
X188027368Y-126879883D02*
X188027368Y-126879883D01*
X188358100Y-131410838D02*
X188723954Y-127929966D01*
X173213444Y-126299749D02*
X173213444Y-126299749D01*
X173213444Y-126299749D02*
X172847589Y-129780621D01*
X171956046Y-138263093D02*
X172774742Y-138349142D01*
X172774742Y-138349142D02*
X172774742Y-138349142D01*
X187034273Y-136328550D02*
X187034273Y-136328550D01*
X187335439Y-105746413D02*
X187335439Y-104774895D01*
X188137973Y-105746413D02*
X187335439Y-105746413D01*
X188137973Y-105746413D02*
X188137973Y-105746413D01*
X188137973Y-109246458D02*
X188137973Y-109246458D01*
X188137973Y-114275608D02*
X188137973Y-114275608D01*
X187335439Y-109246458D02*
X187335439Y-109246458D01*
X187335439Y-104774895D02*
X173365233Y-104774899D01*
X172542027Y-114275612D02*
X172542027Y-114275612D01*
X173365233Y-118745106D02*
X173365233Y-118745106D01*
X173365233Y-117775658D02*
X173365233Y-118745106D01*
X187335439Y-105746413D02*
X187335439Y-105746413D01*
X172542027Y-114275612D02*
X172542027Y-117775658D01*
X173365233Y-104774899D02*
X173365233Y-105746416D01*
X173365233Y-114275612D02*
X173365233Y-114275612D01*
X187335439Y-109246458D02*
X188137973Y-109246458D01*
X173365233Y-105746416D02*
X173365233Y-105746416D01*
X172542027Y-117775658D02*
X172542027Y-117775658D01*
X188137973Y-114275608D02*
X187335439Y-114275608D01*
X172542027Y-109246462D02*
X173365233Y-109246462D01*
X173365233Y-109246462D02*
X173365233Y-109246462D01*
X173365233Y-118745106D02*
X187335439Y-118745106D01*
X173365233Y-105746416D02*
X172542027Y-105746416D01*
X187335439Y-114275608D02*
X187335439Y-109246458D01*
X188137973Y-117775654D02*
X188137973Y-117775654D01*
X187335439Y-118745106D02*
X187335439Y-117775654D01*
X172542027Y-109246462D02*
X172542027Y-109246462D01*
X187335439Y-118745106D02*
X187335439Y-118745106D01*
X187335439Y-117775654D02*
X187335439Y-117775654D01*
X173365233Y-114275612D02*
X172542027Y-114275612D01*
X173365233Y-109246462D02*
X173365233Y-114275612D01*
X188137973Y-117775654D02*
X188137973Y-114275608D01*
X187335439Y-117775654D02*
X188137973Y-117775654D01*
X187335439Y-104774895D02*
X187335439Y-104774895D01*
X188137973Y-109246458D02*
X188137973Y-105746413D01*
X172542027Y-105746416D02*
X172542027Y-105746416D01*
X172542027Y-105746416D02*
X172542027Y-109246462D01*
X172542027Y-117775658D02*
X173365233Y-117775658D01*
X173365233Y-117775658D02*
X173365233Y-117775658D01*
X187335439Y-114275608D02*
X187335439Y-114275608D01*
X187335439Y-89746163D02*
X187335439Y-88774645D01*
X188137973Y-89746163D02*
X187335439Y-89746163D01*
X188137973Y-89746163D02*
X188137973Y-89746163D01*
X188137973Y-93246208D02*
X188137973Y-93246208D01*
X188137973Y-98275358D02*
X188137973Y-98275358D01*
X187335439Y-93246208D02*
X187335439Y-93246208D01*
X187335439Y-88774645D02*
X173365233Y-88774649D01*
X172542027Y-98275362D02*
X172542027Y-98275362D01*
X173365233Y-102744856D02*
X173365233Y-102744856D01*
X173365233Y-101775408D02*
X173365233Y-102744856D01*
X187335439Y-89746163D02*
X187335439Y-89746163D01*
X172542027Y-98275362D02*
X172542027Y-101775408D01*
X173365233Y-88774649D02*
X173365233Y-89746166D01*
X173365233Y-98275362D02*
X173365233Y-98275362D01*
X187335439Y-93246208D02*
X188137973Y-93246208D01*
X173365233Y-89746166D02*
X173365233Y-89746166D01*
X172542027Y-101775408D02*
X172542027Y-101775408D01*
X188137973Y-98275358D02*
X187335439Y-98275358D01*
X172542027Y-93246212D02*
X173365233Y-93246212D01*
X173365233Y-93246212D02*
X173365233Y-93246212D01*
X173365233Y-102744856D02*
X187335439Y-102744856D01*
X173365233Y-89746166D02*
X172542027Y-89746166D01*
X187335439Y-98275358D02*
X187335439Y-93246208D01*
X188137973Y-101775404D02*
X188137973Y-101775404D01*
X187335439Y-102744856D02*
X187335439Y-101775404D01*
X172542027Y-93246212D02*
X172542027Y-93246212D01*
X187335439Y-102744856D02*
X187335439Y-102744856D01*
X187335439Y-101775404D02*
X187335439Y-101775404D01*
X173365233Y-98275362D02*
X172542027Y-98275362D01*
X173365233Y-93246212D02*
X173365233Y-98275362D01*
X188137973Y-101775404D02*
X188137973Y-98275358D01*
X187335439Y-101775404D02*
X188137973Y-101775404D01*
X187335439Y-88774645D02*
X187335439Y-88774645D01*
X188137973Y-93246208D02*
X188137973Y-89746163D01*
X172542027Y-89746166D02*
X172542027Y-89746166D01*
X172542027Y-89746166D02*
X172542027Y-93246212D01*
X172542027Y-101775408D02*
X173365233Y-101775408D01*
X173365233Y-101775408D02*
X173365233Y-101775408D01*
X187335439Y-98275358D02*
X187335439Y-98275358D01*
X187335439Y-73746163D02*
X187335439Y-72774645D01*
X188137973Y-73746163D02*
X187335439Y-73746163D01*
X188137973Y-73746163D02*
X188137973Y-73746163D01*
X188137973Y-77246208D02*
X188137973Y-77246208D01*
X188137973Y-82275358D02*
X188137973Y-82275358D01*
X187335439Y-77246208D02*
X187335439Y-77246208D01*
X187335439Y-72774645D02*
X173365233Y-72774649D01*
X172542027Y-82275362D02*
X172542027Y-82275362D01*
X173365233Y-86744856D02*
X173365233Y-86744856D01*
X173365233Y-85775408D02*
X173365233Y-86744856D01*
X187335439Y-73746163D02*
X187335439Y-73746163D01*
X172542027Y-82275362D02*
X172542027Y-85775408D01*
X173365233Y-72774649D02*
X173365233Y-73746166D01*
X173365233Y-82275362D02*
X173365233Y-82275362D01*
X187335439Y-77246208D02*
X188137973Y-77246208D01*
X173365233Y-73746166D02*
X173365233Y-73746166D01*
X172542027Y-85775408D02*
X172542027Y-85775408D01*
X188137973Y-82275358D02*
X187335439Y-82275358D01*
X172542027Y-77246212D02*
X173365233Y-77246212D01*
X173365233Y-77246212D02*
X173365233Y-77246212D01*
X173365233Y-86744856D02*
X187335439Y-86744856D01*
X173365233Y-73746166D02*
X172542027Y-73746166D01*
X187335439Y-82275358D02*
X187335439Y-77246208D01*
X188137973Y-85775404D02*
X188137973Y-85775404D01*
X187335439Y-86744856D02*
X187335439Y-85775404D01*
X172542027Y-77246212D02*
X172542027Y-77246212D01*
X187335439Y-86744856D02*
X187335439Y-86744856D01*
X187335439Y-85775404D02*
X187335439Y-85775404D01*
X173365233Y-82275362D02*
X172542027Y-82275362D01*
X173365233Y-77246212D02*
X173365233Y-82275362D01*
X188137973Y-85775404D02*
X188137973Y-82275358D01*
X187335439Y-85775404D02*
X188137973Y-85775404D01*
X187335439Y-72774645D02*
X187335439Y-72774645D01*
X188137973Y-77246208D02*
X188137973Y-73746163D01*
X172542027Y-73746166D02*
X172542027Y-73746166D01*
X172542027Y-73746166D02*
X172542027Y-77246212D01*
X172542027Y-85775408D02*
X173365233Y-85775408D01*
X173365233Y-85775408D02*
X173365233Y-85775408D01*
X187335439Y-82275358D02*
X187335439Y-82275358D01*
X171335939Y-101142663D02*
X171335939Y-100171145D01*
X172138473Y-101142663D02*
X171335939Y-101142663D01*
X172138473Y-101142663D02*
X172138473Y-101142663D01*
X172138473Y-104642708D02*
X172138473Y-104642708D01*
X172138473Y-109671858D02*
X172138473Y-109671858D01*
X171335939Y-104642708D02*
X171335939Y-104642708D01*
X171335939Y-100171145D02*
X157365733Y-100171149D01*
X156542527Y-109671862D02*
X156542527Y-109671862D01*
X157365733Y-114141356D02*
X157365733Y-114141356D01*
X157365733Y-113171908D02*
X157365733Y-114141356D01*
X171335939Y-101142663D02*
X171335939Y-101142663D01*
X156542527Y-109671862D02*
X156542527Y-113171908D01*
X157365733Y-100171149D02*
X157365733Y-101142666D01*
X157365733Y-109671862D02*
X157365733Y-109671862D01*
X171335939Y-104642708D02*
X172138473Y-104642708D01*
X157365733Y-101142666D02*
X157365733Y-101142666D01*
X156542527Y-113171908D02*
X156542527Y-113171908D01*
X172138473Y-109671858D02*
X171335939Y-109671858D01*
X156542527Y-104642712D02*
X157365733Y-104642712D01*
X157365733Y-104642712D02*
X157365733Y-104642712D01*
X157365733Y-114141356D02*
X171335939Y-114141356D01*
X157365733Y-101142666D02*
X156542527Y-101142666D01*
X171335939Y-109671858D02*
X171335939Y-104642708D01*
X172138473Y-113171904D02*
X172138473Y-113171904D01*
X171335939Y-114141356D02*
X171335939Y-113171904D01*
X156542527Y-104642712D02*
X156542527Y-104642712D01*
X171335939Y-114141356D02*
X171335939Y-114141356D01*
X171335939Y-113171904D02*
X171335939Y-113171904D01*
X157365733Y-109671862D02*
X156542527Y-109671862D01*
X157365733Y-104642712D02*
X157365733Y-109671862D01*
X172138473Y-113171904D02*
X172138473Y-109671858D01*
X171335939Y-113171904D02*
X172138473Y-113171904D01*
X171335939Y-100171145D02*
X171335939Y-100171145D01*
X172138473Y-104642708D02*
X172138473Y-101142663D01*
X156542527Y-101142666D02*
X156542527Y-101142666D01*
X156542527Y-101142666D02*
X156542527Y-104642712D01*
X156542527Y-113171908D02*
X157365733Y-113171908D01*
X157365733Y-113171908D02*
X157365733Y-113171908D01*
X171335939Y-109671858D02*
X171335939Y-109671858D01*
X155336439Y-96380163D02*
X155336439Y-95408645D01*
X156138973Y-96380163D02*
X155336439Y-96380163D01*
X156138973Y-96380163D02*
X156138973Y-96380163D01*
X156138973Y-99880208D02*
X156138973Y-99880208D01*
X156138973Y-104909358D02*
X156138973Y-104909358D01*
X155336439Y-99880208D02*
X155336439Y-99880208D01*
X155336439Y-95408645D02*
X141366233Y-95408649D01*
X140543027Y-104909362D02*
X140543027Y-104909362D01*
X141366233Y-109378856D02*
X141366233Y-109378856D01*
X141366233Y-108409408D02*
X141366233Y-109378856D01*
X155336439Y-96380163D02*
X155336439Y-96380163D01*
X140543027Y-104909362D02*
X140543027Y-108409408D01*
X141366233Y-95408649D02*
X141366233Y-96380166D01*
X141366233Y-104909362D02*
X141366233Y-104909362D01*
X155336439Y-99880208D02*
X156138973Y-99880208D01*
X141366233Y-96380166D02*
X141366233Y-96380166D01*
X140543027Y-108409408D02*
X140543027Y-108409408D01*
X156138973Y-104909358D02*
X155336439Y-104909358D01*
X140543027Y-99880212D02*
X141366233Y-99880212D01*
X141366233Y-99880212D02*
X141366233Y-99880212D01*
X141366233Y-109378856D02*
X155336439Y-109378856D01*
X141366233Y-96380166D02*
X140543027Y-96380166D01*
X155336439Y-104909358D02*
X155336439Y-99880208D01*
X156138973Y-108409404D02*
X156138973Y-108409404D01*
X155336439Y-109378856D02*
X155336439Y-108409404D01*
X140543027Y-99880212D02*
X140543027Y-99880212D01*
X155336439Y-109378856D02*
X155336439Y-109378856D01*
X155336439Y-108409404D02*
X155336439Y-108409404D01*
X141366233Y-104909362D02*
X140543027Y-104909362D01*
X141366233Y-99880212D02*
X141366233Y-104909362D01*
X156138973Y-108409404D02*
X156138973Y-104909358D01*
X155336439Y-108409404D02*
X156138973Y-108409404D01*
X155336439Y-95408645D02*
X155336439Y-95408645D01*
X156138973Y-99880208D02*
X156138973Y-96380163D01*
X140543027Y-96380166D02*
X140543027Y-96380166D01*
X140543027Y-96380166D02*
X140543027Y-99880212D01*
X140543027Y-108409408D02*
X141366233Y-108409408D01*
X141366233Y-108409408D02*
X141366233Y-108409408D01*
X155336439Y-104909358D02*
X155336439Y-104909358D01*
X171335939Y-85142663D02*
X171335939Y-84171145D01*
X172138473Y-85142663D02*
X171335939Y-85142663D01*
X172138473Y-85142663D02*
X172138473Y-85142663D01*
X172138473Y-88642708D02*
X172138473Y-88642708D01*
X172138473Y-93671858D02*
X172138473Y-93671858D01*
X171335939Y-88642708D02*
X171335939Y-88642708D01*
X171335939Y-84171145D02*
X157365733Y-84171149D01*
X156542527Y-93671862D02*
X156542527Y-93671862D01*
X157365733Y-98141356D02*
X157365733Y-98141356D01*
X157365733Y-97171908D02*
X157365733Y-98141356D01*
X171335939Y-85142663D02*
X171335939Y-85142663D01*
X156542527Y-93671862D02*
X156542527Y-97171908D01*
X157365733Y-84171149D02*
X157365733Y-85142666D01*
X157365733Y-93671862D02*
X157365733Y-93671862D01*
X171335939Y-88642708D02*
X172138473Y-88642708D01*
X157365733Y-85142666D02*
X157365733Y-85142666D01*
X156542527Y-97171908D02*
X156542527Y-97171908D01*
X172138473Y-93671858D02*
X171335939Y-93671858D01*
X156542527Y-88642712D02*
X157365733Y-88642712D01*
X157365733Y-88642712D02*
X157365733Y-88642712D01*
X157365733Y-98141356D02*
X171335939Y-98141356D01*
X157365733Y-85142666D02*
X156542527Y-85142666D01*
X171335939Y-93671858D02*
X171335939Y-88642708D01*
X172138473Y-97171904D02*
X172138473Y-97171904D01*
X171335939Y-98141356D02*
X171335939Y-97171904D01*
X156542527Y-88642712D02*
X156542527Y-88642712D01*
X171335939Y-98141356D02*
X171335939Y-98141356D01*
X171335939Y-97171904D02*
X171335939Y-97171904D01*
X157365733Y-93671862D02*
X156542527Y-93671862D01*
X157365733Y-88642712D02*
X157365733Y-93671862D01*
X172138473Y-97171904D02*
X172138473Y-93671858D01*
X171335939Y-97171904D02*
X172138473Y-97171904D01*
X171335939Y-84171145D02*
X171335939Y-84171145D01*
X172138473Y-88642708D02*
X172138473Y-85142663D01*
X156542527Y-85142666D02*
X156542527Y-85142666D01*
X156542527Y-85142666D02*
X156542527Y-88642712D01*
X156542527Y-97171908D02*
X157365733Y-97171908D01*
X157365733Y-97171908D02*
X157365733Y-97171908D01*
X171335939Y-93671858D02*
X171335939Y-93671858D01*
X155336439Y-80380163D02*
X155336439Y-79408645D01*
X156138973Y-80380163D02*
X155336439Y-80380163D01*
X156138973Y-80380163D02*
X156138973Y-80380163D01*
X156138973Y-83880208D02*
X156138973Y-83880208D01*
X156138973Y-88909358D02*
X156138973Y-88909358D01*
X155336439Y-83880208D02*
X155336439Y-83880208D01*
X155336439Y-79408645D02*
X141366233Y-79408649D01*
X140543027Y-88909362D02*
X140543027Y-88909362D01*
X141366233Y-93378856D02*
X141366233Y-93378856D01*
X141366233Y-92409408D02*
X141366233Y-93378856D01*
X155336439Y-80380163D02*
X155336439Y-80380163D01*
X140543027Y-88909362D02*
X140543027Y-92409408D01*
X141366233Y-79408649D02*
X141366233Y-80380166D01*
X141366233Y-88909362D02*
X141366233Y-88909362D01*
X155336439Y-83880208D02*
X156138973Y-83880208D01*
X141366233Y-80380166D02*
X141366233Y-80380166D01*
X140543027Y-92409408D02*
X140543027Y-92409408D01*
X156138973Y-88909358D02*
X155336439Y-88909358D01*
X140543027Y-83880212D02*
X141366233Y-83880212D01*
X141366233Y-83880212D02*
X141366233Y-83880212D01*
X141366233Y-93378856D02*
X155336439Y-93378856D01*
X141366233Y-80380166D02*
X140543027Y-80380166D01*
X155336439Y-88909358D02*
X155336439Y-83880208D01*
X156138973Y-92409404D02*
X156138973Y-92409404D01*
X155336439Y-93378856D02*
X155336439Y-92409404D01*
X140543027Y-83880212D02*
X140543027Y-83880212D01*
X155336439Y-93378856D02*
X155336439Y-93378856D01*
X155336439Y-92409404D02*
X155336439Y-92409404D01*
X141366233Y-88909362D02*
X140543027Y-88909362D01*
X141366233Y-83880212D02*
X141366233Y-88909362D01*
X156138973Y-92409404D02*
X156138973Y-88909358D01*
X155336439Y-92409404D02*
X156138973Y-92409404D01*
X155336439Y-79408645D02*
X155336439Y-79408645D01*
X156138973Y-83880208D02*
X156138973Y-80380163D01*
X140543027Y-80380166D02*
X140543027Y-80380166D01*
X140543027Y-80380166D02*
X140543027Y-83880212D01*
X140543027Y-92409408D02*
X141366233Y-92409408D01*
X141366233Y-92409408D02*
X141366233Y-92409408D01*
X155336439Y-88909358D02*
X155336439Y-88909358D01*
X171335939Y-69142663D02*
X171335939Y-68171145D01*
X172138473Y-69142663D02*
X171335939Y-69142663D01*
X172138473Y-69142663D02*
X172138473Y-69142663D01*
X172138473Y-72642708D02*
X172138473Y-72642708D01*
X172138473Y-77671858D02*
X172138473Y-77671858D01*
X171335939Y-72642708D02*
X171335939Y-72642708D01*
X171335939Y-68171145D02*
X157365733Y-68171149D01*
X156542527Y-77671862D02*
X156542527Y-77671862D01*
X157365733Y-82141356D02*
X157365733Y-82141356D01*
X157365733Y-81171908D02*
X157365733Y-82141356D01*
X171335939Y-69142663D02*
X171335939Y-69142663D01*
X156542527Y-77671862D02*
X156542527Y-81171908D01*
X157365733Y-68171149D02*
X157365733Y-69142666D01*
X157365733Y-77671862D02*
X157365733Y-77671862D01*
X171335939Y-72642708D02*
X172138473Y-72642708D01*
X157365733Y-69142666D02*
X157365733Y-69142666D01*
X156542527Y-81171908D02*
X156542527Y-81171908D01*
X172138473Y-77671858D02*
X171335939Y-77671858D01*
X156542527Y-72642712D02*
X157365733Y-72642712D01*
X157365733Y-72642712D02*
X157365733Y-72642712D01*
X157365733Y-82141356D02*
X171335939Y-82141356D01*
X157365733Y-69142666D02*
X156542527Y-69142666D01*
X171335939Y-77671858D02*
X171335939Y-72642708D01*
X172138473Y-81171904D02*
X172138473Y-81171904D01*
X171335939Y-82141356D02*
X171335939Y-81171904D01*
X156542527Y-72642712D02*
X156542527Y-72642712D01*
X171335939Y-82141356D02*
X171335939Y-82141356D01*
X171335939Y-81171904D02*
X171335939Y-81171904D01*
X157365733Y-77671862D02*
X156542527Y-77671862D01*
X157365733Y-72642712D02*
X157365733Y-77671862D01*
X172138473Y-81171904D02*
X172138473Y-77671858D01*
X171335939Y-81171904D02*
X172138473Y-81171904D01*
X171335939Y-68171145D02*
X171335939Y-68171145D01*
X172138473Y-72642708D02*
X172138473Y-69142663D01*
X156542527Y-69142666D02*
X156542527Y-69142666D01*
X156542527Y-69142666D02*
X156542527Y-72642712D01*
X156542527Y-81171908D02*
X157365733Y-81171908D01*
X157365733Y-81171908D02*
X157365733Y-81171908D01*
X171335939Y-77671858D02*
X171335939Y-77671858D01*
X155336439Y-64380163D02*
X155336439Y-63408645D01*
X156138973Y-64380163D02*
X155336439Y-64380163D01*
X156138973Y-64380163D02*
X156138973Y-64380163D01*
X156138973Y-67880208D02*
X156138973Y-67880208D01*
X156138973Y-72909358D02*
X156138973Y-72909358D01*
X155336439Y-67880208D02*
X155336439Y-67880208D01*
X155336439Y-63408645D02*
X141366233Y-63408649D01*
X140543027Y-72909362D02*
X140543027Y-72909362D01*
X141366233Y-77378856D02*
X141366233Y-77378856D01*
X141366233Y-76409408D02*
X141366233Y-77378856D01*
X155336439Y-64380163D02*
X155336439Y-64380163D01*
X140543027Y-72909362D02*
X140543027Y-76409408D01*
X141366233Y-63408649D02*
X141366233Y-64380166D01*
X141366233Y-72909362D02*
X141366233Y-72909362D01*
X155336439Y-67880208D02*
X156138973Y-67880208D01*
X141366233Y-64380166D02*
X141366233Y-64380166D01*
X140543027Y-76409408D02*
X140543027Y-76409408D01*
X156138973Y-72909358D02*
X155336439Y-72909358D01*
X140543027Y-67880212D02*
X141366233Y-67880212D01*
X141366233Y-67880212D02*
X141366233Y-67880212D01*
X141366233Y-77378856D02*
X155336439Y-77378856D01*
X141366233Y-64380166D02*
X140543027Y-64380166D01*
X155336439Y-72909358D02*
X155336439Y-67880208D01*
X156138973Y-76409404D02*
X156138973Y-76409404D01*
X155336439Y-77378856D02*
X155336439Y-76409404D01*
X140543027Y-67880212D02*
X140543027Y-67880212D01*
X155336439Y-77378856D02*
X155336439Y-77378856D01*
X155336439Y-76409404D02*
X155336439Y-76409404D01*
X141366233Y-72909362D02*
X140543027Y-72909362D01*
X141366233Y-67880212D02*
X141366233Y-72909362D01*
X156138973Y-76409404D02*
X156138973Y-72909358D01*
X155336439Y-76409404D02*
X156138973Y-76409404D01*
X155336439Y-63408645D02*
X155336439Y-63408645D01*
X156138973Y-67880208D02*
X156138973Y-64380163D01*
X140543027Y-64380166D02*
X140543027Y-64380166D01*
X140543027Y-64380166D02*
X140543027Y-67880212D01*
X140543027Y-76409408D02*
X141366233Y-76409408D01*
X141366233Y-76409408D02*
X141366233Y-76409408D01*
X155336439Y-72909358D02*
X155336439Y-72909358D01*
X139336439Y-102571413D02*
X139336439Y-101599895D01*
X140138973Y-102571413D02*
X139336439Y-102571413D01*
X140138973Y-102571413D02*
X140138973Y-102571413D01*
X140138973Y-106071458D02*
X140138973Y-106071458D01*
X140138973Y-111100608D02*
X140138973Y-111100608D01*
X139336439Y-106071458D02*
X139336439Y-106071458D01*
X139336439Y-101599895D02*
X125366233Y-101599899D01*
X124543027Y-111100612D02*
X124543027Y-111100612D01*
X125366233Y-115570106D02*
X125366233Y-115570106D01*
X125366233Y-114600658D02*
X125366233Y-115570106D01*
X139336439Y-102571413D02*
X139336439Y-102571413D01*
X124543027Y-111100612D02*
X124543027Y-114600658D01*
X125366233Y-101599899D02*
X125366233Y-102571416D01*
X125366233Y-111100612D02*
X125366233Y-111100612D01*
X139336439Y-106071458D02*
X140138973Y-106071458D01*
X125366233Y-102571416D02*
X125366233Y-102571416D01*
X124543027Y-114600658D02*
X124543027Y-114600658D01*
X140138973Y-111100608D02*
X139336439Y-111100608D01*
X124543027Y-106071462D02*
X125366233Y-106071462D01*
X125366233Y-106071462D02*
X125366233Y-106071462D01*
X125366233Y-115570106D02*
X139336439Y-115570106D01*
X125366233Y-102571416D02*
X124543027Y-102571416D01*
X139336439Y-111100608D02*
X139336439Y-106071458D01*
X140138973Y-114600654D02*
X140138973Y-114600654D01*
X139336439Y-115570106D02*
X139336439Y-114600654D01*
X124543027Y-106071462D02*
X124543027Y-106071462D01*
X139336439Y-115570106D02*
X139336439Y-115570106D01*
X139336439Y-114600654D02*
X139336439Y-114600654D01*
X125366233Y-111100612D02*
X124543027Y-111100612D01*
X125366233Y-106071462D02*
X125366233Y-111100612D01*
X140138973Y-114600654D02*
X140138973Y-111100608D01*
X139336439Y-114600654D02*
X140138973Y-114600654D01*
X139336439Y-101599895D02*
X139336439Y-101599895D01*
X140138973Y-106071458D02*
X140138973Y-102571413D01*
X124543027Y-102571416D02*
X124543027Y-102571416D01*
X124543027Y-102571416D02*
X124543027Y-106071462D01*
X124543027Y-114600658D02*
X125366233Y-114600658D01*
X125366233Y-114600658D02*
X125366233Y-114600658D01*
X139336439Y-111100608D02*
X139336439Y-111100608D01*
X136955189Y-86571413D02*
X136955189Y-85599895D01*
X137757723Y-86571413D02*
X136955189Y-86571413D01*
X137757723Y-86571413D02*
X137757723Y-86571413D01*
X137757723Y-90071458D02*
X137757723Y-90071458D01*
X137757723Y-95100608D02*
X137757723Y-95100608D01*
X136955189Y-90071458D02*
X136955189Y-90071458D01*
X136955189Y-85599895D02*
X122984983Y-85599899D01*
X122161777Y-95100612D02*
X122161777Y-95100612D01*
X122984983Y-99570106D02*
X122984983Y-99570106D01*
X122984983Y-98600658D02*
X122984983Y-99570106D01*
X136955189Y-86571413D02*
X136955189Y-86571413D01*
X122161777Y-95100612D02*
X122161777Y-98600658D01*
X122984983Y-85599899D02*
X122984983Y-86571416D01*
X122984983Y-95100612D02*
X122984983Y-95100612D01*
X136955189Y-90071458D02*
X137757723Y-90071458D01*
X122984983Y-86571416D02*
X122984983Y-86571416D01*
X122161777Y-98600658D02*
X122161777Y-98600658D01*
X137757723Y-95100608D02*
X136955189Y-95100608D01*
X122161777Y-90071462D02*
X122984983Y-90071462D01*
X122984983Y-90071462D02*
X122984983Y-90071462D01*
X122984983Y-99570106D02*
X136955189Y-99570106D01*
X122984983Y-86571416D02*
X122161777Y-86571416D01*
X136955189Y-95100608D02*
X136955189Y-90071458D01*
X137757723Y-98600654D02*
X137757723Y-98600654D01*
X136955189Y-99570106D02*
X136955189Y-98600654D01*
X122161777Y-90071462D02*
X122161777Y-90071462D01*
X136955189Y-99570106D02*
X136955189Y-99570106D01*
X136955189Y-98600654D02*
X136955189Y-98600654D01*
X122984983Y-95100612D02*
X122161777Y-95100612D01*
X122984983Y-90071462D02*
X122984983Y-95100612D01*
X137757723Y-98600654D02*
X137757723Y-95100608D01*
X136955189Y-98600654D02*
X137757723Y-98600654D01*
X136955189Y-85599895D02*
X136955189Y-85599895D01*
X137757723Y-90071458D02*
X137757723Y-86571413D01*
X122161777Y-86571416D02*
X122161777Y-86571416D01*
X122161777Y-86571416D02*
X122161777Y-90071462D01*
X122161777Y-98600658D02*
X122984983Y-98600658D01*
X122984983Y-98600658D02*
X122984983Y-98600658D01*
X136955189Y-95100608D02*
X136955189Y-95100608D01*
X134573939Y-70571413D02*
X134573939Y-69599895D01*
X135376473Y-70571413D02*
X134573939Y-70571413D01*
X135376473Y-70571413D02*
X135376473Y-70571413D01*
X135376473Y-74071458D02*
X135376473Y-74071458D01*
X135376473Y-79100608D02*
X135376473Y-79100608D01*
X134573939Y-74071458D02*
X134573939Y-74071458D01*
X134573939Y-69599895D02*
X120603733Y-69599899D01*
X119780527Y-79100612D02*
X119780527Y-79100612D01*
X120603733Y-83570106D02*
X120603733Y-83570106D01*
X120603733Y-82600658D02*
X120603733Y-83570106D01*
X134573939Y-70571413D02*
X134573939Y-70571413D01*
X119780527Y-79100612D02*
X119780527Y-82600658D01*
X120603733Y-69599899D02*
X120603733Y-70571416D01*
X120603733Y-79100612D02*
X120603733Y-79100612D01*
X134573939Y-74071458D02*
X135376473Y-74071458D01*
X120603733Y-70571416D02*
X120603733Y-70571416D01*
X119780527Y-82600658D02*
X119780527Y-82600658D01*
X135376473Y-79100608D02*
X134573939Y-79100608D01*
X119780527Y-74071462D02*
X120603733Y-74071462D01*
X120603733Y-74071462D02*
X120603733Y-74071462D01*
X120603733Y-83570106D02*
X134573939Y-83570106D01*
X120603733Y-70571416D02*
X119780527Y-70571416D01*
X134573939Y-79100608D02*
X134573939Y-74071458D01*
X135376473Y-82600654D02*
X135376473Y-82600654D01*
X134573939Y-83570106D02*
X134573939Y-82600654D01*
X119780527Y-74071462D02*
X119780527Y-74071462D01*
X134573939Y-83570106D02*
X134573939Y-83570106D01*
X134573939Y-82600654D02*
X134573939Y-82600654D01*
X120603733Y-79100612D02*
X119780527Y-79100612D01*
X120603733Y-74071462D02*
X120603733Y-79100612D01*
X135376473Y-82600654D02*
X135376473Y-79100608D01*
X134573939Y-82600654D02*
X135376473Y-82600654D01*
X134573939Y-69599895D02*
X134573939Y-69599895D01*
X135376473Y-74071458D02*
X135376473Y-70571413D01*
X119780527Y-70571416D02*
X119780527Y-70571416D01*
X119780527Y-70571416D02*
X119780527Y-74071462D01*
X119780527Y-82600658D02*
X120603733Y-82600658D01*
X120603733Y-82600658D02*
X120603733Y-82600658D01*
X134573939Y-79100608D02*
X134573939Y-79100608D01*
X123336439Y-113207663D02*
X123336439Y-112236145D01*
X124138973Y-113207663D02*
X123336439Y-113207663D01*
X124138973Y-113207663D02*
X124138973Y-113207663D01*
X124138973Y-116707708D02*
X124138973Y-116707708D01*
X124138973Y-121736858D02*
X124138973Y-121736858D01*
X123336439Y-116707708D02*
X123336439Y-116707708D01*
X123336439Y-112236145D02*
X109366233Y-112236149D01*
X108543027Y-121736862D02*
X108543027Y-121736862D01*
X109366233Y-126206356D02*
X109366233Y-126206356D01*
X109366233Y-125236908D02*
X109366233Y-126206356D01*
X123336439Y-113207663D02*
X123336439Y-113207663D01*
X108543027Y-121736862D02*
X108543027Y-125236908D01*
X109366233Y-112236149D02*
X109366233Y-113207666D01*
X109366233Y-121736862D02*
X109366233Y-121736862D01*
X123336439Y-116707708D02*
X124138973Y-116707708D01*
X109366233Y-113207666D02*
X109366233Y-113207666D01*
X108543027Y-125236908D02*
X108543027Y-125236908D01*
X124138973Y-121736858D02*
X123336439Y-121736858D01*
X108543027Y-116707712D02*
X109366233Y-116707712D01*
X109366233Y-116707712D02*
X109366233Y-116707712D01*
X109366233Y-126206356D02*
X123336439Y-126206356D01*
X109366233Y-113207666D02*
X108543027Y-113207666D01*
X123336439Y-121736858D02*
X123336439Y-116707708D01*
X124138973Y-125236904D02*
X124138973Y-125236904D01*
X123336439Y-126206356D02*
X123336439Y-125236904D01*
X108543027Y-116707712D02*
X108543027Y-116707712D01*
X123336439Y-126206356D02*
X123336439Y-126206356D01*
X123336439Y-125236904D02*
X123336439Y-125236904D01*
X109366233Y-121736862D02*
X108543027Y-121736862D01*
X109366233Y-116707712D02*
X109366233Y-121736862D01*
X124138973Y-125236904D02*
X124138973Y-121736858D01*
X123336439Y-125236904D02*
X124138973Y-125236904D01*
X123336439Y-112236145D02*
X123336439Y-112236145D01*
X124138973Y-116707708D02*
X124138973Y-113207663D01*
X108543027Y-113207666D02*
X108543027Y-113207666D01*
X108543027Y-113207666D02*
X108543027Y-116707712D01*
X108543027Y-125236908D02*
X109366233Y-125236908D01*
X109366233Y-125236908D02*
X109366233Y-125236908D01*
X123336439Y-121736858D02*
X123336439Y-121736858D01*
X120955189Y-97207913D02*
X120955189Y-96236395D01*
X121757723Y-97207913D02*
X120955189Y-97207913D01*
X121757723Y-97207913D02*
X121757723Y-97207913D01*
X121757723Y-100707958D02*
X121757723Y-100707958D01*
X121757723Y-105737108D02*
X121757723Y-105737108D01*
X120955189Y-100707958D02*
X120955189Y-100707958D01*
X120955189Y-96236395D02*
X106984983Y-96236399D01*
X106161777Y-105737112D02*
X106161777Y-105737112D01*
X106984983Y-110206606D02*
X106984983Y-110206606D01*
X106984983Y-109237158D02*
X106984983Y-110206606D01*
X120955189Y-97207913D02*
X120955189Y-97207913D01*
X106161777Y-105737112D02*
X106161777Y-109237158D01*
X106984983Y-96236399D02*
X106984983Y-97207916D01*
X106984983Y-105737112D02*
X106984983Y-105737112D01*
X120955189Y-100707958D02*
X121757723Y-100707958D01*
X106984983Y-97207916D02*
X106984983Y-97207916D01*
X106161777Y-109237158D02*
X106161777Y-109237158D01*
X121757723Y-105737108D02*
X120955189Y-105737108D01*
X106161777Y-100707962D02*
X106984983Y-100707962D01*
X106984983Y-100707962D02*
X106984983Y-100707962D01*
X106984983Y-110206606D02*
X120955189Y-110206606D01*
X106984983Y-97207916D02*
X106161777Y-97207916D01*
X120955189Y-105737108D02*
X120955189Y-100707958D01*
X121757723Y-109237154D02*
X121757723Y-109237154D01*
X120955189Y-110206606D02*
X120955189Y-109237154D01*
X106161777Y-100707962D02*
X106161777Y-100707962D01*
X120955189Y-110206606D02*
X120955189Y-110206606D01*
X120955189Y-109237154D02*
X120955189Y-109237154D01*
X106984983Y-105737112D02*
X106161777Y-105737112D01*
X106984983Y-100707962D02*
X106984983Y-105737112D01*
X121757723Y-109237154D02*
X121757723Y-105737108D01*
X120955189Y-109237154D02*
X121757723Y-109237154D01*
X120955189Y-96236395D02*
X120955189Y-96236395D01*
X121757723Y-100707958D02*
X121757723Y-97207913D01*
X106161777Y-97207916D02*
X106161777Y-97207916D01*
X106161777Y-97207916D02*
X106161777Y-100707962D01*
X106161777Y-109237158D02*
X106984983Y-109237158D01*
X106984983Y-109237158D02*
X106984983Y-109237158D01*
X120955189Y-105737108D02*
X120955189Y-105737108D01*
X118573439Y-80236395D02*
X104603233Y-80236399D01*
X118573439Y-80236395D02*
X118573439Y-80236395D01*
X118573439Y-81207913D02*
X118573439Y-80236395D01*
X118573439Y-81207913D02*
X118573439Y-81207913D01*
X119375973Y-81207913D02*
X118573439Y-81207913D01*
X119375973Y-81207913D02*
X119375973Y-81207913D01*
X119375973Y-84707958D02*
X119375973Y-81207913D01*
X119375973Y-84707958D02*
X119375973Y-84707958D01*
X118573439Y-84707958D02*
X119375973Y-84707958D01*
X118573439Y-84707958D02*
X118573439Y-84707958D01*
X118573439Y-89737108D02*
X118573439Y-84707958D01*
X118573439Y-89737108D02*
X118573439Y-89737108D01*
X119375973Y-89737108D02*
X118573439Y-89737108D01*
X119375973Y-89737108D02*
X119375973Y-89737108D01*
X119375973Y-93237154D02*
X119375973Y-89737108D01*
X119375973Y-93237154D02*
X119375973Y-93237154D01*
X118573439Y-93237154D02*
X119375973Y-93237154D01*
X118573439Y-93237154D02*
X118573439Y-93237154D01*
X118573439Y-94206606D02*
X118573439Y-93237154D01*
X118573439Y-94206606D02*
X118573439Y-94206606D01*
X104603233Y-94206606D02*
X118573439Y-94206606D01*
X104603233Y-94206606D02*
X104603233Y-94206606D01*
X104603233Y-93237158D02*
X104603233Y-94206606D01*
X104603233Y-93237158D02*
X104603233Y-93237158D01*
X103780027Y-93237158D02*
X104603233Y-93237158D01*
X103780027Y-93237158D02*
X103780027Y-93237158D01*
X103780027Y-89737112D02*
X103780027Y-93237158D01*
X103780027Y-89737112D02*
X103780027Y-89737112D01*
X104603233Y-89737112D02*
X103780027Y-89737112D01*
X104603233Y-89737112D02*
X104603233Y-89737112D01*
X104603233Y-84707962D02*
X104603233Y-89737112D01*
X104603233Y-84707962D02*
X104603233Y-84707962D01*
X103780027Y-84707962D02*
X104603233Y-84707962D01*
X103780027Y-84707962D02*
X103780027Y-84707962D01*
X103780027Y-81207916D02*
X103780027Y-84707962D01*
X103780027Y-81207916D02*
X103780027Y-81207916D01*
X104603233Y-81207916D02*
X103780027Y-81207916D01*
X104603233Y-81207916D02*
X104603233Y-81207916D01*
X104603233Y-80236399D02*
X104603233Y-81207916D01*
X194000000Y-71400000D02*
X194000000Y-93471727D01*
X196000000Y-93471757D01*
X196000000Y-101100000D01*
X205500000Y-101100000D01*
X205500000Y-93471901D01*
X212000000Y-93472000D01*
X212000000Y-116800000D01*
X198500000Y-116800000D01*
X198500000Y-125200000D01*
X212000000Y-125200000D01*
X212000000Y-130000000D01*
X205600000Y-149400000D01*
X182750000Y-143750000D01*
X163800000Y-139400000D01*
X142000000Y-134400000D01*
X107567869Y-126873043D01*
X101950000Y-96200000D01*
X101950000Y-78400000D01*
X118600000Y-67600000D01*
X139400000Y-61400000D01*
X158800000Y-61400000D01*
X194000000Y-71400000D01*
X103666666Y-149600000D02*
G75*
G03*
X103666666Y-149600000I-1666666J0D01*
G01*
X99500000Y-149600000D02*
X104500000Y-149600000D01*
X102000000Y-147100000D02*
X102000000Y-152100000D01*
M02*
