%TF.GenerationSoftware,KiCad,Pcbnew,(6.0.8)*%
%TF.CreationDate,2022-10-28T13:13:08+09:00*%
%TF.ProjectId,selen-rev2,73656c65-6e2d-4726-9576-322e6b696361,rev?*%
%TF.SameCoordinates,Original*%
%TF.FileFunction,Legend,Top*%
%TF.FilePolarity,Positive*%
%FSLAX46Y46*%
G04 Gerber Fmt 4.6, Leading zero omitted, Abs format (unit mm)*
G04 Created by KiCad (PCBNEW (6.0.8)) date 2022-10-28 13:13:08*
%MOMM*%
%LPD*%
G01*
G04 APERTURE LIST*
G04 Aperture macros list*
%AMHorizOval*
0 Thick line with rounded ends*
0 $1 width*
0 $2 $3 position (X,Y) of the first rounded end (center of the circle)*
0 $4 $5 position (X,Y) of the second rounded end (center of the circle)*
0 Add line between two ends*
20,1,$1,$2,$3,$4,$5,0*
0 Add two circle primitives to create the rounded ends*
1,1,$1,$2,$3*
1,1,$1,$4,$5*%
G04 Aperture macros list end*
%ADD10C,0.150000*%
%ADD11C,0.100000*%
%ADD12C,0.120000*%
%ADD13C,0.200000*%
%ADD14C,0.010000*%
%ADD15C,0.066040*%
%ADD16C,0.127000*%
%ADD17C,0.254000*%
%ADD18C,1.200000*%
%ADD19HorizOval,1.700000X-0.380423X0.123607X0.380423X-0.123607X0*%
G04 APERTURE END LIST*
D10*
%TO.C,J2*%
X167866666Y-115622380D02*
X167866666Y-116336666D01*
X167819047Y-116479523D01*
X167723809Y-116574761D01*
X167580952Y-116622380D01*
X167485714Y-116622380D01*
X168295238Y-115717619D02*
X168342857Y-115670000D01*
X168438095Y-115622380D01*
X168676190Y-115622380D01*
X168771428Y-115670000D01*
X168819047Y-115717619D01*
X168866666Y-115812857D01*
X168866666Y-115908095D01*
X168819047Y-116050952D01*
X168247619Y-116622380D01*
X168866666Y-116622380D01*
D11*
%TO.C,REF\u002A\u002A*%
X188731714Y-93667500D02*
X189731714Y-93667500D01*
X188779333Y-93667500D02*
X188731714Y-93572261D01*
X188731714Y-93381785D01*
X188779333Y-93286547D01*
X188826952Y-93238928D01*
X188922190Y-93191309D01*
X189207904Y-93191309D01*
X189303142Y-93238928D01*
X189350761Y-93286547D01*
X189398380Y-93381785D01*
X189398380Y-93572261D01*
X189350761Y-93667500D01*
X188731714Y-92334166D02*
X189398380Y-92334166D01*
X188731714Y-92762738D02*
X189255523Y-92762738D01*
X189350761Y-92715119D01*
X189398380Y-92619880D01*
X189398380Y-92477023D01*
X189350761Y-92381785D01*
X189303142Y-92334166D01*
X189350761Y-91429404D02*
X189398380Y-91524642D01*
X189398380Y-91715119D01*
X189350761Y-91810357D01*
X189303142Y-91857976D01*
X189207904Y-91905595D01*
X188922190Y-91905595D01*
X188826952Y-91857976D01*
X188779333Y-91810357D01*
X188731714Y-91715119D01*
X188731714Y-91524642D01*
X188779333Y-91429404D01*
X189398380Y-91000833D02*
X188398380Y-91000833D01*
X189017428Y-90905595D02*
X189398380Y-90619880D01*
X188731714Y-90619880D02*
X189112666Y-91000833D01*
X188795214Y-107558000D02*
X188795214Y-107177047D01*
X188461880Y-107415142D02*
X189319023Y-107415142D01*
X189414261Y-107367523D01*
X189461880Y-107272285D01*
X189461880Y-107177047D01*
X189414261Y-106462761D02*
X189461880Y-106558000D01*
X189461880Y-106748476D01*
X189414261Y-106843714D01*
X189319023Y-106891333D01*
X188938071Y-106891333D01*
X188842833Y-106843714D01*
X188795214Y-106748476D01*
X188795214Y-106558000D01*
X188842833Y-106462761D01*
X188938071Y-106415142D01*
X189033309Y-106415142D01*
X189128547Y-106891333D01*
X188795214Y-105986571D02*
X189461880Y-105986571D01*
X188890452Y-105986571D02*
X188842833Y-105938952D01*
X188795214Y-105843714D01*
X188795214Y-105700857D01*
X188842833Y-105605619D01*
X188938071Y-105558000D01*
X189461880Y-105558000D01*
X188795214Y-105224666D02*
X188795214Y-104843714D01*
X188461880Y-105081809D02*
X189319023Y-105081809D01*
X189414261Y-105034190D01*
X189461880Y-104938952D01*
X189461880Y-104843714D01*
X189461880Y-104510380D02*
X188795214Y-104510380D01*
X188461880Y-104510380D02*
X188509500Y-104558000D01*
X188557119Y-104510380D01*
X188509500Y-104462761D01*
X188461880Y-104510380D01*
X188557119Y-104510380D01*
X188795214Y-104034190D02*
X189461880Y-104034190D01*
X188890452Y-104034190D02*
X188842833Y-103986571D01*
X188795214Y-103891333D01*
X188795214Y-103748476D01*
X188842833Y-103653238D01*
X188938071Y-103605619D01*
X189461880Y-103605619D01*
X188795214Y-102700857D02*
X189604738Y-102700857D01*
X189699976Y-102748476D01*
X189747595Y-102796095D01*
X189795214Y-102891333D01*
X189795214Y-103034190D01*
X189747595Y-103129428D01*
X189414261Y-102700857D02*
X189461880Y-102796095D01*
X189461880Y-102986571D01*
X189414261Y-103081809D01*
X189366642Y-103129428D01*
X189271404Y-103177047D01*
X188985690Y-103177047D01*
X188890452Y-103129428D01*
X188842833Y-103081809D01*
X188795214Y-102986571D01*
X188795214Y-102796095D01*
X188842833Y-102700857D01*
D10*
%TO.C,J1*%
X204832172Y-126799995D02*
X205008753Y-126256534D01*
X205871519Y-126837281D02*
X204920463Y-126528264D01*
X206239397Y-125705071D02*
X205683507Y-125874939D01*
X206062816Y-126248532D02*
X205111759Y-125939515D01*
X205229480Y-125577208D01*
X205304198Y-125501346D01*
X205364202Y-125470773D01*
X205469494Y-125454915D01*
X205605359Y-125499060D01*
X205681221Y-125573779D01*
X205711794Y-125633782D01*
X205727652Y-125739074D01*
X205609932Y-126101381D01*
X206548414Y-124754015D02*
X205992524Y-124923883D01*
X206371833Y-125297476D02*
X205420776Y-124988459D01*
X205538497Y-124626151D01*
X205613215Y-124550290D01*
X205673219Y-124519716D01*
X205778511Y-124503858D01*
X205914376Y-124548003D01*
X205990238Y-124622722D01*
X206020811Y-124682726D01*
X206036669Y-124788017D01*
X205918949Y-125150325D01*
X206620846Y-124376992D02*
X206710280Y-124255842D01*
X206783855Y-124029400D01*
X206767997Y-123924108D01*
X206737424Y-123864105D01*
X206661562Y-123789386D01*
X206570985Y-123759956D01*
X206465693Y-123775814D01*
X206405690Y-123806388D01*
X206330971Y-123882249D01*
X206226822Y-124048688D01*
X206152104Y-124124550D01*
X206092100Y-124155123D01*
X205986808Y-124170981D01*
X205896232Y-124141551D01*
X205820370Y-124066832D01*
X205789797Y-124006829D01*
X205773938Y-123901537D01*
X205847514Y-123675095D01*
X205936948Y-123553945D01*
D12*
%TO.C,D9*%
X152500000Y-92150000D02*
X152500000Y-96200000D01*
X154500000Y-92150000D02*
X154500000Y-96200000D01*
X154500000Y-92100000D02*
X152500000Y-92100000D01*
%TO.C,D4*%
X154500000Y-73150000D02*
X154500000Y-77200000D01*
X152500000Y-73150000D02*
X152500000Y-77200000D01*
X154500000Y-73100000D02*
X152500000Y-73100000D01*
%TO.C,D12*%
X116750000Y-115584000D02*
X116750000Y-119634000D01*
X118750000Y-115534000D02*
X116750000Y-115534000D01*
X118750000Y-115584000D02*
X118750000Y-119634000D01*
%TO.C,J2*%
X166870000Y-119770000D02*
X169530000Y-119770000D01*
X166870000Y-118500000D02*
X166870000Y-117170000D01*
X169530000Y-119770000D02*
X169530000Y-127450000D01*
X166870000Y-119770000D02*
X166870000Y-127450000D01*
X166870000Y-127450000D02*
X169530000Y-127450000D01*
X166870000Y-117170000D02*
X168200000Y-117170000D01*
%TO.C,D17*%
X192222830Y-125594083D02*
X196074609Y-126845601D01*
X192175277Y-125578632D02*
X191557243Y-127480745D01*
X191604796Y-127496196D02*
X195456575Y-128747714D01*
D10*
%TO.C,SW1*%
X93055000Y-79562500D02*
X93030000Y-74962500D01*
X105130000Y-83858500D02*
X105130000Y-87766500D01*
X102605000Y-77387500D02*
X100055000Y-77387500D01*
X105130000Y-83812500D02*
X100080000Y-83766500D01*
X94230000Y-85812500D02*
X94230000Y-81867500D01*
X102630000Y-77362500D02*
X102630000Y-72762500D01*
X97755000Y-79587500D02*
X93055000Y-79587500D01*
X102605000Y-72737500D02*
X98055000Y-72737500D01*
X96830000Y-74937500D02*
X93055000Y-74937500D01*
X105130000Y-87766500D02*
X96505000Y-87766500D01*
X98050000Y-73462500D02*
X98050000Y-72762500D01*
X94230000Y-81858500D02*
X97840000Y-81858500D01*
X100130000Y-77392500D02*
G75*
G03*
X97760000Y-79562500I-100000J-2270000D01*
G01*
X96830000Y-74932500D02*
G75*
G03*
X98050000Y-73512500I-100000J1320000D01*
G01*
X94241000Y-85882500D02*
G75*
G03*
X96505000Y-87766500I2074000J190000D01*
G01*
X97845000Y-81882500D02*
G75*
G03*
X100105000Y-83762500I2070000J190000D01*
G01*
%TO.C,SW13*%
X140595000Y-94893750D02*
X140595000Y-94193750D01*
X145150000Y-94168750D02*
X140600000Y-94168750D01*
X147675000Y-109197750D02*
X139050000Y-109197750D01*
X139375000Y-96368750D02*
X135600000Y-96368750D01*
X136775000Y-107243750D02*
X136775000Y-103298750D01*
X145175000Y-98793750D02*
X145175000Y-94193750D01*
X136775000Y-103289750D02*
X140385000Y-103289750D01*
X147675000Y-105243750D02*
X142625000Y-105197750D01*
X140300000Y-101018750D02*
X135600000Y-101018750D01*
X147675000Y-105289750D02*
X147675000Y-109197750D01*
X145150000Y-98818750D02*
X142600000Y-98818750D01*
X135600000Y-100993750D02*
X135575000Y-96393750D01*
X140390000Y-103313750D02*
G75*
G03*
X142650000Y-105193750I2070000J190000D01*
G01*
X139375000Y-96363750D02*
G75*
G03*
X140595000Y-94943750I-100000J1320000D01*
G01*
X142675000Y-98823750D02*
G75*
G03*
X140305000Y-100993750I-100000J-2270000D01*
G01*
X136786000Y-107313750D02*
G75*
G03*
X139050000Y-109197750I2074000J190000D01*
G01*
D12*
%TO.C,D15*%
X170250000Y-117900000D02*
X172250000Y-117900000D01*
X170250000Y-117850000D02*
X170250000Y-113800000D01*
X172250000Y-117850000D02*
X172250000Y-113800000D01*
%TO.C,D8*%
X133750000Y-91850000D02*
X133750000Y-87800000D01*
X135750000Y-91850000D02*
X135750000Y-87800000D01*
X133750000Y-91900000D02*
X135750000Y-91900000D01*
D10*
%TO.C,SW7*%
X118868750Y-88160000D02*
X114168750Y-88160000D01*
X123718750Y-85960000D02*
X121168750Y-85960000D01*
X126243750Y-92385000D02*
X121193750Y-92339000D01*
X115343750Y-90431000D02*
X118953750Y-90431000D01*
X123718750Y-81310000D02*
X119168750Y-81310000D01*
X117943750Y-83510000D02*
X114168750Y-83510000D01*
X123743750Y-85935000D02*
X123743750Y-81335000D01*
X115343750Y-94385000D02*
X115343750Y-90440000D01*
X126243750Y-96339000D02*
X117618750Y-96339000D01*
X126243750Y-92431000D02*
X126243750Y-96339000D01*
X119163750Y-82035000D02*
X119163750Y-81335000D01*
X114168750Y-88135000D02*
X114143750Y-83535000D01*
X118958750Y-90455000D02*
G75*
G03*
X121218750Y-92335000I2070000J190000D01*
G01*
X121243750Y-85965000D02*
G75*
G03*
X118873750Y-88135000I-100000J-2270000D01*
G01*
X117943750Y-83505000D02*
G75*
G03*
X119163750Y-82085000I-100000J1320000D01*
G01*
X115354750Y-94455000D02*
G75*
G03*
X117618750Y-96339000I2074000J190000D01*
G01*
D12*
%TO.C,D11*%
X116500000Y-120284000D02*
X116500000Y-116234000D01*
X114500000Y-120334000D02*
X116500000Y-120334000D01*
X114500000Y-120284000D02*
X114500000Y-116234000D01*
D10*
%TO.C,SW6*%
X104693750Y-96412500D02*
X104693750Y-91812500D01*
X104668750Y-91787500D02*
X100118750Y-91787500D01*
X107193750Y-106816500D02*
X98568750Y-106816500D01*
X98893750Y-93987500D02*
X95118750Y-93987500D01*
X107193750Y-102862500D02*
X102143750Y-102816500D01*
X95118750Y-98612500D02*
X95093750Y-94012500D01*
X99818750Y-98637500D02*
X95118750Y-98637500D01*
X107193750Y-102908500D02*
X107193750Y-106816500D01*
X100113750Y-92512500D02*
X100113750Y-91812500D01*
X96293750Y-104862500D02*
X96293750Y-100917500D01*
X104668750Y-96437500D02*
X102118750Y-96437500D01*
X96293750Y-100908500D02*
X99903750Y-100908500D01*
X102193750Y-96442500D02*
G75*
G03*
X99823750Y-98612500I-100000J-2270000D01*
G01*
X99908750Y-100932500D02*
G75*
G03*
X102168750Y-102812500I2070000J190000D01*
G01*
X96304750Y-104932500D02*
G75*
G03*
X98568750Y-106816500I2074000J190000D01*
G01*
X98893750Y-93982500D02*
G75*
G03*
X100113750Y-92562500I-100000J1320000D01*
G01*
%TO.C,SW11*%
X101275000Y-113196250D02*
X97500000Y-113196250D01*
X98675000Y-124071250D02*
X98675000Y-120126250D01*
X107050000Y-110996250D02*
X102500000Y-110996250D01*
X107050000Y-115646250D02*
X104500000Y-115646250D01*
X102200000Y-117846250D02*
X97500000Y-117846250D01*
X107075000Y-115621250D02*
X107075000Y-111021250D01*
X97500000Y-117821250D02*
X97475000Y-113221250D01*
X98675000Y-120117250D02*
X102285000Y-120117250D01*
X109575000Y-122071250D02*
X104525000Y-122025250D01*
X109575000Y-122117250D02*
X109575000Y-126025250D01*
X109575000Y-126025250D02*
X100950000Y-126025250D01*
X102495000Y-111721250D02*
X102495000Y-111021250D01*
X101275000Y-113191250D02*
G75*
G03*
X102495000Y-111771250I-100000J1320000D01*
G01*
X98686000Y-124141250D02*
G75*
G03*
X100950000Y-126025250I2074000J190000D01*
G01*
X104575000Y-115651250D02*
G75*
G03*
X102205000Y-117821250I-100000J-2270000D01*
G01*
X102290000Y-120141250D02*
G75*
G03*
X104550000Y-122021250I2070000J190000D01*
G01*
D13*
%TO.C,REF\u002A\u002A*%
X192057500Y-118520000D02*
G75*
G03*
X196208047Y-117486134I-2857500J20320000D01*
G01*
X189200000Y-87405000D02*
G75*
G03*
X188071615Y-87464136I-6J-10794921D01*
G01*
X196208047Y-78913866D02*
G75*
G03*
X192057500Y-77880000I-7008047J-19286134D01*
G01*
X169913866Y-91191952D02*
G75*
G03*
X168880000Y-95342500I19286117J-7008044D01*
G01*
X168880000Y-101057500D02*
G75*
G03*
X169913866Y-105208047I20319953J2857490D01*
G01*
X182191954Y-117486135D02*
G75*
G03*
X186342500Y-118520000I7008046J19286135D01*
G01*
X186342500Y-77880000D02*
G75*
G03*
X182191952Y-78913866I2857496J-20319983D01*
G01*
X188071615Y-108935864D02*
G75*
G03*
X189200000Y-108995000I1128379J10735785D01*
G01*
X189200000Y-108995001D02*
G75*
G03*
X190328385Y-108935864I0J10794901D01*
G01*
X190328385Y-87464137D02*
G75*
G03*
X189200000Y-87405000I-1128385J-10735763D01*
G01*
G36*
X189273889Y-112384589D02*
G01*
X189272486Y-112277960D01*
X189271442Y-112155304D01*
X189270778Y-112018032D01*
X189270517Y-111867558D01*
X189270514Y-111855822D01*
X189270427Y-111164108D01*
X189778131Y-110654082D01*
X189778279Y-111147650D01*
X189778471Y-111251890D01*
X189778960Y-111348635D01*
X189779710Y-111435521D01*
X189780686Y-111510183D01*
X189781855Y-111570258D01*
X189783182Y-111613381D01*
X189784631Y-111637188D01*
X189785539Y-111641218D01*
X189797970Y-111634904D01*
X189822816Y-111618561D01*
X189846950Y-111601359D01*
X189961647Y-111530637D01*
X190083863Y-111481533D01*
X190214246Y-111453857D01*
X190353447Y-111447419D01*
X190371259Y-111448087D01*
X190460894Y-111454639D01*
X190537377Y-111466576D01*
X190609029Y-111486068D01*
X190684167Y-111515285D01*
X190754018Y-111547924D01*
X190881951Y-111623217D01*
X190994871Y-111715197D01*
X191091765Y-111822186D01*
X191171623Y-111942511D01*
X191233433Y-112074496D01*
X191276185Y-112216465D01*
X191298866Y-112366744D01*
X191302427Y-112456414D01*
X191292136Y-112608892D01*
X191260780Y-112753456D01*
X191207635Y-112892692D01*
X191150380Y-112999611D01*
X191064668Y-113119904D01*
X190963055Y-113224753D01*
X190847722Y-113313075D01*
X190720847Y-113383789D01*
X190584611Y-113435812D01*
X190441192Y-113468065D01*
X190292771Y-113479464D01*
X190192525Y-113474981D01*
X190047917Y-113450100D01*
X189907349Y-113403825D01*
X189774176Y-113337846D01*
X189651756Y-113253849D01*
X189543444Y-113153523D01*
X189535050Y-113144357D01*
X189453919Y-113040237D01*
X189384227Y-112922055D01*
X189329061Y-112796192D01*
X189291508Y-112669032D01*
X189282639Y-112622582D01*
X189280026Y-112594187D01*
X189277681Y-112544115D01*
X189276212Y-112493781D01*
X189772550Y-112493781D01*
X189783122Y-112591330D01*
X189813554Y-112685349D01*
X189842208Y-112739494D01*
X189909142Y-112827777D01*
X189988623Y-112898654D01*
X190078055Y-112951147D01*
X190174841Y-112984279D01*
X190276382Y-112997073D01*
X190380083Y-112988552D01*
X190452910Y-112969264D01*
X190495907Y-112953178D01*
X190536812Y-112935818D01*
X190552979Y-112928042D01*
X190598265Y-112897038D01*
X190647588Y-112850844D01*
X190695645Y-112795388D01*
X190737130Y-112736594D01*
X190758618Y-112698267D01*
X190778799Y-112654021D01*
X190791444Y-112615413D01*
X190798801Y-112573121D01*
X190803119Y-112517818D01*
X190803401Y-112512528D01*
X190800033Y-112405283D01*
X190777177Y-112307391D01*
X190733525Y-112213968D01*
X190715755Y-112185439D01*
X190651213Y-112107535D01*
X190572396Y-112045365D01*
X190482760Y-111999869D01*
X190385761Y-111971991D01*
X190284857Y-111962671D01*
X190183505Y-111972853D01*
X190085159Y-112003478D01*
X190071156Y-112009764D01*
X189983204Y-112062713D01*
X189909214Y-112130927D01*
X189850171Y-112211273D01*
X189807058Y-112300620D01*
X189780856Y-112395833D01*
X189772550Y-112493781D01*
X189276212Y-112493781D01*
X189275628Y-112473778D01*
X189273889Y-112384589D01*
G37*
D14*
X189273889Y-112384589D02*
X189272486Y-112277960D01*
X189271442Y-112155304D01*
X189270778Y-112018032D01*
X189270517Y-111867558D01*
X189270514Y-111855822D01*
X189270427Y-111164108D01*
X189778131Y-110654082D01*
X189778279Y-111147650D01*
X189778471Y-111251890D01*
X189778960Y-111348635D01*
X189779710Y-111435521D01*
X189780686Y-111510183D01*
X189781855Y-111570258D01*
X189783182Y-111613381D01*
X189784631Y-111637188D01*
X189785539Y-111641218D01*
X189797970Y-111634904D01*
X189822816Y-111618561D01*
X189846950Y-111601359D01*
X189961647Y-111530637D01*
X190083863Y-111481533D01*
X190214246Y-111453857D01*
X190353447Y-111447419D01*
X190371259Y-111448087D01*
X190460894Y-111454639D01*
X190537377Y-111466576D01*
X190609029Y-111486068D01*
X190684167Y-111515285D01*
X190754018Y-111547924D01*
X190881951Y-111623217D01*
X190994871Y-111715197D01*
X191091765Y-111822186D01*
X191171623Y-111942511D01*
X191233433Y-112074496D01*
X191276185Y-112216465D01*
X191298866Y-112366744D01*
X191302427Y-112456414D01*
X191292136Y-112608892D01*
X191260780Y-112753456D01*
X191207635Y-112892692D01*
X191150380Y-112999611D01*
X191064668Y-113119904D01*
X190963055Y-113224753D01*
X190847722Y-113313075D01*
X190720847Y-113383789D01*
X190584611Y-113435812D01*
X190441192Y-113468065D01*
X190292771Y-113479464D01*
X190192525Y-113474981D01*
X190047917Y-113450100D01*
X189907349Y-113403825D01*
X189774176Y-113337846D01*
X189651756Y-113253849D01*
X189543444Y-113153523D01*
X189535050Y-113144357D01*
X189453919Y-113040237D01*
X189384227Y-112922055D01*
X189329061Y-112796192D01*
X189291508Y-112669032D01*
X189282639Y-112622582D01*
X189280026Y-112594187D01*
X189277681Y-112544115D01*
X189276212Y-112493781D01*
X189772550Y-112493781D01*
X189783122Y-112591330D01*
X189813554Y-112685349D01*
X189842208Y-112739494D01*
X189909142Y-112827777D01*
X189988623Y-112898654D01*
X190078055Y-112951147D01*
X190174841Y-112984279D01*
X190276382Y-112997073D01*
X190380083Y-112988552D01*
X190452910Y-112969264D01*
X190495907Y-112953178D01*
X190536812Y-112935818D01*
X190552979Y-112928042D01*
X190598265Y-112897038D01*
X190647588Y-112850844D01*
X190695645Y-112795388D01*
X190737130Y-112736594D01*
X190758618Y-112698267D01*
X190778799Y-112654021D01*
X190791444Y-112615413D01*
X190798801Y-112573121D01*
X190803119Y-112517818D01*
X190803401Y-112512528D01*
X190800033Y-112405283D01*
X190777177Y-112307391D01*
X190733525Y-112213968D01*
X190715755Y-112185439D01*
X190651213Y-112107535D01*
X190572396Y-112045365D01*
X190482760Y-111999869D01*
X190385761Y-111971991D01*
X190284857Y-111962671D01*
X190183505Y-111972853D01*
X190085159Y-112003478D01*
X190071156Y-112009764D01*
X189983204Y-112062713D01*
X189909214Y-112130927D01*
X189850171Y-112211273D01*
X189807058Y-112300620D01*
X189780856Y-112395833D01*
X189772550Y-112493781D01*
X189276212Y-112493781D01*
X189275628Y-112473778D01*
X189273889Y-112384589D01*
G36*
X188380025Y-112688398D02*
G01*
X188402728Y-112711261D01*
X188437207Y-112746792D01*
X188481476Y-112792884D01*
X188533543Y-112847430D01*
X188591422Y-112908324D01*
X188653121Y-112973459D01*
X188716654Y-113040729D01*
X188780029Y-113108027D01*
X188841259Y-113173246D01*
X188898355Y-113234281D01*
X188949327Y-113289024D01*
X188992187Y-113335369D01*
X189024945Y-113371209D01*
X189045613Y-113394438D01*
X189047906Y-113397129D01*
X189076207Y-113430764D01*
X188456193Y-113430764D01*
X188282843Y-113254695D01*
X188229101Y-113199952D01*
X188178818Y-113148439D01*
X188135002Y-113103259D01*
X188100656Y-113067513D01*
X188078788Y-113044304D01*
X188075611Y-113040812D01*
X188041729Y-113002997D01*
X188202764Y-112841653D01*
X188252477Y-112792198D01*
X188296701Y-112748873D01*
X188332848Y-112714160D01*
X188358330Y-112690540D01*
X188370559Y-112680492D01*
X188371090Y-112680309D01*
X188380025Y-112688398D01*
G37*
X188380025Y-112688398D02*
X188402728Y-112711261D01*
X188437207Y-112746792D01*
X188481476Y-112792884D01*
X188533543Y-112847430D01*
X188591422Y-112908324D01*
X188653121Y-112973459D01*
X188716654Y-113040729D01*
X188780029Y-113108027D01*
X188841259Y-113173246D01*
X188898355Y-113234281D01*
X188949327Y-113289024D01*
X188992187Y-113335369D01*
X189024945Y-113371209D01*
X189045613Y-113394438D01*
X189047906Y-113397129D01*
X189076207Y-113430764D01*
X188456193Y-113430764D01*
X188282843Y-113254695D01*
X188229101Y-113199952D01*
X188178818Y-113148439D01*
X188135002Y-113103259D01*
X188100656Y-113067513D01*
X188078788Y-113044304D01*
X188075611Y-113040812D01*
X188041729Y-113002997D01*
X188202764Y-112841653D01*
X188252477Y-112792198D01*
X188296701Y-112748873D01*
X188332848Y-112714160D01*
X188358330Y-112690540D01*
X188370559Y-112680492D01*
X188371090Y-112680309D01*
X188380025Y-112688398D01*
G36*
X187573245Y-112281867D02*
G01*
X188376191Y-111479167D01*
X188664559Y-111482261D01*
X188952927Y-111485354D01*
X188105703Y-112345491D01*
X187987778Y-112465214D01*
X187872979Y-112581763D01*
X187762525Y-112693903D01*
X187657633Y-112800396D01*
X187559521Y-112900007D01*
X187469406Y-112991500D01*
X187388507Y-113073637D01*
X187318040Y-113145182D01*
X187259224Y-113204900D01*
X187213277Y-113251554D01*
X187181416Y-113283907D01*
X187167635Y-113297903D01*
X187076791Y-113390179D01*
X187076791Y-110648309D01*
X187573245Y-110648309D01*
X187573245Y-112281867D01*
G37*
X187573245Y-112281867D02*
X188376191Y-111479167D01*
X188664559Y-111482261D01*
X188952927Y-111485354D01*
X188105703Y-112345491D01*
X187987778Y-112465214D01*
X187872979Y-112581763D01*
X187762525Y-112693903D01*
X187657633Y-112800396D01*
X187559521Y-112900007D01*
X187469406Y-112991500D01*
X187388507Y-113073637D01*
X187318040Y-113145182D01*
X187259224Y-113204900D01*
X187213277Y-113251554D01*
X187181416Y-113283907D01*
X187167635Y-113297903D01*
X187076791Y-113390179D01*
X187076791Y-110648309D01*
X187573245Y-110648309D01*
X187573245Y-112281867D01*
D10*
%TO.C,SW8*%
X145175000Y-79743750D02*
X145175000Y-75143750D01*
X136775000Y-88193750D02*
X136775000Y-84248750D01*
X145150000Y-79768750D02*
X142600000Y-79768750D01*
X147675000Y-86193750D02*
X142625000Y-86147750D01*
X147675000Y-86239750D02*
X147675000Y-90147750D01*
X147675000Y-90147750D02*
X139050000Y-90147750D01*
X140595000Y-75843750D02*
X140595000Y-75143750D01*
X135600000Y-81943750D02*
X135575000Y-77343750D01*
X139375000Y-77318750D02*
X135600000Y-77318750D01*
X136775000Y-84239750D02*
X140385000Y-84239750D01*
X140300000Y-81968750D02*
X135600000Y-81968750D01*
X145150000Y-75118750D02*
X140600000Y-75118750D01*
X136786000Y-88263750D02*
G75*
G03*
X139050000Y-90147750I2074000J190000D01*
G01*
X140390000Y-84263750D02*
G75*
G03*
X142650000Y-86143750I2070000J190000D01*
G01*
X139375000Y-77313750D02*
G75*
G03*
X140595000Y-75893750I-100000J1320000D01*
G01*
X142675000Y-79773750D02*
G75*
G03*
X140305000Y-81943750I-100000J-2270000D01*
G01*
%TO.C,SW10*%
X185140000Y-99672750D02*
X176515000Y-99672750D01*
X173065000Y-91468750D02*
X173040000Y-86868750D01*
X182615000Y-84643750D02*
X178065000Y-84643750D01*
X174240000Y-93764750D02*
X177850000Y-93764750D01*
X182615000Y-89293750D02*
X180065000Y-89293750D01*
X182640000Y-89268750D02*
X182640000Y-84668750D01*
X185140000Y-95764750D02*
X185140000Y-99672750D01*
X174240000Y-97718750D02*
X174240000Y-93773750D01*
X178060000Y-85368750D02*
X178060000Y-84668750D01*
X176840000Y-86843750D02*
X173065000Y-86843750D01*
X177765000Y-91493750D02*
X173065000Y-91493750D01*
X185140000Y-95718750D02*
X180090000Y-95672750D01*
X180140000Y-89298750D02*
G75*
G03*
X177770000Y-91468750I-100000J-2270000D01*
G01*
X176840000Y-86838750D02*
G75*
G03*
X178060000Y-85418750I-100000J1320000D01*
G01*
X177855000Y-93788750D02*
G75*
G03*
X180115000Y-95668750I2070000J190000D01*
G01*
X174251000Y-97788750D02*
G75*
G03*
X176515000Y-99672750I2074000J190000D01*
G01*
%TO.C,SW15*%
X174240000Y-112656000D02*
X177850000Y-112656000D01*
X176840000Y-105735000D02*
X173065000Y-105735000D01*
X185140000Y-114656000D02*
X185140000Y-118564000D01*
X185140000Y-114610000D02*
X180090000Y-114564000D01*
X185140000Y-118564000D02*
X176515000Y-118564000D01*
X177765000Y-110385000D02*
X173065000Y-110385000D01*
X173065000Y-110360000D02*
X173040000Y-105760000D01*
X182640000Y-108160000D02*
X182640000Y-103560000D01*
X182615000Y-108185000D02*
X180065000Y-108185000D01*
X182615000Y-103535000D02*
X178065000Y-103535000D01*
X178060000Y-104260000D02*
X178060000Y-103560000D01*
X174240000Y-116610000D02*
X174240000Y-112665000D01*
X176840000Y-105730000D02*
G75*
G03*
X178060000Y-104310000I-100000J1320000D01*
G01*
X177855000Y-112680000D02*
G75*
G03*
X180115000Y-114560000I2070000J190000D01*
G01*
X174251000Y-116680000D02*
G75*
G03*
X176515000Y-118564000I2074000J190000D01*
G01*
X180140000Y-108190000D02*
G75*
G03*
X177770000Y-110360000I-100000J-2270000D01*
G01*
%TO.C,SW3*%
X147675000Y-67143750D02*
X142625000Y-67097750D01*
X145175000Y-60693750D02*
X145175000Y-56093750D01*
X139375000Y-58268750D02*
X135600000Y-58268750D01*
X145150000Y-60718750D02*
X142600000Y-60718750D01*
X135600000Y-62893750D02*
X135575000Y-58293750D01*
X136775000Y-69143750D02*
X136775000Y-65198750D01*
X140300000Y-62918750D02*
X135600000Y-62918750D01*
X136775000Y-65189750D02*
X140385000Y-65189750D01*
X147675000Y-71097750D02*
X139050000Y-71097750D01*
X147675000Y-67189750D02*
X147675000Y-71097750D01*
X140595000Y-56793750D02*
X140595000Y-56093750D01*
X145150000Y-56068750D02*
X140600000Y-56068750D01*
X136786000Y-69213750D02*
G75*
G03*
X139050000Y-71097750I2074000J190000D01*
G01*
X142675000Y-60723750D02*
G75*
G03*
X140305000Y-62893750I-100000J-2270000D01*
G01*
X140390000Y-65213750D02*
G75*
G03*
X142650000Y-67093750I2070000J190000D01*
G01*
X139375000Y-58263750D02*
G75*
G03*
X140595000Y-56843750I-100000J1320000D01*
G01*
%TO.C,SW16*%
X182561359Y-129778968D02*
X180025328Y-129512421D01*
X172836325Y-130943807D02*
X173292293Y-126366393D01*
X177507965Y-131459954D02*
X172833712Y-130968670D01*
X184396123Y-136478454D02*
X183987625Y-140365046D01*
X184400931Y-136432706D02*
X179383404Y-135859089D01*
X173351585Y-137282390D02*
X173763950Y-133359001D01*
X177074089Y-126738738D02*
X173319769Y-126344143D01*
X178441586Y-125399343D02*
X178514755Y-124703178D01*
X173764891Y-133350050D02*
X177355115Y-133727398D01*
X183047416Y-125154442D02*
X178522341Y-124678837D01*
X182588835Y-129756719D02*
X183069666Y-125181918D01*
X183987625Y-140365046D02*
X175409874Y-139463488D01*
X180099394Y-129525234D02*
G75*
G03*
X177515551Y-131435613I-336732J-2247111D01*
G01*
X177357580Y-133751789D02*
G75*
G03*
X179408685Y-135857724I2078520J-27415D01*
G01*
X177074612Y-126733766D02*
G75*
G03*
X178436359Y-125449069I38525J1323222D01*
G01*
X173355208Y-137353156D02*
G75*
G03*
X175409874Y-139463488I2082499J-27833D01*
G01*
D12*
%TO.C,D3*%
X133750000Y-72900000D02*
X135750000Y-72900000D01*
X133750000Y-72850000D02*
X133750000Y-68800000D01*
X135750000Y-72850000D02*
X135750000Y-68800000D01*
%TO.C,D5*%
X172800000Y-85400000D02*
X174800000Y-85400000D01*
X174800000Y-85350000D02*
X174800000Y-81300000D01*
X172800000Y-85350000D02*
X172800000Y-81300000D01*
%TO.C,D1*%
X109236000Y-83884000D02*
X109236000Y-79834000D01*
X109236000Y-83934000D02*
X111236000Y-83934000D01*
X111236000Y-83884000D02*
X111236000Y-79834000D01*
D10*
%TO.C,SW2*%
X111787500Y-69085000D02*
X111762500Y-64485000D01*
X123862500Y-73335000D02*
X118812500Y-73289000D01*
X112962500Y-75335000D02*
X112962500Y-71390000D01*
X116487500Y-69110000D02*
X111787500Y-69110000D01*
X121337500Y-66910000D02*
X118787500Y-66910000D01*
X123862500Y-77289000D02*
X115237500Y-77289000D01*
X121362500Y-66885000D02*
X121362500Y-62285000D01*
X115562500Y-64460000D02*
X111787500Y-64460000D01*
X116782500Y-62985000D02*
X116782500Y-62285000D01*
X123862500Y-73381000D02*
X123862500Y-77289000D01*
X112962500Y-71381000D02*
X116572500Y-71381000D01*
X121337500Y-62260000D02*
X116787500Y-62260000D01*
X116577500Y-71405000D02*
G75*
G03*
X118837500Y-73285000I2070000J190000D01*
G01*
X115562500Y-64455000D02*
G75*
G03*
X116782500Y-63035000I-100000J1320000D01*
G01*
X118862500Y-66915000D02*
G75*
G03*
X116492500Y-69085000I-100000J-2270000D01*
G01*
X112973500Y-75405000D02*
G75*
G03*
X115237500Y-77289000I2074000J190000D01*
G01*
%TO.C,SW9*%
X166407500Y-90956250D02*
X161357500Y-90910250D01*
X155507500Y-92956250D02*
X155507500Y-89011250D01*
X163882500Y-84531250D02*
X161332500Y-84531250D01*
X154332500Y-86706250D02*
X154307500Y-82106250D01*
X163882500Y-79881250D02*
X159332500Y-79881250D01*
X159032500Y-86731250D02*
X154332500Y-86731250D01*
X163907500Y-84506250D02*
X163907500Y-79906250D01*
X166407500Y-94910250D02*
X157782500Y-94910250D01*
X155507500Y-89002250D02*
X159117500Y-89002250D01*
X166407500Y-91002250D02*
X166407500Y-94910250D01*
X158107500Y-82081250D02*
X154332500Y-82081250D01*
X159327500Y-80606250D02*
X159327500Y-79906250D01*
X158107500Y-82076250D02*
G75*
G03*
X159327500Y-80656250I-100000J1320000D01*
G01*
X159122500Y-89026250D02*
G75*
G03*
X161382500Y-90906250I2070000J190000D01*
G01*
X155518500Y-93026250D02*
G75*
G03*
X157782500Y-94910250I2074000J190000D01*
G01*
X161407500Y-84536250D02*
G75*
G03*
X159037500Y-86706250I-100000J-2270000D01*
G01*
%TO.C,SW5*%
X185140000Y-80622750D02*
X176515000Y-80622750D01*
X174240000Y-74714750D02*
X177850000Y-74714750D01*
X182640000Y-70218750D02*
X182640000Y-65618750D01*
X182615000Y-70243750D02*
X180065000Y-70243750D01*
X182615000Y-65593750D02*
X178065000Y-65593750D01*
X177765000Y-72443750D02*
X173065000Y-72443750D01*
X185140000Y-76668750D02*
X180090000Y-76622750D01*
X176840000Y-67793750D02*
X173065000Y-67793750D01*
X173065000Y-72418750D02*
X173040000Y-67818750D01*
X178060000Y-66318750D02*
X178060000Y-65618750D01*
X185140000Y-76714750D02*
X185140000Y-80622750D01*
X174240000Y-78668750D02*
X174240000Y-74723750D01*
X176840000Y-67788750D02*
G75*
G03*
X178060000Y-66368750I-100000J1320000D01*
G01*
X174251000Y-78738750D02*
G75*
G03*
X176515000Y-80622750I2074000J190000D01*
G01*
X177855000Y-74738750D02*
G75*
G03*
X180115000Y-76618750I2070000J190000D01*
G01*
X180140000Y-70248750D02*
G75*
G03*
X177770000Y-72418750I-100000J-2270000D01*
G01*
D12*
%TO.C,D16*%
X186703238Y-123781425D02*
X190555017Y-125032943D01*
X186655685Y-123765974D02*
X186037651Y-125668087D01*
X186085204Y-125683538D02*
X189936983Y-126935056D01*
%TO.C,D13*%
X133750000Y-111100000D02*
X133750000Y-107050000D01*
X133750000Y-111150000D02*
X135750000Y-111150000D01*
X135750000Y-111100000D02*
X135750000Y-107050000D01*
%TO.C,D10*%
X172400000Y-103950000D02*
X172400000Y-99900000D01*
X172400000Y-104000000D02*
X174400000Y-104000000D01*
X174400000Y-103950000D02*
X174400000Y-99900000D01*
D10*
%TO.C,SW17*%
X203707707Y-141760842D02*
X202500069Y-145477571D01*
X198570679Y-130711626D02*
X194980440Y-129545087D01*
X200186768Y-129685818D02*
X200403079Y-129020079D01*
X204742867Y-130403875D02*
X200415560Y-128997847D01*
X192737372Y-140250921D02*
X193956444Y-136499003D01*
X202500069Y-145477571D02*
X194297206Y-142812300D01*
X203721922Y-141717094D02*
X198933301Y-140112809D01*
X203337440Y-134810237D02*
X204758918Y-130435377D01*
X198013477Y-135419880D02*
X193543511Y-133967500D01*
X193959225Y-136490444D02*
X197392539Y-137605995D01*
X193551237Y-133943723D02*
X194948938Y-129561138D01*
X203305938Y-134826288D02*
X200880744Y-134038294D01*
X192726202Y-140320895D02*
G75*
G03*
X194297206Y-142812300I2031205J-460200D01*
G01*
X198572224Y-130706871D02*
G75*
G03*
X200171317Y-129733371I312796J1286297D01*
G01*
X200950528Y-134066226D02*
G75*
G03*
X198025958Y-135397648I-796574J-2127996D01*
G01*
X197389878Y-137630366D02*
G75*
G03*
X198958314Y-140116730I2027400J-458964D01*
G01*
%TO.C,SW12*%
X121250000Y-107210000D02*
X116550000Y-107210000D01*
X117725000Y-109481000D02*
X121335000Y-109481000D01*
X117725000Y-113435000D02*
X117725000Y-109490000D01*
X120325000Y-102560000D02*
X116550000Y-102560000D01*
X116550000Y-107185000D02*
X116525000Y-102585000D01*
X126100000Y-105010000D02*
X123550000Y-105010000D01*
X126100000Y-100360000D02*
X121550000Y-100360000D01*
X128625000Y-111435000D02*
X123575000Y-111389000D01*
X128625000Y-111481000D02*
X128625000Y-115389000D01*
X126125000Y-104985000D02*
X126125000Y-100385000D01*
X121545000Y-101085000D02*
X121545000Y-100385000D01*
X128625000Y-115389000D02*
X120000000Y-115389000D01*
X123625000Y-105015000D02*
G75*
G03*
X121255000Y-107185000I-100000J-2270000D01*
G01*
X120325000Y-102555000D02*
G75*
G03*
X121545000Y-101135000I-100000J1320000D01*
G01*
X117736000Y-113505000D02*
G75*
G03*
X120000000Y-115389000I2074000J190000D01*
G01*
X121340000Y-109505000D02*
G75*
G03*
X123600000Y-111385000I2070000J190000D01*
G01*
D12*
%TO.C,D14*%
X152500000Y-111150000D02*
X152500000Y-115200000D01*
X154500000Y-111150000D02*
X154500000Y-115200000D01*
X154500000Y-111100000D02*
X152500000Y-111100000D01*
D10*
%TO.C,J1*%
X210872949Y-130853170D02*
X199460271Y-127144966D01*
X212727051Y-125146830D02*
X210872949Y-130853170D01*
X201314373Y-121438627D02*
X212727051Y-125146830D01*
X199460271Y-127144966D02*
X201314373Y-121438627D01*
D12*
%TO.C,D2*%
X111111000Y-79184000D02*
X111111000Y-83234000D01*
X113111000Y-79184000D02*
X113111000Y-83234000D01*
X113111000Y-79134000D02*
X111111000Y-79134000D01*
D10*
%TO.C,SW14*%
X159327500Y-99656250D02*
X159327500Y-98956250D01*
X155507500Y-108052250D02*
X159117500Y-108052250D01*
X159032500Y-105781250D02*
X154332500Y-105781250D01*
X154332500Y-105756250D02*
X154307500Y-101156250D01*
X163882500Y-103581250D02*
X161332500Y-103581250D01*
X163882500Y-98931250D02*
X159332500Y-98931250D01*
X166407500Y-110052250D02*
X166407500Y-113960250D01*
X166407500Y-110006250D02*
X161357500Y-109960250D01*
X155507500Y-112006250D02*
X155507500Y-108061250D01*
X166407500Y-113960250D02*
X157782500Y-113960250D01*
X158107500Y-101131250D02*
X154332500Y-101131250D01*
X163907500Y-103556250D02*
X163907500Y-98956250D01*
X161407500Y-103586250D02*
G75*
G03*
X159037500Y-105756250I-100000J-2270000D01*
G01*
X159122500Y-108076250D02*
G75*
G03*
X161382500Y-109956250I2070000J190000D01*
G01*
X158107500Y-101126250D02*
G75*
G03*
X159327500Y-99706250I-100000J1320000D01*
G01*
X155518500Y-112076250D02*
G75*
G03*
X157782500Y-113960250I2074000J190000D01*
G01*
D12*
%TO.C,D7*%
X113300000Y-98488000D02*
X113300000Y-102538000D01*
X115300000Y-98438000D02*
X113300000Y-98438000D01*
X115300000Y-98488000D02*
X115300000Y-102538000D01*
D10*
%TO.C,SW4*%
X163882500Y-60831250D02*
X159332500Y-60831250D01*
X163907500Y-65456250D02*
X163907500Y-60856250D01*
X166407500Y-71906250D02*
X161357500Y-71860250D01*
X154332500Y-67656250D02*
X154307500Y-63056250D01*
X166407500Y-75860250D02*
X157782500Y-75860250D01*
X159327500Y-61556250D02*
X159327500Y-60856250D01*
X158107500Y-63031250D02*
X154332500Y-63031250D01*
X159032500Y-67681250D02*
X154332500Y-67681250D01*
X155507500Y-73906250D02*
X155507500Y-69961250D01*
X163882500Y-65481250D02*
X161332500Y-65481250D01*
X155507500Y-69952250D02*
X159117500Y-69952250D01*
X166407500Y-71952250D02*
X166407500Y-75860250D01*
X161407500Y-65486250D02*
G75*
G03*
X159037500Y-67656250I-100000J-2270000D01*
G01*
X159122500Y-69976250D02*
G75*
G03*
X161382500Y-71856250I2070000J190000D01*
G01*
X155518500Y-73976250D02*
G75*
G03*
X157782500Y-75860250I2074000J190000D01*
G01*
X158107500Y-63026250D02*
G75*
G03*
X159327500Y-61606250I-100000J1320000D01*
G01*
D15*
%TO.C,U1*%
X204157184Y-97434116D02*
X205935184Y-97434116D01*
X204157184Y-97434116D02*
X204157184Y-94767116D01*
D16*
X205231604Y-100779296D02*
X196232384Y-100779296D01*
D15*
X198188184Y-112674116D02*
X203903184Y-112674116D01*
X198188184Y-98069116D02*
X203268184Y-98069116D01*
X205935184Y-101500656D02*
X205935184Y-98831116D01*
X204157184Y-101500656D02*
X205935184Y-101500656D01*
X203903184Y-115214116D02*
X203903184Y-112674116D01*
X195521184Y-97434116D02*
X197299184Y-97434116D01*
X204157184Y-101500656D02*
X204157184Y-98831116D01*
X197299184Y-97434116D02*
X197299184Y-94767116D01*
X195521184Y-98831116D02*
X197299184Y-98831116D01*
X198188184Y-115214116D02*
X203903184Y-115214116D01*
D16*
X205231604Y-93425996D02*
X205231604Y-100779296D01*
D15*
X195521184Y-101500656D02*
X197299184Y-101500656D01*
X195521184Y-97434116D02*
X195521184Y-94767116D01*
X203268184Y-98069116D02*
X203268184Y-95529116D01*
X195521184Y-101500656D02*
X195521184Y-98831116D01*
X204157184Y-94767116D02*
X205935184Y-94767116D01*
X205935184Y-97434116D02*
X205935184Y-94767116D01*
X197299184Y-101500656D02*
X197299184Y-98831116D01*
D16*
X209635964Y-94850936D02*
X192508744Y-94850936D01*
D15*
X195521184Y-94767116D02*
X197299184Y-94767116D01*
D16*
X196232384Y-100779296D02*
X196232384Y-93425996D01*
D15*
X198188184Y-98069116D02*
X198188184Y-95529116D01*
X204157184Y-98831116D02*
X205935184Y-98831116D01*
D16*
X191838184Y-115849116D02*
X209635964Y-115849116D01*
X209635964Y-115849116D02*
X209635964Y-94850936D01*
D15*
X198188184Y-115214116D02*
X198188184Y-112674116D01*
D16*
X196237464Y-93425996D02*
X205231604Y-93425996D01*
X191838184Y-95521496D02*
X191838184Y-115849116D01*
X192508744Y-94850936D02*
X191838184Y-95521496D01*
D15*
X198188184Y-95529116D02*
X203268184Y-95529116D01*
D17*
X191465184Y-95849116D02*
G75*
G03*
X191465184Y-95849116I-127000J0D01*
G01*
D12*
%TO.C,D6*%
X111268000Y-103188000D02*
X111268000Y-99138000D01*
X113268000Y-103188000D02*
X113268000Y-99138000D01*
X111268000Y-103238000D02*
X113268000Y-103238000D01*
%TD*%
D18*
%TO.C,J1*%
X210914195Y-125872126D03*
X204256799Y-123709007D03*
X210373415Y-127536475D03*
X203716020Y-125373356D03*
D19*
X201226469Y-122356381D03*
X200469377Y-124686469D03*
X209851229Y-123318676D03*
X208012578Y-128977463D03*
X206998059Y-122391625D03*
X205159408Y-128050412D03*
X201355182Y-126814344D03*
X203193833Y-121155557D03*
%TD*%
M02*
