M48
; DRILL file {KiCad (6.0.8)} date 2022年10月28日 13時13分11秒
; FORMAT={-:-/ absolute / inch / decimal}
; #@! TF.CreationDate,2022-10-28T13:13:11+09:00
; #@! TF.GenerationSoftware,Kicad,Pcbnew,(6.0.8)
; #@! TF.FileFunction,Plated,1,2,PTH
FMAT,2
INCH
; #@! TA.AperFunction,Plated,PTH,ComponentDrill
T1C0.0118
; #@! TA.AperFunction,Plated,PTH,ViaDrill
T2C0.0157
; #@! TA.AperFunction,Plated,PTH,ComponentDrill
T3C0.0157
; #@! TA.AperFunction,Plated,PTH,ComponentDrill
T4C0.0394
; #@! TA.AperFunction,Plated,PTH,ComponentDrill
T5C0.0866
%
G90
G05
T1
X4.3164Y-3.1234
X4.3636Y-3.2927
X4.3902Y-3.1273
X4.3964Y-3.8834
X4.4374Y-3.2966
X4.4436Y-4.0527
X4.4764Y-3.8873
X4.5236Y-4.0566
X4.5236Y-4.5565
X4.5709Y-4.7257
X4.6122Y-4.5604
X4.6594Y-4.7297
X5.2815Y-2.689
X5.2815Y-3.437
X5.2815Y-4.1949
X5.3287Y-2.8583
X5.3287Y-3.6063
X5.3287Y-4.3642
X6.0197Y-2.8898
X6.0197Y-3.6378
X6.0197Y-4.3858
X6.0669Y-3.0591
X6.0669Y-3.8071
X6.0669Y-4.5551
X6.7185Y-4.4606
X6.7657Y-4.6299
X6.8031Y-3.9134
X6.8189Y-3.1811
X6.8504Y-4.0827
X6.8661Y-3.3504
X7.3404Y-4.9362
X7.516Y-4.9436
X7.5577Y-5.0076
X7.66Y-3.8263
X7.66Y-3.8755
X7.66Y-3.9247
X7.66Y-3.9739
X7.66Y-4.0231
X7.66Y-4.0723
X7.66Y-4.1216
X7.66Y-4.1708
X7.66Y-4.22
X7.66Y-4.2692
X7.66Y-4.3282
X7.66Y-4.3775
X7.66Y-4.4267
X7.66Y-4.4759
X7.7333Y-5.015
X8.1521Y-3.8263
X8.1521Y-3.8755
X8.1521Y-3.9247
X8.1521Y-3.9739
X8.1521Y-4.0231
X8.1521Y-4.0723
X8.1521Y-4.1216
X8.1521Y-4.1708
X8.1521Y-4.22
X8.1521Y-4.2692
X8.1521Y-4.3282
X8.1521Y-4.3775
X8.1521Y-4.4267
X8.1521Y-4.4759
T2
X3.6713Y-3.2185
X3.7598Y-3.9764
X3.8484Y-4.7244
X3.9961Y-3.029
X4.0748Y-3.779
X4.1732Y-4.5374
X4.2224Y-3.1004
X4.2224Y-3.2283
X4.311Y-3.8475
X4.311Y-3.9764
X4.3996Y-4.6063
X4.3996Y-4.7343
X4.41Y-2.81
X4.5Y-3.56
X4.59Y-4.3
X4.73Y-2.62
X4.83Y-3.37
X4.92Y-4.13
X4.98Y-2.7
X4.98Y-2.8
X5.06Y-3.45
X5.06Y-3.56
X5.14Y-2.77
X5.15Y-4.2
X5.15Y-4.31
X5.3543Y-2.5689
X5.3543Y-3.3169
X5.3543Y-4.065
X5.6693Y-3.878
X5.6735Y-2.3799
X5.689Y-3.1228
X5.8957Y-2.4409
X5.8957Y-2.5689
X5.8957Y-3.189
X5.8957Y-3.3169
X5.8957Y-3.9469
X5.8957Y-4.0748
X6.0827Y-2.7461
X6.0827Y-3.5039
X6.0827Y-4.252
X6.4117Y-3.3174
X6.4173Y-2.5603
X6.4272Y-4.0603
X6.6339Y-2.628
X6.6339Y-2.7559
X6.6339Y-3.376
X6.6339Y-3.5138
X6.6339Y-4.1339
X6.6339Y-4.252
X6.7047Y-2.9764
X6.7362Y-4.6772
X6.7402Y-4.9409
X6.7717Y-4.1496
X6.7835Y-4.7844
X6.8146Y-5.2561
X6.8209Y-2.9429
X6.8209Y-3.6909
X6.8209Y-4.4291
X6.8317Y-4.8182
X6.8602Y-4.8467
X6.9961Y-3.2057
X7.0039Y-4.7008
X7.0157Y-3.2795
X7.1198Y-5.0984
X7.1457Y-2.7559
X7.1457Y-4.2421
X7.1654Y-3.5039
X7.2795Y-4.6969
X7.3469Y-4.157
X7.3707Y-3.4646
X7.372Y-2.815
X7.372Y-2.9429
X7.372Y-3.6909
X7.372Y-4.311
X7.372Y-4.439
X7.3757Y-5.1772
X7.3757Y-5.3051
X7.43Y-2.64
X7.604Y-5.3611
X7.7536Y-4.5295
X7.7549Y-4.6693
X7.7834Y-4.6417
X7.7835Y-4.5551
X7.8189Y-4.6142
X7.87Y-4.54
X7.9933Y-5.2721
X8.0Y-4.5
X8.0276Y-3.8583
X8.063Y-4.54
X8.1203Y-5.5334
X8.1843Y-5.4243
T3
X7.8096Y-3.9641
X7.8096Y-4.0428
X7.8096Y-4.1216
X7.8096Y-4.2003
X7.8096Y-4.279
X7.8096Y-4.3578
X7.8096Y-4.4365
X7.998Y-3.9641
X7.998Y-4.0428
X7.998Y-4.1216
X7.998Y-4.2003
X7.998Y-4.279
X7.998Y-4.3578
X7.998Y-4.4365
T4
X6.622Y-4.6654
X6.622Y-4.7654
X6.622Y-4.8654
X6.622Y-4.9654
T5
X6.6988Y-3.8661
X7.4488Y-3.1161
X7.4488Y-4.6161
T4
G00X7.9019Y-4.912
M15
G01X7.8831Y-4.9059
M16
G05
G00X7.9317Y-4.8202
M15
G01X7.9129Y-4.8141
M16
G05
G00X7.9367Y-4.9957
M15
G01X7.918Y-4.9896
M16
G05
G00X8.0091Y-4.7729
M15
G01X7.9904Y-4.7669
M16
G05
G00X8.0865Y-5.0444
M15
G01X8.0678Y-5.0383
M16
G05
G00X8.1589Y-4.8216
M15
G01X8.1402Y-4.8155
M16
G05
G00X8.1988Y-5.0809
M15
G01X8.1801Y-5.0748
M16
G05
G00X8.2712Y-4.8581
M15
G01X8.2525Y-4.852
M16
G05
T0
M30
