%TF.GenerationSoftware,KiCad,Pcbnew,(6.0.8)*%
%TF.CreationDate,2022-10-28T13:13:08+09:00*%
%TF.ProjectId,selen-rev2,73656c65-6e2d-4726-9576-322e6b696361,rev?*%
%TF.SameCoordinates,Original*%
%TF.FileFunction,Soldermask,Bot*%
%TF.FilePolarity,Negative*%
%FSLAX46Y46*%
G04 Gerber Fmt 4.6, Leading zero omitted, Abs format (unit mm)*
G04 Created by KiCad (PCBNEW (6.0.8)) date 2022-10-28 13:13:08*
%MOMM*%
%LPD*%
G01*
G04 APERTURE LIST*
G04 Aperture macros list*
%AMRoundRect*
0 Rectangle with rounded corners*
0 $1 Rounding radius*
0 $2 $3 $4 $5 $6 $7 $8 $9 X,Y pos of 4 corners*
0 Add a 4 corners polygon primitive as box body*
4,1,4,$2,$3,$4,$5,$6,$7,$8,$9,$2,$3,0*
0 Add four circle primitives for the rounded corners*
1,1,$1+$1,$2,$3*
1,1,$1+$1,$4,$5*
1,1,$1+$1,$6,$7*
1,1,$1+$1,$8,$9*
0 Add four rect primitives between the rounded corners*
20,1,$1+$1,$2,$3,$4,$5,0*
20,1,$1+$1,$4,$5,$6,$7,0*
20,1,$1+$1,$6,$7,$8,$9,0*
20,1,$1+$1,$8,$9,$2,$3,0*%
%AMHorizOval*
0 Thick line with rounded ends*
0 $1 width*
0 $2 $3 position (X,Y) of the first rounded end (center of the circle)*
0 $4 $5 position (X,Y) of the second rounded end (center of the circle)*
0 Add line between two ends*
20,1,$1,$2,$3,$4,$5,0*
0 Add two circle primitives to create the rounded ends*
1,1,$1,$2,$3*
1,1,$1,$4,$5*%
%AMRotRect*
0 Rectangle, with rotation*
0 The origin of the aperture is its center*
0 $1 length*
0 $2 width*
0 $3 Rotation angle, in degrees counterclockwise*
0 Add horizontal line*
21,1,$1,$2,0,0,$3*%
%AMFreePoly0*
4,1,6,0.600000,0.200000,0.000000,-0.400000,-0.600000,0.200000,-0.600000,0.400000,0.600000,0.400000,0.600000,0.200000,0.600000,0.200000,$1*%
%AMFreePoly1*
4,1,6,0.600000,-0.250000,-0.600000,-0.250000,-0.600000,1.000000,0.000000,0.400000,0.600000,1.000000,0.600000,-0.250000,0.600000,-0.250000,$1*%
G04 Aperture macros list end*
%ADD10C,0.150000*%
%ADD11R,1.400000X1.200000*%
%ADD12C,0.500000*%
%ADD13O,1.700000X1.700000*%
%ADD14FreePoly0,90.000000*%
%ADD15FreePoly1,90.000000*%
%ADD16RotRect,1.200000X1.400000X342.000000*%
%ADD17C,1.900000*%
%ADD18C,3.000000*%
%ADD19C,1.700000*%
%ADD20C,4.000000*%
%ADD21R,2.000000X2.000000*%
%ADD22R,1.900000X2.000000*%
%ADD23C,3.200000*%
%ADD24C,3.400000*%
%ADD25RotRect,2.000000X2.000000X354.000000*%
%ADD26RotRect,1.900000X2.000000X354.000000*%
%ADD27RotRect,2.000000X2.000000X342.000000*%
%ADD28RotRect,1.900000X2.000000X342.000000*%
%ADD29C,1.200000*%
%ADD30HorizOval,1.700000X-0.380423X0.123607X0.380423X-0.123607X0*%
%ADD31RoundRect,0.499745X-0.874395X-0.499745X0.874395X-0.499745X0.874395X0.499745X-0.874395X0.499745X0*%
%ADD32FreePoly0,270.000000*%
%ADD33FreePoly1,270.000000*%
%ADD34C,1.143000*%
G04 APERTURE END LIST*
D10*
X151614403Y-116352380D02*
X151614403Y-115352380D01*
X151233451Y-115352380D01*
X151138213Y-115400000D01*
X151090594Y-115447619D01*
X151042975Y-115542857D01*
X151042975Y-115685714D01*
X151090594Y-115780952D01*
X151138213Y-115828571D01*
X151233451Y-115876190D01*
X151614403Y-115876190D01*
X150042975Y-116257142D02*
X150090594Y-116304761D01*
X150233451Y-116352380D01*
X150328689Y-116352380D01*
X150471546Y-116304761D01*
X150566784Y-116209523D01*
X150614403Y-116114285D01*
X150662022Y-115923809D01*
X150662022Y-115780952D01*
X150614403Y-115590476D01*
X150566784Y-115495238D01*
X150471546Y-115400000D01*
X150328689Y-115352380D01*
X150233451Y-115352380D01*
X150090594Y-115400000D01*
X150042975Y-115447619D01*
X149281070Y-115828571D02*
X149138213Y-115876190D01*
X149090594Y-115923809D01*
X149042975Y-116019047D01*
X149042975Y-116161904D01*
X149090594Y-116257142D01*
X149138213Y-116304761D01*
X149233451Y-116352380D01*
X149614403Y-116352380D01*
X149614403Y-115352380D01*
X149281070Y-115352380D01*
X149185832Y-115400000D01*
X149138213Y-115447619D01*
X149090594Y-115542857D01*
X149090594Y-115638095D01*
X149138213Y-115733333D01*
X149185832Y-115780952D01*
X149281070Y-115828571D01*
X149614403Y-115828571D01*
X147852499Y-116352380D02*
X147852499Y-115352380D01*
X147614403Y-115352380D01*
X147471546Y-115400000D01*
X147376308Y-115495238D01*
X147328689Y-115590476D01*
X147281070Y-115780952D01*
X147281070Y-115923809D01*
X147328689Y-116114285D01*
X147376308Y-116209523D01*
X147471546Y-116304761D01*
X147614403Y-116352380D01*
X147852499Y-116352380D01*
X146471546Y-116304761D02*
X146566784Y-116352380D01*
X146757260Y-116352380D01*
X146852499Y-116304761D01*
X146900118Y-116209523D01*
X146900118Y-115828571D01*
X146852499Y-115733333D01*
X146757260Y-115685714D01*
X146566784Y-115685714D01*
X146471546Y-115733333D01*
X146423927Y-115828571D01*
X146423927Y-115923809D01*
X146900118Y-116019047D01*
X146042975Y-116304761D02*
X145947737Y-116352380D01*
X145757260Y-116352380D01*
X145662022Y-116304761D01*
X145614403Y-116209523D01*
X145614403Y-116161904D01*
X145662022Y-116066666D01*
X145757260Y-116019047D01*
X145900118Y-116019047D01*
X145995356Y-115971428D01*
X146042975Y-115876190D01*
X146042975Y-115828571D01*
X145995356Y-115733333D01*
X145900118Y-115685714D01*
X145757260Y-115685714D01*
X145662022Y-115733333D01*
X145185832Y-116352380D02*
X145185832Y-115685714D01*
X145185832Y-115352380D02*
X145233451Y-115400000D01*
X145185832Y-115447619D01*
X145138213Y-115400000D01*
X145185832Y-115352380D01*
X145185832Y-115447619D01*
X144281070Y-115685714D02*
X144281070Y-116495238D01*
X144328689Y-116590476D01*
X144376308Y-116638095D01*
X144471546Y-116685714D01*
X144614403Y-116685714D01*
X144709641Y-116638095D01*
X144281070Y-116304761D02*
X144376308Y-116352380D01*
X144566784Y-116352380D01*
X144662022Y-116304761D01*
X144709641Y-116257142D01*
X144757260Y-116161904D01*
X144757260Y-115876190D01*
X144709641Y-115780952D01*
X144662022Y-115733333D01*
X144566784Y-115685714D01*
X144376308Y-115685714D01*
X144281070Y-115733333D01*
X143804879Y-115685714D02*
X143804879Y-116352380D01*
X143804879Y-115780952D02*
X143757260Y-115733333D01*
X143662022Y-115685714D01*
X143519165Y-115685714D01*
X143423927Y-115733333D01*
X143376308Y-115828571D01*
X143376308Y-116352380D01*
X142519165Y-116304761D02*
X142614403Y-116352380D01*
X142804879Y-116352380D01*
X142900118Y-116304761D01*
X142947737Y-116209523D01*
X142947737Y-115828571D01*
X142900118Y-115733333D01*
X142804879Y-115685714D01*
X142614403Y-115685714D01*
X142519165Y-115733333D01*
X142471546Y-115828571D01*
X142471546Y-115923809D01*
X142947737Y-116019047D01*
X141614403Y-116352380D02*
X141614403Y-115352380D01*
X141614403Y-116304761D02*
X141709641Y-116352380D01*
X141900118Y-116352380D01*
X141995356Y-116304761D01*
X142042975Y-116257142D01*
X142090594Y-116161904D01*
X142090594Y-115876190D01*
X142042975Y-115780952D01*
X141995356Y-115733333D01*
X141900118Y-115685714D01*
X141709641Y-115685714D01*
X141614403Y-115733333D01*
X140376308Y-116352380D02*
X140376308Y-115352380D01*
X140376308Y-115733333D02*
X140281070Y-115685714D01*
X140090594Y-115685714D01*
X139995356Y-115733333D01*
X139947737Y-115780952D01*
X139900118Y-115876190D01*
X139900118Y-116161904D01*
X139947737Y-116257142D01*
X139995356Y-116304761D01*
X140090594Y-116352380D01*
X140281070Y-116352380D01*
X140376308Y-116304761D01*
X139566784Y-115685714D02*
X139328689Y-116352380D01*
X139090594Y-115685714D02*
X139328689Y-116352380D01*
X139423927Y-116590476D01*
X139471546Y-116638095D01*
X139566784Y-116685714D01*
X137328689Y-115876190D02*
X137376308Y-115828571D01*
X137471546Y-115780952D01*
X137566784Y-115780952D01*
X137662022Y-115828571D01*
X137709641Y-115876190D01*
X137757260Y-115971428D01*
X137757260Y-116066666D01*
X137709641Y-116161904D01*
X137662022Y-116209523D01*
X137566784Y-116257142D01*
X137471546Y-116257142D01*
X137376308Y-116209523D01*
X137328689Y-116161904D01*
X137328689Y-115780952D02*
X137328689Y-116161904D01*
X137281070Y-116209523D01*
X137233451Y-116209523D01*
X137138213Y-116161904D01*
X137090594Y-116066666D01*
X137090594Y-115828571D01*
X137185832Y-115685714D01*
X137328689Y-115590476D01*
X137519165Y-115542857D01*
X137709641Y-115590476D01*
X137852499Y-115685714D01*
X137947737Y-115828571D01*
X137995356Y-116019047D01*
X137947737Y-116209523D01*
X137852499Y-116352380D01*
X137709641Y-116447619D01*
X137519165Y-116495238D01*
X137328689Y-116447619D01*
X137185832Y-116352380D01*
X136662022Y-115685714D02*
X136662022Y-116352380D01*
X136662022Y-115780952D02*
X136614403Y-115733333D01*
X136519165Y-115685714D01*
X136376308Y-115685714D01*
X136281070Y-115733333D01*
X136233451Y-115828571D01*
X136233451Y-116352380D01*
X135328689Y-116352380D02*
X135328689Y-115828571D01*
X135376308Y-115733333D01*
X135471546Y-115685714D01*
X135662022Y-115685714D01*
X135757260Y-115733333D01*
X135328689Y-116304761D02*
X135423927Y-116352380D01*
X135662022Y-116352380D01*
X135757260Y-116304761D01*
X135804879Y-116209523D01*
X135804879Y-116114285D01*
X135757260Y-116019047D01*
X135662022Y-115971428D01*
X135423927Y-115971428D01*
X135328689Y-115923809D01*
X134852499Y-116352380D02*
X134852499Y-115685714D01*
X134852499Y-115876190D02*
X134804879Y-115780952D01*
X134757260Y-115733333D01*
X134662022Y-115685714D01*
X134566784Y-115685714D01*
X134233451Y-116352380D02*
X134233451Y-115685714D01*
X134233451Y-115352380D02*
X134281070Y-115400000D01*
X134233451Y-115447619D01*
X134185832Y-115400000D01*
X134233451Y-115352380D01*
X134233451Y-115447619D01*
X133757260Y-115685714D02*
X133757260Y-116352380D01*
X133757260Y-115780952D02*
X133709641Y-115733333D01*
X133614403Y-115685714D01*
X133471546Y-115685714D01*
X133376308Y-115733333D01*
X133328689Y-115828571D01*
X133328689Y-116352380D01*
X132423927Y-116352380D02*
X132423927Y-115828571D01*
X132471546Y-115733333D01*
X132566784Y-115685714D01*
X132757260Y-115685714D01*
X132852499Y-115733333D01*
X132423927Y-116304761D02*
X132519165Y-116352380D01*
X132757260Y-116352380D01*
X132852499Y-116304761D01*
X132900118Y-116209523D01*
X132900118Y-116114285D01*
X132852499Y-116019047D01*
X132757260Y-115971428D01*
X132519165Y-115971428D01*
X132423927Y-115923809D01*
X131947737Y-116352380D02*
X131947737Y-115685714D01*
X131947737Y-115876190D02*
X131900118Y-115780952D01*
X131852499Y-115733333D01*
X131757260Y-115685714D01*
X131662022Y-115685714D01*
X131328689Y-116352380D02*
X131328689Y-115685714D01*
X131328689Y-115352380D02*
X131376308Y-115400000D01*
X131328689Y-115447619D01*
X131281070Y-115400000D01*
X131328689Y-115352380D01*
X131328689Y-115447619D01*
X150900117Y-114704761D02*
X150757260Y-114752380D01*
X150519165Y-114752380D01*
X150423927Y-114704761D01*
X150376308Y-114657142D01*
X150328689Y-114561904D01*
X150328689Y-114466666D01*
X150376308Y-114371428D01*
X150423927Y-114323809D01*
X150519165Y-114276190D01*
X150709641Y-114228571D01*
X150804879Y-114180952D01*
X150852498Y-114133333D01*
X150900117Y-114038095D01*
X150900117Y-113942857D01*
X150852498Y-113847619D01*
X150804879Y-113800000D01*
X150709641Y-113752380D01*
X150471546Y-113752380D01*
X150328689Y-113800000D01*
X149519165Y-114704761D02*
X149614403Y-114752380D01*
X149804879Y-114752380D01*
X149900117Y-114704761D01*
X149947736Y-114609523D01*
X149947736Y-114228571D01*
X149900117Y-114133333D01*
X149804879Y-114085714D01*
X149614403Y-114085714D01*
X149519165Y-114133333D01*
X149471546Y-114228571D01*
X149471546Y-114323809D01*
X149947736Y-114419047D01*
X148900117Y-114752380D02*
X148995355Y-114704761D01*
X149042974Y-114609523D01*
X149042974Y-113752380D01*
X148138213Y-114704761D02*
X148233451Y-114752380D01*
X148423927Y-114752380D01*
X148519165Y-114704761D01*
X148566784Y-114609523D01*
X148566784Y-114228571D01*
X148519165Y-114133333D01*
X148423927Y-114085714D01*
X148233451Y-114085714D01*
X148138213Y-114133333D01*
X148090594Y-114228571D01*
X148090594Y-114323809D01*
X148566784Y-114419047D01*
X147662022Y-114085714D02*
X147662022Y-114752380D01*
X147662022Y-114180952D02*
X147614403Y-114133333D01*
X147519165Y-114085714D01*
X147376308Y-114085714D01*
X147281070Y-114133333D01*
X147233451Y-114228571D01*
X147233451Y-114752380D01*
X145995355Y-114752380D02*
X145995355Y-114085714D01*
X145995355Y-114276190D02*
X145947736Y-114180952D01*
X145900117Y-114133333D01*
X145804879Y-114085714D01*
X145709641Y-114085714D01*
X145423927Y-113847619D02*
X145376308Y-113800000D01*
X145281070Y-113752380D01*
X145042974Y-113752380D01*
X144947736Y-113800000D01*
X144900117Y-113847619D01*
X144852498Y-113942857D01*
X144852498Y-114038095D01*
X144900117Y-114180952D01*
X145471546Y-114752380D01*
X144852498Y-114752380D01*
X143757260Y-114085714D02*
X143519165Y-114752380D01*
X143281070Y-114085714D01*
X142900117Y-114657142D02*
X142852498Y-114704761D01*
X142900117Y-114752380D01*
X142947736Y-114704761D01*
X142900117Y-114657142D01*
X142900117Y-114752380D01*
X142233451Y-113752380D02*
X142138213Y-113752380D01*
X142042974Y-113800000D01*
X141995355Y-113847619D01*
X141947736Y-113942857D01*
X141900117Y-114133333D01*
X141900117Y-114371428D01*
X141947736Y-114561904D01*
X141995355Y-114657142D01*
X142042974Y-114704761D01*
X142138213Y-114752380D01*
X142233451Y-114752380D01*
X142328689Y-114704761D01*
X142376308Y-114657142D01*
X142423927Y-114561904D01*
X142471546Y-114371428D01*
X142471546Y-114133333D01*
X142423927Y-113942857D01*
X142376308Y-113847619D01*
X142328689Y-113800000D01*
X142233451Y-113752380D01*
X141471546Y-114657142D02*
X141423927Y-114704761D01*
X141471546Y-114752380D01*
X141519165Y-114704761D01*
X141471546Y-114657142D01*
X141471546Y-114752380D01*
X141090594Y-113752380D02*
X140471546Y-113752380D01*
X140804879Y-114133333D01*
X140662022Y-114133333D01*
X140566784Y-114180952D01*
X140519165Y-114228571D01*
X140471546Y-114323809D01*
X140471546Y-114561904D01*
X140519165Y-114657142D01*
X140566784Y-114704761D01*
X140662022Y-114752380D01*
X140947736Y-114752380D01*
X141042974Y-114704761D01*
X141090594Y-114657142D01*
X140042974Y-114657142D02*
X139995355Y-114704761D01*
X140042974Y-114752380D01*
X140090594Y-114704761D01*
X140042974Y-114657142D01*
X140042974Y-114752380D01*
X139376308Y-113752380D02*
X139281070Y-113752380D01*
X139185832Y-113800000D01*
X139138213Y-113847619D01*
X139090594Y-113942857D01*
X139042974Y-114133333D01*
X139042974Y-114371428D01*
X139090594Y-114561904D01*
X139138213Y-114657142D01*
X139185832Y-114704761D01*
X139281070Y-114752380D01*
X139376308Y-114752380D01*
X139471546Y-114704761D01*
X139519165Y-114657142D01*
X139566784Y-114561904D01*
X139614403Y-114371428D01*
X139614403Y-114133333D01*
X139566784Y-113942857D01*
X139519165Y-113847619D01*
X139471546Y-113800000D01*
X139376308Y-113752380D01*
X137900117Y-114704761D02*
X137804879Y-114752380D01*
X137614403Y-114752380D01*
X137519165Y-114704761D01*
X137471546Y-114609523D01*
X137471546Y-114561904D01*
X137519165Y-114466666D01*
X137614403Y-114419047D01*
X137757260Y-114419047D01*
X137852498Y-114371428D01*
X137900117Y-114276190D01*
X137900117Y-114228571D01*
X137852498Y-114133333D01*
X137757260Y-114085714D01*
X137614403Y-114085714D01*
X137519165Y-114133333D01*
X137185832Y-114085714D02*
X136804879Y-114085714D01*
X137042974Y-113752380D02*
X137042974Y-114609523D01*
X136995355Y-114704761D01*
X136900117Y-114752380D01*
X136804879Y-114752380D01*
X136042974Y-114752380D02*
X136042974Y-114228571D01*
X136090594Y-114133333D01*
X136185832Y-114085714D01*
X136376308Y-114085714D01*
X136471546Y-114133333D01*
X136042974Y-114704761D02*
X136138213Y-114752380D01*
X136376308Y-114752380D01*
X136471546Y-114704761D01*
X136519165Y-114609523D01*
X136519165Y-114514285D01*
X136471546Y-114419047D01*
X136376308Y-114371428D01*
X136138213Y-114371428D01*
X136042974Y-114323809D01*
X135566784Y-114752380D02*
X135566784Y-114085714D01*
X135566784Y-114276190D02*
X135519165Y-114180952D01*
X135471546Y-114133333D01*
X135376308Y-114085714D01*
X135281070Y-114085714D01*
X134519165Y-114752380D02*
X134519165Y-113752380D01*
X134519165Y-114704761D02*
X134614403Y-114752380D01*
X134804879Y-114752380D01*
X134900117Y-114704761D01*
X134947736Y-114657142D01*
X134995355Y-114561904D01*
X134995355Y-114276190D01*
X134947736Y-114180952D01*
X134900117Y-114133333D01*
X134804879Y-114085714D01*
X134614403Y-114085714D01*
X134519165Y-114133333D01*
X133614403Y-114752380D02*
X133614403Y-114228571D01*
X133662022Y-114133333D01*
X133757260Y-114085714D01*
X133947736Y-114085714D01*
X134042974Y-114133333D01*
X133614403Y-114704761D02*
X133709641Y-114752380D01*
X133947736Y-114752380D01*
X134042974Y-114704761D01*
X134090594Y-114609523D01*
X134090594Y-114514285D01*
X134042974Y-114419047D01*
X133947736Y-114371428D01*
X133709641Y-114371428D01*
X133614403Y-114323809D01*
X133138213Y-114752380D02*
X133138213Y-114085714D01*
X133138213Y-114276190D02*
X133090594Y-114180952D01*
X133042974Y-114133333D01*
X132947736Y-114085714D01*
X132852498Y-114085714D01*
X132090594Y-114752380D02*
X132090594Y-113752380D01*
X132090594Y-114704761D02*
X132185832Y-114752380D01*
X132376308Y-114752380D01*
X132471546Y-114704761D01*
X132519165Y-114657142D01*
X132566784Y-114561904D01*
X132566784Y-114276190D01*
X132519165Y-114180952D01*
X132471546Y-114133333D01*
X132376308Y-114085714D01*
X132185832Y-114085714D01*
X132090594Y-114133333D01*
D11*
%TO.C,D9*%
X153500000Y-92800000D03*
D12*
X152900000Y-92400000D03*
D11*
X153500000Y-96300000D03*
D12*
X154100000Y-96700000D03*
%TD*%
D11*
%TO.C,D4*%
X153500000Y-73800000D03*
D12*
X152900000Y-73400000D03*
X154100000Y-77700000D03*
D11*
X153500000Y-77300000D03*
%TD*%
%TO.C,D12*%
X117750000Y-116234000D03*
D12*
X117150000Y-115834000D03*
D11*
X117750000Y-119734000D03*
D12*
X118350000Y-120134000D03*
%TD*%
D13*
%TO.C,J2*%
X168200000Y-118500000D03*
X168200000Y-123580000D03*
D14*
X170100000Y-122900000D03*
X170100000Y-121500000D03*
D13*
X168200000Y-121040000D03*
D14*
X170100000Y-120100000D03*
D13*
X168200000Y-126120000D03*
D14*
X170100000Y-124300000D03*
D15*
X171100000Y-120100000D03*
X171100000Y-121500000D03*
X171100000Y-122900000D03*
X171100000Y-124300000D03*
%TD*%
D16*
%TO.C,D17*%
X192532000Y-126746000D03*
D12*
X191966167Y-127193027D03*
X196426531Y-127380532D03*
D16*
X195860698Y-127827560D03*
%TD*%
D17*
%TO.C,SW1*%
X94830000Y-80962500D03*
D18*
X96520000Y-83502500D03*
D19*
X95250000Y-80962500D03*
D18*
X104140000Y-83502500D03*
X95330000Y-77262500D03*
X100330000Y-75062500D03*
D19*
X105410000Y-80962500D03*
D18*
X105330000Y-77262500D03*
X97790000Y-86042500D03*
X102870000Y-86042500D03*
D20*
X100330000Y-80962500D03*
D17*
X105830000Y-80962500D03*
D21*
X108430000Y-77262500D03*
X107230000Y-83502500D03*
X94730000Y-86042500D03*
D22*
X97530000Y-75062500D03*
%TD*%
D19*
%TO.C,SW13*%
X137795000Y-102393750D03*
D17*
X148375000Y-102393750D03*
D18*
X147875000Y-98693750D03*
X137875000Y-98693750D03*
X142875000Y-96493750D03*
X140335000Y-107473750D03*
D19*
X147955000Y-102393750D03*
D18*
X139065000Y-104933750D03*
X146685000Y-104933750D03*
X145415000Y-107473750D03*
D20*
X142875000Y-102393750D03*
D17*
X137375000Y-102393750D03*
D21*
X150975000Y-98693750D03*
X149775000Y-104933750D03*
D22*
X140075000Y-96493750D03*
D21*
X137275000Y-107473750D03*
%TD*%
D12*
%TO.C,D15*%
X171850000Y-117600000D03*
D11*
X171250000Y-117200000D03*
D12*
X170650000Y-113300000D03*
D11*
X171250000Y-113700000D03*
%TD*%
D23*
%TO.C,REF\u002A\u002A*%
X170200000Y-78800000D03*
%TD*%
D12*
%TO.C,D8*%
X135350000Y-91600000D03*
D11*
X134750000Y-91200000D03*
X134750000Y-87700000D03*
D12*
X134150000Y-87300000D03*
%TD*%
D23*
%TO.C,REF\u002A\u002A*%
X112600000Y-108400000D03*
%TD*%
D18*
%TO.C,SW7*%
X121443750Y-83635000D03*
D17*
X126943750Y-89535000D03*
D18*
X123983750Y-94615000D03*
X117633750Y-92075000D03*
X118903750Y-94615000D03*
X126443750Y-85835000D03*
D20*
X121443750Y-89535000D03*
D18*
X125253750Y-92075000D03*
D17*
X115943750Y-89535000D03*
D19*
X116363750Y-89535000D03*
D18*
X116443750Y-85835000D03*
D19*
X126523750Y-89535000D03*
D21*
X128343750Y-92075000D03*
X129543750Y-85835000D03*
X115843750Y-94615000D03*
D22*
X118643750Y-83635000D03*
%TD*%
D11*
%TO.C,D11*%
X115500000Y-119634000D03*
D12*
X116100000Y-120034000D03*
X114900000Y-115734000D03*
D11*
X115500000Y-116134000D03*
%TD*%
D23*
%TO.C,REF\u002A\u002A*%
X130810000Y-75692000D03*
%TD*%
D18*
%TO.C,SW6*%
X98583750Y-102552500D03*
X107393750Y-96312500D03*
D17*
X107893750Y-100012500D03*
X96893750Y-100012500D03*
D20*
X102393750Y-100012500D03*
D18*
X102393750Y-94112500D03*
D19*
X97313750Y-100012500D03*
D18*
X104933750Y-105092500D03*
X106203750Y-102552500D03*
X99853750Y-105092500D03*
X97393750Y-96312500D03*
D19*
X107473750Y-100012500D03*
D21*
X110493750Y-96312500D03*
X109293750Y-102552500D03*
X96793750Y-105092500D03*
D22*
X99593750Y-94112500D03*
%TD*%
D23*
%TO.C,REF\u002A\u002A*%
X110400000Y-89400000D03*
%TD*%
D18*
%TO.C,SW11*%
X104775000Y-113321250D03*
X108585000Y-121761250D03*
X109775000Y-115521250D03*
D20*
X104775000Y-119221250D03*
D18*
X99775000Y-115521250D03*
D17*
X110275000Y-119221250D03*
D19*
X109855000Y-119221250D03*
D17*
X99275000Y-119221250D03*
D18*
X102235000Y-124301250D03*
X100965000Y-121761250D03*
D19*
X99695000Y-119221250D03*
D18*
X107315000Y-124301250D03*
D21*
X111675000Y-121761250D03*
X112875000Y-115521250D03*
D22*
X101975000Y-113321250D03*
D21*
X99175000Y-124301250D03*
%TD*%
D24*
%TO.C,REF\u002A\u002A*%
X189200000Y-79150000D03*
X189200000Y-117250000D03*
X170150000Y-98200000D03*
%TD*%
D18*
%TO.C,SW8*%
X142875000Y-77443750D03*
D20*
X142875000Y-83343750D03*
D19*
X137795000Y-83343750D03*
D17*
X137375000Y-83343750D03*
D18*
X137875000Y-79643750D03*
X147875000Y-79643750D03*
X145415000Y-88423750D03*
X146685000Y-85883750D03*
X139065000Y-85883750D03*
D19*
X147955000Y-83343750D03*
D17*
X148375000Y-83343750D03*
D18*
X140335000Y-88423750D03*
D21*
X149775000Y-85883750D03*
X150975000Y-79643750D03*
X137275000Y-88423750D03*
D22*
X140075000Y-77443750D03*
%TD*%
D18*
%TO.C,SW10*%
X180340000Y-86968750D03*
X185340000Y-89168750D03*
D17*
X174840000Y-92868750D03*
D18*
X175340000Y-89168750D03*
X177800000Y-97948750D03*
X176530000Y-95408750D03*
D17*
X185840000Y-92868750D03*
D20*
X180340000Y-92868750D03*
D18*
X182880000Y-97948750D03*
D19*
X185420000Y-92868750D03*
D18*
X184150000Y-95408750D03*
D19*
X175260000Y-92868750D03*
D21*
X188440000Y-89168750D03*
X187240000Y-95408750D03*
X174740000Y-97948750D03*
D22*
X177540000Y-86968750D03*
%TD*%
D18*
%TO.C,SW15*%
X175340000Y-108060000D03*
D19*
X175260000Y-111760000D03*
D18*
X177800000Y-116840000D03*
D17*
X174840000Y-111760000D03*
X185840000Y-111760000D03*
D18*
X176530000Y-114300000D03*
D20*
X180340000Y-111760000D03*
D18*
X182880000Y-116840000D03*
X185340000Y-108060000D03*
X184150000Y-114300000D03*
X180340000Y-105860000D03*
D19*
X185420000Y-111760000D03*
D21*
X187240000Y-114300000D03*
X188440000Y-108060000D03*
D22*
X177540000Y-105860000D03*
D21*
X174740000Y-116840000D03*
%TD*%
D20*
%TO.C,SW3*%
X142875000Y-64293750D03*
D17*
X148375000Y-64293750D03*
D18*
X142875000Y-58393750D03*
D19*
X137795000Y-64293750D03*
D18*
X137875000Y-60593750D03*
X139065000Y-66833750D03*
X147875000Y-60593750D03*
D19*
X147955000Y-64293750D03*
D18*
X145415000Y-69373750D03*
X146685000Y-66833750D03*
D17*
X137375000Y-64293750D03*
D18*
X140335000Y-69373750D03*
D21*
X149775000Y-66833750D03*
X150975000Y-60593750D03*
X137275000Y-69373750D03*
D22*
X140075000Y-58393750D03*
%TD*%
D17*
%TO.C,SW16*%
X174455262Y-132521675D03*
D18*
X175339278Y-128894209D03*
D20*
X179925132Y-133096582D03*
D18*
X175870501Y-135224414D03*
D19*
X184977303Y-133627587D03*
D18*
X181920213Y-138414256D03*
X185284497Y-129939493D03*
D17*
X185395002Y-133671489D03*
D18*
X180541850Y-127228903D03*
X176868042Y-137883251D03*
D19*
X174872961Y-132565577D03*
D18*
X183448758Y-136020921D03*
D25*
X186521831Y-136343914D03*
X188367515Y-130263532D03*
D26*
X177757189Y-126936223D03*
D25*
X173824805Y-137563394D03*
%TD*%
D11*
%TO.C,D3*%
X134750000Y-72200000D03*
D12*
X135350000Y-72600000D03*
D11*
X134750000Y-68700000D03*
D12*
X134150000Y-68300000D03*
%TD*%
%TO.C,D5*%
X174400000Y-85100000D03*
D11*
X173800000Y-84700000D03*
D12*
X173200000Y-80800000D03*
D11*
X173800000Y-81200000D03*
%TD*%
D12*
%TO.C,D1*%
X110836000Y-83634000D03*
D11*
X110236000Y-83234000D03*
D12*
X109636000Y-79334000D03*
D11*
X110236000Y-79734000D03*
%TD*%
D20*
%TO.C,SW2*%
X119062500Y-70485000D03*
D18*
X121602500Y-75565000D03*
X116522500Y-75565000D03*
D19*
X113982500Y-70485000D03*
X124142500Y-70485000D03*
D18*
X122872500Y-73025000D03*
X115252500Y-73025000D03*
D17*
X113562500Y-70485000D03*
D18*
X124062500Y-66785000D03*
X114062500Y-66785000D03*
D17*
X124562500Y-70485000D03*
D18*
X119062500Y-64585000D03*
D21*
X125962500Y-73025000D03*
X127162500Y-66785000D03*
D22*
X116262500Y-64585000D03*
D21*
X113462500Y-75565000D03*
%TD*%
D18*
%TO.C,SW9*%
X156607500Y-84406250D03*
D20*
X161607500Y-88106250D03*
D18*
X159067500Y-93186250D03*
X165417500Y-90646250D03*
X157797500Y-90646250D03*
D17*
X167107500Y-88106250D03*
D18*
X164147500Y-93186250D03*
D17*
X156107500Y-88106250D03*
D19*
X156527500Y-88106250D03*
D18*
X161607500Y-82206250D03*
D19*
X166687500Y-88106250D03*
D18*
X166607500Y-84406250D03*
D21*
X168507500Y-90646250D03*
X169707500Y-84406250D03*
D22*
X158807500Y-82206250D03*
D21*
X156007500Y-93186250D03*
%TD*%
D17*
%TO.C,SW5*%
X185840000Y-73818750D03*
D18*
X180340000Y-67918750D03*
D20*
X180340000Y-73818750D03*
D18*
X177800000Y-78898750D03*
D17*
X174840000Y-73818750D03*
D18*
X184150000Y-76358750D03*
X182880000Y-78898750D03*
X175340000Y-70118750D03*
D19*
X185420000Y-73818750D03*
D18*
X185340000Y-70118750D03*
X176530000Y-76358750D03*
D19*
X175260000Y-73818750D03*
D21*
X187240000Y-76358750D03*
X188440000Y-70118750D03*
X174740000Y-78898750D03*
D22*
X177540000Y-67918750D03*
%TD*%
D12*
%TO.C,D16*%
X186446575Y-125380369D03*
D16*
X187012408Y-124933342D03*
D12*
X190906939Y-125567874D03*
D16*
X190341106Y-126014902D03*
%TD*%
D12*
%TO.C,D13*%
X135350000Y-110850000D03*
D11*
X134750000Y-110450000D03*
D12*
X134150000Y-106550000D03*
D11*
X134750000Y-106950000D03*
%TD*%
D12*
%TO.C,D10*%
X174000000Y-103700000D03*
D11*
X173400000Y-103300000D03*
D12*
X172800000Y-99400000D03*
D11*
X173400000Y-99800000D03*
%TD*%
D17*
%TO.C,SW17*%
X194806738Y-135823708D03*
D18*
X205936194Y-135549477D03*
D19*
X195206182Y-135953495D03*
D18*
X196425629Y-132459307D03*
X201860749Y-131912068D03*
X200883426Y-143139571D03*
D17*
X205268360Y-139222894D03*
D20*
X200037549Y-137523301D03*
D18*
X196052059Y-141569765D03*
X195629121Y-138761630D03*
X202876171Y-141116339D03*
D19*
X204868916Y-139093107D03*
D27*
X205814936Y-142071202D03*
X208884470Y-136507430D03*
X193141826Y-140624173D03*
D28*
X199197791Y-131046820D03*
%TD*%
D18*
%TO.C,SW12*%
X121285000Y-113665000D03*
D20*
X123825000Y-108585000D03*
D18*
X118825000Y-104885000D03*
X123825000Y-102685000D03*
X120015000Y-111125000D03*
D19*
X128905000Y-108585000D03*
D17*
X118325000Y-108585000D03*
D19*
X118745000Y-108585000D03*
D18*
X126365000Y-113665000D03*
D17*
X129325000Y-108585000D03*
D18*
X127635000Y-111125000D03*
X128825000Y-104885000D03*
D21*
X130725000Y-111125000D03*
X131925000Y-104885000D03*
X118225000Y-113665000D03*
D22*
X121025000Y-102685000D03*
%TD*%
D12*
%TO.C,D14*%
X152900000Y-111400000D03*
D11*
X153500000Y-111800000D03*
X153500000Y-115300000D03*
D12*
X154100000Y-115700000D03*
%TD*%
D29*
%TO.C,J1*%
X210914195Y-125872126D03*
X204256799Y-123709007D03*
X210373415Y-127536475D03*
X203716020Y-125373356D03*
D30*
X201226469Y-122356381D03*
X200469377Y-124686469D03*
X209851229Y-123318676D03*
X208012578Y-128977463D03*
X206998059Y-122391625D03*
X205159408Y-128050412D03*
X201355182Y-126814344D03*
X203193833Y-121155557D03*
%TD*%
D11*
%TO.C,D2*%
X112111000Y-79834000D03*
D12*
X111511000Y-79434000D03*
D11*
X112111000Y-83334000D03*
D12*
X112711000Y-83734000D03*
%TD*%
D18*
%TO.C,SW14*%
X156607500Y-103456250D03*
D19*
X166687500Y-107156250D03*
D18*
X157797500Y-109696250D03*
D17*
X167107500Y-107156250D03*
D18*
X161607500Y-101256250D03*
X159067500Y-112236250D03*
X165417500Y-109696250D03*
D20*
X161607500Y-107156250D03*
D18*
X164147500Y-112236250D03*
D19*
X156527500Y-107156250D03*
D17*
X156107500Y-107156250D03*
D18*
X166607500Y-103456250D03*
D21*
X169707500Y-103456250D03*
X168507500Y-109696250D03*
D22*
X158807500Y-101256250D03*
D21*
X156007500Y-112236250D03*
%TD*%
D11*
%TO.C,D7*%
X114300000Y-99138000D03*
D12*
X113700000Y-98738000D03*
X114900000Y-103038000D03*
D11*
X114300000Y-102638000D03*
%TD*%
D18*
%TO.C,SW4*%
X165417500Y-71596250D03*
D19*
X156527500Y-69056250D03*
D17*
X167107500Y-69056250D03*
D18*
X159067500Y-74136250D03*
D17*
X156107500Y-69056250D03*
D19*
X166687500Y-69056250D03*
D18*
X161607500Y-63156250D03*
X166607500Y-65356250D03*
D20*
X161607500Y-69056250D03*
D18*
X164147500Y-74136250D03*
X157797500Y-71596250D03*
X156607500Y-65356250D03*
D21*
X169707500Y-65356250D03*
X168507500Y-71596250D03*
X156007500Y-74136250D03*
D22*
X158807500Y-63156250D03*
%TD*%
D14*
%TO.C,U1*%
X196088184Y-108687504D03*
D31*
X192088184Y-97731296D03*
D14*
X196112572Y-110687504D03*
D31*
X209755064Y-105351296D03*
D14*
X196088184Y-102687504D03*
D31*
X209755064Y-100271296D03*
X192088184Y-112971296D03*
X192088184Y-102811296D03*
D14*
X196063796Y-112687504D03*
D31*
X209755064Y-112971296D03*
X209755064Y-102811296D03*
D32*
X205588184Y-100687504D03*
X205588184Y-110687504D03*
D14*
X196088184Y-100687504D03*
D32*
X205563796Y-112687504D03*
X205588184Y-104687504D03*
D31*
X209755064Y-97731296D03*
D32*
X205588184Y-102687504D03*
X205563796Y-106687504D03*
D31*
X192088184Y-107891296D03*
D14*
X196063796Y-106687504D03*
D31*
X192088184Y-100271296D03*
X209755064Y-107891296D03*
D14*
X196088184Y-104687504D03*
D31*
X192088184Y-105351296D03*
X192088184Y-110431296D03*
X209755064Y-110431296D03*
D32*
X205588184Y-108687504D03*
D15*
X197088184Y-100687504D03*
X197088184Y-102687504D03*
X197088184Y-104687504D03*
X197063796Y-106687504D03*
X197088184Y-108687504D03*
X197112572Y-110687504D03*
X197063796Y-112687504D03*
D33*
X204563796Y-112687504D03*
X204588184Y-110687504D03*
X204588184Y-108687504D03*
X204563796Y-106687504D03*
X204588184Y-104687504D03*
X204588184Y-102687504D03*
X204588184Y-100687504D03*
D34*
X202139381Y-97044929D03*
X199599381Y-97044929D03*
%TD*%
D23*
%TO.C,REF\u002A\u002A*%
X189992000Y-135250000D03*
%TD*%
%TO.C,REF\u002A\u002A*%
X131800000Y-94800000D03*
%TD*%
D12*
%TO.C,D6*%
X112868000Y-102938000D03*
D11*
X112268000Y-102538000D03*
X112268000Y-99038000D03*
D12*
X111668000Y-98638000D03*
%TD*%
M02*
