%TF.GenerationSoftware,KiCad,Pcbnew,(6.0.7)*%
%TF.CreationDate,2022-09-04T15:46:55+09:00*%
%TF.ProjectId,selen_plate,73656c65-6e5f-4706-9c61-74652e6b6963,rev?*%
%TF.SameCoordinates,Original*%
%TF.FileFunction,Legend,Bot*%
%TF.FilePolarity,Positive*%
%FSLAX46Y46*%
G04 Gerber Fmt 4.6, Leading zero omitted, Abs format (unit mm)*
G04 Created by KiCad (PCBNEW (6.0.7)) date 2022-09-04 15:46:55*
%MOMM*%
%LPD*%
G01*
G04 APERTURE LIST*
%ADD10C,0.150000*%
G04 APERTURE END LIST*
D10*
X205880951Y-113652380D02*
X206214284Y-113176190D01*
X206452379Y-113652380D02*
X206452379Y-112652380D01*
X206071427Y-112652380D01*
X205976189Y-112700000D01*
X205928570Y-112747619D01*
X205880951Y-112842857D01*
X205880951Y-112985714D01*
X205928570Y-113080952D01*
X205976189Y-113128571D01*
X206071427Y-113176190D01*
X206452379Y-113176190D01*
X205071427Y-113604761D02*
X205166665Y-113652380D01*
X205357141Y-113652380D01*
X205452379Y-113604761D01*
X205499998Y-113509523D01*
X205499998Y-113128571D01*
X205452379Y-113033333D01*
X205357141Y-112985714D01*
X205166665Y-112985714D01*
X205071427Y-113033333D01*
X205023808Y-113128571D01*
X205023808Y-113223809D01*
X205499998Y-113319047D01*
X204642856Y-113604761D02*
X204547617Y-113652380D01*
X204357141Y-113652380D01*
X204261903Y-113604761D01*
X204214284Y-113509523D01*
X204214284Y-113461904D01*
X204261903Y-113366666D01*
X204357141Y-113319047D01*
X204499998Y-113319047D01*
X204595236Y-113271428D01*
X204642856Y-113176190D01*
X204642856Y-113128571D01*
X204595236Y-113033333D01*
X204499998Y-112985714D01*
X204357141Y-112985714D01*
X204261903Y-113033333D01*
X203404760Y-113604761D02*
X203499998Y-113652380D01*
X203690475Y-113652380D01*
X203785713Y-113604761D01*
X203833332Y-113509523D01*
X203833332Y-113128571D01*
X203785713Y-113033333D01*
X203690475Y-112985714D01*
X203499998Y-112985714D01*
X203404760Y-113033333D01*
X203357141Y-113128571D01*
X203357141Y-113223809D01*
X203833332Y-113319047D01*
X203071427Y-112985714D02*
X202690475Y-112985714D01*
X202928570Y-112652380D02*
X202928570Y-113509523D01*
X202880951Y-113604761D01*
X202785713Y-113652380D01*
X202690475Y-113652380D01*
X196561903Y-113128571D02*
X196419046Y-113176190D01*
X196371427Y-113223809D01*
X196323808Y-113319047D01*
X196323808Y-113461904D01*
X196371427Y-113557142D01*
X196419046Y-113604761D01*
X196514284Y-113652380D01*
X196895236Y-113652380D01*
X196895236Y-112652380D01*
X196561903Y-112652380D01*
X196466665Y-112700000D01*
X196419046Y-112747619D01*
X196371427Y-112842857D01*
X196371427Y-112938095D01*
X196419046Y-113033333D01*
X196466665Y-113080952D01*
X196561903Y-113128571D01*
X196895236Y-113128571D01*
X195752379Y-113652380D02*
X195847617Y-113604761D01*
X195895236Y-113557142D01*
X195942856Y-113461904D01*
X195942856Y-113176190D01*
X195895236Y-113080952D01*
X195847617Y-113033333D01*
X195752379Y-112985714D01*
X195609522Y-112985714D01*
X195514284Y-113033333D01*
X195466665Y-113080952D01*
X195419046Y-113176190D01*
X195419046Y-113461904D01*
X195466665Y-113557142D01*
X195514284Y-113604761D01*
X195609522Y-113652380D01*
X195752379Y-113652380D01*
X194847617Y-113652380D02*
X194942856Y-113604761D01*
X194990475Y-113557142D01*
X195038094Y-113461904D01*
X195038094Y-113176190D01*
X194990475Y-113080952D01*
X194942856Y-113033333D01*
X194847617Y-112985714D01*
X194704760Y-112985714D01*
X194609522Y-113033333D01*
X194561903Y-113080952D01*
X194514284Y-113176190D01*
X194514284Y-113461904D01*
X194561903Y-113557142D01*
X194609522Y-113604761D01*
X194704760Y-113652380D01*
X194847617Y-113652380D01*
X194228570Y-112985714D02*
X193847617Y-112985714D01*
X194085713Y-112652380D02*
X194085713Y-113509523D01*
X194038094Y-113604761D01*
X193942856Y-113652380D01*
X193847617Y-113652380D01*
M02*
