%TF.GenerationSoftware,KiCad,Pcbnew,(6.0.7)*%
%TF.CreationDate,2022-09-04T15:46:55+09:00*%
%TF.ProjectId,selen_plate,73656c65-6e5f-4706-9c61-74652e6b6963,rev?*%
%TF.SameCoordinates,Original*%
%TF.FileFunction,Profile,NP*%
%FSLAX46Y46*%
G04 Gerber Fmt 4.6, Leading zero omitted, Abs format (unit mm)*
G04 Created by KiCad (PCBNEW (6.0.7)) date 2022-09-04 15:46:55*
%MOMM*%
%LPD*%
G01*
G04 APERTURE LIST*
%TA.AperFunction,Profile*%
%ADD10C,0.100000*%
%TD*%
G04 APERTURE END LIST*
D10*
X111760106Y-126172740D02*
X111760106Y-126172740D01*
X102261458Y-111400000D02*
X98761413Y-111400000D01*
X107290612Y-126995946D02*
X110790658Y-126995946D01*
X107290612Y-126995946D02*
X107290612Y-126995946D01*
X110790658Y-126172740D02*
X110790658Y-126172740D01*
X107290608Y-111400000D02*
X107290608Y-112202534D01*
X110790654Y-112202534D02*
X110790654Y-111400000D01*
X102261458Y-112202534D02*
X102261458Y-111400000D01*
X102261458Y-111400000D02*
X102261458Y-111400000D01*
X97789895Y-112202534D02*
X97789895Y-112202534D01*
X107290608Y-112202534D02*
X107290608Y-112202534D01*
X102261462Y-126995946D02*
X102261462Y-126172740D01*
X98761416Y-126995946D02*
X98761416Y-126995946D01*
X107290612Y-126172740D02*
X107290612Y-126995946D01*
X102261462Y-126172740D02*
X107290612Y-126172740D01*
X98761413Y-112202534D02*
X98761413Y-112202534D01*
X98761416Y-126995946D02*
X102261462Y-126995946D01*
X110790654Y-111400000D02*
X110790654Y-111400000D01*
X107290612Y-126172740D02*
X107290612Y-126172740D01*
X111760106Y-126172740D02*
X111760106Y-112202534D01*
X98761416Y-126172740D02*
X98761416Y-126995946D01*
X110790658Y-126995946D02*
X110790658Y-126995946D01*
X102261462Y-126172740D02*
X102261462Y-126172740D01*
X97789895Y-112202534D02*
X97789899Y-126172740D01*
X98761413Y-111400000D02*
X98761413Y-111400000D01*
X110790658Y-126995946D02*
X110790658Y-126172740D01*
X98761413Y-111400000D02*
X98761413Y-112202534D01*
X102261462Y-126995946D02*
X102261462Y-126995946D01*
X97789899Y-126172740D02*
X98761416Y-126172740D01*
X111760106Y-112202534D02*
X110790654Y-112202534D01*
X110790658Y-126172740D02*
X111760106Y-126172740D01*
X111760106Y-112202534D02*
X111760106Y-112202534D01*
X110790654Y-112202534D02*
X110790654Y-112202534D01*
X110790654Y-111400000D02*
X107290608Y-111400000D01*
X98761413Y-112202534D02*
X97789895Y-112202534D01*
X107290608Y-111400000D02*
X107290608Y-111400000D01*
X102261458Y-112202534D02*
X102261458Y-112202534D01*
X98761416Y-126172740D02*
X98761416Y-126172740D01*
X107290608Y-112202534D02*
X102261458Y-112202534D01*
X145390612Y-72091723D02*
X148890658Y-72091723D01*
X135889895Y-57298311D02*
X135889895Y-57298311D01*
X140361462Y-72091723D02*
X140361462Y-71268517D01*
X145390612Y-71268517D02*
X145390612Y-72091723D01*
X145390612Y-72091723D02*
X145390612Y-72091723D01*
X136861416Y-72091723D02*
X136861416Y-72091723D01*
X136861413Y-57298311D02*
X136861413Y-57298311D01*
X148890658Y-72091723D02*
X148890658Y-71268517D01*
X136861416Y-72091723D02*
X140361462Y-72091723D01*
X145390612Y-71268517D02*
X145390612Y-71268517D01*
X149860106Y-71268517D02*
X149860106Y-57298311D01*
X136861416Y-71268517D02*
X136861416Y-72091723D01*
X149860106Y-71268517D02*
X149860106Y-71268517D01*
X148890654Y-56495777D02*
X148890654Y-56495777D01*
X145390608Y-56495777D02*
X145390608Y-57298311D01*
X148890654Y-57298311D02*
X148890654Y-56495777D01*
X135889895Y-57298311D02*
X135889899Y-71268517D01*
X148890658Y-71268517D02*
X149860106Y-71268517D01*
X136861413Y-56495777D02*
X136861413Y-56495777D01*
X148890654Y-57298311D02*
X148890654Y-57298311D01*
X136861413Y-57298311D02*
X135889895Y-57298311D01*
X140361458Y-56495777D02*
X140361458Y-56495777D01*
X135889899Y-71268517D02*
X136861416Y-71268517D01*
X149860106Y-57298311D02*
X148890654Y-57298311D01*
X136861413Y-56495777D02*
X136861413Y-57298311D01*
X145390608Y-57298311D02*
X140361458Y-57298311D01*
X148890658Y-71268517D02*
X148890658Y-71268517D01*
X140361458Y-56495777D02*
X136861413Y-56495777D01*
X148890654Y-56495777D02*
X145390608Y-56495777D01*
X145390608Y-57298311D02*
X145390608Y-57298311D01*
X140361462Y-72091723D02*
X140361462Y-72091723D01*
X145390608Y-56495777D02*
X145390608Y-56495777D01*
X140361458Y-57298311D02*
X140361458Y-56495777D01*
X148890658Y-72091723D02*
X148890658Y-72091723D01*
X136861416Y-71268517D02*
X136861416Y-71268517D01*
X140361462Y-71268517D02*
X140361462Y-71268517D01*
X149860106Y-57298311D02*
X149860106Y-57298311D01*
X140361458Y-57298311D02*
X140361458Y-57298311D01*
X140361462Y-71268517D02*
X145390612Y-71268517D01*
X116548962Y-77459767D02*
X121578112Y-77459767D01*
X116548958Y-63489561D02*
X116548958Y-63489561D01*
X126047606Y-63489561D02*
X126047606Y-63489561D01*
X125078158Y-78282973D02*
X125078158Y-78282973D01*
X121578108Y-62687027D02*
X121578108Y-62687027D01*
X116548962Y-78282973D02*
X116548962Y-78282973D01*
X125078154Y-62687027D02*
X121578108Y-62687027D01*
X116548958Y-62687027D02*
X113048913Y-62687027D01*
X121578108Y-63489561D02*
X116548958Y-63489561D01*
X113048913Y-62687027D02*
X113048913Y-63489561D01*
X126047606Y-63489561D02*
X125078154Y-63489561D01*
X112077399Y-77459767D02*
X113048916Y-77459767D01*
X116548958Y-62687027D02*
X116548958Y-62687027D01*
X113048913Y-63489561D02*
X112077395Y-63489561D01*
X125078154Y-63489561D02*
X125078154Y-63489561D01*
X113048913Y-62687027D02*
X113048913Y-62687027D01*
X125078158Y-77459767D02*
X126047606Y-77459767D01*
X121578108Y-62687027D02*
X121578108Y-63489561D01*
X125078154Y-62687027D02*
X125078154Y-62687027D01*
X112077395Y-63489561D02*
X112077399Y-77459767D01*
X126047606Y-77459767D02*
X126047606Y-77459767D01*
X116548962Y-77459767D02*
X116548962Y-77459767D01*
X113048916Y-77459767D02*
X113048916Y-78282973D01*
X126047606Y-77459767D02*
X126047606Y-63489561D01*
X121578112Y-77459767D02*
X121578112Y-77459767D01*
X113048916Y-77459767D02*
X113048916Y-77459767D01*
X113048916Y-78282973D02*
X116548962Y-78282973D01*
X125078158Y-78282973D02*
X125078158Y-77459767D01*
X113048913Y-63489561D02*
X113048913Y-63489561D01*
X113048916Y-78282973D02*
X113048916Y-78282973D01*
X121578112Y-78282973D02*
X121578112Y-78282973D01*
X121578112Y-77459767D02*
X121578112Y-78282973D01*
X116548962Y-78282973D02*
X116548962Y-77459767D01*
X121578108Y-63489561D02*
X121578108Y-63489561D01*
X116548958Y-63489561D02*
X116548958Y-62687027D01*
X125078158Y-77459767D02*
X125078158Y-77459767D01*
X112077395Y-63489561D02*
X112077395Y-63489561D01*
X125078154Y-63489561D02*
X125078154Y-62687027D01*
X121578112Y-78282973D02*
X125078158Y-78282973D01*
X104909358Y-93017061D02*
X99880208Y-93017061D01*
X96380166Y-106987267D02*
X96380166Y-106987267D01*
X99880208Y-93017061D02*
X99880208Y-93017061D01*
X104909358Y-92214527D02*
X104909358Y-92214527D01*
X108409404Y-92214527D02*
X104909358Y-92214527D01*
X108409404Y-93017061D02*
X108409404Y-93017061D01*
X109378856Y-93017061D02*
X109378856Y-93017061D01*
X108409408Y-106987267D02*
X109378856Y-106987267D01*
X95408649Y-106987267D02*
X96380166Y-106987267D01*
X99880212Y-107810473D02*
X99880212Y-107810473D01*
X96380163Y-92214527D02*
X96380163Y-93017061D01*
X108409408Y-107810473D02*
X108409408Y-106987267D01*
X96380163Y-92214527D02*
X96380163Y-92214527D01*
X95408645Y-93017061D02*
X95408649Y-106987267D01*
X99880212Y-106987267D02*
X99880212Y-106987267D01*
X108409408Y-107810473D02*
X108409408Y-107810473D01*
X96380166Y-106987267D02*
X96380166Y-107810473D01*
X109378856Y-106987267D02*
X109378856Y-93017061D01*
X96380166Y-107810473D02*
X99880212Y-107810473D01*
X99880212Y-106987267D02*
X104909362Y-106987267D01*
X104909362Y-106987267D02*
X104909362Y-107810473D01*
X96380166Y-107810473D02*
X96380166Y-107810473D01*
X99880212Y-107810473D02*
X99880212Y-106987267D01*
X104909362Y-106987267D02*
X104909362Y-106987267D01*
X104909358Y-93017061D02*
X104909358Y-93017061D01*
X99880208Y-92214527D02*
X99880208Y-92214527D01*
X108409404Y-93017061D02*
X108409404Y-92214527D01*
X109378856Y-93017061D02*
X108409404Y-93017061D01*
X96380163Y-93017061D02*
X95408645Y-93017061D01*
X104909358Y-92214527D02*
X104909358Y-93017061D01*
X96380163Y-93017061D02*
X96380163Y-93017061D01*
X108409404Y-92214527D02*
X108409404Y-92214527D01*
X108409408Y-106987267D02*
X108409408Y-106987267D01*
X104909362Y-107810473D02*
X104909362Y-107810473D01*
X104909362Y-107810473D02*
X108409408Y-107810473D01*
X99880208Y-93017061D02*
X99880208Y-92214527D01*
X99880208Y-92214527D02*
X96380163Y-92214527D01*
X109378856Y-106987267D02*
X109378856Y-106987267D01*
X95408645Y-93017061D02*
X95408645Y-93017061D01*
X159093958Y-62060811D02*
X159093958Y-62060811D01*
X159093962Y-76854223D02*
X159093962Y-76854223D01*
X159093958Y-61258277D02*
X159093958Y-61258277D01*
X159093962Y-76854223D02*
X159093962Y-76031017D01*
X167623154Y-61258277D02*
X167623154Y-61258277D01*
X164123112Y-76031017D02*
X164123112Y-76854223D01*
X168592606Y-76031017D02*
X168592606Y-76031017D01*
X155593916Y-76031017D02*
X155593916Y-76031017D01*
X155593913Y-62060811D02*
X155593913Y-62060811D01*
X164123108Y-62060811D02*
X164123108Y-62060811D01*
X155593916Y-76854223D02*
X159093962Y-76854223D01*
X167623154Y-61258277D02*
X164123108Y-61258277D01*
X164123108Y-61258277D02*
X164123108Y-62060811D01*
X164123112Y-76031017D02*
X164123112Y-76031017D01*
X159093958Y-61258277D02*
X155593913Y-61258277D01*
X167623158Y-76031017D02*
X167623158Y-76031017D01*
X167623158Y-76854223D02*
X167623158Y-76031017D01*
X159093962Y-76031017D02*
X164123112Y-76031017D01*
X167623154Y-62060811D02*
X167623154Y-62060811D01*
X155593913Y-62060811D02*
X154622395Y-62060811D01*
X155593916Y-76031017D02*
X155593916Y-76854223D01*
X167623158Y-76854223D02*
X167623158Y-76854223D01*
X167623158Y-76031017D02*
X168592606Y-76031017D01*
X159093962Y-76031017D02*
X159093962Y-76031017D01*
X155593913Y-61258277D02*
X155593913Y-62060811D01*
X168592606Y-62060811D02*
X168592606Y-62060811D01*
X168592606Y-62060811D02*
X167623154Y-62060811D01*
X159093958Y-62060811D02*
X159093958Y-61258277D01*
X154622399Y-76031017D02*
X155593916Y-76031017D01*
X155593913Y-61258277D02*
X155593913Y-61258277D01*
X168592606Y-76031017D02*
X168592606Y-62060811D01*
X164123108Y-61258277D02*
X164123108Y-61258277D01*
X155593916Y-76854223D02*
X155593916Y-76854223D01*
X164123108Y-62060811D02*
X159093958Y-62060811D01*
X164123112Y-76854223D02*
X164123112Y-76854223D01*
X167623154Y-62060811D02*
X167623154Y-61258277D01*
X164123112Y-76854223D02*
X167623158Y-76854223D01*
X154622395Y-62060811D02*
X154622399Y-76031017D01*
X154622395Y-62060811D02*
X154622395Y-62060811D01*
X179377860Y-125970026D02*
X179377860Y-125970026D01*
X165870347Y-139404442D02*
X165870347Y-139404442D01*
X177747643Y-141480536D02*
X177747643Y-141480536D01*
X167330629Y-125510766D02*
X167330629Y-125510766D01*
X164904152Y-139302891D02*
X165870347Y-139404442D01*
X179377860Y-125970026D02*
X175896987Y-125604172D01*
X170895388Y-125078482D02*
X170895388Y-125078482D01*
X169265171Y-140588993D02*
X169265171Y-140588993D01*
X174266771Y-141114682D02*
X177747643Y-141480536D01*
X170895388Y-125078482D02*
X167414516Y-124712628D01*
X169351220Y-139770296D02*
X174352820Y-140295986D01*
X165784299Y-140223138D02*
X169265171Y-140588993D01*
X178797829Y-140763175D02*
X180258113Y-126869499D01*
X174352820Y-140295986D02*
X174266771Y-141114682D01*
X179293972Y-126768164D02*
X179377860Y-125970026D01*
X167414516Y-124712628D02*
X167330629Y-125510766D01*
X169351220Y-139770296D02*
X169351220Y-139770296D01*
X178797829Y-140763175D02*
X178797829Y-140763175D01*
X175896987Y-125604172D02*
X175896987Y-125604172D01*
X167330629Y-125510766D02*
X166364433Y-125409214D01*
X167414516Y-124712628D02*
X167414516Y-124712628D01*
X165870347Y-139404442D02*
X165784299Y-140223138D01*
X175813100Y-126402309D02*
X175813100Y-126402309D01*
X166364433Y-125409214D02*
X164904152Y-139302891D01*
X177833692Y-140661840D02*
X177833692Y-140661840D01*
X175896987Y-125604172D02*
X175813100Y-126402309D01*
X177833692Y-140661840D02*
X178797829Y-140763175D01*
X177747643Y-141480536D02*
X177833692Y-140661840D01*
X170811500Y-125876620D02*
X170811500Y-125876620D01*
X174352820Y-140295986D02*
X174352820Y-140295986D01*
X180258113Y-126869499D02*
X179293972Y-126768164D01*
X180258113Y-126869499D02*
X180258113Y-126869499D01*
X165784299Y-140223138D02*
X165784299Y-140223138D01*
X169265171Y-140588993D02*
X169351220Y-139770296D01*
X174266771Y-141114682D02*
X174266771Y-141114682D01*
X175813100Y-126402309D02*
X170811500Y-125876620D01*
X170811500Y-125876620D02*
X170895388Y-125078482D01*
X179293972Y-126768164D02*
X179293972Y-126768164D01*
X166364433Y-125409214D02*
X166364433Y-125409214D01*
X177826462Y-100666723D02*
X177826462Y-100666723D01*
X186355654Y-85070777D02*
X186355654Y-85070777D01*
X174326416Y-99843517D02*
X174326416Y-99843517D01*
X186355658Y-100666723D02*
X186355658Y-100666723D01*
X174326413Y-85873311D02*
X174326413Y-85873311D01*
X177826458Y-85873311D02*
X177826458Y-85070777D01*
X186355654Y-85070777D02*
X182855608Y-85070777D01*
X177826458Y-85070777D02*
X177826458Y-85070777D01*
X177826458Y-85070777D02*
X174326413Y-85070777D01*
X186355658Y-99843517D02*
X186355658Y-99843517D01*
X187325106Y-99843517D02*
X187325106Y-85873311D01*
X182855612Y-99843517D02*
X182855612Y-100666723D01*
X186355654Y-85873311D02*
X186355654Y-85070777D01*
X174326413Y-85070777D02*
X174326413Y-85873311D01*
X182855612Y-99843517D02*
X182855612Y-99843517D01*
X177826462Y-99843517D02*
X177826462Y-99843517D01*
X177826462Y-100666723D02*
X177826462Y-99843517D01*
X174326413Y-85873311D02*
X173354895Y-85873311D01*
X177826458Y-85873311D02*
X177826458Y-85873311D01*
X182855608Y-85070777D02*
X182855608Y-85070777D01*
X174326413Y-85070777D02*
X174326413Y-85070777D01*
X173354899Y-99843517D02*
X174326416Y-99843517D01*
X177826462Y-99843517D02*
X182855612Y-99843517D01*
X182855608Y-85070777D02*
X182855608Y-85873311D01*
X174326416Y-99843517D02*
X174326416Y-100666723D01*
X186355658Y-99843517D02*
X187325106Y-99843517D01*
X174326416Y-100666723D02*
X177826462Y-100666723D01*
X187325106Y-85873311D02*
X186355654Y-85873311D01*
X187325106Y-85873311D02*
X187325106Y-85873311D01*
X182855608Y-85873311D02*
X182855608Y-85873311D01*
X186355658Y-100666723D02*
X186355658Y-99843517D01*
X173354895Y-85873311D02*
X173354899Y-99843517D01*
X174326416Y-100666723D02*
X174326416Y-100666723D01*
X182855612Y-100666723D02*
X182855612Y-100666723D01*
X187325106Y-99843517D02*
X187325106Y-99843517D01*
X182855608Y-85873311D02*
X177826458Y-85873311D01*
X186355654Y-85873311D02*
X186355654Y-85873311D01*
X173354895Y-85873311D02*
X173354895Y-85873311D01*
X182855612Y-100666723D02*
X186355658Y-100666723D01*
X154622395Y-81110811D02*
X154622395Y-81110811D01*
X164123112Y-95904223D02*
X167623158Y-95904223D01*
X167623154Y-81110811D02*
X167623154Y-80308277D01*
X164123112Y-95904223D02*
X164123112Y-95904223D01*
X155593916Y-95904223D02*
X155593916Y-95904223D01*
X155593913Y-80308277D02*
X155593913Y-80308277D01*
X154622399Y-95081017D02*
X155593916Y-95081017D01*
X168592606Y-81110811D02*
X167623154Y-81110811D01*
X168592606Y-81110811D02*
X168592606Y-81110811D01*
X155593913Y-80308277D02*
X155593913Y-81110811D01*
X159093962Y-95081017D02*
X159093962Y-95081017D01*
X167623158Y-95081017D02*
X168592606Y-95081017D01*
X155593916Y-95081017D02*
X155593916Y-95904223D01*
X155593913Y-81110811D02*
X154622395Y-81110811D01*
X154622395Y-81110811D02*
X154622399Y-95081017D01*
X164123108Y-81110811D02*
X159093958Y-81110811D01*
X167623154Y-81110811D02*
X167623154Y-81110811D01*
X159093962Y-95081017D02*
X164123112Y-95081017D01*
X167623158Y-95081017D02*
X167623158Y-95081017D01*
X159093958Y-80308277D02*
X155593913Y-80308277D01*
X164123112Y-95081017D02*
X164123112Y-95081017D01*
X164123108Y-80308277D02*
X164123108Y-81110811D01*
X167623154Y-80308277D02*
X164123108Y-80308277D01*
X155593916Y-95904223D02*
X159093962Y-95904223D01*
X164123108Y-80308277D02*
X164123108Y-80308277D01*
X168592606Y-95081017D02*
X168592606Y-81110811D01*
X164123108Y-81110811D02*
X164123108Y-81110811D01*
X167623158Y-95904223D02*
X167623158Y-95081017D01*
X159093958Y-81110811D02*
X159093958Y-80308277D01*
X155593913Y-81110811D02*
X155593913Y-81110811D01*
X167623158Y-95904223D02*
X167623158Y-95904223D01*
X168592606Y-95081017D02*
X168592606Y-95081017D01*
X155593916Y-95081017D02*
X155593916Y-95081017D01*
X164123112Y-95081017D02*
X164123112Y-95904223D01*
X167623154Y-80308277D02*
X167623154Y-80308277D01*
X159093962Y-95904223D02*
X159093962Y-95081017D01*
X159093962Y-95904223D02*
X159093962Y-95904223D01*
X159093958Y-80308277D02*
X159093958Y-80308277D01*
X159093958Y-81110811D02*
X159093958Y-81110811D01*
X140361462Y-90318517D02*
X145390612Y-90318517D01*
X140361458Y-76348311D02*
X140361458Y-76348311D01*
X149860106Y-76348311D02*
X149860106Y-76348311D01*
X136861416Y-90318517D02*
X136861416Y-90318517D01*
X148890658Y-91141723D02*
X148890658Y-91141723D01*
X140361458Y-76348311D02*
X140361458Y-75545777D01*
X145390608Y-76348311D02*
X145390608Y-76348311D01*
X148890654Y-75545777D02*
X145390608Y-75545777D01*
X140361458Y-75545777D02*
X136861413Y-75545777D01*
X148890658Y-90318517D02*
X148890658Y-90318517D01*
X136861413Y-75545777D02*
X136861413Y-76348311D01*
X149860106Y-76348311D02*
X148890654Y-76348311D01*
X135889899Y-90318517D02*
X136861416Y-90318517D01*
X145390608Y-76348311D02*
X140361458Y-76348311D01*
X136861413Y-76348311D02*
X135889895Y-76348311D01*
X145390608Y-75545777D02*
X145390608Y-75545777D01*
X148890658Y-90318517D02*
X149860106Y-90318517D01*
X135889895Y-76348311D02*
X135889899Y-90318517D01*
X148890654Y-76348311D02*
X148890654Y-75545777D01*
X140361462Y-91141723D02*
X140361462Y-91141723D01*
X145390608Y-75545777D02*
X145390608Y-76348311D01*
X148890654Y-75545777D02*
X148890654Y-75545777D01*
X149860106Y-90318517D02*
X149860106Y-90318517D01*
X136861416Y-90318517D02*
X136861416Y-91141723D01*
X149860106Y-90318517D02*
X149860106Y-76348311D01*
X140361462Y-90318517D02*
X140361462Y-90318517D01*
X145390612Y-90318517D02*
X145390612Y-90318517D01*
X136861416Y-91141723D02*
X140361462Y-91141723D01*
X148890658Y-91141723D02*
X148890658Y-90318517D01*
X136861413Y-76348311D02*
X136861413Y-76348311D01*
X136861416Y-91141723D02*
X136861416Y-91141723D01*
X136861413Y-75545777D02*
X136861413Y-75545777D01*
X145390612Y-91141723D02*
X145390612Y-91141723D01*
X148890654Y-76348311D02*
X148890654Y-76348311D01*
X145390612Y-90318517D02*
X145390612Y-91141723D01*
X140361462Y-91141723D02*
X140361462Y-90318517D01*
X140361458Y-75545777D02*
X140361458Y-75545777D01*
X135889895Y-76348311D02*
X135889895Y-76348311D01*
X145390612Y-91141723D02*
X148890658Y-91141723D01*
X121311458Y-101589561D02*
X121311458Y-101589561D01*
X126340608Y-100787027D02*
X126340608Y-100787027D01*
X117811413Y-101589561D02*
X116839895Y-101589561D01*
X129840654Y-100787027D02*
X126340608Y-100787027D01*
X129840654Y-101589561D02*
X129840654Y-101589561D01*
X129840658Y-115559767D02*
X130810106Y-115559767D01*
X130810106Y-101589561D02*
X129840654Y-101589561D01*
X116839899Y-115559767D02*
X117811416Y-115559767D01*
X121311462Y-116382973D02*
X121311462Y-116382973D01*
X117811416Y-115559767D02*
X117811416Y-115559767D01*
X117811413Y-100787027D02*
X117811413Y-101589561D01*
X117811413Y-100787027D02*
X117811413Y-100787027D01*
X116839895Y-101589561D02*
X116839899Y-115559767D01*
X121311462Y-115559767D02*
X121311462Y-115559767D01*
X117811416Y-115559767D02*
X117811416Y-116382973D01*
X130810106Y-115559767D02*
X130810106Y-101589561D01*
X126340612Y-115559767D02*
X126340612Y-115559767D01*
X117811416Y-116382973D02*
X121311462Y-116382973D01*
X129840658Y-116382973D02*
X129840658Y-115559767D01*
X117811413Y-101589561D02*
X117811413Y-101589561D01*
X121311462Y-115559767D02*
X126340612Y-115559767D01*
X126340612Y-115559767D02*
X126340612Y-116382973D01*
X130810106Y-101589561D02*
X130810106Y-101589561D01*
X117811416Y-116382973D02*
X117811416Y-116382973D01*
X126340608Y-101589561D02*
X121311458Y-101589561D01*
X121311462Y-116382973D02*
X121311462Y-115559767D01*
X126340608Y-101589561D02*
X126340608Y-101589561D01*
X121311458Y-100787027D02*
X121311458Y-100787027D01*
X126340608Y-100787027D02*
X126340608Y-101589561D01*
X121311458Y-101589561D02*
X121311458Y-100787027D01*
X129840658Y-115559767D02*
X129840658Y-115559767D01*
X126340612Y-116382973D02*
X126340612Y-116382973D01*
X129840658Y-116382973D02*
X129840658Y-116382973D01*
X116839895Y-101589561D02*
X116839895Y-101589561D01*
X129840654Y-101589561D02*
X129840654Y-100787027D01*
X126340612Y-116382973D02*
X129840658Y-116382973D01*
X121311458Y-100787027D02*
X117811413Y-100787027D01*
X129840654Y-100787027D02*
X129840654Y-100787027D01*
X130810106Y-115559767D02*
X130810106Y-115559767D01*
X159093958Y-100160811D02*
X159093958Y-100160811D01*
X159093962Y-114954223D02*
X159093962Y-114954223D01*
X167623154Y-99358277D02*
X167623154Y-99358277D01*
X159093958Y-99358277D02*
X159093958Y-99358277D01*
X155593916Y-114131017D02*
X155593916Y-114131017D01*
X167623158Y-114954223D02*
X167623158Y-114954223D01*
X155593913Y-100160811D02*
X155593913Y-100160811D01*
X159093958Y-100160811D02*
X159093958Y-99358277D01*
X164123108Y-100160811D02*
X164123108Y-100160811D01*
X167623154Y-99358277D02*
X164123108Y-99358277D01*
X164123108Y-99358277D02*
X164123108Y-100160811D01*
X159093958Y-99358277D02*
X155593913Y-99358277D01*
X167623158Y-114131017D02*
X167623158Y-114131017D01*
X168592606Y-114131017D02*
X168592606Y-100160811D01*
X164123112Y-114131017D02*
X164123112Y-114131017D01*
X164123108Y-100160811D02*
X159093958Y-100160811D01*
X155593913Y-100160811D02*
X154622395Y-100160811D01*
X164123108Y-99358277D02*
X164123108Y-99358277D01*
X159093962Y-114131017D02*
X164123112Y-114131017D01*
X155593916Y-114131017D02*
X155593916Y-114954223D01*
X167623158Y-114131017D02*
X168592606Y-114131017D01*
X159093962Y-114131017D02*
X159093962Y-114131017D01*
X155593913Y-99358277D02*
X155593913Y-100160811D01*
X155593916Y-114954223D02*
X159093962Y-114954223D01*
X168592606Y-100160811D02*
X168592606Y-100160811D01*
X167623158Y-114954223D02*
X167623158Y-114131017D01*
X168592606Y-100160811D02*
X167623154Y-100160811D01*
X154622399Y-114131017D02*
X155593916Y-114131017D01*
X154622395Y-100160811D02*
X154622399Y-114131017D01*
X155593916Y-114954223D02*
X155593916Y-114954223D01*
X155593913Y-99358277D02*
X155593913Y-99358277D01*
X164123112Y-114954223D02*
X164123112Y-114954223D01*
X167623154Y-100160811D02*
X167623154Y-99358277D01*
X168592606Y-114131017D02*
X168592606Y-114131017D01*
X167623154Y-100160811D02*
X167623154Y-100160811D01*
X164123112Y-114131017D02*
X164123112Y-114954223D01*
X159093962Y-114954223D02*
X159093962Y-114131017D01*
X154622395Y-100160811D02*
X154622395Y-100160811D01*
X164123112Y-114954223D02*
X167623158Y-114954223D01*
X145390612Y-110191723D02*
X148890658Y-110191723D01*
X135889895Y-95398311D02*
X135889895Y-95398311D01*
X140361462Y-110191723D02*
X140361462Y-109368517D01*
X145390612Y-109368517D02*
X145390612Y-110191723D01*
X148890654Y-95398311D02*
X148890654Y-95398311D01*
X145390612Y-110191723D02*
X145390612Y-110191723D01*
X136861413Y-94595777D02*
X136861413Y-94595777D01*
X136861416Y-110191723D02*
X136861416Y-110191723D01*
X148890658Y-110191723D02*
X148890658Y-109368517D01*
X136861416Y-110191723D02*
X140361462Y-110191723D01*
X140361462Y-109368517D02*
X140361462Y-109368517D01*
X149860106Y-109368517D02*
X149860106Y-109368517D01*
X148890654Y-95398311D02*
X148890654Y-94595777D01*
X148890658Y-109368517D02*
X149860106Y-109368517D01*
X136861416Y-109368517D02*
X136861416Y-110191723D01*
X135889895Y-95398311D02*
X135889899Y-109368517D01*
X145390608Y-94595777D02*
X145390608Y-94595777D01*
X136861413Y-95398311D02*
X135889895Y-95398311D01*
X145390608Y-95398311D02*
X140361458Y-95398311D01*
X135889899Y-109368517D02*
X136861416Y-109368517D01*
X145390612Y-109368517D02*
X145390612Y-109368517D01*
X149860106Y-95398311D02*
X148890654Y-95398311D01*
X149860106Y-109368517D02*
X149860106Y-95398311D01*
X148890658Y-109368517D02*
X148890658Y-109368517D01*
X140361458Y-94595777D02*
X136861413Y-94595777D01*
X145390608Y-94595777D02*
X145390608Y-95398311D01*
X148890654Y-94595777D02*
X145390608Y-94595777D01*
X145390608Y-95398311D02*
X145390608Y-95398311D01*
X140361458Y-95398311D02*
X140361458Y-94595777D01*
X148890658Y-110191723D02*
X148890658Y-110191723D01*
X136861416Y-109368517D02*
X136861416Y-109368517D01*
X136861413Y-94595777D02*
X136861413Y-95398311D01*
X149860106Y-95398311D02*
X149860106Y-95398311D01*
X140361458Y-94595777D02*
X140361458Y-94595777D01*
X148890654Y-94595777D02*
X148890654Y-94595777D01*
X140361462Y-110191723D02*
X140361462Y-110191723D01*
X140361458Y-95398311D02*
X140361458Y-95398311D01*
X136861413Y-95398311D02*
X136861413Y-95398311D01*
X140361462Y-109368517D02*
X145390612Y-109368517D01*
X123959362Y-97332973D02*
X127459408Y-97332973D01*
X127459404Y-82539561D02*
X127459404Y-81737027D01*
X114458645Y-82539561D02*
X114458645Y-82539561D01*
X127459408Y-96509767D02*
X127459408Y-96509767D01*
X118930208Y-82539561D02*
X118930208Y-81737027D01*
X123959358Y-82539561D02*
X123959358Y-82539561D01*
X118930212Y-97332973D02*
X118930212Y-96509767D01*
X123959362Y-96509767D02*
X123959362Y-97332973D01*
X115430163Y-82539561D02*
X115430163Y-82539561D01*
X127459408Y-97332973D02*
X127459408Y-96509767D01*
X115430166Y-97332973D02*
X118930212Y-97332973D01*
X123959362Y-96509767D02*
X123959362Y-96509767D01*
X128428856Y-96509767D02*
X128428856Y-82539561D01*
X123959362Y-97332973D02*
X123959362Y-97332973D01*
X115430166Y-96509767D02*
X115430166Y-97332973D01*
X118930212Y-96509767D02*
X118930212Y-96509767D01*
X128428856Y-96509767D02*
X128428856Y-96509767D01*
X114458645Y-82539561D02*
X114458649Y-96509767D01*
X127459404Y-81737027D02*
X127459404Y-81737027D01*
X115430163Y-81737027D02*
X115430163Y-81737027D01*
X118930208Y-81737027D02*
X118930208Y-81737027D01*
X114458649Y-96509767D02*
X115430166Y-96509767D01*
X123959358Y-81737027D02*
X123959358Y-82539561D01*
X128428856Y-82539561D02*
X127459404Y-82539561D01*
X115430163Y-81737027D02*
X115430163Y-82539561D01*
X115430166Y-96509767D02*
X115430166Y-96509767D01*
X127459408Y-96509767D02*
X128428856Y-96509767D01*
X123959358Y-82539561D02*
X118930208Y-82539561D01*
X115430166Y-97332973D02*
X115430166Y-97332973D01*
X127459404Y-82539561D02*
X127459404Y-82539561D01*
X118930208Y-81737027D02*
X115430163Y-81737027D01*
X127459404Y-81737027D02*
X123959358Y-81737027D01*
X118930212Y-97332973D02*
X118930212Y-97332973D01*
X115430163Y-82539561D02*
X114458645Y-82539561D01*
X123959358Y-81737027D02*
X123959358Y-81737027D01*
X127459408Y-97332973D02*
X127459408Y-97332973D01*
X128428856Y-82539561D02*
X128428856Y-82539561D01*
X118930212Y-96509767D02*
X123959362Y-96509767D01*
X118930208Y-82539561D02*
X118930208Y-82539561D01*
X93344895Y-73967061D02*
X93344895Y-73967061D01*
X97816458Y-73164527D02*
X94316413Y-73164527D01*
X97816458Y-73967061D02*
X97816458Y-73164527D01*
X102845612Y-88760473D02*
X106345658Y-88760473D01*
X102845612Y-88760473D02*
X102845612Y-88760473D01*
X106345658Y-87937267D02*
X106345658Y-87937267D01*
X106345654Y-73164527D02*
X106345654Y-73164527D01*
X94316413Y-73967061D02*
X93344895Y-73967061D01*
X107315106Y-73967061D02*
X106345654Y-73967061D01*
X106345654Y-73967061D02*
X106345654Y-73164527D01*
X97816458Y-73164527D02*
X97816458Y-73164527D01*
X102845608Y-73967061D02*
X102845608Y-73967061D01*
X102845612Y-87937267D02*
X102845612Y-87937267D01*
X97816462Y-88760473D02*
X97816462Y-87937267D01*
X102845612Y-87937267D02*
X102845612Y-88760473D01*
X97816462Y-87937267D02*
X102845612Y-87937267D01*
X94316416Y-88760473D02*
X97816462Y-88760473D01*
X94316416Y-87937267D02*
X94316416Y-88760473D01*
X93344895Y-73967061D02*
X93344899Y-87937267D01*
X94316413Y-73164527D02*
X94316413Y-73164527D01*
X94316416Y-88760473D02*
X94316416Y-88760473D01*
X106345658Y-88760473D02*
X106345658Y-87937267D01*
X94316413Y-73164527D02*
X94316413Y-73967061D01*
X97816462Y-88760473D02*
X97816462Y-88760473D01*
X106345658Y-88760473D02*
X106345658Y-88760473D01*
X93344899Y-87937267D02*
X94316416Y-87937267D01*
X106345658Y-87937267D02*
X107315106Y-87937267D01*
X107315106Y-87937267D02*
X107315106Y-87937267D01*
X107315106Y-87937267D02*
X107315106Y-73967061D01*
X107315106Y-73967061D02*
X107315106Y-73967061D01*
X106345654Y-73967061D02*
X106345654Y-73967061D01*
X106345654Y-73164527D02*
X102845608Y-73164527D01*
X94316413Y-73967061D02*
X94316413Y-73967061D01*
X97816462Y-87937267D02*
X97816462Y-87937267D01*
X102845608Y-73164527D02*
X102845608Y-73164527D01*
X97816458Y-73967061D02*
X97816458Y-73967061D01*
X94316416Y-87937267D02*
X94316416Y-87937267D01*
X102845608Y-73164527D02*
X102845608Y-73967061D01*
X102845608Y-73967061D02*
X97816458Y-73967061D01*
X173354895Y-104764561D02*
X173354895Y-104764561D01*
X186355654Y-104764561D02*
X186355654Y-104764561D01*
X182855608Y-104764561D02*
X177826458Y-104764561D01*
X182855612Y-119557973D02*
X182855612Y-119557973D01*
X174326416Y-119557973D02*
X174326416Y-119557973D01*
X187325106Y-104764561D02*
X187325106Y-104764561D01*
X187325106Y-104764561D02*
X186355654Y-104764561D01*
X186355658Y-119557973D02*
X186355658Y-118734767D01*
X186355658Y-118734767D02*
X187325106Y-118734767D01*
X182855608Y-103962027D02*
X182855608Y-104764561D01*
X173354895Y-104764561D02*
X173354899Y-118734767D01*
X174326416Y-118734767D02*
X174326416Y-119557973D01*
X174326413Y-103962027D02*
X174326413Y-103962027D01*
X182855608Y-103962027D02*
X182855608Y-103962027D01*
X187325106Y-118734767D02*
X187325106Y-118734767D01*
X174326413Y-104764561D02*
X173354895Y-104764561D01*
X177826462Y-119557973D02*
X177826462Y-118734767D01*
X182855608Y-104764561D02*
X182855608Y-104764561D01*
X177826462Y-118734767D02*
X177826462Y-118734767D01*
X182855612Y-118734767D02*
X182855612Y-118734767D01*
X174326413Y-103962027D02*
X174326413Y-104764561D01*
X186355654Y-104764561D02*
X186355654Y-103962027D01*
X177826458Y-104764561D02*
X177826458Y-104764561D01*
X182855612Y-118734767D02*
X182855612Y-119557973D01*
X187325106Y-118734767D02*
X187325106Y-104764561D01*
X174326416Y-119557973D02*
X177826462Y-119557973D01*
X186355658Y-118734767D02*
X186355658Y-118734767D01*
X177826458Y-103962027D02*
X174326413Y-103962027D01*
X182855612Y-119557973D02*
X186355658Y-119557973D01*
X177826458Y-103962027D02*
X177826458Y-103962027D01*
X186355654Y-103962027D02*
X182855608Y-103962027D01*
X173354899Y-118734767D02*
X174326416Y-118734767D01*
X177826458Y-104764561D02*
X177826458Y-103962027D01*
X174326413Y-104764561D02*
X174326413Y-104764561D01*
X177826462Y-118734767D02*
X182855612Y-118734767D01*
X186355658Y-119557973D02*
X186355658Y-119557973D01*
X174326416Y-118734767D02*
X174326416Y-118734767D01*
X186355654Y-103962027D02*
X186355654Y-103962027D01*
X177826462Y-119557973D02*
X177826462Y-119557973D01*
X203286643Y-133318061D02*
X203286643Y-133318061D01*
X190922187Y-129300606D02*
X190922187Y-129300606D01*
X199957902Y-132236488D02*
X195174896Y-130682395D01*
X195386490Y-146305860D02*
X195386490Y-146305860D01*
X204208647Y-133617639D02*
X204208647Y-133617639D01*
X204208647Y-133617639D02*
X203286643Y-133318061D01*
X195640875Y-145522944D02*
X195640875Y-145522944D01*
X195174896Y-130682395D02*
X195174896Y-130682395D01*
X198715232Y-147387434D02*
X198969616Y-146604518D01*
X200205899Y-131473233D02*
X199957902Y-132236488D01*
X198969616Y-146604518D02*
X198969616Y-146604518D01*
X190922187Y-129300606D02*
X186605160Y-142587063D01*
X199957902Y-132236488D02*
X199957902Y-132236488D01*
X187529127Y-142887278D02*
X187274743Y-143670193D01*
X191846155Y-129600822D02*
X190922187Y-129300606D01*
X200205899Y-131473233D02*
X200205899Y-131473233D01*
X199891616Y-146904094D02*
X199891616Y-146904094D01*
X192094152Y-128837566D02*
X191846155Y-129600822D01*
X203286643Y-133318061D02*
X203534640Y-132554806D01*
X195640875Y-145522944D02*
X195386490Y-146305860D01*
X199891616Y-146904094D02*
X204208647Y-133617639D01*
X187274743Y-143670193D02*
X190603484Y-144751767D01*
X195174896Y-130682395D02*
X195422893Y-129919140D01*
X190603484Y-144751767D02*
X190857869Y-143968852D01*
X190857869Y-143968852D02*
X195640875Y-145522944D01*
X195422893Y-129919140D02*
X192094152Y-128837566D01*
X195386490Y-146305860D02*
X198715232Y-147387434D01*
X190603484Y-144751767D02*
X190603484Y-144751767D01*
X195422893Y-129919140D02*
X195422893Y-129919140D01*
X190857869Y-143968852D02*
X190857869Y-143968852D01*
X203534640Y-132554806D02*
X200205899Y-131473233D01*
X187274743Y-143670193D02*
X187274743Y-143670193D01*
X186605160Y-142587063D02*
X187529127Y-142887278D01*
X191846155Y-129600822D02*
X191846155Y-129600822D01*
X192094152Y-128837566D02*
X192094152Y-128837566D01*
X198715232Y-147387434D02*
X198715232Y-147387434D01*
X187529127Y-142887278D02*
X187529127Y-142887278D01*
X198969616Y-146604518D02*
X199891616Y-146904094D01*
X203534640Y-132554806D02*
X203534640Y-132554806D01*
X182855612Y-81616723D02*
X186355658Y-81616723D01*
X173354895Y-66823311D02*
X173354895Y-66823311D01*
X186355654Y-66823311D02*
X186355654Y-66823311D01*
X187325106Y-80793517D02*
X187325106Y-80793517D01*
X182855612Y-81616723D02*
X182855612Y-81616723D01*
X174326416Y-81616723D02*
X174326416Y-81616723D01*
X173354895Y-66823311D02*
X173354899Y-80793517D01*
X186355658Y-81616723D02*
X186355658Y-80793517D01*
X187325106Y-66823311D02*
X187325106Y-66823311D01*
X174326416Y-81616723D02*
X177826462Y-81616723D01*
X186355658Y-80793517D02*
X187325106Y-80793517D01*
X174326416Y-80793517D02*
X174326416Y-81616723D01*
X177826462Y-80793517D02*
X182855612Y-80793517D01*
X173354899Y-80793517D02*
X174326416Y-80793517D01*
X182855608Y-66020777D02*
X182855608Y-66020777D01*
X174326413Y-66823311D02*
X173354895Y-66823311D01*
X182855608Y-66823311D02*
X177826458Y-66823311D01*
X177826462Y-81616723D02*
X177826462Y-80793517D01*
X177826462Y-80793517D02*
X177826462Y-80793517D01*
X182855612Y-80793517D02*
X182855612Y-80793517D01*
X182855612Y-80793517D02*
X182855612Y-81616723D01*
X187325106Y-80793517D02*
X187325106Y-66823311D01*
X174326413Y-66020777D02*
X174326413Y-66020777D01*
X187325106Y-66823311D02*
X186355654Y-66823311D01*
X186355658Y-80793517D02*
X186355658Y-80793517D01*
X174326413Y-66020777D02*
X174326413Y-66823311D01*
X177826458Y-66020777D02*
X174326413Y-66020777D01*
X186355654Y-66823311D02*
X186355654Y-66020777D01*
X182855608Y-66020777D02*
X182855608Y-66823311D01*
X186355654Y-66020777D02*
X182855608Y-66020777D01*
X182855608Y-66823311D02*
X182855608Y-66823311D01*
X177826458Y-66823311D02*
X177826458Y-66020777D01*
X174326413Y-66823311D02*
X174326413Y-66823311D01*
X186355658Y-81616723D02*
X186355658Y-81616723D01*
X174326416Y-80793517D02*
X174326416Y-80793517D01*
X177826458Y-66020777D02*
X177826458Y-66020777D01*
X186355654Y-66020777D02*
X186355654Y-66020777D01*
X177826462Y-81616723D02*
X177826462Y-81616723D01*
X177826458Y-66823311D02*
X177826458Y-66823311D01*
X192021083Y-65508802D02*
X192021083Y-93480802D01*
X195821083Y-93480802D01*
X195821083Y-101208802D01*
X205621083Y-101208802D01*
X205621083Y-93478802D01*
X212021083Y-93480802D01*
X212021083Y-116608802D01*
X199621083Y-116608802D01*
X199600000Y-127600000D01*
X209200000Y-130600000D01*
X201271083Y-149508802D01*
X182771083Y-143758802D01*
X162584187Y-141295705D01*
X120480187Y-128827705D01*
X95779083Y-128278802D01*
X90771083Y-90008802D01*
X90758583Y-71446302D01*
X110003083Y-61476802D01*
X133896083Y-55380802D01*
X151913083Y-55380802D01*
X192021083Y-65508802D01*
X194000000Y-114000000D02*
X206600000Y-114000000D01*
X206600000Y-114000000D02*
X206600000Y-115800000D01*
X206600000Y-115800000D02*
X194000000Y-115800000D01*
X194000000Y-115800000D02*
X194000000Y-114000000D01*
X206600000Y-96600000D02*
X207400000Y-96600000D01*
X207400000Y-96600000D02*
X207400000Y-100600000D01*
X207400000Y-100600000D02*
X206600000Y-100600000D01*
X206600000Y-100600000D02*
X206600000Y-96600000D01*
X92416666Y-150000000D02*
G75*
G03*
X92416666Y-150000000I-1666666J0D01*
G01*
X88250000Y-150000000D02*
X93250000Y-150000000D01*
X90750000Y-147500000D02*
X90750000Y-152500000D01*
M02*
