%TF.GenerationSoftware,KiCad,Pcbnew,(6.0.7)*%
%TF.CreationDate,2022-09-24T00:16:50+09:00*%
%TF.ProjectId,selen_plate,73656c65-6e5f-4706-9c61-74652e6b6963,rev?*%
%TF.SameCoordinates,Original*%
%TF.FileFunction,Legend,Bot*%
%TF.FilePolarity,Positive*%
%FSLAX46Y46*%
G04 Gerber Fmt 4.6, Leading zero omitted, Abs format (unit mm)*
G04 Created by KiCad (PCBNEW (6.0.7)) date 2022-09-24 00:16:50*
%MOMM*%
%LPD*%
G01*
G04 APERTURE LIST*
%ADD10C,0.150000*%
G04 APERTURE END LIST*
D10*
X197725023Y-115498571D02*
X197582166Y-115546190D01*
X197534547Y-115593809D01*
X197486928Y-115689047D01*
X197486928Y-115831904D01*
X197534547Y-115927142D01*
X197582166Y-115974761D01*
X197677404Y-116022380D01*
X198058357Y-116022380D01*
X198058357Y-115022380D01*
X197725023Y-115022380D01*
X197629785Y-115070000D01*
X197582166Y-115117619D01*
X197534547Y-115212857D01*
X197534547Y-115308095D01*
X197582166Y-115403333D01*
X197629785Y-115450952D01*
X197725023Y-115498571D01*
X198058357Y-115498571D01*
X196915500Y-116022380D02*
X197010738Y-115974761D01*
X197058357Y-115927142D01*
X197105976Y-115831904D01*
X197105976Y-115546190D01*
X197058357Y-115450952D01*
X197010738Y-115403333D01*
X196915500Y-115355714D01*
X196772642Y-115355714D01*
X196677404Y-115403333D01*
X196629785Y-115450952D01*
X196582166Y-115546190D01*
X196582166Y-115831904D01*
X196629785Y-115927142D01*
X196677404Y-115974761D01*
X196772642Y-116022380D01*
X196915500Y-116022380D01*
X196010738Y-116022380D02*
X196105976Y-115974761D01*
X196153595Y-115927142D01*
X196201214Y-115831904D01*
X196201214Y-115546190D01*
X196153595Y-115450952D01*
X196105976Y-115403333D01*
X196010738Y-115355714D01*
X195867880Y-115355714D01*
X195772642Y-115403333D01*
X195725023Y-115450952D01*
X195677404Y-115546190D01*
X195677404Y-115831904D01*
X195725023Y-115927142D01*
X195772642Y-115974761D01*
X195867880Y-116022380D01*
X196010738Y-116022380D01*
X195391690Y-115355714D02*
X195010738Y-115355714D01*
X195248833Y-115022380D02*
X195248833Y-115879523D01*
X195201214Y-115974761D01*
X195105976Y-116022380D01*
X195010738Y-116022380D01*
X205594976Y-116022380D02*
X205928309Y-115546190D01*
X206166404Y-116022380D02*
X206166404Y-115022380D01*
X205785452Y-115022380D01*
X205690214Y-115070000D01*
X205642595Y-115117619D01*
X205594976Y-115212857D01*
X205594976Y-115355714D01*
X205642595Y-115450952D01*
X205690214Y-115498571D01*
X205785452Y-115546190D01*
X206166404Y-115546190D01*
X204785452Y-115974761D02*
X204880690Y-116022380D01*
X205071166Y-116022380D01*
X205166404Y-115974761D01*
X205214023Y-115879523D01*
X205214023Y-115498571D01*
X205166404Y-115403333D01*
X205071166Y-115355714D01*
X204880690Y-115355714D01*
X204785452Y-115403333D01*
X204737833Y-115498571D01*
X204737833Y-115593809D01*
X205214023Y-115689047D01*
X204356880Y-115974761D02*
X204261642Y-116022380D01*
X204071166Y-116022380D01*
X203975928Y-115974761D01*
X203928309Y-115879523D01*
X203928309Y-115831904D01*
X203975928Y-115736666D01*
X204071166Y-115689047D01*
X204214023Y-115689047D01*
X204309261Y-115641428D01*
X204356880Y-115546190D01*
X204356880Y-115498571D01*
X204309261Y-115403333D01*
X204214023Y-115355714D01*
X204071166Y-115355714D01*
X203975928Y-115403333D01*
X203118785Y-115974761D02*
X203214023Y-116022380D01*
X203404500Y-116022380D01*
X203499738Y-115974761D01*
X203547357Y-115879523D01*
X203547357Y-115498571D01*
X203499738Y-115403333D01*
X203404500Y-115355714D01*
X203214023Y-115355714D01*
X203118785Y-115403333D01*
X203071166Y-115498571D01*
X203071166Y-115593809D01*
X203547357Y-115689047D01*
X202785452Y-115355714D02*
X202404500Y-115355714D01*
X202642595Y-115022380D02*
X202642595Y-115879523D01*
X202594976Y-115974761D01*
X202499738Y-116022380D01*
X202404500Y-116022380D01*
M02*
