%TF.GenerationSoftware,KiCad,Pcbnew,(6.0.7)*%
%TF.CreationDate,2022-09-04T15:46:55+09:00*%
%TF.ProjectId,selen_plate,73656c65-6e5f-4706-9c61-74652e6b6963,rev?*%
%TF.SameCoordinates,Original*%
%TF.FileFunction,Legend,Top*%
%TF.FilePolarity,Positive*%
%FSLAX46Y46*%
G04 Gerber Fmt 4.6, Leading zero omitted, Abs format (unit mm)*
G04 Created by KiCad (PCBNEW (6.0.7)) date 2022-09-04 15:46:55*
%MOMM*%
%LPD*%
G01*
G04 APERTURE LIST*
%ADD10C,0.150000*%
G04 APERTURE END LIST*
D10*
X203880952Y-113128571D02*
X204023809Y-113176190D01*
X204071428Y-113223809D01*
X204119047Y-113319047D01*
X204119047Y-113461904D01*
X204071428Y-113557142D01*
X204023809Y-113604761D01*
X203928571Y-113652380D01*
X203547619Y-113652380D01*
X203547619Y-112652380D01*
X203880952Y-112652380D01*
X203976190Y-112700000D01*
X204023809Y-112747619D01*
X204071428Y-112842857D01*
X204071428Y-112938095D01*
X204023809Y-113033333D01*
X203976190Y-113080952D01*
X203880952Y-113128571D01*
X203547619Y-113128571D01*
X204690476Y-113652380D02*
X204595238Y-113604761D01*
X204547619Y-113557142D01*
X204500000Y-113461904D01*
X204500000Y-113176190D01*
X204547619Y-113080952D01*
X204595238Y-113033333D01*
X204690476Y-112985714D01*
X204833333Y-112985714D01*
X204928571Y-113033333D01*
X204976190Y-113080952D01*
X205023809Y-113176190D01*
X205023809Y-113461904D01*
X204976190Y-113557142D01*
X204928571Y-113604761D01*
X204833333Y-113652380D01*
X204690476Y-113652380D01*
X205595238Y-113652380D02*
X205500000Y-113604761D01*
X205452380Y-113557142D01*
X205404761Y-113461904D01*
X205404761Y-113176190D01*
X205452380Y-113080952D01*
X205500000Y-113033333D01*
X205595238Y-112985714D01*
X205738095Y-112985714D01*
X205833333Y-113033333D01*
X205880952Y-113080952D01*
X205928571Y-113176190D01*
X205928571Y-113461904D01*
X205880952Y-113557142D01*
X205833333Y-113604761D01*
X205738095Y-113652380D01*
X205595238Y-113652380D01*
X206214285Y-112985714D02*
X206595238Y-112985714D01*
X206357142Y-112652380D02*
X206357142Y-113509523D01*
X206404761Y-113604761D01*
X206500000Y-113652380D01*
X206595238Y-113652380D01*
X194561904Y-113652380D02*
X194228571Y-113176190D01*
X193990476Y-113652380D02*
X193990476Y-112652380D01*
X194371428Y-112652380D01*
X194466666Y-112700000D01*
X194514285Y-112747619D01*
X194561904Y-112842857D01*
X194561904Y-112985714D01*
X194514285Y-113080952D01*
X194466666Y-113128571D01*
X194371428Y-113176190D01*
X193990476Y-113176190D01*
X195371428Y-113604761D02*
X195276190Y-113652380D01*
X195085714Y-113652380D01*
X194990476Y-113604761D01*
X194942857Y-113509523D01*
X194942857Y-113128571D01*
X194990476Y-113033333D01*
X195085714Y-112985714D01*
X195276190Y-112985714D01*
X195371428Y-113033333D01*
X195419047Y-113128571D01*
X195419047Y-113223809D01*
X194942857Y-113319047D01*
X195800000Y-113604761D02*
X195895238Y-113652380D01*
X196085714Y-113652380D01*
X196180952Y-113604761D01*
X196228571Y-113509523D01*
X196228571Y-113461904D01*
X196180952Y-113366666D01*
X196085714Y-113319047D01*
X195942857Y-113319047D01*
X195847619Y-113271428D01*
X195800000Y-113176190D01*
X195800000Y-113128571D01*
X195847619Y-113033333D01*
X195942857Y-112985714D01*
X196085714Y-112985714D01*
X196180952Y-113033333D01*
X197038095Y-113604761D02*
X196942857Y-113652380D01*
X196752380Y-113652380D01*
X196657142Y-113604761D01*
X196609523Y-113509523D01*
X196609523Y-113128571D01*
X196657142Y-113033333D01*
X196752380Y-112985714D01*
X196942857Y-112985714D01*
X197038095Y-113033333D01*
X197085714Y-113128571D01*
X197085714Y-113223809D01*
X196609523Y-113319047D01*
X197371428Y-112985714D02*
X197752380Y-112985714D01*
X197514285Y-112652380D02*
X197514285Y-113509523D01*
X197561904Y-113604761D01*
X197657142Y-113652380D01*
X197752380Y-113652380D01*
M02*
